<svg width="1080" height="360" viewBox="0 0 1080 360" fill="none" xmlns="http://www.w3.org/2000/svg">
<rect width="1080" height="360" fill="#B3E5FC"/>
<path d="M337.5 146.5H720.5L746.5 183L720.5 217.5H337.5L363.5 182L337.5 146.5Z" fill="#01579B"/>
<path d="M457.24 191.756C456.64 191.756 456.112 191.54 455.656 191.108C455.224 190.652 455.008 190.124 455.008 189.524C455.008 188.9 455.224 188.384 455.656 187.976C456.112 187.544 456.64 187.328 457.24 187.328H469.804C471.268 187.328 472.372 187.22 473.116 187.004C473.86 186.764 474.352 186.272 474.592 185.528C474.856 184.784 474.988 183.644 474.988 182.108C474.988 180.548 474.856 179.408 474.592 178.688C474.352 177.944 473.86 177.464 473.116 177.248C472.396 177.008 471.304 176.888 469.84 176.888H457.636C457.036 176.888 456.52 176.672 456.088 176.24C455.656 175.808 455.44 175.28 455.44 174.656C455.44 174.032 455.656 173.516 456.088 173.108C456.52 172.676 457.036 172.46 457.636 172.46H469.84C471.712 172.46 473.26 172.604 474.484 172.892C475.732 173.18 476.716 173.684 477.436 174.404C478.156 175.124 478.66 176.108 478.948 177.356C479.26 178.604 479.416 180.188 479.416 182.108C479.416 184.028 479.26 185.612 478.948 186.86C478.66 188.108 478.156 189.092 477.436 189.812C476.716 190.532 475.732 191.036 474.484 191.324C473.236 191.612 471.676 191.756 469.804 191.756H457.24ZM494.032 194.096C493.456 194.312 492.88 194.288 492.304 194.024C491.752 193.76 491.368 193.34 491.152 192.764C490.936 192.188 490.96 191.624 491.224 191.072C491.488 190.496 491.908 190.1 492.484 189.884C494.404 189.212 496.336 188.384 498.28 187.4C500.248 186.416 502.12 185.348 503.896 184.196C505.696 183.02 507.328 181.82 508.792 180.596C510.28 179.348 511.492 178.148 512.428 176.996C512.836 176.516 513.34 176.24 513.94 176.168C514.564 176.096 515.104 176.264 515.56 176.672C516.04 177.056 516.316 177.56 516.388 178.184C516.46 178.784 516.292 179.324 515.884 179.804C514.9 181.004 513.592 182.288 511.96 183.656C510.328 185 508.504 186.332 506.488 187.652C504.472 188.972 502.396 190.196 500.26 191.324C498.124 192.452 496.048 193.376 494.032 194.096ZM497.128 179.912C496.216 179.144 495.196 178.352 494.068 177.536C492.94 176.696 491.92 176.012 491.008 175.484C490.48 175.148 490.144 174.692 490 174.116C489.856 173.516 489.94 172.952 490.252 172.424C490.588 171.896 491.044 171.56 491.62 171.416C492.22 171.248 492.784 171.332 493.312 171.668C493.96 172.076 494.692 172.58 495.508 173.18C496.348 173.756 497.152 174.332 497.92 174.908C498.712 175.484 499.36 175.976 499.864 176.384C500.344 176.768 500.62 177.272 500.692 177.896C500.788 178.496 500.644 179.036 500.26 179.516C499.876 179.996 499.372 180.284 498.748 180.38C498.148 180.452 497.608 180.296 497.128 179.912ZM524.704 189.596C524.2 189.956 523.636 190.088 523.012 189.992C522.412 189.896 521.932 189.596 521.572 189.092C521.212 188.588 521.08 188.036 521.176 187.436C521.296 186.812 521.608 186.32 522.112 185.96C523.312 185.12 524.5 184.112 525.676 182.936C526.852 181.736 527.92 180.488 528.88 179.192C529.84 177.896 530.608 176.696 531.184 175.592C531.472 175.04 531.904 174.656 532.48 174.44C533.056 174.224 533.608 174.248 534.136 174.512C534.688 174.776 535.06 175.208 535.252 175.808C535.468 176.384 535.432 176.948 535.144 177.5C534.448 178.844 533.548 180.26 532.444 181.748C531.34 183.236 530.116 184.664 528.772 186.032C527.452 187.4 526.096 188.588 524.704 189.596ZM552.46 189.416C551.932 189.728 551.368 189.812 550.768 189.668C550.168 189.5 549.712 189.152 549.4 188.624C548.968 187.904 548.416 187.076 547.744 186.14C547.072 185.204 546.328 184.244 545.512 183.26C544.72 182.276 543.904 181.34 543.064 180.452C542.224 179.54 541.444 178.76 540.724 178.112C540.268 177.704 540.028 177.188 540.004 176.564C539.98 175.94 540.172 175.4 540.58 174.944C541.012 174.512 541.528 174.296 542.128 174.296C542.752 174.296 543.292 174.5 543.748 174.908C544.54 175.652 545.392 176.504 546.304 177.464C547.216 178.424 548.104 179.432 548.968 180.488C549.856 181.52 550.672 182.552 551.416 183.584C552.16 184.592 552.772 185.516 553.252 186.356C553.564 186.884 553.648 187.448 553.504 188.048C553.36 188.648 553.012 189.104 552.46 189.416ZM550.3 175.988C549.292 175.988 548.428 175.64 547.708 174.944C547.012 174.224 546.664 173.36 546.664 172.352C546.664 171.344 547.012 170.492 547.708 169.796C548.428 169.076 549.292 168.716 550.3 168.716C551.308 168.716 552.16 169.076 552.856 169.796C553.576 170.492 553.936 171.344 553.936 172.352C553.936 173.36 553.576 174.224 552.856 174.944C552.16 175.64 551.308 175.988 550.3 175.988ZM550.3 173.9C550.732 173.9 551.092 173.756 551.38 173.468C551.692 173.156 551.848 172.784 551.848 172.352C551.848 171.92 551.692 171.56 551.38 171.272C551.092 170.96 550.732 170.804 550.3 170.804C549.868 170.804 549.496 170.96 549.184 171.272C548.896 171.56 548.752 171.92 548.752 172.352C548.752 172.784 548.896 173.156 549.184 173.468C549.496 173.756 549.868 173.9 550.3 173.9ZM574.6 197.084C574 197.084 573.484 196.856 573.052 196.4C572.62 195.968 572.404 195.452 572.404 194.852V180.452C570.868 181.796 569.284 183.092 567.652 184.34C566.02 185.588 564.388 186.728 562.756 187.76C562.228 188.072 561.664 188.156 561.064 188.012C560.488 187.868 560.032 187.532 559.696 187.004C559.384 186.476 559.3 185.912 559.444 185.312C559.588 184.712 559.924 184.256 560.452 183.944C561.964 183.008 563.536 181.916 565.168 180.668C566.824 179.42 568.432 178.088 569.992 176.672C571.576 175.256 573.028 173.84 574.348 172.424C575.692 170.984 576.808 169.628 577.696 168.356C578.056 167.852 578.536 167.54 579.136 167.42C579.736 167.3 580.288 167.42 580.792 167.78C581.296 168.116 581.608 168.596 581.728 169.22C581.848 169.82 581.728 170.372 581.368 170.876C580.12 172.556 578.608 174.32 576.832 176.168V194.852C576.832 195.452 576.616 195.968 576.184 196.4C575.752 196.856 575.224 197.084 574.6 197.084ZM617.116 190.82C615.028 191.612 613.204 191.96 611.644 191.864C610.084 191.768 608.86 191.204 607.972 190.172C607.108 189.116 606.676 187.568 606.676 185.528V174.08C606.676 173.456 606.892 172.928 607.324 172.496C607.78 172.064 608.308 171.848 608.908 171.848C609.532 171.848 610.048 172.064 610.456 172.496C610.888 172.928 611.104 173.456 611.104 174.08V184.844C611.104 187.124 612.484 187.76 615.244 186.752C616.324 186.344 617.5 185.864 618.772 185.312C620.068 184.76 621.22 184.244 622.228 183.764C622.78 183.5 623.344 183.464 623.92 183.656C624.496 183.824 624.928 184.184 625.216 184.736C625.504 185.264 625.552 185.828 625.36 186.428C625.192 187.028 624.832 187.46 624.28 187.724C623.176 188.252 621.988 188.804 620.716 189.38C619.444 189.932 618.244 190.412 617.116 190.82ZM593.536 193.124C592.984 193.364 592.42 193.388 591.844 193.196C591.268 192.98 590.848 192.596 590.584 192.044C590.344 191.492 590.32 190.928 590.512 190.352C590.728 189.752 591.112 189.332 591.664 189.092C593.608 188.18 595.144 187.076 596.272 185.78C597.4 184.46 598.204 182.972 598.684 181.316C599.164 179.636 599.404 177.836 599.404 175.916C599.404 175.292 599.62 174.764 600.052 174.332C600.484 173.9 601 173.684 601.6 173.684C602.224 173.684 602.74 173.9 603.148 174.332C603.58 174.764 603.796 175.292 603.796 175.916C603.772 180.044 602.872 183.572 601.096 186.5C599.32 189.428 596.8 191.636 593.536 193.124Z" fill="#ECEFF1"/>
<rect x="379.5" y="238.5" width="133.636" height="47" rx="23.5" fill="#81D4FA"/>
<circle cx="416.773" cy="260.773" r="10.6364" stroke="#01579B" stroke-width="3.27273"/>
<path d="M425.773 268.955L433.136 275.5" stroke="#01579B" stroke-width="3.27273" stroke-linecap="round"/>
<path d="M411.864 261.09L415.545 264.362L421.274 258.634" stroke="#01579B" stroke-width="3.27273" stroke-linecap="round" stroke-linejoin="round"/>
<path d="M445.656 274.492C445.384 274.492 445.144 274.404 444.936 274.228C444.744 274.052 444.648 273.812 444.648 273.508V263.788C443.944 265.292 443.272 266.532 442.632 267.508C442.472 267.748 442.256 267.908 441.984 267.988C441.728 268.068 441.472 268.028 441.216 267.868C440.992 267.74 440.84 267.54 440.76 267.268C440.696 266.996 440.744 266.756 440.904 266.548C441.24 266.068 441.592 265.508 441.96 264.868C442.328 264.212 442.688 263.532 443.04 262.828C443.392 262.124 443.704 261.444 443.976 260.788C444.264 260.132 444.488 259.556 444.648 259.06V259.012H441.984C441.68 259.012 441.44 258.916 441.264 258.724C441.104 258.532 441.024 258.308 441.024 258.052C441.024 257.78 441.104 257.556 441.264 257.38C441.44 257.188 441.68 257.092 441.984 257.092H444.648V253.252C444.648 252.964 444.744 252.732 444.936 252.556C445.144 252.364 445.384 252.268 445.656 252.268C445.944 252.268 446.176 252.364 446.352 252.556C446.544 252.732 446.64 252.964 446.64 253.252V257.092H448.56C448.832 257.092 449.056 257.18 449.232 257.356C449.408 257.532 449.504 257.748 449.52 258.004C450.096 257.524 450.664 257.012 451.224 256.468C451.784 255.924 452.304 255.388 452.784 254.86C453.264 254.316 453.656 253.828 453.96 253.396C454.376 252.82 454.904 252.524 455.544 252.508C456.184 252.492 456.736 252.756 457.2 253.3C457.648 253.812 458.216 254.388 458.904 255.028C459.608 255.652 460.336 256.252 461.088 256.828C461.84 257.404 462.52 257.884 463.128 258.268C463.384 258.428 463.536 258.652 463.584 258.94C463.632 259.212 463.568 259.476 463.392 259.732C463.232 259.988 462.992 260.148 462.672 260.212C462.352 260.26 462.064 260.196 461.808 260.02C461.568 259.844 461.312 259.652 461.04 259.444C460.768 259.236 460.488 259.012 460.2 258.772C460.232 258.836 460.256 258.9 460.272 258.964C460.288 259.012 460.296 259.076 460.296 259.156C460.296 259.412 460.208 259.628 460.032 259.804C459.872 259.98 459.656 260.068 459.384 260.068H456.792V261.772H458.424C459.272 261.772 459.936 261.86 460.416 262.036C460.896 262.196 461.232 262.5 461.424 262.948C461.616 263.396 461.712 264.028 461.712 264.844C461.712 265.644 461.616 266.268 461.424 266.716C461.232 267.164 460.896 267.476 460.416 267.652C459.936 267.812 459.272 267.892 458.424 267.892H457.392C458.064 268.836 458.856 269.668 459.768 270.388C460.68 271.108 461.72 271.7 462.888 272.164C463.128 272.276 463.288 272.46 463.368 272.716C463.464 272.988 463.448 273.236 463.32 273.46C463.176 273.732 462.968 273.916 462.696 274.012C462.44 274.108 462.16 274.092 461.856 273.964C460.688 273.42 459.6 272.74 458.592 271.924C457.584 271.092 456.744 270.164 456.072 269.14C455.528 270.372 454.696 271.396 453.576 272.212C452.472 273.028 451.104 273.692 449.472 274.204C449.2 274.284 448.936 274.276 448.68 274.18C448.44 274.084 448.264 273.908 448.152 273.652C448.056 273.412 448.056 273.164 448.152 272.908C448.248 272.652 448.424 272.492 448.68 272.428C451.752 271.532 453.664 270.02 454.416 267.892H453.264C452.416 267.892 451.752 267.812 451.272 267.652C450.808 267.476 450.48 267.164 450.288 266.716C450.096 266.268 450 265.644 450 264.844C450 264.028 450.096 263.396 450.288 262.948C450.48 262.5 450.808 262.196 451.272 262.036C451.752 261.86 452.416 261.772 453.264 261.772H454.824V260.068H452.112C451.856 260.068 451.64 259.98 451.464 259.804C451.304 259.628 451.224 259.42 451.224 259.18C450.984 259.388 450.752 259.588 450.528 259.78C450.304 259.972 450.08 260.156 449.856 260.332C449.6 260.524 449.32 260.612 449.016 260.596C448.728 260.564 448.496 260.436 448.32 260.212C448.192 260.036 448.12 259.836 448.104 259.612C448.088 259.388 448.136 259.188 448.248 259.012H446.64V260.092C446.88 260.38 447.184 260.756 447.552 261.22C447.92 261.668 448.288 262.116 448.656 262.564C449.024 262.996 449.328 263.34 449.568 263.596C449.776 263.804 449.88 264.052 449.88 264.34C449.88 264.628 449.768 264.876 449.544 265.084C449.336 265.276 449.088 265.356 448.8 265.324C448.528 265.292 448.296 265.172 448.104 264.964C447.928 264.74 447.704 264.46 447.432 264.124C447.176 263.772 446.912 263.42 446.64 263.068V273.508C446.64 273.812 446.544 274.052 446.352 274.228C446.176 274.404 445.944 274.492 445.656 274.492ZM459.6 258.268C458.992 257.74 458.384 257.196 457.776 256.636C457.184 256.06 456.68 255.532 456.264 255.052C455.848 254.588 455.44 254.604 455.04 255.1C454.688 255.548 454.264 256.052 453.768 256.612C453.288 257.156 452.768 257.7 452.208 258.244H459.384C459.48 258.244 459.552 258.252 459.6 258.268ZM456.768 266.116H458.112C458.56 266.116 458.896 266.092 459.12 266.044C459.344 265.996 459.496 265.884 459.576 265.708C459.656 265.516 459.696 265.228 459.696 264.844C459.696 264.444 459.656 264.156 459.576 263.98C459.496 263.788 459.344 263.668 459.12 263.62C458.896 263.572 458.56 263.548 458.112 263.548H456.792V265.252C456.792 265.396 456.792 265.54 456.792 265.684C456.792 265.828 456.784 265.972 456.768 266.116ZM453.6 266.116H454.776C454.792 265.972 454.8 265.828 454.8 265.684C454.816 265.54 454.824 265.396 454.824 265.252V263.548H453.6C453.152 263.548 452.808 263.572 452.568 263.62C452.344 263.668 452.192 263.788 452.112 263.98C452.032 264.156 451.992 264.444 451.992 264.844C451.992 265.436 452.088 265.796 452.28 265.924C452.488 266.052 452.928 266.116 453.6 266.116ZM465.936 273.628C465.68 273.628 465.464 273.532 465.288 273.34C465.128 273.164 465.048 272.956 465.048 272.716C465.048 272.46 465.128 272.244 465.288 272.068C465.464 271.876 465.68 271.78 465.936 271.78H469.896V265.9C469.896 264.988 470.024 264.276 470.28 263.764C470.536 263.236 470.96 262.868 471.552 262.66C472.16 262.436 472.984 262.324 474.024 262.324H475.056V258.196C474.32 258.884 473.472 259.572 472.512 260.26C471.552 260.932 470.552 261.572 469.512 262.18C468.488 262.772 467.496 263.284 466.536 263.716C466.232 263.844 465.92 263.876 465.6 263.812C465.296 263.748 465.072 263.564 464.928 263.26C464.8 262.988 464.784 262.716 464.88 262.444C464.976 262.156 465.168 261.956 465.456 261.844C466.336 261.46 467.272 260.996 468.264 260.452C469.256 259.908 470.224 259.332 471.168 258.724C472.112 258.116 472.936 257.524 473.64 256.948H466.248C465.992 256.948 465.776 256.852 465.6 256.66C465.44 256.468 465.36 256.252 465.36 256.012C465.36 255.756 465.44 255.54 465.6 255.364C465.776 255.172 465.992 255.076 466.248 255.076H475.056V253.276C475.056 252.956 475.16 252.692 475.368 252.484C475.576 252.276 475.832 252.172 476.136 252.172C476.44 252.172 476.696 252.276 476.904 252.484C477.128 252.692 477.24 252.956 477.24 253.276V255.076H486.048C486.304 255.076 486.52 255.172 486.696 255.364C486.872 255.54 486.96 255.756 486.96 256.012C486.96 256.252 486.872 256.468 486.696 256.66C486.52 256.852 486.304 256.948 486.048 256.948H478.704C479.44 257.54 480.264 258.14 481.176 258.748C482.104 259.356 483.064 259.924 484.056 260.452C485.048 260.98 486 261.436 486.912 261.82C487.184 261.932 487.368 262.132 487.464 262.42C487.576 262.692 487.568 262.964 487.44 263.236C487.296 263.54 487.064 263.732 486.744 263.812C486.424 263.892 486.112 263.868 485.808 263.74C484.848 263.308 483.848 262.788 482.808 262.18C481.768 261.572 480.76 260.924 479.784 260.236C478.824 259.532 477.976 258.836 477.24 258.148V262.324H478.272C479.312 262.324 480.128 262.436 480.72 262.66C481.328 262.868 481.752 263.236 481.992 263.764C482.248 264.276 482.376 264.988 482.376 265.9V271.78H486.36C486.6 271.78 486.808 271.876 486.984 272.068C487.16 272.244 487.248 272.46 487.248 272.716C487.248 272.956 487.16 273.164 486.984 273.34C486.808 273.532 486.6 273.628 486.36 273.628H465.936ZM472.056 271.78H480.24V270.316H472.056V271.78ZM472.056 268.636H480.24V267.244H472.056V268.636ZM472.08 265.564H480.216C480.184 265.004 480.024 264.628 479.736 264.436C479.464 264.244 478.976 264.148 478.272 264.148H474.024C473.336 264.148 472.848 264.244 472.56 264.436C472.272 264.628 472.112 265.004 472.08 265.564Z" fill="#01579B"/>
<path d="M543.948 272.44C543.948 273.856 543.456 274.564 542.472 274.564C541.464 274.564 540.96 273.856 540.96 272.44V264.232H532.752C531.336 264.232 530.628 263.728 530.628 262.72C530.628 261.736 531.336 261.244 532.752 261.244H540.996V253C540.996 251.584 541.5 250.876 542.508 250.876C543.492 250.876 543.984 251.584 543.984 253V261.208L552.192 261.244C553.608 261.244 554.316 261.736 554.316 262.72C554.316 263.704 553.608 264.196 552.192 264.196L543.984 264.232L543.948 272.44Z" fill="#01579B"/>
<rect x="572.136" y="238.5" width="132" height="47" rx="23.5" fill="#81D4FA"/>
<path d="M599.5 256H605.5L612 269.5H621.136" stroke="#01579B" stroke-width="3" stroke-linecap="round" stroke-linejoin="round"/>
<path d="M617.136 265.5L622.136 269.5L617.136 273.5" stroke="#01579B" stroke-width="3" stroke-linecap="round" stroke-linejoin="round"/>
<path d="M633.56 274.54C633.208 274.604 632.912 274.548 632.672 274.372C632.448 274.212 632.312 273.98 632.264 273.676C632.216 273.404 632.28 273.156 632.456 272.932C632.648 272.708 632.92 272.572 633.272 272.524C634.776 272.332 636.24 272.028 637.664 271.612C639.088 271.196 640.4 270.708 641.6 270.148C640.736 269.396 639.96 268.508 639.272 267.484C638.168 268.364 636.968 269.156 635.672 269.86C635.384 270.004 635.088 270.052 634.784 270.004C634.496 269.956 634.264 269.78 634.088 269.476C633.96 269.252 633.944 269.012 634.04 268.756C634.136 268.484 634.344 268.268 634.664 268.108C635.496 267.692 636.312 267.188 637.112 266.596C637.928 266.004 638.68 265.388 639.368 264.748C640.056 264.108 640.624 263.508 641.072 262.948C641.264 262.708 641.496 262.564 641.768 262.516C642.056 262.468 642.312 262.532 642.536 262.708C642.456 262.548 642.416 262.396 642.416 262.252C642.4 261.964 642.488 261.716 642.68 261.508C642.888 261.3 643.144 261.188 643.448 261.172C644.024 261.124 644.4 261.028 644.576 260.884C644.768 260.724 644.864 260.436 644.864 260.02V256.54H641.96C641.848 257.836 641.576 259.02 641.144 260.092C640.712 261.148 640.072 262.092 639.224 262.924C638.392 263.756 637.28 264.484 635.888 265.108C635.584 265.236 635.288 265.268 635 265.204C634.728 265.124 634.52 264.956 634.376 264.7C634.232 264.428 634.208 264.164 634.304 263.908C634.416 263.636 634.624 263.436 634.928 263.308C636.032 262.812 636.928 262.26 637.616 261.652C638.304 261.044 638.824 260.324 639.176 259.492C639.528 258.66 639.76 257.676 639.872 256.54H633.128C632.872 256.54 632.648 256.452 632.456 256.276C632.28 256.084 632.192 255.86 632.192 255.604C632.192 255.332 632.28 255.108 632.456 254.932C632.648 254.74 632.872 254.644 633.128 254.644H641.984V253.252C641.984 252.884 642.096 252.596 642.32 252.388C642.56 252.18 642.84 252.076 643.16 252.076C643.48 252.076 643.752 252.18 643.976 252.388C644.216 252.596 644.336 252.884 644.336 253.252V254.644H653.072C653.344 254.644 653.568 254.74 653.744 254.932C653.936 255.108 654.032 255.332 654.032 255.604C654.032 255.86 653.936 256.084 653.744 256.276C653.568 256.452 653.344 256.54 653.072 256.54H647V260.308C647 261.364 646.744 262.124 646.232 262.588C645.72 263.036 644.816 263.26 643.52 263.26C643.248 263.26 643.024 263.196 642.848 263.068C643.04 263.42 643.008 263.748 642.752 264.052C642.64 264.196 642.52 264.34 642.392 264.484C642.264 264.628 642.136 264.772 642.008 264.916H645.608C646.568 264.916 647.272 265.108 647.72 265.492C648.168 265.876 648.368 266.356 648.32 266.932C648.272 267.492 647.968 268.036 647.408 268.564C647.104 268.852 646.784 269.132 646.448 269.404C646.128 269.676 645.784 269.94 645.416 270.196C646.52 270.756 647.72 271.212 649.016 271.564C650.312 271.916 651.672 272.156 653.096 272.284C653.464 272.316 653.744 272.452 653.936 272.692C654.144 272.932 654.216 273.212 654.152 273.532C654.008 274.236 653.504 274.524 652.64 274.396C650.912 274.172 649.264 273.82 647.696 273.34C646.128 272.876 644.688 272.244 643.376 271.444C641.968 272.228 640.432 272.868 638.768 273.364C637.104 273.876 635.368 274.268 633.56 274.54ZM653.36 262.324C653.152 262.516 652.896 262.62 652.592 262.636C652.288 262.636 652.032 262.516 651.824 262.276C651.6 262.004 651.296 261.692 650.912 261.34C650.544 260.972 650.16 260.612 649.76 260.26C649.376 259.892 649.04 259.588 648.752 259.348C648.544 259.172 648.432 258.956 648.416 258.7C648.416 258.444 648.504 258.212 648.68 258.004C648.856 257.796 649.08 257.676 649.352 257.644C649.624 257.612 649.872 257.684 650.096 257.86C650.416 258.084 650.776 258.38 651.176 258.748C651.592 259.1 652 259.46 652.4 259.828C652.8 260.196 653.128 260.524 653.384 260.812C653.608 261.036 653.712 261.292 653.696 261.58C653.696 261.852 653.584 262.1 653.36 262.324ZM634.208 262.108C633.968 262.3 633.696 262.396 633.392 262.396C633.088 262.38 632.832 262.252 632.624 262.012C632.448 261.788 632.368 261.54 632.384 261.268C632.416 260.996 632.544 260.78 632.768 260.62C633.088 260.38 633.44 260.084 633.824 259.732C634.208 259.364 634.576 258.996 634.928 258.628C635.296 258.244 635.592 257.9 635.816 257.596C635.992 257.372 636.224 257.26 636.512 257.26C636.8 257.26 637.048 257.348 637.256 257.524C637.464 257.7 637.576 257.916 637.592 258.172C637.608 258.428 637.528 258.668 637.352 258.892C636.952 259.42 636.456 259.988 635.864 260.596C635.272 261.204 634.72 261.708 634.208 262.108ZM643.592 269.068C643.912 268.86 644.216 268.652 644.504 268.444C644.808 268.22 645.088 267.996 645.344 267.772C645.664 267.5 645.792 267.236 645.728 266.98C645.68 266.724 645.384 266.596 644.84 266.596H641.096C641.448 267.06 641.832 267.5 642.248 267.916C642.664 268.316 643.112 268.7 643.592 269.068ZM657.776 274.588C657.424 274.588 657.136 274.492 656.912 274.3C656.704 274.108 656.584 273.852 656.552 273.532C656.52 273.212 656.6 272.932 656.792 272.692C657 272.468 657.288 272.348 657.656 272.332C658.264 272.284 658.648 272.196 658.808 272.068C658.984 271.924 659.072 271.604 659.072 271.108V266.116C658.768 266.228 658.472 266.348 658.184 266.476C657.896 266.588 657.632 266.684 657.392 266.764C657.056 266.876 656.752 266.868 656.48 266.74C656.208 266.612 656.016 266.396 655.904 266.092C655.792 265.772 655.8 265.492 655.928 265.252C656.072 264.996 656.312 264.812 656.648 264.7C656.968 264.588 657.336 264.46 657.752 264.316C658.184 264.172 658.624 264.02 659.072 263.86V259.084H656.864C656.592 259.084 656.352 258.988 656.144 258.796C655.952 258.588 655.856 258.348 655.856 258.076C655.856 257.788 655.952 257.548 656.144 257.356C656.352 257.164 656.592 257.068 656.864 257.068H659.072V253.3C659.072 252.98 659.176 252.724 659.384 252.532C659.592 252.34 659.84 252.244 660.128 252.244C660.416 252.244 660.656 252.34 660.848 252.532C661.056 252.724 661.16 252.98 661.16 253.3V257.068H662.744C663.208 257.068 663.52 257.268 663.68 257.668C663.712 257.62 663.744 257.58 663.776 257.548C663.808 257.5 663.84 257.452 663.872 257.404C664.304 256.972 664.744 256.476 665.192 255.916C665.656 255.34 666.088 254.764 666.488 254.188C666.888 253.596 667.208 253.084 667.448 252.652C667.576 252.396 667.776 252.228 668.048 252.148C668.32 252.052 668.584 252.068 668.84 252.196C669.096 252.34 669.264 252.54 669.344 252.796C669.424 253.036 669.4 253.268 669.272 253.492C669.208 253.62 669.128 253.756 669.032 253.9C668.952 254.044 668.872 254.188 668.792 254.332H671.312C672.032 254.332 672.576 254.476 672.944 254.764C673.328 255.036 673.528 255.396 673.544 255.844C673.56 256.292 673.392 256.756 673.04 257.236C672.928 257.396 672.816 257.548 672.704 257.692C672.592 257.836 672.472 257.988 672.344 258.148H672.8C673.76 258.148 674.52 258.26 675.08 258.484C675.656 258.692 676.064 259.06 676.304 259.588C676.56 260.116 676.688 260.852 676.688 261.796V266.548H677.72C677.976 266.548 678.192 266.636 678.368 266.812C678.56 266.988 678.656 267.204 678.656 267.46C678.656 267.716 678.56 267.94 678.368 268.132C678.192 268.308 677.976 268.396 677.72 268.396H672.008C672.696 269.324 673.504 270.108 674.432 270.748C675.376 271.388 676.432 271.9 677.6 272.284C677.936 272.396 678.168 272.588 678.296 272.86C678.424 273.148 678.432 273.436 678.32 273.724C678.192 274.06 677.968 274.276 677.648 274.372C677.344 274.468 677.04 274.46 676.736 274.348C675.376 273.868 674.128 273.18 672.992 272.284C671.872 271.372 670.984 270.356 670.328 269.236C669.8 270.5 669.016 271.556 667.976 272.404C666.952 273.252 665.576 273.932 663.848 274.444C663.544 274.524 663.248 274.516 662.96 274.42C662.688 274.34 662.496 274.156 662.384 273.868C662.272 273.58 662.296 273.292 662.456 273.004C662.616 272.732 662.872 272.548 663.224 272.452C664.616 272.084 665.736 271.58 666.584 270.94C667.432 270.3 668.08 269.452 668.528 268.396H663.248C662.992 268.396 662.768 268.308 662.576 268.132C662.4 267.94 662.312 267.716 662.312 267.46C662.312 267.204 662.4 266.988 662.576 266.812C662.768 266.636 662.992 266.548 663.248 266.548H664.4V261.796C664.4 260.852 664.52 260.116 664.76 259.588C665.016 259.06 665.432 258.692 666.008 258.484C666.584 258.26 667.344 258.148 668.288 258.148H670.04C670.184 257.94 670.336 257.724 670.496 257.5C670.656 257.276 670.792 257.084 670.904 256.924C671.32 256.3 671.168 255.988 670.448 255.988H667.688C667.336 256.484 666.96 256.972 666.56 257.452C666.176 257.932 665.792 258.364 665.408 258.748C665.2 258.956 664.952 259.076 664.664 259.108C664.376 259.14 664.112 259.052 663.872 258.844C663.76 258.748 663.68 258.644 663.632 258.532C663.552 258.692 663.432 258.828 663.272 258.94C663.128 259.036 662.952 259.084 662.744 259.084H661.16V263.116C661.672 262.94 662.104 262.78 662.456 262.636C662.76 262.524 663.032 262.524 663.272 262.636C663.512 262.748 663.68 262.94 663.776 263.212C663.984 263.804 663.776 264.228 663.152 264.484C662.896 264.596 662.592 264.724 662.24 264.868C661.904 264.996 661.544 265.14 661.16 265.3V271.444C661.16 272.532 660.896 273.324 660.368 273.82C659.84 274.332 658.976 274.588 657.776 274.588ZM666.392 266.548H669.08C669.112 266.34 669.144 266.132 669.176 265.924C669.208 265.7 669.232 265.468 669.248 265.228C669.28 264.94 669.408 264.716 669.632 264.556C669.856 264.38 670.104 264.308 670.376 264.34C670.648 264.372 670.864 264.492 671.024 264.7C671.184 264.892 671.248 265.132 671.216 265.42C671.2 265.612 671.176 265.804 671.144 265.996C671.128 266.188 671.104 266.372 671.072 266.548H674.696V264.268H673.88C672.792 264.268 672.016 264.092 671.552 263.74C671.104 263.372 670.88 262.708 670.88 261.748V259.924H670.04C669.976 261.06 669.76 262.02 669.392 262.804C669.024 263.572 668.424 264.252 667.592 264.844C667.416 264.956 667.216 265.02 666.992 265.036C666.768 265.036 666.568 264.972 666.392 264.844V266.548ZM673.904 262.444H674.696V261.796C674.696 261.028 674.568 260.524 674.312 260.284C674.056 260.044 673.552 259.924 672.8 259.924H672.68V261.436C672.68 261.884 672.752 262.164 672.896 262.276C673.04 262.388 673.376 262.444 673.904 262.444ZM666.392 263.38C667 262.948 667.44 262.468 667.712 261.94C668 261.412 668.176 260.74 668.24 259.924C667.52 259.924 667.032 260.052 666.776 260.308C666.52 260.548 666.392 261.044 666.392 261.796V263.38Z" fill="#01579B"/>
<path d="M124.228 116.5C122.812 116.5 122.104 115.792 122.104 114.376V95.152H116.632C115.216 95.152 114.508 94.516 114.508 93.244C114.508 91.948 115.216 91.3 116.632 91.3H131.716C133.156 91.3 133.876 91.948 133.876 93.244C133.876 94.516 133.156 95.152 131.716 95.152H126.316V114.376C126.316 115.792 125.62 116.5 124.228 116.5ZM138.296 123.664H137.324C136.652 123.616 136.148 123.4 135.812 123.016C135.476 122.656 135.308 122.176 135.308 121.576C135.308 120.376 135.716 119.836 136.532 119.956C136.772 119.98 137 119.992 137.216 119.992C137.432 120.016 137.648 120.028 137.864 120.028C138.512 120.028 138.992 119.956 139.304 119.812C139.64 119.668 139.904 119.428 140.096 119.092C140.288 118.756 140.504 118.3 140.744 117.724L141.212 116.464L135.344 101.632C135.056 100.864 135.02 100.264 135.236 99.832C135.452 99.4 135.872 99.184 136.496 99.184H136.748C137.972 99.184 138.776 99.748 139.16 100.876L142.976 111.604L146.54 100.912C146.948 99.76 147.752 99.184 148.952 99.184C149.648 99.184 150.128 99.4 150.392 99.832C150.656 100.264 150.656 100.864 150.392 101.632L144.2 118.912C143.624 120.496 142.916 121.684 142.076 122.476C141.26 123.268 140 123.664 138.296 123.664ZM155.288 123.592C153.92 123.592 153.236 122.884 153.236 121.468V101.308C153.236 99.892 153.836 99.184 155.036 99.184C156.188 99.184 156.8 99.436 156.872 99.94L156.98 101.092C158.204 99.532 159.812 98.752 161.804 98.752C163.412 98.752 164.84 99.112 166.088 99.832C167.36 100.552 168.356 101.596 169.076 102.964C169.796 104.308 170.156 105.928 170.156 107.824C170.156 109.72 169.796 111.352 169.076 112.72C168.356 114.064 167.36 115.096 166.088 115.816C164.84 116.536 163.412 116.896 161.804 116.896C160.916 116.896 160.088 116.728 159.32 116.392C158.552 116.032 157.88 115.54 157.304 114.916V121.468C157.304 122.14 157.124 122.656 156.764 123.016C156.428 123.4 155.936 123.592 155.288 123.592ZM161.66 113.224C162.932 113.224 163.988 112.756 164.828 111.82C165.668 110.884 166.088 109.552 166.088 107.824C166.088 106.096 165.668 104.764 164.828 103.828C163.988 102.892 162.932 102.424 161.66 102.424C160.388 102.424 159.332 102.892 158.492 103.828C157.652 104.764 157.232 106.096 157.232 107.824C157.232 109.552 157.652 110.884 158.492 111.82C159.332 112.756 160.388 113.224 161.66 113.224ZM180.322 116.896C177.802 116.896 175.762 116.14 174.202 114.628C172.642 113.092 171.862 110.824 171.862 107.824C171.862 105.952 172.21 104.344 172.906 103C173.602 101.632 174.574 100.588 175.822 99.868C177.07 99.124 178.498 98.752 180.106 98.752C181.714 98.752 183.082 99.124 184.21 99.868C185.338 100.612 186.202 101.572 186.802 102.748C187.402 103.924 187.702 105.148 187.702 106.42C187.702 107.308 187.522 107.896 187.162 108.184C186.802 108.448 186.274 108.58 185.578 108.58H175.858C175.954 110.308 176.41 111.544 177.226 112.288C178.042 113.008 179.098 113.368 180.394 113.368C181.858 113.368 182.998 112.864 183.814 111.856C184.294 111.352 184.738 111.028 185.146 110.884C185.578 110.716 186.034 110.8 186.514 111.136C186.994 111.472 187.27 111.904 187.342 112.432C187.414 112.96 187.198 113.512 186.694 114.088C185.878 115.072 184.942 115.792 183.886 116.248C182.83 116.68 181.642 116.896 180.322 116.896ZM176.038 105.448H183.706C183.514 104.32 183.094 103.456 182.446 102.856C181.822 102.232 181.018 101.92 180.034 101.92C178.978 101.92 178.102 102.208 177.406 102.784C176.734 103.36 176.278 104.248 176.038 105.448ZM200.103 117.004C198.327 117.004 196.671 116.704 195.135 116.104C193.599 115.48 192.279 114.448 191.175 113.008C190.767 112.432 190.623 111.904 190.743 111.424C190.887 110.92 191.247 110.512 191.823 110.2C192.375 109.864 192.879 109.768 193.335 109.912C193.791 110.032 194.247 110.344 194.703 110.848C195.351 111.544 196.119 112.084 197.007 112.468C197.919 112.852 198.999 113.044 200.247 113.044C201.927 113.044 203.103 112.744 203.775 112.144C204.471 111.52 204.819 110.68 204.819 109.624C204.819 108.952 204.663 108.376 204.351 107.896C204.063 107.416 203.439 106.972 202.479 106.564C201.543 106.132 200.091 105.7 198.123 105.268C195.795 104.716 194.067 103.84 192.939 102.64C191.835 101.44 191.283 99.916 191.283 98.068C191.283 96.604 191.631 95.32 192.327 94.216C193.047 93.088 194.043 92.212 195.315 91.588C196.611 90.964 198.123 90.652 199.851 90.652C201.651 90.652 203.223 90.964 204.567 91.588C205.911 92.212 207.039 93.016 207.951 94C208.407 94.504 208.587 95.008 208.491 95.512C208.395 96.016 208.083 96.472 207.555 96.88C207.027 97.312 206.523 97.48 206.043 97.384C205.563 97.288 205.083 97.012 204.603 96.556C204.003 96.004 203.319 95.548 202.551 95.188C201.783 94.828 200.871 94.648 199.815 94.648C198.567 94.648 197.547 94.924 196.755 95.476C195.987 96.004 195.603 96.808 195.603 97.888C195.603 98.368 195.711 98.836 195.927 99.292C196.167 99.724 196.671 100.144 197.439 100.552C198.231 100.96 199.443 101.356 201.075 101.74C203.955 102.388 206.031 103.36 207.303 104.656C208.575 105.952 209.211 107.584 209.211 109.552C209.211 111.952 208.371 113.8 206.691 115.096C205.035 116.368 202.839 117.004 200.103 117.004ZM219.652 116.896C218.068 116.896 216.64 116.524 215.368 115.78C214.12 115.012 213.124 113.956 212.38 112.612C211.66 111.244 211.3 109.648 211.3 107.824C211.3 106 211.66 104.416 212.38 103.072C213.124 101.704 214.12 100.648 215.368 99.904C216.64 99.136 218.068 98.752 219.652 98.752C221.716 98.752 223.444 99.328 224.836 100.48C225.412 100.912 225.664 101.392 225.592 101.92C225.544 102.448 225.268 102.904 224.764 103.288C224.236 103.648 223.78 103.804 223.396 103.756C223.036 103.708 222.556 103.492 221.956 103.108C221.284 102.652 220.516 102.424 219.652 102.424C218.404 102.424 217.384 102.892 216.592 103.828C215.8 104.764 215.404 106.096 215.404 107.824C215.404 109.552 215.8 110.884 216.592 111.82C217.384 112.756 218.404 113.224 219.652 113.224C220.54 113.224 221.284 113.008 221.884 112.576C222.436 112.24 222.916 112.024 223.324 111.928C223.756 111.808 224.224 111.94 224.728 112.324C225.256 112.708 225.556 113.164 225.628 113.692C225.7 114.196 225.46 114.664 224.908 115.096C223.444 116.296 221.692 116.896 219.652 116.896ZM231.035 116.5C229.667 116.5 228.983 115.792 228.983 114.376V101.308C228.983 99.892 229.691 99.184 231.107 99.184C231.587 99.184 232.007 99.304 232.367 99.544C232.727 99.76 232.907 100.18 232.907 100.804V101.632C233.339 100.768 234.011 100.072 234.923 99.544C235.859 99.016 236.843 98.752 237.875 98.752C238.619 98.752 239.183 98.956 239.567 99.364C239.975 99.748 240.179 100.276 240.179 100.948C240.179 101.572 240.023 102.028 239.711 102.316C239.399 102.604 239.039 102.724 238.631 102.676C238.439 102.652 238.235 102.64 238.019 102.64C237.803 102.616 237.563 102.604 237.299 102.604C236.123 102.604 235.115 102.988 234.275 103.756C233.459 104.524 233.051 105.604 233.051 106.996V114.376C233.051 115.792 232.379 116.5 231.035 116.5ZM244.422 116.5C243.078 116.5 242.406 115.792 242.406 114.376V101.308C242.406 99.892 243.078 99.184 244.422 99.184C245.766 99.184 246.438 99.892 246.438 101.308V114.376C246.438 115.792 245.766 116.5 244.422 116.5ZM244.386 96.34C243.69 96.34 243.09 96.088 242.586 95.584C242.082 95.08 241.83 94.48 241.83 93.784C241.83 93.088 242.082 92.488 242.586 91.984C243.09 91.48 243.69 91.228 244.386 91.228C245.082 91.228 245.682 91.48 246.186 91.984C246.69 92.488 246.942 93.088 246.942 93.784C246.942 94.48 246.69 95.08 246.186 95.584C245.682 96.088 245.082 96.34 244.386 96.34ZM252.474 123.592C251.106 123.592 250.422 122.884 250.422 121.468V101.308C250.422 99.892 251.022 99.184 252.222 99.184C253.374 99.184 253.986 99.436 254.058 99.94L254.166 101.092C255.39 99.532 256.998 98.752 258.99 98.752C260.598 98.752 262.026 99.112 263.274 99.832C264.546 100.552 265.542 101.596 266.262 102.964C266.982 104.308 267.342 105.928 267.342 107.824C267.342 109.72 266.982 111.352 266.262 112.72C265.542 114.064 264.546 115.096 263.274 115.816C262.026 116.536 260.598 116.896 258.99 116.896C258.102 116.896 257.274 116.728 256.506 116.392C255.738 116.032 255.066 115.54 254.49 114.916V121.468C254.49 122.14 254.31 122.656 253.95 123.016C253.614 123.4 253.122 123.592 252.474 123.592ZM258.846 113.224C260.118 113.224 261.174 112.756 262.014 111.82C262.854 110.884 263.274 109.552 263.274 107.824C263.274 106.096 262.854 104.764 262.014 103.828C261.174 102.892 260.118 102.424 258.846 102.424C257.574 102.424 256.518 102.892 255.678 103.828C254.838 104.764 254.418 106.096 254.418 107.824C254.418 109.552 254.838 110.884 255.678 111.82C256.518 112.756 257.574 113.224 258.846 113.224ZM277.04 116.896C275.336 116.896 274.028 116.584 273.116 115.96C272.228 115.336 271.784 114.088 271.784 112.216V102.676H270.596C269.18 102.676 268.472 102.088 268.472 100.912C268.472 100.36 268.616 99.94 268.904 99.652C269.216 99.34 269.768 99.184 270.56 99.184H271.784V95.224C271.784 93.808 272.468 93.1 273.836 93.1C275.156 93.1 275.816 93.808 275.816 95.224V99.184H278.48C279.896 99.184 280.604 99.76 280.604 100.912C280.604 102.088 279.908 102.676 278.516 102.676H275.816V111.172C275.816 111.988 276.008 112.54 276.392 112.828C276.8 113.116 277.376 113.26 278.12 113.26C278.888 113.26 279.488 113.356 279.92 113.548C280.376 113.716 280.604 114.172 280.604 114.916C280.604 115.516 280.424 115.96 280.064 116.248C279.728 116.512 279.284 116.68 278.732 116.752C278.204 116.848 277.64 116.896 277.04 116.896Z" fill="#01579B"/>
<rect x="139.5" y="141.5" width="116" height="140" rx="10" fill="#424242" stroke="#42A5F5" stroke-width="6"/>
<rect x="153.5" y="163.5" width="7" height="3" rx="1.5" fill="#E57373"/>
<rect x="176.5" y="163.5" width="15" height="3" rx="1.5" fill="#9575CD"/>
<rect x="209.5" y="169.5" width="23" height="3" rx="1.5" fill="#9575CD"/>
<rect x="174.5" y="169.5" width="25" height="3" rx="1.5" fill="#9575CD"/>
<rect x="192.5" y="163.5" width="22" height="3" rx="1.5" fill="#9575CD"/>
<rect x="215.5" y="163.5" width="12" height="3" rx="1.5" fill="#9575CD"/>
<rect x="200.5" y="169.5" width="8" height="3" rx="1.5" fill="#E57373"/>
<rect x="189.5" y="175.5" width="9" height="3" rx="1.5" fill="#4DB6AC"/>
<rect x="189.5" y="186.5" width="9" height="3" rx="1.5" fill="#4DB6AC"/>
<rect x="189.5" y="198.5" width="9" height="3" rx="1.5" fill="#4DB6AC"/>
<rect x="189.5" y="210.5" width="9" height="3" rx="1.5" fill="#4DB6AC"/>
<rect x="185.5" y="180.5" width="30" height="3" rx="1.5" fill="#9575CD"/>
<rect x="185.5" y="192.5" width="30" height="3" rx="1.5" fill="#9575CD"/>
<rect x="199.5" y="175.5" width="28" height="3" rx="1.5" fill="#FFD54F"/>
<rect x="199.5" y="186.5" width="17" height="3" rx="1.5" fill="#FFD54F"/>
<rect x="199.5" y="198.5" width="17" height="3" rx="1.5" fill="#FFD54F"/>
<rect x="161.5" y="169.5" width="6" height="3" rx="1.5" fill="#E57373"/>
<rect x="161.5" y="180.5" width="23" height="3" rx="1.5" fill="#E57373"/>
<rect x="168.5" y="175.5" width="20" height="3" rx="1.5" fill="white"/>
<rect x="228.5" y="163.5" width="8" height="3" rx="1.5" fill="white"/>
<rect x="233.5" y="169.5" width="8" height="3" rx="1.5" fill="white"/>
<rect x="216.5" y="180.5" width="8" height="3" rx="1.5" fill="white"/>
<rect x="161.5" y="163.5" width="14" height="3" rx="1.5" fill="white"/>
<rect x="168.5" y="169.5" width="5" height="3" rx="1.5" fill="white"/>
<rect x="216.5" y="192.5" width="8" height="3" rx="1.5" fill="white"/>
<rect x="178.5" y="204.5" width="8" height="3" rx="1.5" fill="white"/>
<rect x="199.5" y="210.5" width="8" height="3" rx="1.5" fill="white"/>
<rect x="168.5" y="186.5" width="20" height="3" rx="1.5" fill="white"/>
<rect x="168.5" y="198.5" width="20" height="3" rx="1.5" fill="white"/>
<rect x="168.5" y="210.5" width="20" height="3" rx="1.5" fill="white"/>
<rect x="161.5" y="215.5" width="7" height="3" rx="1.5" fill="white"/>
<rect x="153.5" y="221.5" width="7" height="3" rx="1.5" fill="white"/>
<rect x="161.5" y="192.5" width="23" height="3" rx="1.5" fill="#E57373"/>
<rect x="161.5" y="204.5" width="16" height="3" rx="1.5" fill="#E57373"/>
<path d="M204.497 263.445C204.497 263.002 204.599 262.604 204.805 262.251C205.018 261.89 205.305 261.603 205.666 261.389C206.027 261.176 206.429 261.069 206.872 261.069C207.324 261.069 207.73 261.176 208.091 261.389C208.452 261.603 208.735 261.89 208.94 262.251C209.153 262.604 209.26 263.002 209.26 263.445C209.26 263.879 209.153 264.282 208.94 264.651C208.735 265.012 208.452 265.299 208.091 265.512C207.73 265.726 207.324 265.832 206.872 265.832C206.429 265.832 206.027 265.726 205.666 265.512C205.305 265.299 205.018 265.012 204.805 264.651C204.599 264.282 204.497 263.879 204.497 263.445ZM226.712 264.811C226.236 265.114 225.666 265.361 225.001 265.549C224.336 265.738 223.643 265.832 222.921 265.832C221.411 265.832 220.263 265.443 219.475 264.663C218.695 263.875 218.306 262.842 218.306 261.562V254.509H215.413V252.503H218.306V249.598L221.063 249.266V252.503H225.444L225.136 254.509H221.063V261.537C221.063 262.234 221.235 262.755 221.579 263.1C221.932 263.436 222.507 263.605 223.303 263.605C223.778 263.605 224.217 263.547 224.619 263.432C225.022 263.317 225.387 263.17 225.715 262.989L226.712 264.811ZM234.748 263.715C235.61 263.715 236.295 263.564 236.804 263.26C237.312 262.948 237.567 262.522 237.567 261.98C237.567 261.627 237.493 261.328 237.345 261.082C237.197 260.827 236.902 260.597 236.459 260.392C236.016 260.179 235.343 259.957 234.44 259.728C233.587 259.506 232.836 259.244 232.188 258.94C231.548 258.636 231.052 258.243 230.699 257.758C230.346 257.274 230.17 256.651 230.17 255.888C230.17 255.141 230.379 254.489 230.797 253.931C231.216 253.373 231.815 252.938 232.594 252.626C233.382 252.314 234.305 252.158 235.364 252.158C236.455 252.158 237.407 252.302 238.219 252.589C239.031 252.876 239.725 253.233 240.299 253.66L239.142 255.395C238.633 255.059 238.075 254.784 237.468 254.571C236.869 254.357 236.192 254.251 235.437 254.251C234.559 254.251 233.928 254.382 233.542 254.645C233.165 254.907 232.976 255.256 232.976 255.691C232.976 256.011 233.07 256.282 233.259 256.503C233.456 256.716 233.792 256.917 234.268 257.106C234.744 257.287 235.417 257.5 236.287 257.746C237.132 257.976 237.866 258.247 238.49 258.558C239.122 258.87 239.61 259.285 239.954 259.802C240.307 260.31 240.484 260.975 240.484 261.795C240.484 262.731 240.213 263.498 239.671 264.097C239.138 264.688 238.432 265.127 237.554 265.414C236.685 265.693 235.749 265.832 234.748 265.832C233.542 265.832 232.5 265.66 231.622 265.315C230.744 264.963 230.006 264.524 229.407 263.998L230.871 262.325C231.38 262.735 231.963 263.071 232.619 263.334C233.275 263.588 233.985 263.715 234.748 263.715Z" fill="#ECEFF1"/>
<path d="M811.32 117.076C808.872 117.076 807.012 116.512 805.74 115.384C804.492 114.232 803.712 112.684 803.4 110.74C803.28 110.044 803.4 109.504 803.76 109.12C804.12 108.712 804.672 108.508 805.416 108.508C806.064 108.508 806.544 108.676 806.856 109.012C807.168 109.348 807.432 109.84 807.648 110.488C808.128 112.168 809.352 113.008 811.32 113.008C812.616 113.008 813.588 112.648 814.236 111.928C814.884 111.208 815.208 110.068 815.208 108.508V93.424C815.208 92.008 815.916 91.3 817.332 91.3C818.724 91.3 819.42 92.008 819.42 93.424V108.508C819.42 110.212 819.144 111.712 818.592 113.008C818.04 114.304 817.164 115.312 815.964 116.032C814.788 116.728 813.24 117.076 811.32 117.076ZM828.609 116.752C826.737 116.824 825.189 116.416 823.965 115.528C822.765 114.64 822.165 113.356 822.165 111.676C822.165 110.452 822.537 109.408 823.281 108.544C824.025 107.68 824.985 107.008 826.161 106.528C827.337 106.024 828.549 105.76 829.797 105.736C830.421 105.688 831.009 105.736 831.561 105.88C832.113 106.024 832.605 106.228 833.037 106.492V104.98C833.037 103.852 832.797 103.12 832.317 102.784C831.837 102.448 831.129 102.28 830.193 102.28C829.521 102.28 828.813 102.364 828.069 102.532C827.349 102.7 826.641 102.928 825.945 103.216C825.321 103.48 824.781 103.576 824.325 103.504C823.893 103.432 823.533 103.144 823.245 102.64C822.957 102.136 822.885 101.656 823.029 101.2C823.197 100.72 823.605 100.348 824.253 100.084C825.117 99.676 826.053 99.352 827.061 99.112C828.093 98.872 829.137 98.752 830.193 98.752C832.425 98.752 834.105 99.208 835.233 100.12C836.361 101.008 836.925 102.628 836.925 104.98V112.936C836.925 113.176 836.949 113.368 836.997 113.512C837.069 113.656 837.129 113.764 837.177 113.836C837.393 114.148 837.621 114.328 837.861 114.376C838.125 114.424 838.353 114.46 838.545 114.484C838.737 114.484 838.833 114.592 838.833 114.808C838.833 115.24 838.713 115.612 838.473 115.924C838.257 116.236 837.885 116.452 837.357 116.572C836.805 116.692 836.265 116.752 835.737 116.752C834.993 116.752 834.417 116.632 834.009 116.392C833.625 116.128 833.349 115.696 833.181 115.096C832.581 115.6 831.885 115.996 831.093 116.284C830.301 116.548 829.473 116.704 828.609 116.752ZM828.537 113.224C829.881 113.176 830.985 112.912 831.849 112.432C832.737 111.952 833.157 111.268 833.109 110.38C833.085 109.804 832.785 109.408 832.209 109.192C831.657 108.976 830.961 108.892 830.121 108.94C828.945 108.964 827.973 109.264 827.205 109.84C826.437 110.392 826.065 111.016 826.089 111.712C826.137 112.792 826.953 113.296 828.537 113.224ZM847.532 116.572C847.004 116.572 846.5 116.428 846.02 116.14C845.54 115.852 845.192 115.408 844.976 114.808L839.972 101.632C839.684 100.864 839.648 100.264 839.864 99.832C840.104 99.4 840.608 99.184 841.376 99.184C842.624 99.184 843.44 99.748 843.824 100.876L847.532 111.316L851.276 100.876C851.66 99.748 852.464 99.184 853.688 99.184C854.336 99.184 854.768 99.4 854.984 99.832C855.2 100.264 855.176 100.864 854.912 101.632L850.088 114.772C849.872 115.372 849.524 115.828 849.044 116.14C848.564 116.428 848.06 116.572 847.532 116.572ZM863.512 116.752C861.64 116.824 860.092 116.416 858.868 115.528C857.668 114.64 857.068 113.356 857.068 111.676C857.068 110.452 857.44 109.408 858.184 108.544C858.928 107.68 859.888 107.008 861.064 106.528C862.24 106.024 863.452 105.76 864.7 105.736C865.324 105.688 865.912 105.736 866.464 105.88C867.016 106.024 867.508 106.228 867.94 106.492V104.98C867.94 103.852 867.7 103.12 867.22 102.784C866.74 102.448 866.032 102.28 865.096 102.28C864.424 102.28 863.716 102.364 862.972 102.532C862.252 102.7 861.544 102.928 860.848 103.216C860.224 103.48 859.684 103.576 859.228 103.504C858.796 103.432 858.436 103.144 858.148 102.64C857.86 102.136 857.788 101.656 857.932 101.2C858.1 100.72 858.508 100.348 859.156 100.084C860.02 99.676 860.956 99.352 861.964 99.112C862.996 98.872 864.04 98.752 865.096 98.752C867.328 98.752 869.008 99.208 870.136 100.12C871.264 101.008 871.828 102.628 871.828 104.98V112.936C871.828 113.176 871.852 113.368 871.9 113.512C871.972 113.656 872.032 113.764 872.08 113.836C872.296 114.148 872.524 114.328 872.764 114.376C873.028 114.424 873.256 114.46 873.448 114.484C873.64 114.484 873.736 114.592 873.736 114.808C873.736 115.24 873.616 115.612 873.376 115.924C873.16 116.236 872.788 116.452 872.26 116.572C871.708 116.692 871.168 116.752 870.64 116.752C869.896 116.752 869.32 116.632 868.912 116.392C868.528 116.128 868.252 115.696 868.084 115.096C867.484 115.6 866.788 115.996 865.996 116.284C865.204 116.548 864.376 116.704 863.512 116.752ZM863.44 113.224C864.784 113.176 865.888 112.912 866.752 112.432C867.64 111.952 868.06 111.268 868.012 110.38C867.988 109.804 867.688 109.408 867.112 109.192C866.56 108.976 865.864 108.892 865.024 108.94C863.848 108.964 862.876 109.264 862.108 109.84C861.34 110.392 860.968 111.016 860.992 111.712C861.04 112.792 861.856 113.296 863.44 113.224ZM885.623 117.004C883.847 117.004 882.191 116.704 880.655 116.104C879.119 115.48 877.799 114.448 876.695 113.008C876.287 112.432 876.143 111.904 876.263 111.424C876.407 110.92 876.767 110.512 877.343 110.2C877.895 109.864 878.399 109.768 878.855 109.912C879.311 110.032 879.767 110.344 880.223 110.848C880.871 111.544 881.639 112.084 882.527 112.468C883.439 112.852 884.519 113.044 885.767 113.044C887.447 113.044 888.623 112.744 889.295 112.144C889.991 111.52 890.339 110.68 890.339 109.624C890.339 108.952 890.183 108.376 889.871 107.896C889.583 107.416 888.959 106.972 887.999 106.564C887.063 106.132 885.611 105.7 883.643 105.268C881.315 104.716 879.587 103.84 878.459 102.64C877.355 101.44 876.803 99.916 876.803 98.068C876.803 96.604 877.151 95.32 877.847 94.216C878.567 93.088 879.563 92.212 880.835 91.588C882.131 90.964 883.643 90.652 885.371 90.652C887.171 90.652 888.743 90.964 890.087 91.588C891.431 92.212 892.559 93.016 893.471 94C893.927 94.504 894.107 95.008 894.011 95.512C893.915 96.016 893.603 96.472 893.075 96.88C892.547 97.312 892.043 97.48 891.563 97.384C891.083 97.288 890.603 97.012 890.123 96.556C889.523 96.004 888.839 95.548 888.071 95.188C887.303 94.828 886.391 94.648 885.335 94.648C884.087 94.648 883.067 94.924 882.275 95.476C881.507 96.004 881.123 96.808 881.123 97.888C881.123 98.368 881.231 98.836 881.447 99.292C881.687 99.724 882.191 100.144 882.959 100.552C883.751 100.96 884.963 101.356 886.595 101.74C889.475 102.388 891.551 103.36 892.823 104.656C894.095 105.952 894.731 107.584 894.731 109.552C894.731 111.952 893.891 113.8 892.211 115.096C890.555 116.368 888.359 117.004 885.623 117.004ZM905.171 116.896C903.587 116.896 902.159 116.524 900.887 115.78C899.639 115.012 898.643 113.956 897.899 112.612C897.179 111.244 896.819 109.648 896.819 107.824C896.819 106 897.179 104.416 897.899 103.072C898.643 101.704 899.639 100.648 900.887 99.904C902.159 99.136 903.587 98.752 905.171 98.752C907.235 98.752 908.963 99.328 910.355 100.48C910.931 100.912 911.183 101.392 911.111 101.92C911.063 102.448 910.787 102.904 910.283 103.288C909.755 103.648 909.299 103.804 908.915 103.756C908.555 103.708 908.075 103.492 907.475 103.108C906.803 102.652 906.035 102.424 905.171 102.424C903.923 102.424 902.903 102.892 902.111 103.828C901.319 104.764 900.923 106.096 900.923 107.824C900.923 109.552 901.319 110.884 902.111 111.82C902.903 112.756 903.923 113.224 905.171 113.224C906.059 113.224 906.803 113.008 907.403 112.576C907.955 112.24 908.435 112.024 908.843 111.928C909.275 111.808 909.743 111.94 910.247 112.324C910.775 112.708 911.075 113.164 911.147 113.692C911.219 114.196 910.979 114.664 910.427 115.096C908.963 116.296 907.211 116.896 905.171 116.896ZM916.555 116.5C915.187 116.5 914.503 115.792 914.503 114.376V101.308C914.503 99.892 915.211 99.184 916.627 99.184C917.107 99.184 917.527 99.304 917.887 99.544C918.247 99.76 918.427 100.18 918.427 100.804V101.632C918.859 100.768 919.531 100.072 920.443 99.544C921.379 99.016 922.363 98.752 923.395 98.752C924.139 98.752 924.703 98.956 925.087 99.364C925.495 99.748 925.699 100.276 925.699 100.948C925.699 101.572 925.543 102.028 925.231 102.316C924.919 102.604 924.559 102.724 924.151 102.676C923.959 102.652 923.755 102.64 923.539 102.64C923.323 102.616 923.083 102.604 922.819 102.604C921.643 102.604 920.635 102.988 919.795 103.756C918.979 104.524 918.571 105.604 918.571 106.996V114.376C918.571 115.792 917.899 116.5 916.555 116.5ZM929.941 116.5C928.597 116.5 927.925 115.792 927.925 114.376V101.308C927.925 99.892 928.597 99.184 929.941 99.184C931.285 99.184 931.957 99.892 931.957 101.308V114.376C931.957 115.792 931.285 116.5 929.941 116.5ZM929.905 96.34C929.209 96.34 928.609 96.088 928.105 95.584C927.601 95.08 927.349 94.48 927.349 93.784C927.349 93.088 927.601 92.488 928.105 91.984C928.609 91.48 929.209 91.228 929.905 91.228C930.601 91.228 931.201 91.48 931.705 91.984C932.209 92.488 932.461 93.088 932.461 93.784C932.461 94.48 932.209 95.08 931.705 95.584C931.201 96.088 930.601 96.34 929.905 96.34ZM937.993 123.592C936.625 123.592 935.941 122.884 935.941 121.468V101.308C935.941 99.892 936.541 99.184 937.741 99.184C938.893 99.184 939.505 99.436 939.577 99.94L939.685 101.092C940.909 99.532 942.517 98.752 944.509 98.752C946.117 98.752 947.545 99.112 948.793 99.832C950.065 100.552 951.061 101.596 951.781 102.964C952.501 104.308 952.861 105.928 952.861 107.824C952.861 109.72 952.501 111.352 951.781 112.72C951.061 114.064 950.065 115.096 948.793 115.816C947.545 116.536 946.117 116.896 944.509 116.896C943.621 116.896 942.793 116.728 942.025 116.392C941.257 116.032 940.585 115.54 940.009 114.916V121.468C940.009 122.14 939.829 122.656 939.469 123.016C939.133 123.4 938.641 123.592 937.993 123.592ZM944.365 113.224C945.637 113.224 946.693 112.756 947.533 111.82C948.373 110.884 948.793 109.552 948.793 107.824C948.793 106.096 948.373 104.764 947.533 103.828C946.693 102.892 945.637 102.424 944.365 102.424C943.093 102.424 942.037 102.892 941.197 103.828C940.357 104.764 939.937 106.096 939.937 107.824C939.937 109.552 940.357 110.884 941.197 111.82C942.037 112.756 943.093 113.224 944.365 113.224ZM962.559 116.896C960.855 116.896 959.547 116.584 958.635 115.96C957.747 115.336 957.303 114.088 957.303 112.216V102.676H956.115C954.699 102.676 953.991 102.088 953.991 100.912C953.991 100.36 954.135 99.94 954.423 99.652C954.735 99.34 955.287 99.184 956.079 99.184H957.303V95.224C957.303 93.808 957.987 93.1 959.355 93.1C960.675 93.1 961.335 93.808 961.335 95.224V99.184H963.999C965.415 99.184 966.123 99.76 966.123 100.912C966.123 102.088 965.427 102.676 964.035 102.676H961.335V111.172C961.335 111.988 961.527 112.54 961.911 112.828C962.319 113.116 962.895 113.26 963.639 113.26C964.407 113.26 965.007 113.356 965.439 113.548C965.895 113.716 966.123 114.172 966.123 114.916C966.123 115.516 965.943 115.96 965.583 116.248C965.247 116.512 964.803 116.68 964.251 116.752C963.723 116.848 963.159 116.896 962.559 116.896Z" fill="#01579B"/>
<rect x="826.5" y="140.5" width="116" height="140" rx="10" fill="#424242" stroke="#FFEE58" stroke-width="6"/>
<rect x="840.5" y="162.5" width="7" height="3" rx="1.5" fill="#E57373"/>
<rect x="863.5" y="162.5" width="15" height="3" rx="1.5" fill="#9575CD"/>
<rect x="896.5" y="168.5" width="23" height="3" rx="1.5" fill="#9575CD"/>
<rect x="861.5" y="168.5" width="25" height="3" rx="1.5" fill="#9575CD"/>
<rect x="879.5" y="162.5" width="22" height="3" rx="1.5" fill="#9575CD"/>
<rect x="902.5" y="162.5" width="12" height="3" rx="1.5" fill="#9575CD"/>
<rect x="887.5" y="168.5" width="8" height="3" rx="1.5" fill="#E57373"/>
<rect x="876.5" y="174.5" width="9" height="3" rx="1.5" fill="#4DB6AC"/>
<rect x="876.5" y="185.5" width="9" height="3" rx="1.5" fill="#4DB6AC"/>
<rect x="876.5" y="197.5" width="9" height="3" rx="1.5" fill="#4DB6AC"/>
<rect x="876.5" y="209.5" width="9" height="3" rx="1.5" fill="#4DB6AC"/>
<rect x="872.5" y="179.5" width="30" height="3" rx="1.5" fill="#9575CD"/>
<rect x="872.5" y="191.5" width="30" height="3" rx="1.5" fill="#9575CD"/>
<rect x="886.5" y="174.5" width="28" height="3" rx="1.5" fill="#FFD54F"/>
<rect x="886.5" y="185.5" width="17" height="3" rx="1.5" fill="#FFD54F"/>
<rect x="886.5" y="197.5" width="17" height="3" rx="1.5" fill="#FFD54F"/>
<rect x="848.5" y="168.5" width="6" height="3" rx="1.5" fill="#E57373"/>
<rect x="848.5" y="179.5" width="23" height="3" rx="1.5" fill="#E57373"/>
<rect x="855.5" y="174.5" width="20" height="3" rx="1.5" fill="white"/>
<rect x="915.5" y="162.5" width="8" height="3" rx="1.5" fill="white"/>
<rect x="920.5" y="168.5" width="8" height="3" rx="1.5" fill="white"/>
<rect x="903.5" y="179.5" width="8" height="3" rx="1.5" fill="white"/>
<rect x="848.5" y="162.5" width="14" height="3" rx="1.5" fill="white"/>
<rect x="855.5" y="168.5" width="5" height="3" rx="1.5" fill="white"/>
<rect x="903.5" y="191.5" width="8" height="3" rx="1.5" fill="white"/>
<rect x="865.5" y="203.5" width="8" height="3" rx="1.5" fill="white"/>
<rect x="886.5" y="209.5" width="8" height="3" rx="1.5" fill="white"/>
<rect x="855.5" y="185.5" width="20" height="3" rx="1.5" fill="white"/>
<rect x="855.5" y="197.5" width="20" height="3" rx="1.5" fill="white"/>
<rect x="855.5" y="209.5" width="20" height="3" rx="1.5" fill="white"/>
<rect x="848.5" y="214.5" width="7" height="3" rx="1.5" fill="white"/>
<rect x="840.5" y="220.5" width="7" height="3" rx="1.5" fill="white"/>
<rect x="848.5" y="191.5" width="23" height="3" rx="1.5" fill="#E57373"/>
<rect x="848.5" y="203.5" width="16" height="3" rx="1.5" fill="#E57373"/>
<path d="M891.497 262.445C891.497 262.002 891.599 261.604 891.805 261.251C892.018 260.89 892.305 260.603 892.666 260.389C893.027 260.176 893.429 260.069 893.872 260.069C894.324 260.069 894.73 260.176 895.091 260.389C895.452 260.603 895.735 260.89 895.94 261.251C896.153 261.604 896.26 262.002 896.26 262.445C896.26 262.879 896.153 263.282 895.94 263.651C895.735 264.012 895.452 264.299 895.091 264.512C894.73 264.726 894.324 264.832 893.872 264.832C893.429 264.832 893.027 264.726 892.666 264.512C892.305 264.299 892.018 264.012 891.805 263.651C891.599 263.282 891.497 262.879 891.497 262.445ZM911.878 251.503V261.768C911.878 263.384 911.542 264.726 910.869 265.792C910.204 266.859 909.228 267.708 907.939 268.34C906.651 268.98 905.08 269.468 903.226 269.805L902.783 267.688C904.071 267.442 905.191 267.101 906.143 266.666C907.094 266.231 907.829 265.636 908.346 264.882C908.863 264.127 909.121 263.15 909.121 261.952V253.522H903.989V251.503H911.878ZM909.724 245.14C910.257 245.14 910.692 245.304 911.029 245.632C911.365 245.961 911.533 246.371 911.533 246.863C911.533 247.355 911.365 247.77 911.029 248.106C910.692 248.443 910.257 248.611 909.724 248.611C909.191 248.611 908.756 248.443 908.419 248.106C908.091 247.77 907.927 247.355 907.927 246.863C907.927 246.371 908.091 245.961 908.419 245.632C908.756 245.304 909.191 245.14 909.724 245.14ZM921.748 262.715C922.61 262.715 923.295 262.564 923.804 262.26C924.312 261.948 924.567 261.522 924.567 260.98C924.567 260.627 924.493 260.328 924.345 260.082C924.197 259.827 923.902 259.597 923.459 259.392C923.016 259.179 922.343 258.957 921.44 258.728C920.587 258.506 919.836 258.244 919.188 257.94C918.548 257.636 918.052 257.243 917.699 256.758C917.346 256.274 917.17 255.651 917.17 254.888C917.17 254.141 917.379 253.489 917.797 252.931C918.216 252.373 918.815 251.938 919.594 251.626C920.382 251.314 921.305 251.158 922.364 251.158C923.455 251.158 924.407 251.302 925.219 251.589C926.031 251.876 926.725 252.233 927.299 252.66L926.142 254.395C925.633 254.059 925.075 253.784 924.468 253.571C923.869 253.357 923.192 253.251 922.437 253.251C921.559 253.251 920.928 253.382 920.542 253.645C920.165 253.907 919.976 254.256 919.976 254.691C919.976 255.011 920.07 255.282 920.259 255.503C920.456 255.716 920.792 255.917 921.268 256.106C921.744 256.287 922.417 256.5 923.287 256.746C924.132 256.976 924.866 257.247 925.49 257.558C926.122 257.87 926.61 258.285 926.954 258.802C927.307 259.31 927.484 259.975 927.484 260.795C927.484 261.731 927.213 262.498 926.671 263.097C926.138 263.688 925.432 264.127 924.554 264.414C923.685 264.693 922.749 264.832 921.748 264.832C920.542 264.832 919.5 264.66 918.622 264.315C917.744 263.963 917.006 263.524 916.407 262.998L917.871 261.325C918.38 261.735 918.963 262.071 919.619 262.334C920.275 262.588 920.985 262.715 921.748 262.715Z" fill="#ECEFF1"/>
</svg>
