<svg width="1080" height="309" viewBox="0 0 1080 309" fill="none" xmlns="http://www.w3.org/2000/svg">
<rect width="1080" height="309" fill="#0F2742"/>
<path d="M64.4985 80.7477C65.4708 80.7477 66.3754 80.5877 67.2123 80.2677C68.0615 79.9477 68.8431 79.5415 69.5569 79.0492L71.0708 81.08C70.2215 81.8062 69.2 82.3785 68.0062 82.7969C66.8123 83.2154 65.6431 83.4246 64.4985 83.4246C62.5662 83.4246 60.9169 83.0123 59.5508 82.1877C58.1969 81.3508 57.1631 80.1815 56.4492 78.68C55.7354 77.1662 55.3785 75.3938 55.3785 73.3631C55.3785 71.4185 55.7354 69.6769 56.4492 68.1385C57.1754 66.5877 58.2154 65.3692 59.5692 64.4831C60.9354 63.5969 62.5908 63.1538 64.5354 63.1538C65.7785 63.1538 66.9415 63.3446 68.0246 63.7262C69.12 64.0954 70.1231 64.6554 71.0338 65.4062L69.52 67.4738C68.6954 66.8954 67.8646 66.4646 67.0277 66.1815C66.2031 65.8862 65.36 65.7385 64.4985 65.7385C62.8246 65.7385 61.4462 66.3662 60.3631 67.6215C59.28 68.8769 58.7385 70.7908 58.7385 73.3631C58.7385 75.0862 58.9846 76.4954 59.4769 77.5908C59.9815 78.6738 60.6646 79.4738 61.5262 79.9908C62.4 80.4954 63.3908 80.7477 64.4985 80.7477ZM85.2623 63.1538C87.0961 63.1538 88.6284 63.5723 89.8592 64.4092C91.1023 65.2338 92.0315 66.4031 92.6469 67.9169C93.2746 69.4308 93.5884 71.2154 93.5884 73.2708C93.5884 75.2523 93.2684 77.0062 92.6284 78.5323C91.9884 80.0585 91.0469 81.2585 89.8038 82.1323C88.5731 82.9938 87.0469 83.4246 85.2254 83.4246C83.4038 83.4246 81.8715 83.0062 80.6284 82.1692C79.3854 81.3323 78.4438 80.1569 77.8038 78.6431C77.1761 77.1169 76.8623 75.3385 76.8623 73.3077C76.8623 71.3015 77.1823 69.5354 77.8223 68.0092C78.4623 66.4831 79.4038 65.2954 80.6469 64.4462C81.9023 63.5846 83.4407 63.1538 85.2623 63.1538ZM85.2623 65.6831C83.5884 65.6831 82.3207 66.3046 81.4592 67.5477C80.61 68.7785 80.1854 70.6985 80.1854 73.3077C80.1854 75.8677 80.6038 77.7692 81.4407 79.0123C82.29 80.2554 83.5515 80.8769 85.2254 80.8769C86.8992 80.8769 88.1546 80.2554 88.9915 79.0123C89.8407 77.7692 90.2654 75.8554 90.2654 73.2708C90.2654 70.6862 89.8469 68.7785 89.01 67.5477C88.1731 66.3046 86.9238 65.6831 85.2623 65.6831ZM100.008 83V63.56H102.648L102.888 66.2554C103.675 65.2585 104.66 64.4954 105.841 63.9662C107.035 63.4246 108.192 63.1538 109.312 63.1538C111.22 63.1538 112.605 63.6585 113.466 64.6677C114.34 65.6769 114.777 67.08 114.777 68.8769V83H111.675V71.1662C111.675 69.8369 111.601 68.7662 111.454 67.9538C111.306 67.1292 110.998 66.5323 110.531 66.1631C110.063 65.7815 109.337 65.5908 108.352 65.5908C107.589 65.5908 106.869 65.7569 106.192 66.0892C105.528 66.4215 104.931 66.84 104.401 67.3446C103.885 67.8369 103.454 68.3354 103.109 68.84V83H100.008ZM128.765 80.8585C130.255 80.8585 131.43 80.5815 132.291 80.0277C133.165 79.4615 133.602 78.7108 133.602 77.7754C133.602 77.1846 133.491 76.6738 133.27 76.2431C133.061 75.8123 132.624 75.4246 131.959 75.08C131.295 74.7354 130.273 74.3908 128.895 74.0462C127.553 73.7138 126.384 73.3323 125.387 72.9015C124.402 72.4585 123.633 71.8862 123.079 71.1846C122.538 70.4831 122.267 69.5723 122.267 68.4523C122.267 67.3569 122.575 66.4154 123.19 65.6277C123.818 64.8277 124.685 64.2185 125.793 63.8C126.901 63.3692 128.187 63.1538 129.651 63.1538C131.215 63.1538 132.575 63.3631 133.731 63.7815C134.901 64.1877 135.891 64.6923 136.704 65.2954L135.338 67.4C134.599 66.8954 133.787 66.4831 132.901 66.1631C132.015 65.8308 130.944 65.6646 129.688 65.6646C128.162 65.6646 127.079 65.9046 126.439 66.3846C125.799 66.8523 125.479 67.4615 125.479 68.2123C125.479 68.7785 125.633 69.2523 125.941 69.6338C126.261 70.0031 126.796 70.3415 127.547 70.6492C128.298 70.9446 129.331 71.2708 130.648 71.6277C131.916 71.96 133.018 72.36 133.953 72.8277C134.901 73.2954 135.639 73.9108 136.168 74.6738C136.698 75.4369 136.962 76.4215 136.962 77.6277C136.962 79.0062 136.568 80.1262 135.781 80.9877C134.993 81.8369 133.971 82.4585 132.716 82.8523C131.473 83.2338 130.156 83.4246 128.765 83.4246C127.005 83.4246 125.504 83.1723 124.261 82.6677C123.03 82.1508 121.996 81.5292 121.159 80.8031L122.931 78.7538C123.695 79.3815 124.568 79.8923 125.553 80.2862C126.55 80.6677 127.621 80.8585 128.765 80.8585ZM159.738 82.0215C159.074 82.4646 158.268 82.8092 157.32 83.0554C156.372 83.3015 155.443 83.4246 154.532 83.4246C152.44 83.4246 150.828 82.8769 149.695 81.7815C148.563 80.6862 147.997 79.2769 147.997 77.5538V65.96H143.529V63.56H147.997V59.1477L151.098 58.7785V63.56H157.818L157.449 65.96H151.098V77.5169C151.098 78.6 151.381 79.4246 151.948 79.9908C152.526 80.5569 153.48 80.84 154.809 80.84C155.535 80.84 156.206 80.7538 156.821 80.5815C157.437 80.4092 158.009 80.1877 158.538 79.9169L159.738 82.0215ZM590.19 65.3323L589.599 55.7323H593.495L592.922 65.3323H590.19ZM596.356 65.3323L595.802 55.7323H599.679L599.089 65.3323H596.356ZM621.588 83V70.9446H611.988V83H608.794V57.5785H611.988V68.3231H621.588V57.5785H624.782V83H621.588ZM634.007 74.3785C634.069 75.88 634.358 77.1108 634.875 78.0708C635.392 79.0185 636.075 79.72 636.924 80.1754C637.773 80.6185 638.696 80.84 639.693 80.84C640.69 80.84 641.589 80.6923 642.389 80.3969C643.201 80.1015 644.032 79.6646 644.881 79.0862L646.339 81.1354C645.429 81.8492 644.389 82.4092 643.219 82.8154C642.062 83.2215 640.875 83.4246 639.656 83.4246C637.773 83.4246 636.167 83 634.838 82.1508C633.509 81.3015 632.493 80.12 631.792 78.6062C631.102 77.08 630.758 75.3138 630.758 73.3077C630.758 71.3385 631.109 69.5908 631.81 68.0646C632.512 66.5385 633.496 65.3385 634.764 64.4646C636.032 63.5908 637.527 63.1538 639.25 63.1538C640.887 63.1538 642.296 63.5415 643.478 64.3169C644.659 65.08 645.564 66.1754 646.192 67.6031C646.832 69.0185 647.152 70.7108 647.152 72.68C647.152 73.0123 647.146 73.3262 647.133 73.6215C647.121 73.9046 647.102 74.1569 647.078 74.3785H634.007ZM639.287 65.7015C637.847 65.7015 636.641 66.2123 635.669 67.2338C634.709 68.2554 634.161 69.8369 634.026 71.9785H644.161C644.124 69.8985 643.669 68.3354 642.795 67.2892C641.921 66.2308 640.752 65.7015 639.287 65.7015ZM661.288 55.7323V78.2C661.288 79.16 661.583 79.8431 662.174 80.2492C662.777 80.6431 663.552 80.84 664.5 80.84C665.091 80.84 665.651 80.7785 666.18 80.6554C666.709 80.5323 667.239 80.3662 667.768 80.1569L668.599 82.4277C668.069 82.6862 667.411 82.9138 666.623 83.1108C665.848 83.32 664.968 83.4246 663.983 83.4246C662.26 83.4246 660.863 82.9508 659.792 82.0031C658.722 81.0431 658.186 79.72 658.186 78.0338V58.1877H652.223V55.7323H661.288ZM683.436 55.7323V78.2C683.436 79.16 683.732 79.8431 684.322 80.2492C684.925 80.6431 685.701 80.84 686.649 80.84C687.239 80.84 687.799 80.7785 688.329 80.6554C688.858 80.5323 689.387 80.3662 689.916 80.1569L690.747 82.4277C690.218 82.6862 689.559 82.9138 688.772 83.1108C687.996 83.32 687.116 83.4246 686.132 83.4246C684.409 83.4246 683.012 82.9508 681.941 82.0031C680.87 81.0431 680.335 79.72 680.335 78.0338V58.1877H674.372V55.7323H683.436ZM705.419 63.1538C707.252 63.1538 708.785 63.5723 710.015 64.4092C711.259 65.2338 712.188 66.4031 712.803 67.9169C713.431 69.4308 713.745 71.2154 713.745 73.2708C713.745 75.2523 713.425 77.0062 712.785 78.5323C712.145 80.0585 711.203 81.2585 709.96 82.1323C708.729 82.9938 707.203 83.4246 705.382 83.4246C703.56 83.4246 702.028 83.0062 700.785 82.1692C699.542 81.3323 698.6 80.1569 697.96 78.6431C697.332 77.1169 697.019 75.3385 697.019 73.3077C697.019 71.3015 697.339 69.5354 697.979 68.0092C698.619 66.4831 699.56 65.2954 700.803 64.4462C702.059 63.5846 703.597 63.1538 705.419 63.1538ZM705.419 65.6831C703.745 65.6831 702.477 66.3046 701.615 67.5477C700.766 68.7785 700.342 70.6985 700.342 73.3077C700.342 75.8677 700.76 77.7692 701.597 79.0123C702.446 80.2554 703.708 80.8769 705.382 80.8769C707.055 80.8769 708.311 80.2554 709.148 79.0123C709.997 77.7692 710.422 75.8554 710.422 73.2708C710.422 70.6862 710.003 68.7785 709.166 67.5477C708.329 66.3046 707.08 65.6831 705.419 65.6831ZM727.53 76.9262C728.379 76.9262 729.087 77.2154 729.653 77.7938C730.232 78.3723 730.521 79.0677 730.521 79.88C730.521 80.3231 730.465 80.7723 730.355 81.2277C730.256 81.6831 730.072 82.2 729.801 82.7785L726.81 89.6277H724.004L725.776 82.3354C725.407 82.0646 725.112 81.7138 724.89 81.2831C724.681 80.84 724.576 80.3723 724.576 79.88C724.576 79.0554 724.859 78.36 725.425 77.7938C725.992 77.2154 726.693 76.9262 727.53 76.9262ZM782.738 57.5785L778.861 83H774.652L771.735 63.8185L768.799 83H764.498L760.916 57.5785H764.128L766.842 79.4738L769.888 60.5323H773.821L776.719 79.4738L779.765 57.5785H782.738ZM794.012 63.1538C795.846 63.1538 797.378 63.5723 798.609 64.4092C799.852 65.2338 800.782 66.4031 801.397 67.9169C802.025 69.4308 802.338 71.2154 802.338 73.2708C802.338 75.2523 802.018 77.0062 801.378 78.5323C800.738 80.0585 799.797 81.2585 798.554 82.1323C797.323 82.9938 795.797 83.4246 793.975 83.4246C792.154 83.4246 790.622 83.0062 789.378 82.1692C788.135 81.3323 787.194 80.1569 786.554 78.6431C785.926 77.1169 785.612 75.3385 785.612 73.3077C785.612 71.3015 785.932 69.5354 786.572 68.0092C787.212 66.4831 788.154 65.2954 789.397 64.4462C790.652 63.5846 792.191 63.1538 794.012 63.1538ZM794.012 65.6831C792.338 65.6831 791.071 66.3046 790.209 67.5477C789.36 68.7785 788.935 70.6985 788.935 73.3077C788.935 75.8677 789.354 77.7692 790.191 79.0123C791.04 80.2554 792.302 80.8769 793.975 80.8769C795.649 80.8769 796.905 80.2554 797.742 79.0123C798.591 77.7692 799.015 75.8554 799.015 73.2708C799.015 70.6862 798.597 68.7785 797.76 67.5477C796.923 66.3046 795.674 65.6831 794.012 65.6831ZM808.942 83V80.6185H811.97V65.9415H808.942V63.56H814.333L814.905 68.1569C815.656 66.5569 816.567 65.32 817.638 64.4462C818.708 63.5723 820.124 63.1354 821.884 63.1354C822.425 63.1354 822.905 63.1785 823.324 63.2646C823.755 63.3385 824.191 63.4369 824.635 63.56L823.73 66.3292C823.324 66.2185 822.955 66.1385 822.622 66.0892C822.29 66.0277 821.908 65.9969 821.478 65.9969C819.988 65.9969 818.708 66.5262 817.638 67.5846C816.567 68.6431 815.711 70.2431 815.071 72.3846V80.6185H819.022V83H808.942ZM821.644 70.1323V65.9046L821.958 63.56H824.635L824.191 70.1323H821.644ZM838.475 55.7323V78.2C838.475 79.16 838.771 79.8431 839.361 80.2492C839.965 80.6431 840.74 80.84 841.688 80.84C842.278 80.84 842.838 80.7785 843.368 80.6554C843.897 80.5323 844.426 80.3662 844.955 80.1569L845.786 82.4277C845.257 82.6862 844.598 82.9138 843.811 83.1108C843.035 83.32 842.155 83.4246 841.171 83.4246C839.448 83.4246 838.051 82.9508 836.98 82.0031C835.909 81.0431 835.374 79.72 835.374 78.0338V58.1877H829.411V55.7323H838.475ZM864.685 55.3446L867.787 55.7323V83H865.073L864.778 80.4338C864.051 81.4677 863.215 82.2246 862.267 82.7046C861.331 83.1846 860.328 83.4246 859.258 83.4246C857.571 83.4246 856.181 83 855.085 82.1508C853.99 81.3015 853.178 80.12 852.648 78.6062C852.119 77.08 851.855 75.3138 851.855 73.3077C851.855 71.3631 852.156 69.6277 852.759 68.1015C853.362 66.5631 854.23 65.3569 855.362 64.4831C856.507 63.5969 857.879 63.1538 859.479 63.1538C860.599 63.1538 861.584 63.3508 862.433 63.7446C863.282 64.1262 864.033 64.6923 864.685 65.4431V55.3446ZM860.291 65.6462C858.667 65.6462 857.418 66.28 856.544 67.5477C855.67 68.8154 855.233 70.7354 855.233 73.3077C855.233 74.9815 855.411 76.3846 855.768 77.5169C856.125 78.6492 856.648 79.4985 857.338 80.0646C858.039 80.6308 858.895 80.9138 859.904 80.9138C861.011 80.9138 861.953 80.6 862.728 79.9723C863.516 79.3446 864.168 78.6369 864.685 77.8492V68.1385C864.156 67.3508 863.516 66.7415 862.765 66.3108C862.015 65.8677 861.19 65.6462 860.291 65.6462ZM884.212 57.5785L883.898 74.6185H881.111L880.741 57.5785H884.212ZM882.532 78.4769C883.246 78.4769 883.837 78.7169 884.304 79.1969C884.784 79.6769 885.024 80.2554 885.024 80.9323C885.024 81.6215 884.784 82.2123 884.304 82.7046C883.837 83.1846 883.246 83.4246 882.532 83.4246C881.831 83.4246 881.246 83.1846 880.778 82.7046C880.311 82.2123 880.077 81.6215 880.077 80.9323C880.077 80.2554 880.311 79.6769 880.778 79.1969C881.246 78.7169 881.831 78.4769 882.532 78.4769ZM900.268 65.3323L899.678 55.7323H903.573L903.001 65.3323H900.268ZM906.434 65.3323L905.881 55.7323H909.758L909.167 65.3323H906.434ZM67.1938 110.345C68.24 110.345 69.1877 110.437 70.0369 110.622C70.8862 110.806 71.6923 111.065 72.4554 111.397L71.4585 113.705C70.8308 113.434 70.1662 113.231 69.4646 113.095C68.7631 112.96 68.0369 112.892 67.2862 112.892C65.9323 112.892 64.9108 113.157 64.2215 113.686C63.5446 114.215 63.2062 115.028 63.2062 116.123V120.074H69.7969L69.4646 122.511H63.2062V138H60.1046V122.511H55.4708V120.074H60.1046V116.197C60.1046 114.991 60.4123 113.951 61.0277 113.077C61.6554 112.203 62.5046 111.532 63.5754 111.065C64.6462 110.585 65.8523 110.345 67.1938 110.345ZM80.9607 118.56V132.332C80.9607 133.612 81.2254 134.535 81.7546 135.102C82.2838 135.668 83.1084 135.951 84.2284 135.951C85.2992 135.951 86.3084 135.649 87.2561 135.046C88.2161 134.431 88.9607 133.705 89.49 132.868V118.56H92.5915V138H89.9515L89.6931 135.378C88.93 136.363 87.9884 137.12 86.8684 137.649C85.7484 138.166 84.6161 138.425 83.4715 138.425C81.5884 138.425 80.1792 137.926 79.2438 136.929C78.3207 135.92 77.8592 134.511 77.8592 132.702V118.56H80.9607ZM100.008 138V118.56H102.648L102.888 121.255C103.675 120.258 104.66 119.495 105.841 118.966C107.035 118.425 108.192 118.154 109.312 118.154C111.22 118.154 112.605 118.658 113.466 119.668C114.34 120.677 114.777 122.08 114.777 123.877V138H111.675V126.166C111.675 124.837 111.601 123.766 111.454 122.954C111.306 122.129 110.998 121.532 110.531 121.163C110.063 120.782 109.337 120.591 108.352 120.591C107.589 120.591 106.869 120.757 106.192 121.089C105.528 121.422 104.931 121.84 104.401 122.345C103.885 122.837 103.454 123.335 103.109 123.84V138H100.008ZM130.944 135.748C131.916 135.748 132.821 135.588 133.658 135.268C134.507 134.948 135.288 134.542 136.002 134.049L137.516 136.08C136.667 136.806 135.645 137.378 134.451 137.797C133.258 138.215 132.088 138.425 130.944 138.425C129.011 138.425 127.362 138.012 125.996 137.188C124.642 136.351 123.608 135.182 122.895 133.68C122.181 132.166 121.824 130.394 121.824 128.363C121.824 126.418 122.181 124.677 122.895 123.138C123.621 121.588 124.661 120.369 126.015 119.483C127.381 118.597 129.036 118.154 130.981 118.154C132.224 118.154 133.387 118.345 134.47 118.726C135.565 119.095 136.568 119.655 137.479 120.406L135.965 122.474C135.141 121.895 134.31 121.465 133.473 121.182C132.648 120.886 131.805 120.738 130.944 120.738C129.27 120.738 127.891 121.366 126.808 122.622C125.725 123.877 125.184 125.791 125.184 128.363C125.184 130.086 125.43 131.495 125.922 132.591C126.427 133.674 127.11 134.474 127.971 134.991C128.845 135.495 129.836 135.748 130.944 135.748ZM159.738 137.022C159.074 137.465 158.268 137.809 157.32 138.055C156.372 138.302 155.443 138.425 154.532 138.425C152.44 138.425 150.828 137.877 149.695 136.782C148.563 135.686 147.997 134.277 147.997 132.554V120.96H143.529V118.56H147.997V114.148L151.098 113.778V118.56H157.818L157.449 120.96H151.098V132.517C151.098 133.6 151.381 134.425 151.948 134.991C152.526 135.557 153.48 135.84 154.809 135.84C155.535 135.84 156.206 135.754 156.821 135.582C157.437 135.409 158.009 135.188 158.538 134.917L159.738 137.022ZM176.293 118.56V135.545H181.776V138H167.191V135.545H173.191V121.015H167.376V118.56H176.293ZM173.819 109.458C174.508 109.458 175.056 109.668 175.462 110.086C175.881 110.505 176.09 111.015 176.09 111.618C176.09 112.246 175.881 112.775 175.462 113.206C175.056 113.625 174.508 113.834 173.819 113.834C173.167 113.834 172.631 113.625 172.213 113.206C171.794 112.775 171.585 112.246 171.585 111.618C171.585 111.015 171.794 110.505 172.213 110.086C172.631 109.668 173.167 109.458 173.819 109.458ZM196.004 118.154C197.838 118.154 199.371 118.572 200.601 119.409C201.844 120.234 202.774 121.403 203.389 122.917C204.017 124.431 204.331 126.215 204.331 128.271C204.331 130.252 204.011 132.006 203.371 133.532C202.731 135.058 201.789 136.258 200.546 137.132C199.315 137.994 197.789 138.425 195.968 138.425C194.146 138.425 192.614 138.006 191.371 137.169C190.128 136.332 189.186 135.157 188.546 133.643C187.918 132.117 187.604 130.338 187.604 128.308C187.604 126.302 187.924 124.535 188.564 123.009C189.204 121.483 190.146 120.295 191.389 119.446C192.644 118.585 194.183 118.154 196.004 118.154ZM196.004 120.683C194.331 120.683 193.063 121.305 192.201 122.548C191.352 123.778 190.928 125.698 190.928 128.308C190.928 130.868 191.346 132.769 192.183 134.012C193.032 135.255 194.294 135.877 195.968 135.877C197.641 135.877 198.897 135.255 199.734 134.012C200.583 132.769 201.008 130.855 201.008 128.271C201.008 125.686 200.589 123.778 199.752 122.548C198.915 121.305 197.666 120.683 196.004 120.683ZM210.75 138V118.56H213.39L213.63 121.255C214.418 120.258 215.402 119.495 216.584 118.966C217.778 118.425 218.934 118.154 220.054 118.154C221.962 118.154 223.347 118.658 224.208 119.668C225.082 120.677 225.519 122.08 225.519 123.877V138H222.418V126.166C222.418 124.837 222.344 123.766 222.196 122.954C222.048 122.129 221.741 121.532 221.273 121.163C220.805 120.782 220.079 120.591 219.094 120.591C218.331 120.591 217.611 120.757 216.934 121.089C216.27 121.422 215.673 121.84 215.144 122.345C214.627 122.837 214.196 123.335 213.851 123.84V138H210.75ZM100.192 193V190.618H103.22V175.942H100.192V173.56H105.583L106.155 178.157C106.906 176.557 107.817 175.32 108.888 174.446C109.958 173.572 111.374 173.135 113.134 173.135C113.675 173.135 114.155 173.178 114.574 173.265C115.005 173.338 115.441 173.437 115.885 173.56L114.98 176.329C114.574 176.218 114.205 176.138 113.872 176.089C113.54 176.028 113.158 175.997 112.728 175.997C111.238 175.997 109.958 176.526 108.888 177.585C107.817 178.643 106.961 180.243 106.321 182.385V190.618H110.272V193H100.192ZM112.894 180.132V175.905L113.208 173.56H115.885L115.441 180.132H112.894ZM124.593 184.378C124.655 185.88 124.944 187.111 125.461 188.071C125.978 189.018 126.661 189.72 127.51 190.175C128.359 190.618 129.282 190.84 130.279 190.84C131.276 190.84 132.175 190.692 132.975 190.397C133.787 190.102 134.618 189.665 135.467 189.086L136.925 191.135C136.015 191.849 134.975 192.409 133.805 192.815C132.648 193.222 131.461 193.425 130.242 193.425C128.359 193.425 126.753 193 125.424 192.151C124.095 191.302 123.079 190.12 122.378 188.606C121.688 187.08 121.344 185.314 121.344 183.308C121.344 181.338 121.695 179.591 122.396 178.065C123.098 176.538 124.082 175.338 125.35 174.465C126.618 173.591 128.113 173.154 129.836 173.154C131.473 173.154 132.882 173.542 134.064 174.317C135.245 175.08 136.15 176.175 136.778 177.603C137.418 179.018 137.738 180.711 137.738 182.68C137.738 183.012 137.731 183.326 137.719 183.622C137.707 183.905 137.688 184.157 137.664 184.378H124.593ZM129.873 175.702C128.433 175.702 127.227 176.212 126.255 177.234C125.295 178.255 124.747 179.837 124.611 181.978H134.747C134.71 179.898 134.255 178.335 133.381 177.289C132.507 176.231 131.338 175.702 129.873 175.702ZM159.738 192.022C159.074 192.465 158.268 192.809 157.32 193.055C156.372 193.302 155.443 193.425 154.532 193.425C152.44 193.425 150.828 192.877 149.695 191.782C148.563 190.686 147.997 189.277 147.997 187.554V175.96H143.529V173.56H147.997V169.148L151.098 168.778V173.56H157.818L157.449 175.96H151.098V187.517C151.098 188.6 151.381 189.425 151.948 189.991C152.526 190.557 153.48 190.84 154.809 190.84C155.535 190.84 156.206 190.754 156.821 190.582C157.437 190.409 158.009 190.188 158.538 189.917L159.738 192.022ZM169.554 173.56V187.332C169.554 188.612 169.819 189.535 170.348 190.102C170.878 190.668 171.702 190.951 172.822 190.951C173.893 190.951 174.902 190.649 175.85 190.046C176.81 189.431 177.554 188.705 178.084 187.868V173.56H181.185V193H178.545L178.287 190.378C177.524 191.363 176.582 192.12 175.462 192.649C174.342 193.166 173.21 193.425 172.065 193.425C170.182 193.425 168.773 192.926 167.838 191.929C166.914 190.92 166.453 189.511 166.453 187.702V173.56H169.554ZM188.786 193V190.618H191.814V175.942H188.786V173.56H194.177L194.749 178.157C195.5 176.557 196.411 175.32 197.481 174.446C198.552 173.572 199.968 173.135 201.728 173.135C202.269 173.135 202.749 173.178 203.168 173.265C203.598 173.338 204.035 173.437 204.478 173.56L203.574 176.329C203.168 176.218 202.798 176.138 202.466 176.089C202.134 176.028 201.752 175.997 201.321 175.997C199.832 175.997 198.552 176.526 197.481 177.585C196.411 178.643 195.555 180.243 194.915 182.385V190.618H198.866V193H188.786ZM201.488 180.132V175.905L201.801 173.56H204.478L204.035 180.132H201.488ZM210.75 193V173.56H213.39L213.63 176.255C214.418 175.258 215.402 174.495 216.584 173.966C217.778 173.425 218.934 173.154 220.054 173.154C221.962 173.154 223.347 173.658 224.208 174.668C225.082 175.677 225.519 177.08 225.519 178.877V193H222.418V181.166C222.418 179.837 222.344 178.766 222.196 177.954C222.048 177.129 221.741 176.532 221.273 176.163C220.805 175.782 220.079 175.591 219.094 175.591C218.331 175.591 217.611 175.757 216.934 176.089C216.27 176.422 215.673 176.84 215.144 177.345C214.627 177.837 214.196 178.335 213.851 178.84V193H210.75Z" fill="#4FC3F7"/>
<path d="M347.997 80.4154C347.997 79.6154 348.28 78.92 348.847 78.3292C349.425 77.7385 350.133 77.4431 350.97 77.4431C351.831 77.4431 352.545 77.7385 353.111 78.3292C353.69 78.92 353.979 79.6154 353.979 80.4154C353.979 81.2523 353.69 81.9662 353.111 82.5569C352.545 83.1354 351.831 83.4246 350.97 83.4246C350.133 83.4246 349.425 83.1354 348.847 82.5569C348.28 81.9662 347.997 81.2523 347.997 80.4154ZM347.997 67.1046C347.997 66.5385 348.127 66.0338 348.385 65.5908C348.644 65.1477 349 64.7969 349.456 64.5385C349.911 64.2677 350.416 64.1323 350.97 64.1323C351.831 64.1323 352.545 64.4215 353.111 65C353.69 65.5785 353.979 66.28 353.979 67.1046C353.979 67.9169 353.69 68.6246 353.111 69.2277C352.545 69.8185 351.831 70.1138 350.97 70.1138C350.133 70.1138 349.425 69.8185 348.847 69.2277C348.28 68.6246 347.997 67.9169 347.997 67.1046ZM557.524 66.68V69.3569H543.161V66.68H557.524ZM557.524 73.6769V76.3723H543.161V73.6769H557.524ZM926.829 76.8892C927.691 76.8892 928.404 77.1846 928.971 77.7754C929.549 78.3538 929.838 79.0431 929.838 79.8431C929.838 80.2985 929.783 80.7538 929.672 81.2092C929.574 81.6646 929.383 82.1877 929.1 82.7785L926.109 89.6462H923.303L925.075 82.3169C924.263 81.7508 923.857 80.9323 923.857 79.8615C923.857 79.0369 924.14 78.3354 924.706 77.7569C925.284 77.1785 925.992 76.8892 926.829 76.8892ZM926.829 64.1323C927.691 64.1323 928.404 64.4215 928.971 65C929.549 65.5785 929.838 66.28 929.838 67.1046C929.838 67.9169 929.549 68.6246 928.971 69.2277C928.404 69.8185 927.691 70.1138 926.829 70.1138C925.992 70.1138 925.284 69.8185 924.706 69.2277C924.14 68.6246 923.857 67.9169 923.857 67.1046C923.857 66.5385 923.986 66.0338 924.244 65.5908C924.503 65.1477 924.86 64.7969 925.315 64.5385C925.771 64.2677 926.275 64.1323 926.829 64.1323ZM325.627 125.077C325.627 126.997 325.794 128.72 326.126 130.246C326.458 131.76 326.95 133.151 327.603 134.418C328.255 135.674 329.074 136.868 330.058 138C331.055 139.145 332.212 140.302 333.529 141.471L331.904 143.169C329.91 141.532 328.2 139.858 326.772 138.148C325.357 136.437 324.267 134.529 323.504 132.425C322.754 130.32 322.378 127.871 322.378 125.077C322.378 122.271 322.754 119.815 323.504 117.711C324.267 115.606 325.357 113.698 326.772 111.988C328.2 110.277 329.91 108.609 331.904 106.985L333.529 108.683C332.2 109.865 331.037 111.028 330.04 112.172C329.055 113.305 328.237 114.498 327.584 115.754C326.932 116.997 326.44 118.382 326.107 119.908C325.787 121.422 325.627 123.145 325.627 125.077ZM370.146 135.415C370.146 134.615 370.429 133.92 370.995 133.329C371.574 132.738 372.281 132.443 373.118 132.443C373.98 132.443 374.694 132.738 375.26 133.329C375.838 133.92 376.127 134.615 376.127 135.415C376.127 136.252 375.838 136.966 375.26 137.557C374.694 138.135 373.98 138.425 373.118 138.425C372.281 138.425 371.574 138.135 370.995 137.557C370.429 136.966 370.146 136.252 370.146 135.415ZM370.146 122.105C370.146 121.538 370.275 121.034 370.534 120.591C370.792 120.148 371.149 119.797 371.604 119.538C372.06 119.268 372.564 119.132 373.118 119.132C373.98 119.132 374.694 119.422 375.26 120C375.838 120.578 376.127 121.28 376.127 122.105C376.127 122.917 375.838 123.625 375.26 124.228C374.694 124.818 373.98 125.114 373.118 125.114C372.281 125.114 371.574 124.818 370.995 124.228C370.429 123.625 370.146 122.917 370.146 122.105ZM550.343 131.926C551.192 131.926 551.899 132.215 552.466 132.794C553.044 133.372 553.333 134.068 553.333 134.88C553.333 135.323 553.278 135.772 553.167 136.228C553.069 136.683 552.884 137.2 552.613 137.778L549.623 144.628H546.816L548.589 137.335C548.219 137.065 547.924 136.714 547.703 136.283C547.493 135.84 547.389 135.372 547.389 134.88C547.389 134.055 547.672 133.36 548.238 132.794C548.804 132.215 549.506 131.926 550.343 131.926ZM613.779 135.415C613.779 134.615 614.062 133.92 614.628 133.329C615.206 132.738 615.914 132.443 616.751 132.443C617.612 132.443 618.326 132.738 618.892 133.329C619.471 133.92 619.76 134.615 619.76 135.415C619.76 136.252 619.471 136.966 618.892 137.557C618.326 138.135 617.612 138.425 616.751 138.425C615.914 138.425 615.206 138.135 614.628 137.557C614.062 136.966 613.779 136.252 613.779 135.415ZM613.779 122.105C613.779 121.538 613.908 121.034 614.166 120.591C614.425 120.148 614.782 119.797 615.237 119.538C615.692 119.268 616.197 119.132 616.751 119.132C617.612 119.132 618.326 119.422 618.892 120C619.471 120.578 619.76 121.28 619.76 122.105C619.76 122.917 619.471 123.625 618.892 124.228C618.326 124.818 617.612 125.114 616.751 125.114C615.914 125.114 615.206 124.818 614.628 124.228C614.062 123.625 613.779 122.917 613.779 122.105ZM797.206 125.077C797.206 123.145 797.04 121.422 796.708 119.908C796.388 118.382 795.902 116.997 795.249 115.754C794.597 114.498 793.772 113.305 792.775 112.172C791.791 111.028 790.634 109.865 789.305 108.683L790.929 106.985C792.935 108.609 794.646 110.277 796.062 111.988C797.477 113.698 798.56 115.606 799.311 117.711C800.074 119.815 800.455 122.271 800.455 125.077C800.455 127.871 800.074 130.32 799.311 132.425C798.56 134.529 797.477 136.437 796.062 138.148C794.646 139.858 792.935 141.532 790.929 143.169L789.305 141.471C790.622 140.302 791.772 139.145 792.757 138C793.754 136.868 794.578 135.674 795.231 134.418C795.883 133.151 796.375 131.76 796.708 130.246C797.04 128.72 797.206 126.997 797.206 125.077ZM813.115 132.462C813.115 131.662 813.398 130.966 813.964 130.375C814.542 129.785 815.25 129.489 816.087 129.489C816.948 129.489 817.662 129.785 818.228 130.375C818.807 130.966 819.096 131.662 819.096 132.462C819.096 133.298 818.807 134.012 818.228 134.603C817.662 135.182 816.948 135.471 816.087 135.471C815.25 135.471 814.542 135.182 813.964 134.603C813.398 134.012 813.115 133.298 813.115 132.462ZM813.115 119.151C813.115 118.585 813.244 118.08 813.502 117.637C813.761 117.194 814.118 116.843 814.573 116.585C815.028 116.314 815.533 116.178 816.087 116.178C816.948 116.178 817.662 116.468 818.228 117.046C818.807 117.625 819.096 118.326 819.096 119.151C819.096 119.963 818.807 120.671 818.228 121.274C817.662 121.865 816.948 122.16 816.087 122.16C815.25 122.16 814.542 121.865 813.964 121.274C813.398 120.671 813.115 119.963 813.115 119.151ZM1021.05 107.151V109.588C1020.16 109.588 1019.34 109.68 1018.6 109.865C1017.87 110.037 1017.31 110.338 1016.9 110.769C1016.51 111.2 1016.34 111.791 1016.4 112.542L1017.18 120.111C1017.29 121.145 1017.23 122 1016.99 122.677C1016.76 123.354 1016.36 123.883 1015.81 124.265C1015.27 124.646 1014.57 124.917 1013.72 125.077C1014.59 125.225 1015.29 125.483 1015.85 125.852C1016.4 126.209 1016.79 126.726 1017.01 127.403C1017.23 128.068 1017.29 128.948 1017.18 130.043L1016.4 137.612C1016.34 138.375 1016.51 138.972 1016.9 139.403C1017.29 139.834 1017.86 140.135 1018.6 140.308C1019.34 140.48 1020.16 140.566 1021.05 140.566V143.003C1020.02 143.003 1019.03 142.911 1018.08 142.726C1017.13 142.554 1016.3 142.252 1015.57 141.822C1014.84 141.391 1014.3 140.8 1013.93 140.049C1013.56 139.311 1013.44 138.375 1013.56 137.243L1014.3 130.228C1014.4 129.378 1014.32 128.665 1014.06 128.086C1013.81 127.508 1013.27 127.071 1012.43 126.775C1011.61 126.468 1010.37 126.314 1008.72 126.314V123.84C1010.37 123.84 1011.61 123.692 1012.43 123.397C1013.27 123.102 1013.81 122.665 1014.06 122.086C1014.32 121.508 1014.4 120.8 1014.3 119.963L1013.56 112.911C1013.44 111.778 1013.56 110.843 1013.93 110.105C1014.3 109.354 1014.84 108.763 1015.55 108.332C1016.28 107.902 1017.12 107.6 1018.06 107.428C1019.02 107.243 1020.02 107.151 1021.05 107.151ZM308.113 172.858V180.225H315.368V182.828H308.113V190.138H305.214V182.828H298.051V180.225H305.214V172.858H308.113ZM373.118 186.889C373.98 186.889 374.694 187.185 375.26 187.775C375.838 188.354 376.127 189.043 376.127 189.843C376.127 190.298 376.072 190.754 375.961 191.209C375.863 191.665 375.672 192.188 375.389 192.778L372.398 199.646H369.592L371.364 192.317C370.552 191.751 370.146 190.932 370.146 189.862C370.146 189.037 370.429 188.335 370.995 187.757C371.574 187.178 372.281 186.889 373.118 186.889ZM373.118 174.132C373.98 174.132 374.694 174.422 375.26 175C375.838 175.578 376.127 176.28 376.127 177.105C376.127 177.917 375.838 178.625 375.26 179.228C374.694 179.818 373.98 180.114 373.118 180.114C372.281 180.114 371.574 179.818 370.995 179.228C370.429 178.625 370.146 177.917 370.146 177.105C370.146 176.538 370.275 176.034 370.534 175.591C370.792 175.148 371.149 174.797 371.604 174.538C372.06 174.268 372.564 174.132 373.118 174.132ZM57.4831 217.151C58.5169 217.151 59.5077 217.243 60.4554 217.428C61.4031 217.6 62.24 217.902 62.9662 218.332C63.6923 218.763 64.24 219.354 64.6092 220.105C64.9908 220.843 65.1138 221.778 64.9785 222.911L64.24 229.963C64.1415 230.8 64.2462 231.508 64.5538 232.086C64.8738 232.665 65.4523 233.102 66.2892 233.397C67.1262 233.692 68.3015 233.84 69.8154 233.84V236.314C68.3138 236.314 67.1385 236.468 66.2892 236.775C65.4523 237.071 64.8738 237.508 64.5538 238.086C64.2462 238.665 64.1415 239.378 64.24 240.228L64.9785 247.243C65.1015 248.375 64.9785 249.311 64.6092 250.049C64.24 250.8 63.6923 251.391 62.9662 251.822C62.2523 252.252 61.4154 252.554 60.4554 252.726C59.5077 252.911 58.5169 253.003 57.4831 253.003V250.566C58.3815 250.566 59.1938 250.48 59.92 250.308C60.6585 250.135 61.2308 249.834 61.6369 249.403C62.0431 248.972 62.2092 248.375 62.1354 247.612L61.36 240.043C61.2492 238.948 61.3108 238.068 61.5446 237.403C61.7785 236.726 62.1969 236.209 62.8 235.852C63.4154 235.495 64.2215 235.249 65.2185 235.114C64.2585 234.954 63.4708 234.677 62.8554 234.283C62.2523 233.889 61.8277 233.354 61.5815 232.677C61.3354 232 61.2615 231.145 61.36 230.111L62.1354 222.542C62.2092 221.791 62.0431 221.2 61.6369 220.769C61.2308 220.338 60.6646 220.037 59.9385 219.865C59.2123 219.68 58.3938 219.588 57.4831 219.588V217.151Z" fill="#E1F5FE"/>
<path d="M201.414 63.1538C202.041 63.1538 202.638 63.2892 203.204 63.56C203.783 63.8308 204.257 64.3538 204.626 65.1292C204.995 65.9046 205.18 67.0369 205.18 68.5262V83H202.3V69.0246C202.3 67.8062 202.226 66.9262 202.078 66.3846C201.931 65.8431 201.506 65.5723 200.804 65.5723C200.226 65.5723 199.648 65.7569 199.069 66.1262C198.503 66.4831 197.949 67.0738 197.408 67.8985V83H194.509V69.0246C194.509 67.8062 194.435 66.9262 194.288 66.3846C194.14 65.8431 193.715 65.5723 193.014 65.5723C192.411 65.5723 191.826 65.7569 191.26 66.1262C190.706 66.4831 190.158 67.0738 189.617 67.8985V83H186.755V63.56H189.192L189.377 65.8123C189.906 65.0615 190.497 64.4338 191.149 63.9292C191.814 63.4123 192.632 63.1538 193.604 63.1538C194.343 63.1538 195.038 63.3323 195.691 63.6892C196.343 64.0338 196.823 64.7108 197.131 65.72C197.66 64.9569 198.257 64.3415 198.921 63.8738C199.586 63.3938 200.417 63.1538 201.414 63.1538ZM213.187 74.3785C213.248 75.88 213.538 77.1108 214.054 78.0708C214.571 79.0185 215.254 79.72 216.104 80.1754C216.953 80.6185 217.876 80.84 218.873 80.84C219.87 80.84 220.768 80.6923 221.568 80.3969C222.381 80.1015 223.211 79.6646 224.061 79.0862L225.519 81.1354C224.608 81.8492 223.568 82.4092 222.399 82.8154C221.242 83.2215 220.054 83.4246 218.836 83.4246C216.953 83.4246 215.347 83 214.018 82.1508C212.688 81.3015 211.673 80.12 210.971 78.6062C210.282 77.08 209.938 75.3138 209.938 73.3077C209.938 71.3385 210.288 69.5908 210.99 68.0646C211.691 66.5385 212.676 65.3385 213.944 64.4646C215.211 63.5908 216.707 63.1538 218.43 63.1538C220.067 63.1538 221.476 63.5415 222.658 64.3169C223.839 65.08 224.744 66.1754 225.371 67.6031C226.011 69.0185 226.331 70.7108 226.331 72.68C226.331 73.0123 226.325 73.3262 226.313 73.6215C226.301 73.9046 226.282 74.1569 226.258 74.3785H213.187ZM218.467 65.7015C217.027 65.7015 215.821 66.2123 214.848 67.2338C213.888 68.2554 213.341 69.8369 213.205 71.9785H223.341C223.304 69.8985 222.848 68.3354 221.974 67.2892C221.101 66.2308 219.931 65.7015 218.467 65.7015ZM239.507 80.8585C240.997 80.8585 242.172 80.5815 243.034 80.0277C243.907 79.4615 244.344 78.7108 244.344 77.7754C244.344 77.1846 244.234 76.6738 244.012 76.2431C243.803 75.8123 243.366 75.4246 242.701 75.08C242.037 74.7354 241.015 74.3908 239.637 74.0462C238.295 73.7138 237.126 73.3323 236.129 72.9015C235.144 72.4585 234.375 71.8862 233.821 71.1846C233.28 70.4831 233.009 69.5723 233.009 68.4523C233.009 67.3569 233.317 66.4154 233.932 65.6277C234.56 64.8277 235.427 64.2185 236.535 63.8C237.643 63.3692 238.929 63.1538 240.394 63.1538C241.957 63.1538 243.317 63.3631 244.474 63.7815C245.643 64.1877 246.634 64.6923 247.446 65.2954L246.08 67.4C245.341 66.8954 244.529 66.4831 243.643 66.1631C242.757 65.8308 241.686 65.6646 240.431 65.6646C238.904 65.6646 237.821 65.9046 237.181 66.3846C236.541 66.8523 236.221 67.4615 236.221 68.2123C236.221 68.7785 236.375 69.2523 236.683 69.6338C237.003 70.0031 237.538 70.3415 238.289 70.6492C239.04 70.9446 240.074 71.2708 241.391 71.6277C242.658 71.96 243.76 72.36 244.695 72.8277C245.643 73.2954 246.381 73.9108 246.911 74.6738C247.44 75.4369 247.704 76.4215 247.704 77.6277C247.704 79.0062 247.311 80.1262 246.523 80.9877C245.735 81.8369 244.714 82.4585 243.458 82.8523C242.215 83.2338 240.898 83.4246 239.507 83.4246C237.747 83.4246 236.246 83.1723 235.003 82.6677C233.772 82.1508 232.738 81.5292 231.901 80.8031L233.674 78.7538C234.437 79.3815 235.311 79.8923 236.295 80.2862C237.292 80.6677 238.363 80.8585 239.507 80.8585ZM261.656 80.8585C263.145 80.8585 264.321 80.5815 265.182 80.0277C266.056 79.4615 266.493 78.7108 266.493 77.7754C266.493 77.1846 266.382 76.6738 266.161 76.2431C265.951 75.8123 265.514 75.4246 264.85 75.08C264.185 74.7354 263.164 74.3908 261.785 74.0462C260.444 73.7138 259.274 73.3323 258.277 72.9015C257.293 72.4585 256.524 71.8862 255.97 71.1846C255.428 70.4831 255.157 69.5723 255.157 68.4523C255.157 67.3569 255.465 66.4154 256.081 65.6277C256.708 64.8277 257.576 64.2185 258.684 63.8C259.791 63.3692 261.077 63.1538 262.542 63.1538C264.105 63.1538 265.465 63.3631 266.622 63.7815C267.791 64.1877 268.782 64.6923 269.594 65.2954L268.228 67.4C267.49 66.8954 266.677 66.4831 265.791 66.1631C264.905 65.8308 263.834 65.6646 262.579 65.6646C261.053 65.6646 259.97 65.9046 259.33 66.3846C258.69 66.8523 258.37 67.4615 258.37 68.2123C258.37 68.7785 258.524 69.2523 258.831 69.6338C259.151 70.0031 259.687 70.3415 260.437 70.6492C261.188 70.9446 262.222 71.2708 263.539 71.6277C264.807 71.96 265.908 72.36 266.844 72.8277C267.791 73.2954 268.53 73.9108 269.059 74.6738C269.588 75.4369 269.853 76.4215 269.853 77.6277C269.853 79.0062 269.459 80.1262 268.671 80.9877C267.884 81.8369 266.862 82.4585 265.607 82.8523C264.364 83.2338 263.047 83.4246 261.656 83.4246C259.896 83.4246 258.394 83.1723 257.151 82.6677C255.921 82.1508 254.887 81.5292 254.05 80.8031L255.822 78.7538C256.585 79.3815 257.459 79.8923 258.444 80.2862C259.441 80.6677 260.511 80.8585 261.656 80.8585ZM291.115 78.7538C291.115 79.5292 291.244 80.0954 291.503 80.4523C291.761 80.8092 292.161 81.0738 292.703 81.2462L291.946 83.4246C291.109 83.3138 290.377 83.0492 289.749 82.6308C289.121 82.2 288.666 81.5538 288.383 80.6923C287.681 81.5908 286.807 82.2738 285.761 82.7415C284.715 83.1969 283.558 83.4246 282.291 83.4246C280.346 83.4246 278.814 82.8769 277.694 81.7815C276.574 80.6862 276.014 79.2338 276.014 77.4246C276.014 75.4185 276.795 73.88 278.358 72.8092C279.921 71.7385 282.18 71.2031 285.134 71.2031H287.995V69.5785C287.995 68.1754 287.583 67.1846 286.758 66.6062C285.946 66.0154 284.814 65.72 283.361 65.72C282.721 65.72 281.971 65.8 281.109 65.96C280.247 66.1077 279.312 66.36 278.303 66.7169L277.491 64.3723C278.684 63.9292 279.804 63.6154 280.851 63.4308C281.897 63.2462 282.894 63.1538 283.841 63.1538C286.266 63.1538 288.081 63.72 289.287 64.8523C290.506 65.9723 291.115 67.4985 291.115 69.4308V78.7538ZM283.084 81.0615C284.044 81.0615 284.961 80.8215 285.835 80.3415C286.709 79.8492 287.429 79.1723 287.995 78.3108V73.3077H285.189C283.047 73.3077 281.534 73.6769 280.647 74.4154C279.774 75.1538 279.337 76.1446 279.337 77.3877C279.337 78.5938 279.644 79.5108 280.26 80.1385C280.887 80.7538 281.829 81.0615 283.084 81.0615ZM315.147 61.4923L316.107 64.4092C315.282 64.6677 314.402 64.8277 313.467 64.8892C312.531 64.9508 311.516 64.9815 310.421 64.9815C311.541 65.4985 312.384 66.1692 312.95 66.9938C313.516 67.8062 313.799 68.7662 313.799 69.8738C313.799 71.1538 313.51 72.2923 312.931 73.2892C312.353 74.2862 311.516 75.0677 310.421 75.6338C309.337 76.2 308.027 76.4831 306.488 76.4831C305.836 76.4831 305.288 76.4523 304.845 76.3908C304.414 76.3292 303.996 76.2369 303.59 76.1138C303.294 76.3108 303.048 76.5815 302.851 76.9262C302.667 77.2708 302.574 77.6277 302.574 77.9969C302.574 78.4646 302.759 78.8523 303.128 79.16C303.497 79.4677 304.181 79.6215 305.177 79.6215H308.685C309.99 79.6215 311.159 79.8554 312.193 80.3231C313.239 80.7908 314.057 81.4185 314.648 82.2062C315.251 82.9938 315.553 83.8923 315.553 84.9015C315.553 86.8092 314.741 88.2738 313.116 89.2954C311.504 90.3169 309.221 90.8277 306.267 90.8277C304.199 90.8277 302.568 90.6123 301.374 90.1815C300.181 89.7631 299.325 89.1169 298.808 88.2431C298.304 87.3815 298.051 86.2923 298.051 84.9754H300.857C300.857 85.7262 301.005 86.3477 301.301 86.84C301.596 87.3323 302.131 87.6954 302.907 87.9292C303.682 88.1754 304.796 88.2985 306.248 88.2985C307.676 88.2985 308.839 88.1754 309.737 87.9292C310.648 87.6954 311.319 87.3385 311.75 86.8585C312.193 86.3908 312.414 85.8062 312.414 85.1046C312.414 84.1815 311.996 83.4862 311.159 83.0185C310.322 82.5508 309.276 82.3169 308.021 82.3169H304.55C302.876 82.3169 301.639 81.9477 300.839 81.2092C300.051 80.4708 299.657 79.6215 299.657 78.6615C299.657 78.0338 299.836 77.4246 300.193 76.8338C300.562 76.2431 301.097 75.72 301.799 75.2646C300.679 74.6738 299.854 73.9415 299.325 73.0677C298.796 72.1938 298.531 71.1354 298.531 69.8923C298.531 68.5754 298.857 67.4123 299.51 66.4031C300.162 65.3815 301.073 64.5815 302.242 64.0031C303.411 63.4246 304.759 63.1354 306.285 63.1354C307.922 63.1231 309.251 63.0554 310.273 62.9323C311.294 62.7969 312.168 62.6062 312.894 62.36C313.633 62.1138 314.384 61.8246 315.147 61.4923ZM306.285 65.4062C304.722 65.4062 303.565 65.8308 302.814 66.68C302.076 67.5169 301.707 68.5877 301.707 69.8923C301.707 71.2092 302.088 72.2923 302.851 73.1415C303.614 73.9908 304.784 74.4154 306.359 74.4154C307.737 74.4154 308.784 74.0154 309.497 73.2154C310.224 72.4154 310.587 71.3015 310.587 69.8738C310.587 68.4092 310.224 67.3015 309.497 66.5508C308.784 65.7877 307.713 65.4062 306.285 65.4062ZM323.929 74.3785C323.99 75.88 324.28 77.1108 324.797 78.0708C325.314 79.0185 325.997 79.72 326.846 80.1754C327.695 80.6185 328.618 80.84 329.615 80.84C330.612 80.84 331.51 80.6923 332.31 80.3969C333.123 80.1015 333.954 79.6646 334.803 79.0862L336.261 81.1354C335.35 81.8492 334.31 82.4092 333.141 82.8154C331.984 83.2215 330.797 83.4246 329.578 83.4246C327.695 83.4246 326.089 83 324.76 82.1508C323.43 81.3015 322.415 80.12 321.714 78.6062C321.024 77.08 320.68 75.3138 320.68 73.3077C320.68 71.3385 321.03 69.5908 321.732 68.0646C322.434 66.5385 323.418 65.3385 324.686 64.4646C325.954 63.5908 327.449 63.1538 329.172 63.1538C330.809 63.1538 332.218 63.5415 333.4 64.3169C334.581 65.08 335.486 66.1754 336.114 67.6031C336.754 69.0185 337.074 70.7108 337.074 72.68C337.074 73.0123 337.067 73.3262 337.055 73.6215C337.043 73.9046 337.024 74.1569 337 74.3785H323.929ZM329.209 65.7015C327.769 65.7015 326.563 66.2123 325.59 67.2338C324.63 68.2554 324.083 69.8369 323.947 71.9785H334.083C334.046 69.8985 333.59 68.3354 332.717 67.2892C331.843 66.2308 330.674 65.7015 329.209 65.7015ZM268.967 133.754C268.967 134.529 269.096 135.095 269.354 135.452C269.613 135.809 270.013 136.074 270.554 136.246L269.797 138.425C268.961 138.314 268.228 138.049 267.601 137.631C266.973 137.2 266.517 136.554 266.234 135.692C265.533 136.591 264.659 137.274 263.613 137.742C262.567 138.197 261.41 138.425 260.142 138.425C258.197 138.425 256.665 137.877 255.545 136.782C254.425 135.686 253.865 134.234 253.865 132.425C253.865 130.418 254.647 128.88 256.21 127.809C257.773 126.738 260.031 126.203 262.985 126.203H265.847V124.578C265.847 123.175 265.434 122.185 264.61 121.606C263.797 121.015 262.665 120.72 261.213 120.72C260.573 120.72 259.822 120.8 258.961 120.96C258.099 121.108 257.164 121.36 256.154 121.717L255.342 119.372C256.536 118.929 257.656 118.615 258.702 118.431C259.748 118.246 260.745 118.154 261.693 118.154C264.117 118.154 265.933 118.72 267.139 119.852C268.357 120.972 268.967 122.498 268.967 124.431V133.754ZM260.936 136.062C261.896 136.062 262.813 135.822 263.687 135.342C264.561 134.849 265.281 134.172 265.847 133.311V128.308H263.041C260.899 128.308 259.385 128.677 258.499 129.415C257.625 130.154 257.188 131.145 257.188 132.388C257.188 133.594 257.496 134.511 258.111 135.138C258.739 135.754 259.681 136.062 260.936 136.062ZM288.826 110.345L291.927 110.732V138H289.214L288.918 135.434C288.192 136.468 287.355 137.225 286.407 137.705C285.472 138.185 284.469 138.425 283.398 138.425C281.712 138.425 280.321 138 279.226 137.151C278.131 136.302 277.318 135.12 276.789 133.606C276.26 132.08 275.995 130.314 275.995 128.308C275.995 126.363 276.297 124.628 276.9 123.102C277.503 121.563 278.371 120.357 279.503 119.483C280.647 118.597 282.02 118.154 283.62 118.154C284.74 118.154 285.724 118.351 286.574 118.745C287.423 119.126 288.174 119.692 288.826 120.443V110.345ZM284.432 120.646C282.807 120.646 281.558 121.28 280.684 122.548C279.811 123.815 279.374 125.735 279.374 128.308C279.374 129.982 279.552 131.385 279.909 132.517C280.266 133.649 280.789 134.498 281.478 135.065C282.18 135.631 283.035 135.914 284.044 135.914C285.152 135.914 286.094 135.6 286.869 134.972C287.657 134.345 288.309 133.637 288.826 132.849V123.138C288.297 122.351 287.657 121.742 286.906 121.311C286.155 120.868 285.331 120.646 284.432 120.646ZM310.974 110.345L314.076 110.732V138H311.362L311.067 135.434C310.341 136.468 309.504 137.225 308.556 137.705C307.621 138.185 306.617 138.425 305.547 138.425C303.861 138.425 302.47 138 301.374 137.151C300.279 136.302 299.467 135.12 298.937 133.606C298.408 132.08 298.144 130.314 298.144 128.308C298.144 126.363 298.445 124.628 299.048 123.102C299.651 121.563 300.519 120.357 301.651 119.483C302.796 118.597 304.168 118.154 305.768 118.154C306.888 118.154 307.873 118.351 308.722 118.745C309.571 119.126 310.322 119.692 310.974 120.443V110.345ZM306.581 120.646C304.956 120.646 303.707 121.28 302.833 122.548C301.959 123.815 301.522 125.735 301.522 128.308C301.522 129.982 301.701 131.385 302.057 132.517C302.414 133.649 302.937 134.498 303.627 135.065C304.328 135.631 305.184 135.914 306.193 135.914C307.301 135.914 308.242 135.6 309.017 134.972C309.805 134.345 310.457 133.637 310.974 132.849V123.138C310.445 122.351 309.805 121.742 309.054 121.311C308.304 120.868 307.479 120.646 306.581 120.646ZM345.524 138H341.979L349.16 127.735L342.865 118.56H346.539L351.044 125.797L355.604 118.56H359.148L352.871 127.606L360.034 138H356.231L350.914 129.655L345.524 138ZM603.446 118.56L596.615 138.129C596.159 139.446 595.581 140.652 594.879 141.748C594.19 142.843 593.286 143.748 592.166 144.462C591.058 145.188 589.649 145.637 587.938 145.809L587.458 143.335C588.799 143.114 589.858 142.775 590.633 142.32C591.409 141.865 592.018 141.28 592.461 140.566C592.916 139.852 593.316 138.997 593.661 138H592.627L585.833 118.56H589.156L594.732 135.637L600.233 118.56H603.446ZM256.93 193H253.385L260.567 182.735L254.271 173.56H257.945L262.45 180.797L267.01 173.56H270.554L264.277 182.606L271.441 193H267.637L262.321 184.655L256.93 193ZM359.813 173.56L352.982 193.129C352.527 194.446 351.948 195.652 351.247 196.748C350.557 197.843 349.653 198.748 348.533 199.462C347.425 200.188 346.016 200.637 344.305 200.809L343.825 198.335C345.167 198.114 346.225 197.775 347 197.32C347.776 196.865 348.385 196.28 348.828 195.566C349.284 194.852 349.684 193.997 350.028 193H348.994L342.2 173.56H345.524L351.099 190.637L356.6 173.56H359.813Z" fill="#81D4FA"/>
<path d="M394.547 80.8585C396.036 80.8585 397.211 80.5815 398.073 80.0277C398.947 79.4615 399.383 78.7108 399.383 77.7754C399.383 77.1846 399.273 76.6738 399.051 76.2431C398.842 75.8123 398.405 75.4246 397.74 75.08C397.076 74.7354 396.054 74.3908 394.676 74.0462C393.334 73.7138 392.165 73.3323 391.168 72.9015C390.183 72.4585 389.414 71.8862 388.86 71.1846C388.319 70.4831 388.048 69.5723 388.048 68.4523C388.048 67.3569 388.356 66.4154 388.971 65.6277C389.599 64.8277 390.467 64.2185 391.574 63.8C392.682 63.3692 393.968 63.1538 395.433 63.1538C396.996 63.1538 398.356 63.3631 399.513 63.7815C400.682 64.1877 401.673 64.6923 402.485 65.2954L401.119 67.4C400.38 66.8954 399.568 66.4831 398.682 66.1631C397.796 65.8308 396.725 65.6646 395.47 65.6646C393.943 65.6646 392.86 65.9046 392.22 66.3846C391.58 66.8523 391.26 67.4615 391.26 68.2123C391.26 68.7785 391.414 69.2523 391.722 69.6338C392.042 70.0031 392.577 70.3415 393.328 70.6492C394.079 70.9446 395.113 71.2708 396.43 71.6277C397.697 71.96 398.799 72.36 399.734 72.8277C400.682 73.2954 401.42 73.9108 401.95 74.6738C402.479 75.4369 402.743 76.4215 402.743 77.6277C402.743 79.0062 402.35 80.1262 401.562 80.9877C400.774 81.8369 399.753 82.4585 398.497 82.8523C397.254 83.2338 395.937 83.4246 394.547 83.4246C392.787 83.4246 391.285 83.1723 390.042 82.6677C388.811 82.1508 387.777 81.5292 386.94 80.8031L388.713 78.7538C389.476 79.3815 390.35 79.8923 391.334 80.2862C392.331 80.6677 393.402 80.8585 394.547 80.8585ZM425.52 82.0215C424.855 82.4646 424.049 82.8092 423.101 83.0554C422.153 83.3015 421.224 83.4246 420.313 83.4246C418.221 83.4246 416.609 82.8769 415.477 81.7815C414.344 80.6862 413.778 79.2769 413.778 77.5538V65.96H409.31V63.56H413.778V59.1477L416.88 58.7785V63.56H423.6L423.23 65.96H416.88V77.5169C416.88 78.6 417.163 79.4246 417.729 79.9908C418.307 80.5569 419.261 80.84 420.59 80.84C421.317 80.84 421.987 80.7538 422.603 80.5815C423.218 80.4092 423.79 80.1877 424.32 79.9169L425.52 82.0215ZM432.419 83V80.6185H435.447V65.9415H432.419V63.56H437.81L438.382 68.1569C439.133 66.5569 440.043 65.32 441.114 64.4462C442.185 63.5723 443.6 63.1354 445.36 63.1354C445.902 63.1354 446.382 63.1785 446.8 63.2646C447.231 63.3385 447.668 63.4369 448.111 63.56L447.207 66.3292C446.8 66.2185 446.431 66.1385 446.099 66.0892C445.767 66.0277 445.385 65.9969 444.954 65.9969C443.465 65.9969 442.185 66.5262 441.114 67.5846C440.043 68.6431 439.188 70.2431 438.548 72.3846V80.6185H442.499V83H432.419ZM445.12 70.1323V65.9046L445.434 63.56H448.111L447.668 70.1323H445.12ZM464.223 63.56V80.5446H469.706V83H455.121V80.5446H461.121V66.0154H455.306V63.56H464.223ZM461.749 54.4585C462.438 54.4585 462.986 54.6677 463.392 55.0862C463.81 55.5046 464.02 56.0154 464.02 56.6185C464.02 57.2462 463.81 57.7754 463.392 58.2062C462.986 58.6246 462.438 58.8338 461.749 58.8338C461.096 58.8338 460.561 58.6246 460.143 58.2062C459.724 57.7754 459.515 57.2462 459.515 56.6185C459.515 56.0154 459.724 55.5046 460.143 55.0862C460.561 54.6677 461.096 54.4585 461.749 54.4585ZM476.531 83V63.56H479.171L479.411 66.2554C480.199 65.2585 481.183 64.4954 482.365 63.9662C483.559 63.4246 484.716 63.1538 485.836 63.1538C487.743 63.1538 489.128 63.6585 489.99 64.6677C490.863 65.6769 491.3 67.08 491.3 68.8769V83H488.199V71.1662C488.199 69.8369 488.125 68.7662 487.977 67.9538C487.83 67.1292 487.522 66.5323 487.054 66.1631C486.586 65.7815 485.86 65.5908 484.876 65.5908C484.113 65.5908 483.393 65.7569 482.716 66.0892C482.051 66.4215 481.454 66.84 480.925 67.3446C480.408 67.8369 479.977 68.3354 479.633 68.84V83H476.531ZM514.483 61.4923L515.443 64.4092C514.618 64.6677 513.738 64.8277 512.803 64.8892C511.867 64.9508 510.852 64.9815 509.756 64.9815C510.876 65.4985 511.72 66.1692 512.286 66.9938C512.852 67.8062 513.135 68.7662 513.135 69.8738C513.135 71.1538 512.846 72.2923 512.267 73.2892C511.689 74.2862 510.852 75.0677 509.756 75.6338C508.673 76.2 507.363 76.4831 505.824 76.4831C505.172 76.4831 504.624 76.4523 504.181 76.3908C503.75 76.3292 503.332 76.2369 502.926 76.1138C502.63 76.3108 502.384 76.5815 502.187 76.9262C502.003 77.2708 501.91 77.6277 501.91 77.9969C501.91 78.4646 502.095 78.8523 502.464 79.16C502.833 79.4677 503.516 79.6215 504.513 79.6215H508.021C509.326 79.6215 510.495 79.8554 511.529 80.3231C512.575 80.7908 513.393 81.4185 513.984 82.2062C514.587 82.9938 514.889 83.8923 514.889 84.9015C514.889 86.8092 514.076 88.2738 512.452 89.2954C510.84 90.3169 508.556 90.8277 505.603 90.8277C503.535 90.8277 501.904 90.6123 500.71 90.1815C499.516 89.7631 498.661 89.1169 498.144 88.2431C497.64 87.3815 497.387 86.2923 497.387 84.9754H500.193C500.193 85.7262 500.341 86.3477 500.636 86.84C500.932 87.3323 501.467 87.6954 502.243 87.9292C503.018 88.1754 504.132 88.2985 505.584 88.2985C507.012 88.2985 508.175 88.1754 509.073 87.9292C509.984 87.6954 510.655 87.3385 511.086 86.8585C511.529 86.3908 511.75 85.8062 511.75 85.1046C511.75 84.1815 511.332 83.4862 510.495 83.0185C509.658 82.5508 508.612 82.3169 507.356 82.3169H503.886C502.212 82.3169 500.975 81.9477 500.175 81.2092C499.387 80.4708 498.993 79.6215 498.993 78.6615C498.993 78.0338 499.172 77.4246 499.529 76.8338C499.898 76.2431 500.433 75.72 501.135 75.2646C500.015 74.6738 499.19 73.9415 498.661 73.0677C498.132 72.1938 497.867 71.1354 497.867 69.8923C497.867 68.5754 498.193 67.4123 498.846 66.4031C499.498 65.3815 500.409 64.5815 501.578 64.0031C502.747 63.4246 504.095 63.1354 505.621 63.1354C507.258 63.1231 508.587 63.0554 509.609 62.9323C510.63 62.7969 511.504 62.6062 512.23 62.36C512.969 62.1138 513.72 61.8246 514.483 61.4923ZM505.621 65.4062C504.058 65.4062 502.901 65.8308 502.15 66.68C501.412 67.5169 501.043 68.5877 501.043 69.8923C501.043 71.2092 501.424 72.2923 502.187 73.1415C502.95 73.9908 504.12 74.4154 505.695 74.4154C507.073 74.4154 508.12 74.0154 508.833 73.2154C509.56 72.4154 509.923 71.3015 509.923 69.8738C509.923 68.4092 509.56 67.3015 508.833 66.5508C508.12 65.7877 507.049 65.4062 505.621 65.4062ZM410.086 138V118.56H412.726L412.966 121.255C413.753 120.258 414.738 119.495 415.92 118.966C417.113 118.425 418.27 118.154 419.39 118.154C421.298 118.154 422.683 118.658 423.544 119.668C424.418 120.677 424.855 122.08 424.855 123.877V138H421.753V126.166C421.753 124.837 421.68 123.766 421.532 122.954C421.384 122.129 421.077 121.532 420.609 121.163C420.141 120.782 419.415 120.591 418.43 120.591C417.667 120.591 416.947 120.757 416.27 121.089C415.606 121.422 415.009 121.84 414.48 122.345C413.963 122.837 413.532 123.335 413.187 123.84V138H410.086ZM435.336 118.56V132.332C435.336 133.612 435.6 134.535 436.13 135.102C436.659 135.668 437.483 135.951 438.603 135.951C439.674 135.951 440.683 135.649 441.631 135.046C442.591 134.431 443.336 133.705 443.865 132.868V118.56H446.967V138H444.327L444.068 135.378C443.305 136.363 442.363 137.12 441.243 137.649C440.123 138.166 438.991 138.425 437.847 138.425C435.963 138.425 434.554 137.926 433.619 136.929C432.696 135.92 432.234 134.511 432.234 132.702V118.56H435.336ZM467.195 118.154C467.823 118.154 468.42 118.289 468.986 118.56C469.564 118.831 470.038 119.354 470.407 120.129C470.776 120.905 470.961 122.037 470.961 123.526V138H468.081V124.025C468.081 122.806 468.007 121.926 467.86 121.385C467.712 120.843 467.287 120.572 466.586 120.572C466.007 120.572 465.429 120.757 464.85 121.126C464.284 121.483 463.73 122.074 463.189 122.898V138H460.29V124.025C460.29 122.806 460.216 121.926 460.069 121.385C459.921 120.843 459.496 120.572 458.795 120.572C458.192 120.572 457.607 120.757 457.041 121.126C456.487 121.483 455.94 122.074 455.398 122.898V138H452.536V118.56H454.973L455.158 120.812C455.687 120.062 456.278 119.434 456.93 118.929C457.595 118.412 458.413 118.154 459.386 118.154C460.124 118.154 460.82 118.332 461.472 118.689C462.124 119.034 462.604 119.711 462.912 120.72C463.441 119.957 464.038 119.342 464.703 118.874C465.367 118.394 466.198 118.154 467.195 118.154ZM479.633 121.089C480.346 120.154 481.165 119.434 482.088 118.929C483.023 118.412 484.051 118.154 485.171 118.154C486.906 118.154 488.31 118.572 489.38 119.409C490.451 120.246 491.233 121.428 491.725 122.954C492.217 124.468 492.463 126.24 492.463 128.271C492.463 130.228 492.168 131.975 491.577 133.514C490.986 135.04 490.119 136.24 488.974 137.114C487.842 137.988 486.439 138.425 484.765 138.425C482.513 138.425 480.746 137.612 479.466 135.988L479.245 138H476.531V110.732L479.633 110.345V121.089ZM484.026 135.914C485.651 135.914 486.9 135.286 487.774 134.031C488.648 132.775 489.085 130.849 489.085 128.252C489.085 126.554 488.913 125.145 488.568 124.025C488.223 122.892 487.706 122.049 487.017 121.495C486.34 120.929 485.503 120.646 484.506 120.646C483.423 120.646 482.47 120.972 481.645 121.625C480.833 122.265 480.162 122.978 479.633 123.766V133.403C480.137 134.166 480.771 134.775 481.534 135.231C482.31 135.686 483.14 135.914 484.026 135.914ZM501.116 129.378C501.178 130.88 501.467 132.111 501.984 133.071C502.501 134.018 503.184 134.72 504.033 135.175C504.883 135.618 505.806 135.84 506.803 135.84C507.8 135.84 508.698 135.692 509.498 135.397C510.31 135.102 511.141 134.665 511.99 134.086L513.449 136.135C512.538 136.849 511.498 137.409 510.329 137.815C509.172 138.222 507.984 138.425 506.766 138.425C504.883 138.425 503.276 138 501.947 137.151C500.618 136.302 499.603 135.12 498.901 133.606C498.212 132.08 497.867 130.314 497.867 128.308C497.867 126.338 498.218 124.591 498.92 123.065C499.621 121.538 500.606 120.338 501.873 119.465C503.141 118.591 504.636 118.154 506.36 118.154C507.996 118.154 509.406 118.542 510.587 119.317C511.769 120.08 512.673 121.175 513.301 122.603C513.941 124.018 514.261 125.711 514.261 127.68C514.261 128.012 514.255 128.326 514.243 128.622C514.23 128.905 514.212 129.157 514.187 129.378H501.116ZM506.396 120.702C504.956 120.702 503.75 121.212 502.778 122.234C501.818 123.255 501.27 124.837 501.135 126.978H511.27C511.233 124.898 510.778 123.335 509.904 122.289C509.03 121.231 507.861 120.702 506.396 120.702ZM521.013 138V135.618H524.04V120.942H521.013V118.56H526.403L526.976 123.157C527.726 121.557 528.637 120.32 529.708 119.446C530.779 118.572 532.194 118.135 533.954 118.135C534.496 118.135 534.976 118.178 535.394 118.265C535.825 118.338 536.262 118.437 536.705 118.56L535.8 121.329C535.394 121.218 535.025 121.138 534.693 121.089C534.36 121.028 533.979 120.997 533.548 120.997C532.059 120.997 530.779 121.526 529.708 122.585C528.637 123.643 527.782 125.243 527.142 127.385V135.618H531.093V138H521.013ZM533.714 125.132V120.905L534.028 118.56H536.705L536.262 125.132H533.714ZM653.719 138V118.56H656.359L656.599 121.255C657.386 120.258 658.371 119.495 659.552 118.966C660.746 118.425 661.903 118.154 663.023 118.154C664.931 118.154 666.316 118.658 667.177 119.668C668.051 120.677 668.488 122.08 668.488 123.877V138H665.386V126.166C665.386 124.837 665.312 123.766 665.165 122.954C665.017 122.129 664.709 121.532 664.242 121.163C663.774 120.782 663.048 120.591 662.063 120.591C661.3 120.591 660.58 120.757 659.903 121.089C659.239 121.422 658.642 121.84 658.112 122.345C657.596 122.837 657.165 123.335 656.82 123.84V138H653.719ZM678.969 118.56V132.332C678.969 133.612 679.233 134.535 679.762 135.102C680.292 135.668 681.116 135.951 682.236 135.951C683.307 135.951 684.316 135.649 685.264 135.046C686.224 134.431 686.969 133.705 687.498 132.868V118.56H690.599V138H687.959L687.701 135.378C686.938 136.363 685.996 137.12 684.876 137.649C683.756 138.166 682.624 138.425 681.479 138.425C679.596 138.425 678.187 137.926 677.252 136.929C676.329 135.92 675.867 134.511 675.867 132.702V118.56H678.969ZM710.828 118.154C711.455 118.154 712.052 118.289 712.619 118.56C713.197 118.831 713.671 119.354 714.04 120.129C714.409 120.905 714.594 122.037 714.594 123.526V138H711.714V124.025C711.714 122.806 711.64 121.926 711.492 121.385C711.345 120.843 710.92 120.572 710.219 120.572C709.64 120.572 709.062 120.757 708.483 121.126C707.917 121.483 707.363 122.074 706.822 122.898V138H703.923V124.025C703.923 122.806 703.849 121.926 703.702 121.385C703.554 120.843 703.129 120.572 702.428 120.572C701.825 120.572 701.24 120.757 700.674 121.126C700.12 121.483 699.572 122.074 699.031 122.898V138H696.169V118.56H698.606L698.791 120.812C699.32 120.062 699.911 119.434 700.563 118.929C701.228 118.412 702.046 118.154 703.019 118.154C703.757 118.154 704.452 118.332 705.105 118.689C705.757 119.034 706.237 119.711 706.545 120.72C707.074 119.957 707.671 119.342 708.335 118.874C709 118.394 709.831 118.154 710.828 118.154ZM723.265 121.089C723.979 120.154 724.798 119.434 725.721 118.929C726.656 118.412 727.684 118.154 728.804 118.154C730.539 118.154 731.942 118.572 733.013 119.409C734.084 120.246 734.865 121.428 735.358 122.954C735.85 124.468 736.096 126.24 736.096 128.271C736.096 130.228 735.801 131.975 735.21 133.514C734.619 135.04 733.752 136.24 732.607 137.114C731.475 137.988 730.072 138.425 728.398 138.425C726.145 138.425 724.379 137.612 723.099 135.988L722.878 138H720.164V110.732L723.265 110.345V121.089ZM727.659 135.914C729.284 135.914 730.533 135.286 731.407 134.031C732.281 132.775 732.718 130.849 732.718 128.252C732.718 126.554 732.545 125.145 732.201 124.025C731.856 122.892 731.339 122.049 730.65 121.495C729.973 120.929 729.136 120.646 728.139 120.646C727.056 120.646 726.102 120.972 725.278 121.625C724.465 122.265 723.795 122.978 723.265 123.766V133.403C723.77 134.166 724.404 134.775 725.167 135.231C725.942 135.686 726.773 135.914 727.659 135.914ZM744.749 129.378C744.811 130.88 745.1 132.111 745.617 133.071C746.134 134.018 746.817 134.72 747.666 135.175C748.515 135.618 749.438 135.84 750.435 135.84C751.432 135.84 752.331 135.692 753.131 135.397C753.943 135.102 754.774 134.665 755.623 134.086L757.082 136.135C756.171 136.849 755.131 137.409 753.962 137.815C752.805 138.222 751.617 138.425 750.398 138.425C748.515 138.425 746.909 138 745.58 137.151C744.251 136.302 743.235 135.12 742.534 133.606C741.845 132.08 741.5 130.314 741.5 128.308C741.5 126.338 741.851 124.591 742.552 123.065C743.254 121.538 744.238 120.338 745.506 119.465C746.774 118.591 748.269 118.154 749.992 118.154C751.629 118.154 753.038 118.542 754.22 119.317C755.402 120.08 756.306 121.175 756.934 122.603C757.574 124.018 757.894 125.711 757.894 127.68C757.894 128.012 757.888 128.326 757.875 128.622C757.863 128.905 757.845 129.157 757.82 129.378H744.749ZM750.029 120.702C748.589 120.702 747.383 121.212 746.411 122.234C745.451 123.255 744.903 124.837 744.768 126.978H754.903C754.866 124.898 754.411 123.335 753.537 122.289C752.663 121.231 751.494 120.702 750.029 120.702ZM764.645 138V135.618H767.673V120.942H764.645V118.56H770.036L770.608 123.157C771.359 121.557 772.27 120.32 773.341 119.446C774.412 118.572 775.827 118.135 777.587 118.135C778.128 118.135 778.608 118.178 779.027 118.265C779.458 118.338 779.895 118.437 780.338 118.56L779.433 121.329C779.027 121.218 778.658 121.138 778.325 121.089C777.993 121.028 777.612 120.997 777.181 120.997C775.692 120.997 774.412 121.526 773.341 122.585C772.27 123.643 771.415 125.243 770.775 127.385V135.618H774.725V138H764.645ZM777.347 125.132V120.905L777.661 118.56H780.338L779.895 125.132H777.347ZM853.055 138V118.56H855.695L855.935 121.255C856.722 120.258 857.707 119.495 858.888 118.966C860.082 118.425 861.239 118.154 862.359 118.154C864.267 118.154 865.651 118.658 866.513 119.668C867.387 120.677 867.824 122.08 867.824 123.877V138H864.722V126.166C864.722 124.837 864.648 123.766 864.501 122.954C864.353 122.129 864.045 121.532 863.578 121.163C863.11 120.782 862.384 120.591 861.399 120.591C860.636 120.591 859.916 120.757 859.239 121.089C858.575 121.422 857.978 121.84 857.448 122.345C856.931 122.837 856.501 123.335 856.156 123.84V138H853.055ZM878.304 118.56V132.332C878.304 133.612 878.569 134.535 879.098 135.102C879.628 135.668 880.452 135.951 881.572 135.951C882.643 135.951 883.652 135.649 884.6 135.046C885.56 134.431 886.304 133.705 886.834 132.868V118.56H889.935V138H887.295L887.037 135.378C886.274 136.363 885.332 137.12 884.212 137.649C883.092 138.166 881.96 138.425 880.815 138.425C878.932 138.425 877.523 137.926 876.588 136.929C875.664 135.92 875.203 134.511 875.203 132.702V118.56H878.304ZM910.164 118.154C910.791 118.154 911.388 118.289 911.954 118.56C912.533 118.831 913.007 119.354 913.376 120.129C913.745 120.905 913.93 122.037 913.93 123.526V138H911.05V124.025C911.05 122.806 910.976 121.926 910.828 121.385C910.681 120.843 910.256 120.572 909.554 120.572C908.976 120.572 908.398 120.757 907.819 121.126C907.253 121.483 906.699 122.074 906.158 122.898V138H903.259V124.025C903.259 122.806 903.185 121.926 903.038 121.385C902.89 120.843 902.465 120.572 901.764 120.572C901.161 120.572 900.576 120.757 900.01 121.126C899.456 121.483 898.908 122.074 898.367 122.898V138H895.505V118.56H897.942L898.127 120.812C898.656 120.062 899.247 119.434 899.899 118.929C900.564 118.412 901.382 118.154 902.354 118.154C903.093 118.154 903.788 118.332 904.441 118.689C905.093 119.034 905.573 119.711 905.881 120.72C906.41 119.957 907.007 119.342 907.671 118.874C908.336 118.394 909.167 118.154 910.164 118.154ZM922.601 121.089C923.315 120.154 924.134 119.434 925.057 118.929C925.992 118.412 927.02 118.154 928.14 118.154C929.875 118.154 931.278 118.572 932.349 119.409C933.42 120.246 934.201 121.428 934.694 122.954C935.186 124.468 935.432 126.24 935.432 128.271C935.432 130.228 935.137 131.975 934.546 133.514C933.955 135.04 933.088 136.24 931.943 137.114C930.811 137.988 929.408 138.425 927.734 138.425C925.481 138.425 923.715 137.612 922.435 135.988L922.214 138H919.5V110.732L922.601 110.345V121.089ZM926.995 135.914C928.62 135.914 929.869 135.286 930.743 134.031C931.617 132.775 932.054 130.849 932.054 128.252C932.054 126.554 931.881 125.145 931.537 124.025C931.192 122.892 930.675 122.049 929.986 121.495C929.309 120.929 928.472 120.646 927.475 120.646C926.392 120.646 925.438 120.972 924.614 121.625C923.801 122.265 923.131 122.978 922.601 123.766V133.403C923.106 134.166 923.74 134.775 924.503 135.231C925.278 135.686 926.109 135.914 926.995 135.914ZM944.085 129.378C944.147 130.88 944.436 132.111 944.953 133.071C945.47 134.018 946.153 134.72 947.002 135.175C947.851 135.618 948.774 135.84 949.771 135.84C950.768 135.84 951.667 135.692 952.467 135.397C953.279 135.102 954.11 134.665 954.959 134.086L956.417 136.135C955.507 136.849 954.467 137.409 953.297 137.815C952.141 138.222 950.953 138.425 949.734 138.425C947.851 138.425 946.245 138 944.916 137.151C943.587 136.302 942.571 135.12 941.87 133.606C941.181 132.08 940.836 130.314 940.836 128.308C940.836 126.338 941.187 124.591 941.888 123.065C942.59 121.538 943.574 120.338 944.842 119.465C946.11 118.591 947.605 118.154 949.328 118.154C950.965 118.154 952.374 118.542 953.556 119.317C954.737 120.08 955.642 121.175 956.27 122.603C956.91 124.018 957.23 125.711 957.23 127.68C957.23 128.012 957.224 128.326 957.211 128.622C957.199 128.905 957.181 129.157 957.156 129.378H944.085ZM949.365 120.702C947.925 120.702 946.719 121.212 945.747 122.234C944.787 123.255 944.239 124.837 944.104 126.978H954.239C954.202 124.898 953.747 123.335 952.873 122.289C951.999 121.231 950.83 120.702 949.365 120.702ZM963.981 138V135.618H967.009V120.942H963.981V118.56H969.372L969.944 123.157C970.695 121.557 971.606 120.32 972.677 119.446C973.747 118.572 975.163 118.135 976.923 118.135C977.464 118.135 977.944 118.178 978.363 118.265C978.794 118.338 979.231 118.437 979.674 118.56L978.769 121.329C978.363 121.218 977.994 121.138 977.661 121.089C977.329 121.028 976.947 120.997 976.517 120.997C975.027 120.997 973.747 121.526 972.677 122.585C971.606 123.643 970.751 125.243 970.111 127.385V135.618H974.061V138H963.981ZM976.683 125.132V120.905L976.997 118.56H979.674L979.231 125.132H976.683Z" fill="#FFCC80"/>
<path d="M393 94L393 227.5L475 227.5" stroke="#B3E5FC" stroke-width="3" stroke-linejoin="round"/>
<path d="M417.999 149L417.999 219.5L475 219.5" stroke="#B3E5FC" stroke-width="3" stroke-linejoin="round"/>
<path d="M661.5 149L661.5 219.5L601 219.5" stroke="#B3E5FC" stroke-width="3" stroke-linejoin="round"/>
<path d="M860.5 147L860.5 227.5L601 227.5" stroke="#B3E5FC" stroke-width="3" stroke-linejoin="round"/>
<path d="M498.348 229.208C497.916 229.208 497.544 229.064 497.232 228.776C496.944 228.488 496.8 228.116 496.8 227.66V220.532H493.488C493.272 222.548 492.768 224.204 491.976 225.5C491.208 226.772 490.092 227.948 488.628 229.028C488.244 229.316 487.812 229.46 487.332 229.46C486.876 229.436 486.492 229.232 486.18 228.848C485.892 228.512 485.772 228.14 485.82 227.732C485.868 227.324 486.072 227 486.432 226.76C487.656 225.944 488.58 225.08 489.204 224.168C489.852 223.232 490.272 222.02 490.464 220.532H486.756C486.348 220.532 486.012 220.4 485.748 220.136C485.484 219.848 485.352 219.512 485.352 219.128C485.352 218.72 485.484 218.384 485.748 218.12C486.012 217.832 486.348 217.688 486.756 217.688H490.608V213.224H487.728C487.32 213.224 486.984 213.092 486.72 212.828C486.456 212.54 486.324 212.204 486.324 211.82C486.324 211.436 486.456 211.112 486.72 210.848C486.984 210.56 487.32 210.416 487.728 210.416H502.488C502.92 210.416 503.256 210.56 503.496 210.848C503.76 211.112 503.892 211.436 503.892 211.82C503.892 212.204 503.76 212.54 503.496 212.828C503.256 213.092 502.92 213.224 502.488 213.224H499.932V217.688H503.244C503.676 217.688 504.012 217.832 504.252 218.12C504.516 218.384 504.648 218.72 504.648 219.128C504.648 219.512 504.516 219.848 504.252 220.136C504.012 220.4 503.676 220.532 503.244 220.532H499.932V227.66C499.932 228.116 499.776 228.488 499.464 228.776C499.152 229.064 498.78 229.208 498.348 229.208ZM487.152 240.692C486.768 240.692 486.432 240.548 486.144 240.26C485.856 239.972 485.712 239.636 485.712 239.252C485.712 238.844 485.856 238.508 486.144 238.244C486.432 237.956 486.768 237.812 487.152 237.812H500.364V233.96H491.832C491.448 233.96 491.112 233.828 490.824 233.564C490.536 233.276 490.392 232.94 490.392 232.556C490.392 232.148 490.536 231.812 490.824 231.548C491.112 231.26 491.448 231.116 491.832 231.116H500.364V228.452C500.364 227.948 500.532 227.552 500.868 227.264C501.204 226.952 501.6 226.796 502.056 226.796C502.512 226.796 502.896 226.952 503.208 227.264C503.544 227.552 503.712 227.948 503.712 228.452V231.116H512.1C512.508 231.116 512.844 231.26 513.108 231.548C513.396 231.812 513.54 232.148 513.54 232.556C513.54 232.94 513.396 233.276 513.108 233.564C512.844 233.828 512.508 233.96 512.1 233.96H503.712V237.812H516.816C517.2 237.812 517.524 237.956 517.788 238.244C518.076 238.508 518.22 238.844 518.22 239.252C518.22 239.636 518.076 239.972 517.788 240.26C517.524 240.548 517.2 240.692 516.816 240.692H487.152ZM510.768 229.208C510.312 229.208 509.928 229.052 509.616 228.74C509.304 228.428 509.136 228.044 509.112 227.588C509.088 227.132 509.196 226.736 509.436 226.4C509.7 226.064 510.072 225.884 510.552 225.86C511.296 225.812 511.86 225.728 512.244 225.608C512.652 225.488 512.928 225.26 513.072 224.924C513.216 224.564 513.288 224.048 513.288 223.376V210.416C513.288 209.936 513.432 209.552 513.72 209.264C514.032 208.976 514.404 208.832 514.836 208.832C515.268 208.832 515.64 208.976 515.952 209.264C516.264 209.552 516.42 209.936 516.42 210.416V223.916C516.42 225.212 516.24 226.256 515.88 227.048C515.544 227.816 514.968 228.368 514.152 228.704C513.336 229.04 512.208 229.208 510.768 229.208ZM507.384 224.78C506.976 224.78 506.616 224.636 506.304 224.348C505.992 224.06 505.836 223.688 505.836 223.232V212.216C505.836 211.736 505.992 211.364 506.304 211.1C506.616 210.812 506.976 210.668 507.384 210.668C507.816 210.668 508.176 210.812 508.464 211.1C508.776 211.364 508.932 211.736 508.932 212.216V223.232C508.932 223.688 508.776 224.06 508.464 224.348C508.176 224.636 507.816 224.78 507.384 224.78ZM493.632 217.688H496.8V213.224H493.632V217.688ZM533.844 240.476C533.436 240.476 533.076 240.32 532.764 240.008C532.452 239.72 532.296 239.36 532.296 238.928C532.296 238.496 532.452 238.136 532.764 237.848C533.076 237.536 533.436 237.38 533.844 237.38H542.736V229.532H536.292C535.86 229.532 535.488 229.388 535.176 229.1C534.864 228.788 534.708 228.416 534.708 227.984C534.708 227.528 534.864 227.156 535.176 226.868C535.488 226.556 535.86 226.4 536.292 226.4H542.736V219.596H534.744C534.336 219.596 533.988 219.452 533.7 219.164C533.412 218.876 533.268 218.528 533.268 218.12C533.268 217.688 533.412 217.328 533.7 217.04C533.988 216.752 534.336 216.608 534.744 216.608H554.004C554.412 216.608 554.76 216.752 555.048 217.04C555.36 217.328 555.516 217.688 555.516 218.12C555.516 218.528 555.36 218.876 555.048 219.164C554.76 219.452 554.412 219.596 554.004 219.596H546.156V226.4H552.492C552.924 226.4 553.284 226.556 553.572 226.868C553.884 227.156 554.04 227.528 554.04 227.984C554.04 228.416 553.884 228.788 553.572 229.1C553.284 229.388 552.924 229.532 552.492 229.532H546.156V237.38H554.976C555.408 237.38 555.768 237.536 556.056 237.848C556.368 238.136 556.524 238.496 556.524 238.928C556.524 239.36 556.368 239.72 556.056 240.008C555.768 240.32 555.408 240.476 554.976 240.476H533.844ZM524.988 240.548C524.58 240.284 524.328 239.924 524.232 239.468C524.16 239.012 524.268 238.592 524.556 238.208C525.06 237.464 525.624 236.564 526.248 235.508C526.896 234.452 527.532 233.348 528.156 232.196C528.804 231.02 529.38 229.928 529.884 228.92C530.1 228.512 530.412 228.248 530.82 228.128C531.252 227.984 531.672 228.032 532.08 228.272C532.488 228.512 532.764 228.812 532.908 229.172C533.052 229.532 533.016 229.94 532.8 230.396C532.344 231.356 531.792 232.448 531.144 233.672C530.52 234.872 529.884 236.036 529.236 237.164C528.588 238.292 528.012 239.24 527.508 240.008C527.244 240.392 526.86 240.644 526.356 240.764C525.876 240.908 525.42 240.836 524.988 240.548ZM546.552 216.032C546.216 216.344 545.808 216.5 545.328 216.5C544.872 216.5 544.476 216.332 544.14 215.996C543.876 215.684 543.492 215.276 542.988 214.772C542.508 214.268 541.992 213.752 541.44 213.224C540.888 212.672 540.372 212.192 539.892 211.784C539.58 211.496 539.412 211.136 539.388 210.704C539.364 210.272 539.508 209.888 539.82 209.552C540.132 209.216 540.504 209.024 540.936 208.976C541.392 208.928 541.8 209.06 542.16 209.372C542.52 209.684 542.988 210.104 543.564 210.632C544.14 211.16 544.704 211.712 545.256 212.288C545.832 212.84 546.288 213.308 546.624 213.692C546.936 214.052 547.08 214.448 547.056 214.88C547.056 215.312 546.888 215.696 546.552 216.032ZM530.928 216.068C530.592 215.804 530.148 215.492 529.596 215.132C529.044 214.772 528.492 214.412 527.94 214.052C527.388 213.668 526.92 213.368 526.536 213.152C526.152 212.936 525.9 212.624 525.78 212.216C525.684 211.808 525.732 211.412 525.924 211.028C526.14 210.62 526.464 210.356 526.896 210.236C527.328 210.116 527.748 210.152 528.156 210.344C528.588 210.56 529.08 210.848 529.632 211.208C530.208 211.544 530.772 211.904 531.324 212.288C531.9 212.648 532.38 212.972 532.764 213.26C533.148 213.548 533.388 213.92 533.484 214.376C533.58 214.808 533.496 215.228 533.232 215.636C532.992 216.02 532.632 216.26 532.152 216.356C531.696 216.428 531.288 216.332 530.928 216.068ZM528.768 224.096C528.432 223.832 527.988 223.52 527.436 223.16C526.908 222.8 526.368 222.44 525.816 222.08C525.264 221.696 524.784 221.396 524.376 221.18C523.992 220.964 523.74 220.652 523.62 220.244C523.524 219.836 523.572 219.44 523.764 219.056C523.98 218.648 524.304 218.384 524.736 218.264C525.168 218.144 525.588 218.192 525.996 218.408C526.428 218.624 526.92 218.9 527.472 219.236C528.048 219.572 528.612 219.932 529.164 220.316C529.74 220.676 530.22 221 530.604 221.288C530.988 221.576 531.228 221.948 531.324 222.404C531.42 222.86 531.336 223.292 531.072 223.7C530.832 224.084 530.484 224.312 530.028 224.384C529.572 224.456 529.152 224.36 528.768 224.096ZM573.552 241.268C573.216 241.004 573.024 240.656 572.976 240.224C572.928 239.816 573.036 239.456 573.3 239.144C574.572 237.704 575.568 236.204 576.288 234.644C577.032 233.06 577.56 231.272 577.872 229.28C578.184 227.264 578.34 224.9 578.34 222.188V215.996C578.34 214.004 578.784 212.588 579.672 211.748C580.584 210.908 582.12 210.488 584.28 210.488H587.196C589.356 210.488 590.88 210.908 591.768 211.748C592.68 212.588 593.136 214.016 593.136 216.032V217.904C593.136 219.92 592.68 221.348 591.768 222.188C590.88 223.028 589.356 223.448 587.196 223.448H587.016C587.376 226.592 588.192 229.424 589.464 231.944C590.736 234.464 592.44 236.684 594.576 238.604C594.936 238.916 595.116 239.288 595.116 239.72C595.14 240.176 594.984 240.572 594.648 240.908C594.312 241.244 593.904 241.4 593.424 241.376C592.944 241.352 592.536 241.184 592.2 240.872C590.016 238.808 588.216 236.324 586.8 233.42C585.384 230.516 584.472 227.192 584.064 223.448H581.4C581.328 227.144 580.884 230.432 580.068 233.312C579.276 236.192 577.884 238.736 575.892 240.944C575.58 241.256 575.196 241.448 574.74 241.52C574.308 241.616 573.912 241.532 573.552 241.268ZM569.736 242.132C569.328 242.132 568.98 242 568.692 241.736C568.404 241.472 568.26 241.112 568.26 240.656V228.308C567.564 229.556 566.784 230.816 565.92 232.088C565.08 233.336 564.312 234.38 563.616 235.22C563.328 235.556 562.956 235.76 562.5 235.832C562.044 235.88 561.648 235.772 561.312 235.508C561 235.244 560.82 234.896 560.772 234.464C560.748 234.032 560.88 233.66 561.168 233.348C561.648 232.844 562.176 232.208 562.752 231.44C563.352 230.672 563.952 229.856 564.552 228.992C565.152 228.128 565.704 227.276 566.208 226.436C566.736 225.572 567.18 224.804 567.54 224.132H563.22C562.812 224.132 562.476 224 562.212 223.736C561.972 223.472 561.852 223.148 561.852 222.764C561.852 222.38 561.972 222.056 562.212 221.792C562.476 221.528 562.812 221.396 563.22 221.396H568.26V213.296C567.444 213.392 566.64 213.488 565.848 213.584C565.08 213.656 564.348 213.716 563.652 213.764C562.62 213.836 562.044 213.404 561.924 212.468C561.876 212.06 561.984 211.724 562.248 211.46C562.512 211.172 562.884 211.016 563.364 210.992C564.468 210.944 565.728 210.848 567.144 210.704C568.584 210.56 570 210.38 571.392 210.164C572.784 209.948 573.96 209.708 574.92 209.444C575.352 209.324 575.736 209.36 576.072 209.552C576.432 209.72 576.66 210.008 576.756 210.416C576.852 210.8 576.804 211.148 576.612 211.46C576.42 211.772 576.12 211.988 575.712 212.108C575.088 212.252 574.392 212.396 573.624 212.54C572.88 212.66 572.088 212.78 571.248 212.9V221.396H575.82C576.228 221.396 576.564 221.528 576.828 221.792C577.092 222.056 577.224 222.38 577.224 222.764C577.224 223.148 577.092 223.472 576.828 223.736C576.564 224 576.228 224.132 575.82 224.132H571.248V224.96C571.704 225.488 572.244 226.088 572.868 226.76C573.492 227.432 574.116 228.068 574.74 228.668C575.388 229.268 575.928 229.748 576.36 230.108C576.696 230.396 576.864 230.756 576.864 231.188C576.888 231.596 576.756 231.956 576.468 232.268C576.156 232.58 575.796 232.736 575.388 232.736C574.98 232.736 574.62 232.58 574.308 232.268C573.9 231.86 573.42 231.344 572.868 230.72C572.316 230.096 571.776 229.46 571.248 228.812V240.656C571.248 241.112 571.104 241.472 570.816 241.736C570.528 242 570.168 242.132 569.736 242.132ZM581.4 220.64H586.908C588.108 220.64 588.924 220.436 589.356 220.028C589.812 219.62 590.04 218.888 590.04 217.832V216.068C590.04 215.012 589.812 214.292 589.356 213.908C588.924 213.5 588.108 213.296 586.908 213.296H584.568C583.392 213.296 582.564 213.5 582.084 213.908C581.628 214.292 581.4 215.012 581.4 216.068V220.64ZM573.084 220.532C572.748 220.412 572.496 220.184 572.328 219.848C572.16 219.512 572.16 219.164 572.328 218.804C572.472 218.468 572.64 218.048 572.832 217.544C573.024 217.04 573.204 216.536 573.372 216.032C573.564 215.528 573.708 215.108 573.804 214.772C573.924 214.364 574.152 214.088 574.488 213.944C574.824 213.8 575.184 213.788 575.568 213.908C575.904 214.004 576.168 214.208 576.36 214.52C576.552 214.808 576.588 215.156 576.468 215.564C576.3 216.092 576.06 216.788 575.748 217.652C575.436 218.516 575.16 219.224 574.92 219.776C574.752 220.16 574.488 220.424 574.128 220.568C573.792 220.688 573.444 220.676 573.084 220.532ZM566.172 220.604C565.812 220.748 565.452 220.76 565.092 220.64C564.756 220.52 564.528 220.268 564.408 219.884C564.24 219.404 564 218.804 563.688 218.084C563.4 217.364 563.16 216.788 562.968 216.356C562.8 216.02 562.788 215.696 562.932 215.384C563.076 215.048 563.316 214.82 563.652 214.7C564.012 214.556 564.36 214.544 564.696 214.664C565.032 214.784 565.284 215.012 565.452 215.348C565.596 215.636 565.752 215.996 565.92 216.428C566.112 216.86 566.292 217.292 566.46 217.724C566.652 218.156 566.796 218.516 566.892 218.804C567.036 219.188 567.036 219.548 566.892 219.884C566.748 220.22 566.508 220.46 566.172 220.604Z" fill="white"/>
</svg>
