<svg width="200" height="200" viewBox="0 0 200 200" fill="none" xmlns="http://www.w3.org/2000/svg">
<g clip-path="url(#clip0_2_3)">
<path d="M180 0H20C8.9543 0 0 8.9543 0 20V180C0 191.046 8.9543 200 20 200H180C191.046 200 200 191.046 200 180V20C200 8.9543 191.046 0 180 0Z" fill="#3178C6"/>
<path fill-rule="evenodd" clip-rule="evenodd" d="M119.11 93.56V114.89C123.026 116.803 127.195 118.15 131.49 118.89C136.415 119.79 141.413 120.232 146.42 120.21C151.291 120.235 156.151 119.749 160.92 118.76C165.164 117.912 169.226 116.325 172.92 114.07C176.44 111.924 179.256 108.796 181.02 105.07C183.007 100.794 184.031 96.1347 184.02 91.42C184.078 87.9276 183.484 84.455 182.27 81.18C181.185 78.2558 179.432 75.6258 177.15 73.5C174.896 71.1365 172.309 69.1152 169.47 67.5C166.164 65.5864 162.744 63.8766 159.23 62.38C156.42 61.23 154.12 60.12 151.56 59.01C149.606 58.1085 147.744 57.0201 146 55.76C144.6 54.7761 143.373 53.5662 142.37 52.18C141.522 50.9185 141.076 49.4299 141.09 47.91C141.069 46.4909 141.473 45.0979 142.25 43.91C143.082 42.6855 144.174 41.6609 145.45 40.91C147.032 39.9665 148.758 39.2907 150.56 38.91C152.803 38.4214 155.095 38.1932 157.39 38.23C159.247 38.2321 161.102 38.3657 162.94 38.63C167.048 39.2229 171.059 40.3561 174.87 42C176.68 42.7945 178.4 43.7801 180 44.94V24.94C176.55 23.6461 172.974 22.7177 169.33 22.17C164.953 21.5265 160.533 21.2255 156.11 21.27C151.231 21.261 146.367 21.8044 141.61 22.89C137.331 23.8052 133.269 25.5405 129.65 28C126.243 30.2789 123.459 33.3725 121.55 37C119.44 40.9279 118.405 45.3436 118.55 49.8C118.55 56.2 120.38 61.74 124.1 66.01C127.76 70.7 133.48 74.12 140.73 77.53C143.68 78.72 146.28 79.92 148.84 81.07C151.087 82.0477 153.231 83.247 155.24 84.65C156.905 85.7202 158.351 87.0982 159.5 88.71C160.586 90.1897 161.155 91.9851 161.12 93.82C161.119 95.1643 160.775 96.4861 160.12 97.66C159.404 98.9295 158.37 99.991 157.12 100.74C155.532 101.677 153.803 102.352 152 102.74C149.62 103.267 147.187 103.513 144.75 103.47C140.088 103.475 135.464 102.639 131.1 101C126.427 99.3803 122.089 96.9199 118.3 93.74L119.11 93.56ZM83.28 41.08H110.58V23.59H34.22V41.08H61.52V119.15H83.28V41.08Z" fill="white"/>
<path d="M49.3409 142.727V166H46.1136L34.2841 148.932H34.0682V166H30.5568V142.727H33.8068L45.6477 159.818H45.8636V142.727H49.3409ZM57.5881 155.636V166H54.1903V142.727H57.5426V151.386H57.7585C58.1676 150.447 58.7926 149.701 59.6335 149.148C60.4744 148.595 61.5729 148.318 62.929 148.318C64.1259 148.318 65.1714 148.564 66.0653 149.057C66.9669 149.549 67.6638 150.284 68.1562 151.261C68.6562 152.231 68.9062 153.443 68.9062 154.898V166H65.5085V155.307C65.5085 154.027 65.179 153.034 64.5199 152.33C63.8608 151.617 62.9441 151.261 61.7699 151.261C60.9669 151.261 60.2472 151.432 59.6108 151.773C58.982 152.114 58.4858 152.614 58.1222 153.273C57.7661 153.924 57.5881 154.712 57.5881 155.636ZM78.5199 166.386C77.4138 166.386 76.4138 166.182 75.5199 165.773C74.6259 165.356 73.9176 164.754 73.3949 163.966C72.8797 163.178 72.6222 162.212 72.6222 161.068C72.6222 160.083 72.8116 159.273 73.1903 158.636C73.5691 158 74.0805 157.496 74.7244 157.125C75.3684 156.754 76.0881 156.473 76.8835 156.284C77.679 156.095 78.4896 155.951 79.3153 155.852C80.3608 155.731 81.2093 155.633 81.8608 155.557C82.5123 155.473 82.9858 155.341 83.2812 155.159C83.5767 154.977 83.7244 154.682 83.7244 154.273V154.193C83.7244 153.201 83.4441 152.432 82.8835 151.886C82.3305 151.341 81.5047 151.068 80.4062 151.068C79.2623 151.068 78.3608 151.322 77.7017 151.83C77.0502 152.33 76.5994 152.886 76.3494 153.5L73.1562 152.773C73.535 151.712 74.0881 150.856 74.8153 150.205C75.5502 149.545 76.3949 149.068 77.3494 148.773C78.304 148.47 79.3078 148.318 80.3608 148.318C81.0578 148.318 81.7964 148.402 82.5767 148.568C83.3646 148.727 84.0994 149.023 84.7812 149.455C85.4706 149.886 86.035 150.504 86.4744 151.307C86.9138 152.102 87.1335 153.136 87.1335 154.409V166H83.8153V163.614H83.679C83.4593 164.053 83.1297 164.485 82.6903 164.909C82.2509 165.333 81.6866 165.686 80.9972 165.966C80.3078 166.246 79.482 166.386 78.5199 166.386ZM79.2585 163.659C80.1979 163.659 81.0009 163.473 81.6676 163.102C82.3419 162.731 82.8532 162.246 83.2017 161.648C83.5578 161.042 83.7358 160.394 83.7358 159.705V157.455C83.6146 157.576 83.3797 157.689 83.0312 157.795C82.6903 157.894 82.3002 157.981 81.8608 158.057C81.4214 158.125 80.9934 158.189 80.5767 158.25C80.16 158.303 79.8116 158.348 79.5312 158.386C78.8722 158.47 78.2699 158.61 77.7244 158.807C77.1866 159.004 76.7547 159.288 76.429 159.659C76.1108 160.023 75.9517 160.508 75.9517 161.114C75.9517 161.955 76.2623 162.591 76.8835 163.023C77.5047 163.447 78.2964 163.659 79.2585 163.659ZM82.8722 146.455L80.5426 143.409L78.2017 146.455H75.1335V146.284L79.1222 141.466H81.9517L85.9517 146.284V146.455H82.8722ZM80.3835 172.023C79.8002 172.023 79.2964 171.826 78.8722 171.432C78.4479 171.038 78.2358 170.561 78.2358 170C78.2358 169.439 78.4479 168.962 78.8722 168.568C79.2964 168.174 79.8002 167.977 80.3835 167.977C80.9744 167.977 81.4782 168.174 81.8949 168.568C82.3191 168.962 82.5312 169.439 82.5312 170C82.5312 170.561 82.3191 171.038 81.8949 171.432C81.4782 171.826 80.9744 172.023 80.3835 172.023ZM91.6591 172.545V148.545H94.9773V151.375H95.2614C95.4583 151.011 95.7424 150.591 96.1136 150.114C96.4848 149.636 97 149.22 97.6591 148.864C98.3182 148.5 99.1894 148.318 100.273 148.318C101.682 148.318 102.939 148.674 104.045 149.386C105.152 150.098 106.019 151.125 106.648 152.466C107.284 153.807 107.602 155.42 107.602 157.307C107.602 159.193 107.288 160.811 106.659 162.159C106.03 163.5 105.167 164.534 104.068 165.261C102.97 165.981 101.716 166.341 100.307 166.341C99.2462 166.341 98.3788 166.163 97.7045 165.807C97.0379 165.451 96.5152 165.034 96.1364 164.557C95.7576 164.08 95.4659 163.655 95.2614 163.284H95.0568V172.545H91.6591ZM94.9886 157.273C94.9886 158.5 95.1667 159.576 95.5227 160.5C95.8788 161.424 96.3939 162.148 97.0682 162.67C97.7424 163.186 98.5682 163.443 99.5455 163.443C100.561 163.443 101.409 163.174 102.091 162.636C102.773 162.091 103.288 161.352 103.636 160.42C103.992 159.489 104.17 158.439 104.17 157.273C104.17 156.121 103.996 155.087 103.648 154.17C103.307 153.254 102.792 152.53 102.102 152C101.42 151.47 100.568 151.205 99.5455 151.205C98.5606 151.205 97.7273 151.458 97.0455 151.966C96.3712 152.473 95.8598 153.182 95.5114 154.091C95.1629 155 94.9886 156.061 94.9886 157.273ZM119.878 166V148.545H123.139V151.386H123.355C123.719 150.424 124.313 149.674 125.139 149.136C125.965 148.591 126.954 148.318 128.105 148.318C129.272 148.318 130.249 148.591 131.037 149.136C131.832 149.682 132.42 150.432 132.798 151.386H132.98C133.397 150.455 134.06 149.712 134.969 149.159C135.878 148.598 136.961 148.318 138.219 148.318C139.802 148.318 141.094 148.814 142.094 149.807C143.101 150.799 143.605 152.295 143.605 154.295V166H140.207V154.614C140.207 153.432 139.885 152.576 139.241 152.045C138.598 151.515 137.829 151.25 136.935 151.25C135.829 151.25 134.969 151.591 134.355 152.273C133.741 152.947 133.435 153.814 133.435 154.875V166H130.048V154.398C130.048 153.451 129.753 152.689 129.162 152.114C128.571 151.538 127.802 151.25 126.855 151.25C126.211 151.25 125.616 151.42 125.071 151.761C124.533 152.095 124.098 152.561 123.764 153.159C123.438 153.758 123.276 154.451 123.276 155.239V166H119.878ZM155.511 166.352C153.875 166.352 152.447 165.977 151.227 165.227C150.008 164.477 149.061 163.428 148.386 162.08C147.712 160.731 147.375 159.155 147.375 157.352C147.375 155.542 147.712 153.958 148.386 152.602C149.061 151.246 150.008 150.193 151.227 149.443C152.447 148.693 153.875 148.318 155.511 148.318C157.148 148.318 158.576 148.693 159.795 149.443C161.015 150.193 161.962 151.246 162.636 152.602C163.311 153.958 163.648 155.542 163.648 157.352C163.648 159.155 163.311 160.731 162.636 162.08C161.962 163.428 161.015 164.477 159.795 165.227C158.576 165.977 157.148 166.352 155.511 166.352ZM155.523 163.5C156.583 163.5 157.462 163.22 158.159 162.659C158.856 162.098 159.371 161.352 159.705 160.42C160.045 159.489 160.216 158.462 160.216 157.341C160.216 156.227 160.045 155.205 159.705 154.273C159.371 153.333 158.856 152.58 158.159 152.011C157.462 151.443 156.583 151.159 155.523 151.159C154.455 151.159 153.568 151.443 152.864 152.011C152.167 152.58 151.648 153.333 151.307 154.273C150.973 155.205 150.807 156.227 150.807 157.341C150.807 158.462 150.973 159.489 151.307 160.42C151.648 161.352 152.167 162.098 152.864 162.659C153.568 163.22 154.455 163.5 155.523 163.5ZM157.841 146.455L155.511 143.409L153.17 146.455H150.102V146.284L154.091 141.466H156.92L160.92 146.284V146.455H157.841ZM170.838 155.636V166H167.44V148.545H170.702V151.386H170.918C171.319 150.462 171.948 149.72 172.804 149.159C173.668 148.598 174.755 148.318 176.065 148.318C177.255 148.318 178.296 148.568 179.19 149.068C180.084 149.561 180.777 150.295 181.27 151.273C181.762 152.25 182.009 153.458 182.009 154.898V166H178.611V155.307C178.611 154.042 178.281 153.053 177.622 152.341C176.963 151.621 176.058 151.261 174.906 151.261C174.118 151.261 173.418 151.432 172.804 151.773C172.198 152.114 171.717 152.614 171.361 153.273C171.012 153.924 170.838 154.712 170.838 155.636Z" fill="white"/>
</g>
<defs>
<clipPath id="clip0_2_3">
<rect width="200" height="200" fill="white"/>
</clipPath>
</defs>
</svg>
