<svg xmlns="http://www.w3.org/2000/svg" viewBox="0 0 200 200"><rect width="200" height="200" rx="20" fill="#3178c6"/><path d="M119.11,93.56v21.33a46,46,0,0,0,12.38,4,81.15,81.15,0,0,0,14.93,1.32,69.71,69.71,0,0,0,14.5-1.45,36.9,36.9,0,0,0,12-4.69,21.13,21.13,0,0,0,8.1-9,32.21,32.21,0,0,0,3-13.65,28.12,28.12,0,0,0-1.75-10.24,20,20,0,0,0-5.12-7.68,33.52,33.52,0,0,0-7.68-6,93.81,93.81,0,0,0-10.24-5.12c-2.81-1.15-5.11-2.26-7.67-3.37A33.37,33.37,0,0,1,146,55.76a15.44,15.44,0,0,1-3.63-3.58,7.53,7.53,0,0,1-1.28-4.27,7.12,7.12,0,0,1,1.16-4,10,10,0,0,1,3.2-3,16.72,16.72,0,0,1,5.11-2,29.84,29.84,0,0,1,6.83-.68,39.31,39.31,0,0,1,5.55.4A47.11,47.11,0,0,1,174.87,42,27.75,27.75,0,0,1,180,44.94v-20a52.69,52.69,0,0,0-10.67-2.77,85,85,0,0,0-13.22-.9,64.63,64.63,0,0,0-14.5,1.62A33.89,33.89,0,0,0,129.65,28a24.62,24.62,0,0,0-8.1,9,25.31,25.31,0,0,0-3,12.8c0,6.4,1.83,11.94,5.55,16.21,3.66,4.69,9.38,8.11,16.63,11.52,2.95,1.19,5.55,2.39,8.11,3.54a36.88,36.88,0,0,1,6.4,3.58,15.57,15.57,0,0,1,4.26,4.06,8.37,8.37,0,0,1,1.62,5.11,7.89,7.89,0,0,1-1,3.84,8.4,8.4,0,0,1-3,3.08,17.18,17.18,0,0,1-5.12,2,31,31,0,0,1-7.25.73A38.71,38.71,0,0,1,131.1,101a40.58,40.58,0,0,1-12.8-7.26ZM83.28,41.08h27.3V23.59H34.22V41.08h27.3v78.07H83.28Z" fill="#fff" fill-rule="evenodd"/><path d="M96.27,141.71c-1.7,0-3.46.1-5.6.3v-7.76a33.35,33.35,0,0,0,5.51.3h9a36.93,36.93,0,0,0,4.34-.2c-.05,1.37-.1,2.2-.1,3.12a39.34,39.34,0,0,0,6.24,21.36,37.58,37.58,0,0,0,13.5,12.33,24.12,24.12,0,0,0-5.36,7.7,43.48,43.48,0,0,1-9.95-8.92A37.08,37.08,0,0,1,106,155.46a39,39,0,0,1-7.12,13.65,43,43,0,0,1-11.41,9.8,23.36,23.36,0,0,0-5.22-7,34.87,34.87,0,0,0,8.29-5.9,34.38,34.38,0,0,0,9-14.77,43.4,43.4,0,0,0,1.61-9.51Z" fill="#fff"/><path d="M140.49,172.09a51.32,51.32,0,0,0,.29,6.53h-7.95a56.12,56.12,0,0,0,.29-6.58V139.81a53.9,53.9,0,0,0-.19-5.6,44.62,44.62,0,0,0,4.92.19H148a41.42,41.42,0,0,0,5-.19c-.1,1.46-.15,2.53-.15,4.43V150.1a41.11,41.11,0,0,0,.1,4.24c-1.47-.05-2.64-.1-4-.1h-8.48Zm0-29.89h5.65v-1.95h-5.65Zm0,6.48h5.65v-2h-5.65Zm34.9,22.82c0,5.71-1.61,6.83-9.75,6.83-1,0-2.39,0-4-.05a22.77,22.77,0,0,0-1.76-7.36,63.34,63.34,0,0,0,6.63.34c1.27,0,1.56-.2,1.56-1.08V154.29h-8.87c-1.46,0-2.93.05-4,.1.05-.88.1-2,.1-4.29V138.64c0-1.7,0-3.07-.15-4.43a43.44,43.44,0,0,0,5,.19h10.58a44.83,44.83,0,0,0,4.93-.19,52.88,52.88,0,0,0-.2,5.5Zm-13.26-29.3H168v-1.95h-5.9Zm0,6.53H168v-2h-5.9Z" fill="#fff"/></svg>