<svg width="440" height="58" viewBox="0 0 440 58" fill="none" xmlns="http://www.w3.org/2000/svg">
<g clip-path="url(#clip0_655_46)">
<g clip-path="url(#clip1_655_46)">
<path d="M43.0392 5.11484H4.88498C2.2505 5.11484 0.114838 7.2505 0.114838 9.88498V48.0392C0.114838 50.6737 2.2505 52.8094 4.88498 52.8094H43.0392C45.6737 52.8094 47.8094 50.6737 47.8094 48.0392V9.88498C47.8094 7.2505 45.6737 5.11484 43.0392 5.11484Z" fill="#2A66A8" stroke="white" stroke-width="0.229665" stroke-miterlimit="10"/>
<path d="M33.6184 46.1491C33.6092 46.6691 33.6322 47.189 33.6873 47.7062H31.7925C31.8454 47.1851 31.8683 46.6613 31.8614 46.1376V38.4553C31.8693 38.01 31.8539 37.5647 31.8155 37.121C32.2057 37.157 32.5975 37.1722 32.9891 37.1669H35.4098C35.8078 37.1745 36.2056 37.1591 36.6017 37.121C36.5788 37.4678 36.565 37.725 36.565 38.1774V40.9104C36.5563 41.2474 36.5648 41.5847 36.5902 41.921C36.2389 41.921 35.961 41.898 35.6348 41.898H33.6138L33.6184 46.1491ZM33.6184 39.0295H34.9665V38.5702H33.6184V39.0295ZM33.6184 40.5751H34.9665V40.0997H33.6184V40.5751ZM41.9414 46.0182C41.9414 47.3801 41.5579 47.6465 39.6149 47.6465C39.3853 47.6465 39.0454 47.6465 38.6618 47.635C38.6205 47.0308 38.4786 46.4378 38.2415 45.8804C38.7675 45.9334 39.2955 45.9603 39.8239 45.9608C40.1271 45.9608 40.196 45.9125 40.196 45.7036V41.9141H38.0808C37.7317 41.9141 37.3918 41.9141 37.1254 41.937C37.1391 41.7281 37.1506 41.4593 37.1506 40.915V38.182C37.1582 37.8295 37.146 37.4767 37.1139 37.1256C37.5101 37.1625 37.9081 37.1779 38.3058 37.1715H40.8322C41.2247 37.1768 41.6172 37.1616 42.008 37.1256C41.969 37.5615 41.9529 37.9992 41.9598 38.437L41.9414 46.0182ZM38.779 39.0295H40.1776V38.5702H38.7721L38.779 39.0295ZM38.779 40.5866H40.1776V40.1112H38.7721L38.779 40.5866Z" fill="white" stroke="#3178C6" stroke-width="0.172249" stroke-miterlimit="10"/>
<path d="M23.0744 38.91C22.668 38.91 22.2477 38.933 21.7378 38.9812V37.1301C22.173 37.1905 22.6124 37.2144 23.0515 37.2013H25.1988C25.544 37.2059 25.8892 37.1898 26.2323 37.1531C26.2209 37.4815 26.2094 37.679 26.2094 37.8972C26.2043 39.7031 26.7211 41.4719 27.6976 42.9912C28.5104 44.2213 29.6151 45.2313 30.9129 45.9309C30.3707 46.4538 29.9361 47.0781 29.6337 47.7682C28.738 47.1858 27.9378 46.4685 27.2612 45.6415C26.3871 44.648 25.7475 43.4705 25.3895 42.1965C25.0452 43.3839 24.4683 44.4909 23.6922 45.4532C22.9284 46.3847 22.0073 47.1752 20.9708 47.7889C20.6641 47.1591 20.2418 46.5928 19.726 46.1192C20.4499 45.7492 21.116 45.2757 21.7034 44.7137C22.7065 43.741 23.4449 42.5284 23.8484 41.1906C24.0597 40.4515 24.1883 39.6914 24.232 38.9238L23.0744 38.91Z" fill="white" stroke="#3178C6" stroke-width="0.172249" stroke-miterlimit="10"/>
<path fill-rule="evenodd" clip-rule="evenodd" d="M28.5198 27.4268V32.5139C29.4545 32.9688 30.449 33.2897 31.4733 33.467C32.6478 33.6808 33.8393 33.7862 35.0331 33.7816C36.1941 33.7876 37.3525 33.6721 38.4896 33.4371C39.5056 33.2364 40.4785 32.8579 41.3627 32.3187C42.2026 31.807 42.8741 31.0603 43.2942 30.1713C43.7689 29.1523 44.0135 28.0412 44.0107 26.9169C44.0243 26.0842 43.8826 25.2564 43.5927 24.4756C43.336 23.776 42.9182 23.1466 42.3732 22.6383C41.8335 22.0747 41.2145 21.5927 40.5359 21.2074C39.7477 20.751 38.9324 20.3429 38.0945 19.9857C37.4239 19.7124 36.875 19.4482 36.2572 19.1841C35.7919 18.9681 35.348 18.7082 34.9321 18.4079C34.5979 18.1731 34.3053 17.8844 34.0662 17.5535C33.8643 17.2528 33.758 16.8982 33.7608 16.5361C33.7559 16.1977 33.8529 15.8657 34.0387 15.583C34.2369 15.2908 34.4973 15.0461 34.8011 14.8664C35.1787 14.6415 35.5907 14.4801 36.0207 14.3887C36.5556 14.2732 37.1019 14.2192 37.649 14.2279C38.0916 14.2283 38.5337 14.2597 38.9719 14.3221C39.9514 14.4647 40.9079 14.735 41.8174 15.1259C42.249 15.3173 42.6584 15.5544 43.0392 15.8333V11.0631C42.217 10.7549 41.365 10.5332 40.4968 10.4017C39.453 10.248 38.3986 10.1766 37.3435 10.1881C36.1798 10.1854 35.0193 10.3148 33.8848 10.574C32.8625 10.7916 31.8922 11.2057 31.0278 11.7935C30.2163 12.3376 29.5526 13.0746 29.0963 13.9386C28.597 14.8731 28.3522 15.9226 28.3866 16.9816C28.3866 18.5089 28.823 19.8295 29.7095 20.8469C30.5822 21.9654 31.9464 22.7807 33.6758 23.6029C34.3786 23.8854 34.9987 24.1724 35.6096 24.4457C36.1456 24.6796 36.6571 24.9658 37.1368 25.3001C37.5332 25.5554 37.8777 25.8835 38.152 26.267C38.4113 26.6199 38.547 27.0486 38.5378 27.4865C38.5408 27.8073 38.4618 28.1236 38.3081 28.4052C38.1382 28.7081 37.892 28.9617 37.5939 29.1401C37.2147 29.3629 36.8022 29.5234 36.3721 29.6155C35.8043 29.7411 35.224 29.7997 34.6427 29.7901C33.5313 29.7921 32.4287 29.5928 31.3883 29.2021C30.2742 28.8149 29.24 28.2281 28.3361 27.4704L28.5198 27.4268ZM19.9763 14.9146H26.485V10.7416H8.27713V14.9146H14.7858V33.5313H19.9763V14.9146Z" fill="white" stroke="#3178C6" stroke-width="0.172249" stroke-miterlimit="10"/>
</g>
<path d="M64.4 42.48C67.8933 42.4533 70.7867 42.24 73.08 41.84C75.4 41.44 77.2267 40.7867 78.56 39.88C79.8933 38.9733 80.84 37.76 81.4 36.24C81.96 34.6933 82.24 32.7733 82.24 30.48V14.24H88.88V30.48C88.88 33.6 88.44 36.28 87.56 38.52C86.7067 40.7333 85.3467 42.5467 83.48 43.96C81.64 45.3733 79.24 46.4267 76.28 47.12C73.3467 47.84 69.7867 48.24 65.6 48.32L64.4 42.48ZM63.48 35.16V14.24H70.12V35.16H63.48ZM57.28 26.64V20.84H94.72V26.64H57.28ZM120.2 23.44C119.533 22.0267 118.853 20.7467 118.16 19.6C117.467 18.4267 116.693 17.24 115.84 16.04L119.68 13.88C120.587 15.0267 121.387 16.2133 122.08 17.44C122.773 18.6667 123.453 20.0133 124.12 21.48L120.2 23.44ZM126.04 21.28C125.427 19.84 124.787 18.5333 124.12 17.36C123.453 16.16 122.707 14.9733 121.88 13.8L125.72 11.8C126.573 13 127.333 14.2133 128 15.44C128.667 16.6667 129.307 18.0267 129.92 19.52L126.04 21.28ZM126.04 47.56C125 43.4533 123.933 39.7333 122.84 36.4C121.747 33.0667 120.573 29.9333 119.32 27L125.68 24.76C126.987 27.72 128.213 30.9067 129.36 34.32C130.507 37.7067 131.667 41.5467 132.84 45.84L126.04 47.56ZM94.44 44.56C96.0667 41.8133 97.4933 38.9333 98.72 35.92C99.9467 32.9067 100.947 29.8267 101.72 26.68C102.493 23.5067 103.027 20.3333 103.32 17.16L110.12 17.52C109.853 21.0133 109.307 24.5067 108.48 28C107.68 31.4933 106.627 34.88 105.32 38.16C104.04 41.44 102.507 44.5467 100.72 47.48L94.44 44.56ZM133.88 29.32C136.493 28.92 139.227 28.24 142.08 27.28C144.933 26.2933 147.747 25.0933 150.52 23.68C153.32 22.2667 155.92 20.72 158.32 19.04C160.747 17.3333 162.84 15.5733 164.6 13.76L168.56 18.4C167.013 19.9733 165.227 21.5067 163.2 23C161.2 24.4933 159.027 25.9067 156.68 27.24C154.333 28.5733 151.92 29.7867 149.44 30.88C146.96 31.9467 144.48 32.8667 142 33.64C139.547 34.3867 137.16 34.9333 134.84 35.28L133.88 29.32ZM149.4 49.08V26.08H156.36V49.08H149.4ZM195.4 23.44C194.733 22.0267 194.053 20.7467 193.36 19.6C192.667 18.4267 191.893 17.24 191.04 16.04L194.88 13.88C195.787 15.0267 196.587 16.2133 197.28 17.44C197.973 18.6667 198.653 20.0133 199.32 21.48L195.4 23.44ZM201.24 21.28C200.627 19.84 199.987 18.5333 199.32 17.36C198.653 16.16 197.907 14.9733 197.08 13.8L200.92 11.8C201.773 13 202.533 14.2133 203.2 15.44C203.867 16.6667 204.507 18.0267 205.12 19.52L201.24 21.28ZM201.24 47.56C200.2 43.4533 199.133 39.7333 198.04 36.4C196.947 33.0667 195.773 29.9333 194.52 27L200.88 24.76C202.187 27.72 203.413 30.9067 204.56 34.32C205.707 37.7067 206.867 41.5467 208.04 45.84L201.24 47.56ZM169.64 44.56C171.267 41.8133 172.693 38.9333 173.92 35.92C175.147 32.9067 176.147 29.8267 176.92 26.68C177.693 23.5067 178.227 20.3333 178.52 17.16L185.32 17.52C185.053 21.0133 184.507 24.5067 183.68 28C182.88 31.4933 181.827 34.88 180.52 38.16C179.24 41.44 177.707 44.5467 175.92 47.48L169.64 44.56ZM225.56 47.64V14.92H232.2V44.76L228.32 41.36C230.667 41.36 232.64 40.9067 234.24 40C235.84 39.0667 237.093 37.6533 238 35.76C238.933 33.84 239.547 31.4 239.84 28.44L245.96 29.28C245.613 33.2267 244.693 36.5733 243.2 39.32C241.707 42.0667 239.707 44.1467 237.2 45.56C234.72 46.9467 231.76 47.64 228.32 47.64H225.56ZM207.64 42.36C208.92 41.4267 209.973 40.4933 210.8 39.56C211.627 38.6 212.267 37.52 212.72 36.32C213.173 35.0933 213.493 33.6267 213.68 31.92C213.867 30.1867 213.96 28.0933 213.96 25.64V14.92H220.44V26.12C220.44 29.1067 220.267 31.7333 219.92 34C219.6 36.2667 219.067 38.2667 218.32 40C217.6 41.7067 216.64 43.2267 215.44 44.56C214.267 45.8933 212.813 47.1067 211.08 48.2L207.64 42.36ZM253.88 46V22.68H245.04V16.8H269.72V22.68H260.88V46H253.88ZM265.91 50C267.67 49.7333 269.057 49.36 270.07 48.88C271.084 48.4 271.83 47.72 272.31 46.84C272.79 45.96 273.084 44.8 273.19 43.36L273.55 48.08L263.87 25.2H271.03L275.55 39.64H275.63L279.55 25.2H286.67L279.03 45.96C278.31 47.9067 277.444 49.4933 276.43 50.72C275.444 51.9733 274.217 52.9467 272.75 53.64C271.284 54.3333 269.457 54.8533 267.27 55.2L265.91 50ZM300.032 24.8C302.779 24.8 304.886 25.7333 306.352 27.6C307.846 29.4667 308.592 32.1333 308.592 35.6C308.592 39.0667 307.846 41.7333 306.352 43.6C304.886 45.4667 302.779 46.4 300.032 46.4C298.779 46.4 297.632 46.1733 296.592 45.72C295.579 45.24 294.619 44.52 293.712 43.56H293.632V54.4H286.992V25.2H293.312L293.392 27.64H293.472C294.379 26.6533 295.366 25.9333 296.432 25.48C297.526 25.0267 298.726 24.8 300.032 24.8ZM297.832 30C297.006 30 296.272 30.1733 295.632 30.52C295.019 30.84 294.526 31.2933 294.152 31.88C293.806 32.44 293.632 33.1067 293.632 33.88V37.32C293.632 38.0667 293.806 38.7333 294.152 39.32C294.526 39.9067 295.019 40.3733 295.632 40.72C296.272 41.04 297.006 41.2 297.832 41.2C299.192 41.2 300.232 40.72 300.952 39.76C301.672 38.7733 302.032 37.3867 302.032 35.6C302.032 33.7867 301.672 32.4 300.952 31.44C300.232 30.48 299.192 30 297.832 30ZM320.46 46.4C316.754 46.4 313.887 45.4667 311.86 43.6C309.86 41.7333 308.86 39.0667 308.86 35.6C308.86 32.24 309.794 29.6 311.66 27.68C313.554 25.76 316.14 24.8 319.42 24.8C322.62 24.8 325.1 25.72 326.86 27.56C328.647 29.3733 329.54 31.92 329.54 35.2C329.54 35.6533 329.527 36.1467 329.5 36.68C329.474 37.2133 329.434 37.5867 329.38 37.8H312.58V33.6H324.18L323.34 34.88C323.34 32.96 323.02 31.56 322.38 30.68C321.74 29.7733 320.754 29.32 319.42 29.32C318.087 29.32 317.074 29.7867 316.38 30.72C315.714 31.6267 315.38 33.0267 315.38 34.92V36.92C315.38 38.4667 315.794 39.6133 316.62 40.36C317.474 41.1067 318.78 41.48 320.54 41.48C321.74 41.48 322.98 41.3333 324.26 41.04C325.54 40.72 326.66 40.32 327.62 39.84L328.38 44.72C327.394 45.2267 326.207 45.64 324.82 45.96C323.434 46.2533 321.98 46.4 320.46 46.4ZM339.929 46.4C337.849 46.4 335.835 46.1867 333.889 45.76C331.969 45.3067 330.355 44.7067 329.049 43.96L330.569 38.08C331.475 38.56 332.502 39 333.649 39.4C334.795 39.8 335.955 40.12 337.129 40.36C338.302 40.5733 339.382 40.68 340.369 40.68C341.835 40.68 342.955 40.4267 343.729 39.92C344.529 39.4133 344.929 38.6933 344.929 37.76C344.929 37.28 344.809 36.8667 344.569 36.52C344.329 36.1467 343.942 35.8133 343.409 35.52C342.902 35.2267 342.209 34.9333 341.329 34.64C340.475 34.3467 339.435 34.0267 338.209 33.68C336.715 33.28 335.395 32.8133 334.249 32.28C333.129 31.72 332.182 31.08 331.409 30.36C330.635 29.64 330.049 28.8133 329.649 27.88C329.275 26.9467 329.089 25.9067 329.089 24.76C329.089 22.0667 330.115 20 332.169 18.56C334.249 17.12 337.209 16.4 341.049 16.4C342.942 16.4 344.809 16.5733 346.649 16.92C348.515 17.24 350.115 17.6933 351.449 18.28L349.969 24.16C348.609 23.52 347.142 23.0267 345.569 22.68C343.995 22.3067 342.462 22.12 340.969 22.12C339.369 22.12 338.169 22.3467 337.369 22.8C336.595 23.2267 336.209 23.88 336.209 24.76C336.209 25.24 336.315 25.6667 336.529 26.04C336.742 26.4133 337.089 26.76 337.569 27.08C338.075 27.3733 338.729 27.6667 339.529 27.96C340.329 28.2533 341.315 28.56 342.489 28.88C344.115 29.36 345.515 29.88 346.689 30.44C347.889 30.9733 348.875 31.5867 349.649 32.28C350.449 32.9733 351.049 33.7733 351.449 34.68C351.849 35.5867 352.049 36.6133 352.049 37.76C352.049 40.5333 350.995 42.6667 348.889 44.16C346.782 45.6533 343.795 46.4 339.929 46.4ZM364.065 46.4C361.559 46.4 359.412 45.9867 357.625 45.16C355.865 44.3067 354.519 43.08 353.585 41.48C352.652 39.8533 352.185 37.8933 352.185 35.6C352.185 33.3067 352.652 31.36 353.585 29.76C354.519 28.1333 355.865 26.9067 357.625 26.08C359.412 25.2267 361.559 24.8 364.065 24.8C365.372 24.8 366.572 24.92 367.665 25.16C368.759 25.4 369.825 25.8 370.865 26.36L369.785 31.24C368.852 30.7333 367.959 30.36 367.105 30.12C366.279 29.8533 365.425 29.72 364.545 29.72C362.759 29.72 361.385 30.2267 360.425 31.24C359.465 32.2533 358.985 33.7067 358.985 35.6C358.985 37.4933 359.465 38.9467 360.425 39.96C361.385 40.9733 362.759 41.48 364.545 41.48C365.425 41.48 366.279 41.36 367.105 41.12C367.959 40.8533 368.852 40.4667 369.785 39.96L370.865 44.84C369.825 45.3733 368.759 45.76 367.665 46C366.572 46.2667 365.372 46.4 364.065 46.4ZM372.9 46V25.2H379.3L379.34 28.92H379.42C380.194 28.04 381.047 27.2933 381.98 26.68C382.914 26.04 383.914 25.5733 384.98 25.28C386.074 24.96 387.194 24.8 388.34 24.8V30.32C386.74 30.32 385.274 30.6133 383.94 31.2C382.634 31.7867 381.58 32.5733 380.78 33.56C380.007 34.52 379.62 35.6 379.62 36.8V46H372.9ZM389.423 46V26H396.223V46H389.423ZM392.823 23.4C391.597 23.4 390.637 23.08 389.943 22.44C389.277 21.7733 388.943 20.88 388.943 19.76C388.943 18.64 389.277 17.76 389.943 17.12C390.637 16.4533 391.597 16.12 392.823 16.12C394.05 16.12 394.997 16.4533 395.663 17.12C396.357 17.76 396.703 18.64 396.703 19.76C396.703 20.88 396.357 21.7733 395.663 22.44C394.997 23.08 394.05 23.4 392.823 23.4ZM412.547 24.8C415.293 24.8 417.4 25.7333 418.867 27.6C420.36 29.4667 421.107 32.1333 421.107 35.6C421.107 39.0667 420.36 41.7333 418.867 43.6C417.4 45.4667 415.293 46.4 412.547 46.4C411.293 46.4 410.147 46.1733 409.107 45.72C408.093 45.24 407.133 44.52 406.227 43.56H406.147V54.4H399.507V25.2H405.827L405.907 27.64H405.987C406.893 26.6533 407.88 25.9333 408.947 25.48C410.04 25.0267 411.24 24.8 412.547 24.8ZM410.347 30C409.52 30 408.787 30.1733 408.147 30.52C407.533 30.84 407.04 31.2933 406.667 31.88C406.32 32.44 406.147 33.1067 406.147 33.88V37.32C406.147 38.0667 406.32 38.7333 406.667 39.32C407.04 39.9067 407.533 40.3733 408.147 40.72C408.787 41.04 409.52 41.2 410.347 41.2C411.707 41.2 412.747 40.72 413.467 39.76C414.187 38.7733 414.547 37.3867 414.547 35.6C414.547 33.7867 414.187 32.4 413.467 31.44C412.747 30.48 411.707 30 410.347 30ZM432.266 46.4C429.519 46.4 427.519 45.84 426.266 44.72C425.039 43.6 424.426 41.8 424.426 39.32V30.12H420.266V25.2H424.426V18.4H431.146V25.2H437.466V30.12H431.146V38.32C431.146 39.36 431.346 40.0933 431.746 40.52C432.146 40.92 432.826 41.12 433.786 41.12C434.266 41.12 434.759 41.08 435.266 41C435.799 40.8933 436.306 40.7467 436.786 40.56L437.386 45.6C436.452 45.8667 435.586 46.0667 434.786 46.2C434.012 46.3333 433.172 46.4 432.266 46.4Z" fill="#2A66A8"/>
</g>
<defs>
<clipPath id="clip0_655_46">
<rect width="440" height="58" fill="white"/>
</clipPath>
<clipPath id="clip1_655_46">
<rect width="48" height="48" fill="white" transform="translate(0 5)"/>
</clipPath>
</defs>
</svg>
