<svg xmlns="http://www.w3.org/2000/svg" viewBox="0 0 1310 332"><g id="レイヤー_2" data-name="レイヤー 2"><g id="レイヤー_1-2" data-name="レイヤー 1"><rect width="1310" height="332"/><path d="M68.38,196.11v2H56.93v-2h4.88V180.87l-4.55,2.76-1-1.72,5.9-3.66h2.12v17.86Z" fill="#757575"/><path d="M77,183.37a2.27,2.27,0,0,1,.67-1.64,2.24,2.24,0,0,1,1.65-.67,2.28,2.28,0,0,1,1.68.67,2.23,2.23,0,0,1,.67,1.64A2.28,2.28,0,0,1,81,185a2.25,2.25,0,0,1-1.68.69,2.22,2.22,0,0,1-1.65-.69A2.32,2.32,0,0,1,77,183.37Zm0,10.39a2.28,2.28,0,0,1,.67-1.63,2.22,2.22,0,0,1,1.65-.69,2.32,2.32,0,0,1,2.35,2.32,2.28,2.28,0,0,1-.67,1.66,2.25,2.25,0,0,1-1.68.69,2.22,2.22,0,0,1-1.65-.69A2.32,2.32,0,0,1,77,193.76Z" fill="#757575"/><path d="M102.94,196.11v2H91.49v-2h4.88V180.87l-4.55,2.76-1-1.72,5.9-3.66h2.12v17.86Z" fill="#757575"/><path d="M118,185.69v5.63h2.56v1.93H118v4.83h-2.33l0-4.83h-8.23V191.5l5.81-13.57,2,.85L110,191.32h5.69l.31-5.63Z" fill="#757575"/><path d="M162,191.35a5.29,5.29,0,0,0,1.39,3.84,4.31,4.31,0,0,0,3,1.2,6.11,6.11,0,0,0,2.11-.34,9.35,9.35,0,0,0,1.94-1l1.14,1.59a8,8,0,0,1-2.42,1.31,8.41,8.41,0,0,1-2.8.48,6.84,6.84,0,0,1-3.76-1,6.37,6.37,0,0,1-2.36-2.78,10.68,10.68,0,0,1,0-8.21,6.67,6.67,0,0,1,2.3-2.81,6,6,0,0,1,3.51-1,5.55,5.55,0,0,1,4.51,2A8.29,8.29,0,0,1,172.2,190c0,.26,0,.5,0,.73s0,.43,0,.59Zm4.12-6.77a3.74,3.74,0,0,0-2.83,1.2,5.78,5.78,0,0,0-1.28,3.7h7.91a5.8,5.8,0,0,0-1.07-3.66A3.37,3.37,0,0,0,166.07,184.58Z" fill="#ef5350"/><path d="M177.47,198.08v-1.86h2.36V184.77h-2.36v-1.86h4.21l.44,3.59a8.15,8.15,0,0,1,2.13-2.89,5.05,5.05,0,0,1,3.32-1,5.52,5.52,0,0,1,1.13.1c.33.06.67.14,1,.23l-.34,5.13h-2v-3.22h-.13q-3.48,0-5,5v6.42h3.08v1.86Z" fill="#ef5350"/><path d="M194.75,198.08v-1.86h2.36V184.77h-2.36v-1.86H199l.44,3.59a8.15,8.15,0,0,1,2.13-2.89,5.05,5.05,0,0,1,3.32-1,5.52,5.52,0,0,1,1.13.1c.33.06.67.14,1,.23l-.34,5.13h-2v-3.22h-.13q-3.48,0-5,5v6.42h3.08v1.86Z" fill="#ef5350"/><path d="M217.66,182.6a5.75,5.75,0,0,1,4.86,2.14,9.26,9.26,0,0,1,1.64,5.75,10.52,10.52,0,0,1-.75,4.1,6.31,6.31,0,0,1-2.2,2.8,6.12,6.12,0,0,1-3.58,1,5.74,5.74,0,0,1-4.86-2.16,9.14,9.14,0,0,1-1.66-5.73,10.64,10.64,0,0,1,.75-4.13,5.89,5.89,0,0,1,5.8-3.79Zm0,2a3.37,3.37,0,0,0-3,1.45,8.1,8.1,0,0,0-1,4.5,8,8,0,0,0,1,4.45,3.72,3.72,0,0,0,5.89,0,10.76,10.76,0,0,0,0-8.95A3.3,3.3,0,0,0,217.66,184.57Z" fill="#ef5350"/><path d="M229.31,198.08v-1.86h2.36V184.77h-2.36v-1.86h4.21l.44,3.59a8.15,8.15,0,0,1,2.13-2.89,5.05,5.05,0,0,1,3.32-1,5.52,5.52,0,0,1,1.13.1c.33.06.67.14,1,.23l-.34,5.13h-2v-3.22h-.13q-3.48,0-5,5v6.42h3.08v1.86Z" fill="#ef5350"/><path d="M292.43,178.25v2H288v15.83h4.41v2H281.08v-2h4.41V180.25h-4.41v-2Z" fill="#f2f2f2"/><path d="M307.36,176.51l2.42.3v21.27h-2.12l-.23-2a5.42,5.42,0,0,1-1.95,1.77,5.58,5.58,0,0,1-5.61-.43,5.87,5.87,0,0,1-1.9-2.78,12.57,12.57,0,0,1-.62-4.12,11,11,0,0,1,.71-4.07,6.37,6.37,0,0,1,2-2.82,5,5,0,0,1,3.2-1,5.1,5.1,0,0,1,4.06,1.78Zm-3.43,8A3.36,3.36,0,0,0,301,186a8,8,0,0,0-1,4.5q0,5.92,3.64,5.93a3.39,3.39,0,0,0,2.2-.73,6.67,6.67,0,0,0,1.53-1.66v-7.57a4.47,4.47,0,0,0-1.5-1.44A3.76,3.76,0,0,0,303.93,184.54Z" fill="#f2f2f2"/><path d="M317.47,191.35a5.33,5.33,0,0,0,1.39,3.84,4.32,4.32,0,0,0,3.05,1.2,6.09,6.09,0,0,0,2.1-.34,9.35,9.35,0,0,0,1.94-1l1.14,1.59a8,8,0,0,1-2.42,1.31,8.35,8.35,0,0,1-2.79.48,6.85,6.85,0,0,1-3.77-1,6.37,6.37,0,0,1-2.36-2.78,10.81,10.81,0,0,1,0-8.21,6.67,6.67,0,0,1,2.3-2.81,6.09,6.09,0,0,1,3.51-1,5.54,5.54,0,0,1,4.51,2,8.29,8.29,0,0,1,1.65,5.45c0,.26,0,.5,0,.73s0,.43,0,.59Zm4.12-6.77a3.72,3.72,0,0,0-2.82,1.2,5.73,5.73,0,0,0-1.29,3.7h7.91a5.74,5.74,0,0,0-1.07-3.66A3.37,3.37,0,0,0,321.59,184.58Z" fill="#f2f2f2"/><path d="M332.85,198.08V182.91h2.06l.19,2.11a6.08,6.08,0,0,1,2.3-1.8,6.62,6.62,0,0,1,2.71-.62,4,4,0,0,1,3.24,1.18,4.86,4.86,0,0,1,1,3.28v11H342v-9.23a15.15,15.15,0,0,0-.17-2.51,2.28,2.28,0,0,0-.73-1.4,2.71,2.71,0,0,0-1.69-.44,3.7,3.7,0,0,0-1.68.39,5.74,5.74,0,0,0-1.4,1,8.1,8.1,0,0,0-1,1.17v11.05Z" fill="#f2f2f2"/><path d="M362.17,197.31a6.06,6.06,0,0,1-1.89.81,8.7,8.7,0,0,1-2.17.29,5.26,5.26,0,0,1-3.78-1.28,4.41,4.41,0,0,1-1.32-3.3v-9h-3.49v-1.88H353v-3.44l2.42-.29v3.73h5.24l-.29,1.88h-4.95v9a2.57,2.57,0,0,0,.67,1.93,3.1,3.1,0,0,0,2.22.66,5.58,5.58,0,0,0,1.57-.2,6.91,6.91,0,0,0,1.34-.52Z" fill="#f2f2f2"/><path d="M375.09,182.91v13.25h4.27v1.92H368v-1.92h4.68V184.83h-4.54v-1.92Zm-1.93-7.1a1.74,1.74,0,0,1,1.28.49,1.63,1.63,0,0,1,.49,1.2,1.67,1.67,0,0,1-.49,1.23,1.76,1.76,0,0,1-3-1.23,1.67,1.67,0,0,1,.49-1.2A1.74,1.74,0,0,1,373.16,175.81Z" fill="#f2f2f2"/><path d="M393.65,176.51a10.87,10.87,0,0,1,2.22.21,10.34,10.34,0,0,1,1.88.61l-.78,1.8a7.86,7.86,0,0,0-1.56-.48,9.4,9.4,0,0,0-1.69-.16q-3.18,0-3.18,2.52v3.08h5.14l-.26,1.91h-4.88v12.08h-2.42V186H384.5v-1.91h3.62v-3a4.1,4.1,0,0,1,.72-2.43,4.76,4.76,0,0,1,2-1.58A6.86,6.86,0,0,1,393.65,176.51Z" fill="#f2f2f2"/><path d="M409.65,184.09v12.07h4.27v1.92H402.55v-1.92h4.68V186h-4.54v-1.91Zm-1.93-7.22a1.74,1.74,0,0,1,1.29.49,1.62,1.62,0,0,1,.48,1.19,1.7,1.7,0,0,1-.48,1.23,1.75,1.75,0,0,1-1.29.5,1.69,1.69,0,0,1-1.75-1.73,1.63,1.63,0,0,1,.49-1.19A1.7,1.7,0,0,1,407.72,176.87Z" fill="#f2f2f2"/><path d="M421.15,191.35a5.33,5.33,0,0,0,1.39,3.84,4.33,4.33,0,0,0,3,1.2,6,6,0,0,0,2.1-.34,9.35,9.35,0,0,0,1.94-1l1.14,1.59a8,8,0,0,1-2.42,1.31,8.35,8.35,0,0,1-2.79.48,6.85,6.85,0,0,1-3.77-1,6.37,6.37,0,0,1-2.36-2.78,10.81,10.81,0,0,1,0-8.21,6.67,6.67,0,0,1,2.3-2.81,6.09,6.09,0,0,1,3.51-1,5.57,5.57,0,0,1,4.52,2A8.28,8.28,0,0,1,431.4,190c0,.26,0,.5,0,.73s0,.43,0,.59Zm4.12-6.77a3.73,3.73,0,0,0-2.82,1.2,5.67,5.67,0,0,0-1.28,3.7h7.9a5.8,5.8,0,0,0-1.06-3.66A3.41,3.41,0,0,0,425.27,184.58Z" fill="#f2f2f2"/><path d="M436.68,198.08v-1.86H439V184.77h-2.36v-1.86h4.2l.45,3.59a7.92,7.92,0,0,1,2.13-2.89,5,5,0,0,1,3.31-1,5.52,5.52,0,0,1,1.13.1c.33.06.67.14,1,.23l-.35,5.13h-2v-3.22h-.13c-2.32,0-4,1.66-5,5v6.42h3.08v1.86Z" fill="#f2f2f2"/><path d="M475.77,184.3l-.44-7.49h3l-.45,7.49Z" fill="#f2f2f2"/><path d="M490.79,176.58V185a5.85,5.85,0,0,1,2.2-1.79,6.27,6.27,0,0,1,2.64-.6,4.05,4.05,0,0,1,3.24,1.18,4.86,4.86,0,0,1,1,3.28v11h-2.42v-11a2.74,2.74,0,0,0-.63-2,2.77,2.77,0,0,0-2-.62,3.63,3.63,0,0,0-1.64.39,6.21,6.21,0,0,0-1.4,1,7.22,7.22,0,0,0-1,1.18v11.05h-2.42V176.84Z" fill="#f2f2f2"/><path d="M507.55,191.35a5.33,5.33,0,0,0,1.39,3.84,4.33,4.33,0,0,0,3.05,1.2,6,6,0,0,0,2.1-.34,9.66,9.66,0,0,0,1.95-1l1.13,1.59a7.83,7.83,0,0,1-2.42,1.31,8.35,8.35,0,0,1-2.79.48,6.88,6.88,0,0,1-3.77-1,6.44,6.44,0,0,1-2.36-2.78,10.81,10.81,0,0,1,0-8.21,6.69,6.69,0,0,1,2.31-2.81,6,6,0,0,1,3.5-1,5.57,5.57,0,0,1,4.52,2,8.29,8.29,0,0,1,1.65,5.45c0,.26,0,.5,0,.73s0,.43,0,.59Zm4.12-6.77a3.73,3.73,0,0,0-2.82,1.2,5.67,5.67,0,0,0-1.28,3.7h7.9a5.8,5.8,0,0,0-1.06-3.66A3.39,3.39,0,0,0,511.67,184.58Z" fill="#f2f2f2"/><path d="M528.84,176.81v17.52a1.76,1.76,0,0,0,.7,1.59,3.09,3.09,0,0,0,1.8.47,6.26,6.26,0,0,0,1.31-.14,9.85,9.85,0,0,0,1.24-.39l.65,1.77a8.38,8.38,0,0,1-1.53.54,8.17,8.17,0,0,1-2.07.24,4.71,4.71,0,0,1-3.27-1.12,3.9,3.9,0,0,1-1.25-3.09V178.72h-4.65v-1.91Z" fill="#f2f2f2"/><path d="M546.12,176.81v17.52a1.76,1.76,0,0,0,.7,1.59,3.09,3.09,0,0,0,1.8.47,6.26,6.26,0,0,0,1.31-.14,9.85,9.85,0,0,0,1.24-.39l.65,1.77a8.38,8.38,0,0,1-1.53.54,8.17,8.17,0,0,1-2.07.24,4.72,4.72,0,0,1-3.27-1.12,3.93,3.93,0,0,1-1.25-3.09V178.72h-4.65v-1.91Z" fill="#f2f2f2"/><path d="M563.27,182.6a5.72,5.72,0,0,1,4.85,2.14,9.26,9.26,0,0,1,1.64,5.75,10.52,10.52,0,0,1-.75,4.1,6.24,6.24,0,0,1-2.2,2.8,6.06,6.06,0,0,1-3.57,1,5.77,5.77,0,0,1-4.87-2.16,9.2,9.2,0,0,1-1.65-5.73,10.64,10.64,0,0,1,.74-4.13,5.89,5.89,0,0,1,5.81-3.79Zm0,2a3.35,3.35,0,0,0-3,1.45,10.61,10.61,0,0,0,0,8.95,3.72,3.72,0,0,0,5.89,0,10.66,10.66,0,0,0,0-8.95A3.29,3.29,0,0,0,563.27,184.57Z" fill="#f2f2f2"/><path d="M573.32,203.31v-2.12h14.4v2.12Z" fill="#f2f2f2"/><path d="M603.29,198.08h-3.43l-2-11.13-2.13,11.13h-3.34l-2.77-15.17h2.48l1.93,13.67,2.42-11.74h2.86l2.29,11.74,1.93-13.67h2.37Z" fill="#f2f2f2"/><path d="M615.11,182.6a5.72,5.72,0,0,1,4.85,2.14,9.2,9.2,0,0,1,1.64,5.75,10.52,10.52,0,0,1-.75,4.1,6.18,6.18,0,0,1-2.2,2.8,6.06,6.06,0,0,1-3.57,1,5.77,5.77,0,0,1-4.87-2.16,9.2,9.2,0,0,1-1.65-5.73,10.83,10.83,0,0,1,.74-4.13,5.91,5.91,0,0,1,5.81-3.79Zm0,2a3.35,3.35,0,0,0-3,1.45,10.61,10.61,0,0,0,0,8.95,3.72,3.72,0,0,0,5.89,0,10.66,10.66,0,0,0,0-8.95A3.29,3.29,0,0,0,615.11,184.57Z" fill="#f2f2f2"/><path d="M626.76,198.08v-1.86h2.36V184.77h-2.36v-1.86H631l.45,3.59a8.15,8.15,0,0,1,2.13-2.89,5,5,0,0,1,3.31-1,5.46,5.46,0,0,1,1.13.1c.33.06.67.14,1,.23l-.35,5.13h-2v-3.22h-.13c-2.33,0-4,1.66-5,5v6.42h3.08v1.86Z" fill="#f2f2f2"/><path d="M649.8,176.81v17.52a1.76,1.76,0,0,0,.7,1.59,3.11,3.11,0,0,0,1.8.47,6.19,6.19,0,0,0,1.31-.14,9.36,9.36,0,0,0,1.24-.39l.65,1.77a8.38,8.38,0,0,1-1.53.54,8.17,8.17,0,0,1-2.07.24,4.72,4.72,0,0,1-3.27-1.12,3.93,3.93,0,0,1-1.25-3.09V178.72h-4.65v-1.91Z" fill="#f2f2f2"/><path d="M670.25,176.51l2.42.3v21.27h-2.12l-.23-2a5.59,5.59,0,0,1-2,1.77,5.58,5.58,0,0,1-5.61-.43,5.8,5.8,0,0,1-1.9-2.78,12.57,12.57,0,0,1-.62-4.12,11,11,0,0,1,.7-4.07,6.45,6.45,0,0,1,2-2.82,5.52,5.52,0,0,1,7.27.75Zm-3.43,8A3.34,3.34,0,0,0,663.9,186a7.92,7.92,0,0,0-1,4.5q0,5.92,3.65,5.93a3.41,3.41,0,0,0,2.2-.73,7.07,7.07,0,0,0,1.53-1.66v-7.57a4.66,4.66,0,0,0-1.5-1.44A3.79,3.79,0,0,0,666.82,184.54Z" fill="#f2f2f2"/><path d="M683.13,184.3l-.44-7.49h3l-.44,7.49Z" fill="#f2f2f2"/><path d="M720.69,182.91v13.25H725v1.92H713.59v-1.92h4.68V184.83h-4.53v-1.92Zm-1.93-7.1a1.75,1.75,0,0,1,1.29.49,1.66,1.66,0,0,1,.48,1.2,1.7,1.7,0,0,1-.48,1.23,1.72,1.72,0,0,1-1.29.5A1.69,1.69,0,0,1,717,177.5a1.63,1.63,0,0,1,.49-1.2A1.7,1.7,0,0,1,718.76,175.81Z" fill="#f2f2f2"/><path d="M735.45,196.41a5.14,5.14,0,0,0,2.77-.65,2,2,0,0,0,1-1.76,2.59,2.59,0,0,0-.25-1.18,2.3,2.3,0,0,0-1-.91,10.9,10.9,0,0,0-2.39-.82,17.47,17.47,0,0,1-2.73-.9,4.56,4.56,0,0,1-1.8-1.33,3.42,3.42,0,0,1-.64-2.13,3.5,3.5,0,0,1,1.6-3,7.15,7.15,0,0,1,4.16-1.11,9.34,9.34,0,0,1,3.19.49,8.92,8.92,0,0,1,2.31,1.18l-1.06,1.64a8.29,8.29,0,0,0-1.9-1,7.17,7.17,0,0,0-2.51-.38,4.37,4.37,0,0,0-2.53.55,1.81,1.81,0,0,0-.39,2.55,3.2,3.2,0,0,0,1.25.78,24.67,24.67,0,0,0,2.42.77,14.09,14.09,0,0,1,2.59.95,4.3,4.3,0,0,1,1.72,1.43,4,4,0,0,1,.61,2.3,3.68,3.68,0,0,1-.92,2.61,5.34,5.34,0,0,1-2.38,1.46,10.4,10.4,0,0,1-3.09.45,9.2,9.2,0,0,1-3.51-.6,8.73,8.73,0,0,1-2.42-1.45l1.38-1.59A7.52,7.52,0,0,0,733,196,6.69,6.69,0,0,0,735.45,196.41Z" fill="#f2f2f2"/><path d="M764.86,198.08V182.91h2.06l.18,2.11a6.19,6.19,0,0,1,2.31-1.8,6.61,6.61,0,0,1,2.7-.62,4.06,4.06,0,0,1,3.25,1.18,4.86,4.86,0,0,1,1,3.28v11H774v-9.23a15.15,15.15,0,0,0-.17-2.51,2.28,2.28,0,0,0-.73-1.4,2.73,2.73,0,0,0-1.69-.44,3.7,3.7,0,0,0-1.68.39,5.55,5.55,0,0,0-1.4,1,7,7,0,0,0-1,1.17v11.05Z" fill="#f2f2f2"/><path d="M787.91,182.6a5.72,5.72,0,0,1,4.85,2.14,9.2,9.2,0,0,1,1.65,5.75,10.52,10.52,0,0,1-.75,4.1,6.26,6.26,0,0,1-2.21,2.8,6.06,6.06,0,0,1-3.57,1,5.77,5.77,0,0,1-4.87-2.16,9.2,9.2,0,0,1-1.65-5.73,10.64,10.64,0,0,1,.75-4.13,5.89,5.89,0,0,1,5.8-3.79Zm0,2a3.37,3.37,0,0,0-3,1.45,10.56,10.56,0,0,0,0,8.95,3.72,3.72,0,0,0,5.89,0,8.09,8.09,0,0,0,1-4.48,8,8,0,0,0-1-4.47A3.27,3.27,0,0,0,787.91,184.57Z" fill="#f2f2f2"/><path d="M811.46,197.31a6.06,6.06,0,0,1-1.89.81,8.71,8.71,0,0,1-2.18.29,5.22,5.22,0,0,1-3.77-1.28,4.41,4.41,0,0,1-1.32-3.3v-9h-3.49v-1.88h3.49v-3.44l2.42-.29v3.73H810l-.29,1.88h-4.95v9a2.57,2.57,0,0,0,.67,1.93,3.07,3.07,0,0,0,2.22.66,5.58,5.58,0,0,0,1.57-.2,6.91,6.91,0,0,0,1.34-.52Z" fill="#f2f2f2"/><path d="M841.65,182.91v13.25h4.28v1.92H834.55v-1.92h4.68V184.83H834.7v-1.92Zm-1.93-7.1a1.75,1.75,0,0,1,1.29.49,1.66,1.66,0,0,1,.48,1.2,1.7,1.7,0,0,1-.48,1.23,1.72,1.72,0,0,1-1.29.5,1.69,1.69,0,0,1-1.25-.5,1.67,1.67,0,0,1-.49-1.23,1.63,1.63,0,0,1,.49-1.2A1.72,1.72,0,0,1,839.72,175.81Z" fill="#f2f2f2"/><path d="M851.26,198.08V182.91h2.06l.18,2.11a6.19,6.19,0,0,1,2.31-1.8,6.62,6.62,0,0,1,2.71-.62,4,4,0,0,1,3.24,1.18,4.86,4.86,0,0,1,1,3.28v11h-2.42v-9.23a15.15,15.15,0,0,0-.17-2.51,2.28,2.28,0,0,0-.73-1.4,2.71,2.71,0,0,0-1.69-.44,3.7,3.7,0,0,0-1.68.39,5.74,5.74,0,0,0-1.4,1,7.52,7.52,0,0,0-1,1.17v11.05Z" fill="#f2f2f2"/><path d="M892.67,196.32a6,6,0,0,0,2.13-.37,8.08,8.08,0,0,0,1.82-.95l1.18,1.58a7.39,7.39,0,0,1-2.39,1.34,8.14,8.14,0,0,1-2.74.49,7.34,7.34,0,0,1-3.85-1,6.3,6.3,0,0,1-2.43-2.74,10.57,10.57,0,0,1,0-8.21,6.72,6.72,0,0,1,2.44-2.85,6.94,6.94,0,0,1,3.87-1,7.83,7.83,0,0,1,5.07,1.75L896.59,186a6.87,6.87,0,0,0-3.92-1.36,4.07,4.07,0,0,0-3.22,1.48,6.68,6.68,0,0,0-1.27,4.47,6.3,6.3,0,0,0,1.27,4.4A4.19,4.19,0,0,0,892.67,196.32Z" fill="#f2f2f2"/><path d="M914,194.77a2.35,2.35,0,0,0,.3,1.34,1.75,1.75,0,0,0,.94.6l-.6,1.7a4,4,0,0,1-1.71-.63,2.77,2.77,0,0,1-1.06-1.5,5.28,5.28,0,0,1-2.06,1.59,6.64,6.64,0,0,1-2.7.54,4.92,4.92,0,0,1-3.58-1.28,4.53,4.53,0,0,1-1.31-3.4,4.09,4.09,0,0,1,1.83-3.6,9.26,9.26,0,0,1,5.28-1.25h2.23v-1.27a2.69,2.69,0,0,0-.95-2.33,4.57,4.57,0,0,0-2.66-.68,10.18,10.18,0,0,0-1.76.18,14,14,0,0,0-2.19.6l-.63-1.83a14.86,14.86,0,0,1,2.61-.74,13.92,13.92,0,0,1,2.34-.21,6.06,6.06,0,0,1,4.25,1.32,4.66,4.66,0,0,1,1.43,3.57Zm-6.27,1.8a4.32,4.32,0,0,0,2.14-.57,4.9,4.9,0,0,0,1.69-1.58v-3.9h-2.19a5.6,5.6,0,0,0-3.53.86,2.87,2.87,0,0,0-1,2.32C904.77,195.61,905.74,196.57,907.69,196.57Z" fill="#f2f2f2"/><path d="M930.37,182.6a3.28,3.28,0,0,1,1.4.31,2.42,2.42,0,0,1,1.11,1.23,6.34,6.34,0,0,1,.43,2.65v11.29h-2.25v-10.9a8.45,8.45,0,0,0-.17-2.06.89.89,0,0,0-1-.64,2.61,2.61,0,0,0-1.36.43,4.39,4.39,0,0,0-1.29,1.39v11.78H925v-10.9a8.33,8.33,0,0,0-.18-2.06.89.89,0,0,0-1-.64,2.54,2.54,0,0,0-1.37.43,4.48,4.48,0,0,0-1.28,1.39v11.78h-2.23V182.91h1.9l.14,1.76a7,7,0,0,1,1.39-1.47,3,3,0,0,1,1.91-.6,3.32,3.32,0,0,1,1.63.41A2.5,2.5,0,0,1,927,184.6a5.71,5.71,0,0,1,1.4-1.45A3.27,3.27,0,0,1,930.37,182.6Z" fill="#f2f2f2"/><path d="M939.56,191.35a5.33,5.33,0,0,0,1.39,3.84,4.32,4.32,0,0,0,3,1.2,6.09,6.09,0,0,0,2.1-.34,9.35,9.35,0,0,0,1.94-1l1.14,1.59a8,8,0,0,1-2.42,1.31,8.35,8.35,0,0,1-2.79.48,6.85,6.85,0,0,1-3.77-1,6.37,6.37,0,0,1-2.36-2.78,10.81,10.81,0,0,1,0-8.21,6.67,6.67,0,0,1,2.3-2.81,6.09,6.09,0,0,1,3.51-1,5.54,5.54,0,0,1,4.51,2,8.29,8.29,0,0,1,1.65,5.45c0,.26,0,.5,0,.73s0,.43,0,.59Zm4.12-6.77a3.72,3.72,0,0,0-2.82,1.2,5.73,5.73,0,0,0-1.29,3.7h7.91a5.8,5.8,0,0,0-1.06-3.66A3.41,3.41,0,0,0,943.68,184.58Z" fill="#f2f2f2"/><path d="M960.84,176.81v17.52a1.78,1.78,0,0,0,.7,1.59,3.14,3.14,0,0,0,1.81.47,6.09,6.09,0,0,0,1.3-.14,9.5,9.5,0,0,0,1.25-.39l.65,1.77a8.79,8.79,0,0,1-1.54.54,8.15,8.15,0,0,1-2.06.24,4.69,4.69,0,0,1-3.27-1.12,3.9,3.9,0,0,1-1.26-3.09V178.72h-4.65v-1.91Z" fill="#f2f2f2"/><path d="M996.35,196.32a6,6,0,0,0,2.13-.37,7.87,7.87,0,0,0,1.82-.95l1.18,1.58a7.39,7.39,0,0,1-2.39,1.34,8.14,8.14,0,0,1-2.74.49,7.34,7.34,0,0,1-3.85-1,6.21,6.21,0,0,1-2.42-2.74,10.45,10.45,0,0,1,0-8.21,6.63,6.63,0,0,1,2.43-2.85,7,7,0,0,1,3.87-1,7.83,7.83,0,0,1,5.07,1.75l-1.18,1.62a6.84,6.84,0,0,0-3.92-1.36,4.07,4.07,0,0,0-3.22,1.48,6.68,6.68,0,0,0-1.27,4.47,6.3,6.3,0,0,0,1.27,4.4A4.19,4.19,0,0,0,996.35,196.32Z" fill="#f2f2f2"/><path d="M1017.64,194.77a2.35,2.35,0,0,0,.3,1.34,1.75,1.75,0,0,0,.94.6l-.59,1.7a4,4,0,0,1-1.72-.63,2.77,2.77,0,0,1-1.06-1.5,5.25,5.25,0,0,1-2,1.59,6.73,6.73,0,0,1-2.71.54,4.92,4.92,0,0,1-3.58-1.28,4.53,4.53,0,0,1-1.31-3.4,4.09,4.09,0,0,1,1.83-3.6,9.28,9.28,0,0,1,5.28-1.25h2.23v-1.27a2.66,2.66,0,0,0-1-2.33,4.57,4.57,0,0,0-2.66-.68,10.18,10.18,0,0,0-1.76.18,14,14,0,0,0-2.19.6l-.63-1.83a14.86,14.86,0,0,1,2.61-.74,14,14,0,0,1,2.34-.21,6,6,0,0,1,4.25,1.32,4.66,4.66,0,0,1,1.43,3.57Zm-6.27,1.8a4.29,4.29,0,0,0,2.14-.57,4.9,4.9,0,0,0,1.69-1.58v-3.9H1013a5.63,5.63,0,0,0-3.54.86,2.87,2.87,0,0,0-1,2.32C1008.45,195.61,1009.42,196.57,1011.37,196.57Z" fill="#f2f2f2"/><path d="M1029.22,196.41a5.08,5.08,0,0,0,2.76-.65,2,2,0,0,0,1-1.76,2.73,2.73,0,0,0-.25-1.18,2.3,2.3,0,0,0-1-.91,11.09,11.09,0,0,0-2.39-.82,16.8,16.8,0,0,1-2.73-.9,4.42,4.42,0,0,1-1.8-1.33,3.35,3.35,0,0,1-.64-2.13,3.47,3.47,0,0,1,1.6-3,7.13,7.13,0,0,1,4.16-1.11,9.14,9.14,0,0,1,5.5,1.67l-1.07,1.64a8.21,8.21,0,0,0-1.89-1,7.21,7.21,0,0,0-2.51-.38,4.4,4.4,0,0,0-2.54.55,1.79,1.79,0,0,0-.38,2.55,3.05,3.05,0,0,0,1.25.78,24.34,24.34,0,0,0,2.41.77,14.2,14.2,0,0,1,2.6.95,4.37,4.37,0,0,1,1.72,1.43,4,4,0,0,1,.61,2.3,3.73,3.73,0,0,1-.92,2.61,5.37,5.37,0,0,1-2.39,1.46,10.38,10.38,0,0,1-3.08.45,9.13,9.13,0,0,1-3.51-.6,8.79,8.79,0,0,1-2.43-1.45l1.39-1.59a7.23,7.23,0,0,0,2,1.18A6.62,6.62,0,0,0,1029.22,196.41Z" fill="#f2f2f2"/><path d="M1043.24,191.35a5.33,5.33,0,0,0,1.39,3.84,4.33,4.33,0,0,0,3,1.2,6,6,0,0,0,2.1-.34,9.35,9.35,0,0,0,1.94-1l1.14,1.59a8,8,0,0,1-2.42,1.31,8.35,8.35,0,0,1-2.79.48,6.85,6.85,0,0,1-3.77-1,6.37,6.37,0,0,1-2.36-2.78,10.81,10.81,0,0,1,0-8.21,6.62,6.62,0,0,1,2.31-2.81,6,6,0,0,1,3.5-1,5.57,5.57,0,0,1,4.52,2,8.29,8.29,0,0,1,1.65,5.45c0,.26,0,.5,0,.73s0,.43,0,.59Zm4.12-6.77a3.73,3.73,0,0,0-2.82,1.2,5.67,5.67,0,0,0-1.28,3.7h7.9a5.8,5.8,0,0,0-1.06-3.66A3.39,3.39,0,0,0,1047.36,184.58Z" fill="#f2f2f2"/><path d="M1100,196.32a6,6,0,0,0,2.12-.37A7.87,7.87,0,0,0,1104,195l1.18,1.58a7.39,7.39,0,0,1-2.39,1.34,8.12,8.12,0,0,1-2.73.49,7.37,7.37,0,0,1-3.86-1,6.21,6.21,0,0,1-2.42-2.74,10.45,10.45,0,0,1,0-8.21,6.7,6.7,0,0,1,2.43-2.85,7,7,0,0,1,3.88-1,7.8,7.8,0,0,1,5.06,1.75L1104,186a6.84,6.84,0,0,0-3.91-1.36,4.09,4.09,0,0,0-3.23,1.48,6.74,6.74,0,0,0-1.27,4.47,6.35,6.35,0,0,0,1.27,4.4A4.21,4.21,0,0,0,1100,196.32Z" fill="#757575"/><path d="M1121.32,194.77a2.35,2.35,0,0,0,.3,1.34,1.79,1.79,0,0,0,.94.6l-.59,1.7a4,4,0,0,1-1.72-.63,2.77,2.77,0,0,1-1.06-1.5,5.25,5.25,0,0,1-2,1.59,6.64,6.64,0,0,1-2.7.54,4.93,4.93,0,0,1-3.59-1.28,4.57,4.57,0,0,1-1.31-3.4,4.09,4.09,0,0,1,1.83-3.6,9.28,9.28,0,0,1,5.28-1.25h2.24v-1.27a2.67,2.67,0,0,0-1-2.33,4.57,4.57,0,0,0-2.66-.68,10.27,10.27,0,0,0-1.76.18,13.62,13.62,0,0,0-2.18.6l-.64-1.83a15,15,0,0,1,2.62-.74,13.92,13.92,0,0,1,2.34-.21,6,6,0,0,1,4.24,1.32,4.66,4.66,0,0,1,1.43,3.57Zm-6.26,1.8a4.28,4.28,0,0,0,2.13-.57,5,5,0,0,0,1.7-1.58v-3.9h-2.19a5.63,5.63,0,0,0-3.54.86,2.9,2.9,0,0,0-1,2.32C1112.13,195.61,1113.11,196.57,1115.06,196.57Z" fill="#757575"/><path d="M1137.74,182.6a3.24,3.24,0,0,1,1.39.31,2.42,2.42,0,0,1,1.11,1.23,6.34,6.34,0,0,1,.43,2.65v11.29h-2.24v-10.9a8.33,8.33,0,0,0-.18-2.06.89.89,0,0,0-1-.64,2.55,2.55,0,0,0-1.35.43,4.4,4.4,0,0,0-1.3,1.39v11.78h-2.26v-10.9a9,9,0,0,0-.17-2.06.91.91,0,0,0-1-.64,2.51,2.51,0,0,0-1.36.43,4.5,4.5,0,0,0-1.29,1.39v11.78h-2.23V182.91h1.9l.15,1.76a6.52,6.52,0,0,1,1.39-1.47,3,3,0,0,1,1.9-.6,3.32,3.32,0,0,1,1.63.41,2.51,2.51,0,0,1,1.13,1.59,5.68,5.68,0,0,1,1.39-1.45A3.28,3.28,0,0,1,1137.74,182.6Z" fill="#757575"/><path d="M1146.92,191.35a5.33,5.33,0,0,0,1.39,3.84,4.33,4.33,0,0,0,3,1.2,6,6,0,0,0,2.1-.34,9.66,9.66,0,0,0,2-1l1.13,1.59a7.83,7.83,0,0,1-2.42,1.31,8.35,8.35,0,0,1-2.79.48,6.88,6.88,0,0,1-3.77-1,6.44,6.44,0,0,1-2.36-2.78,10.81,10.81,0,0,1,0-8.21,6.69,6.69,0,0,1,2.31-2.81,6,6,0,0,1,3.5-1,5.57,5.57,0,0,1,4.52,2,8.29,8.29,0,0,1,1.65,5.45c0,.26,0,.5,0,.73s0,.43,0,.59Zm4.12-6.77a3.73,3.73,0,0,0-2.82,1.2,5.67,5.67,0,0,0-1.28,3.7h7.9a5.8,5.8,0,0,0-1.06-3.66A3.39,3.39,0,0,0,1151,184.58Z" fill="#757575"/><path d="M1168.21,176.81v17.52a1.76,1.76,0,0,0,.7,1.59,3.09,3.09,0,0,0,1.8.47,6.26,6.26,0,0,0,1.31-.14,9.85,9.85,0,0,0,1.24-.39l.65,1.77a8.38,8.38,0,0,1-1.53.54,8.17,8.17,0,0,1-2.07.24,4.71,4.71,0,0,1-3.27-1.12,3.93,3.93,0,0,1-1.25-3.09V178.72h-4.65v-1.91Z" fill="#757575"/><path d="M1186.44,196.32a5.91,5.91,0,0,0,2.12-.37,7.67,7.67,0,0,0,1.82-.95l1.18,1.58a7.39,7.39,0,0,1-2.39,1.34,8.12,8.12,0,0,1-2.73.49,7.31,7.31,0,0,1-3.85-1,6.23,6.23,0,0,1-2.43-2.74,10.45,10.45,0,0,1,0-8.21,6.76,6.76,0,0,1,2.43-2.85,7,7,0,0,1,3.88-1,7.83,7.83,0,0,1,5.07,1.75l-1.19,1.62a6.84,6.84,0,0,0-3.91-1.36,4.09,4.09,0,0,0-3.23,1.48,6.74,6.74,0,0,0-1.27,4.47,6.35,6.35,0,0,0,1.27,4.4A4.21,4.21,0,0,0,1186.44,196.32Z" fill="#757575"/><path d="M1207.72,194.77a2.35,2.35,0,0,0,.3,1.34,1.83,1.83,0,0,0,.94.6l-.59,1.7a4,4,0,0,1-1.71-.63,2.78,2.78,0,0,1-1.07-1.5,5.25,5.25,0,0,1-2,1.59,6.64,6.64,0,0,1-2.7.54,4.94,4.94,0,0,1-3.59-1.28,4.57,4.57,0,0,1-1.31-3.4,4.09,4.09,0,0,1,1.83-3.6,9.29,9.29,0,0,1,5.29-1.25h2.23v-1.27a2.67,2.67,0,0,0-1-2.33,4.55,4.55,0,0,0-2.66-.68,10.08,10.08,0,0,0-1.75.18,13.43,13.43,0,0,0-2.19.6l-.64-1.83a15.2,15.2,0,0,1,2.62-.74,13.92,13.92,0,0,1,2.34-.21,6.08,6.08,0,0,1,4.25,1.32,4.66,4.66,0,0,1,1.42,3.57Zm-6.26,1.8a4.32,4.32,0,0,0,2.14-.57,5,5,0,0,0,1.69-1.58v-3.9h-2.19a5.63,5.63,0,0,0-3.54.86,2.9,2.9,0,0,0-1,2.32C1198.53,195.61,1199.51,196.57,1201.46,196.57Z" fill="#757575"/><path d="M1219.3,196.41a5.08,5.08,0,0,0,2.76-.65,2,2,0,0,0,1-1.76,2.59,2.59,0,0,0-.25-1.18,2.3,2.3,0,0,0-1-.91,11.09,11.09,0,0,0-2.39-.82,16.8,16.8,0,0,1-2.73-.9,4.56,4.56,0,0,1-1.8-1.33,3.35,3.35,0,0,1-.64-2.13,3.47,3.47,0,0,1,1.6-3,7.13,7.13,0,0,1,4.16-1.11,9.34,9.34,0,0,1,3.19.49,8.92,8.92,0,0,1,2.31,1.18l-1.06,1.64a8.29,8.29,0,0,0-1.9-1,7.17,7.17,0,0,0-2.51-.38,4.4,4.4,0,0,0-2.54.55,1.82,1.82,0,0,0-.38,2.55,3.13,3.13,0,0,0,1.25.78,23.81,23.81,0,0,0,2.42.77,14.09,14.09,0,0,1,2.59.95,4.37,4.37,0,0,1,1.72,1.43,4,4,0,0,1,.61,2.3,3.68,3.68,0,0,1-.92,2.61,5.34,5.34,0,0,1-2.38,1.46,10.5,10.5,0,0,1-3.09.45,9.2,9.2,0,0,1-3.51-.6,8.73,8.73,0,0,1-2.42-1.45l1.38-1.59a7.37,7.37,0,0,0,2,1.18A6.65,6.65,0,0,0,1219.3,196.41Z" fill="#757575"/><path d="M1233.32,191.35a5.38,5.38,0,0,0,1.39,3.84,4.33,4.33,0,0,0,3,1.2,6,6,0,0,0,2.1-.34,9.41,9.41,0,0,0,2-1l1.13,1.59a7.9,7.9,0,0,1-2.41,1.31,8.45,8.45,0,0,1-2.8.48,6.82,6.82,0,0,1-3.76-1,6.39,6.39,0,0,1-2.37-2.78,10.81,10.81,0,0,1,0-8.21,6.69,6.69,0,0,1,2.31-2.81,6,6,0,0,1,3.5-1,5.56,5.56,0,0,1,4.52,2,8.29,8.29,0,0,1,1.65,5.45c0,.26,0,.5,0,.73s0,.43,0,.59Zm4.12-6.77a3.73,3.73,0,0,0-2.82,1.2,5.67,5.67,0,0,0-1.28,3.7h7.91a5.8,5.8,0,0,0-1.07-3.66A3.38,3.38,0,0,0,1237.44,184.58Z" fill="#757575"/><path d="M61.23,227.07a6.68,6.68,0,0,1,3.21.73,5.17,5.17,0,0,1,2.06,2,5.68,5.68,0,0,1,.71,2.82,7.6,7.6,0,0,1-.48,2.67A10.84,10.84,0,0,1,65.21,238a29.77,29.77,0,0,1-2.74,3.18q-1.69,1.74-4.15,4h9.35l-.3,2.06H55.57v-2c1.88-1.8,3.4-3.32,4.59-4.55a32.81,32.81,0,0,0,2.76-3.21A9.82,9.82,0,0,0,64.28,235a7.29,7.29,0,0,0,.38-2.33,3.63,3.63,0,0,0-.94-2.64,3.46,3.46,0,0,0-2.6-1,5.16,5.16,0,0,0-2.41.5,6.76,6.76,0,0,0-1.87,1.62l-1.67-1.3a7.16,7.16,0,0,1,6.06-2.84Z" fill="#757575"/><path d="M77,232.52a2.3,2.3,0,0,1,.67-1.65,2.24,2.24,0,0,1,1.65-.67,2.33,2.33,0,1,1,0,4.66,2.22,2.22,0,0,1-1.65-.69A2.31,2.31,0,0,1,77,232.52Zm0,10.38a2.3,2.3,0,0,1,.67-1.63,2.22,2.22,0,0,1,1.65-.69,2.34,2.34,0,1,1,0,4.67,2.22,2.22,0,0,1-1.65-.69A2.3,2.3,0,0,1,77,242.9Z" fill="#757575"/><path d="M102.94,245.25v2H91.49v-2h4.88V230l-4.55,2.77-1-1.73,5.9-3.66h2.12v17.86Z" fill="#757575"/><path d="M162,240.5a5.28,5.28,0,0,0,1.39,3.83,4.32,4.32,0,0,0,3,1.21,6.1,6.1,0,0,0,2.11-.35,9.35,9.35,0,0,0,1.94-1l1.14,1.6a8.4,8.4,0,0,1-2.42,1.31,8.66,8.66,0,0,1-2.8.47,6.84,6.84,0,0,1-3.76-1,6.35,6.35,0,0,1-2.36-2.77,9.76,9.76,0,0,1-.82-4.13,9.64,9.64,0,0,1,.82-4.09,6.67,6.67,0,0,1,2.3-2.81,6,6,0,0,1,3.51-1,5.53,5.53,0,0,1,4.51,2,8.26,8.26,0,0,1,1.65,5.44c0,.26,0,.5,0,.73s0,.43,0,.6Zm4.12-6.77a3.73,3.73,0,0,0-2.83,1.19,5.78,5.78,0,0,0-1.28,3.7h7.91A5.8,5.8,0,0,0,168.8,235,3.37,3.37,0,0,0,166.07,233.73Z" fill="#ef5350"/><path d="M177.47,247.22v-1.86h2.36V233.91h-2.36v-1.85h4.21l.44,3.58a8.15,8.15,0,0,1,2.13-2.89,5.11,5.11,0,0,1,3.32-1,6.33,6.33,0,0,1,1.13.1,9.82,9.82,0,0,1,1,.24l-.34,5.12h-2V234h-.13q-3.48,0-5,5v6.42h3.08v1.86Z" fill="#ef5350"/><path d="M194.75,247.22v-1.86h2.36V233.91h-2.36v-1.85H199l.44,3.58a8.15,8.15,0,0,1,2.13-2.89,5.11,5.11,0,0,1,3.32-1,6.33,6.33,0,0,1,1.13.1,9.82,9.82,0,0,1,1,.24l-.34,5.12h-2V234h-.13q-3.48,0-5,5v6.42h3.08v1.86Z" fill="#ef5350"/><path d="M217.66,231.74a5.78,5.78,0,0,1,4.86,2.14,9.28,9.28,0,0,1,1.64,5.75,10.57,10.57,0,0,1-.75,4.11,6.37,6.37,0,0,1-2.2,2.8,6.19,6.19,0,0,1-3.58,1,5.74,5.74,0,0,1-4.86-2.16,9.14,9.14,0,0,1-1.66-5.73,10.64,10.64,0,0,1,.75-4.13,5.89,5.89,0,0,1,5.8-3.79Zm0,2a3.37,3.37,0,0,0-3,1.46,10.56,10.56,0,0,0,0,9,3.72,3.72,0,0,0,5.89,0,10.76,10.76,0,0,0,0-9A3.3,3.3,0,0,0,217.66,233.71Z" fill="#ef5350"/><path d="M229.31,247.22v-1.86h2.36V233.91h-2.36v-1.85h4.21l.44,3.58a8.15,8.15,0,0,1,2.13-2.89,5.11,5.11,0,0,1,3.32-1,6.33,6.33,0,0,1,1.13.1,9.82,9.82,0,0,1,1,.24l-.34,5.12h-2V234h-.13q-3.48,0-5,5v6.42h3.08v1.86Z" fill="#ef5350"/><path d="M293.31,227.39V240.8a7.44,7.44,0,0,1-.81,3.53,5.87,5.87,0,0,1-2.29,2.37,6.85,6.85,0,0,1-3.48.85,6.72,6.72,0,0,1-3.51-.86,5.69,5.69,0,0,1-2.24-2.37,7.61,7.61,0,0,1-.78-3.52V227.39h2.48v13.49a4.77,4.77,0,0,0,1.06,3.39,4.56,4.56,0,0,0,6,0,4.81,4.81,0,0,0,1.06-3.39V227.39Z" fill="#f2f2f2"/><path d="M298.29,247.22V232.06h2.06l.19,2.1a6,6,0,0,1,2.3-1.79,6.48,6.48,0,0,1,2.71-.63,4,4,0,0,1,3.24,1.18,4.86,4.86,0,0,1,1,3.28v11h-2.42V238a15.24,15.24,0,0,0-.17-2.51,2.22,2.22,0,0,0-.73-1.39,2.64,2.64,0,0,0-1.69-.45,3.7,3.7,0,0,0-1.68.39,5.74,5.74,0,0,0-1.4,1,8.1,8.1,0,0,0-1,1.17v11.05Z" fill="#f2f2f2"/><path d="M317.47,240.5a5.32,5.32,0,0,0,1.39,3.83,4.33,4.33,0,0,0,3.05,1.21,6.09,6.09,0,0,0,2.1-.35,9.35,9.35,0,0,0,1.94-1l1.14,1.6a8.4,8.4,0,0,1-2.42,1.31,8.6,8.6,0,0,1-2.79.47,6.85,6.85,0,0,1-3.77-1,6.35,6.35,0,0,1-2.36-2.77,9.91,9.91,0,0,1-.81-4.13,9.79,9.79,0,0,1,.81-4.09,6.67,6.67,0,0,1,2.3-2.81,6.09,6.09,0,0,1,3.51-1,5.52,5.52,0,0,1,4.51,2,8.26,8.26,0,0,1,1.65,5.44c0,.26,0,.5,0,.73s0,.43,0,.6Zm4.12-6.77a3.71,3.71,0,0,0-2.82,1.19,5.73,5.73,0,0,0-1.29,3.7h7.91a5.74,5.74,0,0,0-1.07-3.66A3.37,3.37,0,0,0,321.59,233.73Z" fill="#f2f2f2"/><path d="M334.32,247.22h-2.77l5.61-8-4.92-7.15h2.87l3.51,5.64,3.56-5.64H345l-4.9,7.05,5.59,8.11h-3l-4.15-6.51Z" fill="#f2f2f2"/><path d="M356.91,231.74a5,5,0,0,1,3.22,1,5.49,5.49,0,0,1,1.74,2.76,14.68,14.68,0,0,1,.53,4.15,12,12,0,0,1-.64,4.08,6.06,6.06,0,0,1-1.94,2.82,5.11,5.11,0,0,1-3.27,1,5,5,0,0,1-4-1.76V253l-2.42.31V232.06h2.06l.2,2.11a6.18,6.18,0,0,1,2-1.8A5.19,5.19,0,0,1,356.91,231.74Zm-.57,1.94a3.51,3.51,0,0,0-2.22.76,6.89,6.89,0,0,0-1.57,1.68v7.51A4.31,4.31,0,0,0,354,245a3.85,3.85,0,0,0,2,.52,3.19,3.19,0,0,0,2.84-1.45,8.3,8.3,0,0,0,.95-4.47Q359.81,233.68,356.34,233.68Z" fill="#f2f2f2"/><path d="M369.31,240.5a5.32,5.32,0,0,0,1.39,3.83,4.34,4.34,0,0,0,3.05,1.21,6.09,6.09,0,0,0,2.1-.35,9.35,9.35,0,0,0,1.94-1l1.14,1.6a8.4,8.4,0,0,1-2.42,1.31,8.6,8.6,0,0,1-2.79.47,6.85,6.85,0,0,1-3.77-1,6.35,6.35,0,0,1-2.36-2.77,9.91,9.91,0,0,1-.81-4.13,9.79,9.79,0,0,1,.81-4.09,6.67,6.67,0,0,1,2.3-2.81,6.09,6.09,0,0,1,3.51-1,5.55,5.55,0,0,1,4.52,2,8.31,8.31,0,0,1,1.64,5.44c0,.26,0,.5,0,.73s0,.43,0,.6Zm4.12-6.77a3.73,3.73,0,0,0-2.82,1.19,5.67,5.67,0,0,0-1.28,3.7h7.9a5.8,5.8,0,0,0-1.06-3.66A3.4,3.4,0,0,0,373.43,233.73Z" fill="#f2f2f2"/><path d="M391.54,245.46a6.19,6.19,0,0,0,2.13-.36,8.31,8.31,0,0,0,1.82-1l1.18,1.58a7.21,7.21,0,0,1-2.39,1.34,8.14,8.14,0,0,1-2.74.49,7.24,7.24,0,0,1-3.85-1,6.21,6.21,0,0,1-2.42-2.74,10.45,10.45,0,0,1,0-8.21,6.63,6.63,0,0,1,2.43-2.85,7,7,0,0,1,3.87-1,7.84,7.84,0,0,1,5.07,1.76l-1.18,1.61a6.9,6.9,0,0,0-3.92-1.35,4.06,4.06,0,0,0-3.22,1.47,6.72,6.72,0,0,0-1.27,4.47c0,2,.42,3.5,1.27,4.4A4.19,4.19,0,0,0,391.54,245.46Z" fill="#f2f2f2"/><path d="M414,246.46a6.3,6.3,0,0,1-1.89.8,8.26,8.26,0,0,1-2.17.29,5.22,5.22,0,0,1-3.77-1.28,4.35,4.35,0,0,1-1.33-3.3v-9h-3.48v-1.87h3.48v-3.45l2.42-.28v3.73h5.24l-.29,1.87h-5v9a2.57,2.57,0,0,0,.67,1.93,3.1,3.1,0,0,0,2.22.67,5.57,5.57,0,0,0,1.57-.21,6.89,6.89,0,0,0,1.34-.51Z" fill="#f2f2f2"/><path d="M421.15,240.5a5.32,5.32,0,0,0,1.39,3.83,4.34,4.34,0,0,0,3,1.21,6,6,0,0,0,2.1-.35,9.35,9.35,0,0,0,1.94-1l1.14,1.6a8.4,8.4,0,0,1-2.42,1.31,8.6,8.6,0,0,1-2.79.47,6.85,6.85,0,0,1-3.77-1,6.35,6.35,0,0,1-2.36-2.77,9.91,9.91,0,0,1-.81-4.13,9.79,9.79,0,0,1,.81-4.09,6.67,6.67,0,0,1,2.3-2.81,6.09,6.09,0,0,1,3.51-1,5.55,5.55,0,0,1,4.52,2,8.25,8.25,0,0,1,1.64,5.44c0,.26,0,.5,0,.73s0,.43,0,.6Zm4.12-6.77a3.73,3.73,0,0,0-2.82,1.19,5.67,5.67,0,0,0-1.28,3.7h7.9A5.8,5.8,0,0,0,428,235,3.4,3.4,0,0,0,425.27,233.73Z" fill="#f2f2f2"/><path d="M445.6,225.65l2.42.3v21.27h-2.11l-.23-2a5.44,5.44,0,0,1-2,1.77,5.56,5.56,0,0,1-5.6-.43,5.85,5.85,0,0,1-1.91-2.77,12.69,12.69,0,0,1-.61-4.13,11.06,11.06,0,0,1,.7-4.07,6.49,6.49,0,0,1,2-2.82,5.49,5.49,0,0,1,7.26.76Zm-3.42,8a3.35,3.35,0,0,0-2.93,1.49,8,8,0,0,0-1,4.49c0,4,1.21,5.93,3.64,5.93a3.49,3.49,0,0,0,2.21-.72,6.86,6.86,0,0,0,1.52-1.67v-7.57a4.64,4.64,0,0,0-1.49-1.44A3.79,3.79,0,0,0,442.18,233.68Z" fill="#f2f2f2"/><path d="M478,245.46a6.13,6.13,0,0,0,2.12-.36,8.31,8.31,0,0,0,1.82-1l1.18,1.58a7.21,7.21,0,0,1-2.39,1.34,8.12,8.12,0,0,1-2.73.49,7.28,7.28,0,0,1-3.86-1,6.21,6.21,0,0,1-2.42-2.74,10.45,10.45,0,0,1,0-8.21,6.7,6.7,0,0,1,2.43-2.85,7,7,0,0,1,3.88-1A7.81,7.81,0,0,1,483,233.5l-1.18,1.61a6.89,6.89,0,0,0-3.91-1.35,4.08,4.08,0,0,0-3.23,1.47,6.77,6.77,0,0,0-1.27,4.47,6.34,6.34,0,0,0,1.27,4.4A4.21,4.21,0,0,0,478,245.46Z" fill="#f2f2f2"/><path d="M494.15,231.74a5.75,5.75,0,0,1,4.85,2.14,9.28,9.28,0,0,1,1.64,5.75,10.57,10.57,0,0,1-.75,4.11,6.3,6.3,0,0,1-2.2,2.8,6.13,6.13,0,0,1-3.57,1,5.76,5.76,0,0,1-4.87-2.16,9.2,9.2,0,0,1-1.66-5.73,10.64,10.64,0,0,1,.75-4.13,5.89,5.89,0,0,1,5.81-3.79Zm0,2a3.35,3.35,0,0,0-3,1.46,8,8,0,0,0-1,4.49,8.1,8.1,0,0,0,1,4.46,3.72,3.72,0,0,0,5.89,0,10.66,10.66,0,0,0,0-9A3.29,3.29,0,0,0,494.15,233.71Z" fill="#f2f2f2"/><path d="M505.65,247.22V232.06h2.06l.19,2.1a6,6,0,0,1,2.3-1.79,6.52,6.52,0,0,1,2.71-.63,4.06,4.06,0,0,1,3.25,1.18,4.91,4.91,0,0,1,1,3.28v11h-2.42V238a14.21,14.21,0,0,0-.17-2.51,2.17,2.17,0,0,0-.73-1.39,2.64,2.64,0,0,0-1.69-.45,3.77,3.77,0,0,0-1.68.39,5.68,5.68,0,0,0-1.39,1,7.62,7.62,0,0,0-1,1.17v11.05Z" fill="#f2f2f2"/><path d="M528.09,245.55a5.08,5.08,0,0,0,2.76-.65,2,2,0,0,0,1-1.76,2.59,2.59,0,0,0-.25-1.18,2.3,2.3,0,0,0-1-.91,11.18,11.18,0,0,0-2.39-.81,16.8,16.8,0,0,1-2.73-.9,4.58,4.58,0,0,1-1.8-1.34,3.32,3.32,0,0,1-.64-2.13,3.49,3.49,0,0,1,1.6-3,7.13,7.13,0,0,1,4.16-1.11,9.34,9.34,0,0,1,3.19.49,9.24,9.24,0,0,1,2.31,1.18l-1.07,1.64a8,8,0,0,0-1.89-1,7.45,7.45,0,0,0-2.51-.38,4.4,4.4,0,0,0-2.54.55,1.71,1.71,0,0,0-.75,1.44,1.69,1.69,0,0,0,.37,1.11,3.13,3.13,0,0,0,1.25.79,24.21,24.21,0,0,0,2.42.76,14.09,14.09,0,0,1,2.59,1,4.45,4.45,0,0,1,1.72,1.43,4,4,0,0,1,.61,2.3,3.71,3.71,0,0,1-.92,2.61,5.34,5.34,0,0,1-2.38,1.46,10.5,10.5,0,0,1-3.09.45,9.16,9.16,0,0,1-3.51-.6,8.72,8.72,0,0,1-2.42-1.44l1.38-1.6a7.66,7.66,0,0,0,2.05,1.19A6.85,6.85,0,0,0,528.09,245.55Z" fill="#f2f2f2"/><path d="M546,231.74a5.75,5.75,0,0,1,4.85,2.14,9.28,9.28,0,0,1,1.64,5.75,10.57,10.57,0,0,1-.75,4.11,6.3,6.3,0,0,1-2.2,2.8,6.13,6.13,0,0,1-3.57,1,5.77,5.77,0,0,1-4.87-2.16,9.2,9.2,0,0,1-1.65-5.73,10.64,10.64,0,0,1,.74-4.13,5.89,5.89,0,0,1,5.81-3.79Zm0,2a3.36,3.36,0,0,0-3,1.46,8,8,0,0,0-1,4.49,8.1,8.1,0,0,0,1,4.46,3.72,3.72,0,0,0,5.89,0,10.66,10.66,0,0,0,0-9A3.29,3.29,0,0,0,546,233.71Z" fill="#f2f2f2"/><path d="M563.4,226v17.53a1.78,1.78,0,0,0,.7,1.59,3.16,3.16,0,0,0,1.8.47,5.66,5.66,0,0,0,1.31-.15,8.45,8.45,0,0,0,1.24-.39l.65,1.77a7.11,7.11,0,0,1-1.53.54,8.17,8.17,0,0,1-2.07.24,4.76,4.76,0,0,1-3.27-1.11,4,4,0,0,1-1.25-3.09V227.87h-4.65V226Z" fill="#f2f2f2"/><path d="M576.67,240.5a5.37,5.37,0,0,0,1.39,3.83,4.34,4.34,0,0,0,3.05,1.21,6,6,0,0,0,2.1-.35,9.41,9.41,0,0,0,1.95-1l1.13,1.6a8.35,8.35,0,0,1-2.41,1.31,8.71,8.71,0,0,1-2.8.47,6.82,6.82,0,0,1-3.76-1,6.37,6.37,0,0,1-2.37-2.77,9.91,9.91,0,0,1-.81-4.13,9.79,9.79,0,0,1,.81-4.09,6.69,6.69,0,0,1,2.31-2.81,6,6,0,0,1,3.5-1,5.55,5.55,0,0,1,4.52,2,8.26,8.26,0,0,1,1.65,5.44c0,.26,0,.5,0,.73s0,.43,0,.6Zm4.12-6.77a3.73,3.73,0,0,0-2.82,1.19,5.67,5.67,0,0,0-1.28,3.7h7.9a5.74,5.74,0,0,0-1.06-3.66A3.37,3.37,0,0,0,580.79,233.73Z" fill="#f2f2f2"/><path d="M614.49,245.55a5.08,5.08,0,0,0,2.76-.65,2,2,0,0,0,1-1.76A2.59,2.59,0,0,0,618,242a2.3,2.3,0,0,0-1-.91,11,11,0,0,0-2.39-.81,16.8,16.8,0,0,1-2.73-.9,4.58,4.58,0,0,1-1.8-1.34,3.32,3.32,0,0,1-.64-2.13,3.49,3.49,0,0,1,1.6-3,7.13,7.13,0,0,1,4.16-1.11,9.34,9.34,0,0,1,3.19.49,9.24,9.24,0,0,1,2.31,1.18l-1.06,1.64a8.29,8.29,0,0,0-1.9-1,7.41,7.41,0,0,0-2.51-.38,4.4,4.4,0,0,0-2.54.55,1.73,1.73,0,0,0-.74,1.44,1.68,1.68,0,0,0,.36,1.11,3.13,3.13,0,0,0,1.25.79,24.21,24.21,0,0,0,2.42.76,14.09,14.09,0,0,1,2.59,1,4.45,4.45,0,0,1,1.72,1.43,4,4,0,0,1,.61,2.3,3.67,3.67,0,0,1-.92,2.61,5.34,5.34,0,0,1-2.38,1.46,10.5,10.5,0,0,1-3.09.45A9.2,9.2,0,0,1,611,247a8.72,8.72,0,0,1-2.42-1.44l1.38-1.6a7.66,7.66,0,0,0,2,1.19A6.85,6.85,0,0,0,614.49,245.55Z" fill="#f2f2f2"/><path d="M638.65,246.46a6.23,6.23,0,0,1-1.88.8,8.33,8.33,0,0,1-2.18.29,5.22,5.22,0,0,1-3.77-1.28,4.39,4.39,0,0,1-1.33-3.3v-9H626v-1.87h3.48v-3.45l2.42-.28v3.73h5.25l-.29,1.87h-5v9a2.61,2.61,0,0,0,.67,1.93,3.11,3.11,0,0,0,2.23.67,5.62,5.62,0,0,0,1.57-.21,7.15,7.15,0,0,0,1.34-.51Z" fill="#f2f2f2"/><path d="M654.75,243.91a2.35,2.35,0,0,0,.3,1.34,1.71,1.71,0,0,0,.94.6l-.59,1.7a3.87,3.87,0,0,1-1.71-.63,2.78,2.78,0,0,1-1.07-1.5,5.25,5.25,0,0,1-2,1.59,6.64,6.64,0,0,1-2.7.54,4.94,4.94,0,0,1-3.59-1.28,4.55,4.55,0,0,1-1.31-3.4,4.11,4.11,0,0,1,1.83-3.6,9.38,9.38,0,0,1,5.29-1.25h2.23v-1.27a2.68,2.68,0,0,0-1-2.33,4.55,4.55,0,0,0-2.66-.68,10.17,10.17,0,0,0-1.75.18,14,14,0,0,0-2.19.6l-.64-1.83a14.28,14.28,0,0,1,2.62-.73,13,13,0,0,1,2.34-.22,6.06,6.06,0,0,1,4.25,1.32,4.66,4.66,0,0,1,1.42,3.58Zm-6.26,1.8a4.32,4.32,0,0,0,2.14-.57,5,5,0,0,0,1.69-1.58v-3.9h-2.19a5.63,5.63,0,0,0-3.54.86,2.89,2.89,0,0,0-1,2.32C645.57,244.75,646.54,245.71,648.49,245.71Z" fill="#f2f2f2"/><path d="M673.21,246.46a6.12,6.12,0,0,1-1.88.8,8.33,8.33,0,0,1-2.18.29,5.22,5.22,0,0,1-3.77-1.28,4.39,4.39,0,0,1-1.33-3.3v-9h-3.48v-1.87h3.48v-3.45l2.42-.28v3.73h5.25l-.29,1.87h-5v9a2.61,2.61,0,0,0,.67,1.93,3.11,3.11,0,0,0,2.23.67,5.62,5.62,0,0,0,1.57-.21,7.15,7.15,0,0,0,1.34-.51Z" fill="#f2f2f2"/><path d="M680.36,240.5a5.28,5.28,0,0,0,1.39,3.83,4.3,4.3,0,0,0,3,1.21,6,6,0,0,0,2.1-.35,9.16,9.16,0,0,0,2-1l1.14,1.6a8.54,8.54,0,0,1-2.42,1.31,8.71,8.71,0,0,1-2.8.47,6.82,6.82,0,0,1-3.76-1,6.37,6.37,0,0,1-2.37-2.77,9.91,9.91,0,0,1-.81-4.13,9.79,9.79,0,0,1,.81-4.09,6.77,6.77,0,0,1,2.31-2.81,6,6,0,0,1,3.51-1,5.53,5.53,0,0,1,4.51,2,8.26,8.26,0,0,1,1.65,5.44c0,.26,0,.5,0,.73s0,.43,0,.6Zm4.11-6.77a3.73,3.73,0,0,0-2.82,1.19,5.73,5.73,0,0,0-1.28,3.7h7.91a5.8,5.8,0,0,0-1.07-3.66A3.37,3.37,0,0,0,684.47,233.73Z" fill="#f2f2f2"/><path d="M705.73,231.74a3.18,3.18,0,0,1,1.4.32,2.44,2.44,0,0,1,1.11,1.22,6.5,6.5,0,0,1,.43,2.65v11.29h-2.25v-10.9a9,9,0,0,0-.17-2.06.9.9,0,0,0-1-.63,2.54,2.54,0,0,0-1.35.42,4.52,4.52,0,0,0-1.3,1.39v11.78h-2.26v-10.9a8.45,8.45,0,0,0-.17-2.06c-.11-.42-.45-.63-1-.63a2.53,2.53,0,0,0-1.37.42,4.48,4.48,0,0,0-1.28,1.39v11.78h-2.24V232.06h1.91l.14,1.75a7,7,0,0,1,1.39-1.47,3,3,0,0,1,1.91-.6,3.46,3.46,0,0,1,1.63.41,2.53,2.53,0,0,1,1.12,1.59,5.88,5.88,0,0,1,1.4-1.45A3.22,3.22,0,0,1,705.73,231.74Z" fill="#f2f2f2"/><path d="M714.92,240.5a5.28,5.28,0,0,0,1.39,3.83,4.32,4.32,0,0,0,3,1.21,6,6,0,0,0,2.1-.35,9.16,9.16,0,0,0,1.95-1l1.14,1.6a8.54,8.54,0,0,1-2.42,1.31,8.71,8.71,0,0,1-2.8.47,6.82,6.82,0,0,1-3.76-1,6.35,6.35,0,0,1-2.36-2.77,9.76,9.76,0,0,1-.82-4.13,9.64,9.64,0,0,1,.82-4.09,6.67,6.67,0,0,1,2.3-2.81,6,6,0,0,1,3.51-1,5.53,5.53,0,0,1,4.51,2,8.26,8.26,0,0,1,1.65,5.44c0,.26,0,.5,0,.73s0,.43,0,.6Zm4.12-6.77a3.73,3.73,0,0,0-2.83,1.19,5.73,5.73,0,0,0-1.28,3.7h7.91a5.8,5.8,0,0,0-1.07-3.66A3.37,3.37,0,0,0,719,233.73Z" fill="#f2f2f2"/><path d="M730.3,247.22V232.06h2.06l.18,2.1a6,6,0,0,1,2.31-1.79,6.47,6.47,0,0,1,2.7-.63,4.06,4.06,0,0,1,3.25,1.18,4.86,4.86,0,0,1,1,3.28v11H739.4V238a14.07,14.07,0,0,0-.18-2.51,2.17,2.17,0,0,0-.72-1.39,2.68,2.68,0,0,0-1.7-.45,3.69,3.69,0,0,0-1.67.39,5.55,5.55,0,0,0-1.4,1,7.62,7.62,0,0,0-1,1.17v11.05Z" fill="#f2f2f2"/><path d="M759.62,246.46a6.3,6.3,0,0,1-1.89.8,8.33,8.33,0,0,1-2.18.29,5.22,5.22,0,0,1-3.77-1.28,4.38,4.38,0,0,1-1.32-3.3v-9H747v-1.87h3.49v-3.45l2.42-.28v3.73h5.24l-.29,1.87h-5v9a2.61,2.61,0,0,0,.66,1.93,3.11,3.11,0,0,0,2.23.67,5.57,5.57,0,0,0,1.57-.21,6.89,6.89,0,0,0,1.34-.51Z" fill="#f2f2f2"/><path d="M1093.18,247.22V232.06h2.06l.19,2.1a6,6,0,0,1,2.3-1.79,6.52,6.52,0,0,1,2.71-.63,4.06,4.06,0,0,1,3.25,1.18,4.91,4.91,0,0,1,1,3.28v11h-2.42V238a14.21,14.21,0,0,0-.17-2.51,2.17,2.17,0,0,0-.73-1.39,2.64,2.64,0,0,0-1.69-.45,3.77,3.77,0,0,0-1.68.39,5.5,5.5,0,0,0-1.39,1,7.62,7.62,0,0,0-1,1.17v11.05Z" fill="#757575"/><path d="M1116.24,231.74a5.75,5.75,0,0,1,4.85,2.14,9.28,9.28,0,0,1,1.64,5.75,10.57,10.57,0,0,1-.75,4.11,6.3,6.3,0,0,1-2.2,2.8,6.13,6.13,0,0,1-3.57,1,5.76,5.76,0,0,1-4.87-2.16,9.2,9.2,0,0,1-1.66-5.73,10.64,10.64,0,0,1,.75-4.13,5.89,5.89,0,0,1,5.81-3.79Zm0,2a3.35,3.35,0,0,0-3,1.46,8,8,0,0,0-1,4.49,8.1,8.1,0,0,0,1,4.46,3.72,3.72,0,0,0,5.89,0,10.66,10.66,0,0,0,0-9A3.29,3.29,0,0,0,1116.24,233.71Z" fill="#757575"/><path d="M1127.71,240.41v-2.1h11.55v2.1Z" fill="#757575"/><path d="M1151.88,245.46a6.13,6.13,0,0,0,2.12-.36,8.09,8.09,0,0,0,1.82-1l1.18,1.58a7.21,7.21,0,0,1-2.39,1.34,8.12,8.12,0,0,1-2.73.49,7.22,7.22,0,0,1-3.85-1,6.23,6.23,0,0,1-2.43-2.74,10.45,10.45,0,0,1,0-8.21,6.76,6.76,0,0,1,2.43-2.85,7,7,0,0,1,3.88-1,7.79,7.79,0,0,1,5.06,1.76l-1.18,1.61a6.89,6.89,0,0,0-3.91-1.35,4.08,4.08,0,0,0-3.23,1.47,6.77,6.77,0,0,0-1.27,4.47,6.34,6.34,0,0,0,1.27,4.4A4.21,4.21,0,0,0,1151.88,245.46Z" fill="#757575"/><path d="M1168.08,231.74a5.75,5.75,0,0,1,4.85,2.14,9.28,9.28,0,0,1,1.64,5.75,10.57,10.57,0,0,1-.75,4.11,6.3,6.3,0,0,1-2.2,2.8,6.13,6.13,0,0,1-3.57,1,5.77,5.77,0,0,1-4.87-2.16,9.2,9.2,0,0,1-1.65-5.73,10.64,10.64,0,0,1,.74-4.13,5.89,5.89,0,0,1,5.81-3.79Zm0,2a3.36,3.36,0,0,0-3,1.46,8,8,0,0,0-1,4.49,8.1,8.1,0,0,0,1,4.46,3.72,3.72,0,0,0,5.89,0,10.66,10.66,0,0,0,0-9A3.29,3.29,0,0,0,1168.08,233.71Z" fill="#757575"/><path d="M1179.58,247.22V232.06h2.06l.19,2.1a6,6,0,0,1,2.3-1.79,6.55,6.55,0,0,1,2.71-.63,4.06,4.06,0,0,1,3.25,1.18,4.91,4.91,0,0,1,1,3.28v11h-2.42V238a14.21,14.21,0,0,0-.17-2.51,2.17,2.17,0,0,0-.73-1.39,2.64,2.64,0,0,0-1.69-.45,3.77,3.77,0,0,0-1.68.39,5.68,5.68,0,0,0-1.39,1,7.62,7.62,0,0,0-1,1.17v11.05Z" fill="#757575"/><path d="M1202,245.55a5.08,5.08,0,0,0,2.76-.65,2,2,0,0,0,1-1.76,2.59,2.59,0,0,0-.25-1.18,2.3,2.3,0,0,0-1-.91,11.18,11.18,0,0,0-2.39-.81,16.8,16.8,0,0,1-2.73-.9,4.58,4.58,0,0,1-1.8-1.34,3.32,3.32,0,0,1-.64-2.13,3.49,3.49,0,0,1,1.6-3,7.13,7.13,0,0,1,4.16-1.11,9.34,9.34,0,0,1,3.19.49,9.24,9.24,0,0,1,2.31,1.18l-1.06,1.64a8.29,8.29,0,0,0-1.9-1,7.41,7.41,0,0,0-2.51-.38,4.4,4.4,0,0,0-2.54.55,1.73,1.73,0,0,0-.74,1.44,1.68,1.68,0,0,0,.36,1.11,3.13,3.13,0,0,0,1.25.79,24.21,24.21,0,0,0,2.42.76,14.09,14.09,0,0,1,2.59,1,4.45,4.45,0,0,1,1.72,1.43,4,4,0,0,1,.61,2.3,3.67,3.67,0,0,1-.92,2.61,5.34,5.34,0,0,1-2.38,1.46,10.5,10.5,0,0,1-3.09.45,9.2,9.2,0,0,1-3.51-.6,8.72,8.72,0,0,1-2.42-1.44l1.38-1.6a7.66,7.66,0,0,0,2,1.19A6.85,6.85,0,0,0,1202,245.55Z" fill="#757575"/><path d="M1219.92,231.74a5.75,5.75,0,0,1,4.85,2.14,9.22,9.22,0,0,1,1.64,5.75,10.57,10.57,0,0,1-.75,4.11,6.23,6.23,0,0,1-2.2,2.8,6.13,6.13,0,0,1-3.57,1,5.77,5.77,0,0,1-4.87-2.16,9.2,9.2,0,0,1-1.65-5.73,10.83,10.83,0,0,1,.74-4.13,5.91,5.91,0,0,1,5.81-3.79Zm0,2a3.36,3.36,0,0,0-3,1.46,8,8,0,0,0-1,4.49,8.1,8.1,0,0,0,1,4.46,3.34,3.34,0,0,0,3,1.44,3.3,3.3,0,0,0,2.94-1.45,10.66,10.66,0,0,0,0-9A3.29,3.29,0,0,0,1219.92,233.71Z" fill="#757575"/><path d="M1237.33,226v17.53a1.78,1.78,0,0,0,.7,1.59,3.16,3.16,0,0,0,1.8.47,5.6,5.6,0,0,0,1.31-.15,8.45,8.45,0,0,0,1.24-.39l.65,1.77a7.11,7.11,0,0,1-1.53.54,8.17,8.17,0,0,1-2.07.24,4.76,4.76,0,0,1-3.27-1.11,4,4,0,0,1-1.25-3.09V227.87h-4.65V226Z" fill="#757575"/><path d="M1250.6,240.5a5.37,5.37,0,0,0,1.39,3.83,4.34,4.34,0,0,0,3,1.21,6,6,0,0,0,2.1-.35,9.16,9.16,0,0,0,1.95-1l1.13,1.6a8.35,8.35,0,0,1-2.41,1.31,8.71,8.71,0,0,1-2.8.47,6.82,6.82,0,0,1-3.76-1,6.37,6.37,0,0,1-2.37-2.77,9.91,9.91,0,0,1-.81-4.13,9.79,9.79,0,0,1,.81-4.09,6.69,6.69,0,0,1,2.31-2.81,6,6,0,0,1,3.5-1,5.54,5.54,0,0,1,4.52,2,8.26,8.26,0,0,1,1.65,5.44c0,.26,0,.5,0,.73s0,.43,0,.6Zm4.12-6.77a3.73,3.73,0,0,0-2.82,1.19,5.67,5.67,0,0,0-1.28,3.7h7.91a5.8,5.8,0,0,0-1.07-3.66A3.37,3.37,0,0,0,1254.72,233.73Z" fill="#757575"/><rect x="39" y="151.87" width="96" height="123" fill="none" stroke="#757575" stroke-miterlimit="10" stroke-width="2"/><rect x="147" y="151.87" width="106" height="123" fill="none" stroke="#757575" stroke-miterlimit="10" stroke-width="2"/><rect x="269" y="151.87" width="798" height="123" fill="none" stroke="#757575" stroke-miterlimit="10" stroke-width="2"/><rect x="1079" y="151.87" width="196" height="123" fill="none" stroke="#757575" stroke-miterlimit="10" stroke-width="2"/><path d="M58.42,58.78c-.05.12-.24.22-.53.17a33.4,33.4,0,0,1-6,5.55,7.8,7.8,0,0,0-.94-1.3A23.11,23.11,0,0,0,56.55,58ZM54.75,80.29V69.73A32,32,0,0,1,52,72.46a9,9,0,0,0-1-1.24,30.77,30.77,0,0,0,6.58-8l1.87.76c-.07.15-.26.24-.55.2a36.21,36.21,0,0,1-2.48,3.6l.44.14c-.05.14-.19.26-.48.31v12.1ZM73.3,66.49v1.56H69.49V78.2c0,2-.77,2.06-5.62,2.06a6.13,6.13,0,0,0-.53-1.58c1.06,0,2,0,2.79,0,1.56,0,1.72,0,1.72-.55V68.05H59.5V66.49Zm-.91-7V61h-12V59.5Z" fill="#f2f2f2"/><path d="M96.89,66.2H88.71a24.61,24.61,0,0,0,8.81,4.66,7.51,7.51,0,0,0-1.11,1.36c-.74-.26-1.53-.57-2.32-.93v8.93H92.48v-.77H80.21v.86H78.65V71.24A20.82,20.82,0,0,1,76,72.44a7.3,7.3,0,0,0-1-1.27,24.81,24.81,0,0,0,8.64-5h-8V64.81H81a15,15,0,0,0-1.83-3.15l1.39-.52a12.17,12.17,0,0,1,2,3.31l-.91.36h3.75V60.75c-2.69.22-5.5.39-8.09.48A6.15,6.15,0,0,0,76.88,60,122.06,122.06,0,0,0,93.49,58.3l1.17,1.3a.28.28,0,0,1-.21,0,.89.89,0,0,1-.27,0c-1.89.39-4.46.72-7.25,1v4.2h3.41c-.26-.12-.53-.22-.69-.29a22.72,22.72,0,0,0,2.16-3.84l1.94.72a.51.51,0,0,1-.5.22,36.47,36.47,0,0,1-2.07,3.19h5.71Zm-11.56.24A25.22,25.22,0,0,1,79.21,71H93.39a24.44,24.44,0,0,1-6.46-4.58V70.5h-1.6Zm0,8.09V72.25H80.21v2.28Zm-5.16,1.2v2.4h5.16v-2.4Zm12.27-1.2V72.25H86.91v2.28Zm-5.57,3.6h5.57v-2.4H86.91Z" fill="#f2f2f2"/><path d="M121.21,69.54H106.52c-.22.72-.51,1.51-.77,2.32H116.6l.38-.07,1,.34a1.65,1.65,0,0,1-.14.43c-.65,4.42-1.27,6.31-2.18,7.1-.6.56-1.16.68-2.79.68-.86,0-2.09,0-3.36-.15a3.06,3.06,0,0,0-.55-1.51c1.75.14,3.53.17,4.18.17a1.93,1.93,0,0,0,1.17-.22c.7-.53,1.2-2,1.71-5.25H105.2c-.24.64-.46,1.24-.68,1.75a16.43,16.43,0,0,0-1.72-.31,52.07,52.07,0,0,0,1.94-5.28H99.17V68.05h22Zm-3.39-10.33v6.94h-15V59.21Zm-1.65,5.48v-4H104.38v4Z" fill="#f2f2f2"/><path d="M51.44,102.87v-1.51H63.53v1.51H57.41a36.18,36.18,0,0,1-1.22,3.91h5.4l.29-.07,1,.46a.77.77,0,0,1-.22.26c-1.29,7.68-4.68,12.48-9.14,15a6.82,6.82,0,0,0-1.23-1.23,14.85,14.85,0,0,0,6.1-5.85,41.26,41.26,0,0,0-4.22-2.88l.79-1.18a37.62,37.62,0,0,1,4.15,2.67,23.79,23.79,0,0,0,1.8-5.64H55.56A18.42,18.42,0,0,1,51.82,114a8.92,8.92,0,0,0-1.13-1.08c2.59-2.47,4.23-6.48,5.07-10.06Zm13.17-.05,2.07.12c0,.17-.17.29-.48.34v12.86H64.61Zm6-2.37,2.09.12c0,.19-.15.28-.48.33v19.2c0,2.12-.94,2.21-5.31,2.21a7.42,7.42,0,0,0-.57-1.61c1,0,1.92,0,2.61,0,1.47,0,1.66,0,1.66-.62Z" fill="#f2f2f2"/><path d="M96.89,108.2H88.71a24.61,24.61,0,0,0,8.81,4.66,7.51,7.51,0,0,0-1.11,1.36c-.74-.26-1.53-.57-2.32-.93v8.93H92.48v-.77H80.21v.86H78.65v-9.07a20.82,20.82,0,0,1-2.69,1.2,7.3,7.3,0,0,0-1-1.27,24.81,24.81,0,0,0,8.64-5h-8v-1.39H81a15,15,0,0,0-1.83-3.15l1.39-.52a12.17,12.17,0,0,1,2,3.31l-.91.36h3.75v-4.06c-2.69.22-5.5.39-8.09.48a6.15,6.15,0,0,0-.36-1.25,122.06,122.06,0,0,0,16.61-1.68l1.17,1.3a.28.28,0,0,1-.21.05.89.89,0,0,1-.27,0c-1.89.39-4.46.72-7.25,1v4.2h3.41c-.26-.12-.53-.22-.69-.29a22.72,22.72,0,0,0,2.16-3.84l1.94.72a.51.51,0,0,1-.5.22,36.47,36.47,0,0,1-2.07,3.19h5.71Zm-11.56.24A25.22,25.22,0,0,1,79.21,113H93.39a24.44,24.44,0,0,1-6.46-4.58v4.13h-1.6Zm0,8.09v-2.28H80.21v2.28Zm-5.16,1.2v2.4h5.16v-2.4Zm12.27-1.2v-2.28H86.91v2.28Zm-5.57,3.6h5.57v-2.4H86.91Z" fill="#f2f2f2"/><path d="M121.21,111.54H106.52c-.22.72-.51,1.51-.77,2.32H116.6l.38-.07,1,.34a1.65,1.65,0,0,1-.14.43c-.65,4.42-1.27,6.31-2.18,7.1-.6.56-1.16.68-2.79.68-.86,0-2.09,0-3.36-.15a3.06,3.06,0,0,0-.55-1.51c1.75.14,3.53.17,4.18.17a1.93,1.93,0,0,0,1.17-.22c.7-.53,1.2-2,1.71-5.25H105.2c-.24.64-.46,1.24-.68,1.75a16.43,16.43,0,0,0-1.72-.31,52.07,52.07,0,0,0,1.94-5.28H99.17v-1.49h22Zm-3.39-10.33v6.94h-15v-6.94Zm-1.65,5.48v-4H104.38v4Z" fill="#f2f2f2"/><path d="M176.68,122.3h10.18v1.34H165.09V122.3h10V120h-8.16v-1.32h8.16V116.9h-7.39v-7.52h7.39v-1.6h-9.84v-1.35h9.84v-1.89c-2.56.16-5.25.28-7.72.36a5.32,5.32,0,0,0-.36-1.28,118.79,118.79,0,0,0,16.36-1.37l1.18,1.3a.34.34,0,0,1-.24.07,1.32,1.32,0,0,1-.24,0c-1.92.33-4.54.62-7.37.84v2h10v1.35h-10v1.6h7.73v7.52h-7.73v1.82h8.64V120h-8.64Zm-7.41-11.72v2h5.8v-2Zm0,5.12h5.8v-2h-5.8Zm13.51-5.12h-6.1v2h6.1Zm0,5.12v-2h-6.1v2Z" fill="#f2f2f2"/><path d="M210.69,110.85h-9.38c1.56,5.73,4.65,10.15,9.76,12.05a6.72,6.72,0,0,0-1.19,1.51c-5-2.07-8.07-6.31-9.85-12.1a16.43,16.43,0,0,1-9.91,12.12,6.12,6.12,0,0,0-1.15-1.37c6.34-2.56,8.71-7.36,9.62-12.21h-9.26v-1.66h9.53a60.6,60.6,0,0,0,.31-7l2.26.12c0,.21-.22.33-.53.41a59.8,59.8,0,0,1-.34,6.5h10.13Z" fill="#f2f2f2"/><path d="M234.93,106.1h-18.6v5.56c0,3.75-.29,9.2-2.4,12.87a4.92,4.92,0,0,0-1.32-.91c2-3.48,2.16-8.43,2.16-12v-7h9v-2.48l2.13.15c0,.17-.14.29-.48.33v2h9.46ZM231.71,116l1.08.53a.43.43,0,0,1-.24.24,12.07,12.07,0,0,1-4.89,4.68,28.9,28.9,0,0,0,7.49,1.65,6,6,0,0,0-1,1.42,29.36,29.36,0,0,1-8.24-2.23,31.7,31.7,0,0,1-8.71,2.18,5.34,5.34,0,0,0-.69-1.37,33,33,0,0,0,7.8-1.68,12.66,12.66,0,0,1-4-3.62l1-.38h-3.82V116h13.9Zm-1.27-1.68h-9.19v-4h-3.91V109h3.91v-2.21l2,.15c0,.17-.17.29-.48.31V109h6.07v-2.21l2.06.15c0,.17-.17.29-.48.31V109h4.35v1.35h-4.35Zm-8.61,3.1a11.5,11.5,0,0,0,4.17,3.31,12.27,12.27,0,0,0,4.3-3.31Zm7-7.08h-6.07V113h6.07Z" fill="#f2f2f2"/><path d="M574.79,111.66h-7.11v12.8H566.1V103.19h8.69Zm-1.54-7.15h-5.57v2.21h5.57Zm-5.57,5.83h5.57v-2.4h-5.57ZM580.4,121h-7.56v1.46h-1.53v-8.52h9.09Zm-1.53-5.66h-6v4.27h6Zm7.1-12.15v19c0,1.12-.29,1.65-1,1.94a15.39,15.39,0,0,1-4.3.31,6.79,6.79,0,0,0-.6-1.68c.84,0,1.63,0,2.31,0,1.87,0,2,0,2-.65V111.66h-7.29v-8.47Zm-1.61,1.32h-5.73v2.21h5.73Zm-5.73,5.83h5.73v-2.4h-5.73Z" fill="#f2f2f2"/><path d="M595.26,117.9v3.51c2,.91,4.63,1.08,7.77,1.1,1,0,6.89,0,8.21-.05a5.1,5.1,0,0,0-.6,1.42H603c-5.42,0-9.19-.6-11.42-4a9.76,9.76,0,0,1-1.92,4.53,4.05,4.05,0,0,0-1-.91c1.48-1.8,1.89-5.18,2-8.16l1.8.17c0,.17-.17.29-.45.31-.05.72-.1,1.49-.2,2.28a7.06,7.06,0,0,0,2,2.45V113.9h-4.9v-1.3h11v1.3h-4.63v2.73h4.22v1.27Zm3.14-14.73v7.56h-8v-7.56Zm-1.51,3.16v-1.94h-5v1.94Zm0,3.17v-2h-5v2Zm7.44,8.84a.48.48,0,0,1-.48.19,15.85,15.85,0,0,1-4.25,3.14,7.45,7.45,0,0,0-1-1,12.06,12.06,0,0,0,4-3Zm-3.55-11.6h2.88c.21-.64.48-1.44.67-2.13h-4.66v-1.25h11.21v1.25h-5.09a21.71,21.71,0,0,1-.74,2.13h4.63V117.4h-8.9Zm7.39,3.15V108h-5.9v1.92Zm0,3.12v-2h-5.9v2Zm0,3.14v-2h-5.9v2Zm1.58,5.43a26.33,26.33,0,0,0-3.6-3.08l1.08-.67a30.83,30.83,0,0,1,3.92,3.1Z" fill="#f2f2f2"/><path d="M617.79,119.22a12.69,12.69,0,0,1-3.52,5.26l-1.47-.77a11.06,11.06,0,0,0,3.48-4.92Zm14.28-9.84v7.92h-16.2v-7.92H623v-7.27l2.12.12c0,.17-.17.29-.51.34v2.28h9.34v1.53h-9.34v3Zm-1.63,6.41V110.9h-13v4.89Zm-9.62,8.38a28.66,28.66,0,0,0-.53-4.78l1.54-.12a26.15,26.15,0,0,1,.62,4.68Zm6.09,0a23.75,23.75,0,0,0-1.72-4.7l1.48-.34a23.09,23.09,0,0,1,1.8,4.66Zm6.87.27a26.19,26.19,0,0,0-3.79-5.19l1.44-.64a25.38,25.38,0,0,1,3.86,5.08Z" fill="#f2f2f2"/><path d="M649.35,106.5a.61.61,0,0,1-.6.39c-.86,7.46-3.36,14-7.34,14-2,0-3.84-2-3.84-5.81a10.54,10.54,0,0,1,10.8-10.59c6.94,0,9.94,4.4,9.94,9.08,0,5.71-3.32,8.47-9.12,9.81a10.17,10.17,0,0,0-1-1.46c5.52-1.06,8.35-3.75,8.35-8.28,0-4-2.54-7.56-8.16-7.56a5.55,5.55,0,0,0-.72,0Zm-2.3-.31A8.84,8.84,0,0,0,639.2,115c0,2.57,1.11,4.18,2.26,4.18C644.36,119.18,646.45,112.77,647.05,106.19Z" fill="#f2f2f2"/><path d="M669.59,106.24v1.37h-8.81v-1.37Zm-.77,10v7.06H663.3v1.13h-1.42v-8.19Zm-.07-6.62v1.32h-6.84V109.6Zm-6.84,4.63v-1.32h6.84v1.32ZM668.67,103v1.32h-6.62V103Zm-1.29,14.59H663.3v4.32h4.08Zm7.92-2c0,.17-.19.27-.48.31-.39,3.53-1.23,6.75-4.87,8.55a4.23,4.23,0,0,0-1-1.25c3.29-1.51,4.06-4.34,4.32-7.82Zm3.57,6.39c0,.62.1.72.65.72h1.71c.6,0,.72-.48.76-3.82a6.17,6.17,0,0,0,1.4.65c-.12,3.72-.51,4.63-2,4.63h-2.08c-1.59,0-2-.5-2-2.18v-7.23h-6.63v-8h11.48v8h-3.12a.39.39,0,0,1-.2.05Zm-6.16-19.71a15.72,15.72,0,0,1,1.89,3.89c-.79.34-1.15.46-1.51.58a17.56,17.56,0,0,0-1.82-4Zm-.44,5.93v5.14h8.28v-5.14Zm9.72-5.38c0,.15-.24.22-.48.2a33.07,33.07,0,0,1-2,3.72c-.29-.12-1-.44-1.3-.56a29.49,29.49,0,0,0,1.8-4Z" fill="#f2f2f2"/><path d="M693.68,118.1h-6.36v2.3h-1.51V103.65h7.87Zm-1.51-13h-4.85V110h4.85Zm-4.85,11.47h4.85V111.5h-4.85Zm19-13.42v19c0,1.08-.27,1.61-1,1.87a15,15,0,0,1-4.18.31,6.14,6.14,0,0,0-.6-1.6c.82,0,1.61,0,2.26,0,1.75,0,1.94,0,1.94-.62v-5.59h-7.49a12.66,12.66,0,0,1-4.56,8,5.78,5.78,0,0,0-1.2-1.11c4.16-3.19,4.56-7.82,4.56-11.64v-8.64Zm-8.69,8.64a31.83,31.83,0,0,1-.17,3.29h7.27v-4.51h-7.1Zm7.1-7.13h-7.1v4.42h7.1Z" fill="#f2f2f2"/><path d="M1138.05,110c0,.22-.24.36-.55.41-.14,6.46-.67,12.34-4.37,16.64a13.77,13.77,0,0,0-1.44-.92c3.58-3.88,4-9.89,4.08-16.34Zm6.22,13.83a15.8,15.8,0,0,0,8-9.65,10.08,10.08,0,0,0,1.49.94A18,18,0,0,1,1144,126a1.07,1.07,0,0,1-.41.48l-1.25-1.59.26-.36V106.88l2.24.12a.56.56,0,0,1-.53.46Z" fill="#f2f2f2"/><path d="M1156.55,115.43h20v1.7h-19.13a1.14,1.14,0,0,1-.77.46Z" fill="#f2f2f2"/><path d="M1186.05,110c0,.22-.24.36-.55.41-.14,6.46-.67,12.34-4.37,16.64a13.77,13.77,0,0,0-1.44-.92c3.58-3.88,4-9.89,4.08-16.34Zm6.22,13.83a15.8,15.8,0,0,0,8-9.65,10.08,10.08,0,0,0,1.49.94A18,18,0,0,1,1192,126a1.07,1.07,0,0,1-.41.48l-1.25-1.59.26-.36V106.88l2.24.12a.56.56,0,0,1-.53.46Z" fill="#f2f2f2"/><path d="M1224.09,117.61v10.3h-1.65v-1h-10.35v1h-1.58v-7.92a28.84,28.84,0,0,1-6.2,2.83,5.4,5.4,0,0,0-.91-1.41,27.65,27.65,0,0,0,9.15-4.78,24.66,24.66,0,0,0-3.89-3.38l1.2-1a23.3,23.3,0,0,1,4,3.29,20.73,20.73,0,0,0,4.68-6h-7.63a27,27,0,0,1-6.17,5.2,5.12,5.12,0,0,0-1.15-1.22,21.69,21.69,0,0,0,8.13-8l2.16.36c0,.19-.21.31-.52.31A19.32,19.32,0,0,1,1212,108h7.4l.28-.09,1.18.62a.7.7,0,0,1-.31.22,22.81,22.81,0,0,1-6.77,8.85Zm-12,7.8h10.35V119.1h-10.35Z" fill="#f2f2f2"/></g></g></svg>