<svg xmlns="http://www.w3.org/2000/svg" viewBox="0 0 420.87 420.81"><g id="レイヤー_2" data-name="レイヤー 2"><g id="レイヤー_1-2" data-name="レイヤー 1"><path d="M210.46,210.41,32,98.91C71.44,35.84,136.09,0,210.46,0Z" fill="#589fef"/><path d="M210.46,210.41l-65,200.1C34.93,374.6-25.55,255.9,10.35,145.39A194.52,194.52,0,0,1,32,98.91Z" fill="#0071bc"/><path d="M210.46,210.41V0C326.67,0,420.87,94.2,420.87,210.41s-94.2,210.4-210.41,210.4a199.84,199.84,0,0,1-65-10.3Z" fill="#00468b"/><path d="M79.93,79.42q0,10.53-6,13.76v-2.9q3.38-3.28,3.38-10.8V78.33h2.65Zm9.2,13.76q-6-3.23-6-13.76V78.33h2.66v1.15q0,7.51,3.37,10.78ZM88.06,79.87H86.5V77.28h1.56Zm2.27,0H88.77V77.28h1.56Z" fill="#fff"/><path d="M96.76,86.82H94.29a41.61,41.61,0,0,0-1.42-6.28h2.36A45.14,45.14,0,0,1,96.76,86.82Zm9.18-6.07q0,5.7-2.65,8.73c-1.65,1.93-4.16,3.14-7.52,3.66V90.82q4.19-.87,6-3.35c1.08-1.52,1.62-3.77,1.62-6.73v-.26h2.59Zm-4.75,5.93H98.7a48.09,48.09,0,0,0-1.33-6.29h2.36A45.79,45.79,0,0,1,101.19,86.68Z" fill="#fff"/><path d="M122.26,88.23q-3.18,4.24-9.86,4.77V90.64q8.88-1,9.72-9.69h-6.71a9.92,9.92,0,0,1-2.2,3.33,8.79,8.79,0,0,1-3.31,2.16V83.81a8,8,0,0,0,3.54-5.23h11.49Q124.93,84.66,122.26,88.23Z" fill="#fff"/><path d="M140.26,88.23q-3.18,4.24-9.86,4.77V90.64q8.88-1,9.72-9.69h-6.71a9.92,9.92,0,0,1-2.2,3.33,8.79,8.79,0,0,1-3.31,2.16V83.81a8,8,0,0,0,3.54-5.23h11.49Q142.93,84.66,140.26,88.23Z" fill="#fff"/><path d="M160.21,84.35h-2.5v8.9h-2.47v-8.9h-.41a13.21,13.21,0,0,1-2.93,5.43A11.5,11.5,0,0,1,147.1,93V90.6a10.63,10.63,0,0,0,5.24-6.25h-5.13V82.09h8V79.84h2.47v2.25h2.5Z" fill="#fff"/><path d="M178.89,86H164.17V83.51h14.72Z" fill="#fff"/><path d="M196.57,87.67q-4.66-1.26-9.9-2.32v7.81H184V77.89h2.67v4.9Q193,84,196.57,85Z" fill="#fff"/><path d="M121.39,129.54H109.47v-3.07h4.39V114.85l-3.15,2.4-1.77-2.52,5.33-4h3.16v15.77h4Z" fill="#fff"/><path d="M140,123.3a6.15,6.15,0,0,1-1.73,4.61,7.4,7.4,0,0,1-5.37,1.82q-7.31,0-7.3-9.5a11.23,11.23,0,0,1,2-7,7,7,0,0,1,5.86-2.67,7.54,7.54,0,0,1,6.62,3.2l-3,1.72a5.05,5.05,0,0,0-1.7-1.46,4.69,4.69,0,0,0-2-.36,3.58,3.58,0,0,0-2.91,1.44,7.9,7.9,0,0,0-1.44,4.78,6.77,6.77,0,0,1,5.36-2.28A5.29,5.29,0,0,1,140,123.3Zm-10.68.12q.75,3.17,3.46,3.17a4,4,0,0,0,2.78-.88,2.88,2.88,0,0,0,1-2.26,2.94,2.94,0,0,0-.74-2.1,2.69,2.69,0,0,0-2.07-.78,4.66,4.66,0,0,0-2.68.88A4.82,4.82,0,0,0,129.36,123.42Z" fill="#fff"/><path d="M151.54,115.43c0,3.3-1.36,4.94-4.08,4.94s-4.08-1.64-4.08-4.94,1.36-4.94,4.08-4.94S151.54,112.13,151.54,115.43Zm10.2-4.9-13.13,19h-3.86l13.2-19Zm-12.89,4.9c0-1.74-.46-2.62-1.39-2.62s-1.42.88-1.42,2.62.47,2.64,1.42,2.64S148.85,117.19,148.85,115.43Zm14.3,9.29c0,3.29-1.36,4.94-4.1,4.94S155,128,155,124.72s1.36-5,4.08-5S163.15,121.41,163.15,124.72Zm-2.68,0c0-1.76-.48-2.64-1.42-2.64s-1.37.88-1.37,2.64.46,2.64,1.37,2.64S160.47,126.48,160.47,124.72Z" fill="#fff"/><path d="M60.15,219.85H58.64q-.39,6.21-3.44,9.46t-9.52,4v-2.4q5.52-.74,8-3.92a52.76,52.76,0,0,0-6.61-1.12V224a9.77,9.77,0,0,1-3.24,2.27v-2.66a7.74,7.74,0,0,0,2.12-2,10,10,0,0,0,1.5-2.86H56.3v-1.46h1.56v1.46h.72v-1.46h1.57Zm-4.32,1.26H49.19a12.57,12.57,0,0,1-1.73,2.5,60.66,60.66,0,0,1,7.47,1.22A13.53,13.53,0,0,0,55.83,221.11Z" fill="#fff"/><path d="M78,220H76.44c-.15,4-1.36,7.2-3.66,9.5a13.12,13.12,0,0,1-8.22,3.71v-2.37a11.3,11.3,0,0,0,6.34-3.2,10.25,10.25,0,0,0,2.69-6.33H62.54v-2.43H74.13v-1.45H75.7v1.45h.7v-1.45H78Z" fill="#fff"/><path d="M85,223.25a15.16,15.16,0,0,1-1.37,7.07,8.62,8.62,0,0,1-3.42,3.44v-2.93a6.7,6.7,0,0,0,1.59-2.42,15.08,15.08,0,0,0,.66-5V218.6H85Zm10.71-.07q-.45,9.47-8.84,10.08V218.6h2.51v11.45a4.72,4.72,0,0,0,2.75-2.54,11,11,0,0,0,1.06-4.33Z" fill="#fff"/><path d="M110.39,228.5q-3.19,4.26-9.87,4.77v-2.35q8.88-1,9.72-9.69h-6.71a9.92,9.92,0,0,1-2.2,3.33A8.79,8.79,0,0,1,98,226.72v-2.63a8.1,8.1,0,0,0,3.55-5.23h11.48Q113.05,224.94,110.39,228.5Z" fill="#fff"/><path d="M130.33,224.63h-2.5v8.9h-2.47v-8.9H125a13.21,13.21,0,0,1-2.93,5.43,11.53,11.53,0,0,1-4.79,3.18v-2.36a10.65,10.65,0,0,0,5.23-6.25h-5.13v-2.26h8v-2.25h2.47v2.25h2.5Z" fill="#fff"/><path d="M149,226.25H134.29v-2.46H149Z" fill="#fff"/><path d="M166.69,228q-4.66-1.26-9.9-2.33v7.82h-2.66V218.17h2.66v4.9q6.28,1.22,9.9,2.23Z" fill="#fff"/><path d="M92.26,269.82H78.46V268a12,12,0,0,1,3.41-5.23q2.05-1.67,4.08-3.34a4.59,4.59,0,0,0,2-3.36,1.84,1.84,0,0,0-.68-1.5A2.91,2.91,0,0,0,85.4,254a4.39,4.39,0,0,0-4.13,2.69L78,255.47q2.07-4.65,7.56-4.66a6.7,6.7,0,0,1,4.56,1.44A4.7,4.7,0,0,1,91.71,256a6.21,6.21,0,0,1-1.66,4.25,28.79,28.79,0,0,1-3.62,3,16.2,16.2,0,0,0-3.6,3.4h9.43Z" fill="#fff"/><path d="M95.48,257.34a6.2,6.2,0,0,1,1.72-4.61,7.52,7.52,0,0,1,5.4-1.82q7.28,0,7.28,9.5a11.29,11.29,0,0,1-2,7,7,7,0,0,1-5.86,2.67,7.57,7.57,0,0,1-6.62-3.19l3-1.73a5,5,0,0,0,1.71,1.46,4.61,4.61,0,0,0,2,.36,3.58,3.58,0,0,0,2.91-1.44,7.87,7.87,0,0,0,1.41-4.77,6.74,6.74,0,0,1-5.32,2.3,5.62,5.62,0,0,1-4-1.44A5.68,5.68,0,0,1,95.48,257.34Zm10.68-.12c-.5-2.11-1.64-3.17-3.44-3.17a4,4,0,0,0-2.78.88,2.88,2.88,0,0,0-1,2.27,2.94,2.94,0,0,0,.73,2.1,2.71,2.71,0,0,0,2.07.78,4.73,4.73,0,0,0,2.72-.92A4.68,4.68,0,0,0,106.16,257.22Z" fill="#fff"/><path d="M121.66,255.71q0,4.93-4.08,4.94t-4.08-4.94q0-5,4.08-5T121.66,255.71Zm10.2-4.9-13.13,19h-3.86l13.2-19ZM119,255.71c0-1.75-.46-2.62-1.39-2.62s-1.42.87-1.42,2.62.47,2.64,1.42,2.64S119,257.47,119,255.71ZM133.28,265q0,4.94-4.11,4.94T125.09,265c0-3.32,1.36-5,4.08-5S133.28,261.68,133.28,265Zm-2.69,0c0-1.76-.47-2.64-1.42-2.64s-1.37.88-1.37,2.64.46,2.64,1.37,2.64S130.59,266.76,130.59,265Z" fill="#fff"/><path d="M250.64,204.46a69.74,69.74,0,0,0-7.58-.65v-2.4a73.27,73.27,0,0,1,7.58.63Zm.18-4.77q-4.63-.62-7.6-.71v-2.37a75.58,75.58,0,0,1,7.6.63Zm6.73-.56q-.49,6.3-4.25,9.23-3.41,2.67-9.85,2.76V208.6q5.55-.18,8.16-2.27t3.24-7.2Z" fill="#fff"/><path d="M268.71,200.46a51.52,51.52,0,0,0-7.4-1v-2.58a56.52,56.52,0,0,1,7.4,1Zm6.51-1.19q-.51,6-4.06,8.89-3.32,2.67-9.65,2.88v-2.52c3.39-.25,5.91-1,7.54-2.19q2.94-2.16,3.46-7.06Z" fill="#fff"/><path d="M290.81,205.9q-3.13,4.8-10.28,5.36V208.9q8.89-1,9.74-9.68h-6.59a9.76,9.76,0,0,1-2.19,3.31,8.86,8.86,0,0,1-3.31,2.16v-2.61a8.1,8.1,0,0,0,3.54-5.24h9v-1.71h1.57v1.71H293v-1.71h1.56v2.58h-1.51A15.76,15.76,0,0,1,290.81,205.9Z" fill="#fff"/><path d="M301.4,201.22a15.32,15.32,0,0,1-1.37,7.07,8.62,8.62,0,0,1-3.42,3.44v-2.94a6.43,6.43,0,0,0,1.58-2.41,14.81,14.81,0,0,0,.67-5v-4.84h2.54Zm10.71-.08q-.45,9.48-8.84,10.08V196.57h2.5V208a4.69,4.69,0,0,0,2.75-2.54,11,11,0,0,0,1.07-4.34Z" fill="#fff"/><path d="M326.74,206.47q-3.18,4.25-9.86,4.77v-2.36q8.87-1,9.72-9.68h-6.72a9.74,9.74,0,0,1-2.19,3.33,8.82,8.82,0,0,1-3.32,2.16v-2.63a8.09,8.09,0,0,0,3.55-5.24H329.4Q329.4,202.91,326.74,206.47Z" fill="#fff"/><path d="M346.68,202.6h-2.5v8.89h-2.46V202.6h-.42a13.19,13.19,0,0,1-2.92,5.43,11.5,11.5,0,0,1-4.8,3.18v-2.36a10.66,10.66,0,0,0,5.24-6.25h-5.13v-2.27h8v-2.25h2.46v2.25h2.5Z" fill="#fff"/><path d="M365.37,204.22H350.64v-2.46h14.73Z" fill="#fff"/><path d="M383,205.91q-4.65-1.26-9.9-2.32v7.81h-2.66V196.14h2.66V201q6.28,1.22,9.9,2.23Z" fill="#fff"/><path d="M300,241.67a5.77,5.77,0,0,1-2.06,4.8,8.06,8.06,0,0,1-5.16,1.51,10.13,10.13,0,0,1-4.28-.79,7.47,7.47,0,0,1-3.26-3.15l3.29-1.65a4.85,4.85,0,0,0,4,2.52,4.17,4.17,0,0,0,3-1,2.91,2.91,0,0,0,.89-2.18,2.59,2.59,0,0,0-.85-2.08,3.57,3.57,0,0,0-2.34-.7,4.49,4.49,0,0,0-4,1.84l-3.4-.26,1-11.52h12.46v3.14h-9.29l-.48,5a8,8,0,0,1,4.66-1.27,5.8,5.8,0,0,1,4.15,1.51A5.49,5.49,0,0,1,300,241.67Z" fill="#fff"/><path d="M317.69,241.67a5.75,5.75,0,0,1-2.07,4.8,8,8,0,0,1-5.16,1.51,10.11,10.11,0,0,1-4.27-.79,7.37,7.37,0,0,1-3.26-3.15l3.29-1.65a4.84,4.84,0,0,0,4,2.52,4.17,4.17,0,0,0,3-1,2.9,2.9,0,0,0,.88-2.18,2.56,2.56,0,0,0-.85-2.08,3.57,3.57,0,0,0-2.34-.7,4.48,4.48,0,0,0-4,1.84l-3.41-.26,1-11.52H317v3.14h-9.29l-.48,5a8,8,0,0,1,4.65-1.27,5.81,5.81,0,0,1,4.16,1.51A5.49,5.49,0,0,1,317.69,241.67Z" fill="#fff"/><path d="M329,233.68q0,4.94-4.08,4.94c-2.71,0-4.08-1.65-4.08-4.94s1.37-5,4.08-5S329,230.38,329,233.68Zm10.21-4.9-13.13,19h-3.87l13.2-19Zm-12.89,4.9c0-1.75-.47-2.62-1.4-2.62s-1.41.87-1.41,2.62.47,2.64,1.41,2.64S326.33,235.44,326.33,233.68Zm14.3,9.28q0,4.95-4.1,4.95T332.45,243q0-5,4.08-5T340.63,243Zm-2.69,0q0-2.64-1.41-2.64c-.92,0-1.37.88-1.37,2.64s.45,2.64,1.37,2.64S337.94,244.72,337.94,243Z" fill="#fff"/></g></g></svg>