<svg xmlns="http://www.w3.org/2000/svg" viewBox="0 0 1409 459"><g id="レイヤー_2" data-name="レイヤー 2"><g id="レイヤー_1-2" data-name="レイヤー 1"><rect width="1409" height="459"/><path d="M75.08,62.56v4.33a9.23,9.23,0,0,1,5.3,2.32L78.9,70.74a6.77,6.77,0,0,0-3.82-1.85v6.57a13.66,13.66,0,0,1,2.72,1.22,6,6,0,0,1,2,1.92,5.24,5.24,0,0,1,.78,2.94A5.57,5.57,0,0,1,80,84.11a5.42,5.42,0,0,1-1.85,2,7.07,7.07,0,0,1-3.06,1.07V91.4H73.14V87.3a8.42,8.42,0,0,1-3.55-1,10.66,10.66,0,0,1-2.47-1.76L68.56,83a8.44,8.44,0,0,0,2,1.54,6.45,6.45,0,0,0,2.55.72v-8a10.27,10.27,0,0,1-3.9-2.16,4.38,4.38,0,0,1-1.37-3.32,4.53,4.53,0,0,1,.58-2.21,4.93,4.93,0,0,1,1.75-1.8,6.89,6.89,0,0,1,2.94-.9V62.56ZM73.14,69a3.76,3.76,0,0,0-1.94.89,2.5,2.5,0,0,0-.76,1.92A2.68,2.68,0,0,0,71,73.47a5.24,5.24,0,0,0,2.14,1.36Zm1.94,9v7.17A3.28,3.28,0,0,0,78,81.57a3.38,3.38,0,0,0-.64-2.08A5.25,5.25,0,0,0,75.08,78Z" fill="#757575"/><path d="M102.58,87V71.83h2.06l.19,2.1a6.19,6.19,0,0,1,2.31-1.79,6.46,6.46,0,0,1,2.7-.62,4.06,4.06,0,0,1,3.25,1.18,4.84,4.84,0,0,1,1,3.28V87h-2.42V77.76a14,14,0,0,0-.18-2.5,2.22,2.22,0,0,0-.72-1.4,2.68,2.68,0,0,0-1.7-.44,3.82,3.82,0,0,0-1.67.38,5.58,5.58,0,0,0-1.4,1A7.62,7.62,0,0,0,105,76V87Z" fill="#66bb6a"/><path d="M126.65,71.52a5,5,0,0,1,3.22,1,5.49,5.49,0,0,1,1.73,2.76,14.4,14.4,0,0,1,.53,4.16,12,12,0,0,1-.64,4.08,6.06,6.06,0,0,1-1.93,2.81,5.56,5.56,0,0,1-7.28-.73V92.8l-2.41.3V71.83h2l.21,2.12a5.93,5.93,0,0,1,2-1.8A5.23,5.23,0,0,1,126.65,71.52Zm-.58,1.94a3.5,3.5,0,0,0-2.22.76,7.25,7.25,0,0,0-1.57,1.67v7.52a4.4,4.4,0,0,0,1.49,1.39,4,4,0,0,0,2,.51,3.17,3.17,0,0,0,2.84-1.44,8.23,8.23,0,0,0,.95-4.48C129.54,75.44,128.39,73.46,126.07,73.46Z" fill="#66bb6a"/><path d="M138.61,87h-2.76l5.6-8-4.91-7.16h2.87l3.51,5.65,3.56-5.65h2.76l-4.89,7.06L149.93,87h-3l-4.15-6.51Z" fill="#66bb6a"/><path d="M173.61,80.27A5.29,5.29,0,0,0,175,84.11a4.31,4.31,0,0,0,3,1.2,6,6,0,0,0,2.1-.34,9.72,9.72,0,0,0,2-1l1.14,1.6a8.17,8.17,0,0,1-2.42,1.31,8.41,8.41,0,0,1-2.8.48,6.76,6.76,0,0,1-3.76-1,6.29,6.29,0,0,1-2.36-2.77,10.68,10.68,0,0,1,0-8.21,6.67,6.67,0,0,1,2.3-2.81,6,6,0,0,1,3.51-1,5.55,5.55,0,0,1,4.51,2A8.29,8.29,0,0,1,183.86,79c0,.26,0,.5,0,.73s0,.43,0,.59Zm4.12-6.77a3.74,3.74,0,0,0-2.83,1.2,5.7,5.7,0,0,0-1.28,3.7h7.91a5.83,5.83,0,0,0-1.07-3.67A3.37,3.37,0,0,0,177.73,73.5Z" fill="#f2f2f2"/><path d="M194.14,85.33a5.14,5.14,0,0,0,2.77-.65,2,2,0,0,0,1-1.76,2.59,2.59,0,0,0-.25-1.18,2.24,2.24,0,0,0-1-.91,10.9,10.9,0,0,0-2.39-.82,17.47,17.47,0,0,1-2.73-.9,4.56,4.56,0,0,1-1.8-1.33,3.42,3.42,0,0,1-.64-2.13,3.51,3.51,0,0,1,1.6-3,7.15,7.15,0,0,1,4.16-1.1A9.56,9.56,0,0,1,198,72a8.93,8.93,0,0,1,2.31,1.19l-1.06,1.64a8.31,8.31,0,0,0-1.9-1,7.41,7.41,0,0,0-2.51-.38,4.36,4.36,0,0,0-2.53.56,1.71,1.71,0,0,0-.75,1.43,1.68,1.68,0,0,0,.37,1.12,3.08,3.08,0,0,0,1.24.78,22.54,22.54,0,0,0,2.42.76,14.07,14.07,0,0,1,2.59,1,4.3,4.3,0,0,1,1.72,1.43,3.93,3.93,0,0,1,.62,2.3,3.69,3.69,0,0,1-.93,2.61,5.18,5.18,0,0,1-2.38,1.45,10.09,10.09,0,0,1-3.09.46,9.11,9.11,0,0,1-3.5-.6,8.65,8.65,0,0,1-2.43-1.45l1.38-1.6a7.55,7.55,0,0,0,2,1.19A6.9,6.9,0,0,0,194.14,85.33Z" fill="#f2f2f2"/><path d="M212.17,65.73V83.25a1.76,1.76,0,0,0,.7,1.59,3.2,3.2,0,0,0,1.81.47,6.16,6.16,0,0,0,1.3-.14,10,10,0,0,0,1.25-.39l.64,1.77a8.38,8.38,0,0,1-1.53.54,8.17,8.17,0,0,1-2.07.24A4.72,4.72,0,0,1,211,86.21a3.93,3.93,0,0,1-1.25-3.09V67.64H205.1V65.73Z" fill="#f2f2f2"/><path d="M231.22,71.83V85.08h4.28V87H224.12V85.08h4.68V73.75h-4.53V71.83Zm-1.93-7.1a1.75,1.75,0,0,1,1.29.49,1.66,1.66,0,0,1,.48,1.2,1.7,1.7,0,0,1-.48,1.23,1.72,1.72,0,0,1-1.29.5,1.69,1.69,0,0,1-1.25-.5,1.67,1.67,0,0,1-.49-1.23,1.63,1.63,0,0,1,.49-1.2A1.72,1.72,0,0,1,229.29,64.73Z" fill="#f2f2f2"/><path d="M240.83,87V71.83h2.06l.18,2.1a6.27,6.27,0,0,1,2.31-1.79,6.46,6.46,0,0,1,2.7-.62,4,4,0,0,1,3.25,1.18,4.84,4.84,0,0,1,1,3.28V87h-2.42V77.76a15.11,15.11,0,0,0-.17-2.5,2.28,2.28,0,0,0-.73-1.4,2.67,2.67,0,0,0-1.69-.44,3.83,3.83,0,0,0-1.68.38,5.77,5.77,0,0,0-1.4,1,7.52,7.52,0,0,0-1,1.17V87Z" fill="#f2f2f2"/><path d="M270.15,86.23a6.06,6.06,0,0,1-1.89.81,8.7,8.7,0,0,1-2.17.29,5.24,5.24,0,0,1-3.78-1.28,4.41,4.41,0,0,1-1.32-3.3v-9H257.5V71.83H261V68.39l2.42-.29v3.73h5.24l-.29,1.87h-4.95v9a2.59,2.59,0,0,0,.67,1.93,3.07,3.07,0,0,0,2.22.66,6,6,0,0,0,1.57-.2,7.62,7.62,0,0,0,1.34-.52Z" fill="#f2f2f2"/><path d="M297.82,85.33a5.11,5.11,0,0,0,2.77-.65,2,2,0,0,0,1-1.76,2.6,2.6,0,0,0-.26-1.18,2.19,2.19,0,0,0-1-.91,10.71,10.71,0,0,0-2.39-.82,17,17,0,0,1-2.72-.9,4.42,4.42,0,0,1-1.8-1.33,3.36,3.36,0,0,1-.65-2.13,3.51,3.51,0,0,1,1.6-3,7.17,7.17,0,0,1,4.16-1.1,9.56,9.56,0,0,1,3.19.48A9.17,9.17,0,0,1,304,73.19L303,74.83a8.45,8.45,0,0,0-1.89-1,7.51,7.51,0,0,0-2.52-.38A4.36,4.36,0,0,0,296,74a1.71,1.71,0,0,0-.75,1.43,1.68,1.68,0,0,0,.37,1.12,3.08,3.08,0,0,0,1.24.78,22.54,22.54,0,0,0,2.42.76,13.8,13.8,0,0,1,2.59,1,4.3,4.3,0,0,1,1.72,1.43,3.93,3.93,0,0,1,.62,2.3,3.73,3.73,0,0,1-.92,2.61,5.27,5.27,0,0,1-2.39,1.45,10.09,10.09,0,0,1-3.09.46,9.11,9.11,0,0,1-3.5-.6,8.65,8.65,0,0,1-2.43-1.45l1.38-1.6a7.55,7.55,0,0,0,2.05,1.19A6.9,6.9,0,0,0,297.82,85.33Z" fill="#f2f2f2"/><path d="M310.09,87V85.14h2.36V73.69h-2.36V71.83h4.21l.44,3.59a8.09,8.09,0,0,1,2.14-2.9,5.06,5.06,0,0,1,3.31-1,6.39,6.39,0,0,1,1.13.09l1,.24L322,77h-2V73.73h-.13q-3.48,0-5,5v6.42H318V87Z" fill="#f2f2f2"/><path d="M334.08,85.24a6,6,0,0,0,2.13-.37,7.73,7.73,0,0,0,1.82-1l1.18,1.59a7.58,7.58,0,0,1-2.39,1.34,8.39,8.39,0,0,1-2.74.49,7.25,7.25,0,0,1-3.85-1,6.27,6.27,0,0,1-2.43-2.73,10.59,10.59,0,0,1,0-8.22,6.69,6.69,0,0,1,2.44-2.84,6.86,6.86,0,0,1,3.87-1,7.83,7.83,0,0,1,5.07,1.75L338,74.88a6.92,6.92,0,0,0-3.92-1.35A4,4,0,0,0,330.86,75a6.68,6.68,0,0,0-1.27,4.47,6.32,6.32,0,0,0,1.27,4.4A4.19,4.19,0,0,0,334.08,85.24Z" fill="#f2f2f2"/><path d="M68.6,188.25l-2-.87L79,162l1.93,1Z" fill="#f2f2f2"/><path d="M92.09,169.8a4.93,4.93,0,0,1,3.22,1A5.41,5.41,0,0,1,97,173.54a14.33,14.33,0,0,1,.53,4.15,12,12,0,0,1-.64,4.08A6,6,0,0,1,95,184.59a5.15,5.15,0,0,1-3.27,1,5,5,0,0,1-4-1.76v7.23l-2.42.31V170.12h2.06l.21,2.11a5.84,5.84,0,0,1,2-1.8A5.23,5.23,0,0,1,92.09,169.8Zm-.58,1.94a3.5,3.5,0,0,0-2.22.76,7.09,7.09,0,0,0-1.57,1.68v7.51a4.4,4.4,0,0,0,1.49,1.39,4,4,0,0,0,2,.51A3.17,3.17,0,0,0,94,182.15a8.21,8.21,0,0,0,1-4.47Q95,171.74,91.51,171.74Z" fill="#f2f2f2"/><path d="M102.73,185.28v-1.86h2.36V172h-2.36v-1.85h4.2l.45,3.58a8.15,8.15,0,0,1,2.13-2.89,5,5,0,0,1,3.31-1,6.24,6.24,0,0,1,1.13.1,10,10,0,0,1,1,.24l-.35,5.12h-2V172h-.13c-2.33,0-4,1.66-5,5v6.42h3.08v1.86Z" fill="#f2f2f2"/><path d="M125.64,169.8a5.72,5.72,0,0,1,4.85,2.14,9.22,9.22,0,0,1,1.64,5.75,10.67,10.67,0,0,1-.74,4.1,6.35,6.35,0,0,1-2.21,2.81,6.13,6.13,0,0,1-3.57,1,5.77,5.77,0,0,1-4.87-2.16,9.2,9.2,0,0,1-1.65-5.73,10.64,10.64,0,0,1,.75-4.13,5.89,5.89,0,0,1,5.8-3.79Zm0,2a3.36,3.36,0,0,0-3,1.46,10.56,10.56,0,0,0,0,9,3.72,3.72,0,0,0,5.89,0,8.15,8.15,0,0,0,1-4.48,8,8,0,0,0-1-4.47A3.27,3.27,0,0,0,125.64,171.77Z" fill="#f2f2f2"/><path d="M147.07,170.12v12.73a7.4,7.4,0,0,1-1.15,4.24,7.93,7.93,0,0,1-3.3,2.75,20.29,20.29,0,0,1-5.22,1.55l-.4-1.88a17.15,17.15,0,0,0,4-1.12,6.52,6.52,0,0,0,2.7-2,5.45,5.45,0,0,0,1-3.34V172h-6.31v-1.91Zm-2.26-7.1a1.73,1.73,0,0,1,1.29.49,1.59,1.59,0,0,1,.49,1.19,1.67,1.67,0,0,1-.49,1.23,1.73,1.73,0,0,1-1.29.5,1.68,1.68,0,0,1-1.26-.5,1.73,1.73,0,0,1-.47-1.23,1.65,1.65,0,0,1,.47-1.19A1.67,1.67,0,0,1,144.81,163Z" fill="#f2f2f2"/><path d="M156.33,178.55a5.29,5.29,0,0,0,1.39,3.84,4.31,4.31,0,0,0,3,1.2,6,6,0,0,0,2.1-.34,9.16,9.16,0,0,0,1.95-1l1.14,1.59a8.19,8.19,0,0,1-2.42,1.32,8.71,8.71,0,0,1-2.8.47,6.82,6.82,0,0,1-3.76-1,6.37,6.37,0,0,1-2.36-2.78,10.68,10.68,0,0,1,0-8.21,6.67,6.67,0,0,1,2.3-2.81,6,6,0,0,1,3.51-1,5.53,5.53,0,0,1,4.51,2,8.26,8.26,0,0,1,1.65,5.44c0,.26,0,.5,0,.73s0,.43,0,.59Zm4.12-6.76a3.73,3.73,0,0,0-2.83,1.19,5.73,5.73,0,0,0-1.28,3.7h7.91a5.8,5.8,0,0,0-1.07-3.66A3.37,3.37,0,0,0,160.45,171.79Z" fill="#f2f2f2"/><path d="M178.56,183.52a6.09,6.09,0,0,0,2.12-.36,8.38,8.38,0,0,0,1.83-1l1.18,1.58a7.49,7.49,0,0,1-2.39,1.34,8.18,8.18,0,0,1-2.74.49,7.22,7.22,0,0,1-3.85-1,6.3,6.3,0,0,1-2.43-2.74,10.57,10.57,0,0,1,0-8.21,6.72,6.72,0,0,1,2.44-2.85,6.94,6.94,0,0,1,3.87-1,7.78,7.78,0,0,1,5.07,1.76l-1.18,1.61a6.94,6.94,0,0,0-3.92-1.36,4.09,4.09,0,0,0-3.23,1.48,6.75,6.75,0,0,0-1.26,4.47,6.35,6.35,0,0,0,1.26,4.4A4.21,4.21,0,0,0,178.56,183.52Z" fill="#f2f2f2"/><path d="M201,184.52a6.3,6.3,0,0,1-1.89.8,8.78,8.78,0,0,1-2.18.29,5.22,5.22,0,0,1-3.77-1.28,4.4,4.4,0,0,1-1.32-3.3v-9h-3.49v-1.87h3.49v-3.45l2.42-.28v3.73h5.24l-.29,1.87h-5v9a2.57,2.57,0,0,0,.67,1.93,3.07,3.07,0,0,0,2.22.66,5.58,5.58,0,0,0,1.57-.2,6.32,6.32,0,0,0,1.34-.52Z" fill="#f2f2f2"/><path d="M211.42,183.61a5.14,5.14,0,0,0,2.77-.65,2,2,0,0,0,1-1.76,2.59,2.59,0,0,0-.25-1.18,2.3,2.3,0,0,0-1-.91,10.71,10.71,0,0,0-2.39-.82,16.52,16.52,0,0,1-2.73-.89,4.67,4.67,0,0,1-1.8-1.34,3.38,3.38,0,0,1-.64-2.13,3.5,3.5,0,0,1,1.6-3,7.15,7.15,0,0,1,4.16-1.11,9.3,9.3,0,0,1,3.19.49,8.92,8.92,0,0,1,2.31,1.18l-1.06,1.64a8.29,8.29,0,0,0-1.9-1,7.17,7.17,0,0,0-2.51-.38,4.37,4.37,0,0,0-2.53.55,1.71,1.71,0,0,0-.75,1.43,1.65,1.65,0,0,0,.37,1.12,3.08,3.08,0,0,0,1.24.79,25.09,25.09,0,0,0,2.42.76,14.09,14.09,0,0,1,2.59,1,4.3,4.3,0,0,1,1.72,1.43,4,4,0,0,1,.62,2.3,3.67,3.67,0,0,1-.93,2.61,5.28,5.28,0,0,1-2.38,1.46,10.4,10.4,0,0,1-3.09.45,9.11,9.11,0,0,1-3.5-.6,8.88,8.88,0,0,1-2.43-1.44l1.38-1.6a7.81,7.81,0,0,0,2,1.19A6.89,6.89,0,0,0,211.42,183.61Z" fill="#f2f2f2"/><path d="M224.12,188.25l-2-.87L234.49,162l1.93,1Z" fill="#f2f2f2"/><path d="M242.73,178.55a5.29,5.29,0,0,0,1.39,3.84,4.31,4.31,0,0,0,3,1.2,6.11,6.11,0,0,0,2.11-.34,9.35,9.35,0,0,0,1.94-1l1.14,1.59a8.19,8.19,0,0,1-2.42,1.32,8.66,8.66,0,0,1-2.8.47,6.84,6.84,0,0,1-3.76-1,6.37,6.37,0,0,1-2.36-2.78,10.68,10.68,0,0,1,0-8.21,6.67,6.67,0,0,1,2.3-2.81,6,6,0,0,1,3.51-1,5.53,5.53,0,0,1,4.51,2,8.26,8.26,0,0,1,1.65,5.44c0,.26,0,.5,0,.73s0,.43,0,.59Zm4.12-6.76A3.73,3.73,0,0,0,244,173a5.78,5.78,0,0,0-1.28,3.7h7.91a5.8,5.8,0,0,0-1.07-3.66A3.37,3.37,0,0,0,246.85,171.79Z" fill="#f2f2f2"/><path d="M263.26,183.61A5.11,5.11,0,0,0,266,183a2,2,0,0,0,1-1.76,2.6,2.6,0,0,0-.26-1.18,2.24,2.24,0,0,0-1-.91,10.71,10.71,0,0,0-2.39-.82,16.52,16.52,0,0,1-2.73-.89,4.67,4.67,0,0,1-1.8-1.34,3.38,3.38,0,0,1-.64-2.13,3.5,3.5,0,0,1,1.6-3A7.17,7.17,0,0,1,264,169.8a9.3,9.3,0,0,1,3.19.49,9.16,9.16,0,0,1,2.32,1.18l-1.07,1.64a8.42,8.42,0,0,0-1.89-1,7.27,7.27,0,0,0-2.52-.38,4.37,4.37,0,0,0-2.53.55,1.71,1.71,0,0,0-.75,1.43,1.65,1.65,0,0,0,.37,1.12,3.08,3.08,0,0,0,1.24.79,25.09,25.09,0,0,0,2.42.76,14.09,14.09,0,0,1,2.59,1,4.3,4.3,0,0,1,1.72,1.43,4,4,0,0,1,.62,2.3,3.67,3.67,0,0,1-.93,2.61,5.28,5.28,0,0,1-2.38,1.46,10.4,10.4,0,0,1-3.09.45,9.11,9.11,0,0,1-3.5-.6,8.88,8.88,0,0,1-2.43-1.44l1.38-1.6a7.81,7.81,0,0,0,2.05,1.19A6.89,6.89,0,0,0,263.26,183.61Z" fill="#f2f2f2"/><path d="M281.29,164v17.53a1.78,1.78,0,0,0,.7,1.59,3.22,3.22,0,0,0,1.81.46,5.57,5.57,0,0,0,1.3-.14,8.56,8.56,0,0,0,1.25-.39l.64,1.77a8.38,8.38,0,0,1-1.53.54,8.17,8.17,0,0,1-2.07.24,4.68,4.68,0,0,1-3.26-1.12,3.9,3.9,0,0,1-1.26-3.08V165.92h-4.65V164Z" fill="#f2f2f2"/><path d="M300.34,170.12v13.24h4.28v1.92H293.24v-1.92h4.68V172h-4.53v-1.91Zm-1.93-7.1a1.71,1.71,0,0,1,1.29.49,1.63,1.63,0,0,1,.49,1.19,1.69,1.69,0,0,1-1.78,1.73,1.69,1.69,0,0,1-1.25-.5,1.67,1.67,0,0,1-.49-1.23,1.59,1.59,0,0,1,.49-1.19A1.68,1.68,0,0,1,298.41,163Z" fill="#f2f2f2"/><path d="M310,185.28V170.12H312l.18,2.1a6.07,6.07,0,0,1,2.31-1.79,6.48,6.48,0,0,1,2.71-.63,4,4,0,0,1,3.24,1.18,4.86,4.86,0,0,1,1,3.28v11h-2.42v-9.23a15.24,15.24,0,0,0-.17-2.51,2.22,2.22,0,0,0-.73-1.39,2.64,2.64,0,0,0-1.69-.45,3.7,3.7,0,0,0-1.68.39,5.74,5.74,0,0,0-1.4,1,7.52,7.52,0,0,0-1,1.17v11.05Z" fill="#f2f2f2"/><path d="M339.27,184.52a6.3,6.3,0,0,1-1.89.8,8.7,8.7,0,0,1-2.17.29,5.24,5.24,0,0,1-3.78-1.28,4.4,4.4,0,0,1-1.32-3.3v-9h-3.49v-1.87h3.49v-3.45l2.42-.28v3.73h5.24l-.29,1.87h-5v9a2.57,2.57,0,0,0,.67,1.93,3.08,3.08,0,0,0,2.22.66,5.58,5.58,0,0,0,1.57-.2,6.32,6.32,0,0,0,1.34-.52Z" fill="#f2f2f2"/><path d="M344.48,178.47v-2.1H356v2.1Z" fill="#f2f2f2"/><path d="M373.83,184.52a6.3,6.3,0,0,1-1.89.8,8.7,8.7,0,0,1-2.17.29,5.24,5.24,0,0,1-3.78-1.28,4.4,4.4,0,0,1-1.32-3.3v-9h-3.49v-1.87h3.49v-3.45l2.42-.28v3.73h5.24L372,172h-5v9a2.57,2.57,0,0,0,.67,1.93,3.08,3.08,0,0,0,2.22.66,5.58,5.58,0,0,0,1.57-.2,6.32,6.32,0,0,0,1.34-.52Z" fill="#f2f2f2"/><path d="M381.49,170.12v10.74a3.06,3.06,0,0,0,.62,2.16,2.52,2.52,0,0,0,1.93.66,4.4,4.4,0,0,0,2.37-.71,5.59,5.59,0,0,0,1.73-1.69V170.12h2.42v15.16H388.5l-.2-2.05a6,6,0,0,1-2.21,1.77,6.2,6.2,0,0,1-2.64.61,4.27,4.27,0,0,1-3.29-1.17,4.65,4.65,0,0,1-1.09-3.29v-11Z" fill="#f2f2f2"/><path d="M408.39,184.52a6.3,6.3,0,0,1-1.89.8,8.7,8.7,0,0,1-2.17.29,5.26,5.26,0,0,1-3.78-1.28,4.4,4.4,0,0,1-1.32-3.3v-9h-3.49v-1.87h3.49v-3.45l2.42-.28v3.73h5.24L406.6,172h-5v9a2.57,2.57,0,0,0,.67,1.93,3.1,3.1,0,0,0,2.22.66,5.58,5.58,0,0,0,1.57-.2,6.32,6.32,0,0,0,1.34-.52Z" fill="#f2f2f2"/><path d="M419.4,169.8a5.74,5.74,0,0,1,4.86,2.14,9.28,9.28,0,0,1,1.64,5.75,10.48,10.48,0,0,1-.75,4.1,6.33,6.33,0,0,1-2.2,2.81,6.13,6.13,0,0,1-3.57,1,5.74,5.74,0,0,1-4.87-2.16,9.14,9.14,0,0,1-1.66-5.73,10.64,10.64,0,0,1,.75-4.13,5.89,5.89,0,0,1,5.8-3.79Zm0,2a3.34,3.34,0,0,0-2.95,1.46,10.51,10.51,0,0,0,0,9,3.72,3.72,0,0,0,5.89,0,10.66,10.66,0,0,0,0-8.95A3.3,3.3,0,0,0,419.4,171.77Z" fill="#f2f2f2"/><path d="M431.05,185.28v-1.86h2.37V172h-2.37v-1.85h4.21l.45,3.58a7.92,7.92,0,0,1,2.13-2.89,5,5,0,0,1,3.31-1,6.33,6.33,0,0,1,1.13.1,9.82,9.82,0,0,1,1,.24l-.34,5.12h-2V172h-.13q-3.48,0-5,5v6.42h3.09v1.86Z" fill="#f2f2f2"/><path d="M455.87,170.12v13.24h4.27v1.92H448.77v-1.92h4.68V172h-4.54v-1.91Zm-1.93-7.1a1.74,1.74,0,0,1,1.29.49,1.62,1.62,0,0,1,.48,1.19,1.7,1.7,0,0,1-.48,1.23,1.75,1.75,0,0,1-1.29.5,1.69,1.69,0,0,1-1.75-1.73,1.63,1.63,0,0,1,.49-1.19A1.7,1.7,0,0,1,453.94,163Z" fill="#f2f2f2"/><path d="M476.33,182a2.35,2.35,0,0,0,.3,1.34,1.69,1.69,0,0,0,.94.6l-.59,1.7a3.87,3.87,0,0,1-1.72-.63,2.77,2.77,0,0,1-1.06-1.5,5.25,5.25,0,0,1-2.05,1.59,6.71,6.71,0,0,1-2.7.54,4.93,4.93,0,0,1-3.59-1.28,4.57,4.57,0,0,1-1.31-3.4,4.11,4.11,0,0,1,1.83-3.6,9.36,9.36,0,0,1,5.28-1.25h2.24v-1.27a2.68,2.68,0,0,0-1-2.33,4.57,4.57,0,0,0-2.66-.68,10.27,10.27,0,0,0-1.76.18,14,14,0,0,0-2.19.6l-.63-1.83a14.86,14.86,0,0,1,2.61-.74,14.11,14.11,0,0,1,2.34-.21,6,6,0,0,1,4.25,1.32,4.66,4.66,0,0,1,1.43,3.57Zm-6.27,1.8a4.29,4.29,0,0,0,2.14-.57,5,5,0,0,0,1.7-1.58v-3.9h-2.19a5.63,5.63,0,0,0-3.54.86,2.87,2.87,0,0,0-1,2.32C467.14,182.81,468.12,183.77,470.06,183.77Z" fill="#f2f2f2"/><path d="M488.66,164v17.53a1.8,1.8,0,0,0,.69,1.59,3.22,3.22,0,0,0,1.81.46,5.51,5.51,0,0,0,1.3-.14,8.2,8.2,0,0,0,1.25-.39l.65,1.77a8.79,8.79,0,0,1-1.54.54,8.09,8.09,0,0,1-2.06.24,4.69,4.69,0,0,1-3.27-1.12,3.89,3.89,0,0,1-1.25-3.08V165.92h-4.66V164Z" fill="#f2f2f2"/><path d="M500.61,188.25l-2-.87L511,162l1.93,1Z" fill="#f2f2f2"/><path d="M522.47,183.61a5.08,5.08,0,0,0,2.76-.65,2,2,0,0,0,1-1.76A2.59,2.59,0,0,0,526,180a2.3,2.3,0,0,0-1-.91,11.09,11.09,0,0,0-2.39-.82,15.92,15.92,0,0,1-2.73-.89,4.67,4.67,0,0,1-1.8-1.34,3.32,3.32,0,0,1-.64-2.13,3.47,3.47,0,0,1,1.6-3,7.13,7.13,0,0,1,4.16-1.11,9.34,9.34,0,0,1,3.19.49,9.08,9.08,0,0,1,2.31,1.18l-1.07,1.64a8,8,0,0,0-1.89-1,7.21,7.21,0,0,0-2.51-.38,4.4,4.4,0,0,0-2.54.55,1.79,1.79,0,0,0-.38,2.55,3.13,3.13,0,0,0,1.25.79,24.21,24.21,0,0,0,2.42.76,14.37,14.37,0,0,1,2.59,1,4.37,4.37,0,0,1,1.72,1.43,4,4,0,0,1,.61,2.3,3.71,3.71,0,0,1-.92,2.61,5.39,5.39,0,0,1-2.38,1.46,10.5,10.5,0,0,1-3.09.45,8.78,8.78,0,0,1-5.94-2l1.39-1.6a7.66,7.66,0,0,0,2.05,1.19A6.81,6.81,0,0,0,522.47,183.61Z" fill="#f2f2f2"/><path d="M534.74,185.28v-1.86h2.36V172h-2.36v-1.85h4.2l.45,3.58a7.92,7.92,0,0,1,2.13-2.89,5,5,0,0,1,3.31-1,6.33,6.33,0,0,1,1.13.1q.49.09,1,.24l-.35,5.12h-2V172h-.13c-2.32,0-4,1.66-5,5v6.42h3.08v1.86Z" fill="#f2f2f2"/><path d="M558.73,183.52a6.13,6.13,0,0,0,2.12-.36,8.09,8.09,0,0,0,1.82-1l1.18,1.58a7.39,7.39,0,0,1-2.39,1.34,8.12,8.12,0,0,1-2.73.49,7.22,7.22,0,0,1-3.85-1,6.17,6.17,0,0,1-2.43-2.74,10.45,10.45,0,0,1,0-8.21,6.7,6.7,0,0,1,2.43-2.85,7,7,0,0,1,3.88-1,7.74,7.74,0,0,1,5.06,1.76l-1.18,1.61a6.91,6.91,0,0,0-3.91-1.36,4.09,4.09,0,0,0-3.23,1.48,6.75,6.75,0,0,0-1.27,4.47,6.35,6.35,0,0,0,1.27,4.4A4.21,4.21,0,0,0,558.73,183.52Z" fill="#f2f2f2"/><path d="M569.73,188.25l-2-.87L580.1,162l1.93,1Z" fill="#f2f2f2"/><path d="M588.85,163.78v8.41a5.85,5.85,0,0,1,2.2-1.79,6.27,6.27,0,0,1,2.64-.6,4.05,4.05,0,0,1,3.24,1.18,4.86,4.86,0,0,1,1,3.28v11h-2.42v-11a2.27,2.27,0,0,0-2.62-2.62,3.63,3.63,0,0,0-1.64.39,6.21,6.21,0,0,0-1.4,1,7.22,7.22,0,0,0-1,1.18v11.05h-2.42V164Z" fill="#f2f2f2"/><path d="M605.61,178.55a5.33,5.33,0,0,0,1.39,3.84,4.33,4.33,0,0,0,3,1.2,6,6,0,0,0,2.1-.34,9.41,9.41,0,0,0,2-1l1.13,1.59a8.07,8.07,0,0,1-2.42,1.32,8.6,8.6,0,0,1-2.79.47,6.88,6.88,0,0,1-3.77-1,6.44,6.44,0,0,1-2.36-2.78,10.81,10.81,0,0,1,0-8.21,6.69,6.69,0,0,1,2.31-2.81,6,6,0,0,1,3.5-1,5.55,5.55,0,0,1,4.52,2,8.26,8.26,0,0,1,1.65,5.44c0,.26,0,.5,0,.73s0,.43,0,.59Zm4.12-6.76a3.73,3.73,0,0,0-2.82,1.19,5.67,5.67,0,0,0-1.28,3.7h7.9a5.8,5.8,0,0,0-1.06-3.66A3.37,3.37,0,0,0,609.73,171.79Z" fill="#f2f2f2"/><path d="M626.9,164v17.53a1.78,1.78,0,0,0,.7,1.59,3.16,3.16,0,0,0,1.8.46,5.66,5.66,0,0,0,1.31-.14,8.45,8.45,0,0,0,1.24-.39l.65,1.77a8.38,8.38,0,0,1-1.53.54,8.17,8.17,0,0,1-2.07.24,4.72,4.72,0,0,1-3.27-1.12,3.92,3.92,0,0,1-1.25-3.08V165.92h-4.65V164Z" fill="#f2f2f2"/><path d="M644.18,164v17.53a1.78,1.78,0,0,0,.7,1.59,3.16,3.16,0,0,0,1.8.46,5.66,5.66,0,0,0,1.31-.14,8.45,8.45,0,0,0,1.24-.39l.65,1.77a8.38,8.38,0,0,1-1.53.54,8.17,8.17,0,0,1-2.07.24,4.72,4.72,0,0,1-3.27-1.12,3.92,3.92,0,0,1-1.25-3.08V165.92h-4.65V164Z" fill="#f2f2f2"/><path d="M661.33,169.8a5.72,5.72,0,0,1,4.85,2.14,9.22,9.22,0,0,1,1.64,5.75,10.48,10.48,0,0,1-.75,4.1,6.26,6.26,0,0,1-2.2,2.81,6.13,6.13,0,0,1-3.57,1,5.77,5.77,0,0,1-4.87-2.16,9.2,9.2,0,0,1-1.65-5.73,10.83,10.83,0,0,1,.74-4.13,5.91,5.91,0,0,1,5.81-3.79Zm0,2a3.36,3.36,0,0,0-3,1.46,8,8,0,0,0-1,4.49,8.1,8.1,0,0,0,1,4.46,3.34,3.34,0,0,0,2.95,1.44,3.3,3.3,0,0,0,2.94-1.45,10.66,10.66,0,0,0,0-8.95A3.29,3.29,0,0,0,661.33,171.77Z" fill="#f2f2f2"/><path d="M687.09,165.45l-3,19.83h-3.29l-2.27-15-2.29,15h-3.36l-2.79-19.83h2.51l2.11,17.08,2.38-14.78h3.06l2.27,14.78,2.37-17.08Z" fill="#f2f2f2"/><path d="M695.89,169.8a5.72,5.72,0,0,1,4.85,2.14,9.22,9.22,0,0,1,1.64,5.75,10.48,10.48,0,0,1-.75,4.1,6.26,6.26,0,0,1-2.2,2.81,6.13,6.13,0,0,1-3.57,1,5.77,5.77,0,0,1-4.87-2.16,9.2,9.2,0,0,1-1.65-5.73,10.83,10.83,0,0,1,.74-4.13,5.91,5.91,0,0,1,5.81-3.79Zm0,2a3.36,3.36,0,0,0-3,1.46,10.56,10.56,0,0,0,0,9,3.71,3.71,0,0,0,5.88,0,10.66,10.66,0,0,0,0-8.95A3.29,3.29,0,0,0,695.89,171.77Z" fill="#f2f2f2"/><path d="M707.54,185.28v-1.86h2.36V172h-2.36v-1.85h4.2l.45,3.58a8.15,8.15,0,0,1,2.13-2.89,5,5,0,0,1,3.31-1,6.24,6.24,0,0,1,1.13.1q.5.09,1,.24l-.35,5.12h-2V172h-.13c-2.33,0-4,1.66-5,5v6.42h3.08v1.86Z" fill="#f2f2f2"/><path d="M730.58,164v17.53a1.78,1.78,0,0,0,.7,1.59,3.19,3.19,0,0,0,1.8.46,5.6,5.6,0,0,0,1.31-.14,8.08,8.08,0,0,0,1.24-.39l.65,1.77a8.38,8.38,0,0,1-1.53.54,8.17,8.17,0,0,1-2.07.24,4.72,4.72,0,0,1-3.27-1.12,3.92,3.92,0,0,1-1.25-3.08V165.92h-4.65V164Z" fill="#f2f2f2"/><path d="M751,163.71l2.42.3v21.27h-2.12l-.23-2a5.59,5.59,0,0,1-2,1.77,5.58,5.58,0,0,1-5.61-.43,5.8,5.8,0,0,1-1.9-2.78,12.57,12.57,0,0,1-.62-4.12,11.06,11.06,0,0,1,.7-4.07,6.51,6.51,0,0,1,2-2.82,5.52,5.52,0,0,1,7.27.75Zm-3.43,8a3.33,3.33,0,0,0-2.92,1.49,7.94,7.94,0,0,0-1,4.49q0,5.92,3.65,5.93a3.41,3.41,0,0,0,2.2-.73,6.68,6.68,0,0,0,1.53-1.66v-7.57a4.56,4.56,0,0,0-1.5-1.44A3.79,3.79,0,0,0,747.6,171.74Z" fill="#f2f2f2"/><path d="M762.43,183.06a2.55,2.55,0,0,1,4.34-1.78,2.41,2.41,0,0,1,.73,1.78,2.48,2.48,0,0,1-.73,1.81,2.45,2.45,0,0,1-1.82.74,2.42,2.42,0,0,1-1.8-.74A2.51,2.51,0,0,1,762.43,183.06Z" fill="#f2f2f2"/><path d="M786.44,170.12v12.73a7.4,7.4,0,0,1-1.15,4.24,7.93,7.93,0,0,1-3.3,2.75,20.29,20.29,0,0,1-5.22,1.55l-.4-1.88a17.15,17.15,0,0,0,4-1.12,6.52,6.52,0,0,0,2.7-2,5.45,5.45,0,0,0,1-3.34V172h-6.31v-1.91Zm-2.26-7.1a1.73,1.73,0,0,1,1.29.49,1.59,1.59,0,0,1,.49,1.19,1.67,1.67,0,0,1-.49,1.23,1.73,1.73,0,0,1-1.29.5,1.68,1.68,0,0,1-1.26-.5,1.73,1.73,0,0,1-.47-1.23,1.65,1.65,0,0,1,.47-1.19A1.67,1.67,0,0,1,784.18,163Z" fill="#f2f2f2"/><path d="M799,183.61a5.14,5.14,0,0,0,2.77-.65,2,2,0,0,0,1-1.76,2.59,2.59,0,0,0-.25-1.18,2.3,2.3,0,0,0-1-.91,10.9,10.9,0,0,0-2.39-.82,16.52,16.52,0,0,1-2.73-.89,4.67,4.67,0,0,1-1.8-1.34,3.38,3.38,0,0,1-.64-2.13,3.5,3.5,0,0,1,1.6-3,7.15,7.15,0,0,1,4.16-1.11,9.34,9.34,0,0,1,3.19.49,8.92,8.92,0,0,1,2.31,1.18l-1.06,1.64a8.29,8.29,0,0,0-1.9-1,7.17,7.17,0,0,0-2.51-.38,4.37,4.37,0,0,0-2.53.55,1.81,1.81,0,0,0-.39,2.55,3.2,3.2,0,0,0,1.25.79,25.09,25.09,0,0,0,2.42.76,14.09,14.09,0,0,1,2.59,1,4.3,4.3,0,0,1,1.72,1.43,4,4,0,0,1,.61,2.3,3.67,3.67,0,0,1-.92,2.61,5.34,5.34,0,0,1-2.38,1.46,10.4,10.4,0,0,1-3.09.45,9.2,9.2,0,0,1-3.51-.6,9,9,0,0,1-2.42-1.44l1.38-1.6a7.81,7.81,0,0,0,2.05,1.19A6.89,6.89,0,0,0,799,183.61Z" fill="#f2f2f2"/><path d="M114.6,232.45v2H103.15v-2H108V217.21L103.48,220l-1-1.73,5.9-3.66h2.12v17.86Z" fill="#757575"/><path d="M123.26,219.72a2.27,2.27,0,0,1,.67-1.64,2.25,2.25,0,0,1,1.65-.68,2.28,2.28,0,0,1,1.68.68,2.23,2.23,0,0,1,.67,1.64,2.27,2.27,0,0,1-.67,1.65,2.23,2.23,0,0,1-1.68.7,2.19,2.19,0,0,1-1.65-.7A2.31,2.31,0,0,1,123.26,219.72Zm0,10.38a2.32,2.32,0,0,1,.67-1.63,2.22,2.22,0,0,1,1.65-.69,2.34,2.34,0,1,1,0,4.67,2.22,2.22,0,0,1-1.65-.69A2.3,2.3,0,0,1,123.26,230.1Z" fill="#757575"/><path d="M149.16,232.45v2H137.71v-2h4.88V217.21L138,220l-1-1.73,5.9-3.66H145v17.86Z" fill="#757575"/><path d="M164.19,222v5.63h2.56v1.93h-2.56v4.82h-2.33l0-4.82H153.6v-1.76l5.82-13.57,2,.85-5.27,12.55h5.69l.31-5.63Z" fill="#757575"/><path d="M208.17,227.7a5.28,5.28,0,0,0,1.39,3.83,4.32,4.32,0,0,0,3,1.21,6.1,6.1,0,0,0,2.11-.35,9.35,9.35,0,0,0,1.94-1l1.14,1.6a8.4,8.4,0,0,1-2.42,1.31,8.66,8.66,0,0,1-2.8.47,6.84,6.84,0,0,1-3.76-1,6.35,6.35,0,0,1-2.36-2.77,10.71,10.71,0,0,1,0-8.22,6.73,6.73,0,0,1,2.3-2.81,6,6,0,0,1,3.51-1,5.53,5.53,0,0,1,4.51,2,8.26,8.26,0,0,1,1.65,5.44c0,.26,0,.51,0,.74s0,.42,0,.59Zm4.12-6.77a3.77,3.77,0,0,0-2.83,1.19,5.78,5.78,0,0,0-1.28,3.7h7.91a5.8,5.8,0,0,0-1.07-3.66A3.37,3.37,0,0,0,212.29,220.93Z" fill="#ef5350"/><path d="M223.69,234.42v-1.86h2.36V221.12h-2.36v-1.86h4.21l.44,3.58a8.24,8.24,0,0,1,2.13-2.89,5.1,5.1,0,0,1,3.32-1,6.47,6.47,0,0,1,1.13.09,9.82,9.82,0,0,1,1,.24l-.34,5.12h-2v-3.22h-.13q-3.48,0-5,5v6.42h3.08v1.86Z" fill="#ef5350"/><path d="M241,234.42v-1.86h2.36V221.12H241v-1.86h4.21l.44,3.58a8.24,8.24,0,0,1,2.13-2.89,5.1,5.1,0,0,1,3.32-1,6.39,6.39,0,0,1,1.13.09,9.82,9.82,0,0,1,1,.24l-.34,5.12h-2v-3.22h-.13q-3.48,0-5,5v6.42h3.08v1.86Z" fill="#ef5350"/><path d="M263.88,218.94a5.73,5.73,0,0,1,4.85,2.15,9.17,9.17,0,0,1,1.65,5.74,10.54,10.54,0,0,1-.75,4.11,6.32,6.32,0,0,1-2.21,2.8,6.13,6.13,0,0,1-3.57,1,5.74,5.74,0,0,1-4.86-2.16,9.14,9.14,0,0,1-1.66-5.73,10.67,10.67,0,0,1,.75-4.13,5.89,5.89,0,0,1,5.8-3.79Zm0,2a3.37,3.37,0,0,0-3,1.46,8.09,8.09,0,0,0-1,4.49,8,8,0,0,0,1,4.46,3.72,3.72,0,0,0,5.89,0,10.76,10.76,0,0,0,0-8.95A3.32,3.32,0,0,0,263.88,220.91Z" fill="#ef5350"/><path d="M275.53,234.42v-1.86h2.36V221.12h-2.36v-1.86h4.21l.44,3.58a8.24,8.24,0,0,1,2.13-2.89,5.1,5.1,0,0,1,3.32-1,6.39,6.39,0,0,1,1.13.09,9.82,9.82,0,0,1,1,.24l-.34,5.12h-2v-3.22h-.13q-3.48,0-5,5v6.42h3.08v1.86Z" fill="#ef5350"/><path d="M373.21,214.59v2H368.8v15.83h4.41v2H361.86v-2h4.41V216.59h-4.41v-2Z" fill="#f2f2f2"/><path d="M388.14,212.85l2.42.3v21.27h-2.12l-.23-2a5.25,5.25,0,0,1-1.95,1.77,5.58,5.58,0,0,1-5.61-.43,5.91,5.91,0,0,1-1.9-2.77,12.63,12.63,0,0,1-.62-4.13,11.06,11.06,0,0,1,.71-4.07,6.49,6.49,0,0,1,2-2.82,5,5,0,0,1,3.2-1,5.11,5.11,0,0,1,4.06,1.79Zm-3.43,8a3.34,3.34,0,0,0-2.92,1.49,8,8,0,0,0-1,4.49c0,4,1.21,5.93,3.64,5.93a3.49,3.49,0,0,0,2.21-.72,6.86,6.86,0,0,0,1.52-1.67v-7.57a4.44,4.44,0,0,0-1.5-1.43A3.74,3.74,0,0,0,384.71,220.88Z" fill="#f2f2f2"/><path d="M398.25,227.7a5.32,5.32,0,0,0,1.39,3.83,4.33,4.33,0,0,0,3.05,1.21,6.09,6.09,0,0,0,2.1-.35,9.35,9.35,0,0,0,1.94-1l1.14,1.6a8.4,8.4,0,0,1-2.42,1.31,8.6,8.6,0,0,1-2.79.47,6.85,6.85,0,0,1-3.77-1,6.35,6.35,0,0,1-2.36-2.77,10.83,10.83,0,0,1,0-8.22,6.73,6.73,0,0,1,2.3-2.81,6.09,6.09,0,0,1,3.51-1,5.52,5.52,0,0,1,4.51,2,8.26,8.26,0,0,1,1.65,5.44c0,.26,0,.51,0,.74s0,.42,0,.59Zm4.12-6.77a3.75,3.75,0,0,0-2.82,1.19,5.73,5.73,0,0,0-1.29,3.7h7.91a5.74,5.74,0,0,0-1.07-3.66A3.37,3.37,0,0,0,402.37,220.93Z" fill="#f2f2f2"/><path d="M413.63,234.42V219.26h2.06l.19,2.1a6,6,0,0,1,2.3-1.79,6.48,6.48,0,0,1,2.71-.63,4.06,4.06,0,0,1,3.25,1.18,4.91,4.91,0,0,1,1,3.28v11h-2.42v-9.23a15,15,0,0,0-.17-2.5,2.25,2.25,0,0,0-.73-1.4,2.64,2.64,0,0,0-1.69-.45,3.7,3.7,0,0,0-1.68.39,5.74,5.74,0,0,0-1.4,1,7.65,7.65,0,0,0-1,1.18v11Z" fill="#f2f2f2"/><path d="M443,233.66a6.3,6.3,0,0,1-1.89.8,8.26,8.26,0,0,1-2.17.29,5.17,5.17,0,0,1-3.77-1.28,4.35,4.35,0,0,1-1.33-3.3v-9h-3.48v-1.87h3.48v-3.44l2.42-.29v3.73h5.24l-.29,1.87h-5v9a2.57,2.57,0,0,0,.67,1.93,3.06,3.06,0,0,0,2.22.67,5.57,5.57,0,0,0,1.57-.21A6.89,6.89,0,0,0,442,232Z" fill="#f2f2f2"/><path d="M455.87,219.26v13.25h4.27v1.91H448.77v-1.91h4.68V221.17h-4.54v-1.91Zm-1.93-7.1a1.74,1.74,0,0,1,1.29.49,1.62,1.62,0,0,1,.48,1.19,1.68,1.68,0,0,1-1.77,1.73,1.67,1.67,0,0,1-1.26-.5,1.71,1.71,0,0,1-.49-1.23,1.63,1.63,0,0,1,.49-1.19A1.7,1.7,0,0,1,453.94,212.16Z" fill="#f2f2f2"/><path d="M474.43,212.85a10.19,10.19,0,0,1,2.22.22,9.6,9.6,0,0,1,1.88.6l-.78,1.8a7.24,7.24,0,0,0-1.56-.47,8.57,8.57,0,0,0-1.69-.16q-3.18,0-3.18,2.52v3.08h5.14l-.26,1.9h-4.88v12.08H468.9V222.34h-3.62v-1.9h3.62v-3a4.1,4.1,0,0,1,.72-2.43,4.76,4.76,0,0,1,2-1.58A6.86,6.86,0,0,1,474.43,212.85Z" fill="#f2f2f2"/><path d="M490.43,220.44v12.07h4.27v1.91H483.33v-1.91H488V222.34h-4.54v-1.9Zm-1.93-7.23a1.74,1.74,0,0,1,1.29.49,1.64,1.64,0,0,1,.48,1.19,1.66,1.66,0,0,1-1.77,1.73,1.7,1.7,0,0,1-1.26-.49,1.75,1.75,0,0,1-.49-1.24,1.65,1.65,0,0,1,.49-1.19A1.7,1.7,0,0,1,488.5,213.21Z" fill="#f2f2f2"/><path d="M501.93,227.7a5.32,5.32,0,0,0,1.39,3.83,4.34,4.34,0,0,0,3.05,1.21,6,6,0,0,0,2.1-.35,9.35,9.35,0,0,0,1.94-1l1.14,1.6a8.4,8.4,0,0,1-2.42,1.31,8.6,8.6,0,0,1-2.79.47,6.85,6.85,0,0,1-3.77-1,6.35,6.35,0,0,1-2.36-2.77,10.83,10.83,0,0,1,0-8.22,6.68,6.68,0,0,1,2.31-2.81,6,6,0,0,1,3.5-1,5.55,5.55,0,0,1,4.52,2,8.26,8.26,0,0,1,1.65,5.44c0,.26,0,.51,0,.74s0,.42,0,.59Zm4.12-6.77a3.76,3.76,0,0,0-2.82,1.19,5.67,5.67,0,0,0-1.28,3.7h7.9a5.8,5.8,0,0,0-1.06-3.66A3.4,3.4,0,0,0,506.05,220.93Z" fill="#f2f2f2"/><path d="M517.46,234.42v-1.86h2.36V221.12h-2.36v-1.86h4.2l.45,3.58a8,8,0,0,1,2.13-2.89,5.07,5.07,0,0,1,3.31-1,6.39,6.39,0,0,1,1.13.09q.5.09,1,.24l-.35,5.12h-2v-3.22h-.13c-2.32,0-4,1.66-5,5v6.42h3.08v1.86Z" fill="#f2f2f2"/><path d="M556.55,220.64l-.44-7.49h3l-.45,7.49Z" fill="#f2f2f2"/><path d="M571.57,212.92v8.41a5.73,5.73,0,0,1,2.2-1.78,6.13,6.13,0,0,1,2.64-.61,4.05,4.05,0,0,1,3.24,1.18,4.86,4.86,0,0,1,1,3.28v11h-2.42v-11a2.27,2.27,0,0,0-2.62-2.62,3.63,3.63,0,0,0-1.64.39,5.93,5.93,0,0,0-1.4,1,6.48,6.48,0,0,0-1,1.18v11h-2.42V213.18Z" fill="#f2f2f2"/><path d="M588.33,227.7a5.32,5.32,0,0,0,1.39,3.83,4.34,4.34,0,0,0,3,1.21,6,6,0,0,0,2.1-.35,9.41,9.41,0,0,0,2-1L598,233a8.28,8.28,0,0,1-2.42,1.31,8.6,8.6,0,0,1-2.79.47,6.88,6.88,0,0,1-3.77-1,6.41,6.41,0,0,1-2.36-2.77,10.83,10.83,0,0,1,0-8.22,6.75,6.75,0,0,1,2.31-2.81,6,6,0,0,1,3.5-1,5.55,5.55,0,0,1,4.52,2,8.26,8.26,0,0,1,1.65,5.44c0,.26,0,.51,0,.74s0,.42,0,.59Zm4.12-6.77a3.76,3.76,0,0,0-2.82,1.19,5.67,5.67,0,0,0-1.28,3.7h7.9a5.8,5.8,0,0,0-1.06-3.66A3.39,3.39,0,0,0,592.45,220.93Z" fill="#f2f2f2"/><path d="M609.62,213.15v17.53a1.76,1.76,0,0,0,.7,1.59,3.16,3.16,0,0,0,1.8.47,5.66,5.66,0,0,0,1.31-.15,7.39,7.39,0,0,0,1.24-.39l.65,1.77a7.11,7.11,0,0,1-1.53.54,8.17,8.17,0,0,1-2.07.24,4.76,4.76,0,0,1-3.27-1.11,4,4,0,0,1-1.25-3.09V215.07h-4.65v-1.92Z" fill="#f2f2f2"/><path d="M626.9,213.15v17.53a1.76,1.76,0,0,0,.7,1.59,3.16,3.16,0,0,0,1.8.47,5.66,5.66,0,0,0,1.31-.15,7.39,7.39,0,0,0,1.24-.39l.65,1.77a7.11,7.11,0,0,1-1.53.54,8.17,8.17,0,0,1-2.07.24,4.76,4.76,0,0,1-3.27-1.11,4,4,0,0,1-1.25-3.09V215.07h-4.65v-1.92Z" fill="#f2f2f2"/><path d="M644.05,218.94a5.73,5.73,0,0,1,4.85,2.15,9.17,9.17,0,0,1,1.64,5.74,10.54,10.54,0,0,1-.75,4.11,6.3,6.3,0,0,1-2.2,2.8,6.13,6.13,0,0,1-3.57,1,5.77,5.77,0,0,1-4.87-2.16,9.2,9.2,0,0,1-1.65-5.73,10.87,10.87,0,0,1,.74-4.13,5.91,5.91,0,0,1,5.81-3.79Zm0,2a3.36,3.36,0,0,0-3,1.46,8,8,0,0,0-1,4.49,8.1,8.1,0,0,0,1,4.46,3.34,3.34,0,0,0,2.95,1.44,3.3,3.3,0,0,0,2.94-1.45,10.66,10.66,0,0,0,0-8.95A3.31,3.31,0,0,0,644.05,220.91Z" fill="#f2f2f2"/><path d="M654.1,239.65v-2.12h14.4v2.12Z" fill="#f2f2f2"/><path d="M684.07,234.42h-3.43l-2-11.13-2.13,11.13h-3.34l-2.77-15.16h2.48l1.93,13.66,2.42-11.73h2.86l2.29,11.73,1.93-13.66h2.37Z" fill="#f2f2f2"/><path d="M695.89,218.94a5.73,5.73,0,0,1,4.85,2.15,9.17,9.17,0,0,1,1.64,5.74,10.54,10.54,0,0,1-.75,4.11,6.23,6.23,0,0,1-2.2,2.8,6.13,6.13,0,0,1-3.57,1,5.77,5.77,0,0,1-4.87-2.16,9.2,9.2,0,0,1-1.65-5.73,10.87,10.87,0,0,1,.74-4.13,5.91,5.91,0,0,1,5.81-3.79Zm0,2a3.36,3.36,0,0,0-3,1.46,10.56,10.56,0,0,0,0,8.95,3.71,3.71,0,0,0,5.88,0,10.66,10.66,0,0,0,0-8.95A3.31,3.31,0,0,0,695.89,220.91Z" fill="#f2f2f2"/><path d="M707.54,234.42v-1.86h2.36V221.12h-2.36v-1.86h4.2l.45,3.58a8.24,8.24,0,0,1,2.13-2.89,5.09,5.09,0,0,1,3.31-1,6.31,6.31,0,0,1,1.13.09q.5.09,1,.24l-.35,5.12h-2v-3.22h-.13c-2.33,0-4,1.66-5,5v6.42h3.08v1.86Z" fill="#f2f2f2"/><path d="M730.58,213.15v17.53a1.76,1.76,0,0,0,.7,1.59,3.19,3.19,0,0,0,1.8.47,5.6,5.6,0,0,0,1.31-.15,7.12,7.12,0,0,0,1.24-.39l.65,1.77a7.11,7.11,0,0,1-1.53.54,8.17,8.17,0,0,1-2.07.24,4.76,4.76,0,0,1-3.27-1.11,4,4,0,0,1-1.25-3.09V215.07h-4.65v-1.92Z" fill="#f2f2f2"/><path d="M751,212.85l2.42.3v21.27h-2.12l-.23-2a5.4,5.4,0,0,1-2,1.77,5.58,5.58,0,0,1-5.61-.43,5.77,5.77,0,0,1-1.9-2.77,12.63,12.63,0,0,1-.62-4.13,11.06,11.06,0,0,1,.7-4.07,6.57,6.57,0,0,1,2-2.82,5.51,5.51,0,0,1,7.27.76Zm-3.43,8a3.33,3.33,0,0,0-2.92,1.49,8,8,0,0,0-1,4.49c0,4,1.22,5.93,3.65,5.93a3.46,3.46,0,0,0,2.2-.72A6.9,6.9,0,0,0,751,230.4v-7.57a4.53,4.53,0,0,0-1.5-1.43A3.8,3.8,0,0,0,747.6,220.88Z" fill="#f2f2f2"/><path d="M763.92,220.64l-.45-7.49h3l-.44,7.49Z" fill="#f2f2f2"/><path d="M801.47,219.26v13.25h4.28v1.91H794.37v-1.91h4.68V221.17h-4.53v-1.91Zm-1.93-7.1a1.71,1.71,0,0,1,1.29.49,1.62,1.62,0,0,1,.48,1.19,1.68,1.68,0,0,1-1.77,1.73,1.69,1.69,0,0,1-1.74-1.73,1.59,1.59,0,0,1,.49-1.19A1.68,1.68,0,0,1,799.54,212.16Z" fill="#f2f2f2"/><path d="M816.23,232.75a5.14,5.14,0,0,0,2.77-.65,2,2,0,0,0,1-1.75,2.57,2.57,0,0,0-.25-1.18,2.25,2.25,0,0,0-1-.92,11.55,11.55,0,0,0-2.39-.81,17.47,17.47,0,0,1-2.73-.9,4.58,4.58,0,0,1-1.8-1.34,3.38,3.38,0,0,1-.64-2.13,3.51,3.51,0,0,1,1.6-3,7.15,7.15,0,0,1,4.16-1.11,9.14,9.14,0,0,1,5.5,1.67l-1.06,1.64a8.7,8.7,0,0,0-1.9-1,7.41,7.41,0,0,0-2.51-.38,4.37,4.37,0,0,0-2.53.55,1.71,1.71,0,0,0-.75,1.44A1.64,1.64,0,0,0,814,224a3,3,0,0,0,1.24.79,25.09,25.09,0,0,0,2.42.76,14.86,14.86,0,0,1,2.59.95,4.38,4.38,0,0,1,1.72,1.43,4,4,0,0,1,.61,2.3,3.65,3.65,0,0,1-.92,2.61,5.25,5.25,0,0,1-2.38,1.46,10.4,10.4,0,0,1-3.09.45,9.2,9.2,0,0,1-3.51-.6,8.72,8.72,0,0,1-2.42-1.44l1.38-1.6a7.81,7.81,0,0,0,2.05,1.19A6.89,6.89,0,0,0,816.23,232.75Z" fill="#f2f2f2"/><path d="M845.64,234.42V219.26h2.06l.18,2.1a6.07,6.07,0,0,1,2.31-1.79,6.47,6.47,0,0,1,2.7-.63,4.06,4.06,0,0,1,3.25,1.18,4.86,4.86,0,0,1,1,3.28v11h-2.42v-9.23a15,15,0,0,0-.17-2.5,2.25,2.25,0,0,0-.73-1.4,2.66,2.66,0,0,0-1.69-.45,3.7,3.7,0,0,0-1.68.39,5.55,5.55,0,0,0-1.4,1,6.69,6.69,0,0,0-1,1.18v11Z" fill="#f2f2f2"/><path d="M868.69,218.94a5.73,5.73,0,0,1,4.85,2.15,9.17,9.17,0,0,1,1.65,5.74,10.54,10.54,0,0,1-.75,4.11,6.32,6.32,0,0,1-2.21,2.8,6.13,6.13,0,0,1-3.57,1,5.77,5.77,0,0,1-4.87-2.16,9.2,9.2,0,0,1-1.65-5.73,10.67,10.67,0,0,1,.75-4.13,5.89,5.89,0,0,1,5.8-3.79Zm0,2a3.37,3.37,0,0,0-3,1.46,10.56,10.56,0,0,0,0,8.95,3.72,3.72,0,0,0,5.89,0,10.76,10.76,0,0,0,0-8.95A3.32,3.32,0,0,0,868.69,220.91Z" fill="#f2f2f2"/><path d="M892.24,233.66a6.3,6.3,0,0,1-1.89.8,8.28,8.28,0,0,1-2.18.29,5.19,5.19,0,0,1-3.77-1.28,4.38,4.38,0,0,1-1.32-3.3v-9h-3.49v-1.87h3.49v-3.44l2.42-.29v3.73h5.24l-.29,1.87h-5v9a2.57,2.57,0,0,0,.67,1.93,3,3,0,0,0,2.22.67,5.57,5.57,0,0,0,1.57-.21,6.89,6.89,0,0,0,1.34-.51Z" fill="#f2f2f2"/><path d="M922.43,219.26v13.25h4.28v1.91H915.33v-1.91H920V221.17h-4.53v-1.91Zm-1.93-7.1a1.71,1.71,0,0,1,1.29.49,1.62,1.62,0,0,1,.48,1.19,1.68,1.68,0,0,1-1.77,1.73,1.69,1.69,0,0,1-1.74-1.73,1.59,1.59,0,0,1,.49-1.19A1.7,1.7,0,0,1,920.5,212.16Z" fill="#f2f2f2"/><path d="M932,234.42V219.26h2.06l.18,2.1a6.07,6.07,0,0,1,2.31-1.79,6.48,6.48,0,0,1,2.71-.63,4,4,0,0,1,3.24,1.18,4.86,4.86,0,0,1,1,3.28v11h-2.42v-9.23a15,15,0,0,0-.17-2.5,2.25,2.25,0,0,0-.73-1.4,2.64,2.64,0,0,0-1.69-.45,3.7,3.7,0,0,0-1.68.39,5.74,5.74,0,0,0-1.4,1,7.13,7.13,0,0,0-1,1.18v11Z" fill="#f2f2f2"/><path d="M973.45,232.66a6.19,6.19,0,0,0,2.13-.36,8.54,8.54,0,0,0,1.82-1l1.18,1.58a7.21,7.21,0,0,1-2.39,1.34,8.14,8.14,0,0,1-2.74.49,7.24,7.24,0,0,1-3.85-1,6.3,6.3,0,0,1-2.43-2.74,10.57,10.57,0,0,1,0-8.21,6.72,6.72,0,0,1,2.44-2.85,6.94,6.94,0,0,1,3.87-1,7.84,7.84,0,0,1,5.07,1.76l-1.18,1.61a6.92,6.92,0,0,0-3.92-1.35,4.06,4.06,0,0,0-3.22,1.47A6.72,6.72,0,0,0,969,226.9c0,2,.42,3.5,1.27,4.4A4.19,4.19,0,0,0,973.45,232.66Z" fill="#f2f2f2"/><path d="M994.74,231.11a2.35,2.35,0,0,0,.3,1.34,1.64,1.64,0,0,0,.94.6l-.6,1.7a3.86,3.86,0,0,1-1.71-.62,2.83,2.83,0,0,1-1.06-1.51,5.28,5.28,0,0,1-2.06,1.59,6.64,6.64,0,0,1-2.7.54,4.88,4.88,0,0,1-3.58-1.28,4.51,4.51,0,0,1-1.31-3.4,4.11,4.11,0,0,1,1.83-3.6,9.34,9.34,0,0,1,5.28-1.25h2.23V224a2.67,2.67,0,0,0-.95-2.32,4.5,4.5,0,0,0-2.66-.69,10.18,10.18,0,0,0-1.76.18,14,14,0,0,0-2.19.6l-.63-1.83a14.78,14.78,0,0,1,2.61-.73,13,13,0,0,1,2.34-.22,6,6,0,0,1,4.25,1.33,4.63,4.63,0,0,1,1.43,3.57Zm-6.27,1.8a4.32,4.32,0,0,0,2.14-.57,4.81,4.81,0,0,0,1.69-1.58v-3.9h-2.19a5.53,5.53,0,0,0-3.53.87,2.84,2.84,0,0,0-1,2.31C985.55,232,986.52,232.91,988.47,232.91Z" fill="#f2f2f2"/><path d="M1011.15,218.94a3.29,3.29,0,0,1,1.4.32,2.44,2.44,0,0,1,1.11,1.22,6.37,6.37,0,0,1,.43,2.65v11.29h-2.25v-10.9a8.45,8.45,0,0,0-.17-2.06q-.17-.63-1-.63a2.6,2.6,0,0,0-1.36.42,4.5,4.5,0,0,0-1.29,1.39v11.78h-2.26v-10.9a8.33,8.33,0,0,0-.18-2.06q-.17-.63-1-.63a2.53,2.53,0,0,0-1.37.42,4.6,4.6,0,0,0-1.28,1.39v11.78h-2.23V219.26h1.9l.14,1.75a7.25,7.25,0,0,1,1.39-1.47,3,3,0,0,1,1.91-.6,3.43,3.43,0,0,1,1.63.41,2.52,2.52,0,0,1,1.12,1.59,5.66,5.66,0,0,1,1.4-1.44A3.27,3.27,0,0,1,1011.15,218.94Z" fill="#f2f2f2"/><path d="M1020.34,227.7a5.32,5.32,0,0,0,1.39,3.83,4.33,4.33,0,0,0,3,1.21,6.09,6.09,0,0,0,2.1-.35,9.35,9.35,0,0,0,1.94-1L1030,233a8.4,8.4,0,0,1-2.42,1.31,8.6,8.6,0,0,1-2.79.47,6.85,6.85,0,0,1-3.77-1,6.35,6.35,0,0,1-2.36-2.77,10.83,10.83,0,0,1,0-8.22,6.73,6.73,0,0,1,2.3-2.81,6.09,6.09,0,0,1,3.51-1,5.52,5.52,0,0,1,4.51,2,8.26,8.26,0,0,1,1.65,5.44c0,.26,0,.51,0,.74s0,.42,0,.59Zm4.12-6.77a3.75,3.75,0,0,0-2.82,1.19,5.73,5.73,0,0,0-1.29,3.7h7.91a5.8,5.8,0,0,0-1.06-3.66A3.4,3.4,0,0,0,1024.46,220.93Z" fill="#f2f2f2"/><path d="M1041.62,213.15v17.53a1.78,1.78,0,0,0,.7,1.59,3.22,3.22,0,0,0,1.81.47,5.51,5.51,0,0,0,1.3-.15,7.22,7.22,0,0,0,1.25-.39l.65,1.77a7.41,7.41,0,0,1-1.54.54,8.15,8.15,0,0,1-2.06.24,4.73,4.73,0,0,1-3.27-1.11,3.92,3.92,0,0,1-1.25-3.09V215.07h-4.66v-1.92Z" fill="#f2f2f2"/><path d="M1077.13,232.66a6.19,6.19,0,0,0,2.13-.36,8.31,8.31,0,0,0,1.82-1l1.18,1.58a7.21,7.21,0,0,1-2.39,1.34,8.14,8.14,0,0,1-2.74.49,7.24,7.24,0,0,1-3.85-1,6.21,6.21,0,0,1-2.42-2.74,10.45,10.45,0,0,1,0-8.21,6.63,6.63,0,0,1,2.43-2.85,7,7,0,0,1,3.87-1,7.84,7.84,0,0,1,5.07,1.76l-1.18,1.61a6.9,6.9,0,0,0-3.92-1.35,4.06,4.06,0,0,0-3.22,1.47,6.72,6.72,0,0,0-1.27,4.47c0,2,.42,3.5,1.27,4.4A4.19,4.19,0,0,0,1077.13,232.66Z" fill="#f2f2f2"/><path d="M1098.42,231.11a2.35,2.35,0,0,0,.3,1.34,1.64,1.64,0,0,0,.94.6l-.59,1.7a3.86,3.86,0,0,1-1.72-.62,2.83,2.83,0,0,1-1.06-1.51,5.25,5.25,0,0,1-2,1.59,6.71,6.71,0,0,1-2.7.54,4.88,4.88,0,0,1-3.59-1.28,4.55,4.55,0,0,1-1.31-3.4,4.11,4.11,0,0,1,1.83-3.6,9.36,9.36,0,0,1,5.28-1.25H1096V224a2.64,2.64,0,0,0-1-2.32,4.5,4.5,0,0,0-2.66-.69,10.27,10.27,0,0,0-1.76.18,14,14,0,0,0-2.19.6l-.63-1.83a14.78,14.78,0,0,1,2.61-.73,13.1,13.1,0,0,1,2.35-.22,6,6,0,0,1,4.24,1.33,4.63,4.63,0,0,1,1.43,3.57Zm-6.27,1.8a4.29,4.29,0,0,0,2.14-.57,4.81,4.81,0,0,0,1.69-1.58v-3.9h-2.18a5.56,5.56,0,0,0-3.54.87,2.84,2.84,0,0,0-1,2.31C1089.23,232,1090.21,232.91,1092.15,232.91Z" fill="#f2f2f2"/><path d="M1110,232.75a5.08,5.08,0,0,0,2.76-.65,2,2,0,0,0,1-1.75,2.7,2.7,0,0,0-.25-1.18,2.25,2.25,0,0,0-1-.92,11.77,11.77,0,0,0-2.39-.81,16.8,16.8,0,0,1-2.73-.9,4.51,4.51,0,0,1-1.8-1.34,3.32,3.32,0,0,1-.64-2.13,3.49,3.49,0,0,1,1.6-3,7.13,7.13,0,0,1,4.16-1.11,9.34,9.34,0,0,1,3.19.49,9.6,9.6,0,0,1,2.31,1.18l-1.07,1.64a8.62,8.62,0,0,0-1.89-1,7.45,7.45,0,0,0-2.51-.38,4.4,4.4,0,0,0-2.54.55,1.71,1.71,0,0,0-.75,1.44,1.69,1.69,0,0,0,.37,1.11,3,3,0,0,0,1.25.79,24.74,24.74,0,0,0,2.41.76,15,15,0,0,1,2.6.95,4.45,4.45,0,0,1,1.72,1.43,4,4,0,0,1,.61,2.3,3.7,3.7,0,0,1-.92,2.61,5.28,5.28,0,0,1-2.39,1.46,10.38,10.38,0,0,1-3.08.45,9.13,9.13,0,0,1-3.51-.6,8.78,8.78,0,0,1-2.43-1.44l1.39-1.6a7.5,7.5,0,0,0,2,1.19A6.81,6.81,0,0,0,1110,232.75Z" fill="#f2f2f2"/><path d="M1124,227.7a5.32,5.32,0,0,0,1.39,3.83,4.34,4.34,0,0,0,3,1.21,6,6,0,0,0,2.1-.35,9.35,9.35,0,0,0,1.94-1l1.14,1.6a8.4,8.4,0,0,1-2.42,1.31,8.6,8.6,0,0,1-2.79.47,6.85,6.85,0,0,1-3.77-1,6.35,6.35,0,0,1-2.36-2.77,10.83,10.83,0,0,1,0-8.22,6.68,6.68,0,0,1,2.31-2.81,6,6,0,0,1,3.5-1,5.55,5.55,0,0,1,4.52,2,8.26,8.26,0,0,1,1.65,5.44c0,.26,0,.51,0,.74s0,.42,0,.59Zm4.12-6.77a3.76,3.76,0,0,0-2.82,1.19,5.67,5.67,0,0,0-1.28,3.7h7.9a5.8,5.8,0,0,0-1.06-3.66A3.39,3.39,0,0,0,1128.14,220.93Z" fill="#f2f2f2"/><path d="M1180.82,232.66a6.13,6.13,0,0,0,2.12-.36,8.09,8.09,0,0,0,1.82-1l1.18,1.58a7.21,7.21,0,0,1-2.39,1.34,8.12,8.12,0,0,1-2.73.49,7.28,7.28,0,0,1-3.86-1,6.21,6.21,0,0,1-2.42-2.74,10.45,10.45,0,0,1,0-8.21A6.7,6.7,0,0,1,1177,220a7,7,0,0,1,3.88-1,7.81,7.81,0,0,1,5.06,1.76l-1.18,1.61a6.89,6.89,0,0,0-3.91-1.35,4.08,4.08,0,0,0-3.23,1.47,6.77,6.77,0,0,0-1.27,4.47,6.34,6.34,0,0,0,1.27,4.4A4.21,4.21,0,0,0,1180.82,232.66Z" fill="#757575"/><path d="M1202.1,231.11a2.35,2.35,0,0,0,.3,1.34,1.68,1.68,0,0,0,.94.6l-.59,1.7a3.9,3.9,0,0,1-1.72-.62,2.83,2.83,0,0,1-1.06-1.51,5.25,5.25,0,0,1-2,1.59,6.64,6.64,0,0,1-2.7.54,4.88,4.88,0,0,1-3.59-1.28,4.55,4.55,0,0,1-1.31-3.4,4.11,4.11,0,0,1,1.83-3.6,9.36,9.36,0,0,1,5.28-1.25h2.24V224a2.65,2.65,0,0,0-1-2.32,4.5,4.5,0,0,0-2.66-.69,10.27,10.27,0,0,0-1.76.18,13.62,13.62,0,0,0-2.18.6l-.64-1.83a14.88,14.88,0,0,1,2.62-.73,13,13,0,0,1,2.34-.22,6,6,0,0,1,4.24,1.33,4.63,4.63,0,0,1,1.43,3.57Zm-6.26,1.8a4.28,4.28,0,0,0,2.13-.57,4.93,4.93,0,0,0,1.7-1.58v-3.9h-2.19a5.56,5.56,0,0,0-3.54.87,2.87,2.87,0,0,0-1,2.31C1192.91,232,1193.89,232.91,1195.84,232.91Z" fill="#757575"/><path d="M1218.52,218.94a3.25,3.25,0,0,1,1.39.32,2.44,2.44,0,0,1,1.11,1.22,6.37,6.37,0,0,1,.43,2.65v11.29h-2.24v-10.9a9,9,0,0,0-.17-2.06.9.9,0,0,0-1-.63,2.54,2.54,0,0,0-1.35.42,4.51,4.51,0,0,0-1.3,1.39v11.78h-2.26v-10.9a9,9,0,0,0-.17-2.06.9.9,0,0,0-1-.63,2.49,2.49,0,0,0-1.36.42,4.62,4.62,0,0,0-1.29,1.39v11.78h-2.23V219.26h1.9l.15,1.75a6.74,6.74,0,0,1,1.39-1.47,3,3,0,0,1,1.9-.6,3.43,3.43,0,0,1,1.63.41,2.53,2.53,0,0,1,1.13,1.59,5.63,5.63,0,0,1,1.39-1.44A3.28,3.28,0,0,1,1218.52,218.94Z" fill="#757575"/><path d="M1227.7,227.7a5.32,5.32,0,0,0,1.39,3.83,4.34,4.34,0,0,0,3.05,1.21,6,6,0,0,0,2.1-.35,9.41,9.41,0,0,0,2-1l1.13,1.6a8.28,8.28,0,0,1-2.42,1.31,8.6,8.6,0,0,1-2.79.47,6.88,6.88,0,0,1-3.77-1A6.41,6.41,0,0,1,1226,231a10.83,10.83,0,0,1,0-8.22,6.75,6.75,0,0,1,2.31-2.81,6,6,0,0,1,3.5-1,5.55,5.55,0,0,1,4.52,2,8.26,8.26,0,0,1,1.65,5.44c0,.26,0,.51,0,.74s0,.42,0,.59Zm4.12-6.77a3.76,3.76,0,0,0-2.82,1.19,5.67,5.67,0,0,0-1.28,3.7h7.9a5.8,5.8,0,0,0-1.06-3.66A3.39,3.39,0,0,0,1231.82,220.93Z" fill="#757575"/><path d="M1249,213.15v17.53a1.76,1.76,0,0,0,.7,1.59,3.16,3.16,0,0,0,1.8.47,5.66,5.66,0,0,0,1.31-.15,7.39,7.39,0,0,0,1.24-.39l.65,1.77a7.11,7.11,0,0,1-1.53.54,8.17,8.17,0,0,1-2.07.24,4.76,4.76,0,0,1-3.27-1.11,4,4,0,0,1-1.25-3.09V215.07h-4.65v-1.92Z" fill="#757575"/><path d="M1267.22,232.66a6.13,6.13,0,0,0,2.12-.36,8.09,8.09,0,0,0,1.82-1l1.18,1.58a7.21,7.21,0,0,1-2.39,1.34,8.12,8.12,0,0,1-2.73.49,7.22,7.22,0,0,1-3.85-1,6.23,6.23,0,0,1-2.43-2.74,10.45,10.45,0,0,1,0-8.21,6.76,6.76,0,0,1,2.43-2.85,7,7,0,0,1,3.88-1,7.84,7.84,0,0,1,5.07,1.76l-1.19,1.61a6.89,6.89,0,0,0-3.91-1.35,4.08,4.08,0,0,0-3.23,1.47,6.77,6.77,0,0,0-1.27,4.47,6.34,6.34,0,0,0,1.27,4.4A4.21,4.21,0,0,0,1267.22,232.66Z" fill="#757575"/><path d="M1288.5,231.11a2.35,2.35,0,0,0,.3,1.34,1.71,1.71,0,0,0,.94.6l-.59,1.7a3.86,3.86,0,0,1-1.71-.62,2.85,2.85,0,0,1-1.07-1.51,5.25,5.25,0,0,1-2,1.59,6.64,6.64,0,0,1-2.7.54,4.9,4.9,0,0,1-3.59-1.28,4.55,4.55,0,0,1-1.31-3.4,4.11,4.11,0,0,1,1.83-3.6,9.38,9.38,0,0,1,5.29-1.25h2.23V224a2.65,2.65,0,0,0-1-2.32,4.47,4.47,0,0,0-2.66-.69,10.08,10.08,0,0,0-1.75.18,13.43,13.43,0,0,0-2.19.6l-.64-1.83a15.12,15.12,0,0,1,2.62-.73,13,13,0,0,1,2.34-.22,6,6,0,0,1,4.25,1.33,4.63,4.63,0,0,1,1.42,3.57Zm-6.26,1.8a4.32,4.32,0,0,0,2.14-.57,4.9,4.9,0,0,0,1.69-1.58v-3.9h-2.19a5.56,5.56,0,0,0-3.54.87,2.87,2.87,0,0,0-1,2.31C1279.31,232,1280.29,232.91,1282.24,232.91Z" fill="#757575"/><path d="M1300.08,232.75a5.08,5.08,0,0,0,2.76-.65,2,2,0,0,0,1-1.75,2.57,2.57,0,0,0-.25-1.18,2.25,2.25,0,0,0-1-.92,11.77,11.77,0,0,0-2.39-.81,16.8,16.8,0,0,1-2.73-.9,4.58,4.58,0,0,1-1.8-1.34,3.32,3.32,0,0,1-.64-2.13,3.49,3.49,0,0,1,1.6-3,7.13,7.13,0,0,1,4.16-1.11,9.34,9.34,0,0,1,3.19.49,9.24,9.24,0,0,1,2.31,1.18l-1.06,1.64a8.7,8.7,0,0,0-1.9-1,7.41,7.41,0,0,0-2.51-.38,4.4,4.4,0,0,0-2.54.55,1.73,1.73,0,0,0-.74,1.44,1.68,1.68,0,0,0,.36,1.11,3,3,0,0,0,1.25.79,24.21,24.21,0,0,0,2.42.76,14.86,14.86,0,0,1,2.59.95,4.45,4.45,0,0,1,1.72,1.43,4,4,0,0,1,.61,2.3,3.65,3.65,0,0,1-.92,2.61,5.25,5.25,0,0,1-2.38,1.46,10.5,10.5,0,0,1-3.09.45,9.2,9.2,0,0,1-3.51-.6,8.72,8.72,0,0,1-2.42-1.44l1.38-1.6a7.66,7.66,0,0,0,2,1.19A6.85,6.85,0,0,0,1300.08,232.75Z" fill="#757575"/><path d="M1314.1,227.7a5.37,5.37,0,0,0,1.39,3.83,4.34,4.34,0,0,0,3,1.21,6,6,0,0,0,2.1-.35,9.16,9.16,0,0,0,1.95-1l1.13,1.6a8.35,8.35,0,0,1-2.41,1.31,8.71,8.71,0,0,1-2.8.47,6.82,6.82,0,0,1-3.76-1,6.37,6.37,0,0,1-2.37-2.77,10.83,10.83,0,0,1,0-8.22,6.75,6.75,0,0,1,2.31-2.81,6,6,0,0,1,3.5-1,5.54,5.54,0,0,1,4.52,2,8.26,8.26,0,0,1,1.65,5.44c0,.26,0,.51,0,.74s0,.42,0,.59Zm4.12-6.77a3.76,3.76,0,0,0-2.82,1.19,5.67,5.67,0,0,0-1.28,3.7H1322a5.8,5.8,0,0,0-1.07-3.66A3.37,3.37,0,0,0,1318.22,220.93Z" fill="#757575"/><path d="M107.45,263.42a6.68,6.68,0,0,1,3.21.72,5.17,5.17,0,0,1,2.06,2,5.69,5.69,0,0,1,.71,2.83,7.68,7.68,0,0,1-.48,2.67,10.8,10.8,0,0,1-1.52,2.73,28.82,28.82,0,0,1-2.74,3.18c-1.13,1.16-2.51,2.49-4.15,4h9.35l-.3,2.06h-11.8v-2c1.88-1.8,3.4-3.31,4.59-4.55a34.25,34.25,0,0,0,2.76-3.21,9.78,9.78,0,0,0,1.36-2.46,7.35,7.35,0,0,0,.38-2.34,3.59,3.59,0,0,0-.94-2.63,3.42,3.42,0,0,0-2.6-1,5,5,0,0,0-2.41.51,6.55,6.55,0,0,0-1.87,1.61l-1.67-1.3a7.11,7.11,0,0,1,6.06-2.83Z" fill="#757575"/><path d="M123.26,268.86a2.27,2.27,0,0,1,.67-1.64,2.25,2.25,0,0,1,1.65-.68,2.28,2.28,0,0,1,1.68.68,2.23,2.23,0,0,1,.67,1.64,2.31,2.31,0,0,1-.67,1.66,2.25,2.25,0,0,1-1.68.69,2.22,2.22,0,0,1-1.65-.69A2.35,2.35,0,0,1,123.26,268.86Zm0,10.38a2.28,2.28,0,0,1,.67-1.62,2.19,2.19,0,0,1,1.65-.7,2.34,2.34,0,0,1,2.35,2.32,2.31,2.31,0,0,1-2.35,2.35,2.25,2.25,0,0,1-1.65-.68A2.33,2.33,0,0,1,123.26,279.24Z" fill="#757575"/><path d="M149.16,281.59v2H137.71v-2h4.88V266.35L138,269.12l-1-1.73,5.9-3.66H145v17.86Z" fill="#757575"/><path d="M217.5,283.56h-3.43l-2-11.13L210,283.56h-3.34l-2.76-15.16h2.47l1.93,13.66,2.42-11.73h2.87l2.29,11.73,1.93-13.66h2.36Z" fill="#ffee58"/><path d="M234.4,280.25a2.32,2.32,0,0,0,.31,1.34,1.65,1.65,0,0,0,.93.6l-.59,1.7a3.86,3.86,0,0,1-1.71-.62,2.81,2.81,0,0,1-1.07-1.51,5.18,5.18,0,0,1-2.05,1.59,6.64,6.64,0,0,1-2.7.54,4.86,4.86,0,0,1-3.58-1.28,4.52,4.52,0,0,1-1.32-3.4,4.11,4.11,0,0,1,1.83-3.6,9.4,9.4,0,0,1,5.29-1.25H232v-1.27a2.65,2.65,0,0,0-1-2.32,4.44,4.44,0,0,0-2.65-.69,10.18,10.18,0,0,0-1.76.18,14,14,0,0,0-2.19.6l-.63-1.83a14.78,14.78,0,0,1,2.61-.73,13,13,0,0,1,2.34-.22,6,6,0,0,1,4.25,1.33A4.63,4.63,0,0,1,234.4,273Zm-6.26,1.8a4.32,4.32,0,0,0,2.14-.57A4.81,4.81,0,0,0,232,279.9V276h-2.19a5.51,5.51,0,0,0-3.53.87,2.84,2.84,0,0,0-1,2.31C225.22,281.1,226.19,282.05,228.14,282.05Z" fill="#ffee58"/><path d="M241,283.56v-1.85h2.36V270.26H241V268.4h4.21l.44,3.58a8.24,8.24,0,0,1,2.13-2.89,5.1,5.1,0,0,1,3.32-1,6.39,6.39,0,0,1,1.13.09,9.82,9.82,0,0,1,1,.24l-.34,5.13h-2V270.3h-.13q-3.48,0-5,5v6.43h3.08v1.85Z" fill="#ffee58"/><path d="M258.11,283.56V268.4h2.06l.18,2.1a6.17,6.17,0,0,1,2.31-1.79,6.48,6.48,0,0,1,2.71-.63,4.07,4.07,0,0,1,3.24,1.18,4.87,4.87,0,0,1,1,3.29v11h-2.42v-9.23a15,15,0,0,0-.17-2.5,2.25,2.25,0,0,0-.73-1.4,2.66,2.66,0,0,0-1.69-.45,3.7,3.7,0,0,0-1.68.39,6,6,0,0,0-1.4,1,7.13,7.13,0,0,0-1,1.18v11Z" fill="#ffee58"/><path d="M283.06,268.4v13.25h4.28v1.91H276v-1.91h4.68V270.31h-4.53V268.4Zm-1.93-7.1a1.71,1.71,0,0,1,1.29.49,1.64,1.64,0,0,1,.48,1.19,1.74,1.74,0,0,1-.48,1.24,1.71,1.71,0,0,1-1.29.49,1.68,1.68,0,0,1-1.25-.49,1.7,1.7,0,0,1-.49-1.24,1.61,1.61,0,0,1,.49-1.19A1.68,1.68,0,0,1,281.13,261.3Z" fill="#ffee58"/><path d="M292.67,283.56V268.4h2.06l.18,2.1a6.17,6.17,0,0,1,2.31-1.79,6.48,6.48,0,0,1,2.71-.63,4.07,4.07,0,0,1,3.24,1.18,4.87,4.87,0,0,1,1,3.29v11h-2.42v-9.23a15,15,0,0,0-.17-2.5,2.25,2.25,0,0,0-.73-1.4,2.64,2.64,0,0,0-1.69-.45,3.7,3.7,0,0,0-1.68.39,6,6,0,0,0-1.4,1,7.13,7.13,0,0,0-1,1.18v11Z" fill="#ffee58"/><path d="M322.27,266.79l.75,2.27a9.16,9.16,0,0,1-2.06.38c-.73,0-1.52.07-2.37.07a4,4,0,0,1,2.63,3.81,4.93,4.93,0,0,1-1.5,3.7,5.78,5.78,0,0,1-4.2,1.46,9,9,0,0,1-1.27-.07,6.46,6.46,0,0,1-1-.22,2,2,0,0,0-.57.64,1.66,1.66,0,0,0-.22.83,1.12,1.12,0,0,0,.43.91,2.59,2.59,0,0,0,1.6.36h2.73a6.67,6.67,0,0,1,2.74.54,4.9,4.9,0,0,1,1.92,1.48,3.38,3.38,0,0,1,.7,2.1,3.81,3.81,0,0,1-1.89,3.42,10,10,0,0,1-5.35,1.2,11.81,11.81,0,0,1-3.82-.5,3.57,3.57,0,0,1-2-1.51,5,5,0,0,1-.6-2.56h2.19a2.82,2.82,0,0,0,.34,1.46,2.17,2.17,0,0,0,1.26.86,9.51,9.51,0,0,0,2.6.28,8,8,0,0,0,3.66-.63,2,2,0,0,0,1.15-1.87,1.73,1.73,0,0,0-1-1.62,4.87,4.87,0,0,0-2.44-.55H314a4.17,4.17,0,0,1-2.9-.86,2.68,2.68,0,0,1-.92-2,3.15,3.15,0,0,1,1.67-2.65,4.45,4.45,0,0,1-2.55-4.19,4.93,4.93,0,0,1,.77-2.73,5.33,5.33,0,0,1,2.13-1.87,7,7,0,0,1,3.15-.67,25.52,25.52,0,0,0,3.11-.16,11,11,0,0,0,2.06-.45C321.1,267.27,321.68,267,322.27,266.79Zm-6.91,3a3.41,3.41,0,0,0-2.7,1,4,4,0,0,0,0,5,3.46,3.46,0,0,0,2.74,1,3.16,3.16,0,0,0,2.45-.94,3.71,3.71,0,0,0,.85-2.61Q318.72,269.84,315.36,269.84Z" fill="#ffee58"/><path d="M374.09,263.73v13.41a7.44,7.44,0,0,1-.81,3.53A5.75,5.75,0,0,1,371,283a7.61,7.61,0,0,1-7,0,5.71,5.71,0,0,1-2.24-2.38,7.61,7.61,0,0,1-.78-3.52V263.73h2.48v13.5a4.76,4.76,0,0,0,1.06,3.38,4.56,4.56,0,0,0,6,0,4.8,4.8,0,0,0,1.06-3.38v-13.5Z" fill="#f2f2f2"/><path d="M379.07,283.56V268.4h2.06l.19,2.1a6.06,6.06,0,0,1,2.3-1.79,6.48,6.48,0,0,1,2.71-.63,4.07,4.07,0,0,1,3.24,1.18,4.87,4.87,0,0,1,1,3.29v11h-2.42v-9.23a15,15,0,0,0-.17-2.5,2.25,2.25,0,0,0-.73-1.4,2.64,2.64,0,0,0-1.69-.45,3.7,3.7,0,0,0-1.68.39,6,6,0,0,0-1.4,1,7.65,7.65,0,0,0-1,1.18v11Z" fill="#f2f2f2"/><path d="M398.25,276.84a5.32,5.32,0,0,0,1.39,3.83,4.28,4.28,0,0,0,3.05,1.21,6.09,6.09,0,0,0,2.1-.35,9.35,9.35,0,0,0,1.94-1l1.14,1.6a8.17,8.17,0,0,1-2.42,1.31,8.34,8.34,0,0,1-2.79.47,6.85,6.85,0,0,1-3.77-1,6.35,6.35,0,0,1-2.36-2.77,10.83,10.83,0,0,1,0-8.22,6.73,6.73,0,0,1,2.3-2.81,6.09,6.09,0,0,1,3.51-1,5.52,5.52,0,0,1,4.51,2,8.26,8.26,0,0,1,1.65,5.44c0,.26,0,.51,0,.74s0,.42,0,.59Zm4.12-6.77a3.75,3.75,0,0,0-2.82,1.19,5.73,5.73,0,0,0-1.29,3.71h7.91a5.75,5.75,0,0,0-1.07-3.67A3.37,3.37,0,0,0,402.37,270.07Z" fill="#f2f2f2"/><path d="M415.1,283.56h-2.77l5.61-8L413,268.4h2.87L419.4,274,423,268.4h2.77l-4.9,7.06,5.59,8.1h-3l-4.15-6.51Z" fill="#f2f2f2"/><path d="M437.69,268.08a5,5,0,0,1,3.22,1,5.49,5.49,0,0,1,1.74,2.76,14.68,14.68,0,0,1,.53,4.15,12.07,12.07,0,0,1-.64,4.09,6.08,6.08,0,0,1-1.94,2.81,5.11,5.11,0,0,1-3.27,1,5,5,0,0,1-4-1.75v7.23l-2.42.3V268.4H433l.2,2.12a6,6,0,0,1,2-1.8A5.09,5.09,0,0,1,437.69,268.08Zm-.57,1.95a3.5,3.5,0,0,0-2.22.75,7.27,7.27,0,0,0-1.57,1.68V280a4.4,4.4,0,0,0,1.49,1.39,4,4,0,0,0,2,.51,3.18,3.18,0,0,0,2.84-1.44,8.34,8.34,0,0,0,.95-4.48C440.59,272,439.43,270,437.12,270Z" fill="#f2f2f2"/><path d="M450.09,276.84a5.32,5.32,0,0,0,1.39,3.83,4.3,4.3,0,0,0,3,1.21,6.09,6.09,0,0,0,2.1-.35,9.35,9.35,0,0,0,1.94-1l1.14,1.6a8.17,8.17,0,0,1-2.42,1.31,8.34,8.34,0,0,1-2.79.47,6.85,6.85,0,0,1-3.77-1,6.35,6.35,0,0,1-2.36-2.77,10.83,10.83,0,0,1,0-8.22,6.73,6.73,0,0,1,2.3-2.81,6.09,6.09,0,0,1,3.51-1,5.55,5.55,0,0,1,4.52,2,8.31,8.31,0,0,1,1.64,5.44c0,.26,0,.51,0,.74s0,.42,0,.59Zm4.12-6.77a3.76,3.76,0,0,0-2.82,1.19,5.68,5.68,0,0,0-1.28,3.71H458A5.81,5.81,0,0,0,457,271.3,3.4,3.4,0,0,0,454.21,270.07Z" fill="#f2f2f2"/><path d="M472.33,281.81a6.17,6.17,0,0,0,2.12-.37,7.9,7.9,0,0,0,1.82-1l1.18,1.58a7.21,7.21,0,0,1-2.39,1.34,8.12,8.12,0,0,1-2.73.49,7.25,7.25,0,0,1-3.86-1,6.24,6.24,0,0,1-2.42-2.73,10.47,10.47,0,0,1,0-8.22,6.54,6.54,0,0,1,2.43-2.84,6.91,6.91,0,0,1,3.87-1.05,7.84,7.84,0,0,1,5.07,1.76l-1.18,1.61a6.89,6.89,0,0,0-3.91-1.35,4.07,4.07,0,0,0-3.23,1.47,6.73,6.73,0,0,0-1.27,4.48,6.28,6.28,0,0,0,1.27,4.39A4.21,4.21,0,0,0,472.33,281.81Z" fill="#f2f2f2"/><path d="M494.79,282.8a6.57,6.57,0,0,1-1.89.81,8.68,8.68,0,0,1-2.17.28,5.17,5.17,0,0,1-3.77-1.28,4.35,4.35,0,0,1-1.33-3.3v-9h-3.48V268.4h3.48V265l2.42-.29v3.73h5.24l-.29,1.87h-4.95v9a2.56,2.56,0,0,0,.67,1.92,3.06,3.06,0,0,0,2.22.67,6,6,0,0,0,1.57-.2,7.62,7.62,0,0,0,1.34-.52Z" fill="#f2f2f2"/><path d="M501.93,276.84a5.32,5.32,0,0,0,1.39,3.83,4.3,4.3,0,0,0,3.05,1.21,6,6,0,0,0,2.1-.35,9.35,9.35,0,0,0,1.94-1l1.14,1.6a8.17,8.17,0,0,1-2.42,1.31,8.34,8.34,0,0,1-2.79.47,6.85,6.85,0,0,1-3.77-1,6.35,6.35,0,0,1-2.36-2.77,10.83,10.83,0,0,1,0-8.22,6.68,6.68,0,0,1,2.31-2.81,6,6,0,0,1,3.5-1,5.55,5.55,0,0,1,4.52,2,8.26,8.26,0,0,1,1.65,5.44c0,.26,0,.51,0,.74s0,.42,0,.59Zm4.12-6.77a3.76,3.76,0,0,0-2.82,1.19A5.68,5.68,0,0,0,502,275h7.9a5.81,5.81,0,0,0-1.06-3.67A3.4,3.4,0,0,0,506.05,270.07Z" fill="#f2f2f2"/><path d="M526.38,262l2.42.3v21.27h-2.11l-.23-2a5.35,5.35,0,0,1-2,1.77,5,5,0,0,1-2.35.56,5.14,5.14,0,0,1-3.25-1,5.77,5.77,0,0,1-1.9-2.77,12.37,12.37,0,0,1-.62-4.13,11.1,11.1,0,0,1,.7-4.07,6.49,6.49,0,0,1,2-2.82,5.49,5.49,0,0,1,7.26.76ZM523,270a3.34,3.34,0,0,0-2.93,1.48,8,8,0,0,0-1,4.49c0,4,1.22,5.94,3.64,5.94a3.5,3.5,0,0,0,2.21-.73,6.86,6.86,0,0,0,1.52-1.67V272a4.61,4.61,0,0,0-1.49-1.43A3.79,3.79,0,0,0,523,270Z" fill="#f2f2f2"/><path d="M558.73,281.81a6.13,6.13,0,0,0,2.12-.37,7.7,7.7,0,0,0,1.82-1l1.18,1.58a7.21,7.21,0,0,1-2.39,1.34,8.12,8.12,0,0,1-2.73.49,7.22,7.22,0,0,1-3.85-1,6.2,6.2,0,0,1-2.43-2.73,10.47,10.47,0,0,1,0-8.22,6.61,6.61,0,0,1,2.43-2.84,6.92,6.92,0,0,1,3.88-1.05,7.79,7.79,0,0,1,5.06,1.76l-1.18,1.61a6.89,6.89,0,0,0-3.91-1.35,4.08,4.08,0,0,0-3.23,1.47,6.78,6.78,0,0,0-1.27,4.48,6.32,6.32,0,0,0,1.27,4.39A4.22,4.22,0,0,0,558.73,281.81Z" fill="#f2f2f2"/><path d="M574.93,268.08a5.73,5.73,0,0,1,4.85,2.15,9.23,9.23,0,0,1,1.64,5.74,10.54,10.54,0,0,1-.75,4.11,6.3,6.3,0,0,1-2.2,2.8,6.06,6.06,0,0,1-3.57,1,5.76,5.76,0,0,1-4.87-2.16,9.2,9.2,0,0,1-1.65-5.73,10.59,10.59,0,0,1,.74-4.12,6.21,6.21,0,0,1,2.21-2.8A6.3,6.3,0,0,1,574.93,268.08Zm0,2a3.35,3.35,0,0,0-3,1.46,8,8,0,0,0-1,4.49,8.1,8.1,0,0,0,1,4.46,3.71,3.71,0,0,0,5.89,0,10.66,10.66,0,0,0,0-8.95A3.31,3.31,0,0,0,574.93,270.05Z" fill="#f2f2f2"/><path d="M586.43,283.56V268.4h2.06l.19,2.1a6.06,6.06,0,0,1,2.3-1.79,6.55,6.55,0,0,1,2.71-.63,4.1,4.1,0,0,1,3.25,1.18,4.92,4.92,0,0,1,1,3.29v11h-2.42v-9.23a14,14,0,0,0-.17-2.5,2.2,2.2,0,0,0-.73-1.4,2.64,2.64,0,0,0-1.69-.45,3.77,3.77,0,0,0-1.68.39,6,6,0,0,0-1.39,1,7.22,7.22,0,0,0-1,1.18v11Z" fill="#f2f2f2"/><path d="M608.87,281.89a5,5,0,0,0,2.76-.65,2,2,0,0,0,1-1.75,2.57,2.57,0,0,0-.25-1.18,2.31,2.31,0,0,0-1-.92,11.77,11.77,0,0,0-2.39-.81,16.8,16.8,0,0,1-2.73-.9,4.66,4.66,0,0,1-1.8-1.33,3.37,3.37,0,0,1-.64-2.14,3.49,3.49,0,0,1,1.6-3,7.13,7.13,0,0,1,4.16-1.11,9.59,9.59,0,0,1,3.19.49,9.24,9.24,0,0,1,2.31,1.18L614,271.39a8.7,8.7,0,0,0-1.9-1,7.41,7.41,0,0,0-2.51-.38,4.49,4.49,0,0,0-2.54.55,1.71,1.71,0,0,0-.75,1.44,1.69,1.69,0,0,0,.37,1.11,3,3,0,0,0,1.25.79,24.21,24.21,0,0,0,2.42.76,14.86,14.86,0,0,1,2.59.95,4.39,4.39,0,0,1,1.72,1.44,3.92,3.92,0,0,1,.61,2.29,3.69,3.69,0,0,1-.92,2.62,5.32,5.32,0,0,1-2.38,1.45,10.5,10.5,0,0,1-3.09.45,9.41,9.41,0,0,1-3.51-.59,8.73,8.73,0,0,1-2.42-1.45l1.38-1.6a7.4,7.4,0,0,0,2,1.19A6.85,6.85,0,0,0,608.87,281.89Z" fill="#f2f2f2"/><path d="M626.77,268.08a5.73,5.73,0,0,1,4.85,2.15,9.23,9.23,0,0,1,1.64,5.74,10.54,10.54,0,0,1-.75,4.11,6.3,6.3,0,0,1-2.2,2.8,6.06,6.06,0,0,1-3.57,1,5.77,5.77,0,0,1-4.87-2.16,9.2,9.2,0,0,1-1.65-5.73,10.59,10.59,0,0,1,.74-4.12,6.21,6.21,0,0,1,2.21-2.8A6.3,6.3,0,0,1,626.77,268.08Zm0,2a3.36,3.36,0,0,0-3,1.46,8,8,0,0,0-1,4.49,8.1,8.1,0,0,0,1,4.46,3.71,3.71,0,0,0,5.89,0,10.66,10.66,0,0,0,0-8.95A3.31,3.31,0,0,0,626.77,270.05Z" fill="#f2f2f2"/><path d="M644.18,262.29v17.53a1.76,1.76,0,0,0,.7,1.59,3.16,3.16,0,0,0,1.8.47,5.66,5.66,0,0,0,1.31-.15,7.39,7.39,0,0,0,1.24-.39l.65,1.78a8.38,8.38,0,0,1-1.53.54,8.68,8.68,0,0,1-2.07.23,4.76,4.76,0,0,1-3.27-1.11,4,4,0,0,1-1.25-3.09V264.21h-4.65v-1.92Z" fill="#f2f2f2"/><path d="M657.45,276.84a5.37,5.37,0,0,0,1.39,3.83,4.3,4.3,0,0,0,3,1.21,6,6,0,0,0,2.1-.35,9.41,9.41,0,0,0,2-1l1.13,1.6a8.12,8.12,0,0,1-2.41,1.31,8.44,8.44,0,0,1-2.8.47,6.82,6.82,0,0,1-3.76-1,6.37,6.37,0,0,1-2.37-2.77,10.83,10.83,0,0,1,0-8.22A6.75,6.75,0,0,1,658,269.1a6,6,0,0,1,3.5-1,5.54,5.54,0,0,1,4.52,2,8.26,8.26,0,0,1,1.65,5.44c0,.26,0,.51,0,.74s0,.42,0,.59Zm4.12-6.77a3.76,3.76,0,0,0-2.82,1.19,5.68,5.68,0,0,0-1.28,3.71h7.91a5.81,5.81,0,0,0-1.07-3.67A3.37,3.37,0,0,0,661.57,270.07Z" fill="#f2f2f2"/><path d="M695.27,281.89a5,5,0,0,0,2.76-.65,2,2,0,0,0,1-1.75,2.57,2.57,0,0,0-.25-1.18,2.31,2.31,0,0,0-1-.92,11.55,11.55,0,0,0-2.39-.81,16.8,16.8,0,0,1-2.73-.9,4.66,4.66,0,0,1-1.8-1.33,3.37,3.37,0,0,1-.64-2.14,3.49,3.49,0,0,1,1.6-3,7.13,7.13,0,0,1,4.16-1.11,9.59,9.59,0,0,1,3.19.49,9.24,9.24,0,0,1,2.31,1.18l-1.06,1.64a8.7,8.7,0,0,0-1.9-1A7.41,7.41,0,0,0,696,270a4.43,4.43,0,0,0-2.53.55,1.71,1.71,0,0,0-.75,1.44,1.68,1.68,0,0,0,.36,1.11,3,3,0,0,0,1.25.79,24.21,24.21,0,0,0,2.42.76,14.86,14.86,0,0,1,2.59.95,4.39,4.39,0,0,1,1.72,1.44,3.92,3.92,0,0,1,.61,2.29,3.69,3.69,0,0,1-.92,2.62,5.32,5.32,0,0,1-2.38,1.45,10.5,10.5,0,0,1-3.09.45,9.41,9.41,0,0,1-3.51-.59,8.73,8.73,0,0,1-2.42-1.45l1.38-1.6a7.4,7.4,0,0,0,2,1.19A6.85,6.85,0,0,0,695.27,281.89Z" fill="#f2f2f2"/><path d="M719.43,282.8a6.38,6.38,0,0,1-1.88.81,8.75,8.75,0,0,1-2.18.28,5.17,5.17,0,0,1-3.77-1.28,4.39,4.39,0,0,1-1.33-3.3v-9h-3.48V268.4h3.48V265l2.42-.29v3.73h5.25l-.29,1.87h-5v9a2.6,2.6,0,0,0,.67,1.92,3.07,3.07,0,0,0,2.23.67,6,6,0,0,0,1.57-.2,7.93,7.93,0,0,0,1.34-.52Z" fill="#f2f2f2"/><path d="M735.53,280.25a2.33,2.33,0,0,0,.3,1.34,1.71,1.71,0,0,0,.94.6l-.59,1.7a3.86,3.86,0,0,1-1.71-.62,2.81,2.81,0,0,1-1.07-1.51,5.25,5.25,0,0,1-2,1.59,6.64,6.64,0,0,1-2.7.54,4.9,4.9,0,0,1-3.59-1.28,4.55,4.55,0,0,1-1.31-3.4,4.11,4.11,0,0,1,1.83-3.6,9.38,9.38,0,0,1,5.29-1.25h2.23v-1.27a2.65,2.65,0,0,0-1-2.32,4.47,4.47,0,0,0-2.66-.69,10.17,10.17,0,0,0-1.75.18,14,14,0,0,0-2.19.6l-.63-1.83a14.78,14.78,0,0,1,2.61-.73,13,13,0,0,1,2.34-.22,6,6,0,0,1,4.25,1.33,4.63,4.63,0,0,1,1.42,3.57Zm-6.26,1.8a4.32,4.32,0,0,0,2.14-.57,4.9,4.9,0,0,0,1.69-1.58V276h-2.19a5.51,5.51,0,0,0-3.53.87,2.84,2.84,0,0,0-1,2.31C726.35,281.1,727.32,282.05,729.27,282.05Z" fill="#f2f2f2"/><path d="M754,282.8a6.38,6.38,0,0,1-1.88.81,8.75,8.75,0,0,1-2.18.28,5.17,5.17,0,0,1-3.77-1.28,4.39,4.39,0,0,1-1.33-3.3v-9h-3.48V268.4h3.48V265l2.42-.29v3.73h5.25l-.29,1.87h-5v9a2.6,2.6,0,0,0,.67,1.92,3.07,3.07,0,0,0,2.23.67,6,6,0,0,0,1.57-.2,7.93,7.93,0,0,0,1.34-.52Z" fill="#f2f2f2"/><path d="M761.14,276.84a5.28,5.28,0,0,0,1.39,3.83,4.26,4.26,0,0,0,3,1.21,6,6,0,0,0,2.1-.35,9.16,9.16,0,0,0,2-1l1.14,1.6a8.3,8.3,0,0,1-2.42,1.31,8.44,8.44,0,0,1-2.8.47,6.82,6.82,0,0,1-3.76-1,6.35,6.35,0,0,1-2.36-2.77,10.71,10.71,0,0,1,0-8.22,6.73,6.73,0,0,1,2.3-2.81,6,6,0,0,1,3.51-1,5.53,5.53,0,0,1,4.51,2,8.26,8.26,0,0,1,1.65,5.44c0,.26,0,.51,0,.74s0,.42,0,.59Zm4.11-6.77a3.76,3.76,0,0,0-2.82,1.19,5.73,5.73,0,0,0-1.28,3.71h7.91A5.81,5.81,0,0,0,768,271.3,3.37,3.37,0,0,0,765.25,270.07Z" fill="#f2f2f2"/><path d="M786.51,268.08a3.29,3.29,0,0,1,1.4.32,2.44,2.44,0,0,1,1.11,1.22,6.53,6.53,0,0,1,.43,2.65v11.29H787.2v-10.9a9,9,0,0,0-.17-2.06.9.9,0,0,0-1-.63,2.54,2.54,0,0,0-1.35.42,4.64,4.64,0,0,0-1.3,1.39v11.78h-2.26v-10.9a8.45,8.45,0,0,0-.17-2.06c-.11-.42-.45-.63-1-.63a2.53,2.53,0,0,0-1.37.42,4.6,4.6,0,0,0-1.28,1.39v11.78h-2.23V268.4H777l.14,1.76a6.8,6.8,0,0,1,1.39-1.48,3,3,0,0,1,1.91-.6,3.46,3.46,0,0,1,1.63.41,2.59,2.59,0,0,1,1.12,1.59,5.83,5.83,0,0,1,1.4-1.44A3.23,3.23,0,0,1,786.51,268.08Z" fill="#f2f2f2"/><path d="M795.7,276.84a5.28,5.28,0,0,0,1.39,3.83,4.28,4.28,0,0,0,3,1.21,6,6,0,0,0,2.1-.35,9.16,9.16,0,0,0,1.95-1l1.14,1.6a8.17,8.17,0,0,1-2.42,1.31,8.44,8.44,0,0,1-2.8.47,6.82,6.82,0,0,1-3.76-1,6.35,6.35,0,0,1-2.36-2.77,10.71,10.71,0,0,1,0-8.22,6.73,6.73,0,0,1,2.3-2.81,6,6,0,0,1,3.51-1,5.53,5.53,0,0,1,4.51,2,8.26,8.26,0,0,1,1.65,5.44c0,.26,0,.51,0,.74s0,.42,0,.59Zm4.12-6.77a3.77,3.77,0,0,0-2.83,1.19,5.73,5.73,0,0,0-1.28,3.71h7.91a5.81,5.81,0,0,0-1.07-3.67A3.37,3.37,0,0,0,799.82,270.07Z" fill="#f2f2f2"/><path d="M811.08,283.56V268.4h2.06l.18,2.1a6.17,6.17,0,0,1,2.31-1.79,6.47,6.47,0,0,1,2.7-.63,4.1,4.1,0,0,1,3.25,1.18,4.87,4.87,0,0,1,1,3.29v11h-2.42v-9.23a13.87,13.87,0,0,0-.18-2.5,2.19,2.19,0,0,0-.72-1.4,2.68,2.68,0,0,0-1.7-.45,3.69,3.69,0,0,0-1.67.39,5.82,5.82,0,0,0-1.4,1,6.69,6.69,0,0,0-1,1.18v11Z" fill="#f2f2f2"/><path d="M840.4,282.8a6.57,6.57,0,0,1-1.89.81,8.75,8.75,0,0,1-2.18.28,5.17,5.17,0,0,1-3.77-1.28,4.38,4.38,0,0,1-1.32-3.3v-9h-3.49V268.4h3.49V265l2.42-.29v3.73h5.24l-.29,1.87h-5v9a2.56,2.56,0,0,0,.67,1.92,3,3,0,0,0,2.22.67,6,6,0,0,0,1.57-.2,7.62,7.62,0,0,0,1.34-.52Z" fill="#f2f2f2"/><path d="M1174,283.56V268.4H1176l.19,2.1a6.06,6.06,0,0,1,2.3-1.79,6.52,6.52,0,0,1,2.71-.63,4.1,4.1,0,0,1,3.25,1.18,4.92,4.92,0,0,1,1,3.29v11h-2.42v-9.23a14,14,0,0,0-.17-2.5,2.2,2.2,0,0,0-.73-1.4,2.64,2.64,0,0,0-1.69-.45,3.77,3.77,0,0,0-1.68.39,5.76,5.76,0,0,0-1.39,1,7.22,7.22,0,0,0-1,1.18v11Z" fill="#757575"/><path d="M1197,268.08a5.73,5.73,0,0,1,4.85,2.15,9.23,9.23,0,0,1,1.64,5.74,10.54,10.54,0,0,1-.75,4.11,6.3,6.3,0,0,1-2.2,2.8,6.06,6.06,0,0,1-3.57,1,5.76,5.76,0,0,1-4.87-2.16,9.2,9.2,0,0,1-1.66-5.73,10.59,10.59,0,0,1,.75-4.12,6.21,6.21,0,0,1,2.21-2.8A6.3,6.3,0,0,1,1197,268.08Zm0,2a3.35,3.35,0,0,0-3,1.46,8,8,0,0,0-1,4.49,8.1,8.1,0,0,0,1,4.46,3.71,3.71,0,0,0,5.89,0,10.66,10.66,0,0,0,0-8.95A3.31,3.31,0,0,0,1197,270.05Z" fill="#757575"/><path d="M1208.49,276.75v-2.1H1220v2.1Z" fill="#757575"/><path d="M1232.66,281.81a6.13,6.13,0,0,0,2.12-.37,7.7,7.7,0,0,0,1.82-1l1.18,1.58a7.21,7.21,0,0,1-2.39,1.34,8.12,8.12,0,0,1-2.73.49,7.22,7.22,0,0,1-3.85-1,6.26,6.26,0,0,1-2.43-2.73,10.47,10.47,0,0,1,0-8.22,6.68,6.68,0,0,1,2.43-2.84,6.92,6.92,0,0,1,3.88-1.05,7.79,7.79,0,0,1,5.06,1.76l-1.18,1.61a6.89,6.89,0,0,0-3.91-1.35,4.08,4.08,0,0,0-3.23,1.47,6.78,6.78,0,0,0-1.27,4.48,6.32,6.32,0,0,0,1.27,4.39A4.22,4.22,0,0,0,1232.66,281.81Z" fill="#757575"/><path d="M1248.86,268.08a5.73,5.73,0,0,1,4.85,2.15,9.23,9.23,0,0,1,1.64,5.74,10.54,10.54,0,0,1-.75,4.11,6.3,6.3,0,0,1-2.2,2.8,6.06,6.06,0,0,1-3.57,1,5.77,5.77,0,0,1-4.87-2.16,9.2,9.2,0,0,1-1.65-5.73,10.59,10.59,0,0,1,.74-4.12,6.21,6.21,0,0,1,2.21-2.8A6.3,6.3,0,0,1,1248.86,268.08Zm0,2a3.36,3.36,0,0,0-3,1.46,8,8,0,0,0-1,4.49,8.1,8.1,0,0,0,1,4.46,3.71,3.71,0,0,0,5.89,0,10.66,10.66,0,0,0,0-8.95A3.31,3.31,0,0,0,1248.86,270.05Z" fill="#757575"/><path d="M1260.36,283.56V268.4h2.06l.19,2.1a6.06,6.06,0,0,1,2.3-1.79,6.55,6.55,0,0,1,2.71-.63,4.1,4.1,0,0,1,3.25,1.18,4.92,4.92,0,0,1,1,3.29v11h-2.42v-9.23a14,14,0,0,0-.17-2.5,2.2,2.2,0,0,0-.73-1.4,2.64,2.64,0,0,0-1.69-.45,3.77,3.77,0,0,0-1.68.39,6,6,0,0,0-1.39,1,7.22,7.22,0,0,0-1,1.18v11Z" fill="#757575"/><path d="M1282.8,281.89a5,5,0,0,0,2.76-.65,2,2,0,0,0,1-1.75,2.57,2.57,0,0,0-.25-1.18,2.31,2.31,0,0,0-1-.92,11.77,11.77,0,0,0-2.39-.81,16.8,16.8,0,0,1-2.73-.9,4.66,4.66,0,0,1-1.8-1.33,3.37,3.37,0,0,1-.64-2.14,3.49,3.49,0,0,1,1.6-3,7.13,7.13,0,0,1,4.16-1.11,9.59,9.59,0,0,1,3.19.49,9.24,9.24,0,0,1,2.31,1.18l-1.06,1.64a8.7,8.7,0,0,0-1.9-1,7.41,7.41,0,0,0-2.51-.38,4.49,4.49,0,0,0-2.54.55,1.73,1.73,0,0,0-.74,1.44,1.68,1.68,0,0,0,.36,1.11,3,3,0,0,0,1.25.79,24.21,24.21,0,0,0,2.42.76,14.86,14.86,0,0,1,2.59.95,4.39,4.39,0,0,1,1.72,1.44,3.92,3.92,0,0,1,.61,2.29,3.69,3.69,0,0,1-.92,2.62,5.32,5.32,0,0,1-2.38,1.45,10.5,10.5,0,0,1-3.09.45,9.41,9.41,0,0,1-3.51-.59,8.73,8.73,0,0,1-2.42-1.45l1.38-1.6a7.4,7.4,0,0,0,2,1.19A6.85,6.85,0,0,0,1282.8,281.89Z" fill="#757575"/><path d="M1300.7,268.08a5.73,5.73,0,0,1,4.85,2.15,9.17,9.17,0,0,1,1.64,5.74,10.54,10.54,0,0,1-.75,4.11,6.23,6.23,0,0,1-2.2,2.8,6.06,6.06,0,0,1-3.57,1,5.77,5.77,0,0,1-4.87-2.16,9.2,9.2,0,0,1-1.65-5.73,10.78,10.78,0,0,1,.74-4.12,6.16,6.16,0,0,1,2.22-2.8A6.25,6.25,0,0,1,1300.7,268.08Zm0,2a3.36,3.36,0,0,0-3,1.46,8,8,0,0,0-1,4.49,8.1,8.1,0,0,0,1,4.46,3.35,3.35,0,0,0,3,1.45,3.3,3.3,0,0,0,2.94-1.46,10.66,10.66,0,0,0,0-8.95A3.31,3.31,0,0,0,1300.7,270.05Z" fill="#757575"/><path d="M1318.11,262.29v17.53a1.76,1.76,0,0,0,.7,1.59,3.19,3.19,0,0,0,1.8.47,5.6,5.6,0,0,0,1.31-.15,7.39,7.39,0,0,0,1.24-.39l.65,1.78a8.38,8.38,0,0,1-1.53.54,8.68,8.68,0,0,1-2.07.23,4.76,4.76,0,0,1-3.27-1.11,4,4,0,0,1-1.25-3.09V264.21H1311v-1.92Z" fill="#757575"/><path d="M1331.38,276.84a5.37,5.37,0,0,0,1.39,3.83,4.3,4.3,0,0,0,3,1.21,6,6,0,0,0,2.1-.35,9.16,9.16,0,0,0,1.95-1l1.13,1.6a8.12,8.12,0,0,1-2.41,1.31,8.44,8.44,0,0,1-2.8.47,6.82,6.82,0,0,1-3.76-1,6.37,6.37,0,0,1-2.37-2.77,10.83,10.83,0,0,1,0-8.22,6.75,6.75,0,0,1,2.31-2.81,6,6,0,0,1,3.5-1,5.54,5.54,0,0,1,4.52,2,8.26,8.26,0,0,1,1.65,5.44c0,.26,0,.51,0,.74s0,.42,0,.59Zm4.12-6.77a3.76,3.76,0,0,0-2.82,1.19,5.73,5.73,0,0,0-1.28,3.71h7.91a5.81,5.81,0,0,0-1.07-3.67A3.37,3.37,0,0,0,1335.5,270.07Z" fill="#757575"/><path d="M84.62,362.85l3.59,3.59-5.47,5.45,5.47,5.45-3.59,3.59-5.45-5.47-5.45,5.47-3.59-3.59,5.47-5.45-5.47-5.45,3.59-3.59,5.45,5.47Z" fill="#ef5350"/><path d="M118.25,361.8a6.68,6.68,0,0,1,3.21.72,5.17,5.17,0,0,1,2.06,2,5.69,5.69,0,0,1,.71,2.83,7.68,7.68,0,0,1-.48,2.67,10.8,10.8,0,0,1-1.52,2.73,28.82,28.82,0,0,1-2.74,3.18c-1.13,1.16-2.51,2.49-4.15,4h9.35l-.3,2.06h-11.8v-2c1.88-1.79,3.4-3.31,4.59-4.55a32.65,32.65,0,0,0,2.76-3.2,9.82,9.82,0,0,0,1.36-2.47,7.35,7.35,0,0,0,.38-2.34,3.59,3.59,0,0,0-.94-2.63,3.42,3.42,0,0,0-2.6-1,5,5,0,0,0-2.41.51,6.55,6.55,0,0,0-1.87,1.61l-1.67-1.3a7.18,7.18,0,0,1,6.06-2.83Z" fill="#ef5350"/><path d="M154.73,366.46a5,5,0,0,1,3.22,1,5.41,5.41,0,0,1,1.73,2.76,14.36,14.36,0,0,1,.54,4.15,12.06,12.06,0,0,1-.65,4.09,6.06,6.06,0,0,1-1.93,2.81,5.15,5.15,0,0,1-3.27,1,5,5,0,0,1-4-1.75v7.23l-2.42.3V366.78H150l.2,2.12a5.93,5.93,0,0,1,2-1.8A5.13,5.13,0,0,1,154.73,366.46Zm-.58,2a3.5,3.5,0,0,0-2.21.75,7.06,7.06,0,0,0-1.57,1.68v7.52a4.4,4.4,0,0,0,1.49,1.39,4,4,0,0,0,2,.51,3.17,3.17,0,0,0,2.83-1.44,8.23,8.23,0,0,0,1-4.48C157.62,370.38,156.47,368.41,154.15,368.41Z" fill="#ef5350"/><path d="M165.37,381.94v-1.85h2.36V368.64h-2.36v-1.86h4.21l.44,3.59a8.19,8.19,0,0,1,2.13-2.9,5.1,5.1,0,0,1,3.32-1,6.47,6.47,0,0,1,1.13.09,9.82,9.82,0,0,1,1,.24l-.34,5.13h-2v-3.23h-.13q-3.48,0-5,5v6.43h3.08v1.85Z" fill="#ef5350"/><path d="M188.28,366.46a5.73,5.73,0,0,1,4.85,2.15,9.17,9.17,0,0,1,1.65,5.74,10.54,10.54,0,0,1-.75,4.11,6.32,6.32,0,0,1-2.21,2.8,6.06,6.06,0,0,1-3.57,1,5.74,5.74,0,0,1-4.86-2.16,9.14,9.14,0,0,1-1.66-5.73,10.59,10.59,0,0,1,.75-4.12,6.14,6.14,0,0,1,2.21-2.8A6.25,6.25,0,0,1,188.28,366.46Zm0,2a3.37,3.37,0,0,0-3,1.45,10.56,10.56,0,0,0,0,8.95,3.71,3.71,0,0,0,5.89,0,8.15,8.15,0,0,0,1-4.48,8.05,8.05,0,0,0-1-4.47A3.29,3.29,0,0,0,188.28,368.44Z" fill="#ef5350"/><path d="M202.21,368.75a5.81,5.81,0,0,1,1.92-1.69,4.91,4.91,0,0,1,2.4-.6,5.2,5.2,0,0,1,3.28,1,5.54,5.54,0,0,1,1.83,2.76,13.65,13.65,0,0,1,.57,4.15,11.35,11.35,0,0,1-.68,4.09,6.29,6.29,0,0,1-2,2.81,5.3,5.3,0,0,1-3.3,1,5,5,0,0,1-4.13-1.9l-.18,1.57h-2.11V360.67l2.42-.3Zm3.42,11.57a3.35,3.35,0,0,0,2.93-1.47,8,8,0,0,0,1-4.51c0-4-1.19-5.93-3.57-5.93a3.51,3.51,0,0,0-2.23.75,7.06,7.06,0,0,0-1.57,1.68v7.52a4.42,4.42,0,0,0,1.49,1.43A3.76,3.76,0,0,0,205.63,380.32Z" fill="#ef5350"/><path d="M223,360.67V378.2a1.76,1.76,0,0,0,.7,1.59,3.22,3.22,0,0,0,1.81.47,5.57,5.57,0,0,0,1.3-.15,8.51,8.51,0,0,0,1.25-.38l.64,1.77a8.38,8.38,0,0,1-1.53.54,8.2,8.2,0,0,1-2.07.23,4.72,4.72,0,0,1-3.26-1.11,3.92,3.92,0,0,1-1.26-3.09V362.59H215.9v-1.92Z" fill="#ef5350"/><path d="M236.25,375.22a5.35,5.35,0,0,0,1.39,3.84,4.31,4.31,0,0,0,3,1.2,6.1,6.1,0,0,0,2.11-.35,9.35,9.35,0,0,0,1.94-1l1.14,1.6a8.17,8.17,0,0,1-2.42,1.31,8.34,8.34,0,0,1-2.79.47,6.85,6.85,0,0,1-3.77-1,6.35,6.35,0,0,1-2.36-2.77,10.71,10.71,0,0,1,0-8.22,6.64,6.64,0,0,1,2.3-2.8,6,6,0,0,1,3.51-1,5.53,5.53,0,0,1,4.51,2,8.26,8.26,0,0,1,1.65,5.44c0,.26,0,.51,0,.74s0,.42,0,.59Zm4.12-6.77a3.74,3.74,0,0,0-2.83,1.2,5.76,5.76,0,0,0-1.28,3.7h7.91a5.81,5.81,0,0,0-1.07-3.67A3.37,3.37,0,0,0,240.37,368.45Z" fill="#ef5350"/><path d="M261.62,366.46a3.29,3.29,0,0,1,1.4.32,2.44,2.44,0,0,1,1.11,1.22,6.37,6.37,0,0,1,.43,2.65v11.29h-2.25V371a8.51,8.51,0,0,0-.17-2.06.9.9,0,0,0-1-.63,2.57,2.57,0,0,0-1.36.42,4.5,4.5,0,0,0-1.29,1.39v11.78h-2.26V371a8.39,8.39,0,0,0-.18-2.06q-.17-.63-1-.63a2.53,2.53,0,0,0-1.37.42,4.6,4.6,0,0,0-1.28,1.39v11.78h-2.23V366.78h1.9l.14,1.76a7.05,7.05,0,0,1,1.39-1.48,3,3,0,0,1,1.91-.6,3.43,3.43,0,0,1,1.63.41,2.55,2.55,0,0,1,1.12,1.59,5.83,5.83,0,0,1,1.4-1.44A3.25,3.25,0,0,1,261.62,366.46Z" fill="#ef5350"/><path d="M274.06,380.27a5,5,0,0,0,2.77-.65,2,2,0,0,0,1-1.75,2.57,2.57,0,0,0-.26-1.18,2.25,2.25,0,0,0-1-.92,11.34,11.34,0,0,0-2.39-.81,17,17,0,0,1-2.72-.9,4.51,4.51,0,0,1-1.8-1.33,3.36,3.36,0,0,1-.65-2.13,3.51,3.51,0,0,1,1.6-3,7.17,7.17,0,0,1,4.16-1.11,9.2,9.2,0,0,1,5.51,1.67l-1.07,1.64a8.86,8.86,0,0,0-1.89-1,7.51,7.51,0,0,0-2.52-.38,4.36,4.36,0,0,0-2.53.56,1.7,1.7,0,0,0-.75,1.43,1.64,1.64,0,0,0,.37,1.11,3,3,0,0,0,1.24.79,25.09,25.09,0,0,0,2.42.76,14.56,14.56,0,0,1,2.59.95,4.51,4.51,0,0,1,1.73,1.44,4,4,0,0,1,.61,2.29,3.74,3.74,0,0,1-.92,2.62,5.35,5.35,0,0,1-2.39,1.45,10.4,10.4,0,0,1-3.09.45,9.12,9.12,0,0,1-3.5-.59,8.65,8.65,0,0,1-2.43-1.45l1.38-1.6a7.55,7.55,0,0,0,2.05,1.19A6.89,6.89,0,0,0,274.06,380.27Z" fill="#ef5350"/><path d="M306.69,371.86a17.26,17.26,0,0,0,.69,5.19,12.8,12.8,0,0,0,2.05,4,24.76,24.76,0,0,0,3.43,3.61L311.59,386a29.19,29.19,0,0,1-4-3.91,14.83,14.83,0,0,1-2.54-4.46,19,19,0,0,1,0-11.49,15,15,0,0,1,2.54-4.47,29.74,29.74,0,0,1,4-3.9l1.27,1.33a30.27,30.27,0,0,0-2.72,2.71,14.53,14.53,0,0,0-1.92,2.8,12.67,12.67,0,0,0-1.14,3.24A18.87,18.87,0,0,0,306.69,371.86Z" fill="#ef5350"/><path d="M332.76,380v2H321.31v-2h4.88V364.73l-4.55,2.77-1.05-1.73,5.9-3.66h2.12V380Z" fill="#ef5350"/><path d="M357.21,375.22a5.35,5.35,0,0,0,1.39,3.84,4.32,4.32,0,0,0,3,1.2,6.09,6.09,0,0,0,2.1-.35,9.35,9.35,0,0,0,1.94-1l1.14,1.6a8.17,8.17,0,0,1-2.42,1.31,8.34,8.34,0,0,1-2.79.47,6.85,6.85,0,0,1-3.77-1,6.35,6.35,0,0,1-2.36-2.77,10.83,10.83,0,0,1,0-8.22,6.64,6.64,0,0,1,2.3-2.8,6,6,0,0,1,3.51-1,5.52,5.52,0,0,1,4.51,2,8.26,8.26,0,0,1,1.65,5.44c0,.26,0,.51,0,.74s0,.42,0,.59Zm4.12-6.77a3.72,3.72,0,0,0-2.82,1.2,5.7,5.7,0,0,0-1.29,3.7h7.91a5.75,5.75,0,0,0-1.07-3.67A3.37,3.37,0,0,0,361.33,368.45Z" fill="#ef5350"/><path d="M372.73,381.94v-1.85h2.37V368.64h-2.37v-1.86h4.21l.45,3.59a8,8,0,0,1,2.13-2.9,5.07,5.07,0,0,1,3.31-1,6.39,6.39,0,0,1,1.13.09,9.82,9.82,0,0,1,1,.24l-.34,5.13h-2v-3.23h-.13q-3.48,0-5,5v6.43h3.09v1.85Z" fill="#ef5350"/><path d="M390,381.94v-1.85h2.37V368.64H390v-1.86h4.21l.45,3.59a8,8,0,0,1,2.13-2.9,5.07,5.07,0,0,1,3.31-1,6.39,6.39,0,0,1,1.13.09,9.82,9.82,0,0,1,1,.24l-.34,5.13h-2v-3.23h-.13q-3.48,0-5,5v6.43h3.09v1.85Z" fill="#ef5350"/><path d="M412.92,366.46a5.74,5.74,0,0,1,4.86,2.15,9.23,9.23,0,0,1,1.64,5.74,10.54,10.54,0,0,1-.75,4.11,6.3,6.3,0,0,1-2.2,2.8,6.06,6.06,0,0,1-3.57,1,5.76,5.76,0,0,1-4.87-2.16,9.14,9.14,0,0,1-1.66-5.73,10.59,10.59,0,0,1,.75-4.12,5.88,5.88,0,0,1,5.8-3.8Zm0,2a3.34,3.34,0,0,0-2.95,1.45,10.51,10.51,0,0,0,0,8.95,3.71,3.71,0,0,0,5.89,0,10.66,10.66,0,0,0,0-8.95A3.31,3.31,0,0,0,412.92,368.44Z" fill="#ef5350"/><path d="M424.57,381.94v-1.85h2.37V368.64h-2.37v-1.86h4.21l.45,3.59a8,8,0,0,1,2.13-2.9,5.07,5.07,0,0,1,3.31-1,6.39,6.39,0,0,1,1.13.09,9.82,9.82,0,0,1,1,.24l-.34,5.13h-2v-3.23h-.13c-2.32,0-4,1.66-5,5v6.43h3.08v1.85Z" fill="#ef5350"/><path d="M447.46,377.21a2.29,2.29,0,0,1,2.33,2.3,4.7,4.7,0,0,1-.12,1.05,6,6,0,0,1-.44,1.21l-2.33,5.34h-2.19l1.38-5.69a2.21,2.21,0,0,1-.94-1.91,2.26,2.26,0,0,1,.66-1.63A2.22,2.22,0,0,1,447.46,377.21Z" fill="#ef5350"/><path d="M488.28,380v2H476.83v-2h4.88V364.73l-4.55,2.77-1.05-1.73,5.91-3.66h2.11V380Z" fill="#ef5350"/><path d="M522.06,381.94h-3.42l-2-11.13-2.13,11.13h-3.34l-2.77-15.16h2.48l1.93,13.67,2.42-11.74h2.86l2.29,11.74,1.93-13.67h2.36Z" fill="#ef5350"/><path d="M539,378.63a2.33,2.33,0,0,0,.3,1.34,1.74,1.74,0,0,0,.94.61l-.59,1.69a3.9,3.9,0,0,1-1.72-.62,2.81,2.81,0,0,1-1.06-1.51,5.16,5.16,0,0,1-2.05,1.59,6.64,6.64,0,0,1-2.7.54A4.9,4.9,0,0,1,528.5,381a4.53,4.53,0,0,1-1.31-3.4A4.11,4.11,0,0,1,529,374a9.36,9.36,0,0,1,5.28-1.25h2.24v-1.27a2.65,2.65,0,0,0-1-2.32,4.5,4.5,0,0,0-2.66-.69,10.08,10.08,0,0,0-1.75.18,13.43,13.43,0,0,0-2.19.6l-.64-1.83a14.88,14.88,0,0,1,2.62-.73,14,14,0,0,1,2.34-.22,6,6,0,0,1,4.24,1.33,4.6,4.6,0,0,1,1.43,3.57Zm-6.26,1.8a4.25,4.25,0,0,0,2.13-.57,5,5,0,0,0,1.7-1.57v-3.91h-2.19a5.56,5.56,0,0,0-3.54.87,2.89,2.89,0,0,0-1,2.32C529.78,379.48,530.76,380.43,532.71,380.43Z" fill="#ef5350"/><path d="M545.54,381.94v-1.85h2.36V368.64h-2.36v-1.86h4.2l.45,3.59a8,8,0,0,1,2.13-2.9,5.07,5.07,0,0,1,3.31-1,6.39,6.39,0,0,1,1.13.09q.5.09,1,.24l-.35,5.13h-2v-3.23h-.13q-3.48,0-5,5v6.43h3.08v1.85Z" fill="#ef5350"/><path d="M562.67,381.94V366.78h2.06l.19,2.1a6.06,6.06,0,0,1,2.3-1.79,6.55,6.55,0,0,1,2.71-.63,4.1,4.1,0,0,1,3.25,1.18,4.94,4.94,0,0,1,1,3.29v11h-2.42v-9.23a14.08,14.08,0,0,0-.17-2.5,2.2,2.2,0,0,0-.73-1.4,2.64,2.64,0,0,0-1.69-.45,3.77,3.77,0,0,0-1.68.39,6,6,0,0,0-1.39,1,7.22,7.22,0,0,0-1,1.18v11Z" fill="#ef5350"/><path d="M587.63,366.78V380h4.28v1.91H580.53V380h4.68V368.7h-4.54v-1.92Zm-1.93-7.1a1.71,1.71,0,0,1,1.29.49,1.64,1.64,0,0,1,.48,1.2,1.73,1.73,0,0,1-.48,1.23,1.71,1.71,0,0,1-1.29.49,1.66,1.66,0,0,1-1.25-.49,1.7,1.7,0,0,1-.49-1.23,1.61,1.61,0,0,1,.49-1.2A1.66,1.66,0,0,1,585.7,359.68Z" fill="#ef5350"/><path d="M597.23,381.94V366.78h2.06l.19,2.1a6.06,6.06,0,0,1,2.3-1.79,6.55,6.55,0,0,1,2.71-.63,4.1,4.1,0,0,1,3.25,1.18,4.89,4.89,0,0,1,1,3.29v11h-2.42v-9.23a14.08,14.08,0,0,0-.17-2.5,2.2,2.2,0,0,0-.73-1.4,2.64,2.64,0,0,0-1.69-.45,3.77,3.77,0,0,0-1.68.39,6,6,0,0,0-1.39,1,7.22,7.22,0,0,0-1,1.18v11Z" fill="#ef5350"/><path d="M626.84,365.17l.75,2.27a9.14,9.14,0,0,1-2.07.38c-.72,0-1.51.07-2.37.07a4,4,0,0,1,2.64,3.81,4.92,4.92,0,0,1-1.51,3.71,5.77,5.77,0,0,1-4.19,1.45,9.17,9.17,0,0,1-1.28-.07,6.08,6.08,0,0,1-1-.22,2.07,2.07,0,0,0-.57.64,1.68,1.68,0,0,0-.23.83,1.13,1.13,0,0,0,.44.91,2.56,2.56,0,0,0,1.59.36h2.74a6.51,6.51,0,0,1,2.74.55,4.83,4.83,0,0,1,1.91,1.47,3.39,3.39,0,0,1,.71,2.1,3.79,3.79,0,0,1-1.9,3.42,10,10,0,0,1-5.35,1.2,11.74,11.74,0,0,1-3.81-.5,3.6,3.6,0,0,1-2-1.51,5.08,5.08,0,0,1-.59-2.56h2.18a2.82,2.82,0,0,0,.35,1.46,2.15,2.15,0,0,0,1.25.86,9.64,9.64,0,0,0,2.61.28,8,8,0,0,0,3.66-.63,2,2,0,0,0,1.15-1.87,1.76,1.76,0,0,0-1-1.62,4.91,4.91,0,0,0-2.45-.55h-2.71a4.14,4.14,0,0,1-2.89-.86,2.68,2.68,0,0,1-.92-2,3.15,3.15,0,0,1,1.67-2.65,4.45,4.45,0,0,1-2.55-4.19,4.92,4.92,0,0,1,.76-2.73,5.33,5.33,0,0,1,2.13-1.87,7.09,7.09,0,0,1,3.16-.67,23.74,23.74,0,0,0,3.11-.16,10.67,10.67,0,0,0,2.05-.45C625.66,365.65,626.25,365.43,626.84,365.17Zm-6.91,3.05a3.41,3.41,0,0,0-2.7,1,3.69,3.69,0,0,0-.87,2.51,3.64,3.64,0,0,0,.88,2.53,3.48,3.48,0,0,0,2.75,1,3.1,3.1,0,0,0,2.44-.94,3.71,3.71,0,0,0,.85-2.61C623.28,369.38,622.17,368.22,619.93,368.22Z" fill="#ef5350"/><path d="M640.06,371.86a19.57,19.57,0,0,0-.38-4,13.07,13.07,0,0,0-1.15-3.24,14.53,14.53,0,0,0-1.92-2.8,30.09,30.09,0,0,0-2.71-2.71l1.26-1.33a29.16,29.16,0,0,1,4,3.9,14.82,14.82,0,0,1,2.55,4.47,19.19,19.19,0,0,1,0,11.49,14.65,14.65,0,0,1-2.55,4.46,28.63,28.63,0,0,1-4,3.91l-1.26-1.33a25.2,25.2,0,0,0,3.42-3.61,12.83,12.83,0,0,0,2.06-4A17.61,17.61,0,0,0,640.06,371.86Z" fill="#ef5350"/></g></g></svg>