<svg xmlns="http://www.w3.org/2000/svg" viewBox="0 0 1368 459"><g id="レイヤー_2" data-name="レイヤー 2"><g id="レイヤー_1-2" data-name="レイヤー 1"><rect width="1368" height="459"/><path d="M97.78,62.66V67a9.23,9.23,0,0,1,5.3,2.32l-1.48,1.52A6.76,6.76,0,0,0,97.78,69v6.57a13.63,13.63,0,0,1,2.72,1.21,6.06,6.06,0,0,1,2,1.93,5.18,5.18,0,0,1,.78,2.93,5.61,5.61,0,0,1-.62,2.58,5.49,5.49,0,0,1-1.85,2,7.07,7.07,0,0,1-3.06,1.07V91.5H95.84V87.4a8.57,8.57,0,0,1-3.55-1,10.66,10.66,0,0,1-2.47-1.76l1.44-1.6a8.26,8.26,0,0,0,2,1.53,6.36,6.36,0,0,0,2.54.73v-8a10.13,10.13,0,0,1-3.9-2.15,4.4,4.4,0,0,1-1.37-3.32,4.54,4.54,0,0,1,.58-2.22,4.83,4.83,0,0,1,1.75-1.79,6.62,6.62,0,0,1,2.94-.9V62.66Zm-1.94,6.39a3.68,3.68,0,0,0-1.94.89,2.48,2.48,0,0,0-.76,1.92,2.68,2.68,0,0,0,.56,1.71,5.24,5.24,0,0,0,2.14,1.35Zm1.94,9v7.17a3.28,3.28,0,0,0,2.92-3.56,3.38,3.38,0,0,0-.64-2.07A5.17,5.17,0,0,0,97.78,78.05Z" fill="#757575"/><path d="M125.29,87.09V71.93h2l.19,2.1a6.09,6.09,0,0,1,2.31-1.79,6.47,6.47,0,0,1,2.7-.63,4.1,4.1,0,0,1,3.25,1.18,4.87,4.87,0,0,1,1,3.29v11h-2.42V77.86a14,14,0,0,0-.18-2.5,2.19,2.19,0,0,0-.72-1.4,2.68,2.68,0,0,0-1.7-.45,3.69,3.69,0,0,0-1.67.39,5.55,5.55,0,0,0-1.4,1,6.69,6.69,0,0,0-1,1.18v11Z" fill="#66bb6a"/><path d="M149.35,71.61a5,5,0,0,1,3.22,1,5.41,5.41,0,0,1,1.73,2.76,14.38,14.38,0,0,1,.53,4.15,12.07,12.07,0,0,1-.64,4.09,6.06,6.06,0,0,1-1.93,2.81,5.15,5.15,0,0,1-3.27,1,5,5,0,0,1-4-1.75V92.9l-2.42.3V71.93h2.05l.21,2.12a5.93,5.93,0,0,1,2-1.8A5.13,5.13,0,0,1,149.35,71.61Zm-.58,2a3.54,3.54,0,0,0-2.22.75A7.22,7.22,0,0,0,145,76v7.52a4.4,4.4,0,0,0,1.49,1.39,4,4,0,0,0,2,.51A3.17,3.17,0,0,0,151.29,84a8.23,8.23,0,0,0,1-4.48C152.24,75.53,151.09,73.56,148.77,73.56Z" fill="#66bb6a"/><path d="M161.31,87.09h-2.76l5.6-8-4.91-7.16h2.87l3.51,5.64,3.56-5.64h2.76L167.05,79l5.58,8.1h-3l-4.15-6.51Z" fill="#66bb6a"/><path d="M196.31,80.37a5.33,5.33,0,0,0,1.39,3.84,4.31,4.31,0,0,0,3,1.2,6.1,6.1,0,0,0,2.11-.35,9.35,9.35,0,0,0,1.94-1l1.14,1.6A8.17,8.17,0,0,1,203.51,87a8.4,8.4,0,0,1-2.8.47,6.84,6.84,0,0,1-3.76-1,6.35,6.35,0,0,1-2.36-2.77,10.71,10.71,0,0,1,0-8.22,6.73,6.73,0,0,1,2.3-2.81,6,6,0,0,1,3.51-1,5.53,5.53,0,0,1,4.51,2A8.26,8.26,0,0,1,206.56,79c0,.26,0,.51,0,.74s0,.42,0,.59Zm4.12-6.77a3.77,3.77,0,0,0-2.83,1.19,5.81,5.81,0,0,0-1.28,3.71h7.91a5.81,5.81,0,0,0-1.07-3.67A3.37,3.37,0,0,0,200.43,73.6Z" fill="#f2f2f2"/><path d="M216.84,85.42a5,5,0,0,0,2.77-.65,2,2,0,0,0,1-1.75,2.57,2.57,0,0,0-.26-1.18,2.25,2.25,0,0,0-1-.92,11.34,11.34,0,0,0-2.39-.81,17.47,17.47,0,0,1-2.73-.9,4.66,4.66,0,0,1-1.8-1.33,3.42,3.42,0,0,1-.64-2.13,3.51,3.51,0,0,1,1.6-3,7.15,7.15,0,0,1,4.16-1.11,9.55,9.55,0,0,1,3.19.49A9.24,9.24,0,0,1,223,73.28L222,74.92a8.86,8.86,0,0,0-1.89-1,7.51,7.51,0,0,0-2.52-.38,4.45,4.45,0,0,0-2.53.55,1.71,1.71,0,0,0-.75,1.44,1.64,1.64,0,0,0,.37,1.11,3,3,0,0,0,1.24.79,25.09,25.09,0,0,0,2.42.76,14.86,14.86,0,0,1,2.59,1,4.4,4.4,0,0,1,1.72,1.44,3.92,3.92,0,0,1,.62,2.29,3.7,3.7,0,0,1-.93,2.62A5.27,5.27,0,0,1,219.93,87a10.4,10.4,0,0,1-3.09.45,9.31,9.31,0,0,1-3.5-.59,8.65,8.65,0,0,1-2.43-1.45l1.38-1.6A7.55,7.55,0,0,0,214.34,85,6.89,6.89,0,0,0,216.84,85.42Z" fill="#f2f2f2"/><path d="M234.87,65.82V83.35a1.76,1.76,0,0,0,.7,1.59,3.22,3.22,0,0,0,1.81.47,5.57,5.57,0,0,0,1.3-.15,8.51,8.51,0,0,0,1.25-.38l.64,1.77a8.38,8.38,0,0,1-1.53.54,8.68,8.68,0,0,1-2.07.23,4.72,4.72,0,0,1-3.26-1.11,3.93,3.93,0,0,1-1.26-3.09V67.74H227.8V65.82Z" fill="#f2f2f2"/><path d="M253.92,71.93V85.18h4.28v1.91H246.82V85.18h4.68V73.84H247V71.93ZM252,64.83a1.71,1.71,0,0,1,1.29.49,1.64,1.64,0,0,1,.48,1.19,1.74,1.74,0,0,1-.48,1.24,1.71,1.71,0,0,1-1.29.49,1.68,1.68,0,0,1-1.25-.49,1.7,1.7,0,0,1-.49-1.24,1.61,1.61,0,0,1,.49-1.19A1.68,1.68,0,0,1,252,64.83Z" fill="#f2f2f2"/><path d="M263.53,87.09V71.93h2.06l.18,2.1a6.17,6.17,0,0,1,2.31-1.79,6.48,6.48,0,0,1,2.71-.63A4.07,4.07,0,0,1,274,72.79a4.87,4.87,0,0,1,1,3.29v11h-2.42V77.86a15.11,15.11,0,0,0-.17-2.5,2.25,2.25,0,0,0-.73-1.4,2.66,2.66,0,0,0-1.69-.45,3.7,3.7,0,0,0-1.68.39,5.74,5.74,0,0,0-1.4,1,7.13,7.13,0,0,0-1,1.18v11Z" fill="#f2f2f2"/><path d="M292.85,86.33a6.3,6.3,0,0,1-1.89.81,8.68,8.68,0,0,1-2.17.28A5.2,5.2,0,0,1,285,86.14a4.38,4.38,0,0,1-1.32-3.3v-9H280.2V71.93h3.49V68.49l2.42-.29v3.73h5.24l-.29,1.87h-4.95v9a2.6,2.6,0,0,0,.67,1.93,3.08,3.08,0,0,0,2.22.66,6,6,0,0,0,1.57-.2,7.62,7.62,0,0,0,1.34-.52Z" fill="#f2f2f2"/><path d="M320.52,85.42a5,5,0,0,0,2.77-.65,2,2,0,0,0,1-1.75,2.57,2.57,0,0,0-.26-1.18,2.28,2.28,0,0,0-1-.92,11.68,11.68,0,0,0-2.4-.81,17,17,0,0,1-2.72-.9,4.51,4.51,0,0,1-1.8-1.33,3.35,3.35,0,0,1-.64-2.13,3.5,3.5,0,0,1,1.59-3,7.18,7.18,0,0,1,4.17-1.11,9.2,9.2,0,0,1,5.5,1.67l-1.07,1.64a8.86,8.86,0,0,0-1.89-1,7.51,7.51,0,0,0-2.52-.38,4.45,4.45,0,0,0-2.53.55,1.71,1.71,0,0,0-.75,1.44,1.64,1.64,0,0,0,.37,1.11,3,3,0,0,0,1.24.79c.59.23,1.4.48,2.42.76a14.56,14.56,0,0,1,2.59,1,4.51,4.51,0,0,1,1.73,1.44,4,4,0,0,1,.61,2.29,3.74,3.74,0,0,1-.92,2.62A5.35,5.35,0,0,1,323.61,87a10.4,10.4,0,0,1-3.09.45,9.31,9.31,0,0,1-3.5-.59,8.65,8.65,0,0,1-2.43-1.45l1.38-1.6A7.46,7.46,0,0,0,318,85,6.8,6.8,0,0,0,320.52,85.42Z" fill="#f2f2f2"/><path d="M332.79,87.09V85.23h2.36V73.79h-2.36V71.93H337l.44,3.58a8.14,8.14,0,0,1,2.14-2.89,5.06,5.06,0,0,1,3.31-1,6.39,6.39,0,0,1,1.13.09,9.82,9.82,0,0,1,1,.24l-.34,5.13h-2V73.83h-.13q-3.48,0-5,5v6.42h3.09v1.86Z" fill="#f2f2f2"/><path d="M356.78,85.34a6.19,6.19,0,0,0,2.13-.37,8.31,8.31,0,0,0,1.82-1l1.18,1.59a7.37,7.37,0,0,1-2.39,1.33,8.14,8.14,0,0,1-2.74.49,7.24,7.24,0,0,1-3.85-1,6.24,6.24,0,0,1-2.42-2.73,10.47,10.47,0,0,1,0-8.22,6.54,6.54,0,0,1,2.43-2.84,6.89,6.89,0,0,1,3.87-1,7.84,7.84,0,0,1,5.07,1.76L360.7,75a6.9,6.9,0,0,0-3.92-1.35,4.06,4.06,0,0,0-3.22,1.47,6.73,6.73,0,0,0-1.27,4.48,6.32,6.32,0,0,0,1.27,4.4A4.23,4.23,0,0,0,356.78,85.34Z" fill="#f2f2f2"/><path d="M91.3,188.34l-2-.86,12.33-25.42,1.93.95Z" fill="#f2f2f2"/><path d="M114.79,169.9a4.93,4.93,0,0,1,3.22,1,5.42,5.42,0,0,1,1.73,2.75,14.4,14.4,0,0,1,.53,4.16,12,12,0,0,1-.64,4.08,6.14,6.14,0,0,1-1.93,2.82,5.15,5.15,0,0,1-3.27,1,5,5,0,0,1-4-1.76v7.23l-2.41.3V170.21h2l.21,2.12a5.93,5.93,0,0,1,2-1.8A5.23,5.23,0,0,1,114.79,169.9Zm-.58,1.94a3.5,3.5,0,0,0-2.22.76,7.25,7.25,0,0,0-1.57,1.67v7.52a4.34,4.34,0,0,0,1.5,1.39,4,4,0,0,0,2,.51,3.17,3.17,0,0,0,2.83-1.44,8.23,8.23,0,0,0,1-4.48C117.68,173.82,116.53,171.84,114.21,171.84Z" fill="#f2f2f2"/><path d="M125.43,185.38v-1.86h2.36V172.07h-2.36v-1.86h4.2l.45,3.59a8.29,8.29,0,0,1,2.13-2.9,5.09,5.09,0,0,1,3.31-1,5.46,5.46,0,0,1,1.13.1c.34.06.67.14,1,.23l-.35,5.13h-2v-3.23h-.13c-2.33,0-4,1.66-5,5v6.42h3.08v1.86Z" fill="#f2f2f2"/><path d="M148.34,169.9a5.72,5.72,0,0,1,4.85,2.14,9.2,9.2,0,0,1,1.64,5.75,10.52,10.52,0,0,1-.74,4.1,6.26,6.26,0,0,1-2.21,2.8,6.06,6.06,0,0,1-3.57,1,5.77,5.77,0,0,1-4.87-2.16,9.2,9.2,0,0,1-1.65-5.73,10.64,10.64,0,0,1,.75-4.13,5.89,5.89,0,0,1,5.8-3.79Zm0,2a3.35,3.35,0,0,0-3,1.45,10.56,10.56,0,0,0,0,9,3.72,3.72,0,0,0,5.89,0,8.18,8.18,0,0,0,1-4.48,8,8,0,0,0-1-4.47A3.27,3.27,0,0,0,148.34,171.87Z" fill="#f2f2f2"/><path d="M169.77,170.21v12.73a7.43,7.43,0,0,1-1.15,4.25,7.92,7.92,0,0,1-3.3,2.74,19.57,19.57,0,0,1-5.21,1.55l-.41-1.87a17.15,17.15,0,0,0,4-1.12,6.52,6.52,0,0,0,2.7-2.05,5.47,5.47,0,0,0,1-3.34v-11H161v-1.92Zm-2.26-7.1a1.77,1.77,0,0,1,1.29.49,1.63,1.63,0,0,1,.49,1.2,1.67,1.67,0,0,1-.49,1.23,1.73,1.73,0,0,1-1.29.5,1.68,1.68,0,0,1-1.26-.5,1.73,1.73,0,0,1-.47-1.23,1.69,1.69,0,0,1,.47-1.2A1.71,1.71,0,0,1,167.51,163.11Z" fill="#f2f2f2"/><path d="M179,178.65a5.29,5.29,0,0,0,1.39,3.84,4.31,4.31,0,0,0,3,1.2,6,6,0,0,0,2.1-.34,9.23,9.23,0,0,0,1.95-1l1.14,1.6a8,8,0,0,1-2.42,1.31,8.41,8.41,0,0,1-2.8.48,6.76,6.76,0,0,1-3.76-1,6.29,6.29,0,0,1-2.36-2.77,10.68,10.68,0,0,1,0-8.21,6.67,6.67,0,0,1,2.3-2.81,6,6,0,0,1,3.51-1,5.55,5.55,0,0,1,4.51,2,8.29,8.29,0,0,1,1.65,5.45c0,.26,0,.5,0,.73s0,.43,0,.59Zm4.12-6.77a3.74,3.74,0,0,0-2.83,1.2,5.73,5.73,0,0,0-1.28,3.7H187a5.85,5.85,0,0,0-1.07-3.67A3.37,3.37,0,0,0,183.15,171.88Z" fill="#f2f2f2"/><path d="M201.26,183.62a6,6,0,0,0,2.13-.37,7.73,7.73,0,0,0,1.82-1l1.18,1.59a7.39,7.39,0,0,1-2.39,1.34,8.44,8.44,0,0,1-2.74.49,7.31,7.31,0,0,1-3.85-1A6.3,6.3,0,0,1,195,182a10.59,10.59,0,0,1,0-8.22,6.69,6.69,0,0,1,2.44-2.84,6.86,6.86,0,0,1,3.87-1,7.83,7.83,0,0,1,5.07,1.75l-1.18,1.62a6.87,6.87,0,0,0-3.92-1.36,4,4,0,0,0-3.22,1.48,6.68,6.68,0,0,0-1.27,4.47,6.3,6.3,0,0,0,1.27,4.4A4.19,4.19,0,0,0,201.26,183.62Z" fill="#f2f2f2"/><path d="M223.73,184.61a6.06,6.06,0,0,1-1.89.81,8.7,8.7,0,0,1-2.17.29,5.23,5.23,0,0,1-3.78-1.28,4.41,4.41,0,0,1-1.32-3.3v-9h-3.49v-1.87h3.49v-3.44l2.42-.29v3.73h5.24l-.29,1.87H217v9a2.59,2.59,0,0,0,.67,1.93,3.07,3.07,0,0,0,2.22.66,6,6,0,0,0,1.57-.2,6.91,6.91,0,0,0,1.34-.52Z" fill="#f2f2f2"/><path d="M234.12,183.71a5.11,5.11,0,0,0,2.77-.65,2,2,0,0,0,1-1.76,2.6,2.6,0,0,0-.26-1.18,2.19,2.19,0,0,0-1-.91,10.71,10.71,0,0,0-2.39-.82,17.47,17.47,0,0,1-2.73-.9,4.56,4.56,0,0,1-1.8-1.33,3.42,3.42,0,0,1-.64-2.13,3.51,3.51,0,0,1,1.6-3,7.22,7.22,0,0,1,4.16-1.1,9.3,9.3,0,0,1,3.19.49,8.92,8.92,0,0,1,2.31,1.18l-1.06,1.64a8,8,0,0,0-1.89-1,7.25,7.25,0,0,0-2.52-.39,4.36,4.36,0,0,0-2.53.56,1.71,1.71,0,0,0-.75,1.43,1.66,1.66,0,0,0,.37,1.12,3.08,3.08,0,0,0,1.24.78,24.67,24.67,0,0,0,2.42.77,13.39,13.39,0,0,1,2.59,1,4.3,4.3,0,0,1,1.72,1.43,4,4,0,0,1,.62,2.3,3.69,3.69,0,0,1-.93,2.61,5.18,5.18,0,0,1-2.38,1.45,10.09,10.09,0,0,1-3.09.46,9.11,9.11,0,0,1-3.5-.6,8.65,8.65,0,0,1-2.43-1.45l1.38-1.6a7.55,7.55,0,0,0,2.05,1.19A6.9,6.9,0,0,0,234.12,183.71Z" fill="#f2f2f2"/><path d="M246.82,188.34l-1.95-.86,12.32-25.42,1.93.95Z" fill="#f2f2f2"/><path d="M265.43,178.65a5.33,5.33,0,0,0,1.39,3.84,4.31,4.31,0,0,0,3,1.2,6.11,6.11,0,0,0,2.11-.34,9.42,9.42,0,0,0,1.94-1l1.14,1.6a8,8,0,0,1-2.42,1.31,8.35,8.35,0,0,1-2.79.48,6.77,6.77,0,0,1-3.77-1,6.29,6.29,0,0,1-2.36-2.77,10.68,10.68,0,0,1,0-8.21,6.67,6.67,0,0,1,2.3-2.81,6.07,6.07,0,0,1,3.51-1,5.55,5.55,0,0,1,4.51,2,8.29,8.29,0,0,1,1.65,5.45c0,.26,0,.5,0,.73s0,.43,0,.59Zm4.12-6.77a3.74,3.74,0,0,0-2.83,1.2,5.78,5.78,0,0,0-1.28,3.7h7.91a5.85,5.85,0,0,0-1.07-3.67A3.37,3.37,0,0,0,269.55,171.88Z" fill="#f2f2f2"/><path d="M286,183.71a5.11,5.11,0,0,0,2.77-.65,2,2,0,0,0,1-1.76,2.6,2.6,0,0,0-.26-1.18,2.19,2.19,0,0,0-1-.91,10.71,10.71,0,0,0-2.39-.82,17,17,0,0,1-2.72-.9,4.42,4.42,0,0,1-1.8-1.33,3.36,3.36,0,0,1-.65-2.13,3.51,3.51,0,0,1,1.6-3,7.25,7.25,0,0,1,4.16-1.1,9.3,9.3,0,0,1,3.19.49,9.16,9.16,0,0,1,2.32,1.18l-1.07,1.64a8,8,0,0,0-1.89-1,7.25,7.25,0,0,0-2.52-.39,4.36,4.36,0,0,0-2.53.56,1.71,1.71,0,0,0-.75,1.43,1.66,1.66,0,0,0,.37,1.12,3.08,3.08,0,0,0,1.24.78,24.67,24.67,0,0,0,2.42.77,13.15,13.15,0,0,1,2.59,1,4.4,4.4,0,0,1,1.73,1.43,4,4,0,0,1,.61,2.3,3.73,3.73,0,0,1-.92,2.61,5.27,5.27,0,0,1-2.39,1.45,10.09,10.09,0,0,1-3.09.46,9.11,9.11,0,0,1-3.5-.6,8.65,8.65,0,0,1-2.43-1.45l1.38-1.6a7.55,7.55,0,0,0,2,1.19A6.9,6.9,0,0,0,286,183.71Z" fill="#f2f2f2"/><path d="M304,164.11v17.52a1.78,1.78,0,0,0,.7,1.59,3.14,3.14,0,0,0,1.81.47,6.16,6.16,0,0,0,1.3-.14,10,10,0,0,0,1.25-.39l.65,1.77a8.79,8.79,0,0,1-1.54.54,8.15,8.15,0,0,1-2.06.24,4.69,4.69,0,0,1-3.27-1.12,3.9,3.9,0,0,1-1.26-3.09V166h-4.65v-1.91Z" fill="#f2f2f2"/><path d="M323,170.21v13.25h4.28v1.92H315.94v-1.92h4.68V172.13h-4.53v-1.92Zm-1.93-7.1a1.75,1.75,0,0,1,1.29.49,1.67,1.67,0,0,1,.49,1.2,1.76,1.76,0,1,1-3.52,0,1.67,1.67,0,0,1,.49-1.2A1.74,1.74,0,0,1,321.11,163.11Z" fill="#f2f2f2"/><path d="M332.65,185.38V170.21h2.06l.19,2.1a6.16,6.16,0,0,1,2.3-1.79,6.47,6.47,0,0,1,2.71-.62,4,4,0,0,1,3.24,1.18,4.84,4.84,0,0,1,1,3.28v11h-2.42v-9.23a15.15,15.15,0,0,0-.17-2.51,2.28,2.28,0,0,0-.73-1.4,2.71,2.71,0,0,0-1.69-.44,3.7,3.7,0,0,0-1.68.39,5.47,5.47,0,0,0-1.4,1,8.1,8.1,0,0,0-1,1.17v11Z" fill="#f2f2f2"/><path d="M362,184.61a6.06,6.06,0,0,1-1.89.81,8.7,8.7,0,0,1-2.17.29,5.24,5.24,0,0,1-3.78-1.28,4.41,4.41,0,0,1-1.32-3.3v-9h-3.49v-1.87h3.49v-3.44l2.42-.29v3.73h5.24l-.29,1.87h-4.95v9a2.59,2.59,0,0,0,.67,1.93,3.08,3.08,0,0,0,2.22.66,6,6,0,0,0,1.57-.2A6.91,6.91,0,0,0,361,183Z" fill="#f2f2f2"/><path d="M367.18,178.56v-2.1h11.55v2.1Z" fill="#f2f2f2"/><path d="M396.53,184.61a6.06,6.06,0,0,1-1.89.81,8.7,8.7,0,0,1-2.17.29,5.26,5.26,0,0,1-3.78-1.28,4.41,4.41,0,0,1-1.32-3.3v-9h-3.49v-1.87h3.49v-3.44l2.42-.29v3.73H395l-.29,1.87h-4.95v9a2.59,2.59,0,0,0,.67,1.93,3.1,3.1,0,0,0,2.22.66,6,6,0,0,0,1.57-.2,6.91,6.91,0,0,0,1.34-.52Z" fill="#f2f2f2"/><path d="M404.19,170.21V181a3.15,3.15,0,0,0,.62,2.16,2.52,2.52,0,0,0,1.93.66,4.33,4.33,0,0,0,2.37-.72,5.38,5.38,0,0,0,1.73-1.69V170.21h2.42v15.17H411.2l-.2-2a5.87,5.87,0,0,1-2.21,1.77,6.35,6.35,0,0,1-2.64.61,4.24,4.24,0,0,1-3.29-1.18,4.63,4.63,0,0,1-1.09-3.29v-11Z" fill="#f2f2f2"/><path d="M431.09,184.61a6.06,6.06,0,0,1-1.89.81,8.7,8.7,0,0,1-2.17.29,5.22,5.22,0,0,1-3.77-1.28,4.39,4.39,0,0,1-1.33-3.3v-9h-3.48v-1.87h3.48v-3.44l2.42-.29v3.73h5.24l-.29,1.87h-4.95v9A2.59,2.59,0,0,0,425,183a3.1,3.1,0,0,0,2.22.66,6,6,0,0,0,1.57-.2,6.91,6.91,0,0,0,1.34-.52Z" fill="#f2f2f2"/><path d="M442.1,169.9A5.74,5.74,0,0,1,447,172a9.26,9.26,0,0,1,1.64,5.75,10.52,10.52,0,0,1-.75,4.1,6.24,6.24,0,0,1-2.2,2.8,6.06,6.06,0,0,1-3.57,1,5.76,5.76,0,0,1-4.87-2.16,9.14,9.14,0,0,1-1.66-5.73,10.64,10.64,0,0,1,.75-4.13,5.89,5.89,0,0,1,5.8-3.79Zm0,2a3.34,3.34,0,0,0-3,1.45,10.61,10.61,0,0,0,0,9,3.72,3.72,0,0,0,5.89,0,10.66,10.66,0,0,0,0-9A3.29,3.29,0,0,0,442.1,171.87Z" fill="#f2f2f2"/><path d="M453.75,185.38v-1.86h2.37V172.07h-2.37v-1.86H458l.45,3.59a8,8,0,0,1,2.13-2.9,5.07,5.07,0,0,1,3.31-1,5.52,5.52,0,0,1,1.13.1c.33.06.67.14,1,.23l-.35,5.13h-2v-3.23h-.13c-2.32,0-4,1.66-5,5v6.42h3.08v1.86Z" fill="#f2f2f2"/><path d="M478.57,170.21v13.25h4.27v1.92H471.47v-1.92h4.68V172.13h-4.54v-1.92Zm-1.93-7.1a1.78,1.78,0,0,1,1.29.49,1.66,1.66,0,0,1,.48,1.2,1.7,1.7,0,0,1-.48,1.23,1.75,1.75,0,0,1-1.29.5,1.69,1.69,0,0,1-1.75-1.73,1.67,1.67,0,0,1,.49-1.2A1.74,1.74,0,0,1,476.64,163.11Z" fill="#f2f2f2"/><path d="M499,182.06a2.31,2.31,0,0,0,.3,1.34,1.74,1.74,0,0,0,.94.61l-.59,1.7a4,4,0,0,1-1.72-.63,2.77,2.77,0,0,1-1.06-1.5,5.25,5.25,0,0,1-2,1.59,6.68,6.68,0,0,1-2.7.54,4.93,4.93,0,0,1-3.59-1.28,4.57,4.57,0,0,1-1.31-3.4,4.09,4.09,0,0,1,1.83-3.6,9.28,9.28,0,0,1,5.28-1.26h2.24v-1.26a2.67,2.67,0,0,0-1-2.33,4.57,4.57,0,0,0-2.66-.68,10.27,10.27,0,0,0-1.76.18,13.62,13.62,0,0,0-2.18.6l-.64-1.83a14.72,14.72,0,0,1,2.62-.74,13.92,13.92,0,0,1,2.34-.21,6,6,0,0,1,4.24,1.32,4.63,4.63,0,0,1,1.43,3.57Zm-6.26,1.8a4.37,4.37,0,0,0,2.13-.56,5,5,0,0,0,1.7-1.58v-3.9h-2.19a5.57,5.57,0,0,0-3.54.86,2.9,2.9,0,0,0-1,2.32C489.84,182.91,490.82,183.86,492.77,183.86Z" fill="#f2f2f2"/><path d="M511.36,164.11v17.52a1.78,1.78,0,0,0,.69,1.59,3.14,3.14,0,0,0,1.81.47,6.26,6.26,0,0,0,1.31-.14,9.85,9.85,0,0,0,1.24-.39l.65,1.77a8.51,8.51,0,0,1-1.54.54,8,8,0,0,1-2.06.24,4.69,4.69,0,0,1-3.27-1.12,3.9,3.9,0,0,1-1.25-3.09V166h-4.65v-1.91Z" fill="#f2f2f2"/><path d="M523.31,188.34l-2-.86,12.33-25.42,1.93.95Z" fill="#f2f2f2"/><path d="M545.17,183.71a5.08,5.08,0,0,0,2.76-.65,2,2,0,0,0,1-1.76,2.59,2.59,0,0,0-.25-1.18,2.24,2.24,0,0,0-1-.91,11.09,11.09,0,0,0-2.39-.82,16.8,16.8,0,0,1-2.73-.9,4.56,4.56,0,0,1-1.8-1.33,3.35,3.35,0,0,1-.64-2.13,3.49,3.49,0,0,1,1.6-3,7.2,7.2,0,0,1,4.16-1.1,9.34,9.34,0,0,1,3.19.49,8.92,8.92,0,0,1,2.31,1.18l-1.07,1.64a7.66,7.66,0,0,0-1.89-1,7.19,7.19,0,0,0-2.51-.39,4.39,4.39,0,0,0-2.54.56A1.79,1.79,0,0,0,543,175a3.13,3.13,0,0,0,1.25.78,23.81,23.81,0,0,0,2.42.77,13.39,13.39,0,0,1,2.59,1,4.37,4.37,0,0,1,1.72,1.43,4,4,0,0,1,.61,2.3,3.73,3.73,0,0,1-.92,2.61,5.29,5.29,0,0,1-2.38,1.45,10.18,10.18,0,0,1-3.09.46,9.16,9.16,0,0,1-3.51-.6,8.94,8.94,0,0,1-2.43-1.45l1.39-1.6a7.4,7.4,0,0,0,2,1.19A6.82,6.82,0,0,0,545.17,183.71Z" fill="#f2f2f2"/><path d="M557.44,185.38v-1.86h2.36V172.07h-2.36v-1.86h4.2l.45,3.59a8,8,0,0,1,2.13-2.9,5.07,5.07,0,0,1,3.31-1,5.52,5.52,0,0,1,1.13.1c.33.06.67.14,1,.23l-.35,5.13h-2v-3.23h-.13q-3.48,0-5,5v6.42h3.08v1.86Z" fill="#f2f2f2"/><path d="M581.43,183.62a5.91,5.91,0,0,0,2.12-.37,7.35,7.35,0,0,0,1.82-1l1.18,1.59a7.39,7.39,0,0,1-2.39,1.34,8.38,8.38,0,0,1-2.73.49,7.31,7.31,0,0,1-3.85-1,6.23,6.23,0,0,1-2.43-2.74,10.47,10.47,0,0,1,0-8.22,6.74,6.74,0,0,1,2.43-2.84,6.92,6.92,0,0,1,3.88-1,7.78,7.78,0,0,1,5.06,1.75l-1.18,1.62a6.84,6.84,0,0,0-3.91-1.36,4.06,4.06,0,0,0-3.23,1.48,6.74,6.74,0,0,0-1.27,4.47,6.35,6.35,0,0,0,1.27,4.4A4.21,4.21,0,0,0,581.43,183.62Z" fill="#f2f2f2"/><path d="M592.43,188.34l-2-.86,12.33-25.42,1.93.95Z" fill="#f2f2f2"/><path d="M611.55,163.88v8.41a5.76,5.76,0,0,1,2.2-1.79,6.27,6.27,0,0,1,2.64-.6,4.05,4.05,0,0,1,3.24,1.18,4.84,4.84,0,0,1,1,3.28v11h-2.42v-11a2.26,2.26,0,0,0-2.62-2.62,3.63,3.63,0,0,0-1.64.39,5.9,5.9,0,0,0-1.4,1,6.83,6.83,0,0,0-1,1.18v11h-2.42V164.14Z" fill="#f2f2f2"/><path d="M628.31,178.65a5.38,5.38,0,0,0,1.39,3.84,4.33,4.33,0,0,0,3,1.2,6,6,0,0,0,2.1-.34,9.48,9.48,0,0,0,1.95-1l1.13,1.6a7.9,7.9,0,0,1-2.41,1.31,8.45,8.45,0,0,1-2.8.48,6.74,6.74,0,0,1-3.76-1,6.31,6.31,0,0,1-2.37-2.77,10.81,10.81,0,0,1,0-8.21,6.69,6.69,0,0,1,2.31-2.81,6,6,0,0,1,3.5-1,5.57,5.57,0,0,1,4.52,2,8.29,8.29,0,0,1,1.65,5.45c0,.26,0,.5,0,.73s0,.43,0,.59Zm4.12-6.77a3.73,3.73,0,0,0-2.82,1.2,5.67,5.67,0,0,0-1.28,3.7h7.9a5.79,5.79,0,0,0-1.06-3.67A3.37,3.37,0,0,0,632.43,171.88Z" fill="#f2f2f2"/><path d="M649.6,164.11v17.52a1.76,1.76,0,0,0,.7,1.59,3.09,3.09,0,0,0,1.8.47,6.19,6.19,0,0,0,1.31-.14,9.85,9.85,0,0,0,1.24-.39l.65,1.77a8.38,8.38,0,0,1-1.53.54,8.17,8.17,0,0,1-2.07.24,4.72,4.72,0,0,1-3.27-1.12,3.93,3.93,0,0,1-1.25-3.09V166h-4.65v-1.91Z" fill="#f2f2f2"/><path d="M666.88,164.11v17.52a1.76,1.76,0,0,0,.7,1.59,3.11,3.11,0,0,0,1.8.47,6.19,6.19,0,0,0,1.31-.14,9.85,9.85,0,0,0,1.24-.39l.65,1.77a8.38,8.38,0,0,1-1.53.54,8.17,8.17,0,0,1-2.07.24,4.72,4.72,0,0,1-3.27-1.12,3.93,3.93,0,0,1-1.25-3.09V166h-4.65v-1.91Z" fill="#f2f2f2"/><path d="M684,169.9a5.72,5.72,0,0,1,4.85,2.14,9.2,9.2,0,0,1,1.64,5.75,10.52,10.52,0,0,1-.75,4.1,6.18,6.18,0,0,1-2.2,2.8,6.06,6.06,0,0,1-3.57,1,5.77,5.77,0,0,1-4.87-2.16,9.2,9.2,0,0,1-1.65-5.73,10.64,10.64,0,0,1,.75-4.13,5.89,5.89,0,0,1,5.8-3.79Zm0,2a3.35,3.35,0,0,0-3,1.45,10.56,10.56,0,0,0,0,9,3.71,3.71,0,0,0,5.88,0,10.66,10.66,0,0,0,0-9A3.29,3.29,0,0,0,684,171.87Z" fill="#f2f2f2"/><path d="M709.79,165.55l-3,19.83h-3.29l-2.27-15-2.29,15h-3.36l-2.79-19.83h2.51l2.11,17.08,2.38-14.78h3.06l2.27,14.78,2.37-17.08Z" fill="#f2f2f2"/><path d="M718.59,169.9a5.72,5.72,0,0,1,4.85,2.14,9.2,9.2,0,0,1,1.64,5.75,10.52,10.52,0,0,1-.75,4.1,6.18,6.18,0,0,1-2.2,2.8,6.06,6.06,0,0,1-3.57,1,5.77,5.77,0,0,1-4.87-2.16,9.2,9.2,0,0,1-1.65-5.73,10.64,10.64,0,0,1,.75-4.13,5.89,5.89,0,0,1,5.8-3.79Zm0,2a3.35,3.35,0,0,0-3,1.45,10.56,10.56,0,0,0,0,9,3.71,3.71,0,0,0,5.88,0,10.66,10.66,0,0,0,0-9A3.29,3.29,0,0,0,718.59,171.87Z" fill="#f2f2f2"/><path d="M730.24,185.38v-1.86h2.36V172.07h-2.36v-1.86h4.2l.45,3.59a8.29,8.29,0,0,1,2.13-2.9,5.09,5.09,0,0,1,3.31-1,5.46,5.46,0,0,1,1.13.1c.33.06.67.14,1,.23l-.35,5.13h-2v-3.23H740c-2.33,0-4,1.66-5,5v6.42h3.08v1.86Z" fill="#f2f2f2"/><path d="M753.28,164.11v17.52a1.76,1.76,0,0,0,.7,1.59,3.12,3.12,0,0,0,1.81.47,6.16,6.16,0,0,0,1.3-.14,9.36,9.36,0,0,0,1.24-.39l.65,1.77a8.38,8.38,0,0,1-1.53.54,8.17,8.17,0,0,1-2.07.24,4.72,4.72,0,0,1-3.27-1.12,3.93,3.93,0,0,1-1.25-3.09V166h-4.65v-1.91Z" fill="#f2f2f2"/><path d="M773.73,163.8l2.42.31v21.27H774l-.23-2a5.59,5.59,0,0,1-1.95,1.77,5.19,5.19,0,0,1-2.36.56,5.1,5.1,0,0,1-3.25-1,5.72,5.72,0,0,1-1.9-2.77,12.57,12.57,0,0,1-.62-4.12,11,11,0,0,1,.7-4.07,6.45,6.45,0,0,1,2-2.82,5.52,5.52,0,0,1,7.27.75Zm-3.43,8a3.32,3.32,0,0,0-2.92,1.48,8,8,0,0,0-1,4.5q0,5.93,3.65,5.93a3.41,3.41,0,0,0,2.2-.73,6.86,6.86,0,0,0,1.53-1.66v-7.58a4.63,4.63,0,0,0-1.5-1.43A3.79,3.79,0,0,0,770.3,171.84Z" fill="#f2f2f2"/><path d="M785.13,183.16a2.47,2.47,0,0,1,.72-1.79,2.41,2.41,0,0,1,1.8-.73,2.49,2.49,0,0,1,2.55,2.52,2.48,2.48,0,0,1-.73,1.81,2.45,2.45,0,0,1-1.82.74,2.42,2.42,0,0,1-1.8-.74A2.51,2.51,0,0,1,785.13,183.16Z" fill="#f2f2f2"/><path d="M809.14,170.21v12.73a7.43,7.43,0,0,1-1.15,4.25,7.92,7.92,0,0,1-3.3,2.74,19.53,19.53,0,0,1-5.22,1.55l-.4-1.87a17.15,17.15,0,0,0,4-1.12,6.52,6.52,0,0,0,2.7-2.05,5.47,5.47,0,0,0,1-3.34v-11h-6.31v-1.92Zm-2.26-7.1a1.77,1.77,0,0,1,1.29.49,1.63,1.63,0,0,1,.49,1.2,1.67,1.67,0,0,1-.49,1.23,1.73,1.73,0,0,1-1.29.5,1.68,1.68,0,0,1-1.26-.5,1.73,1.73,0,0,1-.47-1.23,1.69,1.69,0,0,1,.47-1.2A1.71,1.71,0,0,1,806.88,163.11Z" fill="#f2f2f2"/><path d="M821.65,183.71a5.14,5.14,0,0,0,2.77-.65,2,2,0,0,0,1-1.76,2.59,2.59,0,0,0-.25-1.18,2.24,2.24,0,0,0-1-.91,10.9,10.9,0,0,0-2.39-.82,17.47,17.47,0,0,1-2.73-.9,4.56,4.56,0,0,1-1.8-1.33,3.42,3.42,0,0,1-.64-2.13,3.51,3.51,0,0,1,1.6-3,7.22,7.22,0,0,1,4.16-1.1,9.34,9.34,0,0,1,3.19.49,8.92,8.92,0,0,1,2.31,1.18l-1.06,1.64a7.91,7.91,0,0,0-1.9-1,7.15,7.15,0,0,0-2.51-.39,4.36,4.36,0,0,0-2.53.56,1.71,1.71,0,0,0-.75,1.43,1.66,1.66,0,0,0,.37,1.12,3.08,3.08,0,0,0,1.24.78,24.67,24.67,0,0,0,2.42.77,13.39,13.39,0,0,1,2.59,1,4.3,4.3,0,0,1,1.72,1.43,4,4,0,0,1,.61,2.3,3.68,3.68,0,0,1-.92,2.61,5.23,5.23,0,0,1-2.38,1.45,10.09,10.09,0,0,1-3.09.46,9.2,9.2,0,0,1-3.51-.6,8.73,8.73,0,0,1-2.42-1.45l1.38-1.6a7.55,7.55,0,0,0,2,1.19A6.9,6.9,0,0,0,821.65,183.71Z" fill="#f2f2f2"/><path d="M137.3,232.55v2H125.85v-2h4.88V217.31l-4.55,2.76-1.05-1.72,5.9-3.66h2.12v17.86Z" fill="#757575"/><path d="M146,219.82a2.3,2.3,0,0,1,.67-1.65,2.24,2.24,0,0,1,1.65-.67,2.33,2.33,0,1,1,0,4.66,2.22,2.22,0,0,1-1.65-.69A2.31,2.31,0,0,1,146,219.82Zm0,10.38a2.28,2.28,0,0,1,.67-1.63,2.22,2.22,0,0,1,1.65-.69,2.34,2.34,0,1,1,0,4.67,2.22,2.22,0,0,1-1.65-.69A2.3,2.3,0,0,1,146,230.2Z" fill="#757575"/><path d="M169.61,222.13v5.63h2.56v1.93h-2.56v4.83h-2.33l0-4.83H159v-1.75l5.81-13.57,2,.85-5.27,12.54h5.69l.31-5.63Z" fill="#757575"/><path d="M182.87,214.37a5.38,5.38,0,0,1,4.85,2.65c1.1,1.77,1.65,4.29,1.65,7.58s-.55,5.82-1.65,7.59a5.74,5.74,0,0,1-9.69,0q-1.65-2.66-1.65-7.59c0-3.29.55-5.81,1.65-7.58A5.36,5.36,0,0,1,182.87,214.37Zm0,1.95a3.19,3.19,0,0,0-2.88,1.93q-1.05,1.94-1.05,6.35a21.33,21.33,0,0,0,.5,5.18l6.07-12.18A3,3,0,0,0,182.87,216.32Zm3.95,8.28a20.19,20.19,0,0,0-.52-5.2l-6,12.22a3,3,0,0,0,2.6,1.27,3.22,3.22,0,0,0,2.9-1.94Q186.82,229,186.82,224.6Z" fill="#757575"/><path d="M230.87,227.79a5.33,5.33,0,0,0,1.39,3.84,4.31,4.31,0,0,0,3,1.2,6.11,6.11,0,0,0,2.11-.34,9.35,9.35,0,0,0,1.94-1l1.14,1.59a8.19,8.19,0,0,1-2.42,1.32,8.62,8.62,0,0,1-2.8.47,6.84,6.84,0,0,1-3.76-1,6.37,6.37,0,0,1-2.36-2.78,10.68,10.68,0,0,1,0-8.21,6.67,6.67,0,0,1,2.3-2.81,6,6,0,0,1,3.51-1,5.53,5.53,0,0,1,4.51,2,8.26,8.26,0,0,1,1.65,5.44c0,.26,0,.5,0,.73s0,.43,0,.59ZM235,221a3.73,3.73,0,0,0-2.83,1.19,5.78,5.78,0,0,0-1.28,3.7h7.91a5.8,5.8,0,0,0-1.07-3.66A3.37,3.37,0,0,0,235,221Z" fill="#ef5350"/><path d="M246.39,234.52v-1.86h2.36V221.21h-2.36v-1.86h4.21l.44,3.59a8.15,8.15,0,0,1,2.13-2.89,5.05,5.05,0,0,1,3.32-1,5.52,5.52,0,0,1,1.13.1c.33.06.67.14,1,.23l-.34,5.13h-2v-3.22h-.13q-3.48,0-5,5v6.42h3.08v1.86Z" fill="#ef5350"/><path d="M263.67,234.52v-1.86H266V221.21h-2.36v-1.86h4.21l.44,3.59a8.15,8.15,0,0,1,2.13-2.89,5.05,5.05,0,0,1,3.32-1,5.52,5.52,0,0,1,1.13.1c.33.06.67.14,1,.23l-.34,5.13h-2v-3.22h-.13q-3.48,0-5,5v6.42h3.08v1.86Z" fill="#ef5350"/><path d="M286.58,219a5.75,5.75,0,0,1,4.86,2.14,9.26,9.26,0,0,1,1.64,5.75,10.48,10.48,0,0,1-.75,4.1,6.31,6.31,0,0,1-2.2,2.8,6.07,6.07,0,0,1-3.58,1,5.74,5.74,0,0,1-4.86-2.16A9.14,9.14,0,0,1,280,227a10.64,10.64,0,0,1,.75-4.13A6.23,6.23,0,0,1,283,220,6.17,6.17,0,0,1,286.58,219Zm0,2a3.37,3.37,0,0,0-3,1.46,10.56,10.56,0,0,0,0,8.95,3.72,3.72,0,0,0,5.89,0,10.66,10.66,0,0,0,0-8.95A3.3,3.3,0,0,0,286.58,221Z" fill="#ef5350"/><path d="M298.23,234.52v-1.86h2.36V221.21h-2.36v-1.86h4.21l.44,3.59a8,8,0,0,1,2.14-2.89,5,5,0,0,1,3.31-1,5.52,5.52,0,0,1,1.13.1c.33.06.67.14,1,.23l-.34,5.13h-2v-3.22H308q-3.48,0-5,5v6.42h3.09v1.86Z" fill="#ef5350"/><path d="M362.31,214.69l1.13,19.83H361l-.62-10.35c-.05-.93-.08-1.87-.11-2.83s0-1.83-.05-2.61,0-1.37,0-1.75l-3.34,14h-2.5l-3.59-14c0,.37,0,1,.05,1.78v2.68c0,1,0,1.87-.08,2.7l-.53,10.38h-2.35L349,214.69h3.48l3.21,13.58,3.07-13.58Z" fill="#f2f2f2"/><path d="M374.88,219.35V232.6h4.28v1.92H367.79V232.6h4.68V221.27h-4.54v-1.92ZM373,212.26a1.7,1.7,0,0,1,1.28.49,1.59,1.59,0,0,1,.49,1.19,1.67,1.67,0,0,1-.49,1.23,1.76,1.76,0,0,1-3-1.23,1.63,1.63,0,0,1,.49-1.19A1.7,1.7,0,0,1,373,212.26Z" fill="#f2f2f2"/><path d="M389.65,232.85a5.08,5.08,0,0,0,2.76-.65,2,2,0,0,0,1-1.76,2.73,2.73,0,0,0-.25-1.18,2.35,2.35,0,0,0-1-.91,11.09,11.09,0,0,0-2.39-.82,15.06,15.06,0,0,1-2.73-.9,4.42,4.42,0,0,1-1.8-1.33,3.35,3.35,0,0,1-.64-2.13,3.49,3.49,0,0,1,1.59-3,7.18,7.18,0,0,1,4.17-1.11,9.14,9.14,0,0,1,5.5,1.67l-1.07,1.64a8.21,8.21,0,0,0-1.89-1,7.24,7.24,0,0,0-2.51-.38,4.38,4.38,0,0,0-2.54.55,1.71,1.71,0,0,0-.75,1.43,1.65,1.65,0,0,0,.37,1.12,3.08,3.08,0,0,0,1.24.78,23,23,0,0,0,2.42.77,14.2,14.2,0,0,1,2.6.95,4.37,4.37,0,0,1,1.72,1.43,4,4,0,0,1,.61,2.3,3.73,3.73,0,0,1-.92,2.61,5.37,5.37,0,0,1-2.39,1.46,10.38,10.38,0,0,1-3.08.45,9.13,9.13,0,0,1-3.51-.6,8.65,8.65,0,0,1-2.43-1.45l1.38-1.59a7.43,7.43,0,0,0,2.06,1.18A6.62,6.62,0,0,0,389.65,232.85Z" fill="#f2f2f2"/><path d="M406.93,232.85a5.08,5.08,0,0,0,2.76-.65,2,2,0,0,0,1-1.76,2.73,2.73,0,0,0-.25-1.18,2.3,2.3,0,0,0-1-.91,11.09,11.09,0,0,0-2.39-.82,15.06,15.06,0,0,1-2.73-.9,4.42,4.42,0,0,1-1.8-1.33,3.35,3.35,0,0,1-.64-2.13,3.47,3.47,0,0,1,1.6-3,7.13,7.13,0,0,1,4.16-1.11,9.14,9.14,0,0,1,5.5,1.67l-1.07,1.64a8.21,8.21,0,0,0-1.89-1,7.24,7.24,0,0,0-2.51-.38,4.4,4.4,0,0,0-2.54.55,1.71,1.71,0,0,0-.75,1.43,1.65,1.65,0,0,0,.37,1.12,3.05,3.05,0,0,0,1.25.78,21.92,21.92,0,0,0,2.41.77,14.2,14.2,0,0,1,2.6.95,4.37,4.37,0,0,1,1.72,1.43,4,4,0,0,1,.61,2.3,3.73,3.73,0,0,1-.92,2.61A5.37,5.37,0,0,1,410,234.4a10.38,10.38,0,0,1-3.08.45,9.13,9.13,0,0,1-3.51-.6A8.79,8.79,0,0,1,401,232.8l1.39-1.59a7.23,7.23,0,0,0,2.05,1.18A6.62,6.62,0,0,0,406.93,232.85Z" fill="#f2f2f2"/><path d="M426.73,219.35V232.6H431v1.92H419.63V232.6h4.68V221.27h-4.54v-1.92Zm-1.93-7.09a1.7,1.7,0,0,1,1.28.49,1.59,1.59,0,0,1,.49,1.19,1.67,1.67,0,0,1-.49,1.23,1.76,1.76,0,0,1-3-1.23,1.63,1.63,0,0,1,.49-1.19A1.7,1.7,0,0,1,424.8,212.26Z" fill="#f2f2f2"/><path d="M436.33,234.52V219.35h2.06l.19,2.11a6.08,6.08,0,0,1,2.3-1.8,6.66,6.66,0,0,1,2.71-.62,4.06,4.06,0,0,1,3.25,1.18,4.91,4.91,0,0,1,1,3.28v11h-2.42v-9.23a15.24,15.24,0,0,0-.17-2.51,2.22,2.22,0,0,0-.73-1.39,2.64,2.64,0,0,0-1.69-.45,3.73,3.73,0,0,0-1.68.39,5.5,5.5,0,0,0-1.39,1,7.62,7.62,0,0,0-1,1.17v11.05Z" fill="#f2f2f2"/><path d="M465.94,217.74l.75,2.28a9.34,9.34,0,0,1-2.07.37c-.72.05-1.51.07-2.37.07a4,4,0,0,1,2.64,3.82,4.94,4.94,0,0,1-1.51,3.7,5.78,5.78,0,0,1-4.2,1.46,8.83,8.83,0,0,1-1.27-.08,6.44,6.44,0,0,1-1-.21,1.87,1.87,0,0,0-.57.64,1.75,1.75,0,0,0-.22.83,1.12,1.12,0,0,0,.43.9,2.59,2.59,0,0,0,1.6.36h2.74a6.59,6.59,0,0,1,2.73.55,4.9,4.9,0,0,1,1.92,1.48,3.35,3.35,0,0,1,.7,2.09,3.83,3.83,0,0,1-1.89,3.43,10,10,0,0,1-5.35,1.19,11.89,11.89,0,0,1-3.82-.49,3.62,3.62,0,0,1-2-1.51,5,5,0,0,1-.6-2.56h2.19a2.78,2.78,0,0,0,.35,1.45,2.1,2.1,0,0,0,1.25.86,9.21,9.21,0,0,0,2.61.28,8.09,8.09,0,0,0,3.65-.62,2,2,0,0,0,1.16-1.87,1.77,1.77,0,0,0-1-1.63,5,5,0,0,0-2.45-.54h-2.71a4.09,4.09,0,0,1-2.89-.87,2.63,2.63,0,0,1-.92-2,3.14,3.14,0,0,1,1.67-2.65,4.44,4.44,0,0,1-2.55-4.19,4.91,4.91,0,0,1,.76-2.72,5.18,5.18,0,0,1,2.13-1.87A7,7,0,0,1,459,219a26.07,26.07,0,0,0,3.11-.15,11.68,11.68,0,0,0,2.05-.45C464.76,218.23,465.34,218,465.94,217.74Zm-6.91,3a3.41,3.41,0,0,0-2.7,1,3.62,3.62,0,0,0-.88,2.5,3.68,3.68,0,0,0,.89,2.54,3.49,3.49,0,0,0,2.74,1,3.15,3.15,0,0,0,2.45-.93,3.75,3.75,0,0,0,.85-2.61C462.38,222,461.26,220.79,459,220.79Z" fill="#f2f2f2"/><path d="M493.33,232.85a5.08,5.08,0,0,0,2.76-.65,2,2,0,0,0,1-1.76,2.59,2.59,0,0,0-.25-1.18,2.3,2.3,0,0,0-1-.91,11.09,11.09,0,0,0-2.39-.82,15.06,15.06,0,0,1-2.73-.9,4.56,4.56,0,0,1-1.8-1.33,3.35,3.35,0,0,1-.64-2.13,3.47,3.47,0,0,1,1.6-3A7.13,7.13,0,0,1,494,219a9.34,9.34,0,0,1,3.19.49,9.08,9.08,0,0,1,2.31,1.18l-1.07,1.64a8,8,0,0,0-1.89-1,7.21,7.21,0,0,0-2.51-.38,4.4,4.4,0,0,0-2.54.55,1.79,1.79,0,0,0-.38,2.55,3.13,3.13,0,0,0,1.25.78,21.51,21.51,0,0,0,2.42.77,14.37,14.37,0,0,1,2.59.95,4.37,4.37,0,0,1,1.72,1.43,4,4,0,0,1,.61,2.3,3.73,3.73,0,0,1-.92,2.61,5.39,5.39,0,0,1-2.38,1.46,10.5,10.5,0,0,1-3.09.45,9.16,9.16,0,0,1-3.51-.6,8.94,8.94,0,0,1-2.43-1.45l1.39-1.59a7.37,7.37,0,0,0,2.05,1.18A6.62,6.62,0,0,0,493.33,232.85Z" fill="#f2f2f2"/><path d="M507.35,227.79a5.33,5.33,0,0,0,1.39,3.84,4.33,4.33,0,0,0,3.05,1.2,6,6,0,0,0,2.1-.34,9.35,9.35,0,0,0,1.94-1l1.14,1.59a8.19,8.19,0,0,1-2.42,1.32,8.6,8.6,0,0,1-2.79.47,6.88,6.88,0,0,1-3.77-1,6.37,6.37,0,0,1-2.36-2.78,10.81,10.81,0,0,1,0-8.21,6.62,6.62,0,0,1,2.31-2.81,6,6,0,0,1,3.5-1,5.55,5.55,0,0,1,4.52,2,8.26,8.26,0,0,1,1.65,5.44c0,.26,0,.5,0,.73s0,.43,0,.59Zm4.12-6.76a3.73,3.73,0,0,0-2.82,1.19,5.67,5.67,0,0,0-1.28,3.7h7.9a5.8,5.8,0,0,0-1.06-3.66A3.39,3.39,0,0,0,511.47,221Z" fill="#f2f2f2"/><path d="M532.73,219a3.24,3.24,0,0,1,1.39.31,2.46,2.46,0,0,1,1.11,1.23,6.34,6.34,0,0,1,.43,2.65v11.29h-2.24v-10.9a8.33,8.33,0,0,0-.18-2.06.89.89,0,0,0-1-.64,2.55,2.55,0,0,0-1.35.43,4.4,4.4,0,0,0-1.3,1.39v11.78h-2.26v-10.9a9,9,0,0,0-.17-2.06.91.91,0,0,0-1-.64,2.51,2.51,0,0,0-1.36.43,4.5,4.5,0,0,0-1.29,1.39v11.78h-2.23V219.35h1.9l.15,1.76a6.52,6.52,0,0,1,1.39-1.47,3,3,0,0,1,1.9-.6,3.32,3.32,0,0,1,1.63.41,2.46,2.46,0,0,1,1.12,1.59,5.88,5.88,0,0,1,1.4-1.45A3.28,3.28,0,0,1,532.73,219Z" fill="#f2f2f2"/><path d="M547.69,219.35V232.6H552v1.92H540.59V232.6h4.68V221.27h-4.54v-1.92Zm-1.93-7.09a1.71,1.71,0,0,1,1.29.49,1.62,1.62,0,0,1,.48,1.19,1.7,1.7,0,0,1-.48,1.23,1.72,1.72,0,0,1-1.29.5,1.69,1.69,0,0,1-1.74-1.73,1.59,1.59,0,0,1,.49-1.19A1.66,1.66,0,0,1,545.76,212.26Z" fill="#f2f2f2"/><path d="M564.15,232.76a5.91,5.91,0,0,0,2.12-.37,7.67,7.67,0,0,0,1.82-.95l1.18,1.58a7.39,7.39,0,0,1-2.39,1.34,8.12,8.12,0,0,1-2.73.49,7.22,7.22,0,0,1-3.85-1,6.23,6.23,0,0,1-2.43-2.74,10.45,10.45,0,0,1,0-8.21,6.76,6.76,0,0,1,2.43-2.85,7,7,0,0,1,3.88-1,7.78,7.78,0,0,1,5.06,1.75l-1.18,1.62a6.91,6.91,0,0,0-3.91-1.36,4.09,4.09,0,0,0-3.23,1.48,6.74,6.74,0,0,0-1.27,4.47,6.35,6.35,0,0,0,1.27,4.4A4.21,4.21,0,0,0,564.15,232.76Z" fill="#f2f2f2"/><path d="M580.35,219a5.72,5.72,0,0,1,4.85,2.14,9.26,9.26,0,0,1,1.64,5.75,10.48,10.48,0,0,1-.75,4.1,6.24,6.24,0,0,1-2.2,2.8,6.06,6.06,0,0,1-3.57,1,5.77,5.77,0,0,1-4.87-2.16A9.2,9.2,0,0,1,573.8,227a10.64,10.64,0,0,1,.74-4.13,5.89,5.89,0,0,1,5.81-3.79Zm0,2a3.36,3.36,0,0,0-3,1.46,8,8,0,0,0-1,4.49,8.12,8.12,0,0,0,1,4.46,3.72,3.72,0,0,0,5.89,0,10.66,10.66,0,0,0,0-8.95A3.29,3.29,0,0,0,580.35,221Z" fill="#f2f2f2"/><path d="M597.76,213.25v17.52a1.79,1.79,0,0,0,.7,1.6,3.16,3.16,0,0,0,1.8.46,5.66,5.66,0,0,0,1.31-.14,9.85,9.85,0,0,0,1.24-.39l.65,1.77a8.38,8.38,0,0,1-1.53.54,8.17,8.17,0,0,1-2.07.24,4.72,4.72,0,0,1-3.27-1.12,3.93,3.93,0,0,1-1.25-3.09V215.16h-4.65v-1.91Z" fill="#f2f2f2"/><path d="M614.91,219a5.72,5.72,0,0,1,4.85,2.14,9.26,9.26,0,0,1,1.64,5.75,10.48,10.48,0,0,1-.75,4.1,6.24,6.24,0,0,1-2.2,2.8,6.06,6.06,0,0,1-3.57,1,5.77,5.77,0,0,1-4.87-2.16,9.2,9.2,0,0,1-1.65-5.73,10.64,10.64,0,0,1,.74-4.13,5.89,5.89,0,0,1,5.81-3.79Zm0,2a3.36,3.36,0,0,0-3,1.46,8,8,0,0,0-1,4.49,8.12,8.12,0,0,0,1,4.46,3.34,3.34,0,0,0,3,1.44,3.3,3.3,0,0,0,2.94-1.45,10.66,10.66,0,0,0,0-8.95A3.29,3.29,0,0,0,614.91,221Z" fill="#f2f2f2"/><path d="M626.41,234.52V219.35h2.06l.19,2.11a6.08,6.08,0,0,1,2.3-1.8,6.69,6.69,0,0,1,2.71-.62,4.06,4.06,0,0,1,3.25,1.18,4.86,4.86,0,0,1,1,3.28v11h-2.41v-9.23a14.07,14.07,0,0,0-.18-2.51,2.17,2.17,0,0,0-.73-1.39,2.64,2.64,0,0,0-1.69-.45,3.77,3.77,0,0,0-1.68.39,5.68,5.68,0,0,0-1.39,1,7.62,7.62,0,0,0-1,1.17v11.05Z" fill="#f2f2f2"/><path d="M683.41,232.85a5.08,5.08,0,0,0,2.76-.65,2,2,0,0,0,1-1.76,2.59,2.59,0,0,0-.25-1.18,2.3,2.3,0,0,0-1-.91,10.9,10.9,0,0,0-2.39-.82,15.06,15.06,0,0,1-2.73-.9,4.56,4.56,0,0,1-1.8-1.33,3.35,3.35,0,0,1-.64-2.13,3.47,3.47,0,0,1,1.6-3A7.13,7.13,0,0,1,684.1,219a9.34,9.34,0,0,1,3.19.49,8.92,8.92,0,0,1,2.31,1.18l-1.06,1.64a8.29,8.29,0,0,0-1.9-1,7.17,7.17,0,0,0-2.51-.38,4.35,4.35,0,0,0-2.53.55,1.81,1.81,0,0,0-.39,2.55,3.13,3.13,0,0,0,1.25.78,21.51,21.51,0,0,0,2.42.77,14.09,14.09,0,0,1,2.59.95,4.37,4.37,0,0,1,1.72,1.43,4,4,0,0,1,.61,2.3,3.68,3.68,0,0,1-.92,2.61,5.34,5.34,0,0,1-2.38,1.46,10.5,10.5,0,0,1-3.09.45,9.2,9.2,0,0,1-3.51-.6,8.73,8.73,0,0,1-2.42-1.45l1.38-1.59a7.37,7.37,0,0,0,2,1.18A6.65,6.65,0,0,0,683.41,232.85Z" fill="#757575"/><path d="M697.43,227.79a5.38,5.38,0,0,0,1.39,3.84,4.33,4.33,0,0,0,3,1.2,6,6,0,0,0,2.1-.34,9.16,9.16,0,0,0,1.95-1l1.13,1.59a8.14,8.14,0,0,1-2.41,1.32,8.71,8.71,0,0,1-2.8.47,6.82,6.82,0,0,1-3.76-1,6.39,6.39,0,0,1-2.37-2.78,10.81,10.81,0,0,1,0-8.21,6.69,6.69,0,0,1,2.31-2.81,6,6,0,0,1,3.5-1,5.54,5.54,0,0,1,4.52,2,8.26,8.26,0,0,1,1.65,5.44c0,.26,0,.5,0,.73s0,.43,0,.59Zm4.12-6.76a3.73,3.73,0,0,0-2.82,1.19,5.67,5.67,0,0,0-1.28,3.7h7.91a5.8,5.8,0,0,0-1.07-3.66A3.37,3.37,0,0,0,701.55,221Z" fill="#757575"/><path d="M722.81,219a3.31,3.31,0,0,1,1.4.31,2.41,2.41,0,0,1,1.1,1.23,6.31,6.31,0,0,1,.44,2.65v11.29H723.5v-10.9a9,9,0,0,0-.17-2.06.91.91,0,0,0-1-.64,2.55,2.55,0,0,0-1.35.43,4.52,4.52,0,0,0-1.3,1.39v11.78h-2.26v-10.9a8.45,8.45,0,0,0-.17-2.06.9.9,0,0,0-1-.64,2.54,2.54,0,0,0-1.37.43,4.48,4.48,0,0,0-1.28,1.39v11.78h-2.24V219.35h1.91l.14,1.76a6.52,6.52,0,0,1,1.39-1.47,3,3,0,0,1,1.91-.6,3.31,3.31,0,0,1,1.62.41,2.51,2.51,0,0,1,1.13,1.59,5.85,5.85,0,0,1,1.39-1.45A3.28,3.28,0,0,1,722.81,219Z" fill="#757575"/><path d="M737.77,219.35V232.6h4.28v1.92H730.67V232.6h4.68V221.27h-4.54v-1.92Zm-1.93-7.09a1.71,1.71,0,0,1,1.29.49,1.62,1.62,0,0,1,.48,1.19,1.7,1.7,0,0,1-.48,1.23,1.72,1.72,0,0,1-1.29.5,1.69,1.69,0,0,1-1.74-1.73,1.59,1.59,0,0,1,.49-1.19A1.66,1.66,0,0,1,735.84,212.26Z" fill="#757575"/><path d="M107.32,313.8l3.59,3.6-5.47,5.44,5.47,5.45-3.59,3.6-5.45-5.48-5.45,5.48-3.59-3.6,5.47-5.45-5.47-5.44,3.59-3.6,5.45,5.48Z" fill="#ef5350"/><path d="M148.1,330.93v2H136.65v-2h4.88V315.69L137,318.46l-1-1.73,5.9-3.66H144v17.86Z" fill="#ef5350"/><path d="M177.43,317.42a5,5,0,0,1,3.22,1,5.41,5.41,0,0,1,1.73,2.76,14.31,14.31,0,0,1,.54,4.15,12.22,12.22,0,0,1-.64,4.08,6.13,6.13,0,0,1-1.94,2.82,5.15,5.15,0,0,1-3.27,1,5,5,0,0,1-4-1.76v7.23l-2.42.3V317.74h2.06l.2,2.11a6,6,0,0,1,2-1.8A5.16,5.16,0,0,1,177.43,317.42Zm-.58,1.94a3.51,3.51,0,0,0-2.21.76,6.71,6.71,0,0,0-1.57,1.68v7.51a4.31,4.31,0,0,0,1.49,1.39,4,4,0,0,0,2,.51,3.17,3.17,0,0,0,2.83-1.44,8.21,8.21,0,0,0,.95-4.47C180.32,321.34,179.17,319.36,176.85,319.36Z" fill="#ef5350"/><path d="M188.07,332.9V331h2.36V319.59h-2.36v-1.85h4.21l.44,3.58a8.15,8.15,0,0,1,2.13-2.89,5.11,5.11,0,0,1,3.32-1,6.33,6.33,0,0,1,1.13.1,9.82,9.82,0,0,1,1,.24l-.34,5.12h-2v-3.22h-.13q-3.48,0-5,5V331h3.08v1.86Z" fill="#ef5350"/><path d="M211,317.42a5.72,5.72,0,0,1,4.85,2.14,9.22,9.22,0,0,1,1.65,5.75,10.48,10.48,0,0,1-.75,4.1,6.29,6.29,0,0,1-2.21,2.81,6.13,6.13,0,0,1-3.57,1,5.74,5.74,0,0,1-4.86-2.16,9.14,9.14,0,0,1-1.66-5.73,10.64,10.64,0,0,1,.75-4.13,5.89,5.89,0,0,1,5.8-3.79Zm0,2a3.37,3.37,0,0,0-3,1.46,10.56,10.56,0,0,0,0,8.95,3.72,3.72,0,0,0,5.89,0,10.76,10.76,0,0,0,0-9A3.3,3.3,0,0,0,211,319.39Z" fill="#ef5350"/><path d="M224.91,319.71a5.91,5.91,0,0,1,1.92-1.69,4.91,4.91,0,0,1,2.4-.6,5.18,5.18,0,0,1,3.28,1,5.48,5.48,0,0,1,1.83,2.76,13.59,13.59,0,0,1,.58,4.15,11.26,11.26,0,0,1-.69,4.08,6.19,6.19,0,0,1-2,2.82,5.28,5.28,0,0,1-3.3,1,5,5,0,0,1-4.13-1.9l-.18,1.57h-2.11V311.63l2.42-.3Zm3.42,11.56a3.35,3.35,0,0,0,2.93-1.47,8,8,0,0,0,1-4.5q0-5.94-3.57-5.94a3.52,3.52,0,0,0-2.23.76,6.71,6.71,0,0,0-1.57,1.68v7.51a4.36,4.36,0,0,0,1.49,1.44A3.75,3.75,0,0,0,228.33,331.27Z" fill="#ef5350"/><path d="M245.67,311.63v17.53a1.78,1.78,0,0,0,.7,1.59,3.22,3.22,0,0,0,1.81.46,5.57,5.57,0,0,0,1.3-.14,10,10,0,0,0,1.25-.39l.65,1.77a8.79,8.79,0,0,1-1.54.54,8.17,8.17,0,0,1-2.07.24,4.68,4.68,0,0,1-3.26-1.12,3.9,3.9,0,0,1-1.26-3.08V313.54H238.6v-1.91Z" fill="#ef5350"/><path d="M259,326.17a5.33,5.33,0,0,0,1.39,3.84,4.31,4.31,0,0,0,3,1.2,6.11,6.11,0,0,0,2.11-.34,9.35,9.35,0,0,0,1.94-1l1.14,1.6a8.4,8.4,0,0,1-2.42,1.31,8.6,8.6,0,0,1-2.79.47,6.85,6.85,0,0,1-3.77-1,6.37,6.37,0,0,1-2.36-2.78,10.68,10.68,0,0,1,0-8.21,6.67,6.67,0,0,1,2.3-2.81,6.07,6.07,0,0,1,3.51-1,5.53,5.53,0,0,1,4.51,2,8.26,8.26,0,0,1,1.65,5.44c0,.26,0,.5,0,.73s0,.43,0,.59Zm4.12-6.76a3.7,3.7,0,0,0-2.82,1.19,5.73,5.73,0,0,0-1.29,3.7h7.91a5.74,5.74,0,0,0-1.07-3.66A3.37,3.37,0,0,0,263.07,319.41Z" fill="#ef5350"/><path d="M284.32,317.42a3.15,3.15,0,0,1,1.4.32,2.4,2.4,0,0,1,1.11,1.22,6.34,6.34,0,0,1,.43,2.65V332.9H285V322a8.45,8.45,0,0,0-.17-2.06c-.11-.42-.45-.63-1-.63a2.57,2.57,0,0,0-1.36.42,4.39,4.39,0,0,0-1.29,1.39V332.9h-2.26V322a8.33,8.33,0,0,0-.18-2.06q-.17-.63-1-.63a2.53,2.53,0,0,0-1.37.42,4.48,4.48,0,0,0-1.28,1.39V332.9h-2.23V317.74h1.9l.14,1.75a7.25,7.25,0,0,1,1.39-1.47,3,3,0,0,1,1.91-.6,3.43,3.43,0,0,1,1.63.41,2.5,2.5,0,0,1,1.12,1.59,5.88,5.88,0,0,1,1.4-1.45A3.25,3.25,0,0,1,284.32,317.42Z" fill="#ef5350"/><path d="M312.11,322.82a17.26,17.26,0,0,0,.69,5.19,12.86,12.86,0,0,0,2.05,4,25.35,25.35,0,0,0,3.43,3.62L317,336.93a29.06,29.06,0,0,1-4-3.9,14.7,14.7,0,0,1-2.55-4.47,19,19,0,0,1,0-11.49,14.65,14.65,0,0,1,2.55-4.46,28,28,0,0,1,4-3.9l1.27,1.32a30.31,30.31,0,0,0-2.72,2.72,14.23,14.23,0,0,0-1.92,2.8,12.67,12.67,0,0,0-1.14,3.24A18.8,18.8,0,0,0,312.11,322.82Z" fill="#ef5350"/><path d="M338.18,330.93v2H326.73v-2h4.88V315.69l-4.55,2.77L326,316.73l5.91-3.66H334v17.86Z" fill="#ef5350"/><path d="M362.63,326.17A5.33,5.33,0,0,0,364,330a4.33,4.33,0,0,0,3.05,1.2,6.09,6.09,0,0,0,2.1-.34,9.35,9.35,0,0,0,1.94-1l1.14,1.6a8.4,8.4,0,0,1-2.42,1.31,8.6,8.6,0,0,1-2.79.47,6.85,6.85,0,0,1-3.77-1,6.37,6.37,0,0,1-2.36-2.78,10.81,10.81,0,0,1,0-8.21,6.67,6.67,0,0,1,2.3-2.81,6.09,6.09,0,0,1,3.51-1,5.55,5.55,0,0,1,4.52,2,8.31,8.31,0,0,1,1.64,5.44c0,.26,0,.5,0,.73s0,.43,0,.59Zm4.12-6.76a3.73,3.73,0,0,0-2.82,1.19,5.67,5.67,0,0,0-1.28,3.7h7.9a5.8,5.8,0,0,0-1.06-3.66A3.4,3.4,0,0,0,366.75,319.41Z" fill="#ef5350"/><path d="M378.15,332.9V331h2.37V319.59h-2.37v-1.85h4.21l.45,3.58a7.92,7.92,0,0,1,2.13-2.89,5.08,5.08,0,0,1,3.31-1,6.33,6.33,0,0,1,1.13.1,9.82,9.82,0,0,1,1,.24l-.34,5.12h-2v-3.22h-.13c-2.32,0-4,1.66-5,5V331H386v1.86Z" fill="#ef5350"/><path d="M395.43,332.9V331h2.37V319.59h-2.37v-1.85h4.21l.45,3.58a7.92,7.92,0,0,1,2.13-2.89,5.08,5.08,0,0,1,3.31-1,6.33,6.33,0,0,1,1.13.1,9.82,9.82,0,0,1,1,.24l-.34,5.12h-2v-3.22h-.13c-2.32,0-4,1.66-5,5V331h3.08v1.86Z" fill="#ef5350"/><path d="M418.35,317.42a5.73,5.73,0,0,1,4.85,2.14,9.28,9.28,0,0,1,1.64,5.75,10.48,10.48,0,0,1-.75,4.1,6.27,6.27,0,0,1-2.2,2.81,6.13,6.13,0,0,1-3.57,1,5.76,5.76,0,0,1-4.87-2.16,9.2,9.2,0,0,1-1.66-5.73,10.64,10.64,0,0,1,.75-4.13,5.89,5.89,0,0,1,5.81-3.79Zm0,2a3.35,3.35,0,0,0-3,1.46,10.61,10.61,0,0,0,0,8.95,3.72,3.72,0,0,0,5.89,0,10.66,10.66,0,0,0,0-9A3.29,3.29,0,0,0,418.35,319.39Z" fill="#ef5350"/><path d="M430,332.9V331h2.36V319.59H430v-1.85h4.2l.45,3.58a7.92,7.92,0,0,1,2.13-2.89,5.08,5.08,0,0,1,3.31-1,6.33,6.33,0,0,1,1.13.1q.5.09,1,.24l-.35,5.12h-2v-3.22h-.13c-2.32,0-4,1.66-5,5V331h3.08v1.86Z" fill="#ef5350"/><path d="M452.88,328.16a2.26,2.26,0,0,1,1.66.68,2.21,2.21,0,0,1,.67,1.63,4.83,4.83,0,0,1-.12,1,6.26,6.26,0,0,1-.44,1.21l-2.33,5.34h-2.19l1.38-5.69a2.33,2.33,0,0,1,1.37-4.22Z" fill="#ef5350"/><path d="M487.44,312.75a5.36,5.36,0,0,1,4.84,2.65c1.1,1.77,1.65,4.29,1.65,7.58s-.55,5.82-1.65,7.59a5.74,5.74,0,0,1-9.69,0q-1.65-2.65-1.65-7.59c0-3.29.55-5.81,1.65-7.58A5.38,5.38,0,0,1,487.44,312.75Zm0,1.95a3.19,3.19,0,0,0-2.88,1.93c-.7,1.3-1.05,3.41-1.05,6.35a20.78,20.78,0,0,0,.5,5.18L490.07,316A3,3,0,0,0,487.44,314.7Zm3.94,8.28a20.72,20.72,0,0,0-.51-5.2l-6,12.22a3,3,0,0,0,2.61,1.27,3.2,3.2,0,0,0,2.89-1.94C491,328,491.38,325.92,491.38,323Z" fill="#ef5350"/><path d="M527.48,332.9h-3.42l-2-11.13L520,332.9h-3.34l-2.77-15.16h2.48l1.93,13.66,2.42-11.73h2.86l2.29,11.73,1.93-13.66h2.36Z" fill="#ef5350"/><path d="M544.39,329.59a2.35,2.35,0,0,0,.3,1.34,1.71,1.71,0,0,0,.94.6l-.59,1.7a3.91,3.91,0,0,1-1.72-.63,2.82,2.82,0,0,1-1.06-1.5,5.25,5.25,0,0,1-2,1.59,6.64,6.64,0,0,1-2.7.54,4.93,4.93,0,0,1-3.59-1.28,4.57,4.57,0,0,1-1.31-3.4,4.11,4.11,0,0,1,1.83-3.6,9.38,9.38,0,0,1,5.29-1.25H542v-1.27a2.68,2.68,0,0,0-1-2.33,4.55,4.55,0,0,0-2.66-.68,10.08,10.08,0,0,0-1.75.18,13.43,13.43,0,0,0-2.19.6l-.64-1.83a15,15,0,0,1,2.62-.74,13.92,13.92,0,0,1,2.34-.21,6.08,6.08,0,0,1,4.25,1.32,4.66,4.66,0,0,1,1.42,3.58Zm-6.26,1.8a4.32,4.32,0,0,0,2.14-.57,5,5,0,0,0,1.69-1.58v-3.9h-2.19a5.63,5.63,0,0,0-3.54.86,2.9,2.9,0,0,0-1,2.32C535.2,330.43,536.18,331.39,538.13,331.39Z" fill="#ef5350"/><path d="M551,332.9V331h2.36V319.59H551v-1.85h4.2l.45,3.58a7.92,7.92,0,0,1,2.13-2.89,5.08,5.08,0,0,1,3.31-1,6.33,6.33,0,0,1,1.13.1q.5.09,1,.24l-.35,5.12h-2v-3.22h-.13q-3.48,0-5,5V331h3.08v1.86Z" fill="#ef5350"/><path d="M568.09,332.9V317.74h2.06l.19,2.1a6.08,6.08,0,0,1,2.3-1.8,6.69,6.69,0,0,1,2.71-.62,4.06,4.06,0,0,1,3.25,1.18,4.91,4.91,0,0,1,1,3.28v11h-2.42v-9.23a14.21,14.21,0,0,0-.17-2.51,2.17,2.17,0,0,0-.73-1.39,2.64,2.64,0,0,0-1.69-.45,3.77,3.77,0,0,0-1.68.39,5.68,5.68,0,0,0-1.39,1,7.62,7.62,0,0,0-1,1.17v11Z" fill="#ef5350"/><path d="M593.05,317.74V331h4.28v1.92H586V331h4.68V319.65h-4.54v-1.91Zm-1.93-7.1a1.71,1.71,0,0,1,1.29.49,1.62,1.62,0,0,1,.48,1.19,1.7,1.7,0,0,1-.48,1.23,1.72,1.72,0,0,1-1.29.5,1.69,1.69,0,0,1-1.74-1.73,1.59,1.59,0,0,1,.49-1.19A1.66,1.66,0,0,1,591.12,310.64Z" fill="#ef5350"/><path d="M602.65,332.9V317.74h2.06l.19,2.1a6.08,6.08,0,0,1,2.3-1.8,6.69,6.69,0,0,1,2.71-.62,4.06,4.06,0,0,1,3.25,1.18,4.86,4.86,0,0,1,1,3.28v11h-2.41v-9.23a14.07,14.07,0,0,0-.18-2.51,2.17,2.17,0,0,0-.73-1.39,2.64,2.64,0,0,0-1.69-.45,3.77,3.77,0,0,0-1.68.39,5.68,5.68,0,0,0-1.39,1,7.62,7.62,0,0,0-1,1.17v11Z" fill="#ef5350"/><path d="M632.26,316.12l.75,2.28a9.14,9.14,0,0,1-2.07.37c-.72.05-1.51.07-2.37.07a4,4,0,0,1,2.64,3.82,4.9,4.9,0,0,1-1.51,3.7,5.77,5.77,0,0,1-4.19,1.46,9,9,0,0,1-1.28-.08,6.08,6.08,0,0,1-1-.21,2,2,0,0,0-.57.64,1.65,1.65,0,0,0-.23.83,1.13,1.13,0,0,0,.44.9,2.56,2.56,0,0,0,1.59.36h2.74a6.67,6.67,0,0,1,2.74.55,4.94,4.94,0,0,1,1.91,1.48,3.38,3.38,0,0,1,.71,2.09,3.82,3.82,0,0,1-1.9,3.43,10,10,0,0,1-5.35,1.19,11.78,11.78,0,0,1-3.81-.49,3.64,3.64,0,0,1-2-1.51,5.08,5.08,0,0,1-.59-2.56h2.18a2.75,2.75,0,0,0,.35,1.45,2.1,2.1,0,0,0,1.25.86,9.26,9.26,0,0,0,2.61.28,8.17,8.17,0,0,0,3.66-.62,2,2,0,0,0,1.15-1.87,1.77,1.77,0,0,0-1-1.63,5,5,0,0,0-2.45-.54H624a4.09,4.09,0,0,1-2.89-.87,2.66,2.66,0,0,1-.92-2,3.15,3.15,0,0,1,1.67-2.65,4.46,4.46,0,0,1-2.55-4.2,5,5,0,0,1,.76-2.72,5.18,5.18,0,0,1,2.13-1.87,7.09,7.09,0,0,1,3.16-.68,26,26,0,0,0,3.11-.15,11.48,11.48,0,0,0,2-.45C631.08,316.61,631.67,316.38,632.26,316.12Zm-6.91,3.06a3.41,3.41,0,0,0-2.7,1,4.07,4.07,0,0,0,0,5,3.51,3.51,0,0,0,2.75,1,3.13,3.13,0,0,0,2.44-.93,3.75,3.75,0,0,0,.85-2.61C628.7,320.34,627.59,319.18,625.35,319.18Z" fill="#ef5350"/><path d="M642.37,331.23a5.08,5.08,0,0,0,2.76-.65,2,2,0,0,0,1-1.76,2.59,2.59,0,0,0-.25-1.18,2.3,2.3,0,0,0-1-.91,11,11,0,0,0-2.39-.81,15.84,15.84,0,0,1-2.73-.91,4.56,4.56,0,0,1-1.8-1.33,3.32,3.32,0,0,1-.64-2.13,3.49,3.49,0,0,1,1.6-3,7.13,7.13,0,0,1,4.16-1.11,9.34,9.34,0,0,1,3.19.49,9.24,9.24,0,0,1,2.31,1.18l-1.06,1.64a8.29,8.29,0,0,0-1.9-1,7.17,7.17,0,0,0-2.51-.38,4.35,4.35,0,0,0-2.53.55,1.81,1.81,0,0,0-.39,2.55,3.13,3.13,0,0,0,1.25.79,24.21,24.21,0,0,0,2.42.76,14.09,14.09,0,0,1,2.59,1,4.37,4.37,0,0,1,1.72,1.43,4,4,0,0,1,.61,2.3,3.67,3.67,0,0,1-.92,2.61,5.34,5.34,0,0,1-2.38,1.46,10.5,10.5,0,0,1-3.09.45,9.2,9.2,0,0,1-3.51-.6,9,9,0,0,1-2.42-1.44l1.38-1.6a7.66,7.66,0,0,0,2,1.19A6.85,6.85,0,0,0,642.37,331.23Z" fill="#ef5350"/><path d="M662.76,322.82a19.51,19.51,0,0,0-.38-4,13.07,13.07,0,0,0-1.15-3.24,13.81,13.81,0,0,0-1.92-2.8A30.13,30.13,0,0,0,656.6,310l1.26-1.32a28,28,0,0,1,4,3.9,14.65,14.65,0,0,1,2.55,4.46,19,19,0,0,1,0,11.49,14.7,14.7,0,0,1-2.55,4.47,29.16,29.16,0,0,1-4,3.9l-1.26-1.32A25.24,25.24,0,0,0,660,332a12.89,12.89,0,0,0,2.06-4A17.61,17.61,0,0,0,662.76,322.82Z" fill="#ef5350"/><path d="M137.3,380v2H125.85v-2h4.88V364.74l-4.55,2.76-1.05-1.73,5.9-3.65h2.12V380Z" fill="#ef5350"/><path d="M161.75,375.22a5.29,5.29,0,0,0,1.39,3.84,4.31,4.31,0,0,0,3,1.2,6,6,0,0,0,2.1-.35,9.16,9.16,0,0,0,1.95-1l1.14,1.6A8.17,8.17,0,0,1,169,381.8a8.41,8.41,0,0,1-2.8.48,6.84,6.84,0,0,1-3.76-1,6.29,6.29,0,0,1-2.36-2.77,10.71,10.71,0,0,1,0-8.22,6.64,6.64,0,0,1,2.3-2.8,6,6,0,0,1,3.51-1,5.56,5.56,0,0,1,4.51,2,8.28,8.28,0,0,1,1.65,5.44c0,.26,0,.51,0,.74s0,.43,0,.59Zm4.12-6.77a3.74,3.74,0,0,0-2.83,1.2,5.7,5.7,0,0,0-1.28,3.7h7.91a5.81,5.81,0,0,0-1.07-3.67A3.37,3.37,0,0,0,165.87,368.45Z" fill="#ef5350"/><path d="M177.27,381.94v-1.85h2.36V368.64h-2.36v-1.86h4.21l.44,3.59a8.19,8.19,0,0,1,2.13-2.9,5.1,5.1,0,0,1,3.32-1,6.47,6.47,0,0,1,1.13.09c.33.07.67.14,1,.24l-.34,5.13h-2v-3.23h-.13q-3.48,0-5,5v6.43h3.08v1.85Z" fill="#ef5350"/><path d="M194.55,381.94v-1.85h2.36V368.64h-2.36v-1.86h4.21l.44,3.59a8.19,8.19,0,0,1,2.13-2.9,5.1,5.1,0,0,1,3.32-1,6.47,6.47,0,0,1,1.13.09c.33.07.67.14,1,.24l-.34,5.13h-2v-3.23h-.13q-3.48,0-5,5v6.43h3.08v1.85Z" fill="#ef5350"/><path d="M217.46,366.46a5.73,5.73,0,0,1,4.85,2.15,9.2,9.2,0,0,1,1.65,5.75,10.52,10.52,0,0,1-.75,4.1,6.32,6.32,0,0,1-2.21,2.8,6.06,6.06,0,0,1-3.57,1,5.74,5.74,0,0,1-4.86-2.16,9.17,9.17,0,0,1-1.66-5.74,10.59,10.59,0,0,1,.75-4.12,6.14,6.14,0,0,1,2.21-2.8A6.25,6.25,0,0,1,217.46,366.46Zm0,2a3.37,3.37,0,0,0-3,1.45,10.56,10.56,0,0,0,0,8.95,3.71,3.71,0,0,0,5.89,0,10.71,10.71,0,0,0,0-8.95A3.29,3.29,0,0,0,217.46,368.44Z" fill="#ef5350"/><path d="M229.11,381.94v-1.85h2.36V368.64h-2.36v-1.86h4.21l.44,3.59a8.19,8.19,0,0,1,2.13-2.9,5.1,5.1,0,0,1,3.32-1,6.39,6.39,0,0,1,1.13.09c.33.07.67.14,1,.24l-.34,5.13h-2v-3.23h-.13q-3.48,0-5,5v6.43H237v1.85Z" fill="#ef5350"/><path d="M274.39,378.63a2.33,2.33,0,0,0,.3,1.34,1.71,1.71,0,0,0,.93.61l-.59,1.7a4,4,0,0,1-1.71-.63,2.82,2.82,0,0,1-1.07-1.51,5.2,5.2,0,0,1-2.05,1.6,6.64,6.64,0,0,1-2.7.54,4.88,4.88,0,0,1-3.58-1.29,4.49,4.49,0,0,1-1.31-3.39,4.09,4.09,0,0,1,1.83-3.6,9.25,9.25,0,0,1,5.28-1.26H272v-1.26a2.67,2.67,0,0,0-1-2.33,4.44,4.44,0,0,0-2.65-.68,10.18,10.18,0,0,0-1.76.18,13.9,13.9,0,0,0-2.19.59l-.63-1.83a14.78,14.78,0,0,1,2.61-.73,14,14,0,0,1,2.34-.22,6.06,6.06,0,0,1,4.25,1.33,4.63,4.63,0,0,1,1.43,3.57Zm-6.27,1.8a4.32,4.32,0,0,0,2.14-.57,4.88,4.88,0,0,0,1.69-1.57v-3.91h-2.19a5.51,5.51,0,0,0-3.53.87,2.86,2.86,0,0,0-1,2.32C265.2,379.48,266.17,380.43,268.12,380.43Z" fill="#ef5350"/><path d="M280.81,381.94V366.78h2.06l.18,2.1a6.27,6.27,0,0,1,2.31-1.79,6.48,6.48,0,0,1,2.71-.63,4.07,4.07,0,0,1,3.24,1.18,4.89,4.89,0,0,1,1,3.29v11h-2.42v-9.23a15.11,15.11,0,0,0-.17-2.5,2.25,2.25,0,0,0-.73-1.4,2.64,2.64,0,0,0-1.69-.45,3.7,3.7,0,0,0-1.68.39,5.77,5.77,0,0,0-1.4,1,7.09,7.09,0,0,0-1,1.17v11Z" fill="#ef5350"/><path d="M307.16,360.37l2.42.3v21.27h-2.12l-.23-2a5.25,5.25,0,0,1-2,1.77,5,5,0,0,1-2.35.57,5.19,5.19,0,0,1-3.26-1,5.79,5.79,0,0,1-1.9-2.77,12.63,12.63,0,0,1-.62-4.13,11,11,0,0,1,.71-4.06,6.46,6.46,0,0,1,2-2.83,5.49,5.49,0,0,1,7.26.76Zm-3.43,8a3.33,3.33,0,0,0-2.92,1.48,8,8,0,0,0-1,4.49q0,5.94,3.64,5.94a3.39,3.39,0,0,0,2.2-.73,6.67,6.67,0,0,0,1.53-1.66v-7.58a4.54,4.54,0,0,0-1.5-1.43A3.76,3.76,0,0,0,303.73,368.41Z" fill="#ef5350"/><path d="M338.39,361.8a5.35,5.35,0,0,1,4.85,2.65c1.1,1.76,1.65,4.29,1.65,7.57s-.55,5.83-1.65,7.6a5.74,5.74,0,0,1-9.69,0Q331.9,377,331.9,372c0-3.28.55-5.81,1.65-7.57A5.34,5.34,0,0,1,338.39,361.8Zm0,1.94a3.22,3.22,0,0,0-2.88,1.94q-1,1.94-1.05,6.34a20.8,20.8,0,0,0,.51,5.19L341,365A3,3,0,0,0,338.39,363.74Zm3.95,8.28a20.19,20.19,0,0,0-.52-5.2l-6,12.23a3,3,0,0,0,2.6,1.27,3.21,3.21,0,0,0,2.9-1.95Q342.34,376.43,342.34,372Z" fill="#ef5350"/><path d="M378.44,381.94H375l-1.95-11.13-2.14,11.13h-3.34l-2.76-15.16h2.48l1.93,13.67,2.42-11.74h2.86l2.29,11.74,1.93-13.67h2.36Z" fill="#ef5350"/><path d="M395.35,378.63a2.33,2.33,0,0,0,.3,1.34,1.71,1.71,0,0,0,.94.61l-.59,1.7a4,4,0,0,1-1.72-.63,2.76,2.76,0,0,1-1.06-1.51,5.23,5.23,0,0,1-2.06,1.6,6.64,6.64,0,0,1-2.7.54,4.88,4.88,0,0,1-3.58-1.29,4.49,4.49,0,0,1-1.31-3.39,4.09,4.09,0,0,1,1.83-3.6,9.28,9.28,0,0,1,5.28-1.26h2.23v-1.26a2.69,2.69,0,0,0-1-2.33,4.5,4.5,0,0,0-2.66-.68,10.18,10.18,0,0,0-1.76.18,13.9,13.9,0,0,0-2.19.59l-.63-1.83a14.78,14.78,0,0,1,2.61-.73,14,14,0,0,1,2.34-.22,6,6,0,0,1,4.25,1.33,4.63,4.63,0,0,1,1.43,3.57Zm-6.27,1.8a4.32,4.32,0,0,0,2.14-.57,4.88,4.88,0,0,0,1.69-1.57v-3.91h-2.18a5.54,5.54,0,0,0-3.54.87,2.86,2.86,0,0,0-1,2.32C386.16,379.48,387.13,380.43,389.08,380.43Z" fill="#ef5350"/><path d="M401.91,381.94v-1.85h2.37V368.64h-2.37v-1.86h4.21l.45,3.59a8,8,0,0,1,2.13-2.9,5.07,5.07,0,0,1,3.31-1,6.39,6.39,0,0,1,1.13.09c.33.07.67.14,1,.24l-.34,5.13h-2v-3.23h-.13q-3.48,0-5,5v6.43h3.09v1.85Z" fill="#ef5350"/><path d="M419.05,381.94V366.78h2.06l.19,2.1a6.16,6.16,0,0,1,2.3-1.79,6.48,6.48,0,0,1,2.71-.63,4.1,4.1,0,0,1,3.25,1.18,4.94,4.94,0,0,1,1,3.29v11h-2.42v-9.23a15.11,15.11,0,0,0-.17-2.5,2.25,2.25,0,0,0-.73-1.4,2.64,2.64,0,0,0-1.69-.45,3.7,3.7,0,0,0-1.68.39,5.77,5.77,0,0,0-1.4,1,7.6,7.6,0,0,0-1,1.17v11Z" fill="#ef5350"/><path d="M444,366.78V380h4.27v1.91H436.91V380h4.68V368.7h-4.54v-1.92Zm-1.93-7.1a1.74,1.74,0,0,1,1.29.49,1.66,1.66,0,0,1,.48,1.2,1.7,1.7,0,0,1-.48,1.23,1.74,1.74,0,0,1-1.29.49,1.68,1.68,0,0,1-1.75-1.72,1.67,1.67,0,0,1,.49-1.2A1.7,1.7,0,0,1,442.08,359.68Z" fill="#ef5350"/><path d="M453.61,381.94V366.78h2.06l.19,2.1a6.16,6.16,0,0,1,2.3-1.79,6.52,6.52,0,0,1,2.71-.63,4.1,4.1,0,0,1,3.25,1.18,4.94,4.94,0,0,1,1,3.29v11h-2.42v-9.23a15.11,15.11,0,0,0-.17-2.5,2.25,2.25,0,0,0-.73-1.4,2.64,2.64,0,0,0-1.69-.45,3.73,3.73,0,0,0-1.68.39,5.53,5.53,0,0,0-1.39,1,7.17,7.17,0,0,0-1,1.17v11Z" fill="#ef5350"/><path d="M483.22,365.17l.75,2.27a9.35,9.35,0,0,1-2.07.38c-.72.05-1.51.07-2.37.07a4,4,0,0,1,2.64,3.82,4.91,4.91,0,0,1-1.51,3.7,5.78,5.78,0,0,1-4.2,1.45,9.11,9.11,0,0,1-1.27-.07,6.46,6.46,0,0,1-1-.22,2.07,2.07,0,0,0-.57.64,1.78,1.78,0,0,0-.22.83,1.15,1.15,0,0,0,.43.91,2.59,2.59,0,0,0,1.6.36h2.74a6.43,6.43,0,0,1,2.73.55,4.79,4.79,0,0,1,1.92,1.47,3.38,3.38,0,0,1,.7,2.1,3.8,3.8,0,0,1-1.89,3.42,10,10,0,0,1-5.35,1.2,11.74,11.74,0,0,1-3.81-.5,3.56,3.56,0,0,1-2-1.51,5,5,0,0,1-.6-2.55h2.19a2.78,2.78,0,0,0,.35,1.45,2.15,2.15,0,0,0,1.25.86,9.59,9.59,0,0,0,2.61.28,7.93,7.93,0,0,0,3.65-.63,2,2,0,0,0,1.16-1.86,1.76,1.76,0,0,0-1-1.63,4.93,4.93,0,0,0-2.45-.55H475a4.14,4.14,0,0,1-2.89-.86,2.64,2.64,0,0,1-.92-2,3.13,3.13,0,0,1,1.67-2.65,4.45,4.45,0,0,1-2.55-4.19A4.92,4.92,0,0,1,471,369a5.23,5.23,0,0,1,2.13-1.86,6.93,6.93,0,0,1,3.16-.68,23.85,23.85,0,0,0,3.11-.16,10.12,10.12,0,0,0,2.05-.45C482,365.65,482.62,365.43,483.22,365.17Zm-6.91,3.05a3.41,3.41,0,0,0-2.7,1,4,4,0,0,0,0,5,3.46,3.46,0,0,0,2.74,1,3.12,3.12,0,0,0,2.45-.94,3.7,3.7,0,0,0,.85-2.6Q479.66,368.22,476.31,368.22Z" fill="#ef5350"/><path d="M493.33,380.27a5.08,5.08,0,0,0,2.76-.64,2,2,0,0,0,1-1.76,2.57,2.57,0,0,0-.25-1.18,2.31,2.31,0,0,0-1-.92,11.77,11.77,0,0,0-2.39-.81,16.8,16.8,0,0,1-2.73-.9,4.56,4.56,0,0,1-1.8-1.33,3.35,3.35,0,0,1-.64-2.13,3.49,3.49,0,0,1,1.6-3,7.13,7.13,0,0,1,4.16-1.11,9.59,9.59,0,0,1,3.19.49,9.42,9.42,0,0,1,2.31,1.18l-1.07,1.65a8,8,0,0,0-1.89-1,7.45,7.45,0,0,0-2.51-.38,4.39,4.39,0,0,0-2.54.56,1.7,1.7,0,0,0-.75,1.43,1.74,1.74,0,0,0,.37,1.12,3.13,3.13,0,0,0,1.25.78,24.21,24.21,0,0,0,2.42.76,15.17,15.17,0,0,1,2.59.95,4.47,4.47,0,0,1,1.72,1.44,3.92,3.92,0,0,1,.61,2.29,3.74,3.74,0,0,1-.92,2.62,5.29,5.29,0,0,1-2.38,1.45,10.5,10.5,0,0,1-3.09.46,9.16,9.16,0,0,1-3.51-.6,8.94,8.94,0,0,1-2.43-1.45l1.39-1.6a7.4,7.4,0,0,0,2.05,1.19A6.81,6.81,0,0,0,493.33,380.27Z" fill="#ef5350"/><path d="M529.51,366.46a5,5,0,0,1,3.22,1,5.53,5.53,0,0,1,1.74,2.76,14.76,14.76,0,0,1,.53,4.16,12,12,0,0,1-.64,4.08,6.08,6.08,0,0,1-1.94,2.81,5.11,5.11,0,0,1-3.27,1,5,5,0,0,1-4-1.76v7.23l-2.42.3V366.78h2.06l.2,2.12a6,6,0,0,1,2-1.8A5.09,5.09,0,0,1,529.51,366.46Zm-.57,2a3.5,3.5,0,0,0-2.22.75,7.27,7.27,0,0,0-1.57,1.68v7.52a4.4,4.4,0,0,0,1.49,1.39,4,4,0,0,0,2,.51,3.17,3.17,0,0,0,2.84-1.44,8.32,8.32,0,0,0,.95-4.48Q532.41,368.42,528.94,368.41Z" fill="#ef5350"/><path d="M545.79,366.46a5.73,5.73,0,0,1,4.85,2.15,9.26,9.26,0,0,1,1.64,5.75,10.52,10.52,0,0,1-.75,4.1,6.3,6.3,0,0,1-2.2,2.8,6.06,6.06,0,0,1-3.57,1,5.76,5.76,0,0,1-4.87-2.16,9.23,9.23,0,0,1-1.66-5.74,10.59,10.59,0,0,1,.75-4.12,6.21,6.21,0,0,1,2.21-2.8A6.3,6.3,0,0,1,545.79,366.46Zm0,2a3.34,3.34,0,0,0-3,1.45,10.61,10.61,0,0,0,0,8.95,3.71,3.71,0,0,0,5.89,0,8,8,0,0,0,1-4.47,8.15,8.15,0,0,0-1-4.48A3.3,3.3,0,0,0,545.79,368.44Z" fill="#ef5350"/><path d="M569.33,381.18a6.06,6.06,0,0,1-1.89.81,8.64,8.64,0,0,1-2.17.29A5.18,5.18,0,0,1,561.5,381a4.35,4.35,0,0,1-1.33-3.29v-9.05h-3.48v-1.87h3.48v-3.44l2.42-.29v3.73h5.24l-.28,1.87h-5v9a2.59,2.59,0,0,0,.67,1.93,3.11,3.11,0,0,0,2.23.66,6,6,0,0,0,1.57-.2,7.93,7.93,0,0,0,1.34-.52Z" fill="#ef5350"/><path d="M576.47,375.22a5.33,5.33,0,0,0,1.39,3.84,4.33,4.33,0,0,0,3,1.2,6,6,0,0,0,2.1-.35,9.41,9.41,0,0,0,2-1l1.13,1.6a8,8,0,0,1-2.42,1.31,8.35,8.35,0,0,1-2.79.48,6.88,6.88,0,0,1-3.77-1,6.36,6.36,0,0,1-2.36-2.77,10.83,10.83,0,0,1,0-8.22,6.66,6.66,0,0,1,2.31-2.8,6,6,0,0,1,3.5-1,5.58,5.58,0,0,1,4.52,2,8.28,8.28,0,0,1,1.65,5.44c0,.26,0,.51,0,.74s0,.43,0,.59Zm4.12-6.77a3.73,3.73,0,0,0-2.82,1.2,5.65,5.65,0,0,0-1.28,3.7h7.9a5.81,5.81,0,0,0-1.06-3.67A3.39,3.39,0,0,0,580.59,368.45Z" fill="#ef5350"/><path d="M591.85,381.94V366.78h2.06l.19,2.1a6.16,6.16,0,0,1,2.3-1.79,6.55,6.55,0,0,1,2.71-.63,4.1,4.1,0,0,1,3.25,1.18,4.94,4.94,0,0,1,1,3.29v11H601v-9.23a14.08,14.08,0,0,0-.17-2.5,2.2,2.2,0,0,0-.73-1.4,2.64,2.64,0,0,0-1.69-.45,3.77,3.77,0,0,0-1.68.39,5.72,5.72,0,0,0-1.39,1,7.17,7.17,0,0,0-1,1.17v11Z" fill="#ef5350"/><path d="M621.17,381.18a6.1,6.1,0,0,1-1.88.81,8.78,8.78,0,0,1-2.18.29,5.18,5.18,0,0,1-3.77-1.29A4.35,4.35,0,0,1,612,377.7v-9.05h-3.48v-1.87H612v-3.44l2.42-.29v3.73h5.24l-.28,1.87h-5v9a2.63,2.63,0,0,0,.67,1.93,3.11,3.11,0,0,0,2.23.66,6,6,0,0,0,1.57-.2,7.93,7.93,0,0,0,1.34-.52Z" fill="#ef5350"/><path d="M634.09,366.78V380h4.28v1.91H627V380h4.68V368.7h-4.54v-1.92Zm-1.93-7.1a1.71,1.71,0,0,1,1.29.49,1.66,1.66,0,0,1,.48,1.2,1.66,1.66,0,0,1-1.77,1.72,1.68,1.68,0,0,1-1.74-1.72,1.63,1.63,0,0,1,.49-1.2A1.66,1.66,0,0,1,632.16,359.68Z" fill="#ef5350"/><path d="M654.55,378.63a2.33,2.33,0,0,0,.3,1.34,1.78,1.78,0,0,0,.94.61l-.59,1.7a4,4,0,0,1-1.71-.63,2.77,2.77,0,0,1-1.07-1.51,5.27,5.27,0,0,1-2,1.6,6.64,6.64,0,0,1-2.7.54,4.9,4.9,0,0,1-3.59-1.29,4.53,4.53,0,0,1-1.31-3.39,4.09,4.09,0,0,1,1.83-3.6,9.29,9.29,0,0,1,5.29-1.26h2.23v-1.26a2.67,2.67,0,0,0-1-2.33,4.48,4.48,0,0,0-2.66-.68,10.08,10.08,0,0,0-1.75.18,13.61,13.61,0,0,0-2.19.59l-.64-1.83a15.12,15.12,0,0,1,2.62-.73,14,14,0,0,1,2.34-.22,6.06,6.06,0,0,1,4.25,1.33,4.63,4.63,0,0,1,1.42,3.57Zm-6.26,1.8a4.32,4.32,0,0,0,2.14-.57,5,5,0,0,0,1.69-1.57v-3.91h-2.19a5.56,5.56,0,0,0-3.54.87,2.89,2.89,0,0,0-1,2.32C645.36,379.48,646.34,380.43,648.29,380.43Z" fill="#ef5350"/><path d="M666.88,360.67V378.2a1.76,1.76,0,0,0,.7,1.59,3.19,3.19,0,0,0,1.8.47,6.19,6.19,0,0,0,1.31-.14,9.85,9.85,0,0,0,1.24-.39l.65,1.77a8.38,8.38,0,0,1-1.53.54,8.17,8.17,0,0,1-2.07.24,4.77,4.77,0,0,1-3.27-1.12,3.93,3.93,0,0,1-1.25-3.09V362.59h-4.65v-1.92Z" fill="#ef5350"/><path d="M684.16,360.67V378.2a1.76,1.76,0,0,0,.7,1.59,3.16,3.16,0,0,0,1.8.47,6.19,6.19,0,0,0,1.31-.14,9.85,9.85,0,0,0,1.24-.39l.65,1.77a8.38,8.38,0,0,1-1.53.54,8.17,8.17,0,0,1-2.07.24,4.77,4.77,0,0,1-3.27-1.12,3.93,3.93,0,0,1-1.25-3.09V362.59h-4.65v-1.92Z" fill="#ef5350"/><path d="M708.15,366.78,702.82,382a13,13,0,0,1-1.35,2.83,6.88,6.88,0,0,1-2.11,2.12,7.48,7.48,0,0,1-3.31,1.05l-.37-1.93a7.44,7.44,0,0,0,2.48-.8,4.15,4.15,0,0,0,1.43-1.36,9.43,9.43,0,0,0,.93-2h-.81l-5.3-15.16H697l4.35,13.32,4.29-13.32Z" fill="#ef5350"/><path d="M739.05,360.37a10.06,10.06,0,0,1,2.22.22,9.91,9.91,0,0,1,1.89.6l-.78,1.8a7.24,7.24,0,0,0-1.56-.47,8.75,8.75,0,0,0-1.7-.16q-3.18,0-3.18,2.52V368h5.14l-.26,1.9h-4.88v12.08h-2.42V369.86h-3.61V368h3.61v-3a4.09,4.09,0,0,1,.73-2.44,4.65,4.65,0,0,1,2-1.57A6.86,6.86,0,0,1,739.05,360.37Z" fill="#ef5350"/><path d="M755.05,368V380h4.28v1.91H748V380h4.68V369.86h-4.54V368Zm-1.93-7.23a1.75,1.75,0,0,1,1.29.49,1.66,1.66,0,0,1,.48,1.2,1.7,1.7,0,0,1-.48,1.23,1.72,1.72,0,0,1-1.29.5,1.69,1.69,0,0,1-1.74-1.73,1.63,1.63,0,0,1,.49-1.2A1.7,1.7,0,0,1,753.12,360.73Z" fill="#ef5350"/><path d="M766.12,381.94h-2.76l5.6-8-4.91-7.16h2.87l3.51,5.65,3.56-5.65h2.76l-4.89,7.06,5.58,8.1h-3l-4.15-6.5Z" fill="#ef5350"/><path d="M792.79,378.63a2.24,2.24,0,0,0,.31,1.34,1.71,1.71,0,0,0,.93.61l-.59,1.7a4,4,0,0,1-1.71-.63,2.77,2.77,0,0,1-1.07-1.51,5.2,5.2,0,0,1-2,1.6,6.64,6.64,0,0,1-2.7.54,4.9,4.9,0,0,1-3.59-1.29A4.53,4.53,0,0,1,781,377.6a4.09,4.09,0,0,1,1.83-3.6,9.29,9.29,0,0,1,5.29-1.26h2.23v-1.26a2.67,2.67,0,0,0-1-2.33,4.46,4.46,0,0,0-2.65-.68,10.18,10.18,0,0,0-1.76.18,13.9,13.9,0,0,0-2.19.59l-.63-1.83a14.78,14.78,0,0,1,2.61-.73,14,14,0,0,1,2.34-.22,6.06,6.06,0,0,1,4.25,1.33,4.63,4.63,0,0,1,1.42,3.57Zm-6.26,1.8a4.32,4.32,0,0,0,2.14-.57,5,5,0,0,0,1.69-1.57v-3.91h-2.19a5.51,5.51,0,0,0-3.53.87,2.86,2.86,0,0,0-1,2.32C783.61,379.48,784.58,380.43,786.53,380.43Z" fill="#ef5350"/><path d="M801.63,368.75a5.94,5.94,0,0,1,1.93-1.69,4.91,4.91,0,0,1,2.4-.6,5.2,5.2,0,0,1,3.28,1,5.65,5.65,0,0,1,1.83,2.76,13.67,13.67,0,0,1,.57,4.16,11.34,11.34,0,0,1-.68,4.08,6.29,6.29,0,0,1-2,2.81,5.32,5.32,0,0,1-3.3,1,5,5,0,0,1-4.13-1.9l-.18,1.56h-2.11V360.67l2.41-.3Zm3.43,11.57a3.37,3.37,0,0,0,2.93-1.47,8,8,0,0,0,1-4.51q0-5.93-3.57-5.93a3.51,3.51,0,0,0-2.23.75,7.33,7.33,0,0,0-1.58,1.68v7.52a4.55,4.55,0,0,0,1.5,1.43A3.76,3.76,0,0,0,805.06,380.32Z" fill="#ef5350"/><path d="M822.4,360.67V378.2a1.76,1.76,0,0,0,.7,1.59,3.2,3.2,0,0,0,1.81.47,6.16,6.16,0,0,0,1.3-.14,10,10,0,0,0,1.25-.39l.64,1.77a8.38,8.38,0,0,1-1.53.54,8.17,8.17,0,0,1-2.07.24,4.77,4.77,0,0,1-3.27-1.12,3.93,3.93,0,0,1-1.25-3.09V362.59h-4.65v-1.92Z" fill="#ef5350"/><path d="M835.68,375.22a5.29,5.29,0,0,0,1.39,3.84,4.31,4.31,0,0,0,3,1.2,6,6,0,0,0,2.1-.35,9.16,9.16,0,0,0,1.95-1l1.14,1.6a8.17,8.17,0,0,1-2.42,1.31,8.45,8.45,0,0,1-2.8.48,6.84,6.84,0,0,1-3.76-1,6.29,6.29,0,0,1-2.36-2.77,10.71,10.71,0,0,1,0-8.22,6.64,6.64,0,0,1,2.3-2.8,6,6,0,0,1,3.51-1,5.56,5.56,0,0,1,4.51,2,8.28,8.28,0,0,1,1.65,5.44c0,.26,0,.51,0,.74s0,.43,0,.59Zm4.12-6.77a3.74,3.74,0,0,0-2.83,1.2,5.7,5.7,0,0,0-1.28,3.7h7.91a5.81,5.81,0,0,0-1.07-3.67A3.37,3.37,0,0,0,839.8,368.45Z" fill="#ef5350"/><path d="M879.57,381.94h-3.43l-2-11.13-2.13,11.13h-3.34L866,366.78h2.47l1.93,13.67,2.42-11.74h2.87l2.29,11.74,1.93-13.67h2.36Z" fill="#ef5350"/><path d="M893.29,366.78V380h4.28v1.91H886.19V380h4.68V368.7h-4.53v-1.92Zm-1.93-7.1a1.71,1.71,0,0,1,1.29.49,1.66,1.66,0,0,1,.48,1.2,1.66,1.66,0,0,1-1.77,1.72,1.68,1.68,0,0,1-1.74-1.72,1.63,1.63,0,0,1,.49-1.2A1.68,1.68,0,0,1,891.36,359.68Z" fill="#ef5350"/><path d="M914.94,381.18a6.06,6.06,0,0,1-1.89.81,8.7,8.7,0,0,1-2.17.29A5.2,5.2,0,0,1,907.1,381a4.38,4.38,0,0,1-1.32-3.29v-9.05h-3.49v-1.87h3.49v-3.44l2.42-.29v3.73h5.24l-.29,1.87H908.2v9a2.59,2.59,0,0,0,.67,1.93,3.07,3.07,0,0,0,2.22.66,6,6,0,0,0,1.57-.2,7.62,7.62,0,0,0,1.34-.52Z" fill="#ef5350"/><path d="M922.6,360.44v8.41a5.72,5.72,0,0,1,2.19-1.78,6.29,6.29,0,0,1,2.65-.61,4.11,4.11,0,0,1,3.24,1.18,4.89,4.89,0,0,1,1,3.29v11h-2.42V371a2.27,2.27,0,0,0-2.62-2.63,3.6,3.6,0,0,0-1.64.39,5.74,5.74,0,0,0-1.4,1,6.83,6.83,0,0,0-1,1.18v11h-2.42V360.7Z" fill="#ef5350"/><path d="M966.78,381.18a6.06,6.06,0,0,1-1.89.81,8.7,8.7,0,0,1-2.17.29,5.2,5.2,0,0,1-3.78-1.29,4.38,4.38,0,0,1-1.32-3.29v-9.05h-3.49v-1.87h3.49v-3.44l2.42-.29v3.73h5.24l-.29,1.87h-5v9a2.59,2.59,0,0,0,.67,1.93,3.08,3.08,0,0,0,2.22.66,6,6,0,0,0,1.57-.2,7.62,7.62,0,0,0,1.34-.52Z" fill="#ef5350"/><path d="M974.44,360.44v8.41a5.72,5.72,0,0,1,2.19-1.78,6.29,6.29,0,0,1,2.65-.61,4.11,4.11,0,0,1,3.24,1.18,4.89,4.89,0,0,1,1,3.29v11h-2.42V371a2.27,2.27,0,0,0-2.62-2.63,3.6,3.6,0,0,0-1.64.39,5.74,5.74,0,0,0-1.4,1,6.83,6.83,0,0,0-1,1.18v11H972V360.7Z" fill="#ef5350"/><path d="M991.2,375.22a5.33,5.33,0,0,0,1.39,3.84,4.31,4.31,0,0,0,3,1.2,6.1,6.1,0,0,0,2.11-.35,9.35,9.35,0,0,0,1.94-1l1.14,1.6a8.17,8.17,0,0,1-2.42,1.31,8.35,8.35,0,0,1-2.79.48,6.86,6.86,0,0,1-3.77-1,6.29,6.29,0,0,1-2.36-2.77,10.83,10.83,0,0,1,0-8.22,6.64,6.64,0,0,1,2.3-2.8,6,6,0,0,1,3.51-1,5.55,5.55,0,0,1,4.51,2,8.28,8.28,0,0,1,1.65,5.44c0,.26,0,.51,0,.74s0,.43,0,.59Zm4.12-6.77a3.72,3.72,0,0,0-2.82,1.2,5.7,5.7,0,0,0-1.29,3.7h7.91a5.75,5.75,0,0,0-1.07-3.67A3.37,3.37,0,0,0,995.32,368.45Z" fill="#ef5350"/><path d="M1032.1,364l-5.82-2.68,1.29-2.06,5.32,3.4Z" fill="#ef5350"/><path d="M1043.31,374v-2.1h11V374Zm13.47,0v-2.1h11V374Z" fill="#ef5350"/><path d="M1084.66,360.37a10.19,10.19,0,0,1,2.22.22,9.6,9.6,0,0,1,1.88.6L1088,363a7.24,7.24,0,0,0-1.56-.47,8.57,8.57,0,0,0-1.69-.16q-3.18,0-3.18,2.52V368h5.14l-.26,1.9h-4.88v12.08h-2.42V369.86h-3.62V368h3.62v-3a4.16,4.16,0,0,1,.72-2.44,4.77,4.77,0,0,1,2-1.57A6.94,6.94,0,0,1,1084.66,360.37Z" fill="#ef5350"/><path d="M1100.66,368V380h4.27v1.91h-11.37V380h4.68V369.86h-4.54V368Zm-1.93-7.23a1.74,1.74,0,0,1,1.28.49,1.63,1.63,0,0,1,.49,1.2,1.67,1.67,0,0,1-.49,1.23,1.76,1.76,0,0,1-3-1.23,1.67,1.67,0,0,1,.49-1.2A1.74,1.74,0,0,1,1098.73,360.73Z" fill="#ef5350"/><path d="M1111.73,381.94H1109l5.61-8-4.91-7.16h2.86l3.52,5.65,3.55-5.65h2.77l-4.9,7.06,5.59,8.1h-3l-4.15-6.5Z" fill="#ef5350"/><path d="M1135.78,364l-5.82-2.68,1.3-2.06,5.31,3.4Z" fill="#ef5350"/><path d="M1167.88,366.46a5.74,5.74,0,0,1,4.85,2.15,9.26,9.26,0,0,1,1.64,5.75,10.52,10.52,0,0,1-.75,4.1,6.3,6.3,0,0,1-2.2,2.8,6.06,6.06,0,0,1-3.57,1,5.76,5.76,0,0,1-4.87-2.16,9.23,9.23,0,0,1-1.66-5.74,10.59,10.59,0,0,1,.75-4.12,6.21,6.21,0,0,1,2.21-2.8A6.3,6.3,0,0,1,1167.88,366.46Zm0,2a3.34,3.34,0,0,0-3,1.45,10.61,10.61,0,0,0,0,8.95,3.71,3.71,0,0,0,5.89,0,8,8,0,0,0,1-4.47,8.15,8.15,0,0,0-1-4.48A3.3,3.3,0,0,0,1167.88,368.44Z" fill="#ef5350"/><path d="M1186.16,366.46a5,5,0,0,1,3.22,1,5.53,5.53,0,0,1,1.74,2.76,14.76,14.76,0,0,1,.53,4.16,12,12,0,0,1-.64,4.08,6.08,6.08,0,0,1-1.94,2.81,5.11,5.11,0,0,1-3.27,1,5,5,0,0,1-4-1.76v7.23l-2.42.3V366.78h2.06l.2,2.12a6,6,0,0,1,2-1.8A5.09,5.09,0,0,1,1186.16,366.46Zm-.57,2a3.5,3.5,0,0,0-2.22.75,7.27,7.27,0,0,0-1.57,1.68v7.52a4.4,4.4,0,0,0,1.49,1.39,4,4,0,0,0,2,.51,3.18,3.18,0,0,0,2.84-1.44,8.32,8.32,0,0,0,1-4.48Q1189.06,368.42,1185.59,368.41Z" fill="#ef5350"/><path d="M1208.7,381.18a6.06,6.06,0,0,1-1.89.81,8.64,8.64,0,0,1-2.17.29,5.18,5.18,0,0,1-3.77-1.29,4.35,4.35,0,0,1-1.33-3.29v-9.05h-3.48v-1.87h3.48v-3.44l2.42-.29v3.73h5.24l-.28,1.87h-5v9a2.59,2.59,0,0,0,.67,1.93,3.11,3.11,0,0,0,2.23.66,6,6,0,0,0,1.57-.2,7.51,7.51,0,0,0,1.33-.52Z" fill="#ef5350"/><path d="M1221.62,366.78V380h4.27v1.91h-11.37V380h4.68V368.7h-4.54v-1.92Zm-1.93-7.1a1.71,1.71,0,0,1,1.29.49,1.66,1.66,0,0,1,.48,1.2,1.66,1.66,0,0,1-1.77,1.72,1.68,1.68,0,0,1-1.74-1.72,1.63,1.63,0,0,1,.49-1.2A1.66,1.66,0,0,1,1219.69,359.68Z" fill="#ef5350"/><path d="M1237,366.46a5.73,5.73,0,0,1,4.85,2.15,9.26,9.26,0,0,1,1.64,5.75,10.52,10.52,0,0,1-.75,4.1,6.3,6.3,0,0,1-2.2,2.8,6.06,6.06,0,0,1-3.57,1,5.77,5.77,0,0,1-4.87-2.16,9.23,9.23,0,0,1-1.65-5.74,10.59,10.59,0,0,1,.74-4.12,6.21,6.21,0,0,1,2.21-2.8A6.3,6.3,0,0,1,1237,366.46Zm0,2a3.35,3.35,0,0,0-3,1.45,10.61,10.61,0,0,0,0,8.95,3.71,3.71,0,0,0,5.89,0,8,8,0,0,0,1-4.47,8.15,8.15,0,0,0-1-4.48A3.3,3.3,0,0,0,1237,368.44Z" fill="#ef5350"/><path d="M1248.5,381.94V366.78h2.06l.19,2.1a6.16,6.16,0,0,1,2.3-1.79,6.55,6.55,0,0,1,2.71-.63,4.1,4.1,0,0,1,3.25,1.18,4.94,4.94,0,0,1,1,3.29v11h-2.42v-9.23a14.08,14.08,0,0,0-.17-2.5,2.2,2.2,0,0,0-.73-1.4,2.64,2.64,0,0,0-1.69-.45,3.77,3.77,0,0,0-1.68.39,5.72,5.72,0,0,0-1.39,1,7.17,7.17,0,0,0-1,1.17v11Z" fill="#ef5350"/><path d="M1269,379.73a2.47,2.47,0,0,1,.72-1.79,2.41,2.41,0,0,1,1.8-.73,2.54,2.54,0,1,1,0,5.07,2.39,2.39,0,0,1-1.8-.75A2.47,2.47,0,0,1,1269,379.73Z" fill="#ef5350"/></g></g></svg>