<svg width="530" height="281" viewBox="0 0 530 281" fill="none" xmlns="http://www.w3.org/2000/svg">
<g clip-path="url(#clip0_207_3326)">
<rect width="281" height="530" transform="translate(530) rotate(90)" fill="white"/>
<rect x="3.05176e-05" y="0.5" width="530" height="280" fill="#B3E5FC"/>
<path d="M218.203 243.05C217.715 243.538 217.715 244.33 218.203 244.818L226.158 252.773C226.647 253.261 227.438 253.261 227.926 252.773C228.414 252.285 228.414 251.493 227.926 251.005L220.855 243.934L227.926 236.863C228.414 236.375 228.414 235.583 227.926 235.095C227.438 234.607 226.647 234.607 226.158 235.095L218.203 243.05ZM288.915 244.818C289.403 244.33 289.403 243.538 288.915 243.05L280.96 235.095C280.472 234.607 279.68 234.607 279.192 235.095C278.704 235.583 278.704 236.375 279.192 236.863L286.263 243.934L279.192 251.005C278.704 251.493 278.704 252.285 279.192 252.773C279.68 253.261 280.472 253.261 280.96 252.773L288.915 244.818ZM219.087 245.184L288.031 245.184L288.031 242.684L219.087 242.684L219.087 245.184Z" fill="black"/>
<rect x="352.424" y="65.3639" width="80.8057" height="39.4684" rx="3.73793" fill="#0288D1" stroke="white" stroke-width="1.86897"/>
<rect x="292.397" y="169.187" width="80.8057" height="39.4684" rx="3.73793" fill="#0288D1" stroke="white" stroke-width="1.86897"/>
<rect x="412.82" y="169.187" width="80.8057" height="39.4684" rx="3.73793" fill="#0288D1" stroke="white" stroke-width="1.86897"/>
<path d="M390.5 141.306V142.007C390.888 142.007 391.201 141.693 391.201 141.306H390.5ZM390.996 105.044C390.722 104.77 390.279 104.77 390.005 105.044L385.545 109.504C385.271 109.778 385.271 110.221 385.545 110.495C385.818 110.769 386.262 110.769 386.536 110.495L390.5 106.53L394.465 110.495C394.739 110.769 395.183 110.769 395.456 110.495C395.73 110.221 395.73 109.778 395.456 109.504L390.996 105.044ZM332.407 168.253V142.24H331.006V168.253H332.407ZM332.641 142.007H390.5V140.605H332.641V142.007ZM391.201 141.306V105.539H389.8V141.306H391.201ZM332.407 142.24C332.407 142.111 332.512 142.007 332.641 142.007V140.605C331.738 140.605 331.006 141.337 331.006 142.24H332.407Z" fill="black"/>
<path d="M390.579 141.306V142.006C390.192 142.006 389.878 141.693 389.878 141.306H390.579ZM390.083 105.044C390.357 104.77 390.801 104.77 391.074 105.044L395.535 109.504C395.808 109.778 395.808 110.221 395.535 110.495C395.261 110.769 394.817 110.769 394.544 110.495L390.579 106.53L386.614 110.495C386.34 110.769 385.897 110.769 385.623 110.495C385.349 110.221 385.349 109.778 385.623 109.504L390.083 105.044ZM448.672 168.253V142.24H450.074V168.253H448.672ZM448.438 142.006H390.579V140.605H448.438V142.006ZM389.878 141.306V105.539H391.28V141.306H389.878ZM448.672 142.24C448.672 142.111 448.567 142.006 448.438 142.006V140.605C449.342 140.605 450.074 141.337 450.074 142.24H448.672Z" fill="black"/>
<path d="M390.34 76.6604H390.191C389.817 77.707 389.369 78.953 388.845 80.3983C388.347 81.8436 387.824 83.3388 387.275 84.8838C386.752 86.4039 386.254 87.8243 385.78 89.1451L385.593 89.7058C385.444 90.1543 385.257 90.715 385.033 91.3878C384.808 92.0607 384.572 92.7709 384.322 93.5184C384.073 94.2411 383.836 94.9264 383.612 95.5743C383.388 96.1973 383.213 96.7082 383.089 97.1069C382.914 97.1816 382.728 97.2315 382.528 97.2564C382.354 97.3062 382.129 97.3311 381.855 97.3311C381.457 97.3311 381.095 97.2315 380.771 97.0321C380.472 96.8078 380.323 96.459 380.323 95.9855C380.323 95.7612 380.36 95.5369 380.435 95.3127C380.51 95.0635 380.597 94.8018 380.697 94.5277C380.996 93.6804 381.357 92.6463 381.781 91.4252C382.229 90.2042 382.715 88.871 383.238 87.4256C383.762 85.9803 384.31 84.4976 384.883 82.9775C385.456 81.4574 386.017 79.9747 386.565 78.5293C387.113 77.084 387.624 75.7633 388.098 74.5671C388.297 74.4675 388.596 74.3678 388.995 74.2681C389.393 74.1684 389.805 74.1186 390.228 74.1186C390.727 74.1186 391.2 74.1933 391.649 74.3429C392.122 74.4924 392.421 74.7416 392.546 75.0905C393.144 76.5358 393.779 78.1805 394.452 80.0245C395.15 81.8436 395.848 83.75 396.545 85.7436C397.243 87.7122 397.904 89.631 398.527 91.5C399.174 93.3689 399.748 95.0635 400.246 96.5836C400.072 96.8078 399.835 96.9823 399.536 97.1069C399.262 97.2564 398.95 97.3311 398.601 97.3311C398.128 97.3311 397.766 97.2315 397.517 97.0321C397.268 96.8078 397.056 96.4465 396.882 95.9481L394.826 89.8553L394.527 88.8087C394.029 87.2886 393.505 85.756 392.957 84.211C392.434 82.666 391.935 81.2331 391.462 79.9124C391.013 78.5916 390.639 77.5076 390.34 76.6604ZM384.135 90.9767L385.107 88.4722H395.536L396.134 90.9767H384.135Z" fill="white"/>
<path d="M336.649 187.213V189.68H326.369V187.213H336.649ZM332.35 189.68L333.546 187.811C335.241 187.811 336.649 188.097 337.77 188.67C338.891 189.219 339.726 189.954 340.274 190.876C340.848 191.798 341.134 192.832 341.134 193.978C341.134 196.246 340.312 197.928 338.667 199.025C337.047 200.121 334.73 200.669 331.715 200.669C331.042 200.669 330.369 200.644 329.696 200.594C329.023 200.57 328.363 200.507 327.715 200.408C327.067 200.308 326.444 200.183 325.846 200.034C324.799 199.735 324.276 199.162 324.276 198.314V179.176C324.276 178.777 324.376 178.466 324.575 178.242C324.799 178.017 325.111 177.855 325.51 177.756C326.357 177.507 327.254 177.345 328.201 177.27C329.173 177.17 330.207 177.12 331.303 177.12C334.119 177.12 336.312 177.631 337.882 178.653C339.452 179.65 340.237 181.182 340.237 183.25C340.237 184.297 339.975 185.269 339.452 186.166C338.954 187.038 338.131 187.748 336.985 188.297C335.864 188.82 334.356 189.082 332.462 189.082L332.126 187.213C333.77 187.213 335.016 186.876 335.864 186.203C336.711 185.506 337.135 184.546 337.135 183.325C337.135 182.079 336.636 181.157 335.639 180.559C334.668 179.936 333.222 179.625 331.303 179.625C330.456 179.625 329.709 179.662 329.061 179.737C328.413 179.787 327.815 179.861 327.266 179.961V197.754C327.865 197.878 328.55 197.978 329.322 198.053C330.12 198.127 330.917 198.165 331.715 198.165C333.783 198.165 335.353 197.816 336.424 197.118C337.496 196.42 338.032 195.349 338.032 193.904C338.032 192.608 337.546 191.586 336.574 190.838C335.627 190.066 334.219 189.68 332.35 189.68Z" fill="white"/>
<path d="M457.628 180.036C457.628 180.36 457.515 180.659 457.291 180.933C457.092 181.182 456.855 181.369 456.581 181.494C455.958 181.045 455.198 180.621 454.301 180.223C453.429 179.824 452.295 179.625 450.899 179.625C449.379 179.625 448.009 179.974 446.788 180.671C445.591 181.369 444.632 182.416 443.909 183.811C443.212 185.182 442.863 186.889 442.863 188.932C442.863 191.997 443.61 194.302 445.105 195.847C446.626 197.392 448.594 198.165 451.011 198.165C452.307 198.165 453.441 197.978 454.413 197.604C455.385 197.23 456.182 196.807 456.805 196.333C457.054 196.433 457.291 196.62 457.515 196.894C457.74 197.143 457.852 197.442 457.852 197.791C457.852 198.04 457.777 198.289 457.628 198.539C457.503 198.763 457.279 198.987 456.955 199.211C456.382 199.61 455.597 199.959 454.6 200.258C453.603 200.582 452.332 200.744 450.787 200.744C448.719 200.744 446.837 200.308 445.143 199.436C443.473 198.539 442.152 197.218 441.181 195.474C440.209 193.729 439.723 191.549 439.723 188.932C439.723 186.316 440.221 184.123 441.218 182.353C442.24 180.584 443.573 179.263 445.218 178.391C446.887 177.494 448.706 177.046 450.675 177.046C452.046 177.046 453.254 177.195 454.301 177.494C455.347 177.793 456.157 178.179 456.73 178.653C457.328 179.101 457.628 179.562 457.628 180.036Z" fill="white"/>
<rect x="415.561" y="56.4863" width="35.3383" height="15.8862" rx="1.86897" fill="black"/>
<path d="M426.315 61.0291V64.0474H427.941C428.099 64.0474 428.193 64.1409 428.193 64.3371C428.193 64.524 428.099 64.6455 427.941 64.6455H425.857C426.417 65.1968 427.221 65.5987 428.099 65.851C428.268 65.8977 428.342 66.0005 428.342 66.1313C428.342 66.1874 428.333 66.2435 428.314 66.2995C428.258 66.4491 428.146 66.5425 427.997 66.5425C427.941 66.5425 427.894 66.5332 427.838 66.5145C426.8 66.1687 425.726 65.5333 424.988 64.6268H422.689C421.997 65.5333 420.923 66.2154 419.923 66.5425C419.876 66.5612 419.82 66.5705 419.773 66.5705C419.624 66.5705 419.502 66.4958 419.455 66.3556C419.437 66.2995 419.427 66.2528 419.427 66.1967C419.427 66.0659 419.502 65.9444 419.652 65.9071C420.511 65.6547 421.334 65.2062 421.848 64.6455H419.82C419.661 64.6455 419.558 64.524 419.558 64.3371C419.558 64.1409 419.661 64.0474 419.82 64.0474H421.427V61.0291H420.054C419.895 61.0291 419.801 60.9076 419.801 60.7113C419.801 60.5244 419.895 60.4123 420.054 60.4123H421.427V59.8423C421.427 59.646 421.549 59.5806 421.764 59.5806C421.969 59.5806 422.109 59.646 422.109 59.8423V60.4123H425.632V59.8516C425.632 59.6554 425.754 59.5806 425.969 59.5806C426.174 59.5806 426.315 59.6554 426.315 59.8516V60.4123H427.735C427.894 60.4123 427.987 60.5244 427.987 60.7113C427.987 60.9076 427.894 61.0291 427.735 61.0291H426.315ZM422.109 62.2065V62.8419H425.632V62.2065H422.109ZM425.632 61.6645V61.0291H422.109V61.6645H425.632ZM422.109 63.3839V64.0474H425.632V63.3839H422.109ZM424.137 67.3555H427.417C427.576 67.3555 427.679 67.477 427.679 67.6639C427.679 67.8508 427.576 67.9723 427.417 67.9723H420.353C420.194 67.9723 420.091 67.8508 420.091 67.6639C420.091 67.477 420.194 67.3555 420.353 67.3555H423.464V66.3836H421.801C421.642 66.3836 421.558 66.2528 421.558 66.0753C421.558 65.8884 421.642 65.7856 421.801 65.7856H423.464V65.2062C423.464 65.038 423.595 64.9445 423.801 64.9445C424.006 64.9445 424.137 65.038 424.137 65.2062V65.7856H425.922C426.081 65.7856 426.165 65.8884 426.165 66.0753C426.165 66.2528 426.081 66.3836 425.922 66.3836H424.137V67.3555ZM432.445 61.9448H429.342C429.174 61.9448 429.081 61.7953 429.081 61.5991C429.081 61.4122 429.174 61.2627 429.342 61.2627H432.8V59.8703C432.8 59.6834 432.94 59.59 433.155 59.59C433.379 59.59 433.51 59.6834 433.51 59.8703V61.2627H437.08C437.248 61.2627 437.341 61.4028 437.341 61.5991C437.341 61.786 437.248 61.9448 437.08 61.9448H433.837C434.613 63.5054 435.986 64.9819 437.379 65.8043C437.519 65.8884 437.575 66.0285 437.575 66.1594C437.575 66.2435 437.547 66.3276 437.51 66.393C437.426 66.5145 437.304 66.5799 437.183 66.5799C437.098 66.5799 437.014 66.5518 436.93 66.4958C435.603 65.6361 434.192 64.1315 433.417 62.2719C433.482 62.7018 433.51 63.2157 433.51 63.6363V65.6361H435.099C435.267 65.6361 435.36 65.7856 435.36 65.9631C435.36 66.1594 435.267 66.2902 435.099 66.2902H433.51V68.0096C433.51 68.1872 433.379 68.2806 433.155 68.2806C432.94 68.2806 432.8 68.1872 432.8 68.0096V66.2902H431.193C431.024 66.2902 430.922 66.1594 430.922 65.9631C430.922 65.7856 431.024 65.6361 431.193 65.6361H432.8V63.6456C432.8 63.2344 432.819 62.7205 432.884 62.2813C432.136 64.0848 430.763 65.6547 429.52 66.5051C429.426 66.5705 429.324 66.6079 429.23 66.6079C429.118 66.6079 429.015 66.5518 428.931 66.4491C428.875 66.3743 428.847 66.2902 428.847 66.2061C428.847 66.0846 428.912 65.9631 429.034 65.879C430.267 65.066 431.669 63.5895 432.445 61.9448ZM442.154 66.1313H439.463C439.295 66.1313 439.201 65.9818 439.201 65.7949C439.201 65.6174 439.295 65.4772 439.463 65.4772H442.154V64.9726C442.154 64.8044 442.304 64.7109 442.509 64.7109C442.733 64.7109 442.864 64.8044 442.864 64.9726V65.4772H445.686C445.855 65.4772 445.948 65.6174 445.948 65.7949C445.948 65.9818 445.855 66.1313 445.686 66.1313H442.864V67.3088H446.509C446.677 67.3088 446.78 67.4396 446.78 67.6358C446.78 67.8321 446.677 67.9629 446.509 67.9629H438.622C438.444 67.9629 438.341 67.8321 438.341 67.6358C438.341 67.4396 438.444 67.3088 438.622 67.3088H442.154V66.1313ZM441.472 62.5242H440.229C440.182 62.8326 440.136 63.0943 440.07 63.3092C439.874 63.9914 439.537 64.5334 439.089 64.9072C438.986 64.9913 438.883 65.038 438.781 65.038C438.696 65.038 438.612 65.0006 438.547 64.9165C438.482 64.8511 438.453 64.767 438.453 64.6829C438.453 64.5801 438.491 64.4866 438.575 64.4212C439.005 64.0568 439.285 63.5989 439.425 63.1223C439.472 62.9541 439.519 62.7578 439.547 62.5242H438.612C438.444 62.5242 438.351 62.3934 438.351 62.2065C438.351 62.0103 438.444 61.8888 438.612 61.8888H439.603C439.622 61.5804 439.631 61.2253 439.631 60.8141V60.6272H438.846C438.678 60.6272 438.594 60.5057 438.594 60.3188C438.594 60.1226 438.678 60.0011 438.846 60.0011H442.902C443.07 60.0011 443.163 60.1133 443.163 60.3095C443.163 60.4964 443.07 60.6272 442.902 60.6272H442.154V61.8888H443.107C443.275 61.8888 443.36 62.0103 443.36 62.2065C443.36 62.3934 443.275 62.5242 443.107 62.5242H442.154V64.3932C442.154 64.5707 441.995 64.6548 441.78 64.6548C441.575 64.6548 441.472 64.5707 441.472 64.3932V62.5242ZM441.472 60.6272H440.313V60.8515C440.313 61.2346 440.304 61.5804 440.285 61.8888H441.472V60.6272ZM444.472 60.3375V63.2064C444.472 63.3839 444.331 63.4774 444.107 63.4774C443.902 63.4774 443.761 63.3746 443.761 63.2064V60.3282C443.761 60.16 443.902 60.0665 444.107 60.0665C444.331 60.0665 444.472 60.1693 444.472 60.3375ZM445.733 63.8138V59.9731C445.733 59.7862 445.873 59.6927 446.079 59.6927C446.303 59.6927 446.443 59.7862 446.443 59.9731V63.9633C446.443 64.5801 446.144 64.8324 445.415 64.8324C445.107 64.8324 444.78 64.8137 444.537 64.767C444.35 64.7296 444.257 64.6175 444.257 64.4493C444.257 64.4212 444.257 64.3838 444.266 64.3558C444.294 64.1689 444.406 64.0848 444.546 64.0848C444.565 64.0848 444.584 64.0848 444.612 64.0942C444.808 64.1409 445.06 64.1689 445.266 64.1689C445.658 64.1689 445.733 64.1035 445.733 63.8138Z" fill="white"/>
<rect x="355.534" y="160.31" width="35.3383" height="15.8862" rx="1.86897" fill="black"/>
<path d="M362.307 164.46H364.054C364.222 164.46 364.306 164.6 364.306 164.778C364.306 164.965 364.222 165.105 364.054 165.105H359.97C359.802 165.105 359.709 164.965 359.709 164.778C359.709 164.6 359.802 164.46 359.97 164.46H361.578V163.684C361.578 163.507 361.718 163.423 361.933 163.423C362.148 163.423 362.307 163.507 362.307 163.684V164.46ZM362.961 167.039H364.204C364.363 167.039 364.456 167.17 364.456 167.366C364.456 167.553 364.363 167.703 364.204 167.703H359.737C359.569 167.703 359.475 167.553 359.475 167.366C359.475 167.17 359.569 167.039 359.737 167.039H362.288C362.559 166.516 362.774 165.964 362.914 165.497C362.961 165.338 363.064 165.264 363.213 165.264C363.241 165.264 363.279 165.264 363.316 165.273C363.475 165.301 363.587 165.413 363.587 165.572C363.587 165.609 363.578 165.647 363.568 165.693C363.409 166.151 363.194 166.619 362.961 167.039ZM363.914 169.216V171.001C363.914 171.553 363.634 171.786 363.082 171.786H360.896C360.354 171.786 360.064 171.553 360.064 171.001V169.216C360.064 168.665 360.354 168.431 360.896 168.431H363.082C363.634 168.431 363.914 168.665 363.914 169.216ZM361.082 171.141H362.914C363.092 171.141 363.213 171.067 363.213 170.88V169.347C363.213 169.151 363.092 169.076 362.914 169.076H361.082C360.896 169.076 360.774 169.151 360.774 169.347V170.88C360.774 171.067 360.896 171.141 361.082 171.141ZM364.774 171.805V164.497C364.774 163.946 365.026 163.712 365.605 163.712H367.334C367.839 163.712 368.091 163.993 368.091 164.366C368.091 164.488 368.063 164.609 368.016 164.74C367.764 165.422 367.39 166.133 367.007 166.731C366.96 166.805 366.932 166.862 366.932 166.908C366.932 166.955 366.96 167.002 367.016 167.058C367.643 167.712 368.157 168.525 368.157 169.534C368.157 170.515 367.717 170.945 366.876 170.945C366.587 170.945 366.222 170.927 366.007 170.87C365.83 170.824 365.746 170.712 365.746 170.543C365.746 170.506 365.746 170.478 365.755 170.441C365.783 170.272 365.895 170.17 366.045 170.17C366.073 170.17 366.101 170.17 366.129 170.179C366.306 170.216 366.577 170.244 366.783 170.244C367.231 170.244 367.418 170.076 367.418 169.487C367.418 168.74 366.914 167.964 366.344 167.329C366.231 167.207 366.175 167.058 366.175 166.908C366.175 166.777 366.222 166.647 366.306 166.525C366.68 165.983 367.063 165.254 367.259 164.637C367.278 164.581 367.287 164.544 367.287 164.507C367.287 164.404 367.222 164.366 367.091 164.366H365.764C365.587 164.366 365.484 164.423 365.484 164.6V171.805C365.484 172.001 365.344 172.104 365.119 172.104C364.895 172.104 364.774 172.001 364.774 171.805ZM360.578 165.292C360.625 165.273 360.681 165.264 360.718 165.264C360.849 165.264 360.942 165.329 361.008 165.45C361.157 165.721 361.307 166.114 361.4 166.441C361.41 166.478 361.419 166.516 361.419 166.544C361.419 166.693 361.325 166.796 361.167 166.843C361.129 166.852 361.082 166.862 361.045 166.862C360.914 166.862 360.802 166.787 360.755 166.647C360.671 166.357 360.54 165.983 360.41 165.721C360.382 165.665 360.372 165.609 360.372 165.563C360.372 165.441 360.438 165.348 360.578 165.292ZM372.063 167.46H370.895C370.717 167.46 370.614 167.319 370.614 167.123C370.614 166.918 370.717 166.787 370.895 166.787H374.791C375.474 166.787 375.773 167.03 375.773 167.647C375.773 169.011 375.632 170.272 375.417 170.983C375.231 171.609 374.866 171.861 374.203 171.861C373.735 171.861 373.38 171.824 373.091 171.73C372.894 171.674 372.81 171.534 372.81 171.384C372.81 171.347 372.82 171.31 372.829 171.272C372.876 171.085 372.997 170.983 373.147 170.983C373.193 170.983 373.24 170.992 373.287 171.011C373.511 171.085 373.801 171.141 374.09 171.141C374.455 171.141 374.632 171.039 374.735 170.702C374.913 170.123 375.025 168.927 375.025 167.703C375.025 167.497 374.913 167.46 374.707 167.46H372.81C372.661 169.618 371.633 171.067 369.932 171.945C369.839 171.992 369.754 172.011 369.68 172.011C369.558 172.011 369.446 171.945 369.371 171.833C369.325 171.768 369.306 171.693 369.306 171.618C369.306 171.487 369.371 171.356 369.502 171.291C370.091 170.973 370.633 170.618 371.081 170.104C371.717 169.357 371.988 168.422 372.063 167.46ZM374.165 163.563C374.24 163.535 374.296 163.516 374.361 163.516C374.492 163.516 374.595 163.591 374.661 163.731C375.249 165.011 376.249 166.217 377.445 166.983C377.567 167.058 377.623 167.189 377.623 167.31C377.623 167.394 377.604 167.469 377.557 167.534C377.473 167.656 377.352 167.712 377.221 167.712C377.137 167.712 377.043 167.684 376.95 167.618C375.726 166.759 374.614 165.432 373.978 164.039C373.95 163.983 373.941 163.927 373.941 163.871C373.941 163.74 374.025 163.628 374.165 163.563ZM372.165 163.572C372.324 163.638 372.408 163.75 372.408 163.881C372.408 163.927 372.399 163.993 372.371 164.049C371.764 165.413 370.642 166.74 369.455 167.6C369.381 167.665 369.278 167.693 369.184 167.693C369.082 167.693 368.979 167.656 368.904 167.572C368.839 167.506 368.811 167.404 368.811 167.31C368.811 167.189 368.857 167.076 368.951 167.011C370.11 166.226 371.1 165.021 371.651 163.75C371.717 163.6 371.829 163.525 371.969 163.525C372.035 163.525 372.1 163.544 372.165 163.572ZM382.127 169.955H379.436C379.268 169.955 379.174 169.805 379.174 169.618C379.174 169.441 379.268 169.301 379.436 169.301H382.127V168.796C382.127 168.628 382.277 168.534 382.482 168.534C382.706 168.534 382.837 168.628 382.837 168.796V169.301H385.659C385.828 169.301 385.921 169.441 385.921 169.618C385.921 169.805 385.828 169.955 385.659 169.955H382.837V171.132H386.482C386.65 171.132 386.753 171.263 386.753 171.459C386.753 171.655 386.65 171.786 386.482 171.786H378.595C378.417 171.786 378.314 171.655 378.314 171.459C378.314 171.263 378.417 171.132 378.595 171.132H382.127V169.955ZM381.445 166.348H380.202C380.155 166.656 380.109 166.918 380.043 167.133C379.847 167.815 379.51 168.357 379.062 168.731C378.959 168.815 378.856 168.861 378.754 168.861C378.669 168.861 378.585 168.824 378.52 168.74C378.455 168.674 378.426 168.59 378.426 168.506C378.426 168.403 378.464 168.31 378.548 168.245C378.978 167.88 379.258 167.422 379.398 166.946C379.445 166.777 379.492 166.581 379.52 166.348H378.585C378.417 166.348 378.324 166.217 378.324 166.03C378.324 165.834 378.417 165.712 378.585 165.712H379.576C379.595 165.404 379.604 165.049 379.604 164.637V164.451H378.819C378.651 164.451 378.567 164.329 378.567 164.142C378.567 163.946 378.651 163.824 378.819 163.824H382.875C383.043 163.824 383.136 163.937 383.136 164.133C383.136 164.32 383.043 164.451 382.875 164.451H382.127V165.712H383.08C383.248 165.712 383.333 165.834 383.333 166.03C383.333 166.217 383.248 166.348 383.08 166.348H382.127V168.217C382.127 168.394 381.968 168.478 381.753 168.478C381.548 168.478 381.445 168.394 381.445 168.217V166.348ZM381.445 164.451H380.286V164.675C380.286 165.058 380.277 165.404 380.258 165.712H381.445V164.451ZM384.445 164.161V167.03C384.445 167.207 384.304 167.301 384.08 167.301C383.875 167.301 383.734 167.198 383.734 167.03V164.152C383.734 163.983 383.875 163.89 384.08 163.89C384.304 163.89 384.445 163.993 384.445 164.161ZM385.706 167.637V163.796C385.706 163.61 385.846 163.516 386.052 163.516C386.276 163.516 386.416 163.61 386.416 163.796V167.787C386.416 168.403 386.117 168.656 385.388 168.656C385.08 168.656 384.753 168.637 384.51 168.59C384.323 168.553 384.23 168.441 384.23 168.273C384.23 168.245 384.23 168.207 384.239 168.179C384.267 167.992 384.379 167.908 384.519 167.908C384.538 167.908 384.557 167.908 384.585 167.918C384.781 167.964 385.033 167.992 385.239 167.992C385.631 167.992 385.706 167.927 385.706 167.637Z" fill="white"/>
<rect x="474.85" y="167.589" width="35.3383" height="15.8862" rx="1.86897" fill="black"/>
<path d="M481.623 171.739H483.37C483.538 171.739 483.623 171.879 483.623 172.057C483.623 172.244 483.538 172.384 483.37 172.384H479.287C479.118 172.384 479.025 172.244 479.025 172.057C479.025 171.879 479.118 171.739 479.287 171.739H480.894V170.963C480.894 170.786 481.034 170.702 481.249 170.702C481.464 170.702 481.623 170.786 481.623 170.963V171.739ZM482.277 174.318H483.52C483.679 174.318 483.772 174.449 483.772 174.645C483.772 174.832 483.679 174.982 483.52 174.982H479.053C478.885 174.982 478.791 174.832 478.791 174.645C478.791 174.449 478.885 174.318 479.053 174.318H481.604C481.875 173.795 482.09 173.244 482.23 172.776C482.277 172.618 482.38 172.543 482.529 172.543C482.557 172.543 482.595 172.543 482.632 172.552C482.791 172.58 482.903 172.692 482.903 172.851C482.903 172.889 482.894 172.926 482.884 172.973C482.725 173.431 482.51 173.898 482.277 174.318ZM483.23 176.496V178.28C483.23 178.832 482.95 179.065 482.398 179.065H480.212C479.67 179.065 479.38 178.832 479.38 178.28V176.496C479.38 175.944 479.67 175.711 480.212 175.711H482.398C482.95 175.711 483.23 175.944 483.23 176.496ZM480.399 178.421H482.23C482.408 178.421 482.529 178.346 482.529 178.159V176.626C482.529 176.43 482.408 176.355 482.23 176.355H480.399C480.212 176.355 480.09 176.43 480.09 176.626V178.159C480.09 178.346 480.212 178.421 480.399 178.421ZM484.09 179.084V171.776C484.09 171.225 484.342 170.992 484.921 170.992H486.65C487.155 170.992 487.407 171.272 487.407 171.646C487.407 171.767 487.379 171.889 487.332 172.019C487.08 172.702 486.706 173.412 486.323 174.01C486.276 174.085 486.248 174.141 486.248 174.187C486.248 174.234 486.276 174.281 486.333 174.337C486.959 174.991 487.473 175.804 487.473 176.813C487.473 177.795 487.033 178.224 486.192 178.224C485.903 178.224 485.538 178.206 485.323 178.15C485.146 178.103 485.062 177.991 485.062 177.823C485.062 177.785 485.062 177.757 485.071 177.72C485.099 177.552 485.211 177.449 485.361 177.449C485.389 177.449 485.417 177.449 485.445 177.458C485.622 177.496 485.893 177.524 486.099 177.524C486.547 177.524 486.734 177.355 486.734 176.767C486.734 176.019 486.23 175.243 485.66 174.608C485.548 174.486 485.491 174.337 485.491 174.187C485.491 174.057 485.538 173.926 485.622 173.804C485.996 173.262 486.379 172.533 486.575 171.917C486.594 171.861 486.604 171.823 486.604 171.786C486.604 171.683 486.538 171.646 486.407 171.646H485.08C484.903 171.646 484.8 171.702 484.8 171.879V179.084C484.8 179.28 484.66 179.383 484.436 179.383C484.211 179.383 484.09 179.28 484.09 179.084ZM479.894 172.571C479.941 172.552 479.997 172.543 480.034 172.543C480.165 172.543 480.258 172.608 480.324 172.73C480.473 173.001 480.623 173.393 480.716 173.72C480.726 173.758 480.735 173.795 480.735 173.823C480.735 173.973 480.642 174.075 480.483 174.122C480.445 174.131 480.399 174.141 480.361 174.141C480.23 174.141 480.118 174.066 480.071 173.926C479.987 173.636 479.857 173.262 479.726 173.001C479.698 172.945 479.688 172.889 479.688 172.842C479.688 172.72 479.754 172.627 479.894 172.571ZM491.379 174.739H490.211C490.033 174.739 489.93 174.599 489.93 174.402C489.93 174.197 490.033 174.066 490.211 174.066H494.107C494.79 174.066 495.089 174.309 495.089 174.926C495.089 176.29 494.948 177.552 494.734 178.262C494.547 178.888 494.182 179.14 493.519 179.14C493.051 179.14 492.696 179.103 492.407 179.009C492.21 178.953 492.126 178.813 492.126 178.664C492.126 178.626 492.136 178.589 492.145 178.551C492.192 178.365 492.313 178.262 492.463 178.262C492.509 178.262 492.556 178.271 492.603 178.29C492.827 178.365 493.117 178.421 493.407 178.421C493.771 178.421 493.949 178.318 494.051 177.981C494.229 177.402 494.341 176.206 494.341 174.982C494.341 174.776 494.229 174.739 494.023 174.739H492.126C491.977 176.897 490.949 178.346 489.248 179.224C489.155 179.271 489.071 179.29 488.996 179.29C488.874 179.29 488.762 179.224 488.687 179.112C488.641 179.047 488.622 178.972 488.622 178.897C488.622 178.766 488.687 178.636 488.818 178.57C489.407 178.252 489.949 177.897 490.398 177.383C491.033 176.636 491.304 175.701 491.379 174.739ZM493.481 170.842C493.556 170.814 493.612 170.795 493.678 170.795C493.808 170.795 493.911 170.87 493.977 171.01C494.565 172.29 495.565 173.496 496.761 174.262C496.883 174.337 496.939 174.468 496.939 174.589C496.939 174.673 496.92 174.748 496.873 174.814C496.789 174.935 496.668 174.991 496.537 174.991C496.453 174.991 496.36 174.963 496.266 174.898C495.042 174.038 493.93 172.711 493.294 171.319C493.266 171.263 493.257 171.206 493.257 171.15C493.257 171.02 493.341 170.907 493.481 170.842ZM491.482 170.851C491.64 170.917 491.724 171.029 491.724 171.16C491.724 171.206 491.715 171.272 491.687 171.328C491.08 172.692 489.958 174.019 488.772 174.879C488.697 174.944 488.594 174.972 488.501 174.972C488.398 174.972 488.295 174.935 488.22 174.851C488.155 174.786 488.127 174.683 488.127 174.589C488.127 174.468 488.173 174.356 488.267 174.29C489.426 173.505 490.416 172.3 490.968 171.029C491.033 170.879 491.145 170.805 491.285 170.805C491.351 170.805 491.416 170.823 491.482 170.851ZM501.443 177.234H498.752C498.584 177.234 498.49 177.084 498.49 176.897C498.49 176.72 498.584 176.58 498.752 176.58H501.443V176.075C501.443 175.907 501.593 175.813 501.798 175.813C502.022 175.813 502.153 175.907 502.153 176.075V176.58H504.975C505.144 176.58 505.237 176.72 505.237 176.897C505.237 177.084 505.144 177.234 504.975 177.234H502.153V178.411H505.798C505.966 178.411 506.069 178.542 506.069 178.738C506.069 178.935 505.966 179.065 505.798 179.065H497.911C497.733 179.065 497.63 178.935 497.63 178.738C497.63 178.542 497.733 178.411 497.911 178.411H501.443V177.234ZM500.761 173.627H499.518C499.471 173.935 499.425 174.197 499.359 174.412C499.163 175.094 498.827 175.636 498.378 176.01C498.275 176.094 498.172 176.141 498.07 176.141C497.986 176.141 497.901 176.103 497.836 176.019C497.771 175.954 497.743 175.87 497.743 175.785C497.743 175.683 497.78 175.589 497.864 175.524C498.294 175.159 498.574 174.701 498.714 174.225C498.761 174.057 498.808 173.86 498.836 173.627H497.901C497.733 173.627 497.64 173.496 497.64 173.309C497.64 173.113 497.733 172.991 497.901 172.991H498.892C498.911 172.683 498.92 172.328 498.92 171.917V171.73H498.135C497.967 171.73 497.883 171.608 497.883 171.421C497.883 171.225 497.967 171.104 498.135 171.104H502.191C502.359 171.104 502.452 171.216 502.452 171.412C502.452 171.599 502.359 171.73 502.191 171.73H501.443V172.991H502.396C502.564 172.991 502.649 173.113 502.649 173.309C502.649 173.496 502.564 173.627 502.396 173.627H501.443V175.496C501.443 175.673 501.284 175.757 501.069 175.757C500.864 175.757 500.761 175.673 500.761 175.496V173.627ZM500.761 171.73H499.602V171.954C499.602 172.337 499.593 172.683 499.574 172.991H500.761V171.73ZM503.761 171.44V174.309C503.761 174.486 503.62 174.58 503.396 174.58C503.191 174.58 503.05 174.477 503.05 174.309V171.431C503.05 171.263 503.191 171.169 503.396 171.169C503.62 171.169 503.761 171.272 503.761 171.44ZM505.022 174.916V171.076C505.022 170.889 505.162 170.795 505.368 170.795C505.592 170.795 505.732 170.889 505.732 171.076V175.066C505.732 175.683 505.433 175.935 504.704 175.935C504.396 175.935 504.069 175.916 503.826 175.87C503.639 175.832 503.546 175.72 503.546 175.552C503.546 175.524 503.546 175.486 503.555 175.458C503.583 175.271 503.695 175.187 503.835 175.187C503.854 175.187 503.873 175.187 503.901 175.197C504.097 175.243 504.349 175.271 504.555 175.271C504.947 175.271 505.022 175.206 505.022 174.916Z" fill="white"/>
<path d="M348.845 238.197V240.198C348.845 240.865 348.937 240.957 350.432 240.957C351.835 240.957 352.203 240.796 352.364 240.543C352.525 240.29 352.571 239.784 352.594 239.232C352.617 238.887 352.893 238.726 353.284 238.726C353.33 238.726 353.353 238.726 353.376 238.726C353.79 238.749 354.089 238.979 354.089 239.347C354.089 239.37 354.089 239.37 354.089 239.393C354.043 240.359 353.882 241.164 353.56 241.601C353.192 242.107 352.548 242.383 350.616 242.406C350.501 242.406 350.386 242.406 350.271 242.406C349.305 242.406 348.592 242.314 348.086 242.13C347.511 241.923 347.189 241.417 347.189 240.566V233.735C347.189 233.321 347.58 233.114 348.04 233.114C348.523 233.114 348.845 233.321 348.845 233.735V236.587C350.041 236.127 351.536 235.299 352.203 234.724C352.341 234.609 352.502 234.563 352.663 234.563C352.916 234.563 353.169 234.701 353.33 234.908C353.445 235.069 353.491 235.23 353.491 235.391C353.491 235.621 353.376 235.851 353.146 236.012C352.065 236.817 350.34 237.645 348.845 238.197ZM346.614 244.338H350.869C352.157 244.338 352.732 244.821 352.732 246.086V252.066C352.732 253.354 352.157 253.837 350.869 253.837H342.934C341.669 253.837 341.094 253.354 341.094 252.066V246.086C341.094 244.821 341.669 244.338 342.934 244.338H344.866C345.188 243.786 345.51 243.211 345.74 242.659C345.855 242.383 346.131 242.245 346.453 242.245C346.545 242.245 346.637 242.268 346.752 242.291C347.143 242.383 347.373 242.613 347.373 242.866C347.373 242.935 347.35 243.027 347.327 243.096C347.143 243.487 346.867 243.947 346.614 244.338ZM342.75 248.202H351.076V246.385C351.076 245.948 350.869 245.81 350.455 245.81H343.371C342.957 245.81 342.75 245.948 342.75 246.385V248.202ZM342.75 249.674V251.744C342.75 252.181 342.957 252.319 343.371 252.319H350.455C350.869 252.319 351.076 252.181 351.076 251.744V249.674H342.75ZM342.635 237.599V240.98C343.693 240.704 344.751 240.405 345.556 240.129C345.671 240.083 345.763 240.06 345.855 240.06C346.154 240.06 346.407 240.244 346.476 240.566C346.499 240.658 346.522 240.727 346.522 240.819C346.522 241.118 346.361 241.371 345.993 241.532C344.475 242.107 342.129 242.705 340.381 243.05C340.335 243.05 340.289 243.05 340.243 243.05C339.898 243.05 339.645 242.797 339.576 242.383C339.553 242.314 339.553 242.245 339.553 242.199C339.553 241.831 339.737 241.555 340.082 241.486C340.381 241.44 340.703 241.394 341.025 241.325V233.735C341.025 233.321 341.37 233.114 341.83 233.114C342.359 233.114 342.635 233.321 342.635 233.735V236.035H345.832C346.223 236.035 346.453 236.357 346.453 236.817C346.453 237.277 346.223 237.599 345.832 237.599H342.635ZM335.367 233.528H338.564C339.553 233.528 340.151 234.08 340.151 235C340.151 235.23 340.105 235.483 340.036 235.759C339.599 237.254 338.748 239.232 338.035 240.474C337.966 240.589 337.92 240.704 337.92 240.819C337.92 240.957 337.966 241.095 338.104 241.256C339.07 242.567 339.99 244.315 339.99 246.316C339.99 248.501 338.909 249.352 337.575 249.352C336.954 249.352 336.517 249.306 336.057 249.168C335.781 249.076 335.551 248.8 335.551 248.432C335.551 248.34 335.551 248.271 335.574 248.179C335.666 247.788 335.965 247.558 336.264 247.558C336.333 247.558 336.402 247.558 336.448 247.581C336.724 247.673 337.023 247.719 337.368 247.719C337.92 247.719 338.311 247.42 338.311 246.086C338.311 244.614 337.506 242.981 336.54 241.739C336.31 241.44 336.195 241.164 336.195 240.888C336.195 240.658 336.264 240.405 336.425 240.129C337.138 238.864 337.897 237.001 338.288 235.782C338.334 235.667 338.357 235.552 338.357 235.46C338.357 235.23 338.219 235.115 337.851 235.115H335.85C335.413 235.115 335.206 235.253 335.206 235.713V253.584C335.206 254.044 334.907 254.274 334.355 254.274C333.826 254.274 333.504 254.044 333.504 253.584V235.368C333.504 234.034 334.125 233.528 335.367 233.528ZM374.099 238.22H371.523C371.592 238.22 371.684 238.243 371.776 238.266C372.144 238.381 372.351 238.611 372.351 238.841C372.351 238.933 372.328 239.048 372.259 239.14C372.121 239.324 371.937 239.577 371.753 239.807H374.053C375.134 239.807 375.686 240.29 375.686 241.417V244.775C375.686 245.902 375.134 246.385 374.053 246.385H362.53C361.449 246.385 360.897 245.902 360.897 244.775V241.417C360.897 240.29 361.449 239.807 362.53 239.807H364.508C364.347 239.6 364.209 239.393 364.048 239.186C363.956 239.071 363.91 238.956 363.91 238.841C363.91 238.634 364.048 238.427 364.347 238.312C364.462 238.266 364.554 238.243 364.669 238.22H359.517C359.494 241.325 359.448 244.43 359.011 247.374C358.712 249.467 358.16 251.905 357.447 253.4C357.24 253.837 356.964 254.044 356.619 254.044C356.481 254.044 356.32 253.998 356.159 253.929C355.837 253.768 355.653 253.538 355.653 253.216C355.653 253.032 355.722 252.802 355.837 252.526C356.481 251.077 357.125 248.777 357.378 246.592C357.677 243.947 357.838 241.141 357.838 236.518C357.838 236.219 357.838 235.897 357.838 235.575C357.838 234.241 358.528 233.62 359.954 233.62H374.03C375.364 233.62 376.008 234.034 376.008 235.299V236.587C376.008 237.852 375.341 238.22 374.099 238.22ZM371.293 238.22H364.922C365.129 238.266 365.313 238.381 365.474 238.611C365.658 238.864 365.957 239.324 366.256 239.807H370.005C370.304 239.416 370.511 239.025 370.695 238.68C370.81 238.404 370.994 238.243 371.293 238.22ZM362.461 242.452H367.429V241.026H363.128C362.691 241.026 362.461 241.164 362.461 241.578V242.452ZM374.099 242.452V241.578C374.099 241.164 373.869 241.026 373.432 241.026H368.947V242.452H374.099ZM368.947 245.166H373.432C373.869 245.166 374.099 245.051 374.099 244.614V243.648H368.947V245.166ZM362.461 243.648V244.614C362.461 245.051 362.691 245.166 363.128 245.166H367.429V243.648H362.461ZM359.54 236.863H373.708C374.168 236.863 374.375 236.748 374.375 236.265V235.621C374.375 235.138 374.168 235.069 373.708 235.069H360.368C359.701 235.069 359.54 235.161 359.54 235.736V236.863ZM363.473 247.351H372.719C373.938 247.351 374.536 247.834 374.536 249.007V252.319C374.536 253.538 373.938 254.021 372.719 254.021H363.473C362.277 254.021 361.679 253.538 361.679 252.319V249.007C361.679 247.834 362.254 247.351 363.473 247.351ZM363.289 250.019H372.926V249.168C372.926 248.754 372.742 248.662 372.328 248.662H363.887C363.496 248.662 363.289 248.754 363.289 249.168V250.019ZM363.289 251.238V252.158C363.289 252.572 363.496 252.687 363.887 252.687H372.328C372.742 252.687 372.926 252.572 372.926 252.158V251.238H363.289ZM396.892 238.013H391.142C390.567 239.163 389.923 240.244 389.256 241.049C389.072 241.279 388.819 241.371 388.566 241.371C388.336 241.371 388.083 241.279 387.922 241.141C387.761 240.98 387.669 240.773 387.669 240.543C387.669 240.313 387.738 240.083 387.922 239.899C389.141 238.473 390.337 235.943 390.912 233.597C391.027 233.16 391.349 232.999 391.717 232.999C391.809 232.999 391.901 232.999 391.993 233.022C392.361 233.091 392.637 233.367 392.637 233.758C392.637 233.85 392.637 233.919 392.614 234.011C392.407 234.77 392.154 235.529 391.878 236.311H397.421C398.847 236.311 399.468 236.932 399.468 238.358C399.468 238.519 399.468 238.68 399.468 238.818C399.468 245.442 398.985 249.605 398.249 251.928C397.766 253.446 396.754 253.975 395.098 253.975C394.109 253.975 393.028 253.837 392.246 253.63C391.878 253.538 391.694 253.216 391.694 252.825C391.694 252.733 391.717 252.618 391.74 252.503C391.855 252.089 392.154 251.882 392.499 251.882C392.591 251.882 392.683 251.905 392.775 251.928C393.35 252.112 394.109 252.227 394.96 252.227C395.949 252.227 396.409 251.997 396.685 250.962C397.237 248.961 397.651 244.844 397.651 238.726C397.651 238.174 397.421 238.013 396.892 238.013ZM383.828 236.357H385.277C386.588 236.357 387.209 236.863 387.209 238.151V250.824C387.209 252.135 386.565 252.687 385.277 252.687H381.298C379.987 252.687 379.343 252.135 379.343 250.824V238.151C379.343 236.863 379.964 236.357 381.298 236.357H382.08C382.448 235.414 382.724 234.402 382.931 233.551C383.023 233.206 383.299 233.022 383.69 233.022C383.782 233.022 383.897 233.022 383.989 233.045C384.472 233.137 384.679 233.367 384.679 233.735C384.679 233.804 384.679 233.873 384.656 233.919C384.449 234.701 384.15 235.621 383.828 236.357ZM381.091 243.349H385.461V238.542C385.461 238.036 385.231 237.921 384.794 237.921H381.781C381.321 237.921 381.091 238.036 381.091 238.542V243.349ZM381.091 244.89V250.456C381.091 250.985 381.321 251.1 381.781 251.1H384.794C385.231 251.1 385.461 250.985 385.461 250.456V244.89H381.091ZM390.498 241.256C390.682 241.141 390.912 241.072 391.119 241.072C391.326 241.072 391.533 241.141 391.694 241.348C392.844 242.728 393.948 244.683 394.638 246.155C394.707 246.293 394.73 246.431 394.73 246.569C394.73 246.891 394.569 247.19 394.247 247.351C394.086 247.42 393.902 247.466 393.741 247.466C393.442 247.466 393.143 247.305 392.982 246.937C392.407 245.626 391.372 243.694 390.337 242.36C390.222 242.199 390.153 242.038 390.153 241.854C390.153 241.624 390.268 241.394 390.498 241.256ZM416.626 236.702C418.374 237.369 420.214 238.358 421.502 239.232C421.824 239.439 421.962 239.784 421.962 240.083C421.962 240.267 421.916 240.451 421.824 240.612C421.64 240.888 421.341 241.049 421.042 241.049C420.835 241.049 420.651 240.98 420.467 240.865C419.11 239.922 417.385 239.025 415.66 238.335C415.361 238.22 415.223 237.944 415.223 237.645C415.223 237.461 415.269 237.277 415.361 237.116C415.568 236.794 415.867 236.633 416.212 236.633C416.35 236.633 416.488 236.656 416.626 236.702ZM408.737 239.232C407.633 242.843 406.138 246.477 404.413 249.49C404.183 249.881 403.884 250.088 403.562 250.088C403.355 250.088 403.148 250.019 402.918 249.881C402.619 249.697 402.481 249.421 402.481 249.122C402.481 248.915 402.55 248.662 402.688 248.432C404.275 245.741 405.816 242.452 406.759 239.347C405.908 239.393 405.011 239.416 404.114 239.416C403.838 239.416 403.539 239.416 403.24 239.416C402.711 239.416 402.435 239.071 402.435 238.519C402.435 237.967 402.757 237.622 403.286 237.622C403.608 237.622 403.93 237.622 404.275 237.622C405.264 237.622 406.299 237.599 407.288 237.553C407.61 236.426 407.886 235.276 408.116 234.103C408.162 233.597 408.507 233.344 408.967 233.344C409.036 233.344 409.105 233.344 409.197 233.367C409.703 233.459 410.002 233.712 410.002 234.172C410.002 234.264 410.002 234.356 409.979 234.471C409.772 235.414 409.542 236.403 409.289 237.392C410.416 237.3 411.497 237.208 412.463 237.07C412.532 237.047 412.601 237.047 412.67 237.047C413.13 237.047 413.406 237.323 413.498 237.806C413.498 237.852 413.498 237.898 413.498 237.944C413.498 238.381 413.222 238.726 412.67 238.818C411.474 239.002 410.117 239.117 408.737 239.232ZM417.5 247.052C419.041 247.788 420.674 248.869 421.824 250.019C422.054 250.249 422.169 250.525 422.169 250.778C422.169 251.008 422.077 251.238 421.916 251.422C421.709 251.629 421.479 251.744 421.249 251.744C421.019 251.744 420.766 251.629 420.559 251.445C419.662 250.548 418.535 249.605 417.569 249.053C417.615 249.329 417.615 249.628 417.615 249.835C417.5 252.342 415.89 253.515 412.762 253.515C409.887 253.515 407.978 251.997 407.978 249.835C407.978 247.627 409.933 246.04 412.785 246.04C413.751 246.04 414.694 246.178 415.637 246.431C415.499 245.143 415.384 243.326 415.384 241.831C415.384 241.164 415.775 240.888 416.281 240.888C416.833 240.888 417.224 241.187 417.224 241.831C417.224 243.809 417.316 245.419 417.5 247.052ZM415.775 248.271C414.855 247.857 413.82 247.673 412.831 247.673C410.968 247.673 409.795 248.547 409.795 249.812C409.795 251.077 410.922 251.79 412.808 251.79C414.763 251.79 415.821 251.054 415.821 249.421C415.821 249.053 415.821 248.731 415.775 248.271ZM431.806 247.42H429.759C428.333 247.42 427.666 246.891 427.666 245.465V235.759C427.666 234.287 428.333 233.735 429.759 233.735H440.845C442.294 233.735 442.938 234.287 442.938 235.759V245.465C442.938 246.891 442.294 247.42 440.845 247.42H438.292V251.422C438.292 252.158 438.499 252.273 440.638 252.273C443.007 252.273 443.375 252.089 443.628 251.606C443.812 251.261 443.996 250.41 444.065 249.628C444.111 249.076 444.387 248.846 444.824 248.846C444.893 248.846 444.939 248.846 445.008 248.869C445.56 248.915 445.813 249.191 445.813 249.628C445.813 249.651 445.813 249.674 445.813 249.697C445.744 250.709 445.468 251.836 445.169 252.48C444.732 253.469 444.019 253.883 440.799 253.883C437.073 253.883 436.498 253.561 436.498 251.951V247.42H433.646C433.163 251.468 430.426 253.538 426.033 254.435C425.941 254.458 425.849 254.458 425.78 254.458C425.343 254.458 424.998 254.251 424.883 253.768C424.86 253.653 424.837 253.561 424.837 253.469C424.837 253.032 425.09 252.71 425.527 252.664C429.253 251.997 431.392 250.456 431.806 247.42ZM441.19 237.76V235.943C441.19 235.46 440.96 235.322 440.5 235.322H430.104C429.621 235.322 429.414 235.46 429.414 235.943V237.76H441.19ZM441.19 241.739V239.301H429.414V241.739H441.19ZM441.19 243.28H429.414V245.281C429.414 245.764 429.621 245.902 430.104 245.902H440.5C440.96 245.902 441.19 245.764 441.19 245.281V243.28ZM455.266 238.496H448.619C448.182 238.496 447.929 238.105 447.929 237.622C447.929 237.116 448.182 236.725 448.619 236.725H457.244V233.781C457.244 233.344 457.658 233.114 458.187 233.114C458.716 233.114 459.13 233.344 459.13 233.781V236.725H468.054C468.491 236.725 468.721 237.139 468.721 237.622C468.721 238.105 468.491 238.496 468.054 238.496H457.221C457.152 239.508 457.083 240.543 456.945 241.555H463.661C465.087 241.555 465.731 242.13 465.731 243.533C465.731 246.799 465.133 250.387 464.581 251.882C464.075 253.308 463.178 253.837 461.499 253.837C460.51 253.837 459.521 253.745 458.693 253.561C458.256 253.492 458.003 253.17 458.003 252.733C458.003 252.641 458.003 252.549 458.049 252.457C458.141 251.997 458.417 251.744 458.808 251.744C458.9 251.744 458.992 251.767 459.107 251.79C459.705 251.905 460.579 252.043 461.292 252.043C462.373 252.043 462.741 251.767 462.971 250.962C463.362 249.582 463.891 246.707 463.891 243.947C463.891 243.441 463.638 243.303 463.132 243.303H456.646C455.565 248.547 453.15 251.491 449.378 253.768C449.171 253.883 448.941 253.952 448.734 253.952C448.458 253.952 448.182 253.837 448.021 253.584C447.883 253.4 447.814 253.17 447.814 252.963C447.814 252.664 447.952 252.388 448.251 252.227C452.782 249.674 455.105 245.557 455.266 238.496Z" fill="black"/>
<circle cx="118.28" cy="121.385" r="96.4024" fill="#0288D1" stroke="white" stroke-width="1.94752"/>
<circle cx="142.875" cy="156.825" r="53.2913" fill="#0288D1" stroke="white" stroke-width="1.94752"/>
<circle cx="55.1663" cy="131.843" r="32.1823" fill="#0288D1" stroke="white" stroke-width="1.94752"/>
<path d="M114.037 45.7418H113.907C113.583 46.6506 113.193 47.7326 112.739 48.9876C112.306 50.2427 111.851 51.541 111.375 52.8827C110.921 54.2027 110.488 55.4361 110.077 56.583L109.915 57.0699C109.785 57.4594 109.623 57.9462 109.428 58.5305C109.233 59.1148 109.028 59.7315 108.811 60.3806C108.595 61.0082 108.389 61.6033 108.194 62.1659C108 62.7069 107.848 63.1505 107.74 63.4967C107.589 63.5616 107.426 63.6049 107.253 63.6265C107.102 63.6698 106.907 63.6914 106.669 63.6914C106.323 63.6914 106.009 63.6049 105.728 63.4318C105.468 63.237 105.338 62.9341 105.338 62.5229C105.338 62.3282 105.371 62.1334 105.435 61.9387C105.5 61.7223 105.576 61.4951 105.663 61.257C105.922 60.5213 106.236 59.6233 106.604 58.563C106.993 57.5026 107.415 56.3449 107.87 55.0899C108.324 53.8348 108.8 52.5473 109.298 51.2273C109.796 49.9073 110.283 48.6198 110.759 47.3647C111.235 46.1096 111.678 44.9627 112.09 43.9241C112.263 43.8375 112.522 43.7509 112.869 43.6644C113.215 43.5778 113.572 43.5346 113.94 43.5346C114.372 43.5346 114.784 43.5995 115.173 43.7293C115.584 43.8591 115.844 44.0755 115.952 44.3785C116.471 45.6336 117.023 47.0617 117.607 48.663C118.213 50.2427 118.819 51.8981 119.425 53.6292C120.031 55.3387 120.605 57.0049 121.145 58.6279C121.708 60.2508 122.206 61.7223 122.639 63.0423C122.487 63.237 122.282 63.3885 122.022 63.4967C121.784 63.6265 121.513 63.6914 121.21 63.6914C120.799 63.6914 120.485 63.6049 120.269 63.4318C120.053 63.237 119.869 62.9232 119.717 62.4905L117.932 57.1997L117.672 56.2908C117.24 54.9709 116.785 53.64 116.309 52.2984C115.855 50.9568 115.422 49.7125 115.011 48.5657C114.621 47.4188 114.297 46.4775 114.037 45.7418ZM108.649 58.1734L109.493 55.9987H118.549L119.068 58.1734H108.649Z" fill="white"/>
<path d="M150.896 146.098C150.896 146.379 150.799 146.639 150.604 146.877C150.431 147.093 150.226 147.255 149.988 147.364C149.447 146.974 148.787 146.606 148.008 146.26C147.25 145.914 146.266 145.741 145.054 145.741C143.734 145.741 142.544 146.044 141.483 146.65C140.445 147.255 139.612 148.164 138.984 149.376C138.378 150.566 138.075 152.049 138.075 153.823C138.075 156.485 138.724 158.486 140.023 159.828C141.343 161.169 143.052 161.84 145.151 161.84C146.276 161.84 147.261 161.678 148.105 161.353C148.949 161.029 149.641 160.661 150.182 160.25C150.399 160.336 150.604 160.499 150.799 160.737C150.994 160.953 151.091 161.213 151.091 161.516C151.091 161.732 151.026 161.948 150.896 162.165C150.788 162.36 150.593 162.554 150.312 162.749C149.814 163.095 149.133 163.398 148.267 163.658C147.402 163.939 146.298 164.08 144.956 164.08C143.16 164.08 141.527 163.701 140.055 162.944C138.605 162.165 137.459 161.018 136.615 159.503C135.771 157.988 135.349 156.095 135.349 153.823C135.349 151.551 135.781 149.647 136.647 148.11C137.534 146.574 138.692 145.427 140.12 144.67C141.57 143.891 143.15 143.501 144.859 143.501C146.049 143.501 147.099 143.631 148.008 143.891C148.916 144.15 149.62 144.486 150.117 144.897C150.637 145.286 150.896 145.687 150.896 146.098Z" fill="white"/>
<path d="M59.3459 123.057V125.199H50.4197V123.057H59.3459ZM55.6131 125.199L56.6518 123.576C58.1233 123.576 59.3459 123.825 60.3196 124.323C61.2934 124.799 62.0183 125.437 62.4944 126.238C62.9921 127.038 63.2409 127.936 63.2409 128.932C63.2409 130.901 62.5268 132.362 61.0987 133.314C59.6921 134.266 57.6797 134.742 55.0613 134.742C54.4771 134.742 53.8928 134.72 53.3086 134.677C52.7243 134.655 52.1509 134.601 51.5882 134.515C51.0256 134.428 50.4847 134.32 49.9653 134.19C49.0565 133.93 48.602 133.433 48.602 132.697V116.078C48.602 115.732 48.6886 115.461 48.8617 115.267C49.0565 115.072 49.327 114.931 49.6732 114.845C50.4089 114.628 51.1879 114.488 52.0102 114.423C52.8541 114.336 53.7522 114.293 54.7043 114.293C57.1495 114.293 59.0538 114.737 60.417 115.624C61.7803 116.489 62.4619 117.82 62.4619 119.616C62.4619 120.525 62.2347 121.369 61.7803 122.148C61.3475 122.905 60.6334 123.522 59.638 123.998C58.6643 124.453 57.3551 124.68 55.7105 124.68L55.4184 123.057C56.8466 123.057 57.9285 122.765 58.6643 122.18C59.4 121.575 59.7679 120.741 59.7679 119.681C59.7679 118.599 59.3351 117.798 58.4695 117.279C57.6256 116.738 56.3705 116.468 54.7043 116.468C53.9686 116.468 53.3194 116.5 52.7568 116.565C52.1941 116.608 51.6748 116.673 51.1987 116.76V132.21C51.7181 132.318 52.3132 132.405 52.984 132.47C53.6764 132.535 54.3689 132.567 55.0613 132.567C56.8574 132.567 58.2207 132.264 59.1511 131.658C60.0816 131.052 60.5469 130.122 60.5469 128.867C60.5469 127.742 60.1249 126.854 59.281 126.205C58.4587 125.534 57.2361 125.199 55.6131 125.199Z" fill="white"/>
<rect x="97.0595" y="66.4296" width="33.0403" height="14.8531" rx="1.74743" fill="black"/>
<path d="M107.114 71.3922V74.2143H108.634C108.783 74.2143 108.87 74.3017 108.87 74.4852C108.87 74.6599 108.783 74.7735 108.634 74.7735H106.686C107.21 75.289 107.962 75.6647 108.783 75.9006C108.94 75.9443 109.01 76.0404 109.01 76.1627C109.01 76.2151 109.001 76.2675 108.984 76.32C108.931 76.4597 108.827 76.5471 108.687 76.5471C108.634 76.5471 108.591 76.5384 108.538 76.5209C107.568 76.1976 106.564 75.6035 105.873 74.756H103.724C103.078 75.6035 102.073 76.2413 101.138 76.5471C101.094 76.5646 101.042 76.5733 100.998 76.5733C100.858 76.5733 100.745 76.5034 100.701 76.3724C100.684 76.32 100.675 76.2763 100.675 76.2238C100.675 76.1015 100.745 75.9879 100.885 75.953C101.688 75.7171 102.457 75.2977 102.938 74.7735H101.042C100.893 74.7735 100.797 74.6599 100.797 74.4852C100.797 74.3017 100.893 74.2143 101.042 74.2143H102.545V71.3922H101.26C101.112 71.3922 101.024 71.2786 101.024 71.0951C101.024 70.9204 101.112 70.8156 101.26 70.8156H102.545V70.2826C102.545 70.0991 102.658 70.038 102.859 70.038C103.051 70.038 103.182 70.0991 103.182 70.2826V70.8156H106.476V70.2913C106.476 70.1079 106.59 70.038 106.791 70.038C106.983 70.038 107.114 70.1079 107.114 70.2913V70.8156H108.442C108.591 70.8156 108.678 70.9204 108.678 71.0951C108.678 71.2786 108.591 71.3922 108.442 71.3922H107.114ZM103.182 72.4931V73.0872H106.476V72.4931H103.182ZM106.476 71.9863V71.3922H103.182V71.9863H106.476ZM103.182 73.594V74.2143H106.476V73.594H103.182ZM105.078 77.3072H108.145C108.294 77.3072 108.39 77.4208 108.39 77.5956C108.39 77.7703 108.294 77.8839 108.145 77.8839H101.54C101.391 77.8839 101.295 77.7703 101.295 77.5956C101.295 77.4208 101.391 77.3072 101.54 77.3072H104.449V76.3986H102.894C102.746 76.3986 102.667 76.2763 102.667 76.1103C102.667 75.9355 102.746 75.8394 102.894 75.8394H104.449V75.2977C104.449 75.1404 104.572 75.0531 104.764 75.0531C104.956 75.0531 105.078 75.1404 105.078 75.2977V75.8394H106.747C106.896 75.8394 106.974 75.9355 106.974 76.1103C106.974 76.2763 106.896 76.3986 106.747 76.3986H105.078V77.3072ZM112.846 72.2484H109.945C109.788 72.2484 109.7 72.1087 109.7 71.9252C109.7 71.7504 109.788 71.6106 109.945 71.6106H113.178V70.3088C113.178 70.1341 113.309 70.0467 113.51 70.0467C113.719 70.0467 113.842 70.1341 113.842 70.3088V71.6106H117.179C117.337 71.6106 117.424 71.7417 117.424 71.9252C117.424 72.0999 117.337 72.2484 117.179 72.2484H114.148C114.873 73.7075 116.157 75.088 117.459 75.8569C117.59 75.9355 117.642 76.0666 117.642 76.1889C117.642 76.2675 117.616 76.3462 117.581 76.4073C117.503 76.5209 117.389 76.5821 117.275 76.5821C117.197 76.5821 117.118 76.5559 117.04 76.5034C115.799 75.6996 114.48 74.2929 113.754 72.5542C113.816 72.9562 113.842 73.4367 113.842 73.8299V75.6996H115.327C115.484 75.6996 115.572 75.8394 115.572 76.0054C115.572 76.1889 115.484 76.3112 115.327 76.3112H113.842V77.9188C113.842 78.0849 113.719 78.1722 113.51 78.1722C113.309 78.1722 113.178 78.0849 113.178 77.9188V76.3112H111.675C111.518 76.3112 111.422 76.1889 111.422 76.0054C111.422 75.8394 111.518 75.6996 111.675 75.6996H113.178V73.8386C113.178 73.4542 113.195 72.9736 113.256 72.563C112.557 74.2493 111.273 75.7171 110.111 76.5122C110.024 76.5733 109.928 76.6083 109.84 76.6083C109.735 76.6083 109.639 76.5559 109.561 76.4597C109.508 76.3898 109.482 76.3112 109.482 76.2326C109.482 76.119 109.543 76.0054 109.657 75.9268C110.81 75.1666 112.121 73.7862 112.846 72.2484ZM121.924 76.1627H119.407C119.25 76.1627 119.163 76.0229 119.163 75.8481C119.163 75.6821 119.25 75.5511 119.407 75.5511H121.924V75.0793C121.924 74.922 122.063 74.8346 122.256 74.8346C122.465 74.8346 122.588 74.922 122.588 75.0793V75.5511H125.226C125.383 75.5511 125.471 75.6821 125.471 75.8481C125.471 76.0229 125.383 76.1627 125.226 76.1627H122.588V77.2636H125.995C126.152 77.2636 126.248 77.3859 126.248 77.5694C126.248 77.7528 126.152 77.8752 125.995 77.8752H118.621C118.455 77.8752 118.359 77.7528 118.359 77.5694C118.359 77.3859 118.455 77.2636 118.621 77.2636H121.924V76.1627ZM121.286 72.7902H120.124C120.08 73.0785 120.036 73.3231 119.975 73.5241C119.792 74.1619 119.477 74.6686 119.058 75.0181C118.962 75.0968 118.866 75.1404 118.769 75.1404C118.691 75.1404 118.612 75.1055 118.551 75.0269C118.49 74.9657 118.464 74.8871 118.464 74.8084C118.464 74.7123 118.499 74.6249 118.577 74.5638C118.979 74.223 119.241 73.7949 119.372 73.3493C119.416 73.1921 119.46 73.0086 119.486 72.7902H118.612C118.455 72.7902 118.368 72.6678 118.368 72.4931C118.368 72.3096 118.455 72.196 118.612 72.196H119.538C119.556 71.9077 119.565 71.5757 119.565 71.1913V71.0165H118.831C118.673 71.0165 118.595 70.9029 118.595 70.7282C118.595 70.5447 118.673 70.4311 118.831 70.4311H122.623C122.78 70.4311 122.867 70.536 122.867 70.7195C122.867 70.8942 122.78 71.0165 122.623 71.0165H121.924V72.196H122.815C122.972 72.196 123.051 72.3096 123.051 72.4931C123.051 72.6678 122.972 72.7902 122.815 72.7902H121.924V74.5376C121.924 74.7036 121.775 74.7822 121.574 74.7822C121.382 74.7822 121.286 74.7036 121.286 74.5376V72.7902ZM121.286 71.0165H120.202V71.2262C120.202 71.5844 120.194 71.9077 120.176 72.196H121.286V71.0165ZM124.09 70.7457V73.428C124.09 73.594 123.959 73.6813 123.75 73.6813C123.557 73.6813 123.426 73.5852 123.426 73.428V70.7369C123.426 70.5797 123.557 70.4923 123.75 70.4923C123.959 70.4923 124.09 70.5884 124.09 70.7457ZM125.27 73.9959V70.4049C125.27 70.2302 125.401 70.1428 125.593 70.1428C125.803 70.1428 125.934 70.2302 125.934 70.4049V74.1357C125.934 74.7123 125.654 74.9482 124.973 74.9482C124.685 74.9482 124.379 74.9307 124.152 74.8871C123.977 74.8521 123.889 74.7473 123.889 74.59C123.889 74.5638 123.889 74.5288 123.898 74.5026C123.924 74.3279 124.029 74.2493 124.16 74.2493C124.178 74.2493 124.195 74.2493 124.221 74.258C124.405 74.3017 124.641 74.3279 124.833 74.3279C125.2 74.3279 125.27 74.2667 125.27 73.9959Z" fill="white"/>
<rect x="126.355" y="169.292" width="33.0403" height="14.8531" rx="1.74743" fill="black"/>
<path d="M132.687 173.887H134.321C134.478 173.887 134.557 174.018 134.557 174.184C134.557 174.359 134.478 174.49 134.321 174.49H130.503C130.346 174.49 130.258 174.359 130.258 174.184C130.258 174.018 130.346 173.887 130.503 173.887H132.006V173.162C132.006 172.996 132.137 172.918 132.338 172.918C132.539 172.918 132.687 172.996 132.687 173.162V173.887ZM133.299 176.299H134.461C134.609 176.299 134.697 176.421 134.697 176.605C134.697 176.779 134.609 176.919 134.461 176.919H130.284C130.127 176.919 130.04 176.779 130.04 176.605C130.04 176.421 130.127 176.299 130.284 176.299H132.67C132.923 175.81 133.124 175.294 133.255 174.857C133.299 174.709 133.395 174.639 133.535 174.639C133.561 174.639 133.596 174.639 133.631 174.648C133.779 174.674 133.884 174.779 133.884 174.927C133.884 174.962 133.875 174.997 133.867 175.041C133.718 175.469 133.517 175.906 133.299 176.299ZM134.19 178.335V180.003C134.19 180.519 133.928 180.737 133.412 180.737H131.368C130.861 180.737 130.59 180.519 130.59 180.003V178.335C130.59 177.819 130.861 177.601 131.368 177.601H133.412C133.928 177.601 134.19 177.819 134.19 178.335ZM131.543 180.134H133.255C133.421 180.134 133.535 180.065 133.535 179.89V178.457C133.535 178.273 133.421 178.204 133.255 178.204H131.543C131.368 178.204 131.254 178.273 131.254 178.457V179.89C131.254 180.065 131.368 180.134 131.543 180.134ZM134.994 180.755V173.922C134.994 173.407 135.23 173.188 135.771 173.188H137.388C137.86 173.188 138.095 173.451 138.095 173.8C138.095 173.914 138.069 174.027 138.026 174.15C137.79 174.787 137.44 175.451 137.082 176.011C137.038 176.08 137.012 176.133 137.012 176.177C137.012 176.22 137.038 176.264 137.091 176.316C137.676 176.928 138.157 177.688 138.157 178.632C138.157 179.549 137.746 179.951 136.96 179.951C136.689 179.951 136.348 179.934 136.147 179.881C135.981 179.837 135.902 179.733 135.902 179.575C135.902 179.54 135.902 179.514 135.911 179.479C135.937 179.322 136.042 179.226 136.182 179.226C136.208 179.226 136.234 179.226 136.261 179.235C136.427 179.27 136.68 179.296 136.872 179.296C137.292 179.296 137.466 179.138 137.466 178.588C137.466 177.889 136.995 177.164 136.462 176.57C136.357 176.456 136.304 176.316 136.304 176.177C136.304 176.054 136.348 175.932 136.427 175.818C136.776 175.312 137.134 174.63 137.318 174.053C137.335 174.001 137.344 173.966 137.344 173.931C137.344 173.835 137.283 173.8 137.161 173.8H135.92C135.754 173.8 135.658 173.852 135.658 174.018V180.755C135.658 180.938 135.527 181.034 135.317 181.034C135.107 181.034 134.994 180.938 134.994 180.755ZM131.071 174.665C131.114 174.648 131.167 174.639 131.202 174.639C131.324 174.639 131.412 174.7 131.473 174.814C131.613 175.067 131.752 175.434 131.84 175.74C131.848 175.775 131.857 175.81 131.857 175.836C131.857 175.976 131.77 176.072 131.621 176.115C131.586 176.124 131.543 176.133 131.508 176.133C131.385 176.133 131.281 176.063 131.237 175.932C131.158 175.661 131.036 175.312 130.914 175.067C130.887 175.015 130.879 174.962 130.879 174.918C130.879 174.805 130.94 174.717 131.071 174.665ZM141.809 176.692H140.717C140.551 176.692 140.454 176.561 140.454 176.378C140.454 176.185 140.551 176.063 140.717 176.063H144.36C144.998 176.063 145.277 176.29 145.277 176.867C145.277 178.142 145.146 179.322 144.945 179.986C144.771 180.571 144.43 180.807 143.81 180.807C143.373 180.807 143.041 180.772 142.77 180.685C142.586 180.632 142.508 180.501 142.508 180.362C142.508 180.327 142.516 180.292 142.525 180.257C142.569 180.082 142.682 179.986 142.822 179.986C142.866 179.986 142.91 179.995 142.953 180.012C143.163 180.082 143.434 180.134 143.705 180.134C144.045 180.134 144.211 180.038 144.308 179.724C144.474 179.182 144.578 178.064 144.578 176.919C144.578 176.727 144.474 176.692 144.281 176.692H142.508C142.368 178.71 141.407 180.065 139.817 180.886C139.729 180.93 139.651 180.947 139.581 180.947C139.467 180.947 139.362 180.886 139.292 180.781C139.249 180.72 139.231 180.65 139.231 180.58C139.231 180.458 139.292 180.335 139.415 180.274C139.965 179.977 140.472 179.645 140.891 179.165C141.485 178.466 141.739 177.592 141.809 176.692ZM143.775 173.049C143.844 173.022 143.897 173.005 143.958 173.005C144.08 173.005 144.177 173.075 144.238 173.206C144.788 174.403 145.723 175.53 146.841 176.246C146.955 176.316 147.007 176.439 147.007 176.552C147.007 176.631 146.99 176.701 146.946 176.762C146.868 176.876 146.754 176.928 146.632 176.928C146.553 176.928 146.466 176.902 146.378 176.841C145.234 176.037 144.194 174.796 143.6 173.494C143.574 173.442 143.565 173.389 143.565 173.337C143.565 173.215 143.644 173.11 143.775 173.049ZM141.905 173.057C142.053 173.119 142.132 173.223 142.132 173.346C142.132 173.389 142.123 173.451 142.097 173.503C141.529 174.779 140.481 176.019 139.371 176.823C139.301 176.884 139.205 176.91 139.118 176.91C139.022 176.91 138.925 176.876 138.856 176.797C138.794 176.736 138.768 176.64 138.768 176.552C138.768 176.439 138.812 176.334 138.899 176.273C139.983 175.539 140.909 174.412 141.424 173.223C141.485 173.084 141.59 173.014 141.721 173.014C141.783 173.014 141.844 173.031 141.905 173.057ZM151.219 179.025H148.702C148.545 179.025 148.458 178.885 148.458 178.71C148.458 178.544 148.545 178.413 148.702 178.413H151.219V177.941C151.219 177.784 151.358 177.697 151.551 177.697C151.76 177.697 151.883 177.784 151.883 177.941V178.413H154.521C154.679 178.413 154.766 178.544 154.766 178.71C154.766 178.885 154.679 179.025 154.521 179.025H151.883V180.126H155.29C155.447 180.126 155.544 180.248 155.544 180.432C155.544 180.615 155.447 180.737 155.29 180.737H147.916C147.75 180.737 147.654 180.615 147.654 180.432C147.654 180.248 147.75 180.126 147.916 180.126H151.219V179.025ZM150.581 175.652H149.419C149.375 175.941 149.331 176.185 149.27 176.386C149.087 177.024 148.772 177.531 148.353 177.88C148.257 177.959 148.161 178.003 148.065 178.003C147.986 178.003 147.907 177.968 147.846 177.889C147.785 177.828 147.759 177.749 147.759 177.671C147.759 177.575 147.794 177.487 147.872 177.426C148.274 177.085 148.536 176.657 148.667 176.212C148.711 176.054 148.755 175.871 148.781 175.652H147.907C147.75 175.652 147.663 175.53 147.663 175.355C147.663 175.172 147.75 175.058 147.907 175.058H148.833C148.851 174.77 148.86 174.438 148.86 174.053V173.879H148.126C147.968 173.879 147.89 173.765 147.89 173.59C147.89 173.407 147.968 173.293 148.126 173.293H151.918C152.075 173.293 152.162 173.398 152.162 173.582C152.162 173.756 152.075 173.879 151.918 173.879H151.219V175.058H152.11C152.267 175.058 152.346 175.172 152.346 175.355C152.346 175.53 152.267 175.652 152.11 175.652H151.219V177.4C151.219 177.566 151.07 177.644 150.869 177.644C150.677 177.644 150.581 177.566 150.581 177.4V175.652ZM150.581 173.879H149.497V174.088C149.497 174.447 149.489 174.77 149.471 175.058H150.581V173.879ZM153.385 173.608V176.29C153.385 176.456 153.254 176.544 153.045 176.544C152.852 176.544 152.721 176.447 152.721 176.29V173.599C152.721 173.442 152.852 173.354 153.045 173.354C153.254 173.354 153.385 173.451 153.385 173.608ZM154.565 176.858V173.267C154.565 173.092 154.696 173.005 154.888 173.005C155.098 173.005 155.229 173.092 155.229 173.267V176.998C155.229 177.575 154.949 177.81 154.268 177.81C153.98 177.81 153.674 177.793 153.447 177.749C153.272 177.714 153.184 177.609 153.184 177.452C153.184 177.426 153.184 177.391 153.193 177.365C153.219 177.19 153.324 177.111 153.455 177.111C153.473 177.111 153.49 177.111 153.516 177.12C153.7 177.164 153.936 177.19 154.128 177.19C154.495 177.19 154.565 177.129 154.565 176.858Z" fill="white"/>
<rect x="38.6461" y="139.321" width="33.0403" height="14.8531" rx="1.74743" fill="black"/>
<path d="M44.9788 143.916H46.6126C46.7699 143.916 46.8485 144.048 46.8485 144.214C46.8485 144.388 46.7699 144.519 46.6126 144.519H42.7945C42.6372 144.519 42.5499 144.388 42.5499 144.214C42.5499 144.048 42.6372 143.916 42.7945 143.916H44.2973V143.191C44.2973 143.025 44.4283 142.947 44.6293 142.947C44.8302 142.947 44.9788 143.025 44.9788 143.191V143.916ZM45.5904 146.328H46.7524C46.9009 146.328 46.9883 146.45 46.9883 146.634C46.9883 146.808 46.9009 146.948 46.7524 146.948H42.5761C42.4188 146.948 42.3314 146.808 42.3314 146.634C42.3314 146.45 42.4188 146.328 42.5761 146.328H44.9613C45.2147 145.839 45.4156 145.323 45.5467 144.886C45.5904 144.738 45.6865 144.668 45.8263 144.668C45.8525 144.668 45.8874 144.668 45.9224 144.677C46.0709 144.703 46.1758 144.808 46.1758 144.956C46.1758 144.991 46.167 145.026 46.1583 145.07C46.0098 145.498 45.8088 145.935 45.5904 146.328ZM46.4816 148.364V150.032C46.4816 150.548 46.2195 150.766 45.704 150.766H43.6595C43.1527 150.766 42.8819 150.548 42.8819 150.032V148.364C42.8819 147.848 43.1527 147.63 43.6595 147.63H45.704C46.2195 147.63 46.4816 147.848 46.4816 148.364ZM43.8342 150.164H45.5467C45.7127 150.164 45.8263 150.094 45.8263 149.919V148.486C45.8263 148.303 45.7127 148.233 45.5467 148.233H43.8342C43.6595 148.233 43.5459 148.303 43.5459 148.486V149.919C43.5459 150.094 43.6595 150.164 43.8342 150.164ZM47.2854 150.784V143.951C47.2854 143.436 47.5213 143.218 48.063 143.218H49.6794C50.1512 143.218 50.3871 143.48 50.3871 143.829C50.3871 143.943 50.3608 144.056 50.3172 144.179C50.0813 144.816 49.7318 145.48 49.3736 146.04C49.3299 146.11 49.3037 146.162 49.3037 146.206C49.3037 146.249 49.3299 146.293 49.3823 146.345C49.9677 146.957 50.4482 147.717 50.4482 148.661C50.4482 149.578 50.0376 149.98 49.2512 149.98C48.9804 149.98 48.6396 149.963 48.4387 149.91C48.2727 149.866 48.194 149.762 48.194 149.604C48.194 149.569 48.194 149.543 48.2028 149.508C48.229 149.351 48.3338 149.255 48.4736 149.255C48.4998 149.255 48.5261 149.255 48.5523 149.264C48.7183 149.299 48.9716 149.325 49.1639 149.325C49.5832 149.325 49.758 149.167 49.758 148.617C49.758 147.918 49.2862 147.193 48.7532 146.599C48.6484 146.485 48.5959 146.345 48.5959 146.206C48.5959 146.083 48.6396 145.961 48.7183 145.847C49.0678 145.341 49.426 144.659 49.6095 144.082C49.6269 144.03 49.6357 143.995 49.6357 143.96C49.6357 143.864 49.5745 143.829 49.4522 143.829H48.2115C48.0455 143.829 47.9494 143.882 47.9494 144.048V150.784C47.9494 150.967 47.8183 151.063 47.6087 151.063C47.399 151.063 47.2854 150.967 47.2854 150.784ZM43.3624 144.694C43.4061 144.677 43.4585 144.668 43.4935 144.668C43.6158 144.668 43.7032 144.729 43.7643 144.843C43.9041 145.096 44.0439 145.463 44.1313 145.769C44.14 145.804 44.1488 145.839 44.1488 145.865C44.1488 146.005 44.0614 146.101 43.9128 146.144C43.8779 146.153 43.8342 146.162 43.7993 146.162C43.6769 146.162 43.5721 146.092 43.5284 145.961C43.4498 145.69 43.3275 145.341 43.2051 145.096C43.1789 145.044 43.1702 144.991 43.1702 144.947C43.1702 144.834 43.2314 144.747 43.3624 144.694ZM54.1003 146.721H53.0082C52.8422 146.721 52.7461 146.59 52.7461 146.407C52.7461 146.214 52.8422 146.092 53.0082 146.092H56.6516C57.2894 146.092 57.569 146.319 57.569 146.896C57.569 148.171 57.4379 149.351 57.237 150.015C57.0622 150.6 56.7215 150.836 56.1011 150.836C55.6643 150.836 55.3323 150.801 55.0614 150.714C54.8779 150.662 54.7993 150.53 54.7993 150.391C54.7993 150.356 54.808 150.321 54.8168 150.286C54.8605 150.111 54.9741 150.015 55.1138 150.015C55.1575 150.015 55.2012 150.024 55.2449 150.041C55.4546 150.111 55.7254 150.164 55.9963 150.164C56.337 150.164 56.503 150.067 56.5992 149.753C56.7652 149.211 56.87 148.093 56.87 146.948C56.87 146.756 56.7652 146.721 56.5729 146.721H54.7993C54.6595 148.739 53.6984 150.094 52.1083 150.915C52.0209 150.959 51.9423 150.976 51.8724 150.976C51.7588 150.976 51.6539 150.915 51.584 150.81C51.5404 150.749 51.5229 150.679 51.5229 150.609C51.5229 150.487 51.584 150.364 51.7064 150.303C52.2568 150.006 52.7636 149.674 53.1829 149.194C53.7771 148.495 54.0304 147.621 54.1003 146.721ZM56.0662 143.078C56.1361 143.052 56.1885 143.034 56.2497 143.034C56.372 143.034 56.4681 143.104 56.5293 143.235C57.0797 144.432 58.0146 145.559 59.1329 146.276C59.2465 146.345 59.2989 146.468 59.2989 146.581C59.2989 146.66 59.2815 146.73 59.2378 146.791C59.1591 146.905 59.0456 146.957 58.9232 146.957C58.8446 146.957 58.7572 146.931 58.6699 146.87C57.5253 146.066 56.4856 144.825 55.8914 143.523C55.8652 143.471 55.8565 143.418 55.8565 143.366C55.8565 143.244 55.9351 143.139 56.0662 143.078ZM54.1964 143.086C54.345 143.148 54.4236 143.252 54.4236 143.375C54.4236 143.418 54.4149 143.48 54.3887 143.532C53.8208 144.808 52.7723 146.048 51.6627 146.852C51.5928 146.913 51.4967 146.94 51.4093 146.94C51.3132 146.94 51.2171 146.905 51.1472 146.826C51.086 146.765 51.0598 146.669 51.0598 146.581C51.0598 146.468 51.1035 146.363 51.1909 146.302C52.2743 145.568 53.2004 144.441 53.7159 143.252C53.7771 143.113 53.8819 143.043 54.013 143.043C54.0741 143.043 54.1353 143.06 54.1964 143.086ZM63.5102 149.054H60.9939C60.8367 149.054 60.7493 148.914 60.7493 148.739C60.7493 148.573 60.8367 148.442 60.9939 148.442H63.5102V147.971C63.5102 147.813 63.65 147.726 63.8422 147.726C64.0519 147.726 64.1742 147.813 64.1742 147.971V148.442H66.8129C66.9701 148.442 67.0575 148.573 67.0575 148.739C67.0575 148.914 66.9701 149.054 66.8129 149.054H64.1742V150.155H67.5817C67.739 150.155 67.8351 150.277 67.8351 150.461C67.8351 150.644 67.739 150.766 67.5817 150.766H60.2076C60.0416 150.766 59.9455 150.644 59.9455 150.461C59.9455 150.277 60.0416 150.155 60.2076 150.155H63.5102V149.054ZM62.8724 145.681H61.7104C61.6667 145.97 61.623 146.214 61.5618 146.415C61.3784 147.053 61.0638 147.56 60.6444 147.909C60.5483 147.988 60.4522 148.032 60.3561 148.032C60.2775 148.032 60.1989 147.997 60.1377 147.918C60.0765 147.857 60.0503 147.778 60.0503 147.7C60.0503 147.604 60.0853 147.516 60.1639 147.455C60.5658 147.114 60.8279 146.686 60.959 146.241C61.0027 146.083 61.0464 145.9 61.0726 145.681H60.1989C60.0416 145.681 59.9542 145.559 59.9542 145.384C59.9542 145.201 60.0416 145.087 60.1989 145.087H61.125C61.1425 144.799 61.1512 144.467 61.1512 144.082V143.908H60.4173C60.26 143.908 60.1814 143.794 60.1814 143.619C60.1814 143.436 60.26 143.322 60.4173 143.322H64.2092C64.3665 143.322 64.4538 143.427 64.4538 143.611C64.4538 143.785 64.3665 143.908 64.2092 143.908H63.5102V145.087H64.4014C64.5587 145.087 64.6373 145.201 64.6373 145.384C64.6373 145.559 64.5587 145.681 64.4014 145.681H63.5102V147.429C63.5102 147.595 63.3617 147.673 63.1607 147.673C62.9685 147.673 62.8724 147.595 62.8724 147.429V145.681ZM62.8724 143.908H61.789V144.117C61.789 144.476 61.7803 144.799 61.7628 145.087H62.8724V143.908ZM65.677 143.637V146.319C65.677 146.485 65.546 146.573 65.3363 146.573C65.1441 146.573 65.013 146.476 65.013 146.319V143.628C65.013 143.471 65.1441 143.384 65.3363 143.384C65.546 143.384 65.677 143.48 65.677 143.637ZM66.8565 146.887V143.296C66.8565 143.121 66.9876 143.034 67.1798 143.034C67.3895 143.034 67.5206 143.121 67.5206 143.296V147.027C67.5206 147.604 67.241 147.839 66.5595 147.839C66.2712 147.839 65.9654 147.822 65.7382 147.778C65.5635 147.743 65.4761 147.639 65.4761 147.481C65.4761 147.455 65.4761 147.42 65.4848 147.394C65.511 147.219 65.6159 147.14 65.7469 147.14C65.7644 147.14 65.7819 147.14 65.8081 147.149C65.9916 147.193 66.2275 147.219 66.4197 147.219C66.7866 147.219 66.8565 147.158 66.8565 146.887Z" fill="white"/>
<path d="M61.4697 245.741V247.259H70.6007C70.9917 247.259 71.2217 247.512 71.2217 247.972C71.2217 248.409 70.9917 248.731 70.6007 248.731H62.8957C64.9427 250.525 67.7947 251.744 70.7157 252.273C71.1527 252.342 71.3597 252.641 71.3597 253.032C71.3597 253.124 71.3367 253.216 71.3137 253.308C71.1987 253.768 70.9457 253.998 70.5547 253.998C70.4397 253.998 70.3477 253.975 70.2327 253.952C66.9437 253.216 63.7007 251.698 61.3547 249.26C61.4007 249.835 61.4697 250.617 61.4697 251.215V253.883C61.4697 254.297 61.1477 254.573 60.6187 254.573C60.0667 254.573 59.8137 254.274 59.8137 253.86V251.215C59.8137 250.663 59.8827 249.881 59.9517 249.26C57.6287 251.767 54.6157 253.101 51.3727 253.975C51.2577 253.998 51.1657 254.021 51.0737 254.021C50.6827 254.021 50.3837 253.791 50.2917 253.377C50.2687 253.262 50.2457 253.17 50.2457 253.055C50.2457 252.687 50.4297 252.411 50.8667 252.319C53.6267 251.698 56.3407 250.571 58.4337 248.731H50.8667C50.4757 248.731 50.2457 248.409 50.2457 247.972C50.2457 247.535 50.4757 247.259 50.8667 247.259H59.8137V245.741H54.8917C53.6267 245.741 53.0747 245.235 53.0747 244.016V240.451C53.0747 239.784 53.1207 238.956 53.2357 238.243C52.7067 238.864 52.1547 239.37 51.5337 239.899C51.3497 240.06 51.1427 240.129 50.9357 240.129C50.7057 240.129 50.4987 240.037 50.3147 239.853C50.1537 239.692 50.0847 239.531 50.0617 239.347C50.0617 239.324 50.0617 239.301 50.0617 239.278C50.0617 239.048 50.1997 238.795 50.4527 238.588C52.1777 237.254 53.8797 235.276 54.8917 233.344C55.0757 233.022 55.3287 232.861 55.6737 232.861C55.7887 232.861 55.9267 232.884 56.0647 232.93C56.4327 233.045 56.6167 233.275 56.6167 233.551C56.6167 233.689 56.5707 233.85 56.4787 233.988C56.2717 234.31 55.9727 234.793 55.5587 235.322C55.9957 235.253 56.4557 235.23 56.8467 235.23H60.5497C60.9867 234.563 61.4007 233.873 61.6537 233.321C61.8147 233.022 62.0677 232.907 62.3667 232.907C62.4817 232.907 62.5967 232.93 62.7347 232.953C63.1257 233.022 63.3327 233.252 63.3327 233.505C63.3327 233.597 63.3097 233.689 63.2637 233.781C63.0337 234.264 62.7117 234.77 62.3897 235.23H69.5887C70.0027 235.23 70.1867 235.506 70.1867 235.943C70.1867 236.334 70.0027 236.633 69.5887 236.633H61.9757V238.312H68.5767C68.9217 238.312 69.1057 238.588 69.1057 238.956C69.1057 239.347 68.9217 239.6 68.5767 239.6H61.9757V241.302H68.5537C68.9217 241.302 69.1057 241.555 69.1057 241.946C69.1057 242.314 68.9217 242.59 68.5537 242.59H61.9757V244.384H69.6117C70.0027 244.384 70.2097 244.637 70.2097 245.051C70.2097 245.465 70.0027 245.741 69.6117 245.741H61.4697ZM54.7307 238.312H60.3657V236.633H55.4207C54.9837 236.633 54.7307 236.771 54.7307 237.208V238.312ZM54.7307 239.6V241.302H60.3657V239.6H54.7307ZM54.7307 242.59V243.786C54.7307 244.246 54.9837 244.384 55.4207 244.384H60.3657V242.59H54.7307ZM82.3997 233.712C82.6987 233.344 83.2277 233.16 83.7337 233.16C84.2397 233.16 84.7457 233.344 85.0447 233.712C87.5057 236.909 90.5877 239.071 94.1297 240.75C94.4977 240.911 94.6817 241.233 94.6817 241.578C94.6817 241.716 94.6587 241.877 94.5897 242.038C94.4287 242.383 94.0837 242.613 93.7157 242.613C93.5777 242.613 93.4167 242.59 93.2787 242.521C89.5527 240.635 86.1487 237.944 84.0327 235.161C83.9177 235.023 83.8257 234.954 83.7337 234.954C83.6417 234.954 83.5497 235.023 83.4577 235.138C81.3877 237.967 77.8457 240.865 74.3037 242.521C74.1657 242.59 74.0047 242.636 73.8667 242.636C73.5217 242.636 73.2227 242.452 73.0387 242.084C72.9697 241.946 72.9467 241.808 72.9467 241.67C72.9467 241.325 73.1537 240.98 73.5217 240.819C77.1097 239.117 80.1457 236.702 82.3997 233.712ZM79.1337 240.313H88.4487C88.8627 240.313 89.1157 240.704 89.1157 241.164C89.1157 241.647 88.8627 242.015 88.4487 242.015H79.1337C78.6967 242.015 78.4667 241.647 78.4667 241.164C78.4667 240.704 78.6967 240.313 79.1337 240.313ZM78.3057 244.591H89.2997C90.7027 244.591 91.3467 245.189 91.3467 246.569V251.629C91.3467 253.032 90.7027 253.607 89.2997 253.607H78.3057C76.9027 253.607 76.2587 253.032 76.2587 251.629V246.569C76.2587 245.189 76.9027 244.591 78.3057 244.591ZM78.8117 251.951H88.7707C89.2537 251.951 89.5067 251.813 89.5067 251.307V246.891C89.5067 246.385 89.2537 246.247 88.7707 246.247H78.8117C78.3287 246.247 78.0987 246.385 78.0987 246.891V251.307C78.0987 251.813 78.3287 251.951 78.8117 251.951ZM114.347 238.013H108.597C108.022 239.163 107.378 240.244 106.711 241.049C106.527 241.279 106.274 241.371 106.021 241.371C105.791 241.371 105.538 241.279 105.377 241.141C105.216 240.98 105.124 240.773 105.124 240.543C105.124 240.313 105.193 240.083 105.377 239.899C106.596 238.473 107.792 235.943 108.367 233.597C108.482 233.16 108.804 232.999 109.172 232.999C109.264 232.999 109.356 232.999 109.448 233.022C109.816 233.091 110.092 233.367 110.092 233.758C110.092 233.85 110.092 233.919 110.069 234.011C109.862 234.77 109.609 235.529 109.333 236.311H114.876C116.302 236.311 116.923 236.932 116.923 238.358C116.923 238.519 116.923 238.68 116.923 238.818C116.923 245.442 116.44 249.605 115.704 251.928C115.221 253.446 114.209 253.975 112.553 253.975C111.564 253.975 110.483 253.837 109.701 253.63C109.333 253.538 109.149 253.216 109.149 252.825C109.149 252.733 109.172 252.618 109.195 252.503C109.31 252.089 109.609 251.882 109.954 251.882C110.046 251.882 110.138 251.905 110.23 251.928C110.805 252.112 111.564 252.227 112.415 252.227C113.404 252.227 113.864 251.997 114.14 250.962C114.692 248.961 115.106 244.844 115.106 238.726C115.106 238.174 114.876 238.013 114.347 238.013ZM101.283 236.357H102.732C104.043 236.357 104.664 236.863 104.664 238.151V250.824C104.664 252.135 104.02 252.687 102.732 252.687H98.7527C97.4417 252.687 96.7977 252.135 96.7977 250.824V238.151C96.7977 236.863 97.4187 236.357 98.7527 236.357H99.5347C99.9027 235.414 100.179 234.402 100.386 233.551C100.478 233.206 100.754 233.022 101.145 233.022C101.237 233.022 101.352 233.022 101.444 233.045C101.927 233.137 102.134 233.367 102.134 233.735C102.134 233.804 102.134 233.873 102.111 233.919C101.904 234.701 101.605 235.621 101.283 236.357ZM98.5457 243.349H102.916V238.542C102.916 238.036 102.686 237.921 102.249 237.921H99.2357C98.7757 237.921 98.5457 238.036 98.5457 238.542V243.349ZM98.5457 244.89V250.456C98.5457 250.985 98.7757 251.1 99.2357 251.1H102.249C102.686 251.1 102.916 250.985 102.916 250.456V244.89H98.5457ZM107.953 241.256C108.137 241.141 108.367 241.072 108.574 241.072C108.781 241.072 108.988 241.141 109.149 241.348C110.299 242.728 111.403 244.683 112.093 246.155C112.162 246.293 112.185 246.431 112.185 246.569C112.185 246.891 112.024 247.19 111.702 247.351C111.541 247.42 111.357 247.466 111.196 247.466C110.897 247.466 110.598 247.305 110.437 246.937C109.862 245.626 108.827 243.694 107.792 242.36C107.677 242.199 107.608 242.038 107.608 241.854C107.608 241.624 107.723 241.394 107.953 241.256ZM134.081 236.702C135.829 237.369 137.669 238.358 138.957 239.232C139.279 239.439 139.417 239.784 139.417 240.083C139.417 240.267 139.371 240.451 139.279 240.612C139.095 240.888 138.796 241.049 138.497 241.049C138.29 241.049 138.106 240.98 137.922 240.865C136.565 239.922 134.84 239.025 133.115 238.335C132.816 238.22 132.678 237.944 132.678 237.645C132.678 237.461 132.724 237.277 132.816 237.116C133.023 236.794 133.322 236.633 133.667 236.633C133.805 236.633 133.943 236.656 134.081 236.702ZM126.192 239.232C125.088 242.843 123.593 246.477 121.868 249.49C121.638 249.881 121.339 250.088 121.017 250.088C120.81 250.088 120.603 250.019 120.373 249.881C120.074 249.697 119.936 249.421 119.936 249.122C119.936 248.915 120.005 248.662 120.143 248.432C121.73 245.741 123.271 242.452 124.214 239.347C123.363 239.393 122.466 239.416 121.569 239.416C121.293 239.416 120.994 239.416 120.695 239.416C120.166 239.416 119.89 239.071 119.89 238.519C119.89 237.967 120.212 237.622 120.741 237.622C121.063 237.622 121.385 237.622 121.73 237.622C122.719 237.622 123.754 237.599 124.743 237.553C125.065 236.426 125.341 235.276 125.571 234.103C125.617 233.597 125.962 233.344 126.422 233.344C126.491 233.344 126.56 233.344 126.652 233.367C127.158 233.459 127.457 233.712 127.457 234.172C127.457 234.264 127.457 234.356 127.434 234.471C127.227 235.414 126.997 236.403 126.744 237.392C127.871 237.3 128.952 237.208 129.918 237.07C129.987 237.047 130.056 237.047 130.125 237.047C130.585 237.047 130.861 237.323 130.953 237.806C130.953 237.852 130.953 237.898 130.953 237.944C130.953 238.381 130.677 238.726 130.125 238.818C128.929 239.002 127.572 239.117 126.192 239.232ZM134.955 247.052C136.496 247.788 138.129 248.869 139.279 250.019C139.509 250.249 139.624 250.525 139.624 250.778C139.624 251.008 139.532 251.238 139.371 251.422C139.164 251.629 138.934 251.744 138.704 251.744C138.474 251.744 138.221 251.629 138.014 251.445C137.117 250.548 135.99 249.605 135.024 249.053C135.07 249.329 135.07 249.628 135.07 249.835C134.955 252.342 133.345 253.515 130.217 253.515C127.342 253.515 125.433 251.997 125.433 249.835C125.433 247.627 127.388 246.04 130.24 246.04C131.206 246.04 132.149 246.178 133.092 246.431C132.954 245.143 132.839 243.326 132.839 241.831C132.839 241.164 133.23 240.888 133.736 240.888C134.288 240.888 134.679 241.187 134.679 241.831C134.679 243.809 134.771 245.419 134.955 247.052ZM133.23 248.271C132.31 247.857 131.275 247.673 130.286 247.673C128.423 247.673 127.25 248.547 127.25 249.812C127.25 251.077 128.377 251.79 130.263 251.79C132.218 251.79 133.276 251.054 133.276 249.421C133.276 249.053 133.276 248.731 133.23 248.271ZM149.261 247.42H147.214C145.788 247.42 145.121 246.891 145.121 245.465V235.759C145.121 234.287 145.788 233.735 147.214 233.735H158.3C159.749 233.735 160.393 234.287 160.393 235.759V245.465C160.393 246.891 159.749 247.42 158.3 247.42H155.747V251.422C155.747 252.158 155.954 252.273 158.093 252.273C160.462 252.273 160.83 252.089 161.083 251.606C161.267 251.261 161.451 250.41 161.52 249.628C161.566 249.076 161.842 248.846 162.279 248.846C162.348 248.846 162.394 248.846 162.463 248.869C163.015 248.915 163.268 249.191 163.268 249.628C163.268 249.651 163.268 249.674 163.268 249.697C163.199 250.709 162.923 251.836 162.624 252.48C162.187 253.469 161.474 253.883 158.254 253.883C154.528 253.883 153.953 253.561 153.953 251.951V247.42H151.101C150.618 251.468 147.881 253.538 143.488 254.435C143.396 254.458 143.304 254.458 143.235 254.458C142.798 254.458 142.453 254.251 142.338 253.768C142.315 253.653 142.292 253.561 142.292 253.469C142.292 253.032 142.545 252.71 142.982 252.664C146.708 251.997 148.847 250.456 149.261 247.42ZM158.645 237.76V235.943C158.645 235.46 158.415 235.322 157.955 235.322H147.559C147.076 235.322 146.869 235.46 146.869 235.943V237.76H158.645ZM158.645 241.739V239.301H146.869V241.739H158.645ZM158.645 243.28H146.869V245.281C146.869 245.764 147.076 245.902 147.559 245.902H157.955C158.415 245.902 158.645 245.764 158.645 245.281V243.28ZM172.721 238.496H166.074C165.637 238.496 165.384 238.105 165.384 237.622C165.384 237.116 165.637 236.725 166.074 236.725H174.699V233.781C174.699 233.344 175.113 233.114 175.642 233.114C176.171 233.114 176.585 233.344 176.585 233.781V236.725H185.509C185.946 236.725 186.176 237.139 186.176 237.622C186.176 238.105 185.946 238.496 185.509 238.496H174.676C174.607 239.508 174.538 240.543 174.4 241.555H181.116C182.542 241.555 183.186 242.13 183.186 243.533C183.186 246.799 182.588 250.387 182.036 251.882C181.53 253.308 180.633 253.837 178.954 253.837C177.965 253.837 176.976 253.745 176.148 253.561C175.711 253.492 175.458 253.17 175.458 252.733C175.458 252.641 175.458 252.549 175.504 252.457C175.596 251.997 175.872 251.744 176.263 251.744C176.355 251.744 176.447 251.767 176.562 251.79C177.16 251.905 178.034 252.043 178.747 252.043C179.828 252.043 180.196 251.767 180.426 250.962C180.817 249.582 181.346 246.707 181.346 243.947C181.346 243.441 181.093 243.303 180.587 243.303H174.101C173.02 248.547 170.605 251.491 166.833 253.768C166.626 253.883 166.396 253.952 166.189 253.952C165.913 253.952 165.637 253.837 165.476 253.584C165.338 253.4 165.269 253.17 165.269 252.963C165.269 252.664 165.407 252.388 165.706 252.227C170.237 249.674 172.56 245.557 172.721 238.496Z" fill="black"/>
</g>
<defs>
<clipPath id="clip0_207_3326">
<rect width="281" height="530" fill="white" transform="translate(530) rotate(90)"/>
</clipPath>
</defs>
</svg>
