<svg width="530" height="281" viewBox="0 0 530 281" fill="none" xmlns="http://www.w3.org/2000/svg">
<g clip-path="url(#clip0_207_3326)">
<rect width="281" height="530" transform="translate(530) rotate(90)" fill="white"/>
<rect x="3.05176e-05" y="0.5" width="530" height="280" fill="#B3E5FC"/>
<path d="M207.652 245.152C207.066 245.738 207.066 246.688 207.652 247.273L217.198 256.819C217.784 257.405 218.734 257.405 219.319 256.819C219.905 256.233 219.905 255.284 219.319 254.698L210.834 246.213L219.319 237.727C219.905 237.142 219.905 236.192 219.319 235.606C218.734 235.02 217.784 235.02 217.198 235.606L207.652 245.152ZM289.002 247.273C289.588 246.688 289.588 245.738 289.002 245.152L279.457 235.606C278.871 235.02 277.921 235.02 277.335 235.606C276.749 236.192 276.749 237.142 277.335 237.727L285.821 246.213L277.335 254.698C276.749 255.284 276.749 256.233 277.335 256.819C277.921 257.405 278.871 257.405 279.457 256.819L289.002 247.273ZM208.713 247.713L287.942 247.713L287.942 244.713L208.713 244.713L208.713 247.713Z" fill="black"/>
<rect x="339.944" y="55.9893" width="80.8057" height="39.4684" rx="3.73793" fill="#0288D1" stroke="white" stroke-width="1.86897"/>
<rect x="282.165" y="159.813" width="80.8057" height="39.4684" rx="3.73793" fill="#0288D1" stroke="white" stroke-width="1.86897"/>
<rect x="402.588" y="159.813" width="80.8057" height="39.4684" rx="3.73793" fill="#0288D1" stroke="white" stroke-width="1.86897"/>
<path d="M380.269 131.931V132.931C380.821 132.931 381.269 132.483 381.269 131.931H380.269ZM380.976 95.4576C380.585 95.067 379.952 95.067 379.562 95.4576L373.198 101.822C372.807 102.212 372.807 102.845 373.198 103.236C373.588 103.626 374.221 103.626 374.612 103.236L380.269 97.5789L385.925 103.236C386.316 103.626 386.949 103.626 387.34 103.236C387.73 102.845 387.73 102.212 387.34 101.822L380.976 95.4576ZM322.475 158.878V132.866H320.475V158.878H322.475ZM322.409 132.931H380.269V130.931H322.409V132.931ZM381.269 131.931V96.1647H379.269V131.931H381.269ZM322.475 132.866C322.475 132.902 322.445 132.931 322.409 132.931V130.931C321.341 130.931 320.475 131.797 320.475 132.866H322.475Z" fill="black"/>
<path d="M380.347 131.931V132.931C379.795 132.931 379.347 132.483 379.347 131.931H380.347ZM379.64 95.4574C380.03 95.0669 380.664 95.0669 381.054 95.4574L387.418 101.821C387.809 102.212 387.809 102.845 387.418 103.236C387.028 103.626 386.394 103.626 386.004 103.236L380.347 97.5788L374.69 103.236C374.3 103.626 373.666 103.626 373.276 103.236C372.885 102.845 372.885 102.212 373.276 101.821L379.64 95.4574ZM438.141 158.878V132.865H440.141V158.878H438.141ZM438.207 132.931H380.347V130.931H438.207V132.931ZM379.347 131.931V96.1646H381.347V131.931H379.347ZM438.141 132.865C438.141 132.902 438.17 132.931 438.207 132.931V130.931C439.275 130.931 440.141 131.797 440.141 132.865H438.141Z" fill="black"/>
<path d="M380.418 68.1275H380.282C379.942 69.0795 379.534 70.2128 379.058 71.5275C378.605 72.8421 378.129 74.2021 377.63 75.6075C377.154 76.9901 376.701 78.2821 376.27 79.4835L376.1 79.9935C375.964 80.4015 375.794 80.9115 375.59 81.5235C375.386 82.1355 375.171 82.7815 374.944 83.4615C374.718 84.1188 374.502 84.7421 374.298 85.3315C374.094 85.8981 373.936 86.3628 373.822 86.7255C373.664 86.7935 373.494 86.8388 373.312 86.8615C373.154 86.9068 372.95 86.9295 372.7 86.9295C372.338 86.9295 372.009 86.8388 371.714 86.6575C371.442 86.4535 371.306 86.1361 371.306 85.7055C371.306 85.5015 371.34 85.2975 371.408 85.0935C371.476 84.8668 371.556 84.6288 371.646 84.3795C371.918 83.6088 372.247 82.6681 372.632 81.5575C373.04 80.4468 373.482 79.2341 373.958 77.9195C374.434 76.6048 374.933 75.2561 375.454 73.8735C375.976 72.4908 376.486 71.1421 376.984 69.8275C377.483 68.5128 377.948 67.3115 378.378 66.2235C378.56 66.1328 378.832 66.0421 379.194 65.9515C379.557 65.8608 379.931 65.8155 380.316 65.8155C380.77 65.8155 381.2 65.8835 381.608 66.0195C382.039 66.1555 382.311 66.3821 382.424 66.6995C382.968 68.0141 383.546 69.5101 384.158 71.1875C384.793 72.8421 385.428 74.5761 386.062 76.3895C386.697 78.1801 387.298 79.9255 387.864 81.6255C388.454 83.3255 388.975 84.8668 389.428 86.2495C389.27 86.4535 389.054 86.6121 388.782 86.7255C388.533 86.8615 388.25 86.9295 387.932 86.9295C387.502 86.9295 387.173 86.8388 386.946 86.6575C386.72 86.4535 386.527 86.1248 386.368 85.6715L384.498 80.1295L384.226 79.1775C383.773 77.7948 383.297 76.4008 382.798 74.9955C382.322 73.5901 381.869 72.2868 381.438 71.0855C381.03 69.8841 380.69 68.8981 380.418 68.1275ZM374.774 81.1495L375.658 78.8715H385.144L385.688 81.1495H374.774Z" fill="white"/>
<path d="M326.671 178.017V180.261H317.321V178.017H326.671ZM322.761 180.261L323.849 178.561C325.391 178.561 326.671 178.822 327.691 179.343C328.711 179.842 329.471 180.511 329.969 181.349C330.491 182.188 330.751 183.129 330.751 184.171C330.751 186.234 330.003 187.764 328.507 188.761C327.034 189.759 324.926 190.257 322.183 190.257C321.571 190.257 320.959 190.235 320.347 190.189C319.735 190.167 319.135 190.11 318.545 190.019C317.956 189.929 317.389 189.815 316.845 189.679C315.893 189.407 315.417 188.886 315.417 188.115V170.707C315.417 170.345 315.508 170.061 315.689 169.857C315.893 169.653 316.177 169.506 316.539 169.415C317.31 169.189 318.126 169.041 318.987 168.973C319.871 168.883 320.812 168.837 321.809 168.837C324.371 168.837 326.365 169.302 327.793 170.231C329.221 171.138 329.935 172.532 329.935 174.413C329.935 175.365 329.697 176.249 329.221 177.065C328.768 177.859 328.02 178.505 326.977 179.003C325.957 179.479 324.586 179.717 322.863 179.717L322.557 178.017C324.053 178.017 325.187 177.711 325.957 177.099C326.728 176.465 327.113 175.592 327.113 174.481C327.113 173.348 326.66 172.509 325.753 171.965C324.869 171.399 323.555 171.115 321.809 171.115C321.039 171.115 320.359 171.149 319.769 171.217C319.18 171.263 318.636 171.331 318.137 171.421V187.605C318.681 187.719 319.305 187.809 320.007 187.877C320.733 187.945 321.458 187.979 322.183 187.979C324.065 187.979 325.493 187.662 326.467 187.027C327.442 186.393 327.929 185.418 327.929 184.103C327.929 182.925 327.487 181.995 326.603 181.315C325.742 180.613 324.461 180.261 322.761 180.261Z" fill="white"/>
<path d="M451.119 171.489C451.119 171.784 451.017 172.056 450.813 172.305C450.632 172.532 450.416 172.702 450.167 172.815C449.6 172.407 448.909 172.022 448.093 171.659C447.3 171.297 446.268 171.115 444.999 171.115C443.616 171.115 442.37 171.433 441.259 172.067C440.171 172.702 439.298 173.654 438.641 174.923C438.006 176.17 437.689 177.723 437.689 179.581C437.689 182.369 438.369 184.466 439.729 185.871C441.112 187.277 442.902 187.979 445.101 187.979C446.28 187.979 447.311 187.809 448.195 187.469C449.079 187.129 449.804 186.744 450.371 186.313C450.598 186.404 450.813 186.574 451.017 186.823C451.221 187.05 451.323 187.322 451.323 187.639C451.323 187.866 451.255 188.093 451.119 188.319C451.006 188.523 450.802 188.727 450.507 188.931C449.986 189.294 449.272 189.611 448.365 189.883C447.458 190.178 446.302 190.325 444.897 190.325C443.016 190.325 441.304 189.929 439.763 189.135C438.244 188.319 437.043 187.118 436.159 185.531C435.275 183.945 434.833 181.961 434.833 179.581C434.833 177.201 435.286 175.207 436.193 173.597C437.122 171.988 438.335 170.787 439.831 169.993C441.35 169.177 443.004 168.769 444.795 168.769C446.042 168.769 447.141 168.905 448.093 169.177C449.045 169.449 449.782 169.801 450.303 170.231C450.847 170.639 451.119 171.059 451.119 171.489Z" fill="white"/>
<rect x="396.684" y="44.1067" width="50" height="22" rx="2.68781" fill="black"/>
<path d="M408.814 59.0477H414.17C414.43 59.0477 414.573 59.2687 414.573 59.5417C414.573 59.8147 414.43 60.0617 414.17 60.0617H403.185C402.925 60.0617 402.782 59.8147 402.782 59.5417C402.782 59.2687 402.925 59.0477 403.185 59.0477H407.748V49.2977C407.748 49.0247 407.969 48.8687 408.294 48.8687C408.606 48.8687 408.814 49.0247 408.814 49.2977V52.8857H413.143C413.39 52.8857 413.546 53.0937 413.546 53.3797C413.546 53.6657 413.39 53.8997 413.143 53.8997H408.814V59.0477ZM417.082 60.3087V55.2387C417.082 54.7057 417.121 54.1077 417.186 53.5357C416.952 53.9777 416.679 54.4197 416.38 54.7707C416.25 54.9137 416.12 54.9787 415.977 54.9787C415.847 54.9787 415.73 54.9267 415.613 54.8357C415.496 54.7317 415.431 54.5887 415.431 54.4457C415.431 54.3287 415.47 54.2117 415.561 54.1077C416.809 52.6777 417.758 50.7927 418.226 49.0247C418.291 48.8037 418.46 48.6997 418.681 48.6997C418.733 48.6997 418.798 48.7127 418.863 48.7257C419.097 48.7907 419.24 48.9207 419.24 49.1547C419.24 49.2197 419.227 49.2847 419.201 49.3627C418.993 50.1037 418.616 51.0917 418.096 52.1187V60.3087C418.096 60.5557 417.901 60.6857 417.589 60.6857C417.303 60.6857 417.082 60.5557 417.082 60.3087ZM423.634 51.1307H427.04C427.287 51.1307 427.417 51.3387 427.417 51.6117C427.417 51.8717 427.287 52.0797 427.04 52.0797H419.604C419.357 52.0797 419.24 51.8717 419.24 51.6117C419.24 51.3387 419.357 51.1307 419.604 51.1307H422.62V49.1677C422.62 48.9207 422.828 48.7777 423.114 48.7777C423.426 48.7777 423.634 48.9207 423.634 49.1677V51.1307ZM424.44 59.0997H427.326C427.573 59.0997 427.703 59.3077 427.703 59.5807C427.703 59.8667 427.573 60.0487 427.326 60.0487H419.227C418.993 60.0487 418.85 59.8667 418.85 59.5807C418.85 59.3077 418.993 59.0997 419.227 59.0997H423.413C424.115 57.3187 424.739 55.2257 425.103 53.3277C425.155 53.0547 425.311 52.9247 425.532 52.9247C425.597 52.9247 425.649 52.9377 425.727 52.9507C426.013 53.0157 426.195 53.1717 426.195 53.4187C426.195 53.4707 426.195 53.5227 426.182 53.5747C425.714 55.4467 425.116 57.4357 424.44 59.0997ZM420.345 53.0027C420.436 52.9637 420.527 52.9507 420.605 52.9507C420.8 52.9507 420.943 53.0547 421.021 53.2497C421.489 54.5497 421.944 56.1617 422.256 57.7087C422.269 57.7477 422.269 57.7997 422.269 57.8387C422.269 58.0987 422.087 58.2417 421.827 58.2937C421.762 58.3067 421.697 58.3197 421.632 58.3197C421.411 58.3197 421.242 58.2027 421.203 57.9427C420.93 56.3957 420.514 54.8877 420.046 53.6007C420.02 53.5357 420.007 53.4707 420.007 53.4187C420.007 53.2237 420.137 53.0677 420.345 53.0027ZM434.099 57.7217H430.355C430.121 57.7217 429.991 57.5137 429.991 57.2537C429.991 57.0067 430.121 56.8117 430.355 56.8117H434.099V56.1097C434.099 55.8757 434.307 55.7457 434.593 55.7457C434.905 55.7457 435.087 55.8757 435.087 56.1097V56.8117H439.013C439.247 56.8117 439.377 57.0067 439.377 57.2537C439.377 57.5137 439.247 57.7217 439.013 57.7217H435.087V59.3597H440.157C440.391 59.3597 440.534 59.5417 440.534 59.8147C440.534 60.0877 440.391 60.2697 440.157 60.2697H429.185C428.938 60.2697 428.795 60.0877 428.795 59.8147C428.795 59.5417 428.938 59.3597 429.185 59.3597H434.099V57.7217ZM433.15 52.7037H431.421C431.356 53.1327 431.291 53.4967 431.2 53.7957C430.927 54.7447 430.459 55.4987 429.835 56.0187C429.692 56.1357 429.549 56.2007 429.406 56.2007C429.289 56.2007 429.172 56.1487 429.081 56.0317C428.99 55.9407 428.951 55.8237 428.951 55.7067C428.951 55.5637 429.003 55.4337 429.12 55.3427C429.718 54.8357 430.108 54.1987 430.303 53.5357C430.368 53.3017 430.433 53.0287 430.472 52.7037H429.172C428.938 52.7037 428.808 52.5217 428.808 52.2617C428.808 51.9887 428.938 51.8197 429.172 51.8197H430.55C430.576 51.3907 430.589 50.8967 430.589 50.3247V50.0647H429.497C429.263 50.0647 429.146 49.8957 429.146 49.6357C429.146 49.3627 429.263 49.1937 429.497 49.1937H435.139C435.373 49.1937 435.503 49.3497 435.503 49.6227C435.503 49.8827 435.373 50.0647 435.139 50.0647H434.099V51.8197H435.425C435.659 51.8197 435.776 51.9887 435.776 52.2617C435.776 52.5217 435.659 52.7037 435.425 52.7037H434.099V55.3037C434.099 55.5507 433.878 55.6677 433.579 55.6677C433.293 55.6677 433.15 55.5507 433.15 55.3037V52.7037ZM433.15 50.0647H431.538V50.3767C431.538 50.9097 431.525 51.3907 431.499 51.8197H433.15V50.0647ZM437.323 49.6617V53.6527C437.323 53.8997 437.128 54.0297 436.816 54.0297C436.53 54.0297 436.335 53.8867 436.335 53.6527V49.6487C436.335 49.4147 436.53 49.2847 436.816 49.2847C437.128 49.2847 437.323 49.4277 437.323 49.6617ZM439.078 54.4977V49.1547C439.078 48.8947 439.273 48.7647 439.559 48.7647C439.871 48.7647 440.066 48.8947 440.066 49.1547V54.7057C440.066 55.5637 439.65 55.9147 438.636 55.9147C438.207 55.9147 437.752 55.8887 437.414 55.8237C437.154 55.7717 437.024 55.6157 437.024 55.3817C437.024 55.3427 437.024 55.2907 437.037 55.2517C437.076 54.9917 437.232 54.8747 437.427 54.8747C437.453 54.8747 437.479 54.8747 437.518 54.8877C437.791 54.9527 438.142 54.9917 438.428 54.9917C438.974 54.9917 439.078 54.9007 439.078 54.4977Z" fill="white"/>
<rect x="459.328" y="147.878" width="50" height="22" rx="2.68781" fill="black"/>
<path d="M469.17 153.849H471.601C471.835 153.849 471.952 154.044 471.952 154.291C471.952 154.551 471.835 154.746 471.601 154.746H465.92C465.686 154.746 465.556 154.551 465.556 154.291C465.556 154.044 465.686 153.849 465.92 153.849H468.156V152.77C468.156 152.523 468.351 152.406 468.65 152.406C468.949 152.406 469.17 152.523 469.17 152.77V153.849ZM470.08 157.437H471.809C472.03 157.437 472.16 157.619 472.16 157.892C472.16 158.152 472.03 158.36 471.809 158.36H465.595C465.361 158.36 465.231 158.152 465.231 157.892C465.231 157.619 465.361 157.437 465.595 157.437H469.144C469.521 156.709 469.82 155.942 470.015 155.292C470.08 155.071 470.223 154.967 470.431 154.967C470.47 154.967 470.522 154.967 470.574 154.98C470.795 155.019 470.951 155.175 470.951 155.396C470.951 155.448 470.938 155.5 470.925 155.565C470.704 156.202 470.405 156.852 470.08 157.437ZM471.406 160.466V162.949C471.406 163.716 471.016 164.041 470.249 164.041H467.207C466.453 164.041 466.05 163.716 466.05 162.949V160.466C466.05 159.699 466.453 159.374 467.207 159.374H470.249C471.016 159.374 471.406 159.699 471.406 160.466ZM467.467 163.144H470.015C470.262 163.144 470.431 163.04 470.431 162.78V160.648C470.431 160.375 470.262 160.271 470.015 160.271H467.467C467.207 160.271 467.038 160.375 467.038 160.648V162.78C467.038 163.04 467.207 163.144 467.467 163.144ZM472.602 164.067V153.901C472.602 153.134 472.953 152.809 473.759 152.809H476.164C476.866 152.809 477.217 153.199 477.217 153.719C477.217 153.888 477.178 154.057 477.113 154.239C476.762 155.188 476.242 156.176 475.709 157.008C475.644 157.112 475.605 157.19 475.605 157.255C475.605 157.32 475.644 157.385 475.722 157.463C476.593 158.373 477.308 159.504 477.308 160.908C477.308 162.273 476.697 162.871 475.527 162.871C475.124 162.871 474.617 162.845 474.318 162.767C474.071 162.702 473.954 162.546 473.954 162.312C473.954 162.26 473.954 162.221 473.967 162.169C474.006 161.935 474.162 161.792 474.37 161.792C474.409 161.792 474.448 161.792 474.487 161.805C474.734 161.857 475.111 161.896 475.397 161.896C476.021 161.896 476.281 161.662 476.281 160.843C476.281 159.803 475.579 158.724 474.786 157.84C474.63 157.671 474.552 157.463 474.552 157.255C474.552 157.073 474.617 156.891 474.734 156.722C475.254 155.968 475.787 154.954 476.06 154.096C476.086 154.018 476.099 153.966 476.099 153.914C476.099 153.771 476.008 153.719 475.826 153.719H473.98C473.733 153.719 473.59 153.797 473.59 154.044V164.067C473.59 164.34 473.395 164.483 473.083 164.483C472.771 164.483 472.602 164.34 472.602 164.067ZM466.765 155.006C466.83 154.98 466.908 154.967 466.96 154.967C467.142 154.967 467.272 155.058 467.363 155.227C467.571 155.604 467.779 156.15 467.909 156.605C467.922 156.657 467.935 156.709 467.935 156.748C467.935 156.956 467.805 157.099 467.584 157.164C467.532 157.177 467.467 157.19 467.415 157.19C467.233 157.19 467.077 157.086 467.012 156.891C466.895 156.488 466.713 155.968 466.531 155.604C466.492 155.526 466.479 155.448 466.479 155.383C466.479 155.214 466.57 155.084 466.765 155.006ZM482.742 158.022H481.117C480.87 158.022 480.727 157.827 480.727 157.554C480.727 157.268 480.87 157.086 481.117 157.086H486.538C487.487 157.086 487.903 157.424 487.903 158.282C487.903 160.18 487.708 161.935 487.409 162.923C487.149 163.794 486.642 164.145 485.719 164.145C485.069 164.145 484.575 164.093 484.172 163.963C483.899 163.885 483.782 163.69 483.782 163.482C483.782 163.43 483.795 163.378 483.808 163.326C483.873 163.066 484.042 162.923 484.25 162.923C484.315 162.923 484.38 162.936 484.445 162.962C484.757 163.066 485.16 163.144 485.563 163.144C486.07 163.144 486.317 163.001 486.46 162.533C486.707 161.727 486.863 160.063 486.863 158.36C486.863 158.074 486.707 158.022 486.421 158.022H483.782C483.574 161.025 482.144 163.04 479.778 164.262C479.648 164.327 479.531 164.353 479.427 164.353C479.258 164.353 479.102 164.262 478.998 164.106C478.933 164.015 478.907 163.911 478.907 163.807C478.907 163.625 478.998 163.443 479.18 163.352C479.999 162.91 480.753 162.416 481.377 161.701C482.261 160.661 482.638 159.361 482.742 158.022ZM485.667 152.601C485.771 152.562 485.849 152.536 485.94 152.536C486.122 152.536 486.265 152.64 486.356 152.835C487.175 154.616 488.566 156.293 490.23 157.359C490.399 157.463 490.477 157.645 490.477 157.814C490.477 157.931 490.451 158.035 490.386 158.126C490.269 158.295 490.1 158.373 489.918 158.373C489.801 158.373 489.671 158.334 489.541 158.243C487.838 157.047 486.291 155.201 485.407 153.264C485.368 153.186 485.355 153.108 485.355 153.03C485.355 152.848 485.472 152.692 485.667 152.601ZM482.885 152.614C483.106 152.705 483.223 152.861 483.223 153.043C483.223 153.108 483.21 153.199 483.171 153.277C482.326 155.175 480.766 157.021 479.115 158.217C479.011 158.308 478.868 158.347 478.738 158.347C478.595 158.347 478.452 158.295 478.348 158.178C478.257 158.087 478.218 157.944 478.218 157.814C478.218 157.645 478.283 157.489 478.413 157.398C480.025 156.306 481.403 154.629 482.17 152.861C482.261 152.653 482.417 152.549 482.612 152.549C482.703 152.549 482.794 152.575 482.885 152.614ZM496.743 161.493H492.999C492.765 161.493 492.635 161.285 492.635 161.025C492.635 160.778 492.765 160.583 492.999 160.583H496.743V159.881C496.743 159.647 496.951 159.517 497.237 159.517C497.549 159.517 497.731 159.647 497.731 159.881V160.583H501.657C501.891 160.583 502.021 160.778 502.021 161.025C502.021 161.285 501.891 161.493 501.657 161.493H497.731V163.131H502.801C503.035 163.131 503.178 163.313 503.178 163.586C503.178 163.859 503.035 164.041 502.801 164.041H491.829C491.582 164.041 491.439 163.859 491.439 163.586C491.439 163.313 491.582 163.131 491.829 163.131H496.743V161.493ZM495.794 156.475H494.065C494 156.904 493.935 157.268 493.844 157.567C493.571 158.516 493.103 159.27 492.479 159.79C492.336 159.907 492.193 159.972 492.05 159.972C491.933 159.972 491.816 159.92 491.725 159.803C491.634 159.712 491.595 159.595 491.595 159.478C491.595 159.335 491.647 159.205 491.764 159.114C492.362 158.607 492.752 157.97 492.947 157.307C493.012 157.073 493.077 156.8 493.116 156.475H491.816C491.582 156.475 491.452 156.293 491.452 156.033C491.452 155.76 491.582 155.591 491.816 155.591H493.194C493.22 155.162 493.233 154.668 493.233 154.096V153.836H492.141C491.907 153.836 491.79 153.667 491.79 153.407C491.79 153.134 491.907 152.965 492.141 152.965H497.783C498.017 152.965 498.147 153.121 498.147 153.394C498.147 153.654 498.017 153.836 497.783 153.836H496.743V155.591H498.069C498.303 155.591 498.42 155.76 498.42 156.033C498.42 156.293 498.303 156.475 498.069 156.475H496.743V159.075C496.743 159.322 496.522 159.439 496.223 159.439C495.937 159.439 495.794 159.322 495.794 159.075V156.475ZM495.794 153.836H494.182V154.148C494.182 154.681 494.169 155.162 494.143 155.591H495.794V153.836ZM499.967 153.433V157.424C499.967 157.671 499.772 157.801 499.46 157.801C499.174 157.801 498.979 157.658 498.979 157.424V153.42C498.979 153.186 499.174 153.056 499.46 153.056C499.772 153.056 499.967 153.199 499.967 153.433ZM501.722 158.269V152.926C501.722 152.666 501.917 152.536 502.203 152.536C502.515 152.536 502.71 152.666 502.71 152.926V158.477C502.71 159.335 502.294 159.686 501.28 159.686C500.851 159.686 500.396 159.66 500.058 159.595C499.798 159.543 499.668 159.387 499.668 159.153C499.668 159.114 499.668 159.062 499.681 159.023C499.72 158.763 499.876 158.646 500.071 158.646C500.097 158.646 500.123 158.646 500.162 158.659C500.435 158.724 500.786 158.763 501.072 158.763C501.618 158.763 501.722 158.672 501.722 158.269Z" fill="white"/>
<rect x="338.905" y="147.878" width="50" height="22" rx="2.68781" fill="black"/>
<path d="M348.747 153.849H351.178C351.412 153.849 351.529 154.044 351.529 154.291C351.529 154.551 351.412 154.746 351.178 154.746H345.497C345.263 154.746 345.133 154.551 345.133 154.291C345.133 154.044 345.263 153.849 345.497 153.849H347.733V152.77C347.733 152.523 347.928 152.406 348.227 152.406C348.526 152.406 348.747 152.523 348.747 152.77V153.849ZM349.657 157.437H351.386C351.607 157.437 351.737 157.619 351.737 157.892C351.737 158.152 351.607 158.36 351.386 158.36H345.172C344.938 158.36 344.808 158.152 344.808 157.892C344.808 157.619 344.938 157.437 345.172 157.437H348.721C349.098 156.709 349.397 155.942 349.592 155.292C349.657 155.071 349.8 154.967 350.008 154.967C350.047 154.967 350.099 154.967 350.151 154.98C350.372 155.019 350.528 155.175 350.528 155.396C350.528 155.448 350.515 155.5 350.502 155.565C350.281 156.202 349.982 156.852 349.657 157.437ZM350.983 160.466V162.949C350.983 163.716 350.593 164.041 349.826 164.041H346.784C346.03 164.041 345.627 163.716 345.627 162.949V160.466C345.627 159.699 346.03 159.374 346.784 159.374H349.826C350.593 159.374 350.983 159.699 350.983 160.466ZM347.044 163.144H349.592C349.839 163.144 350.008 163.04 350.008 162.78V160.648C350.008 160.375 349.839 160.271 349.592 160.271H347.044C346.784 160.271 346.615 160.375 346.615 160.648V162.78C346.615 163.04 346.784 163.144 347.044 163.144ZM352.179 164.067V153.901C352.179 153.134 352.53 152.809 353.336 152.809H355.741C356.443 152.809 356.794 153.199 356.794 153.719C356.794 153.888 356.755 154.057 356.69 154.239C356.339 155.188 355.819 156.176 355.286 157.008C355.221 157.112 355.182 157.19 355.182 157.255C355.182 157.32 355.221 157.385 355.299 157.463C356.17 158.373 356.885 159.504 356.885 160.908C356.885 162.273 356.274 162.871 355.104 162.871C354.701 162.871 354.194 162.845 353.895 162.767C353.648 162.702 353.531 162.546 353.531 162.312C353.531 162.26 353.531 162.221 353.544 162.169C353.583 161.935 353.739 161.792 353.947 161.792C353.986 161.792 354.025 161.792 354.064 161.805C354.311 161.857 354.688 161.896 354.974 161.896C355.598 161.896 355.858 161.662 355.858 160.843C355.858 159.803 355.156 158.724 354.363 157.84C354.207 157.671 354.129 157.463 354.129 157.255C354.129 157.073 354.194 156.891 354.311 156.722C354.831 155.968 355.364 154.954 355.637 154.096C355.663 154.018 355.676 153.966 355.676 153.914C355.676 153.771 355.585 153.719 355.403 153.719H353.557C353.31 153.719 353.167 153.797 353.167 154.044V164.067C353.167 164.34 352.972 164.483 352.66 164.483C352.348 164.483 352.179 164.34 352.179 164.067ZM346.342 155.006C346.407 154.98 346.485 154.967 346.537 154.967C346.719 154.967 346.849 155.058 346.94 155.227C347.148 155.604 347.356 156.15 347.486 156.605C347.499 156.657 347.512 156.709 347.512 156.748C347.512 156.956 347.382 157.099 347.161 157.164C347.109 157.177 347.044 157.19 346.992 157.19C346.81 157.19 346.654 157.086 346.589 156.891C346.472 156.488 346.29 155.968 346.108 155.604C346.069 155.526 346.056 155.448 346.056 155.383C346.056 155.214 346.147 155.084 346.342 155.006ZM362.319 158.022H360.694C360.447 158.022 360.304 157.827 360.304 157.554C360.304 157.268 360.447 157.086 360.694 157.086H366.115C367.064 157.086 367.48 157.424 367.48 158.282C367.48 160.18 367.285 161.935 366.986 162.923C366.726 163.794 366.219 164.145 365.296 164.145C364.646 164.145 364.152 164.093 363.749 163.963C363.476 163.885 363.359 163.69 363.359 163.482C363.359 163.43 363.372 163.378 363.385 163.326C363.45 163.066 363.619 162.923 363.827 162.923C363.892 162.923 363.957 162.936 364.022 162.962C364.334 163.066 364.737 163.144 365.14 163.144C365.647 163.144 365.894 163.001 366.037 162.533C366.284 161.727 366.44 160.063 366.44 158.36C366.44 158.074 366.284 158.022 365.998 158.022H363.359C363.151 161.025 361.721 163.04 359.355 164.262C359.225 164.327 359.108 164.353 359.004 164.353C358.835 164.353 358.679 164.262 358.575 164.106C358.51 164.015 358.484 163.911 358.484 163.807C358.484 163.625 358.575 163.443 358.757 163.352C359.576 162.91 360.33 162.416 360.954 161.701C361.838 160.661 362.215 159.361 362.319 158.022ZM365.244 152.601C365.348 152.562 365.426 152.536 365.517 152.536C365.699 152.536 365.842 152.64 365.933 152.835C366.752 154.616 368.143 156.293 369.807 157.359C369.976 157.463 370.054 157.645 370.054 157.814C370.054 157.931 370.028 158.035 369.963 158.126C369.846 158.295 369.677 158.373 369.495 158.373C369.378 158.373 369.248 158.334 369.118 158.243C367.415 157.047 365.868 155.201 364.984 153.264C364.945 153.186 364.932 153.108 364.932 153.03C364.932 152.848 365.049 152.692 365.244 152.601ZM362.462 152.614C362.683 152.705 362.8 152.861 362.8 153.043C362.8 153.108 362.787 153.199 362.748 153.277C361.903 155.175 360.343 157.021 358.692 158.217C358.588 158.308 358.445 158.347 358.315 158.347C358.172 158.347 358.029 158.295 357.925 158.178C357.834 158.087 357.795 157.944 357.795 157.814C357.795 157.645 357.86 157.489 357.99 157.398C359.602 156.306 360.98 154.629 361.747 152.861C361.838 152.653 361.994 152.549 362.189 152.549C362.28 152.549 362.371 152.575 362.462 152.614ZM376.32 161.493H372.576C372.342 161.493 372.212 161.285 372.212 161.025C372.212 160.778 372.342 160.583 372.576 160.583H376.32V159.881C376.32 159.647 376.528 159.517 376.814 159.517C377.126 159.517 377.308 159.647 377.308 159.881V160.583H381.234C381.468 160.583 381.598 160.778 381.598 161.025C381.598 161.285 381.468 161.493 381.234 161.493H377.308V163.131H382.378C382.612 163.131 382.755 163.313 382.755 163.586C382.755 163.859 382.612 164.041 382.378 164.041H371.406C371.159 164.041 371.016 163.859 371.016 163.586C371.016 163.313 371.159 163.131 371.406 163.131H376.32V161.493ZM375.371 156.475H373.642C373.577 156.904 373.512 157.268 373.421 157.567C373.148 158.516 372.68 159.27 372.056 159.79C371.913 159.907 371.77 159.972 371.627 159.972C371.51 159.972 371.393 159.92 371.302 159.803C371.211 159.712 371.172 159.595 371.172 159.478C371.172 159.335 371.224 159.205 371.341 159.114C371.939 158.607 372.329 157.97 372.524 157.307C372.589 157.073 372.654 156.8 372.693 156.475H371.393C371.159 156.475 371.029 156.293 371.029 156.033C371.029 155.76 371.159 155.591 371.393 155.591H372.771C372.797 155.162 372.81 154.668 372.81 154.096V153.836H371.718C371.484 153.836 371.367 153.667 371.367 153.407C371.367 153.134 371.484 152.965 371.718 152.965H377.36C377.594 152.965 377.724 153.121 377.724 153.394C377.724 153.654 377.594 153.836 377.36 153.836H376.32V155.591H377.646C377.88 155.591 377.997 155.76 377.997 156.033C377.997 156.293 377.88 156.475 377.646 156.475H376.32V159.075C376.32 159.322 376.099 159.439 375.8 159.439C375.514 159.439 375.371 159.322 375.371 159.075V156.475ZM375.371 153.836H373.759V154.148C373.759 154.681 373.746 155.162 373.72 155.591H375.371V153.836ZM379.544 153.433V157.424C379.544 157.671 379.349 157.801 379.037 157.801C378.751 157.801 378.556 157.658 378.556 157.424V153.42C378.556 153.186 378.751 153.056 379.037 153.056C379.349 153.056 379.544 153.199 379.544 153.433ZM381.299 158.269V152.926C381.299 152.666 381.494 152.536 381.78 152.536C382.092 152.536 382.287 152.666 382.287 152.926V158.477C382.287 159.335 381.871 159.686 380.857 159.686C380.428 159.686 379.973 159.66 379.635 159.595C379.375 159.543 379.245 159.387 379.245 159.153C379.245 159.114 379.245 159.062 379.258 159.023C379.297 158.763 379.453 158.646 379.648 158.646C379.674 158.646 379.7 158.646 379.739 158.659C380.012 158.724 380.363 158.763 380.649 158.763C381.195 158.763 381.299 158.672 381.299 158.269Z" fill="white"/>
<path d="M320.469 242.569V238.429C319.71 240.982 319.434 241.718 318.629 243.558C319.779 245.467 320.262 247.077 320.262 248.825C320.262 250.412 319.963 251.194 319.135 251.7C318.606 252.045 317.847 252.206 316.513 252.252C316.467 250.642 316.375 250.09 316.007 249.308V253.54C316.007 254.989 316.053 255.955 316.122 256.76H312.557C312.649 255.932 312.695 254.805 312.695 253.425V238.13C312.695 236.635 312.672 236.083 312.626 235.508C313.017 235.554 313.454 235.577 314.443 235.577H317.18C318.215 235.577 318.606 235.554 319.135 235.462L320.469 236.957C320.469 236.221 320.423 235.692 320.377 235.094H323.735C323.666 235.715 323.666 235.715 323.643 237.233H324.379C325.138 237.233 325.437 237.21 325.92 237.141V240.407C325.391 240.361 324.954 240.338 324.402 240.338H323.643V242.04C324.402 241.902 325.138 241.741 325.943 241.511L325.92 244.478L326.541 244.593C326.426 244.34 326.38 244.018 326.38 243.581V237.325C326.38 236.29 326.357 235.623 326.288 235.094H329.761C329.692 235.669 329.669 236.152 329.669 237.003V237.348C330.658 236.888 331.463 236.405 332.061 235.922L333.625 238.797C333.533 238.843 333.257 238.981 332.107 239.602C331.44 239.947 330.658 240.292 329.669 240.683V242.109C329.669 242.385 329.784 242.477 330.106 242.477C330.129 242.477 330.152 242.477 330.175 242.477C330.221 242.477 330.313 242.477 330.405 242.477C330.934 242.454 331.049 242.155 331.095 240.568C332.107 241.189 332.705 241.419 333.786 241.603C333.625 245.145 333.28 245.49 329.692 245.49C329.002 245.49 328.496 245.467 327.967 245.398C327.944 245.467 327.944 245.49 327.852 245.651C327.76 245.858 327.691 246.065 327.53 246.387H330.152C331.923 246.387 332.153 246.387 332.613 246.318C332.544 247.031 332.521 247.376 332.521 248.825V253.931C332.521 255.035 332.544 255.817 332.636 256.783H329.14V256.001H323.942V256.76H320.561C320.653 255.978 320.676 255.518 320.676 254.322V248.549C320.676 247.261 320.653 246.893 320.607 246.318C321.205 246.387 321.573 246.387 323.068 246.387H324.034C324.264 245.95 324.471 245.421 324.655 244.823C324.425 244.892 324.241 244.938 324.126 244.961C323.873 245.007 322.769 245.237 321.067 245.605C320.63 245.697 320.354 245.766 319.986 245.858L319.411 242.661C319.756 242.661 319.917 242.638 320.469 242.569ZM316.007 238.751V243.052C316.605 241.649 316.927 240.545 317.295 238.751H316.007ZM316.007 244.271V249.032C316.191 249.055 316.283 249.055 316.375 249.055C316.628 249.055 316.835 249.009 316.973 248.894C317.18 248.756 317.226 248.618 317.226 248.204C317.226 247.077 316.72 245.444 316.007 244.271ZM323.942 249.055V250.021H329.14V249.055H323.942ZM323.942 252.275V253.287H329.14V252.275H323.942ZM342.664 241.971H343.078C342.917 241.603 342.848 241.488 342.664 241.212H340.18C340.065 247.031 339.858 249.515 339.26 252.229C338.846 254.184 338.34 255.518 337.512 256.852C336.546 255.472 335.879 254.736 334.683 253.77C336.385 251.125 336.845 247.79 336.845 238.107C336.845 237.003 336.799 236.313 336.707 235.462C337.627 235.554 338.547 235.6 339.973 235.6H353.106C354.348 235.6 355.222 235.577 356.027 235.485C355.958 236.198 355.935 236.612 355.935 237.509V239.211C355.935 240.154 355.958 240.66 356.027 241.281C355.314 241.235 354.394 241.212 353.267 241.212H353.06C352.899 241.534 352.83 241.626 352.623 241.971H353.75C354.578 241.971 355.107 241.948 355.544 241.902C355.498 242.385 355.475 242.891 355.475 243.558V247.077C355.475 247.859 355.498 248.25 355.544 248.779C354.992 248.733 354.509 248.71 353.773 248.71H342.756C341.284 248.71 341.192 248.71 340.686 248.756C340.732 247.905 340.732 247.905 340.732 246.801V243.696C340.732 242.684 340.732 242.408 340.686 241.925C341.261 241.971 341.514 241.971 342.664 241.971ZM346.781 241.971H349.012C349.173 241.695 349.242 241.58 349.403 241.212H346.367C346.551 241.534 346.597 241.626 346.781 241.971ZM340.18 238.958H352.554V238.222H340.18V238.958ZM344.09 243.834V244.524H346.367V243.834H344.09ZM349.564 243.834V244.524H352.094V243.834H349.564ZM344.09 246.157V246.87H346.367V246.157H344.09ZM349.564 246.157V246.87H352.094V246.157H349.564ZM343.607 249.285H352.278C353.681 249.285 354.072 249.285 354.785 249.216C354.693 249.837 354.67 250.32 354.67 251.286V254.644C354.67 255.587 354.693 256.047 354.808 256.783H351.312V256.116H344.596V256.783H341.169C341.215 256.116 341.238 255.748 341.238 254.529V251.401C341.238 250.182 341.238 249.906 341.146 249.216C341.767 249.262 342.25 249.285 343.607 249.285ZM344.596 251.148V251.838H351.312V251.148H344.596ZM344.596 253.402V254.069H351.312V253.402H344.596ZM374.726 249.515L371.368 250.987C370.701 248.595 369.988 246.916 368.953 245.191C368.815 245.329 368.769 245.398 368.585 245.582C368.056 244.984 367.895 244.8 367.481 244.409V253.218C367.481 253.977 367.504 254.667 367.55 255.38H364.215V254.092H362.076V256.139H358.603C358.695 255.403 358.741 254.414 358.741 252.988V240.752C358.741 239.326 358.718 238.912 358.649 238.245C359.27 238.314 359.431 238.314 360.627 238.314H361.133C361.616 237.118 361.846 236.336 362.099 235.094L365.756 235.531C365.112 237.141 365.112 237.141 364.583 238.314H365.618C366.4 238.314 367.021 238.291 367.55 238.245C367.527 238.452 367.527 238.452 367.481 238.958C367.481 238.958 367.481 239.464 367.481 240.2V241.465C368.401 240.2 369.367 238.314 369.873 236.727C370.08 236.129 370.195 235.623 370.264 235.117L373.898 235.646C373.783 235.853 373.622 236.313 373.484 236.773C373.3 237.394 373.231 237.578 373.047 238.084H377.279C378.245 238.084 378.751 238.061 379.211 237.992C379.119 238.682 379.119 238.935 379.096 239.556C379.096 240.453 379.073 241.005 378.935 246.778C378.866 249.354 378.613 252.137 378.337 253.448C377.969 255.15 377.532 255.84 376.589 256.254C375.922 256.553 374.611 256.737 373.231 256.737C372.771 256.737 372.288 256.737 371.529 256.714C371.368 255.288 371.184 254.483 370.632 253.126C371.966 253.287 372.633 253.333 373.3 253.333C374.381 253.333 374.749 253.149 374.956 252.482C375.37 251.24 375.531 248.112 375.577 241.534H371.529C370.724 243.006 369.988 244.087 369.091 245.053L372.012 243.788C373.139 245.743 373.898 247.33 374.726 249.515ZM362.053 241.511V244.547H364.238V241.511H362.053ZM362.053 247.606V250.964H364.238V247.606H362.053ZM386.64 235.347L390.78 235.738C390.642 236.152 390.619 236.152 390.343 237.578C390.228 238.13 390.182 238.337 390.067 238.866C391.539 238.705 392.528 238.544 393.264 238.314L393.333 242.04C392.781 242.086 392.781 242.086 391.631 242.224C391.01 242.293 389.745 242.408 389.17 242.454C388.342 245.168 387.744 246.755 386.663 249.124C386.18 250.182 385.973 250.596 385.076 252.39C384.777 252.965 384.777 252.965 384.639 253.287L380.89 251.24C382.523 249.055 384.11 245.789 385.145 242.546C384.708 242.546 384.708 242.546 383.857 242.546C383.328 242.546 383.328 242.546 382.799 242.523C382.707 242.523 382.615 242.523 381.902 242.523V238.843C382.776 239.004 383.834 239.073 385.26 239.073C385.513 239.073 385.628 239.073 386.088 239.05C386.111 238.866 386.111 238.866 386.295 238.084C386.479 237.302 386.617 236.175 386.64 235.347ZM402.579 240.959L400.9 244.34C398.738 242.983 396.484 241.948 393.747 241.028L395.656 237.854C398.554 238.889 400.44 239.717 402.579 240.959ZM402.372 251.493L400.67 255.127C399.819 254.138 398.945 253.402 397.703 252.62C397.634 253.701 397.358 254.368 396.737 255.012C395.84 255.909 394.23 256.438 392.39 256.438C390.55 256.438 388.986 255.886 388.043 254.92C387.284 254.138 386.893 253.149 386.893 252.068C386.893 249.4 389.124 247.537 392.321 247.537C392.804 247.537 393.172 247.56 393.931 247.675C393.862 246.801 393.839 246.364 393.839 245.835C393.839 244.892 393.885 244.156 393.977 243.121L397.772 243.282C397.588 244.087 397.519 244.777 397.519 245.881C397.519 246.709 397.565 247.399 397.703 248.549C399.106 249.17 400.187 249.791 401.245 250.596C401.314 250.642 401.682 250.941 402.372 251.493ZM394 251.102C393.379 250.872 392.988 250.803 392.436 250.803C391.355 250.803 390.665 251.263 390.665 251.976C390.665 252.643 391.309 253.08 392.298 253.08C393.448 253.08 394.046 252.574 394.046 251.608C394.046 251.447 394.023 251.125 394 251.102ZM410.146 249.515H409.065C407.938 249.515 407.271 249.538 406.673 249.607C406.742 248.894 406.788 248.181 406.788 247.1V238.429C406.788 237.279 406.742 236.428 406.673 235.784C407.34 235.853 407.938 235.876 409.042 235.876H420.657C421.761 235.876 422.405 235.853 423.049 235.784C422.957 236.405 422.934 237.233 422.934 238.429V247.1C422.934 248.25 422.957 248.963 423.049 249.607C422.382 249.538 421.715 249.515 420.634 249.515H418.702V252.781C418.702 253.31 418.909 253.402 420.197 253.402C421.6 253.402 422.014 253.31 422.198 253.011C422.336 252.758 422.451 251.562 422.474 250.159C423.693 250.78 424.36 251.056 425.763 251.424C425.556 254.253 425.28 255.265 424.521 255.909C423.877 256.438 422.888 256.599 420.036 256.599C415.781 256.599 415.183 256.3 415.183 254.207V249.515H413.803C413.619 250.711 413.481 251.194 413.044 252.022C411.802 254.46 409.525 256.024 405.822 256.99C405.247 255.679 404.81 254.943 403.959 253.839C407.892 253.126 409.594 251.953 410.146 249.515ZM410.169 238.797V239.763H419.507V238.797H410.169ZM410.169 242.247V243.236H419.507V242.247H410.169ZM410.169 245.72V246.709H419.507V245.72H410.169ZM435.791 238.107V237.026C435.791 236.29 435.745 235.784 435.653 235.255H439.632C439.54 235.761 439.494 236.313 439.494 237.026V238.107H445.152C446.532 238.107 447.475 238.061 448.326 237.946V241.626C447.498 241.534 446.716 241.488 445.29 241.488H437.102C437.033 242.684 437.033 242.73 436.964 243.42H443.68C444.899 243.42 445.451 243.397 446.072 243.328C445.98 244.179 445.98 244.317 445.888 246.64C445.727 250.803 445.405 253.241 444.784 254.621C444.14 256.139 443.105 256.645 440.736 256.645C440.161 256.645 439.149 256.599 437.792 256.53C437.677 255.173 437.47 254.345 436.849 252.965C438.137 253.126 439.218 253.218 440.207 253.218C441.38 253.218 441.679 252.919 441.909 251.516C442.093 250.458 442.231 248.756 442.277 246.732H436.481C436.182 248.089 435.607 249.607 434.871 251.01C433.675 253.264 432.019 255.035 429.328 256.898C428.592 255.587 427.925 254.782 426.752 253.839C430.225 251.769 431.789 249.906 432.663 246.824C433.1 245.214 433.307 243.65 433.33 241.488H430.478C429.282 241.488 428.201 241.534 427.281 241.626V237.946C428.27 238.061 429.19 238.107 430.455 238.107H435.791Z" fill="black"/>
<circle cx="118.048" cy="123.664" r="96.4024" fill="#0288D1" stroke="white" stroke-width="1.94752"/>
<circle cx="146.91" cy="161.371" r="49.024" fill="#0288D1" stroke="white" stroke-width="1.94752"/>
<circle cx="60.2256" cy="127.83" r="38.4736" fill="#0288D1" stroke="white" stroke-width="1.94752"/>
<path d="M118.119 47.1806H117.983C117.643 48.1326 117.235 49.2659 116.759 50.5806C116.306 51.8952 115.83 53.2552 115.331 54.6606C114.855 56.0432 114.402 57.3352 113.971 58.5366L113.801 59.0466C113.665 59.4546 113.495 59.9646 113.291 60.5766C113.087 61.1886 112.872 61.8346 112.645 62.5146C112.419 63.1719 112.203 63.7952 111.999 64.3846C111.795 64.9512 111.637 65.4159 111.523 65.7786C111.365 65.8466 111.195 65.8919 111.013 65.9146C110.855 65.9599 110.651 65.9826 110.401 65.9826C110.039 65.9826 109.71 65.8919 109.415 65.7106C109.143 65.5066 109.007 65.1892 109.007 64.7586C109.007 64.5546 109.041 64.3506 109.109 64.1466C109.177 63.9199 109.257 63.6819 109.347 63.4326C109.619 62.6619 109.948 61.7212 110.333 60.6106C110.741 59.4999 111.183 58.2872 111.659 56.9726C112.135 55.6579 112.634 54.3092 113.155 52.9266C113.677 51.5439 114.187 50.1952 114.685 48.8806C115.184 47.5659 115.649 46.3646 116.079 45.2766C116.261 45.1859 116.533 45.0952 116.895 45.0046C117.258 44.9139 117.632 44.8686 118.017 44.8686C118.471 44.8686 118.901 44.9366 119.309 45.0726C119.74 45.2086 120.012 45.4352 120.125 45.7526C120.669 47.0672 121.247 48.5632 121.859 50.2406C122.494 51.8952 123.129 53.6292 123.763 55.4426C124.398 57.2332 124.999 58.9786 125.565 60.6786C126.155 62.3786 126.676 63.9199 127.129 65.3026C126.971 65.5066 126.755 65.6652 126.483 65.7786C126.234 65.9146 125.951 65.9826 125.633 65.9826C125.203 65.9826 124.874 65.8919 124.647 65.7106C124.421 65.5066 124.228 65.1779 124.069 64.7246L122.199 59.1826L121.927 58.2306C121.474 56.8479 120.998 55.4539 120.499 54.0486C120.023 52.6432 119.57 51.3399 119.139 50.1386C118.731 48.9372 118.391 47.9512 118.119 47.1806ZM112.475 60.2026L113.359 57.9246H122.845L123.389 60.2026H112.475Z" fill="white"/>
<path d="M155.038 147.543C155.038 147.837 154.936 148.109 154.732 148.359C154.551 148.585 154.335 148.755 154.086 148.869C153.519 148.461 152.828 148.075 152.012 147.713C151.219 147.35 150.187 147.169 148.918 147.169C147.535 147.169 146.289 147.486 145.178 148.121C144.09 148.755 143.217 149.707 142.56 150.977C141.925 152.223 141.608 153.776 141.608 155.635C141.608 158.423 142.288 160.519 143.648 161.925C145.031 163.33 146.821 164.033 149.02 164.033C150.199 164.033 151.23 163.863 152.114 163.523C152.998 163.183 153.723 162.797 154.29 162.367C154.517 162.457 154.732 162.627 154.936 162.877C155.14 163.103 155.242 163.375 155.242 163.693C155.242 163.919 155.174 164.146 155.038 164.373C154.925 164.577 154.721 164.781 154.426 164.985C153.905 165.347 153.191 165.665 152.284 165.937C151.377 166.231 150.221 166.379 148.816 166.379C146.935 166.379 145.223 165.982 143.682 165.189C142.163 164.373 140.962 163.171 140.078 161.585C139.194 159.998 138.752 158.015 138.752 155.635C138.752 153.255 139.205 151.26 140.112 149.651C141.041 148.041 142.254 146.84 143.75 146.047C145.269 145.231 146.923 144.823 148.714 144.823C149.961 144.823 151.06 144.959 152.012 145.231C152.964 145.503 153.701 145.854 154.222 146.285C154.766 146.693 155.038 147.112 155.038 147.543Z" fill="white"/>
<path d="M64.3289 111.507V113.751H54.9789V111.507H64.3289ZM60.4189 113.751L61.5069 112.051C63.0482 112.051 64.3289 112.312 65.3489 112.833C66.3689 113.332 67.1282 114.001 67.6269 114.839C68.1482 115.678 68.4089 116.619 68.4089 117.661C68.4089 119.724 67.6609 121.254 66.1649 122.251C64.6916 123.249 62.5836 123.747 59.8409 123.747C59.2289 123.747 58.6169 123.725 58.0049 123.679C57.3929 123.657 56.7922 123.6 56.2029 123.509C55.6136 123.419 55.0469 123.305 54.5029 123.169C53.5509 122.897 53.0749 122.376 53.0749 121.605V104.197C53.0749 103.835 53.1656 103.551 53.3469 103.347C53.5509 103.143 53.8342 102.996 54.1969 102.905C54.9676 102.679 55.7836 102.531 56.6449 102.463C57.5289 102.373 58.4696 102.327 59.4669 102.327C62.0282 102.327 64.0229 102.792 65.4509 103.721C66.8789 104.628 67.5929 106.022 67.5929 107.903C67.5929 108.855 67.3549 109.739 66.8789 110.555C66.4256 111.349 65.6776 111.995 64.6349 112.493C63.6149 112.969 62.2436 113.207 60.5209 113.207L60.2149 111.507C61.7109 111.507 62.8442 111.201 63.6149 110.589C64.3856 109.955 64.7709 109.082 64.7709 107.971C64.7709 106.838 64.3176 105.999 63.4109 105.455C62.5269 104.889 61.2122 104.605 59.4669 104.605C58.6962 104.605 58.0162 104.639 57.4269 104.707C56.8376 104.753 56.2936 104.821 55.7949 104.911V121.095C56.3389 121.209 56.9622 121.299 57.6649 121.367C58.3902 121.435 59.1156 121.469 59.8409 121.469C61.7222 121.469 63.1502 121.152 64.1249 120.517C65.0996 119.883 65.5869 118.908 65.5869 117.593C65.5869 116.415 65.1449 115.485 64.2609 114.805C63.3996 114.103 62.1189 113.751 60.4189 113.751Z" fill="white"/>
<rect x="121.91" y="170.883" width="50" height="22" rx="2.68781" fill="black"/>
<path d="M131.752 176.854H134.183C134.417 176.854 134.534 177.049 134.534 177.296C134.534 177.556 134.417 177.751 134.183 177.751H128.502C128.268 177.751 128.138 177.556 128.138 177.296C128.138 177.049 128.268 176.854 128.502 176.854H130.738V175.775C130.738 175.528 130.933 175.411 131.232 175.411C131.531 175.411 131.752 175.528 131.752 175.775V176.854ZM132.662 180.442H134.391C134.612 180.442 134.742 180.624 134.742 180.897C134.742 181.157 134.612 181.365 134.391 181.365H128.177C127.943 181.365 127.813 181.157 127.813 180.897C127.813 180.624 127.943 180.442 128.177 180.442H131.726C132.103 179.714 132.402 178.947 132.597 178.297C132.662 178.076 132.805 177.972 133.013 177.972C133.052 177.972 133.104 177.972 133.156 177.985C133.377 178.024 133.533 178.18 133.533 178.401C133.533 178.453 133.52 178.505 133.507 178.57C133.286 179.207 132.987 179.857 132.662 180.442ZM133.988 183.471V185.954C133.988 186.721 133.598 187.046 132.831 187.046H129.789C129.035 187.046 128.632 186.721 128.632 185.954V183.471C128.632 182.704 129.035 182.379 129.789 182.379H132.831C133.598 182.379 133.988 182.704 133.988 183.471ZM130.049 186.149H132.597C132.844 186.149 133.013 186.045 133.013 185.785V183.653C133.013 183.38 132.844 183.276 132.597 183.276H130.049C129.789 183.276 129.62 183.38 129.62 183.653V185.785C129.62 186.045 129.789 186.149 130.049 186.149ZM135.184 187.072V176.906C135.184 176.139 135.535 175.814 136.341 175.814H138.746C139.448 175.814 139.799 176.204 139.799 176.724C139.799 176.893 139.76 177.062 139.695 177.244C139.344 178.193 138.824 179.181 138.291 180.013C138.226 180.117 138.187 180.195 138.187 180.26C138.187 180.325 138.226 180.39 138.304 180.468C139.175 181.378 139.89 182.509 139.89 183.913C139.89 185.278 139.279 185.876 138.109 185.876C137.706 185.876 137.199 185.85 136.9 185.772C136.653 185.707 136.536 185.551 136.536 185.317C136.536 185.265 136.536 185.226 136.549 185.174C136.588 184.94 136.744 184.797 136.952 184.797C136.991 184.797 137.03 184.797 137.069 184.81C137.316 184.862 137.693 184.901 137.979 184.901C138.603 184.901 138.863 184.667 138.863 183.848C138.863 182.808 138.161 181.729 137.368 180.845C137.212 180.676 137.134 180.468 137.134 180.26C137.134 180.078 137.199 179.896 137.316 179.727C137.836 178.973 138.369 177.959 138.642 177.101C138.668 177.023 138.681 176.971 138.681 176.919C138.681 176.776 138.59 176.724 138.408 176.724H136.562C136.315 176.724 136.172 176.802 136.172 177.049V187.072C136.172 187.345 135.977 187.488 135.665 187.488C135.353 187.488 135.184 187.345 135.184 187.072ZM129.347 178.011C129.412 177.985 129.49 177.972 129.542 177.972C129.724 177.972 129.854 178.063 129.945 178.232C130.153 178.609 130.361 179.155 130.491 179.61C130.504 179.662 130.517 179.714 130.517 179.753C130.517 179.961 130.387 180.104 130.166 180.169C130.114 180.182 130.049 180.195 129.997 180.195C129.815 180.195 129.659 180.091 129.594 179.896C129.477 179.493 129.295 178.973 129.113 178.609C129.074 178.531 129.061 178.453 129.061 178.388C129.061 178.219 129.152 178.089 129.347 178.011ZM145.324 181.027H143.699C143.452 181.027 143.309 180.832 143.309 180.559C143.309 180.273 143.452 180.091 143.699 180.091H149.12C150.069 180.091 150.485 180.429 150.485 181.287C150.485 183.185 150.29 184.94 149.991 185.928C149.731 186.799 149.224 187.15 148.301 187.15C147.651 187.15 147.157 187.098 146.754 186.968C146.481 186.89 146.364 186.695 146.364 186.487C146.364 186.435 146.377 186.383 146.39 186.331C146.455 186.071 146.624 185.928 146.832 185.928C146.897 185.928 146.962 185.941 147.027 185.967C147.339 186.071 147.742 186.149 148.145 186.149C148.652 186.149 148.899 186.006 149.042 185.538C149.289 184.732 149.445 183.068 149.445 181.365C149.445 181.079 149.289 181.027 149.003 181.027H146.364C146.156 184.03 144.726 186.045 142.36 187.267C142.23 187.332 142.113 187.358 142.009 187.358C141.84 187.358 141.684 187.267 141.58 187.111C141.515 187.02 141.489 186.916 141.489 186.812C141.489 186.63 141.58 186.448 141.762 186.357C142.581 185.915 143.335 185.421 143.959 184.706C144.843 183.666 145.22 182.366 145.324 181.027ZM148.249 175.606C148.353 175.567 148.431 175.541 148.522 175.541C148.704 175.541 148.847 175.645 148.938 175.84C149.757 177.621 151.148 179.298 152.812 180.364C152.981 180.468 153.059 180.65 153.059 180.819C153.059 180.936 153.033 181.04 152.968 181.131C152.851 181.3 152.682 181.378 152.5 181.378C152.383 181.378 152.253 181.339 152.123 181.248C150.42 180.052 148.873 178.206 147.989 176.269C147.95 176.191 147.937 176.113 147.937 176.035C147.937 175.853 148.054 175.697 148.249 175.606ZM145.467 175.619C145.688 175.71 145.805 175.866 145.805 176.048C145.805 176.113 145.792 176.204 145.753 176.282C144.908 178.18 143.348 180.026 141.697 181.222C141.593 181.313 141.45 181.352 141.32 181.352C141.177 181.352 141.034 181.3 140.93 181.183C140.839 181.092 140.8 180.949 140.8 180.819C140.8 180.65 140.865 180.494 140.995 180.403C142.607 179.311 143.985 177.634 144.752 175.866C144.843 175.658 144.999 175.554 145.194 175.554C145.285 175.554 145.376 175.58 145.467 175.619ZM159.325 184.498H155.581C155.347 184.498 155.217 184.29 155.217 184.03C155.217 183.783 155.347 183.588 155.581 183.588H159.325V182.886C159.325 182.652 159.533 182.522 159.819 182.522C160.131 182.522 160.313 182.652 160.313 182.886V183.588H164.239C164.473 183.588 164.603 183.783 164.603 184.03C164.603 184.29 164.473 184.498 164.239 184.498H160.313V186.136H165.383C165.617 186.136 165.76 186.318 165.76 186.591C165.76 186.864 165.617 187.046 165.383 187.046H154.411C154.164 187.046 154.021 186.864 154.021 186.591C154.021 186.318 154.164 186.136 154.411 186.136H159.325V184.498ZM158.376 179.48H156.647C156.582 179.909 156.517 180.273 156.426 180.572C156.153 181.521 155.685 182.275 155.061 182.795C154.918 182.912 154.775 182.977 154.632 182.977C154.515 182.977 154.398 182.925 154.307 182.808C154.216 182.717 154.177 182.6 154.177 182.483C154.177 182.34 154.229 182.21 154.346 182.119C154.944 181.612 155.334 180.975 155.529 180.312C155.594 180.078 155.659 179.805 155.698 179.48H154.398C154.164 179.48 154.034 179.298 154.034 179.038C154.034 178.765 154.164 178.596 154.398 178.596H155.776C155.802 178.167 155.815 177.673 155.815 177.101V176.841H154.723C154.489 176.841 154.372 176.672 154.372 176.412C154.372 176.139 154.489 175.97 154.723 175.97H160.365C160.599 175.97 160.729 176.126 160.729 176.399C160.729 176.659 160.599 176.841 160.365 176.841H159.325V178.596H160.651C160.885 178.596 161.002 178.765 161.002 179.038C161.002 179.298 160.885 179.48 160.651 179.48H159.325V182.08C159.325 182.327 159.104 182.444 158.805 182.444C158.519 182.444 158.376 182.327 158.376 182.08V179.48ZM158.376 176.841H156.764V177.153C156.764 177.686 156.751 178.167 156.725 178.596H158.376V176.841ZM162.549 176.438V180.429C162.549 180.676 162.354 180.806 162.042 180.806C161.756 180.806 161.561 180.663 161.561 180.429V176.425C161.561 176.191 161.756 176.061 162.042 176.061C162.354 176.061 162.549 176.204 162.549 176.438ZM164.304 181.274V175.931C164.304 175.671 164.499 175.541 164.785 175.541C165.097 175.541 165.292 175.671 165.292 175.931V181.482C165.292 182.34 164.876 182.691 163.862 182.691C163.433 182.691 162.978 182.665 162.64 182.6C162.38 182.548 162.25 182.392 162.25 182.158C162.25 182.119 162.25 182.067 162.263 182.028C162.302 181.768 162.458 181.651 162.653 181.651C162.679 181.651 162.705 181.651 162.744 181.664C163.017 181.729 163.368 181.768 163.654 181.768C164.2 181.768 164.304 181.677 164.304 181.274Z" fill="white"/>
<rect x="35.2256" y="129.498" width="50" height="22" rx="2.68781" fill="black"/>
<path d="M45.0676 135.469H47.4986C47.7326 135.469 47.8496 135.664 47.8496 135.911C47.8496 136.171 47.7326 136.366 47.4986 136.366H41.8176C41.5836 136.366 41.4536 136.171 41.4536 135.911C41.4536 135.664 41.5836 135.469 41.8176 135.469H44.0536V134.39C44.0536 134.143 44.2486 134.026 44.5476 134.026C44.8466 134.026 45.0676 134.143 45.0676 134.39V135.469ZM45.9776 139.057H47.7066C47.9276 139.057 48.0576 139.239 48.0576 139.512C48.0576 139.772 47.9276 139.98 47.7066 139.98H41.4926C41.2586 139.98 41.1286 139.772 41.1286 139.512C41.1286 139.239 41.2586 139.057 41.4926 139.057H45.0416C45.4186 138.329 45.7176 137.562 45.9126 136.912C45.9776 136.691 46.1206 136.587 46.3286 136.587C46.3676 136.587 46.4196 136.587 46.4716 136.6C46.6926 136.639 46.8486 136.795 46.8486 137.016C46.8486 137.068 46.8356 137.12 46.8226 137.185C46.6016 137.822 46.3026 138.472 45.9776 139.057ZM47.3036 142.086V144.569C47.3036 145.336 46.9136 145.661 46.1466 145.661H43.1046C42.3506 145.661 41.9476 145.336 41.9476 144.569V142.086C41.9476 141.319 42.3506 140.994 43.1046 140.994H46.1466C46.9136 140.994 47.3036 141.319 47.3036 142.086ZM43.3646 144.764H45.9126C46.1596 144.764 46.3286 144.66 46.3286 144.4V142.268C46.3286 141.995 46.1596 141.891 45.9126 141.891H43.3646C43.1046 141.891 42.9356 141.995 42.9356 142.268V144.4C42.9356 144.66 43.1046 144.764 43.3646 144.764ZM48.4996 145.687V135.521C48.4996 134.754 48.8506 134.429 49.6566 134.429H52.0616C52.7636 134.429 53.1146 134.819 53.1146 135.339C53.1146 135.508 53.0756 135.677 53.0106 135.859C52.6596 136.808 52.1396 137.796 51.6066 138.628C51.5416 138.732 51.5026 138.81 51.5026 138.875C51.5026 138.94 51.5416 139.005 51.6196 139.083C52.4906 139.993 53.2056 141.124 53.2056 142.528C53.2056 143.893 52.5946 144.491 51.4246 144.491C51.0216 144.491 50.5146 144.465 50.2156 144.387C49.9686 144.322 49.8516 144.166 49.8516 143.932C49.8516 143.88 49.8516 143.841 49.8646 143.789C49.9036 143.555 50.0596 143.412 50.2676 143.412C50.3066 143.412 50.3456 143.412 50.3846 143.425C50.6316 143.477 51.0086 143.516 51.2946 143.516C51.9186 143.516 52.1786 143.282 52.1786 142.463C52.1786 141.423 51.4766 140.344 50.6836 139.46C50.5276 139.291 50.4496 139.083 50.4496 138.875C50.4496 138.693 50.5146 138.511 50.6316 138.342C51.1516 137.588 51.6846 136.574 51.9576 135.716C51.9836 135.638 51.9966 135.586 51.9966 135.534C51.9966 135.391 51.9056 135.339 51.7236 135.339H49.8776C49.6306 135.339 49.4876 135.417 49.4876 135.664V145.687C49.4876 145.96 49.2926 146.103 48.9806 146.103C48.6686 146.103 48.4996 145.96 48.4996 145.687ZM42.6626 136.626C42.7276 136.6 42.8056 136.587 42.8576 136.587C43.0396 136.587 43.1696 136.678 43.2606 136.847C43.4686 137.224 43.6766 137.77 43.8066 138.225C43.8196 138.277 43.8326 138.329 43.8326 138.368C43.8326 138.576 43.7026 138.719 43.4816 138.784C43.4296 138.797 43.3646 138.81 43.3126 138.81C43.1306 138.81 42.9746 138.706 42.9096 138.511C42.7926 138.108 42.6106 137.588 42.4286 137.224C42.3896 137.146 42.3766 137.068 42.3766 137.003C42.3766 136.834 42.4676 136.704 42.6626 136.626ZM58.6396 139.642H57.0146C56.7676 139.642 56.6246 139.447 56.6246 139.174C56.6246 138.888 56.7676 138.706 57.0146 138.706H62.4356C63.3846 138.706 63.8006 139.044 63.8006 139.902C63.8006 141.8 63.6056 143.555 63.3066 144.543C63.0466 145.414 62.5396 145.765 61.6166 145.765C60.9666 145.765 60.4726 145.713 60.0696 145.583C59.7966 145.505 59.6796 145.31 59.6796 145.102C59.6796 145.05 59.6926 144.998 59.7056 144.946C59.7706 144.686 59.9396 144.543 60.1476 144.543C60.2126 144.543 60.2776 144.556 60.3426 144.582C60.6546 144.686 61.0576 144.764 61.4606 144.764C61.9676 144.764 62.2146 144.621 62.3576 144.153C62.6046 143.347 62.7606 141.683 62.7606 139.98C62.7606 139.694 62.6046 139.642 62.3186 139.642H59.6796C59.4716 142.645 58.0416 144.66 55.6756 145.882C55.5456 145.947 55.4286 145.973 55.3246 145.973C55.1556 145.973 54.9996 145.882 54.8956 145.726C54.8306 145.635 54.8046 145.531 54.8046 145.427C54.8046 145.245 54.8956 145.063 55.0776 144.972C55.8966 144.53 56.6506 144.036 57.2746 143.321C58.1586 142.281 58.5356 140.981 58.6396 139.642ZM61.5646 134.221C61.6686 134.182 61.7466 134.156 61.8376 134.156C62.0196 134.156 62.1626 134.26 62.2536 134.455C63.0726 136.236 64.4636 137.913 66.1276 138.979C66.2966 139.083 66.3746 139.265 66.3746 139.434C66.3746 139.551 66.3486 139.655 66.2836 139.746C66.1666 139.915 65.9976 139.993 65.8156 139.993C65.6986 139.993 65.5686 139.954 65.4386 139.863C63.7356 138.667 62.1886 136.821 61.3046 134.884C61.2656 134.806 61.2526 134.728 61.2526 134.65C61.2526 134.468 61.3696 134.312 61.5646 134.221ZM58.7826 134.234C59.0036 134.325 59.1206 134.481 59.1206 134.663C59.1206 134.728 59.1076 134.819 59.0686 134.897C58.2236 136.795 56.6636 138.641 55.0126 139.837C54.9086 139.928 54.7656 139.967 54.6356 139.967C54.4926 139.967 54.3496 139.915 54.2456 139.798C54.1546 139.707 54.1156 139.564 54.1156 139.434C54.1156 139.265 54.1806 139.109 54.3106 139.018C55.9226 137.926 57.3006 136.249 58.0676 134.481C58.1586 134.273 58.3146 134.169 58.5096 134.169C58.6006 134.169 58.6916 134.195 58.7826 134.234ZM72.6406 143.113H68.8966C68.6626 143.113 68.5326 142.905 68.5326 142.645C68.5326 142.398 68.6626 142.203 68.8966 142.203H72.6406V141.501C72.6406 141.267 72.8486 141.137 73.1346 141.137C73.4466 141.137 73.6286 141.267 73.6286 141.501V142.203H77.5546C77.7886 142.203 77.9186 142.398 77.9186 142.645C77.9186 142.905 77.7886 143.113 77.5546 143.113H73.6286V144.751H78.6986C78.9326 144.751 79.0756 144.933 79.0756 145.206C79.0756 145.479 78.9326 145.661 78.6986 145.661H67.7266C67.4796 145.661 67.3366 145.479 67.3366 145.206C67.3366 144.933 67.4796 144.751 67.7266 144.751H72.6406V143.113ZM71.6916 138.095H69.9626C69.8976 138.524 69.8326 138.888 69.7416 139.187C69.4686 140.136 69.0006 140.89 68.3766 141.41C68.2336 141.527 68.0906 141.592 67.9476 141.592C67.8306 141.592 67.7136 141.54 67.6226 141.423C67.5316 141.332 67.4926 141.215 67.4926 141.098C67.4926 140.955 67.5446 140.825 67.6616 140.734C68.2596 140.227 68.6496 139.59 68.8446 138.927C68.9096 138.693 68.9746 138.42 69.0136 138.095H67.7136C67.4796 138.095 67.3496 137.913 67.3496 137.653C67.3496 137.38 67.4796 137.211 67.7136 137.211H69.0916C69.1176 136.782 69.1306 136.288 69.1306 135.716V135.456H68.0386C67.8046 135.456 67.6876 135.287 67.6876 135.027C67.6876 134.754 67.8046 134.585 68.0386 134.585H73.6806C73.9146 134.585 74.0446 134.741 74.0446 135.014C74.0446 135.274 73.9146 135.456 73.6806 135.456H72.6406V137.211H73.9666C74.2006 137.211 74.3176 137.38 74.3176 137.653C74.3176 137.913 74.2006 138.095 73.9666 138.095H72.6406V140.695C72.6406 140.942 72.4196 141.059 72.1206 141.059C71.8346 141.059 71.6916 140.942 71.6916 140.695V138.095ZM71.6916 135.456H70.0796V135.768C70.0796 136.301 70.0666 136.782 70.0406 137.211H71.6916V135.456ZM75.8646 135.053V139.044C75.8646 139.291 75.6696 139.421 75.3576 139.421C75.0716 139.421 74.8766 139.278 74.8766 139.044V135.04C74.8766 134.806 75.0716 134.676 75.3576 134.676C75.6696 134.676 75.8646 134.819 75.8646 135.053ZM77.6196 139.889V134.546C77.6196 134.286 77.8146 134.156 78.1006 134.156C78.4126 134.156 78.6076 134.286 78.6076 134.546V140.097C78.6076 140.955 78.1916 141.306 77.1776 141.306C76.7486 141.306 76.2936 141.28 75.9556 141.215C75.6956 141.163 75.5656 141.007 75.5656 140.773C75.5656 140.734 75.5656 140.682 75.5786 140.643C75.6176 140.383 75.7736 140.266 75.9686 140.266C75.9946 140.266 76.0206 140.266 76.0596 140.279C76.3326 140.344 76.6836 140.383 76.9696 140.383C77.5156 140.383 77.6196 140.292 77.6196 139.889Z" fill="white"/>
<rect x="92.6428" y="70.6575" width="50" height="22" rx="2.68781" fill="black"/>
<path d="M104.773 85.5985H110.129C110.389 85.5985 110.532 85.8195 110.532 86.0925C110.532 86.3655 110.389 86.6125 110.129 86.6125H99.1438C98.8838 86.6125 98.7408 86.3655 98.7408 86.0925C98.7408 85.8195 98.8838 85.5985 99.1438 85.5985H103.707V75.8485C103.707 75.5755 103.928 75.4195 104.253 75.4195C104.565 75.4195 104.773 75.5755 104.773 75.8485V79.4365H109.102C109.349 79.4365 109.505 79.6445 109.505 79.9305C109.505 80.2165 109.349 80.4505 109.102 80.4505H104.773V85.5985ZM113.041 86.8595V81.7895C113.041 81.2565 113.08 80.6585 113.145 80.0865C112.911 80.5285 112.638 80.9705 112.339 81.3215C112.209 81.4645 112.079 81.5295 111.936 81.5295C111.806 81.5295 111.689 81.4775 111.572 81.3865C111.455 81.2825 111.39 81.1395 111.39 80.9965C111.39 80.8795 111.429 80.7625 111.52 80.6585C112.768 79.2285 113.717 77.3435 114.185 75.5755C114.25 75.3545 114.419 75.2505 114.64 75.2505C114.692 75.2505 114.757 75.2635 114.822 75.2765C115.056 75.3415 115.199 75.4715 115.199 75.7055C115.199 75.7705 115.186 75.8355 115.16 75.9135C114.952 76.6545 114.575 77.6425 114.055 78.6695V86.8595C114.055 87.1065 113.86 87.2365 113.548 87.2365C113.262 87.2365 113.041 87.1065 113.041 86.8595ZM119.593 77.6815H122.999C123.246 77.6815 123.376 77.8895 123.376 78.1625C123.376 78.4225 123.246 78.6305 122.999 78.6305H115.563C115.316 78.6305 115.199 78.4225 115.199 78.1625C115.199 77.8895 115.316 77.6815 115.563 77.6815H118.579V75.7185C118.579 75.4715 118.787 75.3285 119.073 75.3285C119.385 75.3285 119.593 75.4715 119.593 75.7185V77.6815ZM120.399 85.6505H123.285C123.532 85.6505 123.662 85.8585 123.662 86.1315C123.662 86.4175 123.532 86.5995 123.285 86.5995H115.186C114.952 86.5995 114.809 86.4175 114.809 86.1315C114.809 85.8585 114.952 85.6505 115.186 85.6505H119.372C120.074 83.8695 120.698 81.7765 121.062 79.8785C121.114 79.6055 121.27 79.4755 121.491 79.4755C121.556 79.4755 121.608 79.4885 121.686 79.5015C121.972 79.5665 122.154 79.7225 122.154 79.9695C122.154 80.0215 122.154 80.0735 122.141 80.1255C121.673 81.9975 121.075 83.9865 120.399 85.6505ZM116.304 79.5535C116.395 79.5145 116.486 79.5015 116.564 79.5015C116.759 79.5015 116.902 79.6055 116.98 79.8005C117.448 81.1005 117.903 82.7125 118.215 84.2595C118.228 84.2985 118.228 84.3505 118.228 84.3895C118.228 84.6495 118.046 84.7925 117.786 84.8445C117.721 84.8575 117.656 84.8705 117.591 84.8705C117.37 84.8705 117.201 84.7535 117.162 84.4935C116.889 82.9465 116.473 81.4385 116.005 80.1515C115.979 80.0865 115.966 80.0215 115.966 79.9695C115.966 79.7745 116.096 79.6185 116.304 79.5535ZM130.058 84.2725H126.314C126.08 84.2725 125.95 84.0645 125.95 83.8045C125.95 83.5575 126.08 83.3625 126.314 83.3625H130.058V82.6605C130.058 82.4265 130.266 82.2965 130.552 82.2965C130.864 82.2965 131.046 82.4265 131.046 82.6605V83.3625H134.972C135.206 83.3625 135.336 83.5575 135.336 83.8045C135.336 84.0645 135.206 84.2725 134.972 84.2725H131.046V85.9105H136.116C136.35 85.9105 136.493 86.0925 136.493 86.3655C136.493 86.6385 136.35 86.8205 136.116 86.8205H125.144C124.897 86.8205 124.754 86.6385 124.754 86.3655C124.754 86.0925 124.897 85.9105 125.144 85.9105H130.058V84.2725ZM129.109 79.2545H127.38C127.315 79.6835 127.25 80.0475 127.159 80.3465C126.886 81.2955 126.418 82.0495 125.794 82.5695C125.651 82.6865 125.508 82.7515 125.365 82.7515C125.248 82.7515 125.131 82.6995 125.04 82.5825C124.949 82.4915 124.91 82.3745 124.91 82.2575C124.91 82.1145 124.962 81.9845 125.079 81.8935C125.677 81.3865 126.067 80.7495 126.262 80.0865C126.327 79.8525 126.392 79.5795 126.431 79.2545H125.131C124.897 79.2545 124.767 79.0725 124.767 78.8125C124.767 78.5395 124.897 78.3705 125.131 78.3705H126.509C126.535 77.9415 126.548 77.4475 126.548 76.8755V76.6155H125.456C125.222 76.6155 125.105 76.4465 125.105 76.1865C125.105 75.9135 125.222 75.7445 125.456 75.7445H131.098C131.332 75.7445 131.462 75.9005 131.462 76.1735C131.462 76.4335 131.332 76.6155 131.098 76.6155H130.058V78.3705H131.384C131.618 78.3705 131.735 78.5395 131.735 78.8125C131.735 79.0725 131.618 79.2545 131.384 79.2545H130.058V81.8545C130.058 82.1015 129.837 82.2185 129.538 82.2185C129.252 82.2185 129.109 82.1015 129.109 81.8545V79.2545ZM129.109 76.6155H127.497V76.9275C127.497 77.4605 127.484 77.9415 127.458 78.3705H129.109V76.6155ZM133.282 76.2125V80.2035C133.282 80.4505 133.087 80.5805 132.775 80.5805C132.489 80.5805 132.294 80.4375 132.294 80.2035V76.1995C132.294 75.9655 132.489 75.8355 132.775 75.8355C133.087 75.8355 133.282 75.9785 133.282 76.2125ZM135.037 81.0485V75.7055C135.037 75.4455 135.232 75.3155 135.518 75.3155C135.83 75.3155 136.025 75.4455 136.025 75.7055V81.2565C136.025 82.1145 135.609 82.4655 134.595 82.4655C134.166 82.4655 133.711 82.4395 133.373 82.3745C133.113 82.3225 132.983 82.1665 132.983 81.9325C132.983 81.8935 132.983 81.8415 132.996 81.8025C133.035 81.5425 133.191 81.4255 133.386 81.4255C133.412 81.4255 133.438 81.4255 133.477 81.4385C133.75 81.5035 134.101 81.5425 134.387 81.5425C134.933 81.5425 135.037 81.4515 135.037 81.0485Z" fill="white"/>
<path d="M63.1928 244.892V245.651H68.0228C69.1728 245.651 69.7938 245.628 70.3918 245.559V248.043C69.7248 247.974 69.1958 247.951 68.0688 247.951H62.2498V248.756H68.3678C69.7708 248.756 70.5068 248.733 71.0588 248.664V251.631C70.2538 251.539 69.6558 251.516 68.3678 251.516H64.9638C66.4588 252.436 69.0118 253.195 71.5648 253.494C70.7598 254.69 70.6218 254.966 69.8858 256.691C68.0458 256.254 67.0568 255.932 65.6998 255.311C64.1588 254.621 63.2618 254.046 62.1808 253.103C62.2268 253.701 62.2498 254.069 62.2498 254.414V255.288C62.2498 256.024 62.2728 256.369 62.3878 256.852H58.6158C58.7078 256.369 58.7538 255.978 58.7538 255.288V254.414C58.7538 253.908 58.7538 253.563 58.8228 253.103C57.6958 254.138 56.6148 254.828 55.0048 255.518C53.9008 255.978 52.5898 256.392 51.1868 256.737C50.7498 255.564 50.3128 254.759 49.5308 253.655C52.2908 253.264 54.3378 252.574 55.9248 251.516H52.6818C51.4168 251.516 50.7958 251.539 50.0368 251.631V248.664C50.5888 248.733 51.2558 248.756 52.6818 248.756H58.7538V247.951H54.6828C53.7398 247.951 53.0958 247.974 52.4058 248.02C52.4748 247.422 52.4978 246.824 52.4978 245.904V244.018C52.4978 243.443 52.4978 242.983 52.5668 242.293C51.9458 242.96 51.6238 243.236 50.8648 243.857C50.4278 242.385 50.1058 241.649 49.3698 240.522C51.0488 239.326 52.1758 238.107 53.2568 236.336C53.5788 235.83 53.8548 235.255 53.9698 234.864L57.6728 235.347C57.2588 236.106 57.0978 236.382 56.6838 237.003H59.9728C60.3868 236.336 60.6858 235.715 60.9848 234.887L64.6878 235.209C64.3198 235.899 64.0208 236.405 63.6528 237.003H67.7928C68.8278 237.003 69.4488 236.98 70.1618 236.888V239.625C69.6788 239.579 69.1498 239.556 68.3678 239.556H63.1928V240.269H67.1488C68.5058 240.269 68.8048 240.269 69.4718 240.177V242.293C68.7818 242.224 68.5518 242.224 67.1488 242.224H63.1928V242.937H67.1488C68.5288 242.937 68.7128 242.937 69.4718 242.845V244.961C68.8738 244.892 68.5288 244.892 67.1488 244.892H63.1928ZM59.8118 244.892H55.8788V245.651H59.8118V244.892ZM59.8118 242.937V242.224H55.8788V242.937H59.8118ZM59.8118 240.269V239.556H55.8788V240.269H59.8118ZM77.2228 244.777V243.466C76.0498 244.133 75.4288 244.409 74.1408 244.938C73.5888 243.42 73.2438 242.753 72.4158 241.557C74.3248 240.982 75.9578 240.177 77.7518 238.935C79.5228 237.693 80.6038 236.658 81.5698 235.232H85.3188C86.3078 236.635 87.3888 237.624 89.2518 238.843C91.0458 240.039 92.5638 240.752 94.6568 241.396C93.8288 242.753 93.4608 243.581 93.0468 245.007C91.7128 244.455 90.9998 244.11 89.9418 243.512V244.777C89.3208 244.708 88.6998 244.685 87.7338 244.685H79.3618C78.5798 244.685 77.9358 244.708 77.2228 244.777ZM80.2588 241.511H86.8828C85.4338 240.43 84.5828 239.625 83.5018 238.337C82.3978 239.717 81.6848 240.407 80.2588 241.511ZM78.9248 256.691H75.2218C75.3138 255.932 75.3598 255.265 75.3598 254.115V248.434C75.3598 247.376 75.3138 246.686 75.2448 245.996C75.7738 246.042 76.4408 246.065 77.4528 246.065H89.5968C90.6088 246.065 91.2758 246.042 91.8278 245.996C91.7358 246.663 91.7128 247.33 91.7128 248.434V254.138C91.7128 255.357 91.7358 255.932 91.8508 256.691H88.1478V255.748H78.9248V256.691ZM78.9248 249.262V252.551H88.1478V249.262H78.9248ZM112.505 249.515L109.147 250.987C108.48 248.595 107.767 246.916 106.732 245.191C106.594 245.329 106.548 245.398 106.364 245.582C105.835 244.984 105.674 244.8 105.26 244.409V253.218C105.26 253.977 105.283 254.667 105.329 255.38H101.994V254.092H99.8548V256.139H96.3818C96.4738 255.403 96.5198 254.414 96.5198 252.988V240.752C96.5198 239.326 96.4968 238.912 96.4278 238.245C97.0488 238.314 97.2098 238.314 98.4058 238.314H98.9118C99.3948 237.118 99.6248 236.336 99.8778 235.094L103.535 235.531C102.891 237.141 102.891 237.141 102.362 238.314H103.397C104.179 238.314 104.8 238.291 105.329 238.245C105.306 238.452 105.306 238.452 105.26 238.958C105.26 238.958 105.26 239.464 105.26 240.2V241.465C106.18 240.2 107.146 238.314 107.652 236.727C107.859 236.129 107.974 235.623 108.043 235.117L111.677 235.646C111.562 235.853 111.401 236.313 111.263 236.773C111.079 237.394 111.01 237.578 110.826 238.084H115.058C116.024 238.084 116.53 238.061 116.99 237.992C116.898 238.682 116.898 238.935 116.875 239.556C116.875 240.453 116.852 241.005 116.714 246.778C116.645 249.354 116.392 252.137 116.116 253.448C115.748 255.15 115.311 255.84 114.368 256.254C113.701 256.553 112.39 256.737 111.01 256.737C110.55 256.737 110.067 256.737 109.308 256.714C109.147 255.288 108.963 254.483 108.411 253.126C109.745 253.287 110.412 253.333 111.079 253.333C112.16 253.333 112.528 253.149 112.735 252.482C113.149 251.24 113.31 248.112 113.356 241.534H109.308C108.503 243.006 107.767 244.087 106.87 245.053L109.791 243.788C110.918 245.743 111.677 247.33 112.505 249.515ZM99.8318 241.511V244.547H102.017V241.511H99.8318ZM99.8318 247.606V250.964H102.017V247.606H99.8318ZM124.419 235.347L128.559 235.738C128.421 236.152 128.398 236.152 128.122 237.578C128.007 238.13 127.961 238.337 127.846 238.866C129.318 238.705 130.307 238.544 131.043 238.314L131.112 242.04C130.56 242.086 130.56 242.086 129.41 242.224C128.789 242.293 127.524 242.408 126.949 242.454C126.121 245.168 125.523 246.755 124.442 249.124C123.959 250.182 123.752 250.596 122.855 252.39C122.556 252.965 122.556 252.965 122.418 253.287L118.669 251.24C120.302 249.055 121.889 245.789 122.924 242.546C122.487 242.546 122.487 242.546 121.636 242.546C121.107 242.546 121.107 242.546 120.578 242.523C120.486 242.523 120.394 242.523 119.681 242.523V238.843C120.555 239.004 121.613 239.073 123.039 239.073C123.292 239.073 123.407 239.073 123.867 239.05C123.89 238.866 123.89 238.866 124.074 238.084C124.258 237.302 124.396 236.175 124.419 235.347ZM140.358 240.959L138.679 244.34C136.517 242.983 134.263 241.948 131.526 241.028L133.435 237.854C136.333 238.889 138.219 239.717 140.358 240.959ZM140.151 251.493L138.449 255.127C137.598 254.138 136.724 253.402 135.482 252.62C135.413 253.701 135.137 254.368 134.516 255.012C133.619 255.909 132.009 256.438 130.169 256.438C128.329 256.438 126.765 255.886 125.822 254.92C125.063 254.138 124.672 253.149 124.672 252.068C124.672 249.4 126.903 247.537 130.1 247.537C130.583 247.537 130.951 247.56 131.71 247.675C131.641 246.801 131.618 246.364 131.618 245.835C131.618 244.892 131.664 244.156 131.756 243.121L135.551 243.282C135.367 244.087 135.298 244.777 135.298 245.881C135.298 246.709 135.344 247.399 135.482 248.549C136.885 249.17 137.966 249.791 139.024 250.596C139.093 250.642 139.461 250.941 140.151 251.493ZM131.779 251.102C131.158 250.872 130.767 250.803 130.215 250.803C129.134 250.803 128.444 251.263 128.444 251.976C128.444 252.643 129.088 253.08 130.077 253.08C131.227 253.08 131.825 252.574 131.825 251.608C131.825 251.447 131.802 251.125 131.779 251.102ZM147.925 249.515H146.844C145.717 249.515 145.05 249.538 144.452 249.607C144.521 248.894 144.567 248.181 144.567 247.1V238.429C144.567 237.279 144.521 236.428 144.452 235.784C145.119 235.853 145.717 235.876 146.821 235.876H158.436C159.54 235.876 160.184 235.853 160.828 235.784C160.736 236.405 160.713 237.233 160.713 238.429V247.1C160.713 248.25 160.736 248.963 160.828 249.607C160.161 249.538 159.494 249.515 158.413 249.515H156.481V252.781C156.481 253.31 156.688 253.402 157.976 253.402C159.379 253.402 159.793 253.31 159.977 253.011C160.115 252.758 160.23 251.562 160.253 250.159C161.472 250.78 162.139 251.056 163.542 251.424C163.335 254.253 163.059 255.265 162.3 255.909C161.656 256.438 160.667 256.599 157.815 256.599C153.56 256.599 152.962 256.3 152.962 254.207V249.515H151.582C151.398 250.711 151.26 251.194 150.823 252.022C149.581 254.46 147.304 256.024 143.601 256.99C143.026 255.679 142.589 254.943 141.738 253.839C145.671 253.126 147.373 251.953 147.925 249.515ZM147.948 238.797V239.763H157.286V238.797H147.948ZM147.948 242.247V243.236H157.286V242.247H147.948ZM147.948 245.72V246.709H157.286V245.72H147.948ZM173.57 238.107V237.026C173.57 236.29 173.524 235.784 173.432 235.255H177.411C177.319 235.761 177.273 236.313 177.273 237.026V238.107H182.931C184.311 238.107 185.254 238.061 186.105 237.946V241.626C185.277 241.534 184.495 241.488 183.069 241.488H174.881C174.812 242.684 174.812 242.73 174.743 243.42H181.459C182.678 243.42 183.23 243.397 183.851 243.328C183.759 244.179 183.759 244.317 183.667 246.64C183.506 250.803 183.184 253.241 182.563 254.621C181.919 256.139 180.884 256.645 178.515 256.645C177.94 256.645 176.928 256.599 175.571 256.53C175.456 255.173 175.249 254.345 174.628 252.965C175.916 253.126 176.997 253.218 177.986 253.218C179.159 253.218 179.458 252.919 179.688 251.516C179.872 250.458 180.01 248.756 180.056 246.732H174.26C173.961 248.089 173.386 249.607 172.65 251.01C171.454 253.264 169.798 255.035 167.107 256.898C166.371 255.587 165.704 254.782 164.531 253.839C168.004 251.769 169.568 249.906 170.442 246.824C170.879 245.214 171.086 243.65 171.109 241.488H168.257C167.061 241.488 165.98 241.534 165.06 241.626V237.946C166.049 238.061 166.969 238.107 168.234 238.107H173.57Z" fill="black"/>
</g>
<defs>
<clipPath id="clip0_207_3326">
<rect width="281" height="530" fill="white" transform="translate(530) rotate(90)"/>
</clipPath>
</defs>
</svg>
