<svg width="531" height="281" viewBox="0 0 531 281" fill="none" xmlns="http://www.w3.org/2000/svg">
<g clip-path="url(#clip0_209_3267)">
<rect width="281" height="530" transform="translate(530.865) rotate(90)" fill="white"/>
<rect x="0.864502" y="0.5" width="530" height="280" fill="#B3E5FC"/>
<path d="M265.619 140.5L265.619 71.3934" stroke="black" stroke-width="3" stroke-linecap="round"/>
<path d="M205.184 140.5L265.619 71.3934" stroke="black" stroke-width="3" stroke-linecap="round"/>
<path d="M144.185 140.499L265.619 71.3934" stroke="black" stroke-width="3" stroke-linecap="round"/>
<path d="M326.617 140.5L265.619 71.3945" stroke="black" stroke-width="3" stroke-linecap="round"/>
<path d="M387.616 140.499L265.619 71.3945" stroke="black" stroke-width="3" stroke-linecap="round"/>
<path d="M265.619 140.5L265.619 209.607" stroke="black" stroke-width="3" stroke-linecap="round"/>
<path d="M205.184 140.5L265.619 209.607" stroke="black" stroke-width="3" stroke-linecap="round"/>
<path d="M144.185 140.501L265.619 209.607" stroke="black" stroke-width="3" stroke-linecap="round"/>
<path d="M326.617 140.5L265.619 209.606" stroke="black" stroke-width="3" stroke-linecap="round"/>
<path d="M387.616 140.501L265.619 209.606" stroke="black" stroke-width="3" stroke-linecap="round"/>
<circle cx="143.903" cy="140.499" r="9" fill="#0288D1" stroke="white" stroke-width="2"/>
<circle cx="204.902" cy="140.499" r="9" fill="#0288D1" stroke="white" stroke-width="2"/>
<circle cx="265.337" cy="140.499" r="9" fill="#0288D1" stroke="white" stroke-width="2"/>
<circle cx="326.899" cy="140.499" r="9" fill="#0288D1" stroke="white" stroke-width="2"/>
<circle cx="387.898" cy="140.499" r="9" fill="#0288D1" stroke="white" stroke-width="2"/>
<mask id="path-17-inside-1_209_3267" fill="white">
<path fill-rule="evenodd" clip-rule="evenodd" d="M195.573 29.3934C192.992 29.3934 190.9 31.4853 190.9 34.0658L190.9 66.721C190.9 69.3015 192.992 71.3934 195.573 71.3934L255.337 71.3934C255.337 71.3938 255.337 71.3942 255.337 71.3945C255.337 76.9174 259.814 81.3945 265.337 81.3945C270.859 81.3945 275.337 76.9174 275.337 71.3945C275.337 71.3942 275.337 71.3938 275.337 71.3934L336.228 71.3934C338.809 71.3934 340.9 69.3015 340.9 66.721L340.9 34.0658C340.9 31.4853 338.809 29.3934 336.228 29.3934L195.573 29.3934Z"/>
</mask>
<path fill-rule="evenodd" clip-rule="evenodd" d="M195.573 29.3934C192.992 29.3934 190.9 31.4853 190.9 34.0658L190.9 66.721C190.9 69.3015 192.992 71.3934 195.573 71.3934L255.337 71.3934C255.337 71.3938 255.337 71.3942 255.337 71.3945C255.337 76.9174 259.814 81.3945 265.337 81.3945C270.859 81.3945 275.337 76.9174 275.337 71.3945C275.337 71.3942 275.337 71.3938 275.337 71.3934L336.228 71.3934C338.809 71.3934 340.9 69.3015 340.9 66.721L340.9 34.0658C340.9 31.4853 338.809 29.3934 336.228 29.3934L195.573 29.3934Z" fill="#0288D1"/>
<path d="M195.573 29.3934L195.573 27.3934L195.573 29.3934ZM255.337 71.3934L257.337 71.3934L257.337 69.3934L255.337 69.3934L255.337 71.3934ZM275.337 71.3934L275.337 69.3934L273.337 69.3934L273.337 71.3934L275.337 71.3934ZM340.9 66.721L338.9 66.721L340.9 66.721ZM340.9 34.0658L342.9 34.0658L340.9 34.0658ZM336.228 29.3934L336.228 27.3934L336.228 29.3934ZM192.9 34.0658C192.9 32.5899 194.097 31.3934 195.573 31.3934L195.573 27.3934C191.888 27.3934 188.9 30.3808 188.9 34.0658L192.9 34.0658ZM192.9 66.721L192.9 34.0658L188.9 34.0658L188.9 66.721L192.9 66.721ZM195.573 69.3934C194.097 69.3934 192.9 68.197 192.9 66.721L188.9 66.721C188.9 70.4061 191.888 73.3934 195.573 73.3934L195.573 69.3934ZM255.337 69.3934L195.573 69.3934L195.573 73.3934L255.337 73.3934L255.337 69.3934ZM257.337 71.3945C257.337 71.3945 257.337 71.3945 257.337 71.3945C257.337 71.3945 257.337 71.3945 257.337 71.3945L257.337 71.3945C257.337 71.3945 257.337 71.3945 257.337 71.3945C257.337 71.3945 257.337 71.3945 257.337 71.3945C257.337 71.3945 257.337 71.3945 257.337 71.3945L257.337 71.3945L257.337 71.3945C257.337 71.3945 257.337 71.3945 257.337 71.3945C257.337 71.3945 257.337 71.3945 257.337 71.3945C257.337 71.3945 257.337 71.3945 257.337 71.3945L257.337 71.3945C257.337 71.3945 257.337 71.3945 257.337 71.3945C257.337 71.3945 257.337 71.3945 257.337 71.3945C257.337 71.3945 257.337 71.3945 257.337 71.3945L257.337 71.3945L257.337 71.3945C257.337 71.3945 257.337 71.3945 257.337 71.3945C257.337 71.3945 257.337 71.3945 257.337 71.3945C257.337 71.3945 257.337 71.3945 257.337 71.3945L257.337 71.3944C257.337 71.3944 257.337 71.3944 257.337 71.3944C257.337 71.3944 257.337 71.3944 257.337 71.3944C257.337 71.3944 257.337 71.3944 257.337 71.3944L257.337 71.3944L257.337 71.3944C257.337 71.3944 257.337 71.3944 257.337 71.3944C257.337 71.3944 257.337 71.3944 257.337 71.3944C257.337 71.3944 257.337 71.3944 257.337 71.3944L257.337 71.3944C257.337 71.3944 257.337 71.3944 257.337 71.3944C257.337 71.3944 257.337 71.3944 257.337 71.3944C257.337 71.3944 257.337 71.3944 257.337 71.3944L257.337 71.3944L257.337 71.3944C257.337 71.3944 257.337 71.3944 257.337 71.3944C257.337 71.3944 257.337 71.3944 257.337 71.3944C257.337 71.3944 257.337 71.3944 257.337 71.3944L257.337 71.3944C257.337 71.3944 257.337 71.3944 257.337 71.3944C257.337 71.3944 257.337 71.3944 257.337 71.3944C257.337 71.3944 257.337 71.3944 257.337 71.3944L257.337 71.3944L257.337 71.3944C257.337 71.3944 257.337 71.3944 257.337 71.3944C257.337 71.3944 257.337 71.3944 257.337 71.3944C257.337 71.3944 257.337 71.3944 257.337 71.3943L257.337 71.3943L257.337 71.3943C257.337 71.3943 257.337 71.3943 257.337 71.3943C257.337 71.3943 257.337 71.3943 257.337 71.3943C257.337 71.3943 257.337 71.3943 257.337 71.3943L257.337 71.3943C257.337 71.3943 257.337 71.3943 257.337 71.3943C257.337 71.3943 257.337 71.3943 257.337 71.3943C257.337 71.3943 257.337 71.3943 257.337 71.3943L257.337 71.3943L257.337 71.3943C257.337 71.3943 257.337 71.3943 257.337 71.3943C257.337 71.3943 257.337 71.3943 257.337 71.3943C257.337 71.3943 257.337 71.3943 257.337 71.3943L257.337 71.3943C257.337 71.3943 257.337 71.3943 257.337 71.3943C257.337 71.3943 257.337 71.3943 257.337 71.3943C257.337 71.3943 257.337 71.3943 257.337 71.3943C257.337 71.3943 257.337 71.3943 257.337 71.3943L257.337 71.3943C257.337 71.3943 257.337 71.3943 257.337 71.3943C257.337 71.3943 257.337 71.3943 257.337 71.3943C257.337 71.3943 257.337 71.3943 257.337 71.3943L257.337 71.3943L257.337 71.3943C257.337 71.3942 257.337 71.3942 257.337 71.3942C257.337 71.3942 257.337 71.3942 257.337 71.3942C257.337 71.3942 257.337 71.3942 257.337 71.3942L257.337 71.3942C257.337 71.3942 257.337 71.3942 257.337 71.3942C257.337 71.3942 257.337 71.3942 257.337 71.3942C257.337 71.3942 257.337 71.3942 257.337 71.3942L257.337 71.3942L257.337 71.3942C257.337 71.3942 257.337 71.3942 257.337 71.3942C257.337 71.3942 257.337 71.3942 257.337 71.3942C257.337 71.3942 257.337 71.3942 257.337 71.3942L257.337 71.3942L257.337 71.3942C257.337 71.3942 257.337 71.3942 257.337 71.3942C257.337 71.3942 257.337 71.3942 257.337 71.3942C257.337 71.3942 257.337 71.3942 257.337 71.3942L257.337 71.3942C257.337 71.3942 257.337 71.3942 257.337 71.3942C257.337 71.3942 257.337 71.3942 257.337 71.3942C257.337 71.3942 257.337 71.3942 257.337 71.3942L257.337 71.3942L257.337 71.3942C257.337 71.3942 257.337 71.3942 257.337 71.3942C257.337 71.3942 257.337 71.3942 257.337 71.3942C257.337 71.3942 257.337 71.3942 257.337 71.3942L257.337 71.3941L257.337 71.3941C257.337 71.3941 257.337 71.3941 257.337 71.3941C257.337 71.3941 257.337 71.3941 257.337 71.3941C257.337 71.3941 257.337 71.3941 257.337 71.3941L257.337 71.3941C257.337 71.3941 257.337 71.3941 257.337 71.3941C257.337 71.3941 257.337 71.3941 257.337 71.3941C257.337 71.3941 257.337 71.3941 257.337 71.3941C257.337 71.3941 257.337 71.3941 257.337 71.3941L257.337 71.3941C257.337 71.3941 257.337 71.3941 257.337 71.3941C257.337 71.3941 257.337 71.3941 257.337 71.3941C257.337 71.3941 257.337 71.3941 257.337 71.3941L257.337 71.3941L257.337 71.3941C257.337 71.3941 257.337 71.3941 257.337 71.3941C257.337 71.3941 257.337 71.3941 257.337 71.3941C257.337 71.3941 257.337 71.3941 257.337 71.3941L257.337 71.3941C257.337 71.3941 257.337 71.3941 257.337 71.3941C257.337 71.3941 257.337 71.3941 257.337 71.3941C257.337 71.3941 257.337 71.3941 257.337 71.3941C257.337 71.3941 257.337 71.3941 257.337 71.3941L257.337 71.3941C257.337 71.3941 257.337 71.3941 257.337 71.3941C257.337 71.3941 257.337 71.3941 257.337 71.3941C257.337 71.3941 257.337 71.3941 257.337 71.394L257.337 71.394L257.337 71.394C257.337 71.394 257.337 71.394 257.337 71.394C257.337 71.394 257.337 71.394 257.337 71.394C257.337 71.394 257.337 71.394 257.337 71.394L257.337 71.394L257.337 71.394C257.337 71.394 257.337 71.394 257.337 71.394C257.337 71.394 257.337 71.394 257.337 71.394C257.337 71.394 257.337 71.394 257.337 71.394L257.337 71.394C257.337 71.394 257.337 71.394 257.337 71.394C257.337 71.394 257.337 71.394 257.337 71.394C257.337 71.394 257.337 71.394 257.337 71.394L257.337 71.394L257.337 71.394C257.337 71.394 257.337 71.394 257.337 71.394C257.337 71.394 257.337 71.394 257.337 71.394C257.337 71.394 257.337 71.394 257.337 71.394L257.337 71.394L257.337 71.394C257.337 71.394 257.337 71.394 257.337 71.394C257.337 71.394 257.337 71.394 257.337 71.394C257.337 71.394 257.337 71.394 257.337 71.394L257.337 71.394C257.337 71.3939 257.337 71.3939 257.337 71.3939C257.337 71.3939 257.337 71.3939 257.337 71.3939C257.337 71.3939 257.337 71.3939 257.337 71.3939L257.337 71.3939L257.337 71.3939C257.337 71.3939 257.337 71.3939 257.337 71.3939C257.337 71.3939 257.337 71.3939 257.337 71.3939C257.337 71.3939 257.337 71.3939 257.337 71.3939L257.337 71.3939L257.337 71.3939C257.337 71.3939 257.337 71.3939 257.337 71.3939C257.337 71.3939 257.337 71.3939 257.337 71.3939C257.337 71.3939 257.337 71.3939 257.337 71.3939L257.337 71.3939C257.337 71.3939 257.337 71.3939 257.337 71.3939C257.337 71.3939 257.337 71.3939 257.337 71.3939C257.337 71.3939 257.337 71.3939 257.337 71.3939C257.337 71.3939 257.337 71.3939 257.337 71.3939L257.337 71.3939C257.337 71.3939 257.337 71.3939 257.337 71.3939C257.337 71.3939 257.337 71.3939 257.337 71.3939C257.337 71.3939 257.337 71.3939 257.337 71.3939L257.337 71.3939L257.337 71.3939C257.337 71.3939 257.337 71.3939 257.337 71.3939C257.337 71.3939 257.337 71.3939 257.337 71.3939C257.337 71.3939 257.337 71.3939 257.337 71.3938L257.337 71.3938C257.337 71.3938 257.337 71.3938 257.337 71.3938C257.337 71.3938 257.337 71.3938 257.337 71.3938C257.337 71.3938 257.337 71.3938 257.337 71.3938C257.337 71.3938 257.337 71.3938 257.337 71.3938L257.337 71.3938C257.337 71.3938 257.337 71.3938 257.337 71.3938C257.337 71.3938 257.337 71.3938 257.337 71.3938C257.337 71.3938 257.337 71.3938 257.337 71.3938L257.337 71.3938L257.337 71.3938C257.337 71.3938 257.337 71.3938 257.337 71.3938C257.337 71.3938 257.337 71.3938 257.337 71.3938C257.337 71.3938 257.337 71.3938 257.337 71.3938L257.337 71.3938L257.337 71.3938C257.337 71.3938 257.337 71.3938 257.337 71.3938C257.337 71.3938 257.337 71.3938 257.337 71.3938C257.337 71.3938 257.337 71.3938 257.337 71.3938L257.337 71.3938C257.337 71.3938 257.337 71.3938 257.337 71.3938C257.337 71.3938 257.337 71.3938 257.337 71.3938C257.337 71.3938 257.337 71.3938 257.337 71.3938L257.337 71.3938L257.337 71.3938C257.337 71.3937 257.337 71.3937 257.337 71.3937C257.337 71.3937 257.337 71.3937 257.337 71.3937C257.337 71.3937 257.337 71.3937 257.337 71.3937L257.337 71.3937L257.337 71.3937C257.337 71.3937 257.337 71.3937 257.337 71.3937C257.337 71.3937 257.337 71.3937 257.337 71.3937C257.337 71.3937 257.337 71.3937 257.337 71.3937L257.337 71.3937C257.337 71.3937 257.337 71.3937 257.337 71.3937C257.337 71.3937 257.337 71.3937 257.337 71.3937C257.337 71.3937 257.337 71.3937 257.337 71.3937L257.337 71.3937L257.337 71.3937C257.337 71.3937 257.337 71.3937 257.337 71.3937C257.337 71.3937 257.337 71.3937 257.337 71.3937C257.337 71.3937 257.337 71.3937 257.337 71.3937L257.337 71.3937C257.337 71.3937 257.337 71.3937 257.337 71.3937C257.337 71.3937 257.337 71.3937 257.337 71.3937C257.337 71.3937 257.337 71.3937 257.337 71.3937C257.337 71.3937 257.337 71.3937 257.337 71.3937L257.337 71.3937C257.337 71.3937 257.337 71.3937 257.337 71.3937C257.337 71.3937 257.337 71.3937 257.337 71.3937C257.337 71.3937 257.337 71.3937 257.337 71.3937L257.337 71.3937L257.337 71.3936C257.337 71.3936 257.337 71.3936 257.337 71.3936C257.337 71.3936 257.337 71.3936 257.337 71.3936C257.337 71.3936 257.337 71.3936 257.337 71.3936L257.337 71.3936C257.337 71.3936 257.337 71.3936 257.337 71.3936C257.337 71.3936 257.337 71.3936 257.337 71.3936C257.337 71.3936 257.337 71.3936 257.337 71.3936L257.337 71.3936L257.337 71.3936C257.337 71.3936 257.337 71.3936 257.337 71.3936C257.337 71.3936 257.337 71.3936 257.337 71.3936C257.337 71.3936 257.337 71.3936 257.337 71.3936L257.337 71.3936L257.337 71.3936C257.337 71.3936 257.337 71.3936 257.337 71.3936C257.337 71.3936 257.337 71.3936 257.337 71.3936C257.337 71.3936 257.337 71.3936 257.337 71.3936L257.337 71.3936C257.337 71.3936 257.337 71.3936 257.337 71.3936C257.337 71.3936 257.337 71.3936 257.337 71.3936C257.337 71.3936 257.337 71.3936 257.337 71.3936L257.337 71.3936L257.337 71.3936C257.337 71.3936 257.337 71.3936 257.337 71.3936C257.337 71.3936 257.337 71.3936 257.337 71.3936C257.337 71.3936 257.337 71.3936 257.337 71.3935L257.337 71.3935C257.337 71.3935 257.337 71.3935 257.337 71.3935C257.337 71.3935 257.337 71.3935 257.337 71.3935C257.337 71.3935 257.337 71.3935 257.337 71.3935L257.337 71.3935L257.337 71.3935C257.337 71.3935 257.337 71.3935 257.337 71.3935C257.337 71.3935 257.337 71.3935 257.337 71.3935C257.337 71.3935 257.337 71.3935 257.337 71.3935L257.337 71.3935C257.337 71.3935 257.337 71.3935 257.337 71.3935C257.337 71.3935 257.337 71.3935 257.337 71.3935C257.337 71.3935 257.337 71.3935 257.337 71.3935L257.337 71.3935L257.337 71.3935C257.337 71.3935 257.337 71.3935 257.337 71.3935C257.337 71.3935 257.337 71.3935 257.337 71.3935C257.337 71.3935 257.337 71.3935 257.337 71.3935L257.337 71.3935C257.337 71.3935 257.337 71.3935 257.337 71.3935C257.337 71.3935 257.337 71.3935 257.337 71.3935C257.337 71.3935 257.337 71.3935 257.337 71.3935L257.337 71.3935L257.337 71.3935C257.337 71.3935 257.337 71.3935 257.337 71.3935C257.337 71.3935 257.337 71.3935 257.337 71.3934C257.337 71.3934 257.337 71.3934 257.337 71.3934L257.337 71.3934C257.337 71.3934 257.337 71.3934 257.337 71.3934C257.337 71.3934 257.337 71.3934 257.337 71.3934L253.337 71.3934C253.337 71.3934 253.337 71.3934 253.337 71.3934C253.337 71.3934 253.337 71.3934 253.337 71.3934L253.337 71.3934C253.337 71.3934 253.337 71.3934 253.337 71.3934C253.337 71.3935 253.337 71.3935 253.337 71.3935C253.337 71.3935 253.337 71.3935 253.337 71.3935L253.337 71.3935L253.337 71.3935C253.337 71.3935 253.337 71.3935 253.337 71.3935C253.337 71.3935 253.337 71.3935 253.337 71.3935C253.337 71.3935 253.337 71.3935 253.337 71.3935L253.337 71.3935C253.337 71.3935 253.337 71.3935 253.337 71.3935C253.337 71.3935 253.337 71.3935 253.337 71.3935C253.337 71.3935 253.337 71.3935 253.337 71.3935L253.337 71.3935L253.337 71.3935C253.337 71.3935 253.337 71.3935 253.337 71.3935C253.337 71.3935 253.337 71.3935 253.337 71.3935C253.337 71.3935 253.337 71.3935 253.337 71.3935L253.337 71.3935C253.337 71.3935 253.337 71.3935 253.337 71.3935C253.337 71.3935 253.337 71.3935 253.337 71.3935C253.337 71.3935 253.337 71.3935 253.337 71.3935L253.337 71.3935L253.337 71.3935C253.337 71.3935 253.337 71.3935 253.337 71.3935C253.337 71.3935 253.337 71.3935 253.337 71.3935C253.337 71.3935 253.337 71.3935 253.337 71.3935L253.337 71.3935C253.337 71.3936 253.337 71.3936 253.337 71.3936C253.337 71.3936 253.337 71.3936 253.337 71.3936C253.337 71.3936 253.337 71.3936 253.337 71.3936L253.337 71.3936L253.337 71.3936C253.337 71.3936 253.337 71.3936 253.337 71.3936C253.337 71.3936 253.337 71.3936 253.337 71.3936C253.337 71.3936 253.337 71.3936 253.337 71.3936L253.337 71.3936C253.337 71.3936 253.337 71.3936 253.337 71.3936C253.337 71.3936 253.337 71.3936 253.337 71.3936C253.337 71.3936 253.337 71.3936 253.337 71.3936L253.337 71.3936L253.337 71.3936C253.337 71.3936 253.337 71.3936 253.337 71.3936C253.337 71.3936 253.337 71.3936 253.337 71.3936C253.337 71.3936 253.337 71.3936 253.337 71.3936L253.337 71.3936L253.337 71.3936C253.337 71.3936 253.337 71.3936 253.337 71.3936C253.337 71.3936 253.337 71.3936 253.337 71.3936C253.337 71.3936 253.337 71.3936 253.337 71.3936L253.337 71.3936C253.337 71.3936 253.337 71.3936 253.337 71.3936C253.337 71.3936 253.337 71.3936 253.337 71.3936C253.337 71.3936 253.337 71.3936 253.337 71.3936L253.337 71.3937L253.337 71.3937C253.337 71.3937 253.337 71.3937 253.337 71.3937C253.337 71.3937 253.337 71.3937 253.337 71.3937C253.337 71.3937 253.337 71.3937 253.337 71.3937L253.337 71.3937C253.337 71.3937 253.337 71.3937 253.337 71.3937C253.337 71.3937 253.337 71.3937 253.337 71.3937C253.337 71.3937 253.337 71.3937 253.337 71.3937C253.337 71.3937 253.337 71.3937 253.337 71.3937L253.337 71.3937C253.337 71.3937 253.337 71.3937 253.337 71.3937C253.337 71.3937 253.337 71.3937 253.337 71.3937C253.337 71.3937 253.337 71.3937 253.337 71.3937L253.337 71.3937L253.337 71.3937C253.337 71.3937 253.337 71.3937 253.337 71.3937C253.337 71.3937 253.337 71.3937 253.337 71.3937C253.337 71.3937 253.337 71.3937 253.337 71.3937L253.337 71.3937C253.337 71.3937 253.337 71.3937 253.337 71.3937C253.337 71.3937 253.337 71.3937 253.337 71.3937C253.337 71.3937 253.337 71.3937 253.337 71.3937L253.337 71.3937L253.337 71.3937C253.337 71.3937 253.337 71.3937 253.337 71.3937C253.337 71.3937 253.337 71.3937 253.337 71.3937C253.337 71.3937 253.337 71.3937 253.337 71.3938L253.337 71.3938L253.337 71.3938C253.337 71.3938 253.337 71.3938 253.337 71.3938C253.337 71.3938 253.337 71.3938 253.337 71.3938C253.337 71.3938 253.337 71.3938 253.337 71.3938L253.337 71.3938C253.337 71.3938 253.337 71.3938 253.337 71.3938C253.337 71.3938 253.337 71.3938 253.337 71.3938C253.337 71.3938 253.337 71.3938 253.337 71.3938L253.337 71.3938L253.337 71.3938C253.337 71.3938 253.337 71.3938 253.337 71.3938C253.337 71.3938 253.337 71.3938 253.337 71.3938C253.337 71.3938 253.337 71.3938 253.337 71.3938L253.337 71.3938L253.337 71.3938C253.337 71.3938 253.337 71.3938 253.337 71.3938C253.337 71.3938 253.337 71.3938 253.337 71.3938C253.337 71.3938 253.337 71.3938 253.337 71.3938L253.337 71.3938C253.337 71.3938 253.337 71.3938 253.337 71.3938C253.337 71.3938 253.337 71.3938 253.337 71.3938C253.337 71.3938 253.337 71.3938 253.337 71.3938C253.337 71.3938 253.337 71.3938 253.337 71.3938L253.337 71.3938C253.337 71.3939 253.337 71.3939 253.337 71.3939C253.337 71.3939 253.337 71.3939 253.337 71.3939C253.337 71.3939 253.337 71.3939 253.337 71.3939L253.337 71.3939L253.337 71.3939C253.337 71.3939 253.337 71.3939 253.337 71.3939C253.337 71.3939 253.337 71.3939 253.337 71.3939C253.337 71.3939 253.337 71.3939 253.337 71.3939L253.337 71.3939C253.337 71.3939 253.337 71.3939 253.337 71.3939C253.337 71.3939 253.337 71.3939 253.337 71.3939C253.337 71.3939 253.337 71.3939 253.337 71.3939C253.337 71.3939 253.337 71.3939 253.337 71.3939L253.337 71.3939C253.337 71.3939 253.337 71.3939 253.337 71.3939C253.337 71.3939 253.337 71.3939 253.337 71.3939C253.337 71.3939 253.337 71.3939 253.337 71.3939L253.337 71.3939L253.337 71.3939C253.337 71.3939 253.337 71.3939 253.337 71.3939C253.337 71.3939 253.337 71.3939 253.337 71.3939C253.337 71.3939 253.337 71.3939 253.337 71.3939L253.337 71.3939L253.337 71.3939C253.337 71.3939 253.337 71.3939 253.337 71.3939C253.337 71.3939 253.337 71.3939 253.337 71.3939C253.337 71.3939 253.337 71.3939 253.337 71.394L253.337 71.394C253.337 71.394 253.337 71.394 253.337 71.394C253.337 71.394 253.337 71.394 253.337 71.394C253.337 71.394 253.337 71.394 253.337 71.394L253.337 71.394L253.337 71.394C253.337 71.394 253.337 71.394 253.337 71.394C253.337 71.394 253.337 71.394 253.337 71.394C253.337 71.394 253.337 71.394 253.337 71.394L253.337 71.394L253.337 71.394C253.337 71.394 253.337 71.394 253.337 71.394C253.337 71.394 253.337 71.394 253.337 71.394C253.337 71.394 253.337 71.394 253.337 71.394L253.337 71.394C253.337 71.394 253.337 71.394 253.337 71.394C253.337 71.394 253.337 71.394 253.337 71.394C253.337 71.394 253.337 71.394 253.337 71.394L253.337 71.394L253.337 71.394C253.337 71.394 253.337 71.394 253.337 71.394C253.337 71.394 253.337 71.394 253.337 71.394C253.337 71.394 253.337 71.394 253.337 71.394L253.337 71.394L253.337 71.394C253.337 71.3941 253.337 71.3941 253.337 71.3941C253.337 71.3941 253.337 71.3941 253.337 71.3941C253.337 71.3941 253.337 71.3941 253.337 71.3941L253.337 71.3941C253.337 71.3941 253.337 71.3941 253.337 71.3941C253.337 71.3941 253.337 71.3941 253.337 71.3941C253.337 71.3941 253.337 71.3941 253.337 71.3941C253.337 71.3941 253.337 71.3941 253.337 71.3941L253.337 71.3941C253.337 71.3941 253.337 71.3941 253.337 71.3941C253.337 71.3941 253.337 71.3941 253.337 71.3941C253.337 71.3941 253.337 71.3941 253.337 71.3941L253.337 71.3941L253.337 71.3941C253.337 71.3941 253.337 71.3941 253.337 71.3941C253.337 71.3941 253.337 71.3941 253.337 71.3941C253.337 71.3941 253.337 71.3941 253.337 71.3941L253.337 71.3941C253.337 71.3941 253.337 71.3941 253.337 71.3941C253.337 71.3941 253.337 71.3941 253.337 71.3941C253.337 71.3941 253.337 71.3941 253.337 71.3941C253.337 71.3941 253.337 71.3941 253.337 71.3941L253.337 71.3941C253.337 71.3941 253.337 71.3941 253.337 71.3941C253.337 71.3941 253.337 71.3941 253.337 71.3941C253.337 71.3941 253.337 71.3941 253.337 71.3941L253.337 71.3941L253.337 71.3942C253.337 71.3942 253.337 71.3942 253.337 71.3942C253.337 71.3942 253.337 71.3942 253.337 71.3942C253.337 71.3942 253.337 71.3942 253.337 71.3942L253.337 71.3942L253.337 71.3942C253.337 71.3942 253.337 71.3942 253.337 71.3942C253.337 71.3942 253.337 71.3942 253.337 71.3942C253.337 71.3942 253.337 71.3942 253.337 71.3942L253.337 71.3942C253.337 71.3942 253.337 71.3942 253.337 71.3942C253.337 71.3942 253.337 71.3942 253.337 71.3942C253.337 71.3942 253.337 71.3942 253.337 71.3942L253.337 71.3942L253.337 71.3942C253.337 71.3942 253.337 71.3942 253.337 71.3942C253.337 71.3942 253.337 71.3942 253.337 71.3942C253.337 71.3942 253.337 71.3942 253.337 71.3942L253.337 71.3942L253.337 71.3942C253.337 71.3942 253.337 71.3942 253.337 71.3942C253.337 71.3942 253.337 71.3942 253.337 71.3942C253.337 71.3942 253.337 71.3942 253.337 71.3942L253.337 71.3942C253.337 71.3942 253.337 71.3942 253.337 71.3942C253.337 71.3942 253.337 71.3942 253.337 71.3942C253.337 71.3942 253.337 71.3942 253.337 71.3943L253.337 71.3943L253.337 71.3943C253.337 71.3943 253.337 71.3943 253.337 71.3943C253.337 71.3943 253.337 71.3943 253.337 71.3943C253.337 71.3943 253.337 71.3943 253.337 71.3943L253.337 71.3943C253.337 71.3943 253.337 71.3943 253.337 71.3943C253.337 71.3943 253.337 71.3943 253.337 71.3943C253.337 71.3943 253.337 71.3943 253.337 71.3943C253.337 71.3943 253.337 71.3943 253.337 71.3943L253.337 71.3943C253.337 71.3943 253.337 71.3943 253.337 71.3943C253.337 71.3943 253.337 71.3943 253.337 71.3943C253.337 71.3943 253.337 71.3943 253.337 71.3943L253.337 71.3943L253.337 71.3943C253.337 71.3943 253.337 71.3943 253.337 71.3943C253.337 71.3943 253.337 71.3943 253.337 71.3943C253.337 71.3943 253.337 71.3943 253.337 71.3943L253.337 71.3943C253.337 71.3943 253.337 71.3943 253.337 71.3943C253.337 71.3943 253.337 71.3943 253.337 71.3943C253.337 71.3943 253.337 71.3943 253.337 71.3943L253.337 71.3943L253.337 71.3943C253.337 71.3944 253.337 71.3944 253.337 71.3944C253.337 71.3944 253.337 71.3944 253.337 71.3944C253.337 71.3944 253.337 71.3944 253.337 71.3944L253.337 71.3944L253.337 71.3944C253.337 71.3944 253.337 71.3944 253.337 71.3944C253.337 71.3944 253.337 71.3944 253.337 71.3944C253.337 71.3944 253.337 71.3944 253.337 71.3944L253.337 71.3944C253.337 71.3944 253.337 71.3944 253.337 71.3944C253.337 71.3944 253.337 71.3944 253.337 71.3944C253.337 71.3944 253.337 71.3944 253.337 71.3944L253.337 71.3944L253.337 71.3944C253.337 71.3944 253.337 71.3944 253.337 71.3944C253.337 71.3944 253.337 71.3944 253.337 71.3944C253.337 71.3944 253.337 71.3944 253.337 71.3944L253.337 71.3944C253.337 71.3944 253.337 71.3944 253.337 71.3944C253.337 71.3944 253.337 71.3944 253.337 71.3944C253.337 71.3944 253.337 71.3944 253.337 71.3944L253.337 71.3944L253.337 71.3944C253.337 71.3944 253.337 71.3944 253.337 71.3944C253.337 71.3944 253.337 71.3944 253.337 71.3944C253.337 71.3944 253.337 71.3944 253.337 71.3944L253.337 71.3945C253.337 71.3945 253.337 71.3945 253.337 71.3945C253.337 71.3945 253.337 71.3945 253.337 71.3945C253.337 71.3945 253.337 71.3945 253.337 71.3945L253.337 71.3945L253.337 71.3945C253.337 71.3945 253.337 71.3945 253.337 71.3945C253.337 71.3945 253.337 71.3945 253.337 71.3945C253.337 71.3945 253.337 71.3945 253.337 71.3945L253.337 71.3945C253.337 71.3945 253.337 71.3945 253.337 71.3945C253.337 71.3945 253.337 71.3945 253.337 71.3945C253.337 71.3945 253.337 71.3945 253.337 71.3945L253.337 71.3945L253.337 71.3945C253.337 71.3945 253.337 71.3945 253.337 71.3945C253.337 71.3945 253.337 71.3945 253.337 71.3945C253.337 71.3945 253.337 71.3945 253.337 71.3945L253.337 71.3945C253.337 71.3945 253.337 71.3945 253.337 71.3945C253.337 71.3945 253.337 71.3945 253.337 71.3945L257.337 71.3945ZM265.337 79.3945C260.918 79.3945 257.337 75.8128 257.337 71.3945L253.337 71.3945C253.337 78.0219 258.709 83.3945 265.337 83.3945L265.337 79.3945ZM273.337 71.3945C273.337 75.8128 269.755 79.3945 265.337 79.3945L265.337 83.3945C271.964 83.3945 277.337 78.0219 277.337 71.3945L273.337 71.3945ZM273.337 71.3934C273.337 71.3934 273.337 71.3934 273.337 71.3934L273.337 71.3934L273.337 71.3934C273.337 71.3934 273.337 71.3934 273.337 71.3934C273.337 71.3934 273.337 71.3934 273.337 71.3934C273.337 71.3934 273.337 71.3934 273.337 71.3935L273.337 71.3935C273.337 71.3935 273.337 71.3935 273.337 71.3935C273.337 71.3935 273.337 71.3935 273.337 71.3935C273.337 71.3935 273.337 71.3935 273.337 71.3935C273.337 71.3935 273.337 71.3935 273.337 71.3935L273.337 71.3935C273.337 71.3935 273.337 71.3935 273.337 71.3935C273.337 71.3935 273.337 71.3935 273.337 71.3935C273.337 71.3935 273.337 71.3935 273.337 71.3935L273.337 71.3935L273.337 71.3935C273.337 71.3935 273.337 71.3935 273.337 71.3935C273.337 71.3935 273.337 71.3935 273.337 71.3935L273.337 71.3935L273.337 71.3935C273.337 71.3935 273.337 71.3935 273.337 71.3935C273.337 71.3935 273.337 71.3935 273.337 71.3935C273.337 71.3935 273.337 71.3935 273.337 71.3935L273.337 71.3935C273.337 71.3935 273.337 71.3935 273.337 71.3935C273.337 71.3935 273.337 71.3935 273.337 71.3935C273.337 71.3935 273.337 71.3935 273.337 71.3935C273.337 71.3935 273.337 71.3935 273.337 71.3935L273.337 71.3935C273.337 71.3935 273.337 71.3935 273.337 71.3935C273.337 71.3935 273.337 71.3935 273.337 71.3936C273.337 71.3936 273.337 71.3936 273.337 71.3936L273.337 71.3936L273.337 71.3936C273.337 71.3936 273.337 71.3936 273.337 71.3936C273.337 71.3936 273.337 71.3936 273.337 71.3936L273.337 71.3936L273.337 71.3936C273.337 71.3936 273.337 71.3936 273.337 71.3936C273.337 71.3936 273.337 71.3936 273.337 71.3936C273.337 71.3936 273.337 71.3936 273.337 71.3936L273.337 71.3936C273.337 71.3936 273.337 71.3936 273.337 71.3936C273.337 71.3936 273.337 71.3936 273.337 71.3936C273.337 71.3936 273.337 71.3936 273.337 71.3936C273.337 71.3936 273.337 71.3936 273.337 71.3936L273.337 71.3936C273.337 71.3936 273.337 71.3936 273.337 71.3936C273.337 71.3936 273.337 71.3936 273.337 71.3936C273.337 71.3936 273.337 71.3936 273.337 71.3936L273.337 71.3936L273.337 71.3936C273.337 71.3936 273.337 71.3936 273.337 71.3936C273.337 71.3936 273.337 71.3936 273.337 71.3936L273.337 71.3936L273.337 71.3936C273.337 71.3937 273.337 71.3937 273.337 71.3937C273.337 71.3937 273.337 71.3937 273.337 71.3937C273.337 71.3937 273.337 71.3937 273.337 71.3937L273.337 71.3937C273.337 71.3937 273.337 71.3937 273.337 71.3937C273.337 71.3937 273.337 71.3937 273.337 71.3937C273.337 71.3937 273.337 71.3937 273.337 71.3937C273.337 71.3937 273.337 71.3937 273.337 71.3937L273.337 71.3937C273.337 71.3937 273.337 71.3937 273.337 71.3937C273.337 71.3937 273.337 71.3937 273.337 71.3937C273.337 71.3937 273.337 71.3937 273.337 71.3937L273.337 71.3937L273.337 71.3937C273.337 71.3937 273.337 71.3937 273.337 71.3937C273.337 71.3937 273.337 71.3937 273.337 71.3937L273.337 71.3937L273.337 71.3937C273.337 71.3937 273.337 71.3937 273.337 71.3937C273.337 71.3937 273.337 71.3937 273.337 71.3937C273.337 71.3937 273.337 71.3937 273.337 71.3937L273.337 71.3937C273.337 71.3937 273.337 71.3937 273.337 71.3937C273.337 71.3937 273.337 71.3937 273.337 71.3937C273.337 71.3937 273.337 71.3937 273.337 71.3937C273.337 71.3937 273.337 71.3937 273.337 71.3937L273.337 71.3938C273.337 71.3938 273.337 71.3938 273.337 71.3938C273.337 71.3938 273.337 71.3938 273.337 71.3938C273.337 71.3938 273.337 71.3938 273.337 71.3938L273.337 71.3938L273.337 71.3938C273.337 71.3938 273.337 71.3938 273.337 71.3938C273.337 71.3938 273.337 71.3938 273.337 71.3938L273.337 71.3938L273.337 71.3938C273.337 71.3938 273.337 71.3938 273.337 71.3938C273.337 71.3938 273.337 71.3938 273.337 71.3938C273.337 71.3938 273.337 71.3938 273.337 71.3938L273.337 71.3938C273.337 71.3938 273.337 71.3938 273.337 71.3938C273.337 71.3938 273.337 71.3938 273.337 71.3938C273.337 71.3938 273.337 71.3938 273.337 71.3938C273.337 71.3938 273.337 71.3938 273.337 71.3938L273.337 71.3938C273.337 71.3938 273.337 71.3938 273.337 71.3938C273.337 71.3938 273.337 71.3938 273.337 71.3938C273.337 71.3938 273.337 71.3938 273.337 71.3938L273.337 71.3938L273.337 71.3938C273.337 71.3938 273.337 71.3938 273.337 71.3938C273.337 71.3938 273.337 71.3938 273.337 71.3938L273.337 71.3938L273.337 71.3939C273.337 71.3939 273.337 71.3939 273.337 71.3939C273.337 71.3939 273.337 71.3939 273.337 71.3939C273.337 71.3939 273.337 71.3939 273.337 71.3939L273.337 71.3939C273.337 71.3939 273.337 71.3939 273.337 71.3939C273.337 71.3939 273.337 71.3939 273.337 71.3939C273.337 71.3939 273.337 71.3939 273.337 71.3939C273.337 71.3939 273.337 71.3939 273.337 71.3939L273.337 71.3939C273.337 71.3939 273.337 71.3939 273.337 71.3939C273.337 71.3939 273.337 71.3939 273.337 71.3939C273.337 71.3939 273.337 71.3939 273.337 71.3939L273.337 71.3939L273.337 71.3939C273.337 71.3939 273.337 71.3939 273.337 71.3939C273.337 71.3939 273.337 71.3939 273.337 71.3939L273.337 71.3939L273.337 71.3939C273.337 71.3939 273.337 71.3939 273.337 71.3939C273.337 71.3939 273.337 71.3939 273.337 71.3939C273.337 71.3939 273.337 71.3939 273.337 71.3939L273.337 71.3939C273.337 71.3939 273.337 71.3939 273.337 71.3939C273.337 71.3939 273.337 71.3939 273.337 71.3939C273.337 71.3939 273.337 71.3939 273.337 71.3939C273.337 71.3939 273.337 71.3939 273.337 71.394L273.337 71.394C273.337 71.394 273.337 71.394 273.337 71.394C273.337 71.394 273.337 71.394 273.337 71.394C273.337 71.394 273.337 71.394 273.337 71.394L273.337 71.394L273.337 71.394C273.337 71.394 273.337 71.394 273.337 71.394C273.337 71.3942 273.337 71.394 273.337 71.3943C273.337 71.3943 273.337 71.3943 273.337 71.3943L273.337 71.3943L273.337 71.3943C273.337 71.3943 273.337 71.3943 273.337 71.3943C273.337 71.3943 273.337 71.3943 273.337 71.3943C273.337 71.3943 273.337 71.3943 273.337 71.3943L273.337 71.3943C273.337 71.3943 273.337 71.3943 273.337 71.3943C273.337 71.3943 273.337 71.3943 273.337 71.3943C273.337 71.3943 273.337 71.3943 273.337 71.3943C273.337 71.3943 273.337 71.3943 273.337 71.3943L273.337 71.3943C273.337 71.3943 273.337 71.3943 273.337 71.3943C273.337 71.3943 273.337 71.3943 273.337 71.3943C273.337 71.3943 273.337 71.3943 273.337 71.3943L273.337 71.3943L273.337 71.3943C273.337 71.3943 273.337 71.3943 273.337 71.3943C273.337 71.3943 273.337 71.3943 273.337 71.3943L273.337 71.3943L273.337 71.3943C273.337 71.3943 273.337 71.3943 273.337 71.3943C273.337 71.3943 273.337 71.3943 273.337 71.3943C273.337 71.3943 273.337 71.3943 273.337 71.3943L273.337 71.3943C273.337 71.3944 273.337 71.3944 273.337 71.3944C273.337 71.3944 273.337 71.3944 273.337 71.3944C273.337 71.3944 273.337 71.3944 273.337 71.3944C273.337 71.3944 273.337 71.3944 273.337 71.3944L273.337 71.3944C273.337 71.3944 273.337 71.3944 273.337 71.3944C273.337 71.3944 273.337 71.3944 273.337 71.3944C273.337 71.3944 273.337 71.3944 273.337 71.3944L273.337 71.3944L273.337 71.3944C273.337 71.3944 273.337 71.3944 273.337 71.3944C273.337 71.3944 273.337 71.3944 273.337 71.3944L273.337 71.3944L273.337 71.3944C273.337 71.3944 273.337 71.3944 273.337 71.3944C273.337 71.3944 273.337 71.3944 273.337 71.3944C273.337 71.3944 273.337 71.3944 273.337 71.3944L273.337 71.3944C273.337 71.3944 273.337 71.3944 273.337 71.3944C273.337 71.3944 273.337 71.3944 273.337 71.3944C273.337 71.3944 273.337 71.3944 273.337 71.3944C273.337 71.3944 273.337 71.3944 273.337 71.3944L273.337 71.3944C273.337 71.3944 273.337 71.3944 273.337 71.3944C273.337 71.3944 273.337 71.3944 273.337 71.3944C273.337 71.3944 273.337 71.3944 273.337 71.3944L273.337 71.3945L273.337 71.3945C273.337 71.3945 273.337 71.3945 273.337 71.3945C273.337 71.3945 273.337 71.3945 273.337 71.3945L273.337 71.3945L273.337 71.3945C273.337 71.3945 273.337 71.3945 273.337 71.3945C273.337 71.3945 273.337 71.3945 273.337 71.3945C273.337 71.3945 273.337 71.3945 273.337 71.3945L273.337 71.3945C273.337 71.3945 273.337 71.3945 273.337 71.3945C273.337 71.3945 273.337 71.3945 273.337 71.3945C273.337 71.3945 273.337 71.3945 273.337 71.3945C273.337 71.3945 273.337 71.3945 273.337 71.3945L273.337 71.3945C273.337 71.3945 273.337 71.3945 273.337 71.3945C273.337 71.3945 273.337 71.3945 273.337 71.3945C273.337 71.3945 273.337 71.3945 273.337 71.3945L273.337 71.3945L273.337 71.3945C273.337 71.3945 273.337 71.3945 273.337 71.3945L277.337 71.3945C277.337 71.3945 277.337 71.3945 277.337 71.3945L277.337 71.3945L277.337 71.3945C277.337 71.3945 277.337 71.3945 277.337 71.3945C277.337 71.3945 277.337 71.3945 277.337 71.3945C277.337 71.3945 277.337 71.3945 277.337 71.3945L277.337 71.3945C277.337 71.3945 277.337 71.3945 277.337 71.3945C277.337 71.3945 277.337 71.3945 277.337 71.3945C277.337 71.3945 277.337 71.3945 277.337 71.3945C277.337 71.3945 277.337 71.3945 277.337 71.3945L277.337 71.3945C277.337 71.3945 277.337 71.3945 277.337 71.3945C277.337 71.3945 277.337 71.3945 277.337 71.3945C277.337 71.3945 277.337 71.3945 277.337 71.3945L277.337 71.3945L277.337 71.3945C277.337 71.3945 277.337 71.3945 277.337 71.3945C277.337 71.3945 277.337 71.3945 277.337 71.3945L277.337 71.3945L277.337 71.3944C277.337 71.3944 277.337 71.3944 277.337 71.3944C277.337 71.3944 277.337 71.3944 277.337 71.3944C277.337 71.3944 277.337 71.3944 277.337 71.3944L277.337 71.3944C277.337 71.3944 277.337 71.3944 277.337 71.3944C277.337 71.3944 277.337 71.3944 277.337 71.3944C277.337 71.3944 277.337 71.3944 277.337 71.3944C277.337 71.3944 277.337 71.3944 277.337 71.3944L277.337 71.3944C277.337 71.3944 277.337 71.3944 277.337 71.3944C277.337 71.3944 277.337 71.3944 277.337 71.3944C277.337 71.3944 277.337 71.3944 277.337 71.3944L277.337 71.3944L277.337 71.3944C277.337 71.3944 277.337 71.3944 277.337 71.3944C277.337 71.3944 277.337 71.3944 277.337 71.3944L277.337 71.3944L277.337 71.3944C277.337 71.3944 277.337 71.3944 277.337 71.3944C277.337 71.3944 277.337 71.3944 277.337 71.3944C277.337 71.3944 277.337 71.3944 277.337 71.3944L277.337 71.3944C277.337 71.3944 277.337 71.3944 277.337 71.3944C277.337 71.3944 277.337 71.3944 277.337 71.3944C277.337 71.3944 277.337 71.3944 277.337 71.3944C277.337 71.3944 277.337 71.3944 277.337 71.3943L277.337 71.3943C277.337 71.3943 277.337 71.3943 277.337 71.3943C277.337 71.3943 277.337 71.3943 277.337 71.3943C277.337 71.3943 277.337 71.3943 277.337 71.3943L277.337 71.3943L277.337 71.3943C277.337 71.3943 277.337 71.3943 277.337 71.3943C277.337 71.3943 277.337 71.3943 277.337 71.3943L277.337 71.3943L277.337 71.3943C277.337 71.3943 277.337 71.3943 277.337 71.3943C277.337 71.3943 277.337 71.3943 277.337 71.3943C277.337 71.3943 277.337 71.3943 277.337 71.3943L277.337 71.3943C277.337 71.3943 277.337 71.3943 277.337 71.3943C277.337 71.3943 277.337 71.3943 277.337 71.3943C277.337 71.3943 277.337 71.3943 277.337 71.3943C277.337 71.3943 277.337 71.3943 277.337 71.3943L277.337 71.3943C277.337 71.3943 277.337 71.3943 277.337 71.3943C277.337 71.3943 277.337 71.3943 277.337 71.3943C277.337 71.3943 277.337 71.3943 277.337 71.3943L277.337 71.3943L277.337 71.3943C277.337 71.3943 277.337 71.3943 277.337 71.3943C277.337 71.394 277.337 71.3942 277.337 71.394C277.337 71.3937 277.337 71.3939 277.337 71.3937C277.337 71.3937 277.337 71.3937 277.337 71.3937L277.337 71.3937L277.337 71.3937C277.337 71.3937 277.337 71.3937 277.337 71.3937C277.337 71.3937 277.337 71.3937 277.337 71.3937C277.337 71.3937 277.337 71.3937 277.337 71.3937L277.337 71.3937C277.337 71.3937 277.337 71.3937 277.337 71.3937C277.337 71.3937 277.337 71.3937 277.337 71.3937C277.337 71.3937 277.337 71.3937 277.337 71.3937C277.337 71.3937 277.337 71.3937 277.337 71.3937L277.337 71.3937C277.337 71.3937 277.337 71.3937 277.337 71.3937C277.337 71.3937 277.337 71.3937 277.337 71.3937C277.337 71.3937 277.337 71.3937 277.337 71.3936L277.337 71.3936L277.337 71.3936C277.337 71.3936 277.337 71.3936 277.337 71.3936C277.337 71.3936 277.337 71.3936 277.337 71.3936L277.337 71.3936L277.337 71.3936C277.337 71.3936 277.337 71.3936 277.337 71.3936C277.337 71.3936 277.337 71.3936 277.337 71.3936C277.337 71.3936 277.337 71.3936 277.337 71.3936L277.337 71.3936C277.337 71.3936 277.337 71.3936 277.337 71.3936C277.337 71.3936 277.337 71.3936 277.337 71.3936C277.337 71.3936 277.337 71.3936 277.337 71.3936C277.337 71.3936 277.337 71.3936 277.337 71.3936L277.337 71.3936C277.337 71.3936 277.337 71.3936 277.337 71.3936C277.337 71.3936 277.337 71.3936 277.337 71.3936C277.337 71.3936 277.337 71.3936 277.337 71.3936L277.337 71.3936L277.337 71.3936C277.337 71.3936 277.337 71.3936 277.337 71.3936C277.337 71.3936 277.337 71.3936 277.337 71.3936L277.337 71.3936L277.337 71.3936C277.337 71.3936 277.337 71.3936 277.337 71.3936C277.337 71.3935 277.337 71.3935 277.337 71.3935C277.337 71.3935 277.337 71.3935 277.337 71.3935L277.337 71.3935C277.337 71.3935 277.337 71.3935 277.337 71.3935C277.337 71.3935 277.337 71.3935 277.337 71.3935C277.337 71.3935 277.337 71.3935 277.337 71.3935C277.337 71.3935 277.337 71.3935 277.337 71.3935L277.337 71.3935C277.337 71.3935 277.337 71.3935 277.337 71.3935C277.337 71.3935 277.337 71.3935 277.337 71.3935C277.337 71.3935 277.337 71.3935 277.337 71.3935L277.337 71.3935L277.337 71.3935C277.337 71.3935 277.337 71.3935 277.337 71.3935C277.337 71.3935 277.337 71.3935 277.337 71.3935L277.337 71.3935L277.337 71.3935C277.337 71.3935 277.337 71.3935 277.337 71.3935C277.337 71.3935 277.337 71.3935 277.337 71.3935C277.337 71.3935 277.337 71.3935 277.337 71.3935L277.337 71.3935C277.337 71.3935 277.337 71.3935 277.337 71.3935C277.337 71.3935 277.337 71.3935 277.337 71.3935C277.337 71.3935 277.337 71.3935 277.337 71.3935C277.337 71.3935 277.337 71.3935 277.337 71.3935L277.337 71.3935C277.337 71.3934 277.337 71.3934 277.337 71.3934C277.337 71.3934 277.337 71.3934 277.337 71.3934C277.337 71.3934 277.337 71.3934 277.337 71.3934L277.337 71.3934L277.337 71.3934C277.337 71.3934 277.337 71.3934 277.337 71.3934L273.337 71.3934ZM336.228 69.3934L275.337 69.3934L275.337 73.3934L336.228 73.3934L336.228 69.3934ZM338.9 66.721C338.9 68.197 337.704 69.3934 336.228 69.3934L336.228 73.3934C339.913 73.3934 342.9 70.4061 342.9 66.721L338.9 66.721ZM338.9 34.0658L338.9 66.721L342.9 66.721L342.9 34.0658L338.9 34.0658ZM336.228 31.3934C337.704 31.3934 338.9 32.5899 338.9 34.0658L342.9 34.0658C342.9 30.3808 339.913 27.3934 336.228 27.3934L336.228 31.3934ZM195.573 31.3934L336.228 31.3934L336.228 27.3934L195.573 27.3934L195.573 31.3934Z" fill="white" mask="url(#path-17-inside-1_209_3267)"/>
<path d="M203.623 45.9884H206.458V56.2484C206.458 58.7684 207.763 59.4134 209.323 59.4134C211.123 59.4134 212.563 58.5434 213.718 57.2084V45.9884H216.553V61.3934H214.153L213.898 59.1884H213.523C212.308 60.4784 210.703 61.7384 208.093 61.7384C205.348 61.7384 203.623 60.3434 203.623 57.0134V45.9884ZM235.157 61.3934H232.322V51.1184C232.322 48.6134 231.017 47.9534 229.457 47.9534C227.657 47.9534 226.217 48.8384 225.062 50.1734V61.3934H222.227V45.9884H224.627L224.882 48.1934H225.257C226.472 46.8884 228.077 45.6284 230.687 45.6284C233.432 45.6284 235.157 47.0234 235.157 50.3684V61.3934ZM243.665 61.3934H240.83V38.4434H243.665V51.9584H246.68L251.885 45.9884H255.125L248.93 53.0084V53.2034L255.755 61.3934H252.32L246.38 54.2534H243.665V61.3934ZM272.364 61.3934H269.529V51.1184C269.529 48.6134 268.224 47.9534 266.664 47.9534C264.864 47.9534 263.424 48.8384 262.269 50.1734V61.3934H259.434V45.9884H261.834L262.089 48.1934H262.464C263.679 46.8884 265.284 45.6284 267.894 45.6284C270.639 45.6284 272.364 47.0234 272.364 50.3684V61.3934ZM292.017 53.7134C292.017 59.1134 288.642 61.7534 284.502 61.7534C280.377 61.7534 276.987 59.1134 276.987 53.7134C276.987 48.3284 280.377 45.6284 284.502 45.6284C288.642 45.6284 292.017 48.3284 292.017 53.7134ZM279.897 53.7134C279.897 57.6434 281.802 59.4284 284.502 59.4284C287.202 59.4284 289.092 57.6434 289.092 53.7134C289.092 49.7834 287.202 47.9534 284.502 47.9534C281.802 47.9534 279.897 49.7834 279.897 53.7134ZM294.196 45.9884H296.911L299.386 57.0434H299.641L302.296 48.3584H304.216L306.691 57.0434H306.946L309.406 45.9884H312.016L308.356 61.3934H305.836L303.211 52.1234H303.001L300.196 61.3934H297.856L294.196 45.9884ZM328.174 61.3934H325.339V51.1184C325.339 48.6134 324.034 47.9534 322.474 47.9534C320.674 47.9534 319.234 48.8384 318.079 50.1734V61.3934H315.244V45.9884H317.644L317.899 48.1934H318.274C319.489 46.8884 321.094 45.6284 323.704 45.6284C326.449 45.6284 328.174 47.0234 328.174 50.3684V61.3934Z" fill="white"/>
<mask id="path-20-inside-2_209_3267" fill="white">
<path fill-rule="evenodd" clip-rule="evenodd" d="M210.573 209.607C207.992 209.607 205.9 211.699 205.9 214.279L205.9 246.934C205.9 249.515 207.992 251.607 210.573 251.607L321.228 251.607C323.809 251.607 325.9 249.515 325.9 246.934L325.9 214.279C325.9 211.699 323.809 209.607 321.228 209.607L275.337 209.607C275.337 209.606 275.337 209.606 275.337 209.606C275.337 204.083 270.859 199.606 265.337 199.606C259.814 199.606 255.337 204.083 255.337 209.606C255.337 209.606 255.337 209.606 255.337 209.607L210.573 209.607Z"/>
</mask>
<path fill-rule="evenodd" clip-rule="evenodd" d="M210.573 209.607C207.992 209.607 205.9 211.699 205.9 214.279L205.9 246.934C205.9 249.515 207.992 251.607 210.573 251.607L321.228 251.607C323.809 251.607 325.9 249.515 325.9 246.934L325.9 214.279C325.9 211.699 323.809 209.607 321.228 209.607L275.337 209.607C275.337 209.606 275.337 209.606 275.337 209.606C275.337 204.083 270.859 199.606 265.337 199.606C259.814 199.606 255.337 204.083 255.337 209.606C255.337 209.606 255.337 209.606 255.337 209.607L210.573 209.607Z" fill="#0288D1"/>
<path d="M210.573 209.607L210.573 211.607L210.573 209.607ZM210.573 251.607L210.573 253.607L210.573 251.607ZM321.228 251.607L321.228 249.607L321.228 251.607ZM321.228 209.607L321.228 207.607L321.228 209.607ZM275.337 209.607L273.337 209.607L273.337 211.607L275.337 211.607L275.337 209.607ZM255.337 209.607L255.337 211.607L257.337 211.607L257.337 209.607L255.337 209.607ZM207.9 214.279C207.9 212.803 209.097 211.607 210.573 211.607L210.573 207.607C206.888 207.607 203.9 210.594 203.9 214.279L207.9 214.279ZM207.9 246.934L207.9 214.279L203.9 214.279L203.9 246.934L207.9 246.934ZM210.573 249.607C209.097 249.607 207.9 248.41 207.9 246.934L203.9 246.934C203.9 250.619 206.888 253.607 210.573 253.607L210.573 249.607ZM321.228 249.607L210.573 249.607L210.573 253.607L321.228 253.607L321.228 249.607ZM323.9 246.934C323.9 248.41 322.704 249.607 321.228 249.607L321.228 253.607C324.913 253.607 327.9 250.619 327.9 246.934L323.9 246.934ZM323.9 214.279L323.9 246.934L327.9 246.934L327.9 214.279L323.9 214.279ZM321.228 211.607C322.704 211.607 323.9 212.803 323.9 214.279L327.9 214.279C327.9 210.594 324.913 207.607 321.228 207.607L321.228 211.607ZM275.337 211.607L321.228 211.607L321.228 207.607L275.337 207.607L275.337 211.607ZM273.337 209.606C273.337 209.606 273.337 209.606 273.337 209.606C273.337 209.606 273.337 209.606 273.337 209.606C273.337 209.606 273.337 209.606 273.337 209.606C273.337 209.606 273.337 209.606 273.337 209.606C273.337 209.606 273.337 209.606 273.337 209.606C273.337 209.606 273.337 209.606 273.337 209.606C273.337 209.606 273.337 209.606 273.337 209.606C273.337 209.606 273.337 209.606 273.337 209.606C273.337 209.606 273.337 209.606 273.337 209.606C273.337 209.606 273.337 209.606 273.337 209.606C273.337 209.606 273.337 209.606 273.337 209.606C273.337 209.606 273.337 209.606 273.337 209.606C273.337 209.606 273.337 209.606 273.337 209.606C273.337 209.606 273.337 209.606 273.337 209.606C273.337 209.606 273.337 209.606 273.337 209.606C273.337 209.606 273.337 209.606 273.337 209.606C273.337 209.606 273.337 209.606 273.337 209.606C273.337 209.606 273.337 209.606 273.337 209.606C273.337 209.606 273.337 209.606 273.337 209.606C273.337 209.606 273.337 209.606 273.337 209.606C273.337 209.606 273.337 209.606 273.337 209.606C273.337 209.606 273.337 209.606 273.337 209.606C273.337 209.606 273.337 209.606 273.337 209.606C273.337 209.606 273.337 209.606 273.337 209.606C273.337 209.606 273.337 209.606 273.337 209.606C273.337 209.606 273.337 209.606 273.337 209.606C273.337 209.606 273.337 209.606 273.337 209.606C273.337 209.606 273.337 209.606 273.337 209.606C273.337 209.606 273.337 209.606 273.337 209.606C273.337 209.606 273.337 209.606 273.337 209.606C273.337 209.606 273.337 209.606 273.337 209.606C273.337 209.606 273.337 209.606 273.337 209.606C273.337 209.606 273.337 209.606 273.337 209.606C273.337 209.606 273.337 209.606 273.337 209.606C273.337 209.606 273.337 209.606 273.337 209.606C273.337 209.606 273.337 209.606 273.337 209.607L277.337 209.607C277.337 209.607 277.337 209.607 277.337 209.606C277.337 209.606 277.337 209.606 277.337 209.606C277.337 209.606 277.337 209.606 277.337 209.606C277.337 209.606 277.337 209.606 277.337 209.606C277.337 209.606 277.337 209.606 277.337 209.606C277.337 209.606 277.337 209.606 277.337 209.606C277.337 209.606 277.337 209.606 277.337 209.606C277.337 209.606 277.337 209.606 277.337 209.606C277.337 209.606 277.337 209.606 277.337 209.606C277.337 209.606 277.337 209.606 277.337 209.606C277.337 209.606 277.337 209.606 277.337 209.606C277.337 209.606 277.337 209.606 277.337 209.606C277.337 209.606 277.337 209.606 277.337 209.606C277.337 209.606 277.337 209.606 277.337 209.606C277.337 209.606 277.337 209.606 277.337 209.606C277.337 209.606 277.337 209.606 277.337 209.606C277.337 209.606 277.337 209.606 277.337 209.606C277.337 209.606 277.337 209.606 277.337 209.606C277.337 209.606 277.337 209.606 277.337 209.606C277.337 209.606 277.337 209.606 277.337 209.606C277.337 209.606 277.337 209.606 277.337 209.606C277.337 209.606 277.337 209.606 277.337 209.606C277.337 209.606 277.337 209.606 277.337 209.606C277.337 209.606 277.337 209.606 277.337 209.606C277.337 209.606 277.337 209.606 277.337 209.606C277.337 209.606 277.337 209.606 277.337 209.606C277.337 209.606 277.337 209.606 277.337 209.606C277.337 209.606 277.337 209.606 277.337 209.606C277.337 209.606 277.337 209.606 277.337 209.606C277.337 209.606 277.337 209.606 277.337 209.606C277.337 209.606 277.337 209.606 277.337 209.606C277.337 209.606 277.337 209.606 277.337 209.606C277.337 209.606 277.337 209.606 277.337 209.606C277.337 209.606 277.337 209.606 277.337 209.606C277.337 209.606 277.337 209.606 277.337 209.606C277.337 209.606 277.337 209.606 277.337 209.606C277.337 209.606 277.337 209.606 277.337 209.606C277.337 209.606 277.337 209.606 277.337 209.606L273.337 209.606ZM265.337 201.606C269.755 201.606 273.337 205.187 273.337 209.606L277.337 209.606C277.337 202.978 271.964 197.606 265.337 197.606L265.337 201.606ZM257.337 209.606C257.337 205.187 260.918 201.606 265.337 201.606L265.337 197.606C258.709 197.606 253.337 202.978 253.337 209.606L257.337 209.606ZM257.337 209.607C257.337 209.607 257.337 209.607 257.337 209.607C257.337 209.607 257.337 209.607 257.337 209.607C257.337 209.607 257.337 209.607 257.337 209.607C257.337 209.607 257.337 209.607 257.337 209.607C257.337 209.607 257.337 209.607 257.337 209.607C257.337 209.607 257.337 209.607 257.337 209.607C257.337 209.607 257.337 209.607 257.337 209.607C257.337 209.607 257.337 209.607 257.337 209.607C257.337 209.607 257.337 209.607 257.337 209.607C257.337 209.607 257.337 209.607 257.337 209.607C257.337 209.607 257.337 209.607 257.337 209.607C257.337 209.607 257.337 209.607 257.337 209.607C257.337 209.607 257.337 209.607 257.337 209.607C257.337 209.607 257.337 209.607 257.337 209.607C257.337 209.607 257.337 209.607 257.337 209.607C257.337 209.607 257.337 209.607 257.337 209.607C257.337 209.607 257.337 209.607 257.337 209.607C257.337 209.607 257.337 209.607 257.337 209.607C257.337 209.607 257.337 209.607 257.337 209.607C257.337 209.607 257.337 209.607 257.337 209.607C257.337 209.607 257.337 209.607 257.337 209.607C257.337 209.607 257.337 209.607 257.337 209.607C257.337 209.607 257.337 209.607 257.337 209.607C257.337 209.607 257.337 209.607 257.337 209.607C257.337 209.607 257.337 209.607 257.337 209.607C257.337 209.607 257.337 209.607 257.337 209.607C257.337 209.607 257.337 209.607 257.337 209.607C257.337 209.607 257.337 209.607 257.337 209.607C257.337 209.607 257.337 209.607 257.337 209.607C257.337 209.607 257.337 209.607 257.337 209.607C257.337 209.607 257.337 209.607 257.337 209.607C257.337 209.607 257.337 209.607 257.337 209.607C257.337 209.607 257.337 209.607 257.337 209.607C257.337 209.607 257.337 209.607 257.337 209.607C257.337 209.607 257.337 209.607 257.337 209.607C257.337 209.607 257.337 209.607 257.337 209.607C257.337 209.607 257.337 209.607 257.337 209.607C257.337 209.607 257.337 209.607 257.337 209.607C257.337 209.607 257.337 209.607 257.337 209.607C257.337 209.607 257.337 209.607 257.337 209.607C257.337 209.607 257.337 209.607 257.337 209.607C257.337 209.607 257.337 209.607 257.337 209.607C257.337 209.607 257.337 209.607 257.337 209.607C257.337 209.607 257.337 209.607 257.337 209.607C257.337 209.607 257.337 209.607 257.337 209.607C257.337 209.607 257.337 209.607 257.337 209.607C257.337 209.607 257.337 209.607 257.337 209.607C257.337 209.607 257.337 209.607 257.337 209.607C257.337 209.607 257.337 209.607 257.337 209.607C257.337 209.607 257.337 209.607 257.337 209.607C257.337 209.607 257.337 209.607 257.337 209.607C257.337 209.607 257.337 209.607 257.337 209.607C257.337 209.607 257.337 209.607 257.337 209.607C257.337 209.607 257.337 209.607 257.337 209.607C257.337 209.607 257.337 209.607 257.337 209.607C257.337 209.607 257.337 209.607 257.337 209.607C257.337 209.607 257.337 209.607 257.337 209.607C257.337 209.607 257.337 209.607 257.337 209.607C257.337 209.607 257.337 209.607 257.337 209.607C257.337 209.607 257.337 209.607 257.337 209.607C257.337 209.607 257.337 209.607 257.337 209.607C257.337 209.607 257.337 209.607 257.337 209.607C257.337 209.607 257.337 209.607 257.337 209.607C257.337 209.607 257.337 209.607 257.337 209.607C257.337 209.607 257.337 209.607 257.337 209.607C257.337 209.607 257.337 209.607 257.337 209.607C257.337 209.607 257.337 209.607 257.337 209.607C257.337 209.607 257.337 209.607 257.337 209.607C257.337 209.607 257.337 209.607 257.337 209.607C257.337 209.607 257.337 209.607 257.337 209.607C257.337 209.607 257.337 209.607 257.337 209.607C257.337 209.607 257.337 209.607 257.337 209.607C257.337 209.607 257.337 209.607 257.337 209.607C257.337 209.607 257.337 209.607 257.337 209.607C257.337 209.607 257.337 209.607 257.337 209.607C257.337 209.607 257.337 209.607 257.337 209.607C257.337 209.607 257.337 209.607 257.337 209.607C257.337 209.607 257.337 209.607 257.337 209.607C257.337 209.607 257.337 209.607 257.337 209.607C257.337 209.607 257.337 209.607 257.337 209.607C257.337 209.607 257.337 209.607 257.337 209.607C257.337 209.607 257.337 209.607 257.337 209.607C257.337 209.607 257.337 209.607 257.337 209.607C257.337 209.607 257.337 209.607 257.337 209.607C257.337 209.607 257.337 209.607 257.337 209.607C257.337 209.607 257.337 209.607 257.337 209.607C257.337 209.606 257.337 209.606 257.337 209.606C257.337 209.606 257.337 209.606 257.337 209.606C257.337 209.606 257.337 209.606 257.337 209.606C257.337 209.606 257.337 209.606 257.337 209.606C257.337 209.606 257.337 209.606 257.337 209.606C257.337 209.606 257.337 209.606 257.337 209.606C257.337 209.606 257.337 209.606 257.337 209.606C257.337 209.606 257.337 209.606 257.337 209.606C257.337 209.606 257.337 209.606 257.337 209.606C257.337 209.606 257.337 209.606 257.337 209.606C257.337 209.606 257.337 209.606 257.337 209.606C257.337 209.606 257.337 209.606 257.337 209.606C257.337 209.606 257.337 209.606 257.337 209.606C257.337 209.606 257.337 209.606 257.337 209.606C257.337 209.606 257.337 209.606 257.337 209.606C257.337 209.606 257.337 209.606 257.337 209.606C257.337 209.606 257.337 209.606 257.337 209.606C257.337 209.606 257.337 209.606 257.337 209.606C257.337 209.606 257.337 209.606 257.337 209.606C257.337 209.606 257.337 209.606 257.337 209.606C257.337 209.606 257.337 209.606 257.337 209.606C257.337 209.606 257.337 209.606 257.337 209.606C257.337 209.606 257.337 209.606 257.337 209.606C257.337 209.606 257.337 209.606 257.337 209.606C257.337 209.606 257.337 209.606 257.337 209.606C257.337 209.606 257.337 209.606 257.337 209.606C257.337 209.606 257.337 209.606 257.337 209.606C257.337 209.606 257.337 209.606 257.337 209.606C257.337 209.606 257.337 209.606 257.337 209.606C257.337 209.606 257.337 209.606 257.337 209.606C257.337 209.606 257.337 209.606 257.337 209.606C257.337 209.606 257.337 209.606 257.337 209.606C257.337 209.606 257.337 209.606 257.337 209.606C257.337 209.606 257.337 209.606 257.337 209.606C257.337 209.606 257.337 209.606 257.337 209.606C257.337 209.606 257.337 209.606 257.337 209.606C257.337 209.606 257.337 209.606 257.337 209.606C257.337 209.606 257.337 209.606 257.337 209.606C257.337 209.606 257.337 209.606 257.337 209.606C257.337 209.606 257.337 209.606 257.337 209.606C257.337 209.606 257.337 209.606 257.337 209.606C257.337 209.606 257.337 209.606 257.337 209.606C257.337 209.606 257.337 209.606 257.337 209.606C257.337 209.606 257.337 209.606 257.337 209.606C257.337 209.606 257.337 209.606 257.337 209.606C257.337 209.606 257.337 209.606 257.337 209.606C257.337 209.606 257.337 209.606 257.337 209.606C257.337 209.606 257.337 209.606 257.337 209.606C257.337 209.606 257.337 209.606 257.337 209.606C257.337 209.606 257.337 209.606 257.337 209.606C257.337 209.606 257.337 209.606 257.337 209.606C257.337 209.606 257.337 209.606 257.337 209.606C257.337 209.606 257.337 209.606 257.337 209.606C257.337 209.606 257.337 209.606 257.337 209.606C257.337 209.606 257.337 209.606 257.337 209.606C257.337 209.606 257.337 209.606 257.337 209.606C257.337 209.606 257.337 209.606 257.337 209.606C257.337 209.606 257.337 209.606 257.337 209.606C257.337 209.606 257.337 209.606 257.337 209.606C257.337 209.606 257.337 209.606 257.337 209.606C257.337 209.606 257.337 209.606 257.337 209.606C257.337 209.606 257.337 209.606 257.337 209.606C257.337 209.606 257.337 209.606 257.337 209.606C257.337 209.606 257.337 209.606 257.337 209.606C257.337 209.606 257.337 209.606 257.337 209.606C257.337 209.606 257.337 209.606 257.337 209.606C257.337 209.606 257.337 209.606 257.337 209.606C257.337 209.606 257.337 209.606 257.337 209.606C257.337 209.606 257.337 209.606 257.337 209.606C257.337 209.606 257.337 209.606 257.337 209.606C257.337 209.606 257.337 209.606 257.337 209.606C257.337 209.606 257.337 209.606 257.337 209.606C257.337 209.606 257.337 209.606 257.337 209.606C257.337 209.606 257.337 209.606 257.337 209.606C257.337 209.606 257.337 209.606 257.337 209.606C257.337 209.606 257.337 209.606 257.337 209.606C257.337 209.606 257.337 209.606 257.337 209.606C257.337 209.606 257.337 209.606 257.337 209.606C257.337 209.606 257.337 209.606 257.337 209.606C257.337 209.606 257.337 209.606 257.337 209.606C257.337 209.606 257.337 209.606 257.337 209.606C257.337 209.606 257.337 209.606 257.337 209.606C257.337 209.606 257.337 209.606 257.337 209.606C257.337 209.606 257.337 209.606 257.337 209.606C257.337 209.606 257.337 209.606 257.337 209.606C257.337 209.606 257.337 209.606 257.337 209.606C257.337 209.606 257.337 209.606 257.337 209.606C257.337 209.606 257.337 209.606 257.337 209.606C257.337 209.606 257.337 209.606 257.337 209.606C257.337 209.606 257.337 209.606 257.337 209.606C257.337 209.606 257.337 209.606 257.337 209.606C257.337 209.606 257.337 209.606 257.337 209.606C257.337 209.606 257.337 209.606 257.337 209.606C257.337 209.606 257.337 209.606 257.337 209.606C257.337 209.606 257.337 209.606 257.337 209.606C257.337 209.606 257.337 209.606 257.337 209.606C257.337 209.606 257.337 209.606 257.337 209.606C257.337 209.606 257.337 209.606 257.337 209.606C257.337 209.606 257.337 209.606 257.337 209.606C257.337 209.606 257.337 209.606 257.337 209.606C257.337 209.606 257.337 209.606 257.337 209.606C257.337 209.606 257.337 209.606 257.337 209.606C257.337 209.606 257.337 209.606 257.337 209.606C257.337 209.606 257.337 209.606 257.337 209.606C257.337 209.606 257.337 209.606 257.337 209.606C257.337 209.606 257.337 209.606 257.337 209.606C257.337 209.606 257.337 209.606 257.337 209.606C257.337 209.606 257.337 209.606 257.337 209.606C257.337 209.606 257.337 209.606 257.337 209.606C257.337 209.606 257.337 209.606 257.337 209.606C257.337 209.606 257.337 209.606 257.337 209.606C257.337 209.606 257.337 209.606 257.337 209.606C257.337 209.606 257.337 209.606 257.337 209.606C257.337 209.606 257.337 209.606 257.337 209.606C257.337 209.606 257.337 209.606 257.337 209.606C257.337 209.606 257.337 209.606 257.337 209.606C257.337 209.606 257.337 209.606 257.337 209.606C257.337 209.606 257.337 209.606 257.337 209.606C257.337 209.606 257.337 209.606 257.337 209.606C257.337 209.606 257.337 209.606 257.337 209.606C257.337 209.606 257.337 209.606 257.337 209.606C257.337 209.606 257.337 209.606 257.337 209.606C257.337 209.606 257.337 209.606 257.337 209.606C257.337 209.606 257.337 209.606 257.337 209.606C257.337 209.606 257.337 209.606 257.337 209.606C257.337 209.606 257.337 209.606 257.337 209.606C257.337 209.606 257.337 209.606 257.337 209.606C257.337 209.606 257.337 209.606 257.337 209.606C257.337 209.606 257.337 209.606 257.337 209.606C257.337 209.606 257.337 209.606 257.337 209.606C257.337 209.606 257.337 209.606 257.337 209.606C257.337 209.606 257.337 209.606 257.337 209.606C257.337 209.606 257.337 209.606 257.337 209.606C257.337 209.606 257.337 209.606 257.337 209.606C257.337 209.606 257.337 209.606 257.337 209.606C257.337 209.606 257.337 209.606 257.337 209.606C257.337 209.606 257.337 209.606 257.337 209.606C257.337 209.606 257.337 209.606 257.337 209.606C257.337 209.606 257.337 209.606 257.337 209.606C257.337 209.606 257.337 209.606 257.337 209.606C257.337 209.606 257.337 209.606 257.337 209.606C257.337 209.606 257.337 209.606 257.337 209.606C257.337 209.606 257.337 209.606 257.337 209.606C257.337 209.606 257.337 209.606 257.337 209.606C257.337 209.606 257.337 209.606 257.337 209.606C257.337 209.606 257.337 209.606 257.337 209.606C257.337 209.606 257.337 209.606 257.337 209.606C257.337 209.606 257.337 209.606 257.337 209.606C257.337 209.606 257.337 209.606 257.337 209.606C257.337 209.606 257.337 209.606 257.337 209.606C257.337 209.606 257.337 209.606 257.337 209.606C257.337 209.606 257.337 209.606 257.337 209.606C257.337 209.606 257.337 209.606 257.337 209.606C257.337 209.606 257.337 209.606 257.337 209.606C257.337 209.606 257.337 209.606 257.337 209.606C257.337 209.606 257.337 209.606 257.337 209.606C257.337 209.606 257.337 209.606 257.337 209.606C257.337 209.606 257.337 209.606 257.337 209.606C257.337 209.606 257.337 209.606 257.337 209.606C257.337 209.606 257.337 209.606 257.337 209.606C257.337 209.606 257.337 209.606 257.337 209.606C257.337 209.606 257.337 209.606 257.337 209.606C257.337 209.606 257.337 209.606 257.337 209.606C257.337 209.606 257.337 209.606 257.337 209.606C257.337 209.606 257.337 209.606 257.337 209.606C257.337 209.606 257.337 209.606 257.337 209.606C257.337 209.606 257.337 209.606 257.337 209.606C257.337 209.606 257.337 209.606 257.337 209.606C257.337 209.606 257.337 209.606 257.337 209.606C257.337 209.606 257.337 209.606 257.337 209.606C257.337 209.606 257.337 209.606 257.337 209.606C257.337 209.606 257.337 209.606 257.337 209.606C257.337 209.606 257.337 209.606 257.337 209.606C257.337 209.606 257.337 209.606 257.337 209.606C257.337 209.606 257.337 209.606 257.337 209.606C257.337 209.606 257.337 209.606 257.337 209.606C257.337 209.606 257.337 209.606 257.337 209.606C257.337 209.606 257.337 209.606 257.337 209.606C257.337 209.606 257.337 209.606 257.337 209.606C257.337 209.606 257.337 209.606 257.337 209.606C257.337 209.606 257.337 209.606 257.337 209.606C257.337 209.606 257.337 209.606 257.337 209.606C257.337 209.606 257.337 209.606 257.337 209.606C257.337 209.606 257.337 209.606 257.337 209.606C257.337 209.606 257.337 209.606 257.337 209.606C257.337 209.606 257.337 209.606 257.337 209.606C257.337 209.606 257.337 209.606 257.337 209.606C257.337 209.606 257.337 209.606 257.337 209.606C257.337 209.606 257.337 209.606 257.337 209.606C257.337 209.606 257.337 209.606 257.337 209.606C257.337 209.606 257.337 209.606 257.337 209.606C257.337 209.606 257.337 209.606 257.337 209.606C257.337 209.606 257.337 209.606 257.337 209.606C257.337 209.606 257.337 209.606 257.337 209.606C257.337 209.606 257.337 209.606 257.337 209.606C257.337 209.606 257.337 209.606 257.337 209.606C257.337 209.606 257.337 209.606 257.337 209.606C257.337 209.606 257.337 209.606 257.337 209.606C257.337 209.606 257.337 209.606 257.337 209.606C257.337 209.606 257.337 209.606 257.337 209.606C257.337 209.606 257.337 209.606 257.337 209.606C257.337 209.606 257.337 209.606 257.337 209.606C257.337 209.606 257.337 209.606 257.337 209.606C257.337 209.606 257.337 209.606 257.337 209.606C257.337 209.606 257.337 209.606 257.337 209.606C257.337 209.606 257.337 209.606 257.337 209.606C257.337 209.606 257.337 209.606 257.337 209.606C257.337 209.606 257.337 209.606 257.337 209.606C257.337 209.606 257.337 209.606 257.337 209.606C257.337 209.606 257.337 209.606 257.337 209.606C257.337 209.606 257.337 209.606 257.337 209.606C257.337 209.606 257.337 209.606 257.337 209.606C257.337 209.606 257.337 209.606 257.337 209.606C257.337 209.606 257.337 209.606 257.337 209.606C257.337 209.606 257.337 209.606 257.337 209.606C257.337 209.606 257.337 209.606 257.337 209.606C257.337 209.606 257.337 209.606 257.337 209.606C257.337 209.606 257.337 209.606 257.337 209.606C257.337 209.606 257.337 209.606 257.337 209.606C257.337 209.606 257.337 209.606 257.337 209.606C257.337 209.606 257.337 209.606 257.337 209.606C257.337 209.606 257.337 209.606 257.337 209.606C257.337 209.606 257.337 209.606 257.337 209.606C257.337 209.606 257.337 209.606 257.337 209.606C257.337 209.606 257.337 209.606 257.337 209.606C257.337 209.606 257.337 209.606 257.337 209.606C257.337 209.606 257.337 209.606 257.337 209.606C257.337 209.606 257.337 209.606 257.337 209.606C257.337 209.606 257.337 209.606 257.337 209.606C257.337 209.606 257.337 209.606 257.337 209.606C257.337 209.606 257.337 209.606 257.337 209.606C257.337 209.606 257.337 209.606 257.337 209.606C257.337 209.606 257.337 209.606 257.337 209.606C257.337 209.606 257.337 209.606 257.337 209.606C257.337 209.606 257.337 209.606 257.337 209.606C257.337 209.606 257.337 209.606 257.337 209.606C257.337 209.606 257.337 209.606 257.337 209.606C257.337 209.606 257.337 209.606 257.337 209.606C257.337 209.606 257.337 209.606 257.337 209.606C257.337 209.606 257.337 209.606 257.337 209.606C257.337 209.606 257.337 209.606 257.337 209.606C257.337 209.606 257.337 209.606 257.337 209.606C257.337 209.606 257.337 209.606 257.337 209.606C257.337 209.606 257.337 209.606 257.337 209.606C257.337 209.606 257.337 209.606 257.337 209.606C257.337 209.606 257.337 209.606 257.337 209.606C257.337 209.606 257.337 209.606 257.337 209.606C257.337 209.606 257.337 209.606 257.337 209.606C257.337 209.606 257.337 209.606 257.337 209.606C257.337 209.606 257.337 209.606 257.337 209.606C257.337 209.606 257.337 209.606 257.337 209.606C257.337 209.606 257.337 209.606 257.337 209.606C257.337 209.606 257.337 209.606 257.337 209.606C257.337 209.606 257.337 209.606 257.337 209.606C257.337 209.606 257.337 209.606 257.337 209.606C257.337 209.606 257.337 209.606 257.337 209.606C257.337 209.606 257.337 209.606 257.337 209.606C257.337 209.606 257.337 209.606 257.337 209.606C257.337 209.606 257.337 209.606 257.337 209.606C257.337 209.606 257.337 209.606 257.337 209.606C257.337 209.606 257.337 209.606 257.337 209.606C257.337 209.606 257.337 209.606 257.337 209.606C257.337 209.606 257.337 209.606 257.337 209.606C257.337 209.606 257.337 209.606 257.337 209.606C257.337 209.606 257.337 209.606 257.337 209.606C257.337 209.606 257.337 209.606 257.337 209.606C257.337 209.606 257.337 209.606 257.337 209.606C257.337 209.606 257.337 209.606 257.337 209.606C257.337 209.606 257.337 209.606 257.337 209.606C257.337 209.606 257.337 209.606 257.337 209.606C257.337 209.606 257.337 209.606 257.337 209.606C257.337 209.606 257.337 209.606 257.337 209.606C257.337 209.606 257.337 209.606 257.337 209.606C257.337 209.606 257.337 209.606 257.337 209.606C257.337 209.606 257.337 209.606 257.337 209.606C257.337 209.606 257.337 209.606 257.337 209.606C257.337 209.606 257.337 209.606 257.337 209.606C257.337 209.606 257.337 209.606 257.337 209.606C257.337 209.606 257.337 209.606 257.337 209.606C257.337 209.606 257.337 209.606 257.337 209.606C257.337 209.606 257.337 209.606 257.337 209.606C257.337 209.606 257.337 209.606 257.337 209.606C257.337 209.606 257.337 209.606 257.337 209.606C257.337 209.606 257.337 209.606 257.337 209.606C257.337 209.606 257.337 209.606 257.337 209.606C257.337 209.606 257.337 209.606 257.337 209.606C257.337 209.606 257.337 209.606 257.337 209.606C257.337 209.606 257.337 209.606 257.337 209.606C257.337 209.606 257.337 209.606 257.337 209.606C257.337 209.606 257.337 209.606 257.337 209.606C257.337 209.606 257.337 209.606 257.337 209.606C257.337 209.606 257.337 209.606 257.337 209.606C257.337 209.606 257.337 209.606 257.337 209.606C257.337 209.606 257.337 209.606 257.337 209.606C257.337 209.606 257.337 209.606 257.337 209.606C257.337 209.606 257.337 209.606 257.337 209.606C257.337 209.606 257.337 209.606 257.337 209.606C257.337 209.606 257.337 209.606 257.337 209.606C257.337 209.606 257.337 209.606 257.337 209.606L253.337 209.606C253.337 209.606 253.337 209.606 253.337 209.606C253.337 209.606 253.337 209.606 253.337 209.606C253.337 209.606 253.337 209.606 253.337 209.606C253.337 209.606 253.337 209.606 253.337 209.606C253.337 209.606 253.337 209.606 253.337 209.606C253.337 209.606 253.337 209.606 253.337 209.606C253.337 209.606 253.337 209.606 253.337 209.606C253.337 209.606 253.337 209.606 253.337 209.606C253.337 209.606 253.337 209.606 253.337 209.606C253.337 209.606 253.337 209.606 253.337 209.606C253.337 209.606 253.337 209.606 253.337 209.606C253.337 209.606 253.337 209.606 253.337 209.606C253.337 209.606 253.337 209.606 253.337 209.606C253.337 209.606 253.337 209.606 253.337 209.606C253.337 209.606 253.337 209.606 253.337 209.606C253.337 209.606 253.337 209.606 253.337 209.606C253.337 209.606 253.337 209.606 253.337 209.606C253.337 209.606 253.337 209.606 253.337 209.606C253.337 209.606 253.337 209.606 253.337 209.606C253.337 209.606 253.337 209.606 253.337 209.606C253.337 209.606 253.337 209.606 253.337 209.606C253.337 209.606 253.337 209.606 253.337 209.606C253.337 209.606 253.337 209.606 253.337 209.606C253.337 209.606 253.337 209.606 253.337 209.606C253.337 209.606 253.337 209.606 253.337 209.606C253.337 209.606 253.337 209.606 253.337 209.606C253.337 209.606 253.337 209.606 253.337 209.606C253.337 209.606 253.337 209.606 253.337 209.606C253.337 209.606 253.337 209.606 253.337 209.606C253.337 209.606 253.337 209.606 253.337 209.606C253.337 209.606 253.337 209.606 253.337 209.606C253.337 209.606 253.337 209.606 253.337 209.606C253.337 209.606 253.337 209.606 253.337 209.606C253.337 209.606 253.337 209.606 253.337 209.606C253.337 209.606 253.337 209.606 253.337 209.606C253.337 209.606 253.337 209.606 253.337 209.606C253.337 209.606 253.337 209.606 253.337 209.606C253.337 209.606 253.337 209.606 253.337 209.606C253.337 209.606 253.337 209.606 253.337 209.606C253.337 209.606 253.337 209.606 253.337 209.606C253.337 209.606 253.337 209.606 253.337 209.606C253.337 209.606 253.337 209.606 253.337 209.606C253.337 209.606 253.337 209.606 253.337 209.606C253.337 209.606 253.337 209.606 253.337 209.606C253.337 209.606 253.337 209.606 253.337 209.606C253.337 209.606 253.337 209.606 253.337 209.606C253.337 209.606 253.337 209.606 253.337 209.606C253.337 209.606 253.337 209.606 253.337 209.606C253.337 209.606 253.337 209.606 253.337 209.606C253.337 209.606 253.337 209.606 253.337 209.606C253.337 209.606 253.337 209.606 253.337 209.606C253.337 209.606 253.337 209.606 253.337 209.606C253.337 209.606 253.337 209.606 253.337 209.606C253.337 209.606 253.337 209.606 253.337 209.606C253.337 209.606 253.337 209.606 253.337 209.606C253.337 209.606 253.337 209.606 253.337 209.606C253.337 209.606 253.337 209.606 253.337 209.606C253.337 209.606 253.337 209.606 253.337 209.606C253.337 209.606 253.337 209.606 253.337 209.606C253.337 209.606 253.337 209.606 253.337 209.606C253.337 209.606 253.337 209.606 253.337 209.606C253.337 209.606 253.337 209.606 253.337 209.606C253.337 209.606 253.337 209.606 253.337 209.606C253.337 209.606 253.337 209.606 253.337 209.606C253.337 209.606 253.337 209.606 253.337 209.606C253.337 209.606 253.337 209.606 253.337 209.606C253.337 209.606 253.337 209.606 253.337 209.606C253.337 209.606 253.337 209.606 253.337 209.606C253.337 209.606 253.337 209.606 253.337 209.606C253.337 209.606 253.337 209.606 253.337 209.606C253.337 209.606 253.337 209.606 253.337 209.606C253.337 209.606 253.337 209.606 253.337 209.606C253.337 209.606 253.337 209.606 253.337 209.606C253.337 209.606 253.337 209.606 253.337 209.606C253.337 209.606 253.337 209.606 253.337 209.606C253.337 209.606 253.337 209.606 253.337 209.606C253.337 209.606 253.337 209.606 253.337 209.606C253.337 209.606 253.337 209.606 253.337 209.606C253.337 209.606 253.337 209.606 253.337 209.606C253.337 209.606 253.337 209.606 253.337 209.606C253.337 209.606 253.337 209.606 253.337 209.606C253.337 209.606 253.337 209.606 253.337 209.606C253.337 209.606 253.337 209.606 253.337 209.606C253.337 209.606 253.337 209.606 253.337 209.606C253.337 209.606 253.337 209.606 253.337 209.606C253.337 209.606 253.337 209.606 253.337 209.606C253.337 209.606 253.337 209.606 253.337 209.606C253.337 209.606 253.337 209.606 253.337 209.606C253.337 209.606 253.337 209.606 253.337 209.606C253.337 209.606 253.337 209.606 253.337 209.606C253.337 209.606 253.337 209.606 253.337 209.606C253.337 209.606 253.337 209.606 253.337 209.606C253.337 209.606 253.337 209.606 253.337 209.606C253.337 209.606 253.337 209.606 253.337 209.606C253.337 209.606 253.337 209.606 253.337 209.606C253.337 209.606 253.337 209.606 253.337 209.606C253.337 209.606 253.337 209.606 253.337 209.606C253.337 209.606 253.337 209.606 253.337 209.606C253.337 209.606 253.337 209.606 253.337 209.606C253.337 209.606 253.337 209.606 253.337 209.606C253.337 209.606 253.337 209.606 253.337 209.606C253.337 209.606 253.337 209.606 253.337 209.606C253.337 209.606 253.337 209.606 253.337 209.606C253.337 209.606 253.337 209.606 253.337 209.606C253.337 209.606 253.337 209.606 253.337 209.606C253.337 209.606 253.337 209.606 253.337 209.606C253.337 209.606 253.337 209.606 253.337 209.606C253.337 209.606 253.337 209.606 253.337 209.606C253.337 209.606 253.337 209.606 253.337 209.606C253.337 209.606 253.337 209.606 253.337 209.606C253.337 209.606 253.337 209.606 253.337 209.606C253.337 209.606 253.337 209.606 253.337 209.606C253.337 209.606 253.337 209.606 253.337 209.606C253.337 209.606 253.337 209.606 253.337 209.606C253.337 209.606 253.337 209.606 253.337 209.606C253.337 209.606 253.337 209.606 253.337 209.606C253.337 209.606 253.337 209.606 253.337 209.606C253.337 209.606 253.337 209.606 253.337 209.606C253.337 209.606 253.337 209.606 253.337 209.606C253.337 209.606 253.337 209.606 253.337 209.606C253.337 209.606 253.337 209.606 253.337 209.606C253.337 209.606 253.337 209.606 253.337 209.606C253.337 209.606 253.337 209.606 253.337 209.606C253.337 209.606 253.337 209.606 253.337 209.606C253.337 209.606 253.337 209.606 253.337 209.606C253.337 209.606 253.337 209.606 253.337 209.606C253.337 209.606 253.337 209.606 253.337 209.606C253.337 209.606 253.337 209.606 253.337 209.606C253.337 209.606 253.337 209.606 253.337 209.606C253.337 209.606 253.337 209.606 253.337 209.606C253.337 209.606 253.337 209.606 253.337 209.606C253.337 209.606 253.337 209.606 253.337 209.606C253.337 209.606 253.337 209.606 253.337 209.606C253.337 209.606 253.337 209.606 253.337 209.606C253.337 209.606 253.337 209.606 253.337 209.606C253.337 209.606 253.337 209.606 253.337 209.606C253.337 209.606 253.337 209.606 253.337 209.606C253.337 209.606 253.337 209.606 253.337 209.606C253.337 209.606 253.337 209.606 253.337 209.606C253.337 209.606 253.337 209.606 253.337 209.606C253.337 209.606 253.337 209.606 253.337 209.606C253.337 209.606 253.337 209.606 253.337 209.606C253.337 209.606 253.337 209.606 253.337 209.606C253.337 209.606 253.337 209.606 253.337 209.606C253.337 209.606 253.337 209.606 253.337 209.606C253.337 209.606 253.337 209.606 253.337 209.606C253.337 209.606 253.337 209.606 253.337 209.606C253.337 209.606 253.337 209.606 253.337 209.606C253.337 209.606 253.337 209.606 253.337 209.606C253.337 209.606 253.337 209.606 253.337 209.606C253.337 209.606 253.337 209.606 253.337 209.606C253.337 209.606 253.337 209.606 253.337 209.606C253.337 209.606 253.337 209.606 253.337 209.606C253.337 209.606 253.337 209.606 253.337 209.606C253.337 209.606 253.337 209.606 253.337 209.606C253.337 209.606 253.337 209.606 253.337 209.606C253.337 209.606 253.337 209.606 253.337 209.606C253.337 209.606 253.337 209.606 253.337 209.606C253.337 209.606 253.337 209.606 253.337 209.606C253.337 209.606 253.337 209.606 253.337 209.606C253.337 209.606 253.337 209.606 253.337 209.606C253.337 209.606 253.337 209.606 253.337 209.606C253.337 209.606 253.337 209.606 253.337 209.606C253.337 209.606 253.337 209.606 253.337 209.606C253.337 209.606 253.337 209.606 253.337 209.606C253.337 209.606 253.337 209.606 253.337 209.606C253.337 209.606 253.337 209.606 253.337 209.606C253.337 209.606 253.337 209.606 253.337 209.606C253.337 209.606 253.337 209.606 253.337 209.606C253.337 209.606 253.337 209.606 253.337 209.606C253.337 209.606 253.337 209.606 253.337 209.606C253.337 209.606 253.337 209.606 253.337 209.607C253.337 209.607 253.337 209.607 253.337 209.607C253.337 209.607 253.337 209.607 253.337 209.607C253.337 209.607 253.337 209.607 253.337 209.607C253.337 209.607 253.337 209.607 253.337 209.607C253.337 209.607 253.337 209.607 253.337 209.607C253.337 209.607 253.337 209.607 253.337 209.607C253.337 209.607 253.337 209.607 253.337 209.607C253.337 209.607 253.337 209.607 253.337 209.607C253.337 209.607 253.337 209.607 253.337 209.607C253.337 209.607 253.337 209.607 253.337 209.607C253.337 209.607 253.337 209.607 253.337 209.607C253.337 209.607 253.337 209.607 253.337 209.607C253.337 209.607 253.337 209.607 253.337 209.607C253.337 209.607 253.337 209.607 253.337 209.607C253.337 209.607 253.337 209.607 253.337 209.607C253.337 209.607 253.337 209.607 253.337 209.607C253.337 209.607 253.337 209.607 253.337 209.607C253.337 209.607 253.337 209.607 253.337 209.607C253.337 209.607 253.337 209.607 253.337 209.607C253.337 209.607 253.337 209.607 253.337 209.607C253.337 209.607 253.337 209.607 253.337 209.607C253.337 209.607 253.337 209.607 253.337 209.607C253.337 209.607 253.337 209.607 253.337 209.607C253.337 209.607 253.337 209.607 253.337 209.607C253.337 209.607 253.337 209.607 253.337 209.607C253.337 209.607 253.337 209.607 253.337 209.607C253.337 209.607 253.337 209.607 253.337 209.607C253.337 209.607 253.337 209.607 253.337 209.607C253.337 209.607 253.337 209.607 253.337 209.607C253.337 209.607 253.337 209.607 253.337 209.607C253.337 209.607 253.337 209.607 253.337 209.607C253.337 209.607 253.337 209.607 253.337 209.607C253.337 209.607 253.337 209.607 253.337 209.607C253.337 209.607 253.337 209.607 253.337 209.607C253.337 209.607 253.337 209.607 253.337 209.607C253.337 209.607 253.337 209.607 253.337 209.607C253.337 209.607 253.337 209.607 253.337 209.607C253.337 209.607 253.337 209.607 253.337 209.607C253.337 209.607 253.337 209.607 253.337 209.607C253.337 209.607 253.337 209.607 253.337 209.607C253.337 209.607 253.337 209.607 253.337 209.607C253.337 209.607 253.337 209.607 253.337 209.607C253.337 209.607 253.337 209.607 253.337 209.607C253.337 209.607 253.337 209.607 253.337 209.607C253.337 209.607 253.337 209.607 253.337 209.607C253.337 209.607 253.337 209.607 253.337 209.607C253.337 209.607 253.337 209.607 253.337 209.607C253.337 209.607 253.337 209.607 253.337 209.607C253.337 209.607 253.337 209.607 253.337 209.607C253.337 209.607 253.337 209.607 253.337 209.607C253.337 209.607 253.337 209.607 253.337 209.607C253.337 209.607 253.337 209.607 253.337 209.607C253.337 209.607 253.337 209.607 253.337 209.607C253.337 209.607 253.337 209.607 253.337 209.607C253.337 209.607 253.337 209.607 253.337 209.607C253.337 209.607 253.337 209.607 253.337 209.607C253.337 209.607 253.337 209.607 253.337 209.607C253.337 209.607 253.337 209.607 253.337 209.607C253.337 209.607 253.337 209.607 253.337 209.607C253.337 209.607 253.337 209.607 253.337 209.607C253.337 209.607 253.337 209.607 253.337 209.607C253.337 209.607 253.337 209.607 253.337 209.607C253.337 209.607 253.337 209.607 253.337 209.607C253.337 209.607 253.337 209.607 253.337 209.607C253.337 209.607 253.337 209.607 253.337 209.607C253.337 209.607 253.337 209.607 253.337 209.607C253.337 209.607 253.337 209.607 253.337 209.607C253.337 209.607 253.337 209.607 253.337 209.607C253.337 209.607 253.337 209.607 253.337 209.607C253.337 209.607 253.337 209.607 253.337 209.607C253.337 209.607 253.337 209.607 253.337 209.607C253.337 209.607 253.337 209.607 253.337 209.607C253.337 209.607 253.337 209.607 253.337 209.607C253.337 209.607 253.337 209.607 253.337 209.607C253.337 209.607 253.337 209.607 253.337 209.607C253.337 209.607 253.337 209.607 253.337 209.607C253.337 209.607 253.337 209.607 253.337 209.607C253.337 209.607 253.337 209.607 253.337 209.607C253.337 209.607 253.337 209.607 253.337 209.607C253.337 209.607 253.337 209.607 253.337 209.607C253.337 209.607 253.337 209.607 253.337 209.607C253.337 209.607 253.337 209.607 253.337 209.607C253.337 209.607 253.337 209.607 253.337 209.607C253.337 209.607 253.337 209.607 253.337 209.607C253.337 209.607 253.337 209.607 253.337 209.607C253.337 209.607 253.337 209.607 253.337 209.607L257.337 209.607ZM210.573 211.607L255.337 211.607L255.337 207.607L210.573 207.607L210.573 211.607Z" fill="white" mask="url(#path-20-inside-2_209_3267)"/>
<path d="M235.157 238.607H232.322V228.332C232.322 225.827 231.017 225.167 229.457 225.167C227.657 225.167 226.217 226.052 225.062 227.387V238.607H222.227V223.202H224.627L224.882 225.407H225.257C226.472 224.102 228.077 222.842 230.687 222.842C233.432 222.842 235.157 224.237 235.157 227.582V238.607ZM239.78 230.882C239.78 225.677 242.885 222.842 247.625 222.842C251.99 222.842 254.54 225.122 254.54 229.652V231.002H242.69C242.735 234.752 244.52 236.642 247.535 236.642C249.5 236.642 250.985 235.847 251.72 234.092L254.48 234.557C253.43 237.437 250.91 238.967 247.52 238.967C242.915 238.967 239.78 236.177 239.78 230.882ZM242.84 229.112H251.765C251.75 226.367 249.95 225.167 247.535 225.167C245.015 225.167 243.335 226.502 242.84 229.112ZM258.099 223.202H261.129L265.929 235.112H266.139L270.909 223.202H273.699L267.339 238.607H264.459L258.099 223.202ZM276.987 230.882C276.987 225.677 280.092 222.842 284.832 222.842C289.197 222.842 291.747 225.122 291.747 229.652V231.002H279.897C279.942 234.752 281.727 236.642 284.742 236.642C286.707 236.642 288.192 235.847 288.927 234.092L291.687 234.557C290.637 237.437 288.117 238.967 284.727 238.967C280.122 238.967 276.987 236.177 276.987 230.882ZM280.047 229.112H288.972C288.957 226.367 287.157 225.167 284.742 225.167C282.222 225.167 280.542 226.502 280.047 229.112ZM302.461 223.202L302.701 225.392H303.091C304.681 223.742 306.211 222.842 308.911 222.842C309.466 222.842 309.931 222.887 310.396 222.977V225.632C306.976 225.632 305.161 225.857 302.896 227.417V236.312H308.356V238.607H295.966V236.312H300.061V225.497H295.966V223.202H302.461Z" fill="white"/>
<path d="M87.0518 76.8411C86.466 76.2553 85.5163 76.2553 84.9305 76.8411L75.3845 86.387C74.7987 86.9728 74.7987 87.9225 75.3845 88.5083C75.9703 89.0941 76.9201 89.0941 77.5058 88.5083L85.9911 80.0231L94.4764 88.5083C95.0622 89.0941 96.0119 89.0941 96.5977 88.5083C97.1835 87.9225 97.1835 86.9728 96.5977 86.387L87.0518 76.8411ZM87.4911 206.084L87.4911 77.9017L84.4911 77.9017L84.4911 206.084L87.4911 206.084Z" fill="black"/>
<path d="M60.2541 221.966H61.8411C62.8301 221.966 63.3131 221.943 63.8651 221.874V225.255C63.5431 225.209 63.3361 225.186 62.8071 225.163C62.6231 226.083 62.4161 226.842 62.1401 227.647C63.1061 227.647 63.5201 227.624 63.9801 227.555V231.028C63.4741 230.959 62.9451 230.936 62.3241 230.936H54.6421C53.4461 230.936 52.8711 230.959 52.2271 231.051V227.532C52.8251 227.624 53.2161 227.647 54.4581 227.647C54.3201 226.934 54.0441 225.784 53.8371 225.163C53.3081 225.186 52.9861 225.209 52.5951 225.255V221.851C53.1701 221.943 53.6301 221.966 54.8031 221.966H56.7121V221.552C56.7121 220.977 56.6891 220.517 56.5971 220.057H60.3691C60.2771 220.517 60.2541 220.954 60.2541 221.506V221.966ZM57.8621 227.647H58.8511C59.0811 226.957 59.2191 226.29 59.4031 225.163H57.2871C57.5631 226.037 57.7241 226.727 57.8621 227.647ZM56.8041 240.435V241.654H53.3081C53.4001 240.941 53.4231 240.32 53.4231 239.4V233.811C53.4231 233.029 53.4001 232.431 53.3311 231.971C53.8831 232.017 54.3891 232.04 55.2171 232.04H61.6341C62.6461 232.04 62.9451 232.017 63.2901 231.971C63.2441 232.316 63.2211 232.661 63.2211 233.443V239.998C63.2211 240.711 63.2441 241.102 63.3131 241.631H59.8171V240.435H56.8041ZM56.8041 235.168V237.307H59.8171V235.168H56.8041ZM72.5131 220.563L74.0311 222.748C73.8701 223.093 73.8701 223.093 73.2951 224.726C72.8581 225.945 72.1911 227.578 71.4781 229.119C72.5131 230.499 72.9271 231.235 73.3411 232.339C73.6861 233.305 73.8701 234.317 73.8701 235.237C73.8701 236.824 73.2261 237.951 72.0531 238.411C71.4551 238.664 70.6041 238.779 69.5461 238.779C69.4311 238.779 69.1551 238.779 68.7871 238.756C68.7181 237.031 68.5801 236.387 68.0051 235.283C68.5341 235.329 68.7411 235.352 68.9711 235.352C69.9601 235.352 70.3051 235.122 70.3051 234.478C70.3051 233.696 70.0981 232.822 69.7301 231.948C69.3391 231.051 68.9711 230.453 68.0741 229.349C68.9711 227.509 69.5231 225.876 69.9371 223.944H67.9131V238.894C67.9131 240.228 67.9591 241.033 68.0511 241.7H64.3941C64.4631 240.826 64.5091 239.906 64.5091 239.009V222.334C64.5091 221.621 64.4861 221.184 64.4401 220.586C65.1071 220.655 65.5901 220.678 66.3491 220.678H70.6271C71.5931 220.678 71.9611 220.655 72.5131 220.563ZM82.2881 230.775H81.6901C81.0691 230.775 80.6551 230.798 80.1261 230.867V229.579C79.0221 230.729 78.4701 231.212 77.2741 232.132C76.5381 230.821 75.9631 229.993 74.9281 228.889C77.5731 227.049 79.3671 225.002 80.7241 222.334C81.1841 221.437 81.4141 220.862 81.5291 220.195L85.3011 221.575C85.0711 221.966 84.9561 222.173 84.7031 222.748C84.0591 224.151 82.9091 226.06 81.7821 227.578H90.4531C89.2341 226.014 88.3141 224.427 87.4861 222.518C87.3481 222.173 87.1871 221.851 87.0491 221.529L90.4761 220.218C90.6601 220.839 90.8441 221.276 91.4191 222.334C92.7991 224.864 94.7311 226.865 97.3531 228.475C96.2491 229.855 95.9731 230.269 95.0301 231.994C94.0411 231.258 93.6501 230.936 93.0751 230.407C93.0521 235.03 92.7301 238.158 92.1551 239.4C91.5341 240.734 90.4301 241.171 87.5781 241.171C87.3481 241.171 87.3481 241.171 85.9451 241.148C85.7841 239.791 85.5771 239.032 84.9561 237.468C85.9221 237.606 86.8421 237.675 87.3941 237.675C88.5901 237.675 88.8661 237.514 89.0961 236.548C89.3261 235.651 89.4871 233.374 89.4871 230.775H85.9911C85.7381 233.259 85.2321 234.846 84.1511 236.64C83.2541 238.112 82.0351 239.4 80.5171 240.458C79.8041 240.941 79.3211 241.217 78.2171 241.723C77.4811 240.412 77.0211 239.768 75.9401 238.595C78.6311 237.514 80.2871 236.203 81.2991 234.363C81.9431 233.213 82.1961 232.27 82.2881 230.775ZM100.205 236.778V233.535C99.4921 232.684 98.9861 232.178 98.1811 231.58C99.5841 230.66 100.182 229.878 100.596 228.429C99.6761 228.429 99.1471 228.452 98.4801 228.544V225.232C99.2391 225.324 99.8141 225.347 100.895 225.347V223.737C99.8601 223.737 99.5381 223.76 98.9401 223.829V220.54C99.7451 220.632 100.527 220.678 101.585 220.678H107.588C108.945 220.678 109.543 220.655 110.233 220.54V223.829C109.704 223.76 109.474 223.76 108.761 223.737V225.347C109.658 225.324 110.026 225.324 110.555 225.255V228.521C109.98 228.452 109.612 228.452 108.761 228.429V229.809C108.761 230.66 108.761 231.143 108.784 231.718H110.762C110.693 232.109 110.67 232.385 110.67 232.937V233.558H114.971C116.236 233.558 117.271 233.512 117.846 233.443V236.778C117.179 236.709 116.236 236.663 115.04 236.663H110.67V237.882H116.742C117.938 237.882 118.789 237.836 119.525 237.767V241.171C118.674 241.079 117.777 241.033 116.42 241.033H101.562C100.251 241.033 99.3541 241.079 98.5261 241.171V237.767C99.2851 237.836 100.136 237.882 101.309 237.882H107.128V236.663H102.965C101.884 236.663 100.918 236.709 100.205 236.778ZM105.449 228.429H104.092C103.77 230.614 102.988 232.155 101.447 233.535C101.861 233.558 102.045 233.558 102.528 233.558H107.128V232.684H105.334C105.403 231.856 105.449 230.89 105.449 229.855V228.429ZM104.253 223.737V225.347H105.449V223.737H104.253ZM114.488 222.794V229.073C114.488 229.257 114.488 229.372 114.488 229.671C114.557 229.648 114.603 229.648 114.626 229.648C115.638 229.648 115.638 229.648 115.638 229.188V221.943C115.638 221.138 115.615 220.701 115.523 220.172H119.226C119.134 220.632 119.111 221.276 119.111 222.219V229.901C119.111 231.465 118.789 232.132 117.892 232.5C117.386 232.73 116.535 232.822 115.247 232.822C114.856 232.822 114.534 232.822 113.545 232.776C113.43 231.741 113.338 231.327 113.062 230.43H111.061C111.13 229.993 111.153 229.441 111.153 228.774V223.001C111.153 222.288 111.13 221.759 111.061 221.276H114.557C114.511 221.69 114.488 222.173 114.488 222.794Z" fill="black"/>
<path d="M64.2561 51.5585V59.2175H69.9371C71.3401 59.2175 72.4901 59.1715 73.5251 59.0565V62.8745C72.4441 62.7595 71.3171 62.7135 70.0061 62.7135H56.1371C54.9641 62.7135 53.6761 62.7595 52.4801 62.8745V59.0565C53.5381 59.1715 54.6421 59.2175 56.1371 59.2175H60.4611V45.0495C60.4611 43.8305 60.4381 43.1865 60.3231 42.1515H64.3941C64.3021 43.1175 64.2561 43.8535 64.2561 45.0495V48.1315H69.1781C70.2361 48.1315 71.1331 48.0855 72.1221 47.9935V51.6965C71.1101 51.6045 70.2131 51.5585 69.1781 51.5585H64.2561ZM87.1871 45.0725V43.6925C87.1871 42.8415 87.1411 42.4045 87.0491 41.8755H90.8671C90.7521 42.3355 90.7291 42.7725 90.7291 43.7155V45.0725H93.4201C94.6621 45.0725 95.4901 45.0265 96.2491 44.9345V48.5225C95.4671 48.4305 94.5701 48.3845 93.3511 48.3845H84.7951C83.4611 48.3845 82.4951 48.4305 81.8281 48.5225V44.9575C82.4721 45.0495 83.1851 45.0725 84.7031 45.0725H87.1871ZM84.1281 59.4245H88.7971C89.9011 56.2045 90.8211 52.1565 91.2121 48.8445L95.0071 49.9025C94.1331 53.7665 93.5121 55.9745 92.3621 59.4245H93.9261C95.1911 59.4245 95.9961 59.3785 96.7551 59.2865V62.8975C95.9271 62.8055 95.0761 62.7595 93.7421 62.7595H84.2661C82.9781 62.7595 82.0811 62.8055 81.3221 62.8975V59.2865C82.0581 59.3785 82.8631 59.4245 84.1281 59.4245ZM77.1131 60.8505V55.0545C77.1131 54.7095 77.1131 53.9045 77.1361 52.7545C76.3541 53.7895 76.3541 53.7895 75.9631 54.2495C75.6871 52.7315 75.3421 51.4895 74.7901 50.0175C76.1241 48.6145 77.2281 46.8205 78.0791 44.5205C78.4931 43.3705 78.7691 42.4045 78.8841 41.5535L82.5411 42.3815C81.8051 44.7275 81.2991 46.0845 80.6091 47.6025V60.8505C80.6091 61.8395 80.6321 62.4835 80.7471 63.4955H76.9521C77.0671 62.4605 77.1131 61.9315 77.1131 60.8505ZM88.2221 57.6765L84.7491 58.8955C84.1051 55.4915 83.4151 52.9845 82.3571 50.1785L85.7151 49.0055C86.8651 52.0645 87.4631 54.1345 88.2221 57.6765ZM100.205 58.5505V55.3075C99.4921 54.4565 98.9861 53.9505 98.1811 53.3525C99.5841 52.4325 100.182 51.6505 100.596 50.2015C99.6761 50.2015 99.1471 50.2245 98.4801 50.3165V47.0045C99.2391 47.0965 99.8141 47.1195 100.895 47.1195V45.5095C99.8601 45.5095 99.5381 45.5325 98.9401 45.6015V42.3125C99.7451 42.4045 100.527 42.4505 101.585 42.4505H107.588C108.945 42.4505 109.543 42.4275 110.233 42.3125V45.6015C109.704 45.5325 109.474 45.5325 108.761 45.5095V47.1195C109.658 47.0965 110.026 47.0965 110.555 47.0275V50.2935C109.98 50.2245 109.612 50.2245 108.761 50.2015V51.5815C108.761 52.4325 108.761 52.9155 108.784 53.4905H110.762C110.693 53.8815 110.67 54.1575 110.67 54.7095V55.3305H114.971C116.236 55.3305 117.271 55.2845 117.846 55.2155V58.5505C117.179 58.4815 116.236 58.4355 115.04 58.4355H110.67V59.6545H116.742C117.938 59.6545 118.789 59.6085 119.525 59.5395V62.9435C118.674 62.8515 117.777 62.8055 116.42 62.8055H101.562C100.251 62.8055 99.3541 62.8515 98.5261 62.9435V59.5395C99.2851 59.6085 100.136 59.6545 101.309 59.6545H107.128V58.4355H102.965C101.884 58.4355 100.918 58.4815 100.205 58.5505ZM105.449 50.2015H104.092C103.77 52.3865 102.988 53.9275 101.447 55.3075C101.861 55.3305 102.045 55.3305 102.528 55.3305H107.128V54.4565H105.334C105.403 53.6285 105.449 52.6625 105.449 51.6275V50.2015ZM104.253 45.5095V47.1195H105.449V45.5095H104.253ZM114.488 44.5665V50.8455C114.488 51.0295 114.488 51.1445 114.488 51.4435C114.557 51.4205 114.603 51.4205 114.626 51.4205C115.638 51.4205 115.638 51.4205 115.638 50.9605V43.7155C115.638 42.9105 115.615 42.4735 115.523 41.9445H119.226C119.134 42.4045 119.111 43.0485 119.111 43.9915V51.6735C119.111 53.2375 118.789 53.9045 117.892 54.2725C117.386 54.5025 116.535 54.5945 115.247 54.5945C114.856 54.5945 114.534 54.5945 113.545 54.5485C113.43 53.5135 113.338 53.0995 113.062 52.2025H111.061C111.13 51.7655 111.153 51.2135 111.153 50.5465V44.7735C111.153 44.0605 111.13 43.5315 111.061 43.0485H114.557C114.511 43.4625 114.488 43.9455 114.488 44.5665Z" fill="black"/>
<path d="M412.285 138.686H416.931V143.332H412.285V138.686ZM426.907 138.686H431.553V143.332H426.907V138.686ZM441.529 138.686H446.175V143.332H441.529V138.686Z" fill="black"/>
</g>
<defs>
<clipPath id="clip0_209_3267">
<rect width="281" height="530" fill="white" transform="translate(530.865) rotate(90)"/>
</clipPath>
</defs>
</svg>
