<svg fill="none" height="400" viewBox="0 0 530 400" width="530" xmlns="http://www.w3.org/2000/svg" xmlns:xlink="http://www.w3.org/1999/xlink"><clipPath id="a"><path d="m0 0h400v530h-400z" transform="matrix(0 1 -1 0 530 0)"/></clipPath><mask id="b" fill="#fff"><path clip-rule="evenodd" d="m265 299.863c-37.472-27.27-61.829-71.472-61.829-121.363s24.357-94.0927 61.829-121.363c37.471 27.2703 61.829 71.472 61.829 121.363s-24.358 94.093-61.829 121.363z" fill="#fff" fill-rule="evenodd"/></mask><g clip-path="url(#a)"><path d="m0 0h400v530h-400z" fill="#fff" transform="matrix(0 1 -1 0 530 0)"/><path d="m0 0h530v400h-530z" fill="#b3e5fc"/><circle cx="176.829" cy="178.5" fill="#0288d1" r="148.5" stroke="#fff" stroke-width="3"/><circle cx="353.171" cy="178.5" fill="#0288d1" r="148.5" stroke="#fff" stroke-width="3"/><path clip-rule="evenodd" d="m265 299.863c-37.472-27.27-61.829-71.472-61.829-121.363s24.357-94.0927 61.829-121.363c37.471 27.2703 61.829 71.472 61.829 121.363s-24.358 94.093-61.829 121.363z" fill="#01579b" fill-rule="evenodd"/><g fill="#fff"><path d="m265 299.863-1.177 1.617 1.177.856 1.177-.856zm0-242.726 1.177-1.6171-1.177-.8565-1.177.8565zm61.829 121.363h2zm-60.652 119.746c-36.977-26.91-61.006-70.522-61.006-119.746h-4c0 50.557 24.686 95.349 62.652 122.98zm-61.006-119.746c0-49.224 24.029-92.8358 61.006-119.7459l-2.354-3.2342c-37.966 27.6305-62.652 72.4231-62.652 122.9801zm58.652-119.7459c36.977 26.9101 61.006 70.5219 61.006 119.7459h4c0-50.557-24.686-95.3496-62.652-122.9801zm61.006 119.7459c0 49.224-24.029 92.836-61.006 119.746l2.354 3.234c37.966-27.631 62.652-72.423 62.652-122.98z" mask="url(#b)"/><path d="m146.229 165.25h-.2c-.5 1.4-1.1 3.067-1.8 5-.666 1.933-1.366 3.933-2.1 6-.7 2.033-1.366 3.933-2 5.7l-.25.75c-.2.6-.45 1.35-.75 2.25s-.616 1.85-.95 2.85c-.333.967-.65 1.883-.95 2.75-.3.833-.533 1.517-.7 2.05-.233.1-.483.167-.75.2-.233.067-.533.1-.9.1-.533 0-1.016-.133-1.45-.4-.4-.3-.6-.767-.6-1.4 0-.3.05-.6.15-.9.1-.333.217-.683.35-1.05.4-1.133.884-2.517 1.45-4.15.6-1.633 1.25-3.417 1.95-5.35s1.434-3.917 2.2-5.95c.767-2.033 1.517-4.017 2.25-5.95.734-1.933 1.417-3.7 2.05-5.3.267-.133.667-.267 1.2-.4.534-.133 1.084-.2 1.65-.2.667 0 1.3.1 1.9.3.634.2 1.034.533 1.2 1 .8 1.933 1.65 4.133 2.55 6.6.934 2.433 1.867 4.983 2.8 7.65.934 2.633 1.817 5.2 2.65 7.7.867 2.5 1.634 4.767 2.3 6.8-.233.3-.55.533-.95.7-.366.2-.783.3-1.25.3-.633 0-1.116-.133-1.45-.4-.333-.3-.616-.783-.85-1.45l-2.75-8.15-.4-1.4c-.666-2.033-1.366-4.083-2.1-6.15-.7-2.067-1.366-3.983-2-5.75-.6-1.767-1.1-3.217-1.5-4.35zm-8.3 19.15 1.3-3.35h13.95l.8 3.35z"/><path d="m384.534 175.05v3.3h-13.75v-3.3zm-5.75 3.3 1.6-2.5c2.267 0 4.15.383 5.65 1.15 1.5.733 2.617 1.717 3.35 2.95.767 1.233 1.15 2.617 1.15 4.15 0 3.033-1.1 5.283-3.3 6.75-2.167 1.467-5.267 2.2-9.3 2.2-.9 0-1.8-.033-2.7-.1-.9-.033-1.783-.117-2.65-.25s-1.7-.3-2.5-.5c-1.4-.4-2.1-1.167-2.1-2.3v-25.6c0-.533.133-.95.4-1.25.3-.3.717-.517 1.25-.65 1.133-.333 2.333-.55 3.6-.65 1.3-.133 2.683-.2 4.15-.2 3.767 0 6.7.683 8.8 2.05 2.1 1.333 3.15 3.383 3.15 6.15 0 1.4-.35 2.7-1.05 3.9-.667 1.167-1.767 2.117-3.3 2.85-1.5.7-3.517 1.05-6.05 1.05l-.45-2.5c2.2 0 3.867-.45 5-1.35 1.133-.933 1.7-2.217 1.7-3.85 0-1.667-.667-2.9-2-3.7-1.3-.833-3.233-1.25-5.8-1.25-1.133 0-2.133.05-3 .15-.867.067-1.667.167-2.4.3v23.8c.8.167 1.717.3 2.75.4 1.067.1 2.133.15 3.2.15 2.767 0 4.867-.467 6.3-1.4s2.15-2.367 2.15-4.3c0-1.733-.65-3.1-1.95-4.1-1.267-1.033-3.15-1.55-5.65-1.55z"/><path d="m234.221 165.25h-.2c-.5 1.4-1.1 3.067-1.8 5-.666 1.933-1.366 3.933-2.1 6-.7 2.033-1.366 3.933-2 5.7l-.25.75c-.2.6-.45 1.35-.75 2.25s-.616 1.85-.95 2.85c-.333.967-.65 1.883-.95 2.75-.3.833-.533 1.517-.7 2.05-.233.1-.483.167-.75.2-.233.067-.533.1-.9.1-.533 0-1.016-.133-1.45-.4-.4-.3-.6-.767-.6-1.4 0-.3.05-.6.15-.9.1-.333.217-.683.35-1.05.4-1.133.884-2.517 1.45-4.15.6-1.633 1.25-3.417 1.95-5.35s1.434-3.917 2.2-5.95c.767-2.033 1.517-4.017 2.25-5.95.734-1.933 1.417-3.7 2.05-5.3.267-.133.667-.267 1.2-.4.534-.133 1.084-.2 1.65-.2.667 0 1.3.1 1.9.3.634.2 1.034.533 1.2 1 .8 1.933 1.65 4.133 2.55 6.6.934 2.433 1.867 4.983 2.8 7.65.934 2.633 1.817 5.2 2.65 7.7.867 2.5 1.634 4.767 2.3 6.8-.233.3-.55.533-.95.7-.366.2-.783.3-1.25.3-.633 0-1.116-.133-1.45-.4-.333-.3-.616-.783-.85-1.45l-2.75-8.15-.4-1.4c-.666-2.033-1.366-4.083-2.1-6.15-.7-2.067-1.366-3.983-2-5.75-.6-1.767-1.1-3.217-1.5-4.35zm-8.3 19.15 1.3-3.35h13.95l.8 3.35zm48.44 3-1.45 1.7c-1.133 1.233-2.517 2.233-4.15 3s-3.6 1.15-5.9 1.15-4.317-.417-6.05-1.25c-1.7-.833-3.033-2-4-3.5-.933-1.533-1.4-3.317-1.4-5.35 0-1.7.333-3.183 1-4.45.7-1.3 1.633-2.383 2.8-3.25s2.467-1.483 3.9-1.85l1.75 2.95c-.9.2-1.767.583-2.6 1.15-.8.533-1.467 1.267-2 2.2-.533.9-.8 2-.8 3.3 0 2 .65 3.617 1.95 4.85 1.333 1.2 3.167 1.8 5.5 1.8 1.267 0 2.567-.267 3.9-.8 1.367-.533 2.617-1.45 3.75-2.75l1.1-1.6c.6-1.1 1.067-2.483 1.4-4.15.367-1.667.55-3.567.55-5.7.3-.133.6-.233.9-.3.333-.1.65-.15.95-.15.667 0 1.167.2 1.5.6.333.367.5.917.5 1.65 0 1.867-.283 3.783-.85 5.75-.533 1.967-1.283 3.633-2.25 5zm2.8 5.8c-.667 0-1.333-.383-2-1.15l-15.3-16-1.25-1.4c-1.033-1.067-1.8-2.1-2.3-3.1-.5-1.033-.75-2.133-.75-3.3 0-1.367.3-2.55.9-3.55.633-1.033 1.533-1.833 2.7-2.4 1.2-.567 2.65-.85 4.35-.85 1.767 0 3.1.25 4 .75.933.5 1.4 1.133 1.4 1.9 0 .4-.117.767-.35 1.1-.2.3-.433.533-.7.7-.533-.3-1.167-.55-1.9-.75-.7-.2-1.433-.3-2.2-.3-1.267 0-2.267.317-3 .95-.733.6-1.1 1.433-1.1 2.5 0 1.033.267 1.95.8 2.75s1.3 1.717 2.3 2.75l16.6 17.25c-.1.667-.333 1.183-.7 1.55-.367.4-.867.6-1.5.6zm24.586-18.15v3.3h-13.75v-3.3zm-5.75 3.3 1.6-2.5c2.267 0 4.15.383 5.65 1.15 1.5.733 2.617 1.717 3.35 2.95.767 1.233 1.15 2.617 1.15 4.15 0 3.033-1.1 5.283-3.3 6.75-2.167 1.467-5.267 2.2-9.3 2.2-.9 0-1.8-.033-2.7-.1-.9-.033-1.783-.117-2.65-.25s-1.7-.3-2.5-.5c-1.4-.4-2.1-1.167-2.1-2.3v-25.6c0-.533.133-.95.4-1.25.3-.3.717-.517 1.25-.65 1.133-.333 2.333-.55 3.6-.65 1.3-.133 2.683-.2 4.15-.2 3.767 0 6.7.683 8.8 2.05 2.1 1.333 3.15 3.383 3.15 6.15 0 1.4-.35 2.7-1.05 3.9-.667 1.167-1.767 2.117-3.3 2.85-1.5.7-3.517 1.05-6.05 1.05l-.45-2.5c2.2 0 3.867-.45 5-1.35 1.133-.933 1.7-2.217 1.7-3.85 0-1.667-.667-2.9-2-3.7-1.3-.833-3.233-1.25-5.8-1.25-1.133 0-2.133.05-3 .15-.867.067-1.667.167-2.4.3v23.8c.8.167 1.717.3 2.75.4 1.067.1 2.133.15 3.2.15 2.767 0 4.867-.467 6.3-1.4s2.15-2.367 2.15-4.3c0-1.733-.65-3.1-1.95-4.1-1.267-1.033-3.15-1.55-5.65-1.55z"/></g><path d="m239.667 341.35h-.24c-.6 1.68-1.32 3.68-2.16 6-.8 2.32-1.64 4.72-2.52 7.2-.84 2.44-1.64 4.72-2.4 6.84l-.3.9c-.24.72-.54 1.62-.9 2.7s-.74 2.22-1.14 3.42c-.4 1.16-.78 2.26-1.14 3.3-.36 1-.64 1.82-.84 2.46-.28.12-.58.2-.9.24-.28.08-.64.12-1.08.12-.64 0-1.22-.16-1.74-.48-.48-.36-.72-.92-.72-1.68 0-.36.06-.72.18-1.08.12-.4.26-.82.42-1.26.48-1.36 1.06-3.02 1.74-4.98.72-1.96 1.5-4.1 2.34-6.42s1.72-4.7 2.64-7.14 1.82-4.82 2.7-7.14 1.7-4.44 2.46-6.36c.32-.16.8-.32 1.44-.48s1.3-.24 1.98-.24c.8 0 1.56.12 2.28.36.76.24 1.24.64 1.44 1.2.96 2.32 1.98 4.96 3.06 7.92 1.12 2.92 2.24 5.98 3.36 9.18 1.12 3.16 2.18 6.24 3.18 9.24 1.04 3 1.96 5.72 2.76 8.16-.28.36-.66.64-1.14.84-.44.24-.94.36-1.5.36-.76 0-1.34-.16-1.74-.48-.4-.36-.74-.94-1.02-1.74l-3.3-9.78-.48-1.68c-.8-2.44-1.64-4.9-2.52-7.38-.84-2.48-1.64-4.78-2.4-6.9-.72-2.12-1.32-3.86-1.8-5.22zm-9.96 22.98 1.56-4.02h16.74l.96 4.02zm37.188-31.8v49.32c-.28.12-.58.22-.9.3s-.7.12-1.14.12c-.76 0-1.32-.18-1.68-.54-.32-.36-.48-.96-.48-1.8v-49.32c.32-.12.62-.22.9-.3.32-.08.7-.12 1.14-.12.76 0 1.3.18 1.62.54.36.36.54.96.54 1.8zm30.6 20.58v3.96h-16.5v-3.96zm-6.9 3.96 1.92-3c2.72 0 4.98.46 6.78 1.38 1.8.88 3.14 2.06 4.02 3.54.92 1.48 1.38 3.14 1.38 4.98 0 3.64-1.32 6.34-3.96 8.1-2.6 1.76-6.32 2.64-11.16 2.64-1.08 0-2.16-.04-3.24-.12-1.08-.04-2.14-.14-3.18-.3s-2.04-.36-3-.6c-1.68-.48-2.52-1.4-2.52-2.76v-30.72c0-.64.16-1.14.48-1.5.36-.36.86-.62 1.5-.78 1.36-.4 2.8-.66 4.32-.78 1.56-.16 3.22-.24 4.98-.24 4.52 0 8.04.82 10.56 2.46 2.52 1.6 3.78 4.06 3.78 7.38 0 1.68-.42 3.24-1.26 4.68-.8 1.4-2.12 2.54-3.96 3.42-1.8.84-4.22 1.26-7.26 1.26l-.54-3c2.64 0 4.64-.54 6-1.62 1.36-1.12 2.04-2.66 2.04-4.62 0-2-.8-3.48-2.4-4.44-1.56-1-3.88-1.5-6.96-1.5-1.36 0-2.56.06-3.6.18-1.04.08-2 .2-2.88.36v28.56c.96.2 2.06.36 3.3.48 1.28.12 2.56.18 3.84.18 3.32 0 5.84-.56 7.56-1.68s2.58-2.84 2.58-5.16c0-2.08-.78-3.72-2.34-4.92-1.52-1.24-3.78-1.86-6.78-1.86z" fill="#0288d1"/></g></svg>