<svg xmlns="http://www.w3.org/2000/svg" viewBox="0 0 128 128"><defs><style>.cls-1{fill:#f0db4f;}.cls-2{fill:#323330;}</style></defs><g id="レイヤー_2" data-name="レイヤー 2"><g id="JavaScript"><circle id="circle" class="cls-1" cx="64" cy="64" r="64"/><path id="JS" class="cls-2" d="M106.81,73.22c-1-5.92-4.81-10.9-16.26-15.54-4-1.83-8.41-3.14-9.73-6.15a6.7,6.7,0,0,1-.24-3.81c.85-3.44,5-4.52,8.23-3.53a9,9,0,0,1,5.28,4.9c5.61-3.63,5.6-3.6,9.51-6.1a24.71,24.71,0,0,0-3.13-4.2c-3.38-3.76-8-5.7-15.32-5.55l-3.83.49a17.41,17.41,0,0,0-9.21,5.43c-6.15,7-4.4,19.2,3.09,24.22,7.37,5.54,18.2,6.79,19.59,12,1.34,6.33-4.66,8.39-10.63,7.66-4.39-.92-6.84-3.15-9.48-7.21l-9.87,5.69c1.19,2.59,2.43,3.77,4.42,6,9.41,9.55,33,9.08,37.19-5.37A17.85,17.85,0,0,0,106.81,73.22ZM58.15,34H46l0,31.42c0,6.68.35,12.81-.74,14.68-1.78,3.7-6.39,3.24-8.49,2.52-2.13-1.05-3.22-2.54-4.48-4.65a5.31,5.31,0,0,0-.69-1.11l-9.88,6a19.5,19.5,0,0,0,7.16,8.2c4.63,2.78,10.86,3.63,17.37,2.13A15.32,15.32,0,0,0,56,85.56c2.77-5.1,2.18-11.27,2.15-18.1C58.21,56.32,58.15,45.18,58.15,34Z"/></g></g></svg>