<svg xmlns="http://www.w3.org/2000/svg" viewBox="0 0 18 18" width="18" height="18"><defs><style>.cls-1{fill:#f0db4f;}.cls-2{fill:#323330;}</style></defs><g id="レイヤー_2" data-name="レイヤー 2"><g id="JavaScript"><circle id="circle" class="cls-1" cx="9" cy="9" r="9"/><path id="JS" class="cls-2" d="M16,10.58c-.16-1-.79-1.79-2.68-2.56-.65-.3-1.38-.51-1.6-1a1.05,1.05,0,0,1,0-.62A1,1,0,0,1,13,5.8a1.55,1.55,0,0,1,.87.81c.92-.6.92-.59,1.56-1a3.51,3.51,0,0,0-.52-.69A3,3,0,0,0,12.41,4l-.63.08a2.85,2.85,0,0,0-1.51.9,2.79,2.79,0,0,0,.5,4c1.22.92,3,1.12,3.23,2,.22,1.05-.77,1.38-1.75,1.26A2.27,2.27,0,0,1,10.69,11l-1.63.93a3.68,3.68,0,0,0,.73,1c1.55,1.58,5.43,1.5,6.12-.88A2.91,2.91,0,0,0,16,10.58ZM8,4.13H6V9.3a8.46,8.46,0,0,1-.12,2.42c-.29.6-1,.53-1.4.41a1.75,1.75,0,0,1-.74-.76,1.36,1.36,0,0,0-.11-.19L2,12.18a3.23,3.23,0,0,0,1.18,1.35A3.86,3.86,0,0,0,6,13.88a2.48,2.48,0,0,0,1.61-1.26,6.2,6.2,0,0,0,.36-3C8,7.8,8,6,8,4.13Z"/></g></g></svg>