<svg xmlns="http://www.w3.org/2000/svg" viewBox="0 0 128 128"><defs><style>.cls-1{fill:#3178c6;}.cls-2{fill:#fff;fill-rule:evenodd;}</style></defs><g id="レイヤー_2" data-name="レイヤー 2"><g id="TypeScript"><circle id="circle" class="cls-1" cx="64" cy="64" r="64"/><path id="TS" class="cls-2" d="M70.29,78.56V91.7a28,28,0,0,0,7.62,2.47,49.05,49.05,0,0,0,9.2.82,42.55,42.55,0,0,0,8.94-.9,22.6,22.6,0,0,0,7.36-2.89,13,13,0,0,0,5-5.52,19.85,19.85,0,0,0,1.87-8.41,17.29,17.29,0,0,0-1.08-6.3A12.36,12.36,0,0,0,106,66.24a20.62,20.62,0,0,0-4.73-3.68A59.52,59.52,0,0,0,95,59.4c-1.74-.71-3.16-1.39-4.73-2.07a21.23,21.23,0,0,1-3.42-2,9.6,9.6,0,0,1-2.24-2.21,4.67,4.67,0,0,1-.78-2.63A4.35,4.35,0,0,1,84.54,48a6.11,6.11,0,0,1,2-1.87,10.41,10.41,0,0,1,3.15-1.21,18.34,18.34,0,0,1,4.21-.42,23.52,23.52,0,0,1,3.41.25,27.36,27.36,0,0,1,3.68.76,27.79,27.79,0,0,1,3.68,1.29,17.07,17.07,0,0,1,3.15,1.81V36.26a32.53,32.53,0,0,0-6.57-1.71A52.35,52.35,0,0,0,93.08,34a39.44,39.44,0,0,0-8.94,1,21,21,0,0,0-7.36,3.15,15.13,15.13,0,0,0-5,5.52A15.59,15.59,0,0,0,70,51.56a14.79,14.79,0,0,0,3.42,10c2.26,2.89,5.78,5,10.25,7.1,1.81.73,3.41,1.47,5,2.18A22.4,22.4,0,0,1,92.55,73a9.58,9.58,0,0,1,2.63,2.49,5.2,5.2,0,0,1,1,3.16A4.85,4.85,0,0,1,95.57,81a5.18,5.18,0,0,1-1.86,1.9,11,11,0,0,1-3.16,1.26,19.1,19.1,0,0,1-4.46.44,24,24,0,0,1-8.41-1.49,25.12,25.12,0,0,1-7.89-4.47ZM48.22,46.24H65V35.46H18V46.24H34.81V94.33H48.22Z"/></g></g></svg>