<svg xmlns="http://www.w3.org/2000/svg" viewBox="0 0 18 18" width="18" height="18"><defs><style>.cls-1{fill:#3178c6;}.cls-2{fill:#fff;fill-rule:evenodd;}</style></defs><g id="レイヤー_2" data-name="レイヤー 2"><g id="TypeScript"><circle id="circle" class="cls-1" cx="9" cy="9" r="9"/><path id="TS" class="cls-2" d="M10,11.21v2.06a4.27,4.27,0,0,0,1.19.39,7.59,7.59,0,0,0,1.45.13,7.07,7.07,0,0,0,1.4-.14,3.48,3.48,0,0,0,1.16-.46,2,2,0,0,0,.78-.86A3.06,3.06,0,0,0,16.24,11a2.54,2.54,0,0,0-.17-1,2,2,0,0,0-.49-.75,3,3,0,0,0-.74-.57,9.1,9.1,0,0,0-1-.5c-.28-.11-.5-.22-.75-.33a2.55,2.55,0,0,1-.53-.32,1.27,1.27,0,0,1-.35-.34.7.7,0,0,1-.13-.42.73.73,0,0,1,.11-.38,1,1,0,0,1,.31-.29,1.41,1.41,0,0,1,.5-.19,2.62,2.62,0,0,1,.66-.07,3.44,3.44,0,0,1,.54,0,5.78,5.78,0,0,1,.57.12,4,4,0,0,1,.58.2,2.72,2.72,0,0,1,.5.29V4.57a5.27,5.27,0,0,0-1-.27,7.88,7.88,0,0,0-1.27-.09,6.48,6.48,0,0,0-1.41.16A3.33,3.33,0,0,0,11,4.86a2.45,2.45,0,0,0-.79.87A2.5,2.5,0,0,0,9.91,7a2.34,2.34,0,0,0,.54,1.57,4.4,4.4,0,0,0,1.61,1.11l.78.34a3.18,3.18,0,0,1,.62.35,1.59,1.59,0,0,1,.42.39.84.84,0,0,1,.15.5.81.81,0,0,1-.09.37,1,1,0,0,1-.3.3,1.73,1.73,0,0,1-.49.19,2.75,2.75,0,0,1-.7.07,3.63,3.63,0,0,1-1.32-.23,3.9,3.9,0,0,1-1.24-.7ZM6.5,6.13H9.14V4.44H1.76V6.13H4.4v7.55H6.5Z"/></g></g></svg>